<?xml version="1.0" encoding="utf-8" standalone="no"?>
<!DOCTYPE svg PUBLIC "-//W3C//DTD SVG 1.1//EN"
  "http://www.w3.org/Graphics/SVG/1.1/DTD/svg11.dtd">
<!-- Created with matplotlib (http://matplotlib.org/) -->
<svg height="432pt" version="1.1" viewBox="0 0 576 432" width="576pt" xmlns="http://www.w3.org/2000/svg" xmlns:xlink="http://www.w3.org/1999/xlink">
 <defs>
  <style type="text/css">
*{stroke-linecap:butt;stroke-linejoin:round;stroke-miterlimit:100000;}
  </style>
 </defs>
 <g id="figure_1">
  <g id="patch_1">
   <path d="M 0 432 
L 576 432 
L 576 0 
L 0 0 
z
" style="fill:#ffffff;"/>
  </g>
  <g id="axes_1">
   <g id="patch_2">
    <path d="M 72 388.8 
L 518.4 388.8 
L 518.4 43.2 
L 72 43.2 
z
" style="fill:#ffffff;"/>
   </g>
   <g id="PathCollection_1">
    <defs>
     <path d="M 0 2.236068 
C 0.593012 2.236068 1.161816 2.000462 1.581139 1.581139 
C 2.000462 1.161816 2.236068 0.593012 2.236068 0 
C 2.236068 -0.593012 2.000462 -1.161816 1.581139 -1.581139 
C 1.161816 -2.000462 0.593012 -2.236068 0 -2.236068 
C -0.593012 -2.236068 -1.161816 -2.000462 -1.581139 -1.581139 
C -2.000462 -1.161816 -2.236068 -0.593012 -2.236068 0 
C -2.236068 0.593012 -2.000462 1.161816 -1.581139 1.581139 
C -1.161816 2.000462 -0.593012 2.236068 0 2.236068 
z
" id="m4f03c544fa" style="stroke:#0000ff;"/>
    </defs>
    <g clip-path="url(#pa2d47013ce)">
     <use style="fill:#0000ff;stroke:#0000ff;" x="127.8" xlink:href="#m4f03c544fa" y="273.6"/>
     <use style="fill:#0000ff;stroke:#0000ff;" x="142.484210526" xlink:href="#m4f03c544fa" y="347.657142857"/>
     <use style="fill:#0000ff;stroke:#0000ff;" x="157.168421053" xlink:href="#m4f03c544fa" y="364.114285714"/>
     <use style="fill:#0000ff;stroke:#0000ff;" x="171.852631579" xlink:href="#m4f03c544fa" y="372.342857143"/>
     <use style="fill:#0000ff;stroke:#0000ff;" x="245.273684211" xlink:href="#m4f03c544fa" y="380.571428571"/>
     <use style="fill:#0000ff;stroke:#0000ff;" x="494.905263158" xlink:href="#m4f03c544fa" y="380.571428571"/>
    </g>
   </g>
   <g id="PathCollection_2">
    <defs>
     <path d="M 0 2.236068 
C 0.593012 2.236068 1.161816 2.000462 1.581139 1.581139 
C 2.000462 1.161816 2.236068 0.593012 2.236068 0 
C 2.236068 -0.593012 2.000462 -1.161816 1.581139 -1.581139 
C 1.161816 -2.000462 0.593012 -2.236068 0 -2.236068 
C -0.593012 -2.236068 -1.161816 -2.000462 -1.581139 -1.581139 
C -2.000462 -1.161816 -2.236068 -0.593012 -2.236068 0 
C -2.236068 0.593012 -2.000462 1.161816 -1.581139 1.581139 
C -1.161816 2.000462 -0.593012 2.236068 0 2.236068 
z
" id="md3ed4739d2" style="stroke:#ffa500;"/>
    </defs>
    <g clip-path="url(#pa2d47013ce)">
     <use style="fill:#ffa500;stroke:#ffa500;" x="127.8" xlink:href="#md3ed4739d2" y="43.2"/>
     <use style="fill:#ffa500;stroke:#ffa500;" x="143.3" xlink:href="#md3ed4739d2" y="339.428571429"/>
     <use style="fill:#ffa500;stroke:#ffa500;" x="158.8" xlink:href="#md3ed4739d2" y="380.571428571"/>
     <use style="fill:#ffa500;stroke:#ffa500;" x="174.3" xlink:href="#md3ed4739d2" y="380.571428571"/>
     <use style="fill:#ffa500;stroke:#ffa500;" x="282.8" xlink:href="#md3ed4739d2" y="380.571428571"/>
    </g>
   </g>
   <g id="patch_3">
    <path d="M 72 388.8 
L 72 43.2 
" style="fill:none;stroke:#000000;stroke-linecap:square;stroke-linejoin:miter;"/>
   </g>
   <g id="patch_4">
    <path d="M 518.4 388.8 
L 518.4 43.2 
" style="fill:none;stroke:#000000;stroke-linecap:square;stroke-linejoin:miter;"/>
   </g>
   <g id="patch_5">
    <path d="M 72 388.8 
L 518.4 388.8 
" style="fill:none;stroke:#000000;stroke-linecap:square;stroke-linejoin:miter;"/>
   </g>
   <g id="patch_6">
    <path d="M 72 43.2 
L 518.4 43.2 
" style="fill:none;stroke:#000000;stroke-linecap:square;stroke-linejoin:miter;"/>
   </g>
   <g id="matplotlib.axis_1">
    <g id="xtick_1">
     <g id="line2d_1">
      <defs>
       <path d="M 0 0 
L 0 -4 
" id="m7044fdbc36" style="stroke:#000000;stroke-width:0.5;"/>
      </defs>
      <g>
       <use style="stroke:#000000;stroke-width:0.5;" x="72.0" xlink:href="#m7044fdbc36" y="388.8"/>
      </g>
     </g>
     <g id="line2d_2">
      <defs>
       <path d="M 0 0 
L 0 4 
" id="m17f46a9e4a" style="stroke:#000000;stroke-width:0.5;"/>
      </defs>
      <g>
       <use style="stroke:#000000;stroke-width:0.5;" x="72.0" xlink:href="#m17f46a9e4a" y="43.2"/>
      </g>
     </g>
     <g id="text_1">
      <!-- −5 -->
      <defs>
       <path d="M 10.796875 72.90625 
L 49.515625 72.90625 
L 49.515625 64.59375 
L 19.828125 64.59375 
L 19.828125 46.734375 
Q 21.96875 47.46875 24.109375 47.828125 
Q 26.265625 48.1875 28.421875 48.1875 
Q 40.625 48.1875 47.75 41.5 
Q 54.890625 34.8125 54.890625 23.390625 
Q 54.890625 11.625 47.5625 5.09375 
Q 40.234375 -1.421875 26.90625 -1.421875 
Q 22.3125 -1.421875 17.546875 -0.640625 
Q 12.796875 0.140625 7.71875 1.703125 
L 7.71875 11.625 
Q 12.109375 9.234375 16.796875 8.0625 
Q 21.484375 6.890625 26.703125 6.890625 
Q 35.15625 6.890625 40.078125 11.328125 
Q 45.015625 15.765625 45.015625 23.390625 
Q 45.015625 31 40.078125 35.4375 
Q 35.15625 39.890625 26.703125 39.890625 
Q 22.75 39.890625 18.8125 39.015625 
Q 14.890625 38.140625 10.796875 36.28125 
z
" id="BitstreamVeraSans-Roman-35"/>
       <path d="M 10.59375 35.5 
L 73.1875 35.5 
L 73.1875 27.203125 
L 10.59375 27.203125 
z
" id="BitstreamVeraSans-Roman-2212"/>
      </defs>
      <g transform="translate(63.1546875 401.918125)scale(0.12 -0.12)">
       <use xlink:href="#BitstreamVeraSans-Roman-2212"/>
       <use x="83.7890625" xlink:href="#BitstreamVeraSans-Roman-35"/>
      </g>
     </g>
    </g>
    <g id="xtick_2">
     <g id="line2d_3">
      <g>
       <use style="stroke:#000000;stroke-width:0.5;" x="127.8" xlink:href="#m7044fdbc36" y="388.8"/>
      </g>
     </g>
     <g id="line2d_4">
      <g>
       <use style="stroke:#000000;stroke-width:0.5;" x="127.8" xlink:href="#m17f46a9e4a" y="43.2"/>
      </g>
     </g>
     <g id="text_2">
      <!-- 0 -->
      <defs>
       <path d="M 31.78125 66.40625 
Q 24.171875 66.40625 20.328125 58.90625 
Q 16.5 51.421875 16.5 36.375 
Q 16.5 21.390625 20.328125 13.890625 
Q 24.171875 6.390625 31.78125 6.390625 
Q 39.453125 6.390625 43.28125 13.890625 
Q 47.125 21.390625 47.125 36.375 
Q 47.125 51.421875 43.28125 58.90625 
Q 39.453125 66.40625 31.78125 66.40625 
M 31.78125 74.21875 
Q 44.046875 74.21875 50.515625 64.515625 
Q 56.984375 54.828125 56.984375 36.375 
Q 56.984375 17.96875 50.515625 8.265625 
Q 44.046875 -1.421875 31.78125 -1.421875 
Q 19.53125 -1.421875 13.0625 8.265625 
Q 6.59375 17.96875 6.59375 36.375 
Q 6.59375 54.828125 13.0625 64.515625 
Q 19.53125 74.21875 31.78125 74.21875 
" id="BitstreamVeraSans-Roman-30"/>
      </defs>
      <g transform="translate(123.9825 401.918125)scale(0.12 -0.12)">
       <use xlink:href="#BitstreamVeraSans-Roman-30"/>
      </g>
     </g>
    </g>
    <g id="xtick_3">
     <g id="line2d_5">
      <g>
       <use style="stroke:#000000;stroke-width:0.5;" x="183.6" xlink:href="#m7044fdbc36" y="388.8"/>
      </g>
     </g>
     <g id="line2d_6">
      <g>
       <use style="stroke:#000000;stroke-width:0.5;" x="183.6" xlink:href="#m17f46a9e4a" y="43.2"/>
      </g>
     </g>
     <g id="text_3">
      <!-- 5 -->
      <g transform="translate(179.7825 401.918125)scale(0.12 -0.12)">
       <use xlink:href="#BitstreamVeraSans-Roman-35"/>
      </g>
     </g>
    </g>
    <g id="xtick_4">
     <g id="line2d_7">
      <g>
       <use style="stroke:#000000;stroke-width:0.5;" x="239.4" xlink:href="#m7044fdbc36" y="388.8"/>
      </g>
     </g>
     <g id="line2d_8">
      <g>
       <use style="stroke:#000000;stroke-width:0.5;" x="239.4" xlink:href="#m17f46a9e4a" y="43.2"/>
      </g>
     </g>
     <g id="text_4">
      <!-- 10 -->
      <defs>
       <path d="M 12.40625 8.296875 
L 28.515625 8.296875 
L 28.515625 63.921875 
L 10.984375 60.40625 
L 10.984375 69.390625 
L 28.421875 72.90625 
L 38.28125 72.90625 
L 38.28125 8.296875 
L 54.390625 8.296875 
L 54.390625 0 
L 12.40625 0 
z
" id="BitstreamVeraSans-Roman-31"/>
      </defs>
      <g transform="translate(231.765 401.918125)scale(0.12 -0.12)">
       <use xlink:href="#BitstreamVeraSans-Roman-31"/>
       <use x="63.623046875" xlink:href="#BitstreamVeraSans-Roman-30"/>
      </g>
     </g>
    </g>
    <g id="xtick_5">
     <g id="line2d_9">
      <g>
       <use style="stroke:#000000;stroke-width:0.5;" x="295.2" xlink:href="#m7044fdbc36" y="388.8"/>
      </g>
     </g>
     <g id="line2d_10">
      <g>
       <use style="stroke:#000000;stroke-width:0.5;" x="295.2" xlink:href="#m17f46a9e4a" y="43.2"/>
      </g>
     </g>
     <g id="text_5">
      <!-- 15 -->
      <g transform="translate(287.565 401.918125)scale(0.12 -0.12)">
       <use xlink:href="#BitstreamVeraSans-Roman-31"/>
       <use x="63.623046875" xlink:href="#BitstreamVeraSans-Roman-35"/>
      </g>
     </g>
    </g>
    <g id="xtick_6">
     <g id="line2d_11">
      <g>
       <use style="stroke:#000000;stroke-width:0.5;" x="351.0" xlink:href="#m7044fdbc36" y="388.8"/>
      </g>
     </g>
     <g id="line2d_12">
      <g>
       <use style="stroke:#000000;stroke-width:0.5;" x="351.0" xlink:href="#m17f46a9e4a" y="43.2"/>
      </g>
     </g>
     <g id="text_6">
      <!-- 20 -->
      <defs>
       <path d="M 19.1875 8.296875 
L 53.609375 8.296875 
L 53.609375 0 
L 7.328125 0 
L 7.328125 8.296875 
Q 12.9375 14.109375 22.625 23.890625 
Q 32.328125 33.6875 34.8125 36.53125 
Q 39.546875 41.84375 41.421875 45.53125 
Q 43.3125 49.21875 43.3125 52.78125 
Q 43.3125 58.59375 39.234375 62.25 
Q 35.15625 65.921875 28.609375 65.921875 
Q 23.96875 65.921875 18.8125 64.3125 
Q 13.671875 62.703125 7.8125 59.421875 
L 7.8125 69.390625 
Q 13.765625 71.78125 18.9375 73 
Q 24.125 74.21875 28.421875 74.21875 
Q 39.75 74.21875 46.484375 68.546875 
Q 53.21875 62.890625 53.21875 53.421875 
Q 53.21875 48.921875 51.53125 44.890625 
Q 49.859375 40.875 45.40625 35.40625 
Q 44.1875 33.984375 37.640625 27.21875 
Q 31.109375 20.453125 19.1875 8.296875 
" id="BitstreamVeraSans-Roman-32"/>
      </defs>
      <g transform="translate(343.365 401.918125)scale(0.12 -0.12)">
       <use xlink:href="#BitstreamVeraSans-Roman-32"/>
       <use x="63.623046875" xlink:href="#BitstreamVeraSans-Roman-30"/>
      </g>
     </g>
    </g>
    <g id="xtick_7">
     <g id="line2d_13">
      <g>
       <use style="stroke:#000000;stroke-width:0.5;" x="406.8" xlink:href="#m7044fdbc36" y="388.8"/>
      </g>
     </g>
     <g id="line2d_14">
      <g>
       <use style="stroke:#000000;stroke-width:0.5;" x="406.8" xlink:href="#m17f46a9e4a" y="43.2"/>
      </g>
     </g>
     <g id="text_7">
      <!-- 25 -->
      <g transform="translate(399.165 401.918125)scale(0.12 -0.12)">
       <use xlink:href="#BitstreamVeraSans-Roman-32"/>
       <use x="63.623046875" xlink:href="#BitstreamVeraSans-Roman-35"/>
      </g>
     </g>
    </g>
    <g id="xtick_8">
     <g id="line2d_15">
      <g>
       <use style="stroke:#000000;stroke-width:0.5;" x="462.6" xlink:href="#m7044fdbc36" y="388.8"/>
      </g>
     </g>
     <g id="line2d_16">
      <g>
       <use style="stroke:#000000;stroke-width:0.5;" x="462.6" xlink:href="#m17f46a9e4a" y="43.2"/>
      </g>
     </g>
     <g id="text_8">
      <!-- 30 -->
      <defs>
       <path d="M 40.578125 39.3125 
Q 47.65625 37.796875 51.625 33 
Q 55.609375 28.21875 55.609375 21.1875 
Q 55.609375 10.40625 48.1875 4.484375 
Q 40.765625 -1.421875 27.09375 -1.421875 
Q 22.515625 -1.421875 17.65625 -0.515625 
Q 12.796875 0.390625 7.625 2.203125 
L 7.625 11.71875 
Q 11.71875 9.328125 16.59375 8.109375 
Q 21.484375 6.890625 26.8125 6.890625 
Q 36.078125 6.890625 40.9375 10.546875 
Q 45.796875 14.203125 45.796875 21.1875 
Q 45.796875 27.640625 41.28125 31.265625 
Q 36.765625 34.90625 28.71875 34.90625 
L 20.21875 34.90625 
L 20.21875 43.015625 
L 29.109375 43.015625 
Q 36.375 43.015625 40.234375 45.921875 
Q 44.09375 48.828125 44.09375 54.296875 
Q 44.09375 59.90625 40.109375 62.90625 
Q 36.140625 65.921875 28.71875 65.921875 
Q 24.65625 65.921875 20.015625 65.03125 
Q 15.375 64.15625 9.8125 62.3125 
L 9.8125 71.09375 
Q 15.4375 72.65625 20.34375 73.4375 
Q 25.25 74.21875 29.59375 74.21875 
Q 40.828125 74.21875 47.359375 69.109375 
Q 53.90625 64.015625 53.90625 55.328125 
Q 53.90625 49.265625 50.4375 45.09375 
Q 46.96875 40.921875 40.578125 39.3125 
" id="BitstreamVeraSans-Roman-33"/>
      </defs>
      <g transform="translate(454.965 401.918125)scale(0.12 -0.12)">
       <use xlink:href="#BitstreamVeraSans-Roman-33"/>
       <use x="63.623046875" xlink:href="#BitstreamVeraSans-Roman-30"/>
      </g>
     </g>
    </g>
    <g id="xtick_9">
     <g id="line2d_17">
      <g>
       <use style="stroke:#000000;stroke-width:0.5;" x="518.4" xlink:href="#m7044fdbc36" y="388.8"/>
      </g>
     </g>
     <g id="line2d_18">
      <g>
       <use style="stroke:#000000;stroke-width:0.5;" x="518.4" xlink:href="#m17f46a9e4a" y="43.2"/>
      </g>
     </g>
     <g id="text_9">
      <!-- 35 -->
      <g transform="translate(510.765 401.918125)scale(0.12 -0.12)">
       <use xlink:href="#BitstreamVeraSans-Roman-33"/>
       <use x="63.623046875" xlink:href="#BitstreamVeraSans-Roman-35"/>
      </g>
     </g>
    </g>
    <g id="text_10">
     <!-- percentage of probabillity each correction accounts for -->
     <defs>
      <path d="M 18.3125 70.21875 
L 18.3125 54.6875 
L 36.8125 54.6875 
L 36.8125 47.703125 
L 18.3125 47.703125 
L 18.3125 18.015625 
Q 18.3125 11.328125 20.140625 9.421875 
Q 21.96875 7.515625 27.59375 7.515625 
L 36.8125 7.515625 
L 36.8125 0 
L 27.59375 0 
Q 17.1875 0 13.234375 3.875 
Q 9.28125 7.765625 9.28125 18.015625 
L 9.28125 47.703125 
L 2.6875 47.703125 
L 2.6875 54.6875 
L 9.28125 54.6875 
L 9.28125 70.21875 
z
" id="BitstreamVeraSans-Roman-74"/>
      <path id="BitstreamVeraSans-Roman-20"/>
      <path d="M 8.5 21.578125 
L 8.5 54.6875 
L 17.484375 54.6875 
L 17.484375 21.921875 
Q 17.484375 14.15625 20.5 10.265625 
Q 23.53125 6.390625 29.59375 6.390625 
Q 36.859375 6.390625 41.078125 11.03125 
Q 45.3125 15.671875 45.3125 23.6875 
L 45.3125 54.6875 
L 54.296875 54.6875 
L 54.296875 0 
L 45.3125 0 
L 45.3125 8.40625 
Q 42.046875 3.421875 37.71875 1 
Q 33.40625 -1.421875 27.6875 -1.421875 
Q 18.265625 -1.421875 13.375 4.4375 
Q 8.5 10.296875 8.5 21.578125 
" id="BitstreamVeraSans-Roman-75"/>
      <path d="M 18.109375 8.203125 
L 18.109375 -20.796875 
L 9.078125 -20.796875 
L 9.078125 54.6875 
L 18.109375 54.6875 
L 18.109375 46.390625 
Q 20.953125 51.265625 25.265625 53.625 
Q 29.59375 56 35.59375 56 
Q 45.5625 56 51.78125 48.09375 
Q 58.015625 40.1875 58.015625 27.296875 
Q 58.015625 14.40625 51.78125 6.484375 
Q 45.5625 -1.421875 35.59375 -1.421875 
Q 29.59375 -1.421875 25.265625 0.953125 
Q 20.953125 3.328125 18.109375 8.203125 
M 48.6875 27.296875 
Q 48.6875 37.203125 44.609375 42.84375 
Q 40.53125 48.484375 33.40625 48.484375 
Q 26.265625 48.484375 22.1875 42.84375 
Q 18.109375 37.203125 18.109375 27.296875 
Q 18.109375 17.390625 22.1875 11.75 
Q 26.265625 6.109375 33.40625 6.109375 
Q 40.53125 6.109375 44.609375 11.75 
Q 48.6875 17.390625 48.6875 27.296875 
" id="BitstreamVeraSans-Roman-70"/>
      <path d="M 37.109375 75.984375 
L 37.109375 68.5 
L 28.515625 68.5 
Q 23.6875 68.5 21.796875 66.546875 
Q 19.921875 64.59375 19.921875 59.515625 
L 19.921875 54.6875 
L 34.71875 54.6875 
L 34.71875 47.703125 
L 19.921875 47.703125 
L 19.921875 0 
L 10.890625 0 
L 10.890625 47.703125 
L 2.296875 47.703125 
L 2.296875 54.6875 
L 10.890625 54.6875 
L 10.890625 58.5 
Q 10.890625 67.625 15.140625 71.796875 
Q 19.390625 75.984375 28.609375 75.984375 
z
" id="BitstreamVeraSans-Roman-66"/>
      <path d="M 44.28125 53.078125 
L 44.28125 44.578125 
Q 40.484375 46.53125 36.375 47.5 
Q 32.28125 48.484375 27.875 48.484375 
Q 21.1875 48.484375 17.84375 46.4375 
Q 14.5 44.390625 14.5 40.28125 
Q 14.5 37.15625 16.890625 35.375 
Q 19.28125 33.59375 26.515625 31.984375 
L 29.59375 31.296875 
Q 39.15625 29.25 43.1875 25.515625 
Q 47.21875 21.78125 47.21875 15.09375 
Q 47.21875 7.46875 41.1875 3.015625 
Q 35.15625 -1.421875 24.609375 -1.421875 
Q 20.21875 -1.421875 15.453125 -0.5625 
Q 10.6875 0.296875 5.421875 2 
L 5.421875 11.28125 
Q 10.40625 8.6875 15.234375 7.390625 
Q 20.0625 6.109375 24.8125 6.109375 
Q 31.15625 6.109375 34.5625 8.28125 
Q 37.984375 10.453125 37.984375 14.40625 
Q 37.984375 18.0625 35.515625 20.015625 
Q 33.0625 21.96875 24.703125 23.78125 
L 21.578125 24.515625 
Q 13.234375 26.265625 9.515625 29.90625 
Q 5.8125 33.546875 5.8125 39.890625 
Q 5.8125 47.609375 11.28125 51.796875 
Q 16.75 56 26.8125 56 
Q 31.78125 56 36.171875 55.265625 
Q 40.578125 54.546875 44.28125 53.078125 
" id="BitstreamVeraSans-Roman-73"/>
      <path d="M 54.890625 33.015625 
L 54.890625 0 
L 45.90625 0 
L 45.90625 32.71875 
Q 45.90625 40.484375 42.875 44.328125 
Q 39.84375 48.1875 33.796875 48.1875 
Q 26.515625 48.1875 22.3125 43.546875 
Q 18.109375 38.921875 18.109375 30.90625 
L 18.109375 0 
L 9.078125 0 
L 9.078125 54.6875 
L 18.109375 54.6875 
L 18.109375 46.1875 
Q 21.34375 51.125 25.703125 53.5625 
Q 30.078125 56 35.796875 56 
Q 45.21875 56 50.046875 50.171875 
Q 54.890625 44.34375 54.890625 33.015625 
" id="BitstreamVeraSans-Roman-6e"/>
      <path d="M 9.421875 75.984375 
L 18.40625 75.984375 
L 18.40625 0 
L 9.421875 0 
z
" id="BitstreamVeraSans-Roman-6c"/>
      <path d="M 54.890625 33.015625 
L 54.890625 0 
L 45.90625 0 
L 45.90625 32.71875 
Q 45.90625 40.484375 42.875 44.328125 
Q 39.84375 48.1875 33.796875 48.1875 
Q 26.515625 48.1875 22.3125 43.546875 
Q 18.109375 38.921875 18.109375 30.90625 
L 18.109375 0 
L 9.078125 0 
L 9.078125 75.984375 
L 18.109375 75.984375 
L 18.109375 46.1875 
Q 21.34375 51.125 25.703125 53.5625 
Q 30.078125 56 35.796875 56 
Q 45.21875 56 50.046875 50.171875 
Q 54.890625 44.34375 54.890625 33.015625 
" id="BitstreamVeraSans-Roman-68"/>
      <path d="M 48.6875 27.296875 
Q 48.6875 37.203125 44.609375 42.84375 
Q 40.53125 48.484375 33.40625 48.484375 
Q 26.265625 48.484375 22.1875 42.84375 
Q 18.109375 37.203125 18.109375 27.296875 
Q 18.109375 17.390625 22.1875 11.75 
Q 26.265625 6.109375 33.40625 6.109375 
Q 40.53125 6.109375 44.609375 11.75 
Q 48.6875 17.390625 48.6875 27.296875 
M 18.109375 46.390625 
Q 20.953125 51.265625 25.265625 53.625 
Q 29.59375 56 35.59375 56 
Q 45.5625 56 51.78125 48.09375 
Q 58.015625 40.1875 58.015625 27.296875 
Q 58.015625 14.40625 51.78125 6.484375 
Q 45.5625 -1.421875 35.59375 -1.421875 
Q 29.59375 -1.421875 25.265625 0.953125 
Q 20.953125 3.328125 18.109375 8.203125 
L 18.109375 0 
L 9.078125 0 
L 9.078125 75.984375 
L 18.109375 75.984375 
z
" id="BitstreamVeraSans-Roman-62"/>
      <path d="M 32.171875 -5.078125 
Q 28.375 -14.84375 24.75 -17.8125 
Q 21.140625 -20.796875 15.09375 -20.796875 
L 7.90625 -20.796875 
L 7.90625 -13.28125 
L 13.1875 -13.28125 
Q 16.890625 -13.28125 18.9375 -11.515625 
Q 21 -9.765625 23.484375 -3.21875 
L 25.09375 0.875 
L 2.984375 54.6875 
L 12.5 54.6875 
L 29.59375 11.921875 
L 46.6875 54.6875 
L 56.203125 54.6875 
z
" id="BitstreamVeraSans-Roman-79"/>
      <path d="M 30.609375 48.390625 
Q 23.390625 48.390625 19.1875 42.75 
Q 14.984375 37.109375 14.984375 27.296875 
Q 14.984375 17.484375 19.15625 11.84375 
Q 23.34375 6.203125 30.609375 6.203125 
Q 37.796875 6.203125 41.984375 11.859375 
Q 46.1875 17.53125 46.1875 27.296875 
Q 46.1875 37.015625 41.984375 42.703125 
Q 37.796875 48.390625 30.609375 48.390625 
M 30.609375 56 
Q 42.328125 56 49.015625 48.375 
Q 55.71875 40.765625 55.71875 27.296875 
Q 55.71875 13.875 49.015625 6.21875 
Q 42.328125 -1.421875 30.609375 -1.421875 
Q 18.84375 -1.421875 12.171875 6.21875 
Q 5.515625 13.875 5.515625 27.296875 
Q 5.515625 40.765625 12.171875 48.375 
Q 18.84375 56 30.609375 56 
" id="BitstreamVeraSans-Roman-6f"/>
      <path d="M 41.109375 46.296875 
Q 39.59375 47.171875 37.8125 47.578125 
Q 36.03125 48 33.890625 48 
Q 26.265625 48 22.1875 43.046875 
Q 18.109375 38.09375 18.109375 28.8125 
L 18.109375 0 
L 9.078125 0 
L 9.078125 54.6875 
L 18.109375 54.6875 
L 18.109375 46.1875 
Q 20.953125 51.171875 25.484375 53.578125 
Q 30.03125 56 36.53125 56 
Q 37.453125 56 38.578125 55.875 
Q 39.703125 55.765625 41.0625 55.515625 
z
" id="BitstreamVeraSans-Roman-72"/>
      <path d="M 48.78125 52.59375 
L 48.78125 44.1875 
Q 44.96875 46.296875 41.140625 47.34375 
Q 37.3125 48.390625 33.40625 48.390625 
Q 24.65625 48.390625 19.8125 42.84375 
Q 14.984375 37.3125 14.984375 27.296875 
Q 14.984375 17.28125 19.8125 11.734375 
Q 24.65625 6.203125 33.40625 6.203125 
Q 37.3125 6.203125 41.140625 7.25 
Q 44.96875 8.296875 48.78125 10.40625 
L 48.78125 2.09375 
Q 45.015625 0.34375 40.984375 -0.53125 
Q 36.96875 -1.421875 32.421875 -1.421875 
Q 20.0625 -1.421875 12.78125 6.34375 
Q 5.515625 14.109375 5.515625 27.296875 
Q 5.515625 40.671875 12.859375 48.328125 
Q 20.21875 56 33.015625 56 
Q 37.15625 56 41.109375 55.140625 
Q 45.0625 54.296875 48.78125 52.59375 
" id="BitstreamVeraSans-Roman-63"/>
      <path d="M 56.203125 29.59375 
L 56.203125 25.203125 
L 14.890625 25.203125 
Q 15.484375 15.921875 20.484375 11.0625 
Q 25.484375 6.203125 34.421875 6.203125 
Q 39.59375 6.203125 44.453125 7.46875 
Q 49.3125 8.734375 54.109375 11.28125 
L 54.109375 2.78125 
Q 49.265625 0.734375 44.1875 -0.34375 
Q 39.109375 -1.421875 33.890625 -1.421875 
Q 20.796875 -1.421875 13.15625 6.1875 
Q 5.515625 13.8125 5.515625 26.8125 
Q 5.515625 40.234375 12.765625 48.109375 
Q 20.015625 56 32.328125 56 
Q 43.359375 56 49.78125 48.890625 
Q 56.203125 41.796875 56.203125 29.59375 
M 47.21875 32.234375 
Q 47.125 39.59375 43.09375 43.984375 
Q 39.0625 48.390625 32.421875 48.390625 
Q 24.90625 48.390625 20.390625 44.140625 
Q 15.875 39.890625 15.1875 32.171875 
z
" id="BitstreamVeraSans-Roman-65"/>
      <path d="M 45.40625 27.984375 
Q 45.40625 37.75 41.375 43.109375 
Q 37.359375 48.484375 30.078125 48.484375 
Q 22.859375 48.484375 18.828125 43.109375 
Q 14.796875 37.75 14.796875 27.984375 
Q 14.796875 18.265625 18.828125 12.890625 
Q 22.859375 7.515625 30.078125 7.515625 
Q 37.359375 7.515625 41.375 12.890625 
Q 45.40625 18.265625 45.40625 27.984375 
M 54.390625 6.78125 
Q 54.390625 -7.171875 48.1875 -13.984375 
Q 42 -20.796875 29.203125 -20.796875 
Q 24.46875 -20.796875 20.265625 -20.09375 
Q 16.0625 -19.390625 12.109375 -17.921875 
L 12.109375 -9.1875 
Q 16.0625 -11.328125 19.921875 -12.34375 
Q 23.78125 -13.375 27.78125 -13.375 
Q 36.625 -13.375 41.015625 -8.765625 
Q 45.40625 -4.15625 45.40625 5.171875 
L 45.40625 9.625 
Q 42.625 4.78125 38.28125 2.390625 
Q 33.9375 0 27.875 0 
Q 17.828125 0 11.671875 7.65625 
Q 5.515625 15.328125 5.515625 27.984375 
Q 5.515625 40.671875 11.671875 48.328125 
Q 17.828125 56 27.875 56 
Q 33.9375 56 38.28125 53.609375 
Q 42.625 51.21875 45.40625 46.390625 
L 45.40625 54.6875 
L 54.390625 54.6875 
z
" id="BitstreamVeraSans-Roman-67"/>
      <path d="M 34.28125 27.484375 
Q 23.390625 27.484375 19.1875 25 
Q 14.984375 22.515625 14.984375 16.5 
Q 14.984375 11.71875 18.140625 8.90625 
Q 21.296875 6.109375 26.703125 6.109375 
Q 34.1875 6.109375 38.703125 11.40625 
Q 43.21875 16.703125 43.21875 25.484375 
L 43.21875 27.484375 
z
M 52.203125 31.203125 
L 52.203125 0 
L 43.21875 0 
L 43.21875 8.296875 
Q 40.140625 3.328125 35.546875 0.953125 
Q 30.953125 -1.421875 24.3125 -1.421875 
Q 15.921875 -1.421875 10.953125 3.296875 
Q 6 8.015625 6 15.921875 
Q 6 25.140625 12.171875 29.828125 
Q 18.359375 34.515625 30.609375 34.515625 
L 43.21875 34.515625 
L 43.21875 35.40625 
Q 43.21875 41.609375 39.140625 45 
Q 35.0625 48.390625 27.6875 48.390625 
Q 23 48.390625 18.546875 47.265625 
Q 14.109375 46.140625 10.015625 43.890625 
L 10.015625 52.203125 
Q 14.9375 54.109375 19.578125 55.046875 
Q 24.21875 56 28.609375 56 
Q 40.484375 56 46.34375 49.84375 
Q 52.203125 43.703125 52.203125 31.203125 
" id="BitstreamVeraSans-Roman-61"/>
      <path d="M 9.421875 54.6875 
L 18.40625 54.6875 
L 18.40625 0 
L 9.421875 0 
z
M 9.421875 75.984375 
L 18.40625 75.984375 
L 18.40625 64.59375 
L 9.421875 64.59375 
z
" id="BitstreamVeraSans-Roman-69"/>
     </defs>
     <g transform="translate(129.7415625 418.531875)scale(0.12 -0.12)">
      <use xlink:href="#BitstreamVeraSans-Roman-70"/>
      <use x="63.4765625" xlink:href="#BitstreamVeraSans-Roman-65"/>
      <use x="125.0" xlink:href="#BitstreamVeraSans-Roman-72"/>
      <use x="166.08203125" xlink:href="#BitstreamVeraSans-Roman-63"/>
      <use x="221.0625" xlink:href="#BitstreamVeraSans-Roman-65"/>
      <use x="282.5859375" xlink:href="#BitstreamVeraSans-Roman-6e"/>
      <use x="345.96484375" xlink:href="#BitstreamVeraSans-Roman-74"/>
      <use x="385.173828125" xlink:href="#BitstreamVeraSans-Roman-61"/>
      <use x="446.453125" xlink:href="#BitstreamVeraSans-Roman-67"/>
      <use x="509.9296875" xlink:href="#BitstreamVeraSans-Roman-65"/>
      <use x="571.453125" xlink:href="#BitstreamVeraSans-Roman-20"/>
      <use x="603.240234375" xlink:href="#BitstreamVeraSans-Roman-6f"/>
      <use x="664.421875" xlink:href="#BitstreamVeraSans-Roman-66"/>
      <use x="699.626953125" xlink:href="#BitstreamVeraSans-Roman-20"/>
      <use x="731.4140625" xlink:href="#BitstreamVeraSans-Roman-70"/>
      <use x="794.890625" xlink:href="#BitstreamVeraSans-Roman-72"/>
      <use x="835.97265625" xlink:href="#BitstreamVeraSans-Roman-6f"/>
      <use x="897.154296875" xlink:href="#BitstreamVeraSans-Roman-62"/>
      <use x="960.630859375" xlink:href="#BitstreamVeraSans-Roman-61"/>
      <use x="1021.91015625" xlink:href="#BitstreamVeraSans-Roman-62"/>
      <use x="1085.38671875" xlink:href="#BitstreamVeraSans-Roman-69"/>
      <use x="1113.169921875" xlink:href="#BitstreamVeraSans-Roman-6c"/>
      <use x="1140.953125" xlink:href="#BitstreamVeraSans-Roman-6c"/>
      <use x="1168.736328125" xlink:href="#BitstreamVeraSans-Roman-69"/>
      <use x="1196.51953125" xlink:href="#BitstreamVeraSans-Roman-74"/>
      <use x="1235.728515625" xlink:href="#BitstreamVeraSans-Roman-79"/>
      <use x="1294.908203125" xlink:href="#BitstreamVeraSans-Roman-20"/>
      <use x="1326.6953125" xlink:href="#BitstreamVeraSans-Roman-65"/>
      <use x="1388.21875" xlink:href="#BitstreamVeraSans-Roman-61"/>
      <use x="1449.498046875" xlink:href="#BitstreamVeraSans-Roman-63"/>
      <use x="1504.478515625" xlink:href="#BitstreamVeraSans-Roman-68"/>
      <use x="1567.857421875" xlink:href="#BitstreamVeraSans-Roman-20"/>
      <use x="1599.64453125" xlink:href="#BitstreamVeraSans-Roman-63"/>
      <use x="1654.625" xlink:href="#BitstreamVeraSans-Roman-6f"/>
      <use x="1715.806640625" xlink:href="#BitstreamVeraSans-Roman-72"/>
      <use x="1756.904296875" xlink:href="#BitstreamVeraSans-Roman-72"/>
      <use x="1797.986328125" xlink:href="#BitstreamVeraSans-Roman-65"/>
      <use x="1859.509765625" xlink:href="#BitstreamVeraSans-Roman-63"/>
      <use x="1914.490234375" xlink:href="#BitstreamVeraSans-Roman-74"/>
      <use x="1953.69921875" xlink:href="#BitstreamVeraSans-Roman-69"/>
      <use x="1981.482421875" xlink:href="#BitstreamVeraSans-Roman-6f"/>
      <use x="2042.6640625" xlink:href="#BitstreamVeraSans-Roman-6e"/>
      <use x="2106.04296875" xlink:href="#BitstreamVeraSans-Roman-20"/>
      <use x="2137.830078125" xlink:href="#BitstreamVeraSans-Roman-61"/>
      <use x="2199.109375" xlink:href="#BitstreamVeraSans-Roman-63"/>
      <use x="2254.08984375" xlink:href="#BitstreamVeraSans-Roman-63"/>
      <use x="2309.0703125" xlink:href="#BitstreamVeraSans-Roman-6f"/>
      <use x="2370.251953125" xlink:href="#BitstreamVeraSans-Roman-75"/>
      <use x="2433.630859375" xlink:href="#BitstreamVeraSans-Roman-6e"/>
      <use x="2497.009765625" xlink:href="#BitstreamVeraSans-Roman-74"/>
      <use x="2536.21875" xlink:href="#BitstreamVeraSans-Roman-73"/>
      <use x="2588.318359375" xlink:href="#BitstreamVeraSans-Roman-20"/>
      <use x="2620.10546875" xlink:href="#BitstreamVeraSans-Roman-66"/>
      <use x="2655.310546875" xlink:href="#BitstreamVeraSans-Roman-6f"/>
      <use x="2716.4921875" xlink:href="#BitstreamVeraSans-Roman-72"/>
     </g>
    </g>
   </g>
   <g id="matplotlib.axis_2">
    <g id="ytick_1">
     <g id="line2d_19">
      <defs>
       <path d="M 0 0 
L 4 0 
" id="mb99e6b6708" style="stroke:#000000;stroke-width:0.5;"/>
      </defs>
      <g>
       <use style="stroke:#000000;stroke-width:0.5;" x="72.0" xlink:href="#mb99e6b6708" y="388.8"/>
      </g>
     </g>
     <g id="line2d_20">
      <defs>
       <path d="M 0 0 
L -4 0 
" id="mf26b19d83b" style="stroke:#000000;stroke-width:0.5;"/>
      </defs>
      <g>
       <use style="stroke:#000000;stroke-width:0.5;" x="518.4" xlink:href="#mf26b19d83b" y="388.8"/>
      </g>
     </g>
     <g id="text_11">
      <!-- 0 -->
      <g transform="translate(60.365 392.11125)scale(0.12 -0.12)">
       <use xlink:href="#BitstreamVeraSans-Roman-30"/>
      </g>
     </g>
    </g>
    <g id="ytick_2">
     <g id="line2d_21">
      <g>
       <use style="stroke:#000000;stroke-width:0.5;" x="72.0" xlink:href="#mb99e6b6708" y="347.657142857"/>
      </g>
     </g>
     <g id="line2d_22">
      <g>
       <use style="stroke:#000000;stroke-width:0.5;" x="518.4" xlink:href="#mf26b19d83b" y="347.657142857"/>
      </g>
     </g>
     <g id="text_12">
      <!-- 5 -->
      <g transform="translate(60.365 350.968392857)scale(0.12 -0.12)">
       <use xlink:href="#BitstreamVeraSans-Roman-35"/>
      </g>
     </g>
    </g>
    <g id="ytick_3">
     <g id="line2d_23">
      <g>
       <use style="stroke:#000000;stroke-width:0.5;" x="72.0" xlink:href="#mb99e6b6708" y="306.514285714"/>
      </g>
     </g>
     <g id="line2d_24">
      <g>
       <use style="stroke:#000000;stroke-width:0.5;" x="518.4" xlink:href="#mf26b19d83b" y="306.514285714"/>
      </g>
     </g>
     <g id="text_13">
      <!-- 10 -->
      <g transform="translate(52.73 309.825535714)scale(0.12 -0.12)">
       <use xlink:href="#BitstreamVeraSans-Roman-31"/>
       <use x="63.623046875" xlink:href="#BitstreamVeraSans-Roman-30"/>
      </g>
     </g>
    </g>
    <g id="ytick_4">
     <g id="line2d_25">
      <g>
       <use style="stroke:#000000;stroke-width:0.5;" x="72.0" xlink:href="#mb99e6b6708" y="265.371428571"/>
      </g>
     </g>
     <g id="line2d_26">
      <g>
       <use style="stroke:#000000;stroke-width:0.5;" x="518.4" xlink:href="#mf26b19d83b" y="265.371428571"/>
      </g>
     </g>
     <g id="text_14">
      <!-- 15 -->
      <g transform="translate(52.73 268.682678571)scale(0.12 -0.12)">
       <use xlink:href="#BitstreamVeraSans-Roman-31"/>
       <use x="63.623046875" xlink:href="#BitstreamVeraSans-Roman-35"/>
      </g>
     </g>
    </g>
    <g id="ytick_5">
     <g id="line2d_27">
      <g>
       <use style="stroke:#000000;stroke-width:0.5;" x="72.0" xlink:href="#mb99e6b6708" y="224.228571429"/>
      </g>
     </g>
     <g id="line2d_28">
      <g>
       <use style="stroke:#000000;stroke-width:0.5;" x="518.4" xlink:href="#mf26b19d83b" y="224.228571429"/>
      </g>
     </g>
     <g id="text_15">
      <!-- 20 -->
      <g transform="translate(52.73 227.539821429)scale(0.12 -0.12)">
       <use xlink:href="#BitstreamVeraSans-Roman-32"/>
       <use x="63.623046875" xlink:href="#BitstreamVeraSans-Roman-30"/>
      </g>
     </g>
    </g>
    <g id="ytick_6">
     <g id="line2d_29">
      <g>
       <use style="stroke:#000000;stroke-width:0.5;" x="72.0" xlink:href="#mb99e6b6708" y="183.085714286"/>
      </g>
     </g>
     <g id="line2d_30">
      <g>
       <use style="stroke:#000000;stroke-width:0.5;" x="518.4" xlink:href="#mf26b19d83b" y="183.085714286"/>
      </g>
     </g>
     <g id="text_16">
      <!-- 25 -->
      <g transform="translate(52.73 186.396964286)scale(0.12 -0.12)">
       <use xlink:href="#BitstreamVeraSans-Roman-32"/>
       <use x="63.623046875" xlink:href="#BitstreamVeraSans-Roman-35"/>
      </g>
     </g>
    </g>
    <g id="ytick_7">
     <g id="line2d_31">
      <g>
       <use style="stroke:#000000;stroke-width:0.5;" x="72.0" xlink:href="#mb99e6b6708" y="141.942857143"/>
      </g>
     </g>
     <g id="line2d_32">
      <g>
       <use style="stroke:#000000;stroke-width:0.5;" x="518.4" xlink:href="#mf26b19d83b" y="141.942857143"/>
      </g>
     </g>
     <g id="text_17">
      <!-- 30 -->
      <g transform="translate(52.73 145.254107143)scale(0.12 -0.12)">
       <use xlink:href="#BitstreamVeraSans-Roman-33"/>
       <use x="63.623046875" xlink:href="#BitstreamVeraSans-Roman-30"/>
      </g>
     </g>
    </g>
    <g id="ytick_8">
     <g id="line2d_33">
      <g>
       <use style="stroke:#000000;stroke-width:0.5;" x="72.0" xlink:href="#mb99e6b6708" y="100.8"/>
      </g>
     </g>
     <g id="line2d_34">
      <g>
       <use style="stroke:#000000;stroke-width:0.5;" x="518.4" xlink:href="#mf26b19d83b" y="100.8"/>
      </g>
     </g>
     <g id="text_18">
      <!-- 35 -->
      <g transform="translate(52.73 104.11125)scale(0.12 -0.12)">
       <use xlink:href="#BitstreamVeraSans-Roman-33"/>
       <use x="63.623046875" xlink:href="#BitstreamVeraSans-Roman-35"/>
      </g>
     </g>
    </g>
    <g id="ytick_9">
     <g id="line2d_35">
      <g>
       <use style="stroke:#000000;stroke-width:0.5;" x="72.0" xlink:href="#mb99e6b6708" y="59.6571428571"/>
      </g>
     </g>
     <g id="line2d_36">
      <g>
       <use style="stroke:#000000;stroke-width:0.5;" x="518.4" xlink:href="#mf26b19d83b" y="59.6571428571"/>
      </g>
     </g>
     <g id="text_19">
      <!-- 40 -->
      <defs>
       <path d="M 37.796875 64.3125 
L 12.890625 25.390625 
L 37.796875 25.390625 
z
M 35.203125 72.90625 
L 47.609375 72.90625 
L 47.609375 25.390625 
L 58.015625 25.390625 
L 58.015625 17.1875 
L 47.609375 17.1875 
L 47.609375 0 
L 37.796875 0 
L 37.796875 17.1875 
L 4.890625 17.1875 
L 4.890625 26.703125 
z
" id="BitstreamVeraSans-Roman-34"/>
      </defs>
      <g transform="translate(52.73 62.9683928571)scale(0.12 -0.12)">
       <use xlink:href="#BitstreamVeraSans-Roman-34"/>
       <use x="63.623046875" xlink:href="#BitstreamVeraSans-Roman-30"/>
      </g>
     </g>
    </g>
    <g id="text_20">
     <!-- amount of corrections -->
     <defs>
      <path d="M 52 44.1875 
Q 55.375 50.25 60.0625 53.125 
Q 64.75 56 71.09375 56 
Q 79.640625 56 84.28125 50.015625 
Q 88.921875 44.046875 88.921875 33.015625 
L 88.921875 0 
L 79.890625 0 
L 79.890625 32.71875 
Q 79.890625 40.578125 77.09375 44.375 
Q 74.3125 48.1875 68.609375 48.1875 
Q 61.625 48.1875 57.5625 43.546875 
Q 53.515625 38.921875 53.515625 30.90625 
L 53.515625 0 
L 44.484375 0 
L 44.484375 32.71875 
Q 44.484375 40.625 41.703125 44.40625 
Q 38.921875 48.1875 33.109375 48.1875 
Q 26.21875 48.1875 22.15625 43.53125 
Q 18.109375 38.875 18.109375 30.90625 
L 18.109375 0 
L 9.078125 0 
L 9.078125 54.6875 
L 18.109375 54.6875 
L 18.109375 46.1875 
Q 21.1875 51.21875 25.484375 53.609375 
Q 29.78125 56 35.6875 56 
Q 41.65625 56 45.828125 52.96875 
Q 50 49.953125 52 44.1875 
" id="BitstreamVeraSans-Roman-6d"/>
     </defs>
     <g transform="translate(45.234375 282.256875)rotate(-90.0)scale(0.12 -0.12)">
      <use xlink:href="#BitstreamVeraSans-Roman-61"/>
      <use x="61.279296875" xlink:href="#BitstreamVeraSans-Roman-6d"/>
      <use x="158.69140625" xlink:href="#BitstreamVeraSans-Roman-6f"/>
      <use x="219.873046875" xlink:href="#BitstreamVeraSans-Roman-75"/>
      <use x="283.251953125" xlink:href="#BitstreamVeraSans-Roman-6e"/>
      <use x="346.630859375" xlink:href="#BitstreamVeraSans-Roman-74"/>
      <use x="385.83984375" xlink:href="#BitstreamVeraSans-Roman-20"/>
      <use x="417.626953125" xlink:href="#BitstreamVeraSans-Roman-6f"/>
      <use x="478.80859375" xlink:href="#BitstreamVeraSans-Roman-66"/>
      <use x="514.013671875" xlink:href="#BitstreamVeraSans-Roman-20"/>
      <use x="545.80078125" xlink:href="#BitstreamVeraSans-Roman-63"/>
      <use x="600.78125" xlink:href="#BitstreamVeraSans-Roman-6f"/>
      <use x="661.962890625" xlink:href="#BitstreamVeraSans-Roman-72"/>
      <use x="703.060546875" xlink:href="#BitstreamVeraSans-Roman-72"/>
      <use x="744.142578125" xlink:href="#BitstreamVeraSans-Roman-65"/>
      <use x="805.666015625" xlink:href="#BitstreamVeraSans-Roman-63"/>
      <use x="860.646484375" xlink:href="#BitstreamVeraSans-Roman-74"/>
      <use x="899.85546875" xlink:href="#BitstreamVeraSans-Roman-69"/>
      <use x="927.638671875" xlink:href="#BitstreamVeraSans-Roman-6f"/>
      <use x="988.8203125" xlink:href="#BitstreamVeraSans-Roman-6e"/>
      <use x="1052.19921875" xlink:href="#BitstreamVeraSans-Roman-73"/>
     </g>
    </g>
   </g>
   <g id="text_21">
    <!-- hist of the number repetitions a correction was seen, using exact comparison -->
    <defs>
     <path d="M 4.203125 54.6875 
L 13.1875 54.6875 
L 24.421875 12.015625 
L 35.59375 54.6875 
L 46.1875 54.6875 
L 57.421875 12.015625 
L 68.609375 54.6875 
L 77.59375 54.6875 
L 63.28125 0 
L 52.6875 0 
L 40.921875 44.828125 
L 29.109375 0 
L 18.5 0 
z
" id="BitstreamVeraSans-Roman-77"/>
     <path d="M 54.890625 54.6875 
L 35.109375 28.078125 
L 55.90625 0 
L 45.3125 0 
L 29.390625 21.484375 
L 13.484375 0 
L 2.875 0 
L 24.125 28.609375 
L 4.6875 54.6875 
L 15.28125 54.6875 
L 29.78125 35.203125 
L 44.28125 54.6875 
z
" id="BitstreamVeraSans-Roman-78"/>
     <path d="M 11.71875 12.40625 
L 22.015625 12.40625 
L 22.015625 4 
L 14.015625 -11.625 
L 7.71875 -11.625 
L 11.71875 4 
z
" id="BitstreamVeraSans-Roman-2c"/>
    </defs>
    <g transform="translate(15.52275 38.2)scale(0.144 -0.144)">
     <use xlink:href="#BitstreamVeraSans-Roman-68"/>
     <use x="63.37890625" xlink:href="#BitstreamVeraSans-Roman-69"/>
     <use x="91.162109375" xlink:href="#BitstreamVeraSans-Roman-73"/>
     <use x="143.26171875" xlink:href="#BitstreamVeraSans-Roman-74"/>
     <use x="182.470703125" xlink:href="#BitstreamVeraSans-Roman-20"/>
     <use x="214.2578125" xlink:href="#BitstreamVeraSans-Roman-6f"/>
     <use x="275.439453125" xlink:href="#BitstreamVeraSans-Roman-66"/>
     <use x="310.64453125" xlink:href="#BitstreamVeraSans-Roman-20"/>
     <use x="342.431640625" xlink:href="#BitstreamVeraSans-Roman-74"/>
     <use x="381.640625" xlink:href="#BitstreamVeraSans-Roman-68"/>
     <use x="445.01953125" xlink:href="#BitstreamVeraSans-Roman-65"/>
     <use x="506.54296875" xlink:href="#BitstreamVeraSans-Roman-20"/>
     <use x="538.330078125" xlink:href="#BitstreamVeraSans-Roman-6e"/>
     <use x="601.708984375" xlink:href="#BitstreamVeraSans-Roman-75"/>
     <use x="665.087890625" xlink:href="#BitstreamVeraSans-Roman-6d"/>
     <use x="762.5" xlink:href="#BitstreamVeraSans-Roman-62"/>
     <use x="825.9765625" xlink:href="#BitstreamVeraSans-Roman-65"/>
     <use x="887.5" xlink:href="#BitstreamVeraSans-Roman-72"/>
     <use x="928.61328125" xlink:href="#BitstreamVeraSans-Roman-20"/>
     <use x="960.400390625" xlink:href="#BitstreamVeraSans-Roman-72"/>
     <use x="1001.482421875" xlink:href="#BitstreamVeraSans-Roman-65"/>
     <use x="1063.005859375" xlink:href="#BitstreamVeraSans-Roman-70"/>
     <use x="1126.482421875" xlink:href="#BitstreamVeraSans-Roman-65"/>
     <use x="1188.005859375" xlink:href="#BitstreamVeraSans-Roman-74"/>
     <use x="1227.21484375" xlink:href="#BitstreamVeraSans-Roman-69"/>
     <use x="1254.998046875" xlink:href="#BitstreamVeraSans-Roman-74"/>
     <use x="1294.20703125" xlink:href="#BitstreamVeraSans-Roman-69"/>
     <use x="1321.990234375" xlink:href="#BitstreamVeraSans-Roman-6f"/>
     <use x="1383.171875" xlink:href="#BitstreamVeraSans-Roman-6e"/>
     <use x="1446.55078125" xlink:href="#BitstreamVeraSans-Roman-73"/>
     <use x="1498.650390625" xlink:href="#BitstreamVeraSans-Roman-20"/>
     <use x="1530.4375" xlink:href="#BitstreamVeraSans-Roman-61"/>
     <use x="1591.716796875" xlink:href="#BitstreamVeraSans-Roman-20"/>
     <use x="1623.50390625" xlink:href="#BitstreamVeraSans-Roman-63"/>
     <use x="1678.484375" xlink:href="#BitstreamVeraSans-Roman-6f"/>
     <use x="1739.666015625" xlink:href="#BitstreamVeraSans-Roman-72"/>
     <use x="1780.763671875" xlink:href="#BitstreamVeraSans-Roman-72"/>
     <use x="1821.845703125" xlink:href="#BitstreamVeraSans-Roman-65"/>
     <use x="1883.369140625" xlink:href="#BitstreamVeraSans-Roman-63"/>
     <use x="1938.349609375" xlink:href="#BitstreamVeraSans-Roman-74"/>
     <use x="1977.55859375" xlink:href="#BitstreamVeraSans-Roman-69"/>
     <use x="2005.341796875" xlink:href="#BitstreamVeraSans-Roman-6f"/>
     <use x="2066.5234375" xlink:href="#BitstreamVeraSans-Roman-6e"/>
     <use x="2129.90234375" xlink:href="#BitstreamVeraSans-Roman-20"/>
     <use x="2161.689453125" xlink:href="#BitstreamVeraSans-Roman-77"/>
     <use x="2243.4765625" xlink:href="#BitstreamVeraSans-Roman-61"/>
     <use x="2304.755859375" xlink:href="#BitstreamVeraSans-Roman-73"/>
     <use x="2356.85546875" xlink:href="#BitstreamVeraSans-Roman-20"/>
     <use x="2388.642578125" xlink:href="#BitstreamVeraSans-Roman-73"/>
     <use x="2440.7421875" xlink:href="#BitstreamVeraSans-Roman-65"/>
     <use x="2502.265625" xlink:href="#BitstreamVeraSans-Roman-65"/>
     <use x="2563.7890625" xlink:href="#BitstreamVeraSans-Roman-6e"/>
     <use x="2627.16796875" xlink:href="#BitstreamVeraSans-Roman-2c"/>
     <use x="2658.955078125" xlink:href="#BitstreamVeraSans-Roman-20"/>
     <use x="2690.7421875" xlink:href="#BitstreamVeraSans-Roman-75"/>
     <use x="2754.12109375" xlink:href="#BitstreamVeraSans-Roman-73"/>
     <use x="2806.220703125" xlink:href="#BitstreamVeraSans-Roman-69"/>
     <use x="2834.00390625" xlink:href="#BitstreamVeraSans-Roman-6e"/>
     <use x="2897.3828125" xlink:href="#BitstreamVeraSans-Roman-67"/>
     <use x="2960.859375" xlink:href="#BitstreamVeraSans-Roman-20"/>
     <use x="2992.646484375" xlink:href="#BitstreamVeraSans-Roman-65"/>
     <use x="3054.154296875" xlink:href="#BitstreamVeraSans-Roman-78"/>
     <use x="3113.333984375" xlink:href="#BitstreamVeraSans-Roman-61"/>
     <use x="3174.61328125" xlink:href="#BitstreamVeraSans-Roman-63"/>
     <use x="3229.59375" xlink:href="#BitstreamVeraSans-Roman-74"/>
     <use x="3268.802734375" xlink:href="#BitstreamVeraSans-Roman-20"/>
     <use x="3300.58984375" xlink:href="#BitstreamVeraSans-Roman-63"/>
     <use x="3355.5703125" xlink:href="#BitstreamVeraSans-Roman-6f"/>
     <use x="3416.751953125" xlink:href="#BitstreamVeraSans-Roman-6d"/>
     <use x="3514.1640625" xlink:href="#BitstreamVeraSans-Roman-70"/>
     <use x="3577.640625" xlink:href="#BitstreamVeraSans-Roman-61"/>
     <use x="3638.919921875" xlink:href="#BitstreamVeraSans-Roman-72"/>
     <use x="3680.033203125" xlink:href="#BitstreamVeraSans-Roman-69"/>
     <use x="3707.81640625" xlink:href="#BitstreamVeraSans-Roman-73"/>
     <use x="3759.916015625" xlink:href="#BitstreamVeraSans-Roman-6f"/>
     <use x="3821.09765625" xlink:href="#BitstreamVeraSans-Roman-6e"/>
    </g>
   </g>
   <g id="legend_1">
    <g id="patch_7">
     <path d="M 30.175 232.178125 
L 513.4 232.178125 
L 513.4 199.821875 
L 30.175 199.821875 
z
" style="fill:#ffffff;stroke:#000000;stroke-linejoin:miter;"/>
    </g>
    <g id="PathCollection_3">
     <path d="M 37.175 211.03138 
C 37.768012 211.03138 38.336816 210.795774 38.756139 210.376451 
C 39.175462 209.957128 39.411068 209.388325 39.411068 208.795312 
C 39.411068 208.2023 39.175462 207.633497 38.756139 207.214174 
C 38.336816 206.794851 37.768012 206.559245 37.175 206.559245 
C 36.581988 206.559245 36.013184 206.794851 35.593861 207.214174 
C 35.174538 207.633497 34.938932 208.2023 34.938932 208.795312 
C 34.938932 209.388325 35.174538 209.957128 35.593861 210.376451 
C 36.013184 210.795774 36.581988 211.03138 37.175 211.03138 
z
" style="fill:#0000ff;stroke:#0000ff;"/>
     <path d="M 44.175 210.15638 
C 44.768012 210.15638 45.336816 209.920774 45.756139 209.501451 
C 46.175462 209.082128 46.411068 208.513325 46.411068 207.920312 
C 46.411068 207.3273 46.175462 206.758497 45.756139 206.339174 
C 45.336816 205.919851 44.768012 205.684245 44.175 205.684245 
C 43.581988 205.684245 43.013184 205.919851 42.593861 206.339174 
C 42.174538 206.758497 41.938932 207.3273 41.938932 207.920312 
C 41.938932 208.513325 42.174538 209.082128 42.593861 209.501451 
C 43.013184 209.920774 43.581988 210.15638 44.175 210.15638 
z
" style="fill:#0000ff;stroke:#0000ff;"/>
     <path d="M 51.175 211.46888 
C 51.768012 211.46888 52.336816 211.233274 52.756139 210.813951 
C 53.175462 210.394628 53.411068 209.825825 53.411068 209.232812 
C 53.411068 208.6398 53.175462 208.070997 52.756139 207.651674 
C 52.336816 207.232351 51.768012 206.996745 51.175 206.996745 
C 50.581988 206.996745 50.013184 207.232351 49.593861 207.651674 
C 49.174538 208.070997 48.938932 208.6398 48.938932 209.232812 
C 48.938932 209.825825 49.174538 210.394628 49.593861 210.813951 
C 50.013184 211.233274 50.581988 211.46888 51.175 211.46888 
z
" style="fill:#0000ff;stroke:#0000ff;"/>
    </g>
    <g id="text_22">
     <!-- However , there are both sides of stories . -->
     <defs>
      <path d="M 45.40625 46.390625 
L 45.40625 75.984375 
L 54.390625 75.984375 
L 54.390625 0 
L 45.40625 0 
L 45.40625 8.203125 
Q 42.578125 3.328125 38.25 0.953125 
Q 33.9375 -1.421875 27.875 -1.421875 
Q 17.96875 -1.421875 11.734375 6.484375 
Q 5.515625 14.40625 5.515625 27.296875 
Q 5.515625 40.1875 11.734375 48.09375 
Q 17.96875 56 27.875 56 
Q 33.9375 56 38.25 53.625 
Q 42.578125 51.265625 45.40625 46.390625 
M 14.796875 27.296875 
Q 14.796875 17.390625 18.875 11.75 
Q 22.953125 6.109375 30.078125 6.109375 
Q 37.203125 6.109375 41.296875 11.75 
Q 45.40625 17.390625 45.40625 27.296875 
Q 45.40625 37.203125 41.296875 42.84375 
Q 37.203125 48.484375 30.078125 48.484375 
Q 22.953125 48.484375 18.875 42.84375 
Q 14.796875 37.203125 14.796875 27.296875 
" id="BitstreamVeraSans-Roman-64"/>
      <path d="M 9.8125 72.90625 
L 19.671875 72.90625 
L 19.671875 43.015625 
L 55.515625 43.015625 
L 55.515625 72.90625 
L 65.375 72.90625 
L 65.375 0 
L 55.515625 0 
L 55.515625 34.71875 
L 19.671875 34.71875 
L 19.671875 0 
L 9.8125 0 
z
" id="BitstreamVeraSans-Roman-48"/>
      <path d="M 2.984375 54.6875 
L 12.5 54.6875 
L 29.59375 8.796875 
L 46.6875 54.6875 
L 56.203125 54.6875 
L 35.6875 0 
L 23.484375 0 
z
" id="BitstreamVeraSans-Roman-76"/>
      <path d="M 10.6875 12.40625 
L 21 12.40625 
L 21 0 
L 10.6875 0 
z
" id="BitstreamVeraSans-Roman-2e"/>
     </defs>
     <g transform="translate(62.175 211.4203125)scale(0.1 -0.1)">
      <use xlink:href="#BitstreamVeraSans-Roman-48"/>
      <use x="75.1953125" xlink:href="#BitstreamVeraSans-Roman-6f"/>
      <use x="136.376953125" xlink:href="#BitstreamVeraSans-Roman-77"/>
      <use x="218.1640625" xlink:href="#BitstreamVeraSans-Roman-65"/>
      <use x="279.6875" xlink:href="#BitstreamVeraSans-Roman-76"/>
      <use x="338.8671875" xlink:href="#BitstreamVeraSans-Roman-65"/>
      <use x="400.390625" xlink:href="#BitstreamVeraSans-Roman-72"/>
      <use x="441.50390625" xlink:href="#BitstreamVeraSans-Roman-20"/>
      <use x="473.291015625" xlink:href="#BitstreamVeraSans-Roman-2c"/>
      <use x="505.078125" xlink:href="#BitstreamVeraSans-Roman-20"/>
      <use x="536.865234375" xlink:href="#BitstreamVeraSans-Roman-74"/>
      <use x="576.07421875" xlink:href="#BitstreamVeraSans-Roman-68"/>
      <use x="639.453125" xlink:href="#BitstreamVeraSans-Roman-65"/>
      <use x="700.9765625" xlink:href="#BitstreamVeraSans-Roman-72"/>
      <use x="742.05859375" xlink:href="#BitstreamVeraSans-Roman-65"/>
      <use x="803.58203125" xlink:href="#BitstreamVeraSans-Roman-20"/>
      <use x="835.369140625" xlink:href="#BitstreamVeraSans-Roman-61"/>
      <use x="896.6484375" xlink:href="#BitstreamVeraSans-Roman-72"/>
      <use x="937.73046875" xlink:href="#BitstreamVeraSans-Roman-65"/>
      <use x="999.25390625" xlink:href="#BitstreamVeraSans-Roman-20"/>
      <use x="1031.041015625" xlink:href="#BitstreamVeraSans-Roman-62"/>
      <use x="1094.517578125" xlink:href="#BitstreamVeraSans-Roman-6f"/>
      <use x="1155.69921875" xlink:href="#BitstreamVeraSans-Roman-74"/>
      <use x="1194.908203125" xlink:href="#BitstreamVeraSans-Roman-68"/>
      <use x="1258.287109375" xlink:href="#BitstreamVeraSans-Roman-20"/>
      <use x="1290.07421875" xlink:href="#BitstreamVeraSans-Roman-73"/>
      <use x="1342.173828125" xlink:href="#BitstreamVeraSans-Roman-69"/>
      <use x="1369.95703125" xlink:href="#BitstreamVeraSans-Roman-64"/>
      <use x="1433.43359375" xlink:href="#BitstreamVeraSans-Roman-65"/>
      <use x="1494.95703125" xlink:href="#BitstreamVeraSans-Roman-73"/>
      <use x="1547.056640625" xlink:href="#BitstreamVeraSans-Roman-20"/>
      <use x="1578.84375" xlink:href="#BitstreamVeraSans-Roman-6f"/>
      <use x="1640.025390625" xlink:href="#BitstreamVeraSans-Roman-66"/>
      <use x="1675.23046875" xlink:href="#BitstreamVeraSans-Roman-20"/>
      <use x="1707.017578125" xlink:href="#BitstreamVeraSans-Roman-73"/>
      <use x="1759.1171875" xlink:href="#BitstreamVeraSans-Roman-74"/>
      <use x="1798.326171875" xlink:href="#BitstreamVeraSans-Roman-6f"/>
      <use x="1859.5078125" xlink:href="#BitstreamVeraSans-Roman-72"/>
      <use x="1900.62109375" xlink:href="#BitstreamVeraSans-Roman-69"/>
      <use x="1928.404296875" xlink:href="#BitstreamVeraSans-Roman-65"/>
      <use x="1989.927734375" xlink:href="#BitstreamVeraSans-Roman-73"/>
      <use x="2042.02734375" xlink:href="#BitstreamVeraSans-Roman-20"/>
      <use x="2073.814453125" xlink:href="#BitstreamVeraSans-Roman-2e"/>
     </g>
    </g>
    <g id="PathCollection_4">
     <path d="M 37.175 225.709505 
C 37.768012 225.709505 38.336816 225.473899 38.756139 225.054576 
C 39.175462 224.635253 39.411068 224.06645 39.411068 223.473437 
C 39.411068 222.880425 39.175462 222.311622 38.756139 221.892299 
C 38.336816 221.472976 37.768012 221.23737 37.175 221.23737 
C 36.581988 221.23737 36.013184 221.472976 35.593861 221.892299 
C 35.174538 222.311622 34.938932 222.880425 34.938932 223.473437 
C 34.938932 224.06645 35.174538 224.635253 35.593861 225.054576 
C 36.013184 225.473899 36.581988 225.709505 37.175 225.709505 
z
" style="fill:#ffa500;stroke:#ffa500;"/>
     <path d="M 44.175 224.834505 
C 44.768012 224.834505 45.336816 224.598899 45.756139 224.179576 
C 46.175462 223.760253 46.411068 223.19145 46.411068 222.598437 
C 46.411068 222.005425 46.175462 221.436622 45.756139 221.017299 
C 45.336816 220.597976 44.768012 220.36237 44.175 220.36237 
C 43.581988 220.36237 43.013184 220.597976 42.593861 221.017299 
C 42.174538 221.436622 41.938932 222.005425 41.938932 222.598437 
C 41.938932 223.19145 42.174538 223.760253 42.593861 224.179576 
C 43.013184 224.598899 43.581988 224.834505 44.175 224.834505 
z
" style="fill:#ffa500;stroke:#ffa500;"/>
     <path d="M 51.175 226.147005 
C 51.768012 226.147005 52.336816 225.911399 52.756139 225.492076 
C 53.175462 225.072753 53.411068 224.50395 53.411068 223.910937 
C 53.411068 223.317925 53.175462 222.749122 52.756139 222.329799 
C 52.336816 221.910476 51.768012 221.67487 51.175 221.67487 
C 50.581988 221.67487 50.013184 221.910476 49.593861 222.329799 
C 49.174538 222.749122 48.938932 223.317925 48.938932 223.910937 
C 48.938932 224.50395 49.174538 225.072753 49.593861 225.492076 
C 50.013184 225.911399 50.581988 226.147005 51.175 226.147005 
z
" style="fill:#ffa500;stroke:#ffa500;"/>
    </g>
    <g id="text_23">
     <!-- Tracking people using surveillance technology can make better security of people 's life . -->
     <defs>
      <path d="M 9.078125 75.984375 
L 18.109375 75.984375 
L 18.109375 31.109375 
L 44.921875 54.6875 
L 56.390625 54.6875 
L 27.390625 29.109375 
L 57.625 0 
L 45.90625 0 
L 18.109375 26.703125 
L 18.109375 0 
L 9.078125 0 
z
" id="BitstreamVeraSans-Roman-6b"/>
      <path d="M -0.296875 72.90625 
L 61.375 72.90625 
L 61.375 64.59375 
L 35.5 64.59375 
L 35.5 0 
L 25.59375 0 
L 25.59375 64.59375 
L -0.296875 64.59375 
z
" id="BitstreamVeraSans-Roman-54"/>
      <path d="M 17.921875 72.90625 
L 17.921875 45.796875 
L 9.625 45.796875 
L 9.625 72.90625 
z
" id="BitstreamVeraSans-Roman-27"/>
     </defs>
     <g transform="translate(62.175 226.0984375)scale(0.1 -0.1)">
      <use xlink:href="#BitstreamVeraSans-Roman-54"/>
      <use x="60.865234375" xlink:href="#BitstreamVeraSans-Roman-72"/>
      <use x="101.978515625" xlink:href="#BitstreamVeraSans-Roman-61"/>
      <use x="163.2578125" xlink:href="#BitstreamVeraSans-Roman-63"/>
      <use x="218.23828125" xlink:href="#BitstreamVeraSans-Roman-6b"/>
      <use x="276.1484375" xlink:href="#BitstreamVeraSans-Roman-69"/>
      <use x="303.931640625" xlink:href="#BitstreamVeraSans-Roman-6e"/>
      <use x="367.310546875" xlink:href="#BitstreamVeraSans-Roman-67"/>
      <use x="430.787109375" xlink:href="#BitstreamVeraSans-Roman-20"/>
      <use x="462.57421875" xlink:href="#BitstreamVeraSans-Roman-70"/>
      <use x="526.05078125" xlink:href="#BitstreamVeraSans-Roman-65"/>
      <use x="587.57421875" xlink:href="#BitstreamVeraSans-Roman-6f"/>
      <use x="648.755859375" xlink:href="#BitstreamVeraSans-Roman-70"/>
      <use x="712.232421875" xlink:href="#BitstreamVeraSans-Roman-6c"/>
      <use x="740.015625" xlink:href="#BitstreamVeraSans-Roman-65"/>
      <use x="801.5390625" xlink:href="#BitstreamVeraSans-Roman-20"/>
      <use x="833.326171875" xlink:href="#BitstreamVeraSans-Roman-75"/>
      <use x="896.705078125" xlink:href="#BitstreamVeraSans-Roman-73"/>
      <use x="948.8046875" xlink:href="#BitstreamVeraSans-Roman-69"/>
      <use x="976.587890625" xlink:href="#BitstreamVeraSans-Roman-6e"/>
      <use x="1039.966796875" xlink:href="#BitstreamVeraSans-Roman-67"/>
      <use x="1103.443359375" xlink:href="#BitstreamVeraSans-Roman-20"/>
      <use x="1135.23046875" xlink:href="#BitstreamVeraSans-Roman-73"/>
      <use x="1187.330078125" xlink:href="#BitstreamVeraSans-Roman-75"/>
      <use x="1250.708984375" xlink:href="#BitstreamVeraSans-Roman-72"/>
      <use x="1291.822265625" xlink:href="#BitstreamVeraSans-Roman-76"/>
      <use x="1351.001953125" xlink:href="#BitstreamVeraSans-Roman-65"/>
      <use x="1412.525390625" xlink:href="#BitstreamVeraSans-Roman-69"/>
      <use x="1440.30859375" xlink:href="#BitstreamVeraSans-Roman-6c"/>
      <use x="1468.091796875" xlink:href="#BitstreamVeraSans-Roman-6c"/>
      <use x="1495.875" xlink:href="#BitstreamVeraSans-Roman-61"/>
      <use x="1557.154296875" xlink:href="#BitstreamVeraSans-Roman-6e"/>
      <use x="1620.533203125" xlink:href="#BitstreamVeraSans-Roman-63"/>
      <use x="1675.513671875" xlink:href="#BitstreamVeraSans-Roman-65"/>
      <use x="1737.037109375" xlink:href="#BitstreamVeraSans-Roman-20"/>
      <use x="1768.82421875" xlink:href="#BitstreamVeraSans-Roman-74"/>
      <use x="1808.033203125" xlink:href="#BitstreamVeraSans-Roman-65"/>
      <use x="1869.556640625" xlink:href="#BitstreamVeraSans-Roman-63"/>
      <use x="1924.537109375" xlink:href="#BitstreamVeraSans-Roman-68"/>
      <use x="1987.916015625" xlink:href="#BitstreamVeraSans-Roman-6e"/>
      <use x="2051.294921875" xlink:href="#BitstreamVeraSans-Roman-6f"/>
      <use x="2112.4765625" xlink:href="#BitstreamVeraSans-Roman-6c"/>
      <use x="2140.259765625" xlink:href="#BitstreamVeraSans-Roman-6f"/>
      <use x="2201.44140625" xlink:href="#BitstreamVeraSans-Roman-67"/>
      <use x="2264.91796875" xlink:href="#BitstreamVeraSans-Roman-79"/>
      <use x="2324.09765625" xlink:href="#BitstreamVeraSans-Roman-20"/>
      <use x="2355.884765625" xlink:href="#BitstreamVeraSans-Roman-63"/>
      <use x="2410.865234375" xlink:href="#BitstreamVeraSans-Roman-61"/>
      <use x="2472.14453125" xlink:href="#BitstreamVeraSans-Roman-6e"/>
      <use x="2535.5234375" xlink:href="#BitstreamVeraSans-Roman-20"/>
      <use x="2567.310546875" xlink:href="#BitstreamVeraSans-Roman-6d"/>
      <use x="2664.72265625" xlink:href="#BitstreamVeraSans-Roman-61"/>
      <use x="2726.001953125" xlink:href="#BitstreamVeraSans-Roman-6b"/>
      <use x="2783.865234375" xlink:href="#BitstreamVeraSans-Roman-65"/>
      <use x="2845.388671875" xlink:href="#BitstreamVeraSans-Roman-20"/>
      <use x="2877.17578125" xlink:href="#BitstreamVeraSans-Roman-62"/>
      <use x="2940.65234375" xlink:href="#BitstreamVeraSans-Roman-65"/>
      <use x="3002.17578125" xlink:href="#BitstreamVeraSans-Roman-74"/>
      <use x="3041.384765625" xlink:href="#BitstreamVeraSans-Roman-74"/>
      <use x="3080.59375" xlink:href="#BitstreamVeraSans-Roman-65"/>
      <use x="3142.1171875" xlink:href="#BitstreamVeraSans-Roman-72"/>
      <use x="3183.23046875" xlink:href="#BitstreamVeraSans-Roman-20"/>
      <use x="3215.017578125" xlink:href="#BitstreamVeraSans-Roman-73"/>
      <use x="3267.1171875" xlink:href="#BitstreamVeraSans-Roman-65"/>
      <use x="3328.640625" xlink:href="#BitstreamVeraSans-Roman-63"/>
      <use x="3383.62109375" xlink:href="#BitstreamVeraSans-Roman-75"/>
      <use x="3447.0" xlink:href="#BitstreamVeraSans-Roman-72"/>
      <use x="3488.11328125" xlink:href="#BitstreamVeraSans-Roman-69"/>
      <use x="3515.896484375" xlink:href="#BitstreamVeraSans-Roman-74"/>
      <use x="3555.10546875" xlink:href="#BitstreamVeraSans-Roman-79"/>
      <use x="3614.28515625" xlink:href="#BitstreamVeraSans-Roman-20"/>
      <use x="3646.072265625" xlink:href="#BitstreamVeraSans-Roman-6f"/>
      <use x="3707.25390625" xlink:href="#BitstreamVeraSans-Roman-66"/>
      <use x="3742.458984375" xlink:href="#BitstreamVeraSans-Roman-20"/>
      <use x="3774.24609375" xlink:href="#BitstreamVeraSans-Roman-70"/>
      <use x="3837.72265625" xlink:href="#BitstreamVeraSans-Roman-65"/>
      <use x="3899.24609375" xlink:href="#BitstreamVeraSans-Roman-6f"/>
      <use x="3960.427734375" xlink:href="#BitstreamVeraSans-Roman-70"/>
      <use x="4023.904296875" xlink:href="#BitstreamVeraSans-Roman-6c"/>
      <use x="4051.6875" xlink:href="#BitstreamVeraSans-Roman-65"/>
      <use x="4113.2109375" xlink:href="#BitstreamVeraSans-Roman-20"/>
      <use x="4144.998046875" xlink:href="#BitstreamVeraSans-Roman-27"/>
      <use x="4172.48828125" xlink:href="#BitstreamVeraSans-Roman-73"/>
      <use x="4224.587890625" xlink:href="#BitstreamVeraSans-Roman-20"/>
      <use x="4256.375" xlink:href="#BitstreamVeraSans-Roman-6c"/>
      <use x="4284.158203125" xlink:href="#BitstreamVeraSans-Roman-69"/>
      <use x="4311.94140625" xlink:href="#BitstreamVeraSans-Roman-66"/>
      <use x="4347.146484375" xlink:href="#BitstreamVeraSans-Roman-65"/>
      <use x="4408.669921875" xlink:href="#BitstreamVeraSans-Roman-20"/>
      <use x="4440.45703125" xlink:href="#BitstreamVeraSans-Roman-2e"/>
     </g>
    </g>
   </g>
  </g>
 </g>
 <defs>
  <clipPath id="pa2d47013ce">
   <rect height="345.6" width="446.4" x="72.0" y="43.2"/>
  </clipPath>
 </defs>
</svg>
