<?xml version="1.0" encoding="utf-8" standalone="no"?>
<!DOCTYPE svg PUBLIC "-//W3C//DTD SVG 1.1//EN"
  "http://www.w3.org/Graphics/SVG/1.1/DTD/svg11.dtd">
<!-- Created with matplotlib (http://matplotlib.org/) -->
<svg height="432pt" version="1.1" viewBox="0 0 576 432" width="576pt" xmlns="http://www.w3.org/2000/svg" xmlns:xlink="http://www.w3.org/1999/xlink">
 <defs>
  <style type="text/css">
*{stroke-linecap:butt;stroke-linejoin:round;stroke-miterlimit:100000;}
  </style>
 </defs>
 <g id="figure_1">
  <g id="patch_1">
   <path d="M 0 432 
L 576 432 
L 576 0 
L 0 0 
z
" style="fill:#ffffff;"/>
  </g>
  <g id="axes_1">
   <g id="patch_2">
    <path d="M 72 388.8 
L 518.4 388.8 
L 518.4 43.2 
L 72 43.2 
z
" style="fill:#ffffff;"/>
   </g>
   <g id="line2d_1">
    <path clip-path="url(#p5af335d9dc)" d="M 72 388.8 
L 94.32 361.062359 
L 116.64 351.351168 
L 138.96 337.17738 
L 161.28 328.863889 
L 183.6 318.150813 
L 205.92 313.336654 
L 228.24 308.960465 
L 250.56 307.35168 
L 272.88 304.193686 
L 295.2 300.708319 
L 317.52 297.216754 
L 339.84 299.177804 
L 362.16 295.722758 
L 384.48 296.600717 
L 406.8 296.827252 
L 429.12 294.666858 
L 451.44 295.272156 
L 473.76 293.111894 
L 496.08 291.850156 
L 518.4 291.553764 
" style="fill:none;stroke:#8000ff;stroke-linecap:square;"/>
   </g>
   <g id="line2d_2">
    <path clip-path="url(#p5af335d9dc)" d="M 72 388.8 
L 94.32 356.574773 
L 116.64 335.980754 
L 138.96 317.533397 
L 161.28 297.948647 
L 183.6 288.882445 
L 205.92 276.383408 
L 228.24 268.895267 
L 250.56 260.524216 
L 272.88 257.829898 
L 295.2 249.046402 
L 317.52 247.8943 
L 339.84 241.103413 
L 362.16 236.925457 
L 384.48 234.696001 
L 406.8 233.04228 
L 429.12 229.568805 
L 451.44 227.789176 
L 473.76 223.186326 
L 496.08 222.884146 
L 518.4 220.643069 
" style="fill:none;stroke:#7610ff;stroke-linecap:square;"/>
   </g>
   <g id="line2d_3">
    <path clip-path="url(#p5af335d9dc)" d="M 72 388.8 
L 94.32 378.241283 
L 116.64 371.572037 
L 138.96 363.325223 
L 161.28 355.416549 
L 183.6 350.835947 
L 205.92 344.060705 
L 228.24 334.647488 
L 250.56 331.310641 
L 272.88 328.49687 
L 295.2 323.696104 
L 317.52 319.263697 
L 339.84 317.707496 
L 362.16 316.247139 
L 384.48 312.784436 
L 406.8 312.072806 
L 429.12 307.703371 
L 451.44 305.973841 
L 473.76 301.807183 
L 496.08 300.881362 
L 518.4 297.803118 
" style="fill:none;stroke:#6c1fff;stroke-linecap:square;"/>
   </g>
   <g id="line2d_4">
    <path clip-path="url(#p5af335d9dc)" d="M 72 388.8 
L 94.32 188.285281 
L 116.64 124.829278 
L 138.96 101.890991 
L 161.28 95.688194 
L 183.6 92.425075 
L 205.92 89.900971 
L 228.24 87.598156 
L 250.56 86.0175 
L 272.88 83.282913 
L 295.2 82.208907 
L 317.52 80.20358 
L 339.84 78.080063 
L 362.16 76.728688 
L 384.48 76.048772 
L 406.8 74.363162 
L 429.12 73.727869 
L 451.44 71.360388 
L 473.76 72.210952 
L 496.08 70.090205 
L 518.4 68.792794 
" style="fill:none;stroke:#6032fe;stroke-linecap:square;"/>
   </g>
   <g id="line2d_5">
    <path clip-path="url(#p5af335d9dc)" d="M 72 388.8 
L 94.32 386.636563 
L 116.64 384.636911 
L 138.96 382.579318 
L 161.28 380.528096 
L 183.6 378.473411 
L 205.92 376.446609 
L 228.24 374.550324 
L 250.56 373.001133 
L 272.88 371.395356 
L 295.2 369.135324 
L 317.52 367.044322 
L 339.84 365.504353 
L 362.16 364.15423 
L 384.48 362.903454 
L 406.8 360.56185 
L 429.12 359.472149 
L 451.44 358.11492 
L 473.76 356.29638 
L 496.08 354.82013 
L 518.4 353.118471 
" style="fill:none;stroke:#5641fd;stroke-linecap:square;"/>
   </g>
   <g id="line2d_6">
    <path clip-path="url(#p5af335d9dc)" d="M 72 388.8 
L 94.32 287.818684 
L 116.64 243.26851 
L 138.96 222.848299 
L 161.28 192.225034 
L 183.6 188.134469 
L 205.92 178.694 
L 228.24 171.6108 
L 250.56 167.454275 
L 272.88 167.990494 
L 295.2 164.87158 
L 317.52 162.737796 
L 339.84 160.279337 
L 362.16 158.421873 
L 384.48 157.501517 
L 406.8 157.351628 
L 429.12 156.304811 
L 451.44 154.311203 
L 473.76 152.601228 
L 496.08 151.383033 
L 518.4 150.3482 
" style="fill:none;stroke:#4a53fb;stroke-linecap:square;"/>
   </g>
   <g id="line2d_7">
    <path clip-path="url(#p5af335d9dc)" d="M 72 388.8 
L 94.32 346.135936 
L 116.64 309.303967 
L 138.96 277.755395 
L 161.28 247.839801 
L 183.6 223.84641 
L 205.92 203.92598 
L 228.24 186.669872 
L 250.56 166.588985 
L 272.88 162.504294 
L 295.2 151.212042 
L 317.52 132.600185 
L 339.84 119.385445 
L 362.16 115.255016 
L 384.48 111.608547 
L 406.8 111.216397 
L 429.12 99.182523 
L 451.44 92.738915 
L 473.76 93.055442 
L 496.08 86.670191 
L 518.4 84.56337 
" style="fill:none;stroke:#4062fa;stroke-linecap:square;"/>
   </g>
   <g id="line2d_8">
    <path clip-path="url(#p5af335d9dc)" d="M 72 388.8 
L 94.32 287.933548 
L 116.64 229.369855 
L 138.96 185.252339 
L 161.28 151.89675 
L 183.6 136.609132 
L 205.92 126.329313 
L 228.24 118.143753 
L 250.56 115.248853 
L 272.88 106.804943 
L 295.2 105.946569 
L 317.52 101.952318 
L 339.84 100.827092 
L 362.16 99.423336 
L 384.48 97.14729 
L 406.8 95.868965 
L 429.12 92.354075 
L 451.44 91.61176 
L 473.76 90.208748 
L 496.08 88.884093 
L 518.4 88.069756 
" style="fill:none;stroke:#3473f8;stroke-linecap:square;"/>
   </g>
   <g id="line2d_9">
    <path clip-path="url(#p5af335d9dc)" d="M 72 388.8 
L 94.32 360.258968 
L 116.64 337.946835 
L 138.96 313.304223 
L 161.28 297.324658 
L 183.6 280.973097 
L 205.92 266.096533 
L 228.24 252.172891 
L 250.56 242.002027 
L 272.88 230.343217 
L 295.2 218.639105 
L 317.52 209.961381 
L 339.84 204.980299 
L 362.16 198.228384 
L 384.48 193.523048 
L 406.8 181.672399 
L 429.12 178.101536 
L 451.44 172.777101 
L 473.76 169.543712 
L 496.08 168.531015 
L 518.4 166.313653 
" style="fill:none;stroke:#2981f6;stroke-linecap:square;"/>
   </g>
   <g id="line2d_10">
    <path clip-path="url(#p5af335d9dc)" d="M 72 388.8 
L 94.32 346.222208 
L 116.64 322.526264 
L 138.96 302.103648 
L 161.28 291.354559 
L 183.6 278.215006 
L 205.92 273.28366 
L 228.24 266.61932 
L 250.56 261.624741 
L 272.88 259.591139 
L 295.2 253.768539 
L 317.52 254.37202 
L 339.84 249.991564 
L 362.16 248.863712 
L 384.48 244.880235 
L 406.8 242.784223 
L 429.12 240.873201 
L 451.44 239.305474 
L 473.76 236.789274 
L 496.08 235.068495 
L 518.4 234.24487 
" style="fill:none;stroke:#1e91f3;stroke-linecap:square;"/>
   </g>
   <g id="line2d_11">
    <path clip-path="url(#p5af335d9dc)" d="M 72 388.8 
L 94.32 328.486437 
L 116.64 289.621621 
L 138.96 257.033095 
L 161.28 235.56717 
L 183.6 219.385384 
L 205.92 208.952203 
L 228.24 193.412612 
L 250.56 178.758538 
L 272.88 173.897285 
L 295.2 167.336734 
L 317.52 159.209288 
L 339.84 155.825703 
L 362.16 151.993334 
L 384.48 147.81774 
L 406.8 145.282814 
L 429.12 141.775868 
L 451.44 140.803238 
L 473.76 136.352871 
L 496.08 134.409284 
L 518.4 132.247765 
" style="fill:none;stroke:#149df1;stroke-linecap:square;"/>
   </g>
   <g id="line2d_12">
    <path clip-path="url(#p5af335d9dc)" d="M 72 388.8 
L 94.32 337.191201 
L 116.64 299.634306 
L 138.96 264.542497 
L 161.28 234.251354 
L 183.6 215.258199 
L 205.92 201.37004 
L 228.24 188.348592 
L 250.56 178.818106 
L 272.88 170.522109 
L 295.2 167.275531 
L 317.52 161.631061 
L 339.84 153.619711 
L 362.16 153.708079 
L 384.48 147.264342 
L 406.8 145.837954 
L 429.12 141.177505 
L 451.44 137.327265 
L 473.76 137.786392 
L 496.08 135.645588 
L 518.4 132.073378 
" style="fill:none;stroke:#09a9ee;stroke-linecap:square;"/>
   </g>
   <g id="line2d_13">
    <path clip-path="url(#p5af335d9dc)" d="M 72 388.8 
L 94.32 307.153207 
L 116.64 251.543298 
L 138.96 220.532456 
L 161.28 199.296282 
L 183.6 171.435057 
L 205.92 161.045371 
L 228.24 153.44416 
L 250.56 147.390565 
L 272.88 142.997254 
L 295.2 127.943756 
L 317.52 130.625799 
L 339.84 129.272785 
L 362.16 125.190931 
L 384.48 125.928943 
L 406.8 123.453518 
L 429.12 122.785997 
L 451.44 122.592496 
L 473.76 122.289693 
L 496.08 121.801541 
L 518.4 120.671732 
" style="fill:none;stroke:#02b7eb;stroke-linecap:square;"/>
   </g>
   <g id="line2d_14">
    <path clip-path="url(#p5af335d9dc)" d="M 72 388.8 
L 94.32 349.960985 
L 116.64 328.259261 
L 138.96 310.557805 
L 161.28 290.151929 
L 183.6 280.842946 
L 205.92 269.315769 
L 228.24 259.062228 
L 250.56 250.973254 
L 272.88 243.448837 
L 295.2 242.395097 
L 317.52 237.74832 
L 339.84 235.555818 
L 362.16 228.342227 
L 384.48 227.317405 
L 406.8 224.349981 
L 429.12 222.954784 
L 451.44 222.370017 
L 473.76 222.711495 
L 496.08 223.122619 
L 518.4 220.02262 
" style="fill:none;stroke:#0dc2e8;stroke-linecap:square;"/>
   </g>
   <g id="line2d_15">
    <path clip-path="url(#p5af335d9dc)" d="M 72 388.8 
L 94.32 228.271313 
L 116.64 152.86154 
L 138.96 131.438747 
L 161.28 124.998728 
L 183.6 119.160469 
L 205.92 115.804654 
L 228.24 112.357889 
L 250.56 109.924024 
L 272.88 107.265904 
L 295.2 105.443587 
L 317.52 103.564458 
L 339.84 102.111145 
L 362.16 99.336078 
L 384.48 98.571609 
L 406.8 97.760822 
L 429.12 94.948261 
L 451.44 94.096451 
L 473.76 92.690435 
L 496.08 90.829957 
L 518.4 88.915581 
" style="fill:none;stroke:#18cde4;stroke-linecap:square;"/>
   </g>
   <g id="line2d_16">
    <path clip-path="url(#p5af335d9dc)" d="M 72 388.8 
L 94.32 368.541592 
L 116.64 353.104946 
L 138.96 337.307307 
L 161.28 326.220189 
L 183.6 314.706067 
L 205.92 304.031036 
L 228.24 297.394695 
L 250.56 290.765625 
L 272.88 283.266415 
L 295.2 277.314737 
L 317.52 271.764731 
L 339.84 267.253081 
L 362.16 266.047808 
L 384.48 259.416957 
L 406.8 257.571676 
L 429.12 258.858776 
L 451.44 253.916198 
L 473.76 254.109981 
L 496.08 248.626745 
L 518.4 246.595291 
" style="fill:none;stroke:#22d6e0;stroke-linecap:square;"/>
   </g>
   <g id="line2d_17">
    <path clip-path="url(#p5af335d9dc)" d="M 72 388.8 
L 94.32 388.116063 
L 116.64 387.433145 
L 138.96 386.749634 
L 161.28 386.067931 
L 183.6 385.401048 
L 205.92 384.704395 
L 228.24 384.035606 
L 250.56 383.350829 
L 272.88 382.670263 
L 295.2 382.029898 
L 317.52 381.362226 
L 339.84 380.675201 
L 362.16 379.982392 
L 384.48 379.322061 
L 406.8 378.700083 
L 429.12 378.011843 
L 451.44 377.358121 
L 473.76 376.668562 
L 496.08 376.047404 
L 518.4 375.393909 
" style="fill:none;stroke:#2fe0db;stroke-linecap:square;"/>
   </g>
   <g id="line2d_18">
    <path clip-path="url(#p5af335d9dc)" d="M 72 388.8 
L 94.32 279.396807 
L 116.64 224.118381 
L 138.96 185.396521 
L 161.28 166.306285 
L 183.6 149.12407 
L 205.92 139.982562 
L 228.24 133.775071 
L 250.56 130.447507 
L 272.88 128.619509 
L 295.2 128.755378 
L 317.52 124.862644 
L 339.84 125.803875 
L 362.16 123.283513 
L 384.48 121.58057 
L 406.8 120.91747 
L 429.12 120.155072 
L 451.44 119.248575 
L 473.76 118.896342 
L 496.08 117.681879 
L 518.4 116.976938 
" style="fill:none;stroke:#38e7d7;stroke-linecap:square;"/>
   </g>
   <g id="line2d_19">
    <path clip-path="url(#p5af335d9dc)" d="M 72 388.8 
L 94.32 325.31761 
L 116.64 281.470946 
L 138.96 247.924695 
L 161.28 219.592782 
L 183.6 200.64428 
L 205.92 186.196385 
L 228.24 169.856542 
L 250.56 165.010312 
L 272.88 153.181348 
L 295.2 149.363667 
L 317.52 145.991855 
L 339.84 141.600951 
L 362.16 135.392079 
L 384.48 132.686193 
L 406.8 130.044413 
L 429.12 127.016003 
L 451.44 123.660809 
L 473.76 123.991028 
L 496.08 121.598022 
L 518.4 119.298683 
" style="fill:none;stroke:#44eed2;stroke-linecap:square;"/>
   </g>
   <g id="line2d_20">
    <path clip-path="url(#p5af335d9dc)" d="M 72 388.8 
L 94.32 267.613143 
L 116.64 204.433971 
L 138.96 176.499296 
L 161.28 160.257709 
L 183.6 155.869836 
L 205.92 143.339309 
L 228.24 138.530353 
L 250.56 129.408971 
L 272.88 128.451089 
L 295.2 123.641423 
L 317.52 120.2559 
L 339.84 118.695447 
L 362.16 114.063042 
L 384.48 112.624941 
L 406.8 108.879198 
L 429.12 106.457543 
L 451.44 103.918608 
L 473.76 102.756113 
L 496.08 101.878339 
L 518.4 99.114083 
" style="fill:none;stroke:#4ef3cd;stroke-linecap:square;"/>
   </g>
   <g id="line2d_21">
    <path clip-path="url(#p5af335d9dc)" d="M 72 388.8 
L 94.32 262.539156 
L 116.64 218.564851 
L 138.96 197.360926 
L 161.28 183.599385 
L 183.6 173.309473 
L 205.92 172.524813 
L 228.24 166.997377 
L 250.56 167.194142 
L 272.88 165.448407 
L 295.2 163.99982 
L 317.52 163.505138 
L 339.84 162.977555 
L 362.16 162.391906 
L 384.48 162.048912 
L 406.8 161.741343 
L 429.12 161.389696 
L 451.44 161.038098 
L 473.76 160.626626 
L 496.08 160.311233 
L 518.4 159.962757 
" style="fill:none;stroke:#58f8c9;stroke-linecap:square;"/>
   </g>
   <g id="line2d_22">
    <path clip-path="url(#p5af335d9dc)" d="M 72 388.8 
L 94.32 387.499249 
L 116.64 385.545742 
L 138.96 384.551218 
L 161.28 383.373983 
L 183.6 382.625974 
L 205.92 380.733854 
L 228.24 380.149974 
L 250.56 379.56339 
L 272.88 378.530961 
L 295.2 377.761556 
L 317.52 376.849115 
L 339.84 376.145282 
L 362.16 375.129833 
L 384.48 375.509899 
L 406.8 374.638785 
L 429.12 373.339174 
L 451.44 373.146101 
L 473.76 373.459729 
L 496.08 373.100879 
L 518.4 372.903687 
" style="fill:none;stroke:#64fbc3;stroke-linecap:square;"/>
   </g>
   <g id="line2d_23">
    <path clip-path="url(#p5af335d9dc)" d="M 72 388.8 
L 94.32 266.6303 
L 116.64 198.938659 
L 138.96 159.138718 
L 161.28 122.539552 
L 183.6 112.014437 
L 205.92 103.945361 
L 228.24 100.692693 
L 250.56 94.837407 
L 272.88 93.158715 
L 295.2 88.757808 
L 317.52 90.613436 
L 339.84 86.761636 
L 362.16 87.369043 
L 384.48 84.785497 
L 406.8 83.718587 
L 429.12 83.204479 
L 451.44 82.380174 
L 473.76 81.357422 
L 496.08 80.307854 
L 518.4 79.058348 
" style="fill:none;stroke:#6efebe;stroke-linecap:square;"/>
   </g>
   <g id="line2d_24">
    <path clip-path="url(#p5af335d9dc)" d="M 72 388.8 
L 94.32 316.600323 
L 116.64 271.968633 
L 138.96 246.736252 
L 161.28 222.073072 
L 183.6 215.106339 
L 205.92 204.645525 
L 228.24 193.833204 
L 250.56 187.9992 
L 272.88 180.053571 
L 295.2 176.826322 
L 317.52 171.182899 
L 339.84 165.435513 
L 362.16 164.07154 
L 384.48 159.200126 
L 406.8 159.214451 
L 429.12 155.302475 
L 451.44 153.669346 
L 473.76 150.589069 
L 496.08 148.614766 
L 518.4 147.91313 
" style="fill:none;stroke:#7affb7;stroke-linecap:square;"/>
   </g>
   <g id="line2d_25">
    <path clip-path="url(#p5af335d9dc)" d="M 72 388.8 
L 94.32 238.880671 
L 116.64 174.667832 
L 138.96 137.811769 
L 161.28 133.238003 
L 183.6 124.355313 
L 205.92 117.299548 
L 228.24 113.845172 
L 250.56 113.826927 
L 272.88 111.314249 
L 295.2 110.004203 
L 317.52 109.417715 
L 339.84 108.409623 
L 362.16 107.513693 
L 384.48 106.788199 
L 406.8 105.728282 
L 429.12 104.910678 
L 451.44 104.205155 
L 473.76 102.900824 
L 496.08 102.14328 
L 518.4 101.46497 
" style="fill:none;stroke:#84ffb2;stroke-linecap:square;"/>
   </g>
   <g id="line2d_26">
    <path clip-path="url(#p5af335d9dc)" d="M 72 388.8 
L 94.32 323.573973 
L 116.64 280.243486 
L 138.96 241.001062 
L 161.28 220.145043 
L 183.6 195.519386 
L 205.92 188.853785 
L 228.24 172.63308 
L 250.56 162.59593 
L 272.88 160.506256 
L 295.2 155.104751 
L 317.52 150.503226 
L 339.84 148.000425 
L 362.16 142.409113 
L 384.48 140.707713 
L 406.8 142.746191 
L 429.12 142.673967 
L 451.44 140.538831 
L 473.76 140.808854 
L 496.08 138.42673 
L 518.4 137.880443 
" style="fill:none;stroke:#90feab;stroke-linecap:square;"/>
   </g>
   <g id="line2d_27">
    <path clip-path="url(#p5af335d9dc)" d="M 72 388.8 
L 94.32 271.872255 
L 116.64 226.219805 
L 138.96 195.866975 
L 161.28 172.448897 
L 183.6 159.474827 
L 205.92 156.579247 
L 228.24 147.373419 
L 250.56 147.829808 
L 272.88 144.427986 
L 295.2 141.137057 
L 317.52 142.73114 
L 339.84 140.499324 
L 362.16 140.928459 
L 384.48 139.837913 
L 406.8 138.785692 
L 429.12 138.408748 
L 451.44 138.09567 
L 473.76 137.715857 
L 496.08 137.441187 
L 518.4 137.077162 
" style="fill:none;stroke:#9bfba5;stroke-linecap:square;"/>
   </g>
   <g id="line2d_28">
    <path clip-path="url(#p5af335d9dc)" d="M 72 388.8 
L 94.32 382.299652 
L 116.64 377.834924 
L 138.96 371.807304 
L 161.28 366.004263 
L 183.6 360.819805 
L 205.92 357.110105 
L 228.24 350.473021 
L 250.56 346.517758 
L 272.88 341.947335 
L 295.2 338.189304 
L 317.52 334.277839 
L 339.84 329.631672 
L 362.16 326.142242 
L 384.48 321.606019 
L 406.8 319.874533 
L 429.12 317.849784 
L 451.44 313.768524 
L 473.76 311.798837 
L 496.08 308.746871 
L 518.4 303.925772 
" style="fill:none;stroke:#a6f89d;stroke-linecap:square;"/>
   </g>
   <g id="line2d_29">
    <path clip-path="url(#p5af335d9dc)" d="M 72 388.8 
L 94.32 376.675681 
L 116.64 364.890614 
L 138.96 354.654509 
L 161.28 345.196578 
L 183.6 336.355053 
L 205.92 330.686807 
L 228.24 322.854689 
L 250.56 318.199468 
L 272.88 312.850256 
L 295.2 307.926354 
L 317.52 304.373286 
L 339.84 297.546602 
L 362.16 293.027877 
L 384.48 289.67559 
L 406.8 288.443693 
L 429.12 282.423699 
L 451.44 278.306979 
L 473.76 276.282664 
L 496.08 274.54659 
L 518.4 272.411388 
" style="fill:none;stroke:#b0f397;stroke-linecap:square;"/>
   </g>
   <g id="line2d_30">
    <path clip-path="url(#p5af335d9dc)" d="M 72 388.8 
L 94.32 375.723168 
L 116.64 365.292335 
L 138.96 353.300475 
L 161.28 344.969767 
L 183.6 337.074099 
L 205.92 325.849237 
L 228.24 316.955143 
L 250.56 310.892537 
L 272.88 304.078415 
L 295.2 301.953059 
L 317.52 295.190325 
L 339.84 292.801907 
L 362.16 287.307191 
L 384.48 285.792697 
L 406.8 285.197516 
L 429.12 281.882611 
L 451.44 277.248211 
L 473.76 272.313239 
L 496.08 268.12164 
L 518.4 268.4536 
" style="fill:none;stroke:#bbee91;stroke-linecap:square;"/>
   </g>
   <g id="line2d_31">
    <path clip-path="url(#p5af335d9dc)" d="M 72 388.8 
L 94.32 291.120845 
L 116.64 236.74126 
L 138.96 204.20451 
L 161.28 180.635976 
L 183.6 169.05818 
L 205.92 156.298955 
L 228.24 150.197851 
L 250.56 144.536986 
L 272.88 144.825237 
L 295.2 146.332982 
L 317.52 144.544388 
L 339.84 141.010716 
L 362.16 140.689623 
L 384.48 138.974913 
L 406.8 139.70795 
L 429.12 138.318899 
L 451.44 137.950368 
L 473.76 137.790778 
L 496.08 137.372536 
L 518.4 137.064615 
" style="fill:none;stroke:#c6e789;stroke-linecap:square;"/>
   </g>
   <g id="line2d_32">
    <path clip-path="url(#p5af335d9dc)" d="M 72 388.8 
L 94.32 271.169016 
L 116.64 203.544354 
L 138.96 162.068802 
L 161.28 137.374605 
L 183.6 121.406638 
L 205.92 113.060278 
L 228.24 109.38448 
L 250.56 108.226005 
L 272.88 104.364761 
L 295.2 103.884767 
L 317.52 102.275541 
L 339.84 102.253334 
L 362.16 99.382528 
L 384.48 99.86748 
L 406.8 98.286975 
L 429.12 97.032067 
L 451.44 97.057343 
L 473.76 96.190084 
L 496.08 95.375694 
L 518.4 94.879302 
" style="fill:none;stroke:#d0e082;stroke-linecap:square;"/>
   </g>
   <g id="line2d_33">
    <path clip-path="url(#p5af335d9dc)" d="M 72 388.8 
L 94.32 355.15927 
L 116.64 343.375702 
L 138.96 327.881809 
L 161.28 316.747532 
L 183.6 305.030949 
L 205.92 301.616554 
L 228.24 297.583311 
L 250.56 288.990752 
L 272.88 284.909701 
L 295.2 280.323183 
L 317.52 278.699612 
L 339.84 276.789774 
L 362.16 272.165367 
L 384.48 271.620896 
L 406.8 269.415052 
L 429.12 266.077258 
L 451.44 263.373964 
L 473.76 262.814893 
L 496.08 259.833406 
L 518.4 258.691579 
" style="fill:none;stroke:#dcd67a;stroke-linecap:square;"/>
   </g>
   <g id="line2d_34">
    <path clip-path="url(#p5af335d9dc)" d="M 72 388.8 
L 94.32 386.574843 
L 116.64 384.397489 
L 138.96 382.495799 
L 161.28 381.232272 
L 183.6 379.529961 
L 205.92 377.465735 
L 228.24 375.575568 
L 250.56 374.720688 
L 272.88 373.525055 
L 295.2 372.139276 
L 317.52 370.184569 
L 339.84 369.093884 
L 362.16 367.520025 
L 384.48 366.795027 
L 406.8 365.233694 
L 429.12 364.372309 
L 451.44 362.40717 
L 473.76 361.859568 
L 496.08 360.813702 
L 518.4 358.520994 
" style="fill:none;stroke:#e6cd73;stroke-linecap:square;"/>
   </g>
   <g id="line2d_35">
    <path clip-path="url(#p5af335d9dc)" d="M 72 388.8 
L 94.32 359.911814 
L 116.64 339.50253 
L 138.96 319.431552 
L 161.28 303.326765 
L 183.6 287.769717 
L 205.92 275.318754 
L 228.24 263.320823 
L 250.56 254.418752 
L 272.88 246.081027 
L 295.2 238.376013 
L 317.52 225.402817 
L 339.84 220.312265 
L 362.16 210.411324 
L 384.48 208.672921 
L 406.8 200.526103 
L 429.12 197.756333 
L 451.44 193.875654 
L 473.76 188.730628 
L 496.08 182.586278 
L 518.4 182.612819 
" style="fill:none;stroke:#f2c26b;stroke-linecap:square;"/>
   </g>
   <g id="line2d_36">
    <path clip-path="url(#p5af335d9dc)" d="M 72 388.8 
L 94.32 375.427624 
L 116.64 364.843079 
L 138.96 354.673729 
L 161.28 344.038984 
L 183.6 337.354103 
L 205.92 328.752938 
L 228.24 325.899273 
L 250.56 318.814413 
L 272.88 314.111454 
L 295.2 310.099255 
L 317.52 307.525825 
L 339.84 303.665816 
L 362.16 298.644986 
L 384.48 295.916173 
L 406.8 293.121278 
L 429.12 290.007117 
L 451.44 288.425672 
L 473.76 284.319412 
L 496.08 283.974424 
L 518.4 280.81537 
" style="fill:none;stroke:#fcb763;stroke-linecap:square;"/>
   </g>
   <g id="line2d_37">
    <path clip-path="url(#p5af335d9dc)" d="M 72 388.8 
L 94.32 379.401024 
L 116.64 372.021867 
L 138.96 364.285949 
L 161.28 357.542713 
L 183.6 351.987334 
L 205.92 346.514793 
L 228.24 340.224382 
L 250.56 333.479983 
L 272.88 328.80651 
L 295.2 323.404613 
L 317.52 319.219669 
L 339.84 313.181381 
L 362.16 310.100532 
L 384.48 307.153586 
L 406.8 303.868723 
L 429.12 301.105391 
L 451.44 298.726968 
L 473.76 297.187436 
L 496.08 292.784201 
L 518.4 289.87732 
" style="fill:none;stroke:#ffa95b;stroke-linecap:square;"/>
   </g>
   <g id="line2d_38">
    <path clip-path="url(#p5af335d9dc)" d="M 72 388.8 
L 94.32 349.623499 
L 116.64 325.98641 
L 138.96 308.710951 
L 161.28 291.752832 
L 183.6 279.408097 
L 205.92 270.238799 
L 228.24 260.647313 
L 250.56 256.613417 
L 272.88 247.180043 
L 295.2 245.117821 
L 317.52 239.131139 
L 339.84 236.097269 
L 362.16 234.930202 
L 384.48 233.869563 
L 406.8 230.363179 
L 429.12 228.270018 
L 451.44 230.025607 
L 473.76 226.027379 
L 496.08 225.530993 
L 518.4 225.640463 
" style="fill:none;stroke:#ff9d53;stroke-linecap:square;"/>
   </g>
   <g id="line2d_39">
    <path clip-path="url(#p5af335d9dc)" d="M 72 388.8 
L 94.32 380.329304 
L 116.64 373.3789 
L 138.96 366.100863 
L 161.28 360.214297 
L 183.6 353.403814 
L 205.92 346.554937 
L 228.24 339.594776 
L 250.56 333.284407 
L 272.88 328.005677 
L 295.2 321.689714 
L 317.52 315.61044 
L 339.84 311.589886 
L 362.16 305.176494 
L 384.48 299.652089 
L 406.8 295.401266 
L 429.12 290.74871 
L 451.44 285.582543 
L 473.76 280.853187 
L 496.08 275.740571 
L 518.4 272.975322 
" style="fill:none;stroke:#ff914c;stroke-linecap:square;"/>
   </g>
   <g id="line2d_40">
    <path clip-path="url(#p5af335d9dc)" d="M 72 388.8 
L 94.32 339.465244 
L 116.64 312.635795 
L 138.96 288.038417 
L 161.28 271.951682 
L 183.6 261.101223 
L 205.92 252.755689 
L 228.24 248.113796 
L 250.56 235.733612 
L 272.88 230.185509 
L 295.2 227.37885 
L 317.52 223.24246 
L 339.84 221.030697 
L 362.16 218.528459 
L 384.48 213.964528 
L 406.8 213.676205 
L 429.12 209.585578 
L 451.44 207.093177 
L 473.76 205.499921 
L 496.08 204.344427 
L 518.4 200.259213 
" style="fill:none;stroke:#ff8143;stroke-linecap:square;"/>
   </g>
   <g id="line2d_41">
    <path clip-path="url(#p5af335d9dc)" d="M 72 388.8 
L 94.32 387.436874 
L 116.64 386.072381 
L 138.96 384.708214 
L 161.28 383.360442 
L 183.6 382.019271 
L 205.92 380.674508 
L 228.24 379.350489 
L 250.56 378.003634 
L 272.88 376.676947 
L 295.2 375.411014 
L 317.52 374.122268 
L 339.84 372.821794 
L 362.16 371.495166 
L 384.48 370.225726 
L 406.8 368.890119 
L 429.12 367.687064 
L 451.44 366.324465 
L 473.76 365.038131 
L 496.08 363.776304 
L 518.4 362.595097 
" style="fill:none;stroke:#ff733b;stroke-linecap:square;"/>
   </g>
   <g id="line2d_42">
    <path clip-path="url(#p5af335d9dc)" d="M 72 388.8 
L 94.32 381.680368 
L 116.64 375.83289 
L 138.96 369.166035 
L 161.28 366.642554 
L 183.6 361.845521 
L 205.92 358.134767 
L 228.24 354.229919 
L 250.56 352.140408 
L 272.88 350.166774 
L 295.2 346.98237 
L 317.52 344.042713 
L 339.84 342.024461 
L 362.16 338.546375 
L 384.48 335.746073 
L 406.8 334.872361 
L 429.12 331.170474 
L 451.44 330.229496 
L 473.76 328.894295 
L 496.08 325.812343 
L 518.4 325.189787 
" style="fill:none;stroke:#ff6232;stroke-linecap:square;"/>
   </g>
   <g id="line2d_43">
    <path clip-path="url(#p5af335d9dc)" d="M 72 388.8 
L 94.32 370.637351 
L 116.64 354.793797 
L 138.96 342.854968 
L 161.28 331.750018 
L 183.6 321.322534 
L 205.92 312.591606 
L 228.24 301.898237 
L 250.56 298.048457 
L 272.88 292.662866 
L 295.2 289.369322 
L 317.52 285.966176 
L 339.84 280.516743 
L 362.16 279.099351 
L 384.48 275.063106 
L 406.8 272.199748 
L 429.12 267.488569 
L 451.44 265.711511 
L 473.76 263.799897 
L 496.08 261.067647 
L 518.4 259.998054 
" style="fill:none;stroke:#ff532a;stroke-linecap:square;"/>
   </g>
   <g id="line2d_44">
    <path clip-path="url(#p5af335d9dc)" d="M 72 388.8 
L 94.32 358.991557 
L 116.64 336.486482 
L 138.96 319.278698 
L 161.28 299.395542 
L 183.6 284.92377 
L 205.92 272.1287 
L 228.24 259.097088 
L 250.56 249.866267 
L 272.88 236.667882 
L 295.2 229.592762 
L 317.52 218.024494 
L 339.84 211.187102 
L 362.16 204.113499 
L 384.48 201.048138 
L 406.8 195.471374 
L 429.12 187.40564 
L 451.44 184.435626 
L 473.76 180.754534 
L 496.08 173.296746 
L 518.4 172.925265 
" style="fill:none;stroke:#ff4121;stroke-linecap:square;"/>
   </g>
   <g id="line2d_45">
    <path clip-path="url(#p5af335d9dc)" d="M 72 388.8 
L 94.32 235.230958 
L 116.64 179.978919 
L 138.96 162.351089 
L 161.28 154.110437 
L 183.6 153.419307 
L 205.92 150.118385 
L 228.24 149.335881 
L 250.56 148.555918 
L 272.88 147.866967 
L 295.2 147.291065 
L 317.52 146.220568 
L 339.84 145.633397 
L 362.16 144.768849 
L 384.48 144.160503 
L 406.8 143.194017 
L 429.12 142.546264 
L 451.44 141.637717 
L 473.76 140.985723 
L 496.08 140.221456 
L 518.4 139.547594 
" style="fill:none;stroke:#ff3219;stroke-linecap:square;"/>
   </g>
   <g id="line2d_46">
    <path clip-path="url(#p5af335d9dc)" d="M 72 388.8 
L 94.32 318.222807 
L 116.64 278.432688 
L 138.96 255.215894 
L 161.28 235.622005 
L 183.6 218.411578 
L 205.92 207.761367 
L 228.24 200.439155 
L 250.56 192.127827 
L 272.88 185.133812 
L 295.2 182.451506 
L 317.52 177.493959 
L 339.84 174.493967 
L 362.16 172.373498 
L 384.48 168.287655 
L 406.8 165.35068 
L 429.12 163.888336 
L 451.44 160.081378 
L 473.76 157.472864 
L 496.08 156.314444 
L 518.4 153.770361 
" style="fill:none;stroke:#ff1f10;stroke-linecap:square;"/>
   </g>
   <g id="line2d_47">
    <path clip-path="url(#p5af335d9dc)" d="M 72 388.8 
L 94.32 331.291548 
L 116.64 300.750921 
L 138.96 284.445465 
L 161.28 264.177502 
L 183.6 257.97764 
L 205.92 250.305399 
L 228.24 245.86912 
L 250.56 240.342615 
L 272.88 236.307127 
L 295.2 232.805549 
L 317.52 232.512002 
L 339.84 226.927706 
L 362.16 225.672514 
L 384.48 223.811019 
L 406.8 221.855248 
L 429.12 219.819177 
L 451.44 218.005368 
L 473.76 215.933065 
L 496.08 214.289718 
L 518.4 212.375137 
" style="fill:none;stroke:#ff1008;stroke-linecap:square;"/>
   </g>
   <g id="line2d_48">
    <path clip-path="url(#p5af335d9dc)" d="M 72 388.8 
L 94.32 368.214035 
L 116.64 350.795174 
L 138.96 337.051596 
L 161.28 321.37908 
L 183.6 306.245358 
L 205.92 294.312065 
L 228.24 281.811695 
L 250.56 270.354143 
L 272.88 260.629675 
L 295.2 250.335845 
L 317.52 240.665313 
L 339.84 233.837965 
L 362.16 225.318386 
L 384.48 220.154036 
L 406.8 213.556644 
L 429.12 209.938002 
L 451.44 202.106757 
L 473.76 197.206984 
L 496.08 189.97731 
L 518.4 185.942917 
" style="fill:none;stroke:#ff0000;stroke-linecap:square;"/>
   </g>
   <g id="patch_3">
    <path d="M 72 388.8 
L 72 43.2 
" style="fill:none;stroke:#000000;stroke-linecap:square;stroke-linejoin:miter;"/>
   </g>
   <g id="patch_4">
    <path d="M 72 388.8 
L 518.4 388.8 
" style="fill:none;stroke:#000000;stroke-linecap:square;stroke-linejoin:miter;"/>
   </g>
   <g id="patch_5">
    <path d="M 518.4 388.8 
L 518.4 43.2 
" style="fill:none;stroke:#000000;stroke-linecap:square;stroke-linejoin:miter;"/>
   </g>
   <g id="patch_6">
    <path d="M 72 43.2 
L 518.4 43.2 
" style="fill:none;stroke:#000000;stroke-linecap:square;stroke-linejoin:miter;"/>
   </g>
   <g id="matplotlib.axis_1">
    <g id="xtick_1">
     <g id="line2d_49">
      <defs>
       <path d="M 0 0 
L 0 -4 
" id="mfa11b5f3f1" style="stroke:#000000;stroke-width:0.5;"/>
      </defs>
      <g>
       <use style="stroke:#000000;stroke-width:0.5;" x="72.0" xlink:href="#mfa11b5f3f1" y="388.8"/>
      </g>
     </g>
     <g id="line2d_50">
      <defs>
       <path d="M 0 0 
L 0 4 
" id="m65fb100641" style="stroke:#000000;stroke-width:0.5;"/>
      </defs>
      <g>
       <use style="stroke:#000000;stroke-width:0.5;" x="72.0" xlink:href="#m65fb100641" y="43.2"/>
      </g>
     </g>
     <g id="text_1">
      <!-- 0 -->
      <defs>
       <path d="M 31.78125 66.40625 
Q 24.171875 66.40625 20.328125 58.90625 
Q 16.5 51.421875 16.5 36.375 
Q 16.5 21.390625 20.328125 13.890625 
Q 24.171875 6.390625 31.78125 6.390625 
Q 39.453125 6.390625 43.28125 13.890625 
Q 47.125 21.390625 47.125 36.375 
Q 47.125 51.421875 43.28125 58.90625 
Q 39.453125 66.40625 31.78125 66.40625 
M 31.78125 74.21875 
Q 44.046875 74.21875 50.515625 64.515625 
Q 56.984375 54.828125 56.984375 36.375 
Q 56.984375 17.96875 50.515625 8.265625 
Q 44.046875 -1.421875 31.78125 -1.421875 
Q 19.53125 -1.421875 13.0625 8.265625 
Q 6.59375 17.96875 6.59375 36.375 
Q 6.59375 54.828125 13.0625 64.515625 
Q 19.53125 74.21875 31.78125 74.21875 
" id="BitstreamVeraSans-Roman-30"/>
      </defs>
      <g transform="translate(68.1825 401.918125)scale(0.12 -0.12)">
       <use xlink:href="#BitstreamVeraSans-Roman-30"/>
      </g>
     </g>
    </g>
    <g id="xtick_2">
     <g id="line2d_51">
      <g>
       <use style="stroke:#000000;stroke-width:0.5;" x="183.6" xlink:href="#mfa11b5f3f1" y="388.8"/>
      </g>
     </g>
     <g id="line2d_52">
      <g>
       <use style="stroke:#000000;stroke-width:0.5;" x="183.6" xlink:href="#m65fb100641" y="43.2"/>
      </g>
     </g>
     <g id="text_2">
      <!-- 5 -->
      <defs>
       <path d="M 10.796875 72.90625 
L 49.515625 72.90625 
L 49.515625 64.59375 
L 19.828125 64.59375 
L 19.828125 46.734375 
Q 21.96875 47.46875 24.109375 47.828125 
Q 26.265625 48.1875 28.421875 48.1875 
Q 40.625 48.1875 47.75 41.5 
Q 54.890625 34.8125 54.890625 23.390625 
Q 54.890625 11.625 47.5625 5.09375 
Q 40.234375 -1.421875 26.90625 -1.421875 
Q 22.3125 -1.421875 17.546875 -0.640625 
Q 12.796875 0.140625 7.71875 1.703125 
L 7.71875 11.625 
Q 12.109375 9.234375 16.796875 8.0625 
Q 21.484375 6.890625 26.703125 6.890625 
Q 35.15625 6.890625 40.078125 11.328125 
Q 45.015625 15.765625 45.015625 23.390625 
Q 45.015625 31 40.078125 35.4375 
Q 35.15625 39.890625 26.703125 39.890625 
Q 22.75 39.890625 18.8125 39.015625 
Q 14.890625 38.140625 10.796875 36.28125 
z
" id="BitstreamVeraSans-Roman-35"/>
      </defs>
      <g transform="translate(179.7825 401.918125)scale(0.12 -0.12)">
       <use xlink:href="#BitstreamVeraSans-Roman-35"/>
      </g>
     </g>
    </g>
    <g id="xtick_3">
     <g id="line2d_53">
      <g>
       <use style="stroke:#000000;stroke-width:0.5;" x="295.2" xlink:href="#mfa11b5f3f1" y="388.8"/>
      </g>
     </g>
     <g id="line2d_54">
      <g>
       <use style="stroke:#000000;stroke-width:0.5;" x="295.2" xlink:href="#m65fb100641" y="43.2"/>
      </g>
     </g>
     <g id="text_3">
      <!-- 10 -->
      <defs>
       <path d="M 12.40625 8.296875 
L 28.515625 8.296875 
L 28.515625 63.921875 
L 10.984375 60.40625 
L 10.984375 69.390625 
L 28.421875 72.90625 
L 38.28125 72.90625 
L 38.28125 8.296875 
L 54.390625 8.296875 
L 54.390625 0 
L 12.40625 0 
z
" id="BitstreamVeraSans-Roman-31"/>
      </defs>
      <g transform="translate(287.565 401.918125)scale(0.12 -0.12)">
       <use xlink:href="#BitstreamVeraSans-Roman-31"/>
       <use x="63.623046875" xlink:href="#BitstreamVeraSans-Roman-30"/>
      </g>
     </g>
    </g>
    <g id="xtick_4">
     <g id="line2d_55">
      <g>
       <use style="stroke:#000000;stroke-width:0.5;" x="406.8" xlink:href="#mfa11b5f3f1" y="388.8"/>
      </g>
     </g>
     <g id="line2d_56">
      <g>
       <use style="stroke:#000000;stroke-width:0.5;" x="406.8" xlink:href="#m65fb100641" y="43.2"/>
      </g>
     </g>
     <g id="text_4">
      <!-- 15 -->
      <g transform="translate(399.165 401.918125)scale(0.12 -0.12)">
       <use xlink:href="#BitstreamVeraSans-Roman-31"/>
       <use x="63.623046875" xlink:href="#BitstreamVeraSans-Roman-35"/>
      </g>
     </g>
    </g>
    <g id="xtick_5">
     <g id="line2d_57">
      <g>
       <use style="stroke:#000000;stroke-width:0.5;" x="518.4" xlink:href="#mfa11b5f3f1" y="388.8"/>
      </g>
     </g>
     <g id="line2d_58">
      <g>
       <use style="stroke:#000000;stroke-width:0.5;" x="518.4" xlink:href="#m65fb100641" y="43.2"/>
      </g>
     </g>
     <g id="text_5">
      <!-- 20 -->
      <defs>
       <path d="M 19.1875 8.296875 
L 53.609375 8.296875 
L 53.609375 0 
L 7.328125 0 
L 7.328125 8.296875 
Q 12.9375 14.109375 22.625 23.890625 
Q 32.328125 33.6875 34.8125 36.53125 
Q 39.546875 41.84375 41.421875 45.53125 
Q 43.3125 49.21875 43.3125 52.78125 
Q 43.3125 58.59375 39.234375 62.25 
Q 35.15625 65.921875 28.609375 65.921875 
Q 23.96875 65.921875 18.8125 64.3125 
Q 13.671875 62.703125 7.8125 59.421875 
L 7.8125 69.390625 
Q 13.765625 71.78125 18.9375 73 
Q 24.125 74.21875 28.421875 74.21875 
Q 39.75 74.21875 46.484375 68.546875 
Q 53.21875 62.890625 53.21875 53.421875 
Q 53.21875 48.921875 51.53125 44.890625 
Q 49.859375 40.875 45.40625 35.40625 
Q 44.1875 33.984375 37.640625 27.21875 
Q 31.109375 20.453125 19.1875 8.296875 
" id="BitstreamVeraSans-Roman-32"/>
      </defs>
      <g transform="translate(510.765 401.918125)scale(0.12 -0.12)">
       <use xlink:href="#BitstreamVeraSans-Roman-32"/>
       <use x="63.623046875" xlink:href="#BitstreamVeraSans-Roman-30"/>
      </g>
     </g>
    </g>
    <g id="text_6">
     <!-- amount of corrections sampled -->
     <defs>
      <path d="M 54.890625 33.015625 
L 54.890625 0 
L 45.90625 0 
L 45.90625 32.71875 
Q 45.90625 40.484375 42.875 44.328125 
Q 39.84375 48.1875 33.796875 48.1875 
Q 26.515625 48.1875 22.3125 43.546875 
Q 18.109375 38.921875 18.109375 30.90625 
L 18.109375 0 
L 9.078125 0 
L 9.078125 54.6875 
L 18.109375 54.6875 
L 18.109375 46.1875 
Q 21.34375 51.125 25.703125 53.5625 
Q 30.078125 56 35.796875 56 
Q 45.21875 56 50.046875 50.171875 
Q 54.890625 44.34375 54.890625 33.015625 
" id="BitstreamVeraSans-Roman-6e"/>
      <path d="M 52 44.1875 
Q 55.375 50.25 60.0625 53.125 
Q 64.75 56 71.09375 56 
Q 79.640625 56 84.28125 50.015625 
Q 88.921875 44.046875 88.921875 33.015625 
L 88.921875 0 
L 79.890625 0 
L 79.890625 32.71875 
Q 79.890625 40.578125 77.09375 44.375 
Q 74.3125 48.1875 68.609375 48.1875 
Q 61.625 48.1875 57.5625 43.546875 
Q 53.515625 38.921875 53.515625 30.90625 
L 53.515625 0 
L 44.484375 0 
L 44.484375 32.71875 
Q 44.484375 40.625 41.703125 44.40625 
Q 38.921875 48.1875 33.109375 48.1875 
Q 26.21875 48.1875 22.15625 43.53125 
Q 18.109375 38.875 18.109375 30.90625 
L 18.109375 0 
L 9.078125 0 
L 9.078125 54.6875 
L 18.109375 54.6875 
L 18.109375 46.1875 
Q 21.1875 51.21875 25.484375 53.609375 
Q 29.78125 56 35.6875 56 
Q 41.65625 56 45.828125 52.96875 
Q 50 49.953125 52 44.1875 
" id="BitstreamVeraSans-Roman-6d"/>
      <path d="M 41.109375 46.296875 
Q 39.59375 47.171875 37.8125 47.578125 
Q 36.03125 48 33.890625 48 
Q 26.265625 48 22.1875 43.046875 
Q 18.109375 38.09375 18.109375 28.8125 
L 18.109375 0 
L 9.078125 0 
L 9.078125 54.6875 
L 18.109375 54.6875 
L 18.109375 46.1875 
Q 20.953125 51.171875 25.484375 53.578125 
Q 30.03125 56 36.53125 56 
Q 37.453125 56 38.578125 55.875 
Q 39.703125 55.765625 41.0625 55.515625 
z
" id="BitstreamVeraSans-Roman-72"/>
      <path d="M 9.421875 54.6875 
L 18.40625 54.6875 
L 18.40625 0 
L 9.421875 0 
z
M 9.421875 75.984375 
L 18.40625 75.984375 
L 18.40625 64.59375 
L 9.421875 64.59375 
z
" id="BitstreamVeraSans-Roman-69"/>
      <path d="M 48.78125 52.59375 
L 48.78125 44.1875 
Q 44.96875 46.296875 41.140625 47.34375 
Q 37.3125 48.390625 33.40625 48.390625 
Q 24.65625 48.390625 19.8125 42.84375 
Q 14.984375 37.3125 14.984375 27.296875 
Q 14.984375 17.28125 19.8125 11.734375 
Q 24.65625 6.203125 33.40625 6.203125 
Q 37.3125 6.203125 41.140625 7.25 
Q 44.96875 8.296875 48.78125 10.40625 
L 48.78125 2.09375 
Q 45.015625 0.34375 40.984375 -0.53125 
Q 36.96875 -1.421875 32.421875 -1.421875 
Q 20.0625 -1.421875 12.78125 6.34375 
Q 5.515625 14.109375 5.515625 27.296875 
Q 5.515625 40.671875 12.859375 48.328125 
Q 20.21875 56 33.015625 56 
Q 37.15625 56 41.109375 55.140625 
Q 45.0625 54.296875 48.78125 52.59375 
" id="BitstreamVeraSans-Roman-63"/>
      <path d="M 18.3125 70.21875 
L 18.3125 54.6875 
L 36.8125 54.6875 
L 36.8125 47.703125 
L 18.3125 47.703125 
L 18.3125 18.015625 
Q 18.3125 11.328125 20.140625 9.421875 
Q 21.96875 7.515625 27.59375 7.515625 
L 36.8125 7.515625 
L 36.8125 0 
L 27.59375 0 
Q 17.1875 0 13.234375 3.875 
Q 9.28125 7.765625 9.28125 18.015625 
L 9.28125 47.703125 
L 2.6875 47.703125 
L 2.6875 54.6875 
L 9.28125 54.6875 
L 9.28125 70.21875 
z
" id="BitstreamVeraSans-Roman-74"/>
      <path d="M 30.609375 48.390625 
Q 23.390625 48.390625 19.1875 42.75 
Q 14.984375 37.109375 14.984375 27.296875 
Q 14.984375 17.484375 19.15625 11.84375 
Q 23.34375 6.203125 30.609375 6.203125 
Q 37.796875 6.203125 41.984375 11.859375 
Q 46.1875 17.53125 46.1875 27.296875 
Q 46.1875 37.015625 41.984375 42.703125 
Q 37.796875 48.390625 30.609375 48.390625 
M 30.609375 56 
Q 42.328125 56 49.015625 48.375 
Q 55.71875 40.765625 55.71875 27.296875 
Q 55.71875 13.875 49.015625 6.21875 
Q 42.328125 -1.421875 30.609375 -1.421875 
Q 18.84375 -1.421875 12.171875 6.21875 
Q 5.515625 13.875 5.515625 27.296875 
Q 5.515625 40.765625 12.171875 48.375 
Q 18.84375 56 30.609375 56 
" id="BitstreamVeraSans-Roman-6f"/>
      <path d="M 9.421875 75.984375 
L 18.40625 75.984375 
L 18.40625 0 
L 9.421875 0 
z
" id="BitstreamVeraSans-Roman-6c"/>
      <path d="M 45.40625 46.390625 
L 45.40625 75.984375 
L 54.390625 75.984375 
L 54.390625 0 
L 45.40625 0 
L 45.40625 8.203125 
Q 42.578125 3.328125 38.25 0.953125 
Q 33.9375 -1.421875 27.875 -1.421875 
Q 17.96875 -1.421875 11.734375 6.484375 
Q 5.515625 14.40625 5.515625 27.296875 
Q 5.515625 40.1875 11.734375 48.09375 
Q 17.96875 56 27.875 56 
Q 33.9375 56 38.25 53.625 
Q 42.578125 51.265625 45.40625 46.390625 
M 14.796875 27.296875 
Q 14.796875 17.390625 18.875 11.75 
Q 22.953125 6.109375 30.078125 6.109375 
Q 37.203125 6.109375 41.296875 11.75 
Q 45.40625 17.390625 45.40625 27.296875 
Q 45.40625 37.203125 41.296875 42.84375 
Q 37.203125 48.484375 30.078125 48.484375 
Q 22.953125 48.484375 18.875 42.84375 
Q 14.796875 37.203125 14.796875 27.296875 
" id="BitstreamVeraSans-Roman-64"/>
      <path id="BitstreamVeraSans-Roman-20"/>
      <path d="M 18.109375 8.203125 
L 18.109375 -20.796875 
L 9.078125 -20.796875 
L 9.078125 54.6875 
L 18.109375 54.6875 
L 18.109375 46.390625 
Q 20.953125 51.265625 25.265625 53.625 
Q 29.59375 56 35.59375 56 
Q 45.5625 56 51.78125 48.09375 
Q 58.015625 40.1875 58.015625 27.296875 
Q 58.015625 14.40625 51.78125 6.484375 
Q 45.5625 -1.421875 35.59375 -1.421875 
Q 29.59375 -1.421875 25.265625 0.953125 
Q 20.953125 3.328125 18.109375 8.203125 
M 48.6875 27.296875 
Q 48.6875 37.203125 44.609375 42.84375 
Q 40.53125 48.484375 33.40625 48.484375 
Q 26.265625 48.484375 22.1875 42.84375 
Q 18.109375 37.203125 18.109375 27.296875 
Q 18.109375 17.390625 22.1875 11.75 
Q 26.265625 6.109375 33.40625 6.109375 
Q 40.53125 6.109375 44.609375 11.75 
Q 48.6875 17.390625 48.6875 27.296875 
" id="BitstreamVeraSans-Roman-70"/>
      <path d="M 34.28125 27.484375 
Q 23.390625 27.484375 19.1875 25 
Q 14.984375 22.515625 14.984375 16.5 
Q 14.984375 11.71875 18.140625 8.90625 
Q 21.296875 6.109375 26.703125 6.109375 
Q 34.1875 6.109375 38.703125 11.40625 
Q 43.21875 16.703125 43.21875 25.484375 
L 43.21875 27.484375 
z
M 52.203125 31.203125 
L 52.203125 0 
L 43.21875 0 
L 43.21875 8.296875 
Q 40.140625 3.328125 35.546875 0.953125 
Q 30.953125 -1.421875 24.3125 -1.421875 
Q 15.921875 -1.421875 10.953125 3.296875 
Q 6 8.015625 6 15.921875 
Q 6 25.140625 12.171875 29.828125 
Q 18.359375 34.515625 30.609375 34.515625 
L 43.21875 34.515625 
L 43.21875 35.40625 
Q 43.21875 41.609375 39.140625 45 
Q 35.0625 48.390625 27.6875 48.390625 
Q 23 48.390625 18.546875 47.265625 
Q 14.109375 46.140625 10.015625 43.890625 
L 10.015625 52.203125 
Q 14.9375 54.109375 19.578125 55.046875 
Q 24.21875 56 28.609375 56 
Q 40.484375 56 46.34375 49.84375 
Q 52.203125 43.703125 52.203125 31.203125 
" id="BitstreamVeraSans-Roman-61"/>
      <path d="M 8.5 21.578125 
L 8.5 54.6875 
L 17.484375 54.6875 
L 17.484375 21.921875 
Q 17.484375 14.15625 20.5 10.265625 
Q 23.53125 6.390625 29.59375 6.390625 
Q 36.859375 6.390625 41.078125 11.03125 
Q 45.3125 15.671875 45.3125 23.6875 
L 45.3125 54.6875 
L 54.296875 54.6875 
L 54.296875 0 
L 45.3125 0 
L 45.3125 8.40625 
Q 42.046875 3.421875 37.71875 1 
Q 33.40625 -1.421875 27.6875 -1.421875 
Q 18.265625 -1.421875 13.375 4.4375 
Q 8.5 10.296875 8.5 21.578125 
" id="BitstreamVeraSans-Roman-75"/>
      <path d="M 44.28125 53.078125 
L 44.28125 44.578125 
Q 40.484375 46.53125 36.375 47.5 
Q 32.28125 48.484375 27.875 48.484375 
Q 21.1875 48.484375 17.84375 46.4375 
Q 14.5 44.390625 14.5 40.28125 
Q 14.5 37.15625 16.890625 35.375 
Q 19.28125 33.59375 26.515625 31.984375 
L 29.59375 31.296875 
Q 39.15625 29.25 43.1875 25.515625 
Q 47.21875 21.78125 47.21875 15.09375 
Q 47.21875 7.46875 41.1875 3.015625 
Q 35.15625 -1.421875 24.609375 -1.421875 
Q 20.21875 -1.421875 15.453125 -0.5625 
Q 10.6875 0.296875 5.421875 2 
L 5.421875 11.28125 
Q 10.40625 8.6875 15.234375 7.390625 
Q 20.0625 6.109375 24.8125 6.109375 
Q 31.15625 6.109375 34.5625 8.28125 
Q 37.984375 10.453125 37.984375 14.40625 
Q 37.984375 18.0625 35.515625 20.015625 
Q 33.0625 21.96875 24.703125 23.78125 
L 21.578125 24.515625 
Q 13.234375 26.265625 9.515625 29.90625 
Q 5.8125 33.546875 5.8125 39.890625 
Q 5.8125 47.609375 11.28125 51.796875 
Q 16.75 56 26.8125 56 
Q 31.78125 56 36.171875 55.265625 
Q 40.578125 54.546875 44.28125 53.078125 
" id="BitstreamVeraSans-Roman-73"/>
      <path d="M 37.109375 75.984375 
L 37.109375 68.5 
L 28.515625 68.5 
Q 23.6875 68.5 21.796875 66.546875 
Q 19.921875 64.59375 19.921875 59.515625 
L 19.921875 54.6875 
L 34.71875 54.6875 
L 34.71875 47.703125 
L 19.921875 47.703125 
L 19.921875 0 
L 10.890625 0 
L 10.890625 47.703125 
L 2.296875 47.703125 
L 2.296875 54.6875 
L 10.890625 54.6875 
L 10.890625 58.5 
Q 10.890625 67.625 15.140625 71.796875 
Q 19.390625 75.984375 28.609375 75.984375 
z
" id="BitstreamVeraSans-Roman-66"/>
      <path d="M 56.203125 29.59375 
L 56.203125 25.203125 
L 14.890625 25.203125 
Q 15.484375 15.921875 20.484375 11.0625 
Q 25.484375 6.203125 34.421875 6.203125 
Q 39.59375 6.203125 44.453125 7.46875 
Q 49.3125 8.734375 54.109375 11.28125 
L 54.109375 2.78125 
Q 49.265625 0.734375 44.1875 -0.34375 
Q 39.109375 -1.421875 33.890625 -1.421875 
Q 20.796875 -1.421875 13.15625 6.1875 
Q 5.515625 13.8125 5.515625 26.8125 
Q 5.515625 40.234375 12.765625 48.109375 
Q 20.015625 56 32.328125 56 
Q 43.359375 56 49.78125 48.890625 
Q 56.203125 41.796875 56.203125 29.59375 
M 47.21875 32.234375 
Q 47.125 39.59375 43.09375 43.984375 
Q 39.0625 48.390625 32.421875 48.390625 
Q 24.90625 48.390625 20.390625 44.140625 
Q 15.875 39.890625 15.1875 32.171875 
z
" id="BitstreamVeraSans-Roman-65"/>
     </defs>
     <g transform="translate(201.4125 418.531875)scale(0.12 -0.12)">
      <use xlink:href="#BitstreamVeraSans-Roman-61"/>
      <use x="61.279296875" xlink:href="#BitstreamVeraSans-Roman-6d"/>
      <use x="158.69140625" xlink:href="#BitstreamVeraSans-Roman-6f"/>
      <use x="219.873046875" xlink:href="#BitstreamVeraSans-Roman-75"/>
      <use x="283.251953125" xlink:href="#BitstreamVeraSans-Roman-6e"/>
      <use x="346.630859375" xlink:href="#BitstreamVeraSans-Roman-74"/>
      <use x="385.83984375" xlink:href="#BitstreamVeraSans-Roman-20"/>
      <use x="417.626953125" xlink:href="#BitstreamVeraSans-Roman-6f"/>
      <use x="478.80859375" xlink:href="#BitstreamVeraSans-Roman-66"/>
      <use x="514.013671875" xlink:href="#BitstreamVeraSans-Roman-20"/>
      <use x="545.80078125" xlink:href="#BitstreamVeraSans-Roman-63"/>
      <use x="600.78125" xlink:href="#BitstreamVeraSans-Roman-6f"/>
      <use x="661.962890625" xlink:href="#BitstreamVeraSans-Roman-72"/>
      <use x="703.060546875" xlink:href="#BitstreamVeraSans-Roman-72"/>
      <use x="744.142578125" xlink:href="#BitstreamVeraSans-Roman-65"/>
      <use x="805.666015625" xlink:href="#BitstreamVeraSans-Roman-63"/>
      <use x="860.646484375" xlink:href="#BitstreamVeraSans-Roman-74"/>
      <use x="899.85546875" xlink:href="#BitstreamVeraSans-Roman-69"/>
      <use x="927.638671875" xlink:href="#BitstreamVeraSans-Roman-6f"/>
      <use x="988.8203125" xlink:href="#BitstreamVeraSans-Roman-6e"/>
      <use x="1052.19921875" xlink:href="#BitstreamVeraSans-Roman-73"/>
      <use x="1104.298828125" xlink:href="#BitstreamVeraSans-Roman-20"/>
      <use x="1136.0859375" xlink:href="#BitstreamVeraSans-Roman-73"/>
      <use x="1188.185546875" xlink:href="#BitstreamVeraSans-Roman-61"/>
      <use x="1249.46484375" xlink:href="#BitstreamVeraSans-Roman-6d"/>
      <use x="1346.876953125" xlink:href="#BitstreamVeraSans-Roman-70"/>
      <use x="1410.353515625" xlink:href="#BitstreamVeraSans-Roman-6c"/>
      <use x="1438.13671875" xlink:href="#BitstreamVeraSans-Roman-65"/>
      <use x="1499.66015625" xlink:href="#BitstreamVeraSans-Roman-64"/>
     </g>
    </g>
   </g>
   <g id="matplotlib.axis_2">
    <g id="ytick_1">
     <g id="line2d_59">
      <defs>
       <path d="M 0 0 
L 4 0 
" id="mc20043a57c" style="stroke:#000000;stroke-width:0.5;"/>
      </defs>
      <g>
       <use style="stroke:#000000;stroke-width:0.5;" x="72.0" xlink:href="#mc20043a57c" y="388.8"/>
      </g>
     </g>
     <g id="line2d_60">
      <defs>
       <path d="M 0 0 
L -4 0 
" id="mba896d44ff" style="stroke:#000000;stroke-width:0.5;"/>
      </defs>
      <g>
       <use style="stroke:#000000;stroke-width:0.5;" x="518.4" xlink:href="#mba896d44ff" y="388.8"/>
      </g>
     </g>
     <g id="text_7">
      <!-- 0.0 -->
      <defs>
       <path d="M 10.6875 12.40625 
L 21 12.40625 
L 21 0 
L 10.6875 0 
z
" id="BitstreamVeraSans-Roman-2e"/>
      </defs>
      <g transform="translate(48.91625 392.11125)scale(0.12 -0.12)">
       <use xlink:href="#BitstreamVeraSans-Roman-30"/>
       <use x="63.623046875" xlink:href="#BitstreamVeraSans-Roman-2e"/>
       <use x="95.41015625" xlink:href="#BitstreamVeraSans-Roman-30"/>
      </g>
     </g>
    </g>
    <g id="ytick_2">
     <g id="line2d_61">
      <g>
       <use style="stroke:#000000;stroke-width:0.5;" x="72.0" xlink:href="#mc20043a57c" y="350.4"/>
      </g>
     </g>
     <g id="line2d_62">
      <g>
       <use style="stroke:#000000;stroke-width:0.5;" x="518.4" xlink:href="#mba896d44ff" y="350.4"/>
      </g>
     </g>
     <g id="text_8">
      <!-- 0.1 -->
      <g transform="translate(48.91625 353.71125)scale(0.12 -0.12)">
       <use xlink:href="#BitstreamVeraSans-Roman-30"/>
       <use x="63.623046875" xlink:href="#BitstreamVeraSans-Roman-2e"/>
       <use x="95.41015625" xlink:href="#BitstreamVeraSans-Roman-31"/>
      </g>
     </g>
    </g>
    <g id="ytick_3">
     <g id="line2d_63">
      <g>
       <use style="stroke:#000000;stroke-width:0.5;" x="72.0" xlink:href="#mc20043a57c" y="312.0"/>
      </g>
     </g>
     <g id="line2d_64">
      <g>
       <use style="stroke:#000000;stroke-width:0.5;" x="518.4" xlink:href="#mba896d44ff" y="312.0"/>
      </g>
     </g>
     <g id="text_9">
      <!-- 0.2 -->
      <g transform="translate(48.91625 315.31125)scale(0.12 -0.12)">
       <use xlink:href="#BitstreamVeraSans-Roman-30"/>
       <use x="63.623046875" xlink:href="#BitstreamVeraSans-Roman-2e"/>
       <use x="95.41015625" xlink:href="#BitstreamVeraSans-Roman-32"/>
      </g>
     </g>
    </g>
    <g id="ytick_4">
     <g id="line2d_65">
      <g>
       <use style="stroke:#000000;stroke-width:0.5;" x="72.0" xlink:href="#mc20043a57c" y="273.6"/>
      </g>
     </g>
     <g id="line2d_66">
      <g>
       <use style="stroke:#000000;stroke-width:0.5;" x="518.4" xlink:href="#mba896d44ff" y="273.6"/>
      </g>
     </g>
     <g id="text_10">
      <!-- 0.3 -->
      <defs>
       <path d="M 40.578125 39.3125 
Q 47.65625 37.796875 51.625 33 
Q 55.609375 28.21875 55.609375 21.1875 
Q 55.609375 10.40625 48.1875 4.484375 
Q 40.765625 -1.421875 27.09375 -1.421875 
Q 22.515625 -1.421875 17.65625 -0.515625 
Q 12.796875 0.390625 7.625 2.203125 
L 7.625 11.71875 
Q 11.71875 9.328125 16.59375 8.109375 
Q 21.484375 6.890625 26.8125 6.890625 
Q 36.078125 6.890625 40.9375 10.546875 
Q 45.796875 14.203125 45.796875 21.1875 
Q 45.796875 27.640625 41.28125 31.265625 
Q 36.765625 34.90625 28.71875 34.90625 
L 20.21875 34.90625 
L 20.21875 43.015625 
L 29.109375 43.015625 
Q 36.375 43.015625 40.234375 45.921875 
Q 44.09375 48.828125 44.09375 54.296875 
Q 44.09375 59.90625 40.109375 62.90625 
Q 36.140625 65.921875 28.71875 65.921875 
Q 24.65625 65.921875 20.015625 65.03125 
Q 15.375 64.15625 9.8125 62.3125 
L 9.8125 71.09375 
Q 15.4375 72.65625 20.34375 73.4375 
Q 25.25 74.21875 29.59375 74.21875 
Q 40.828125 74.21875 47.359375 69.109375 
Q 53.90625 64.015625 53.90625 55.328125 
Q 53.90625 49.265625 50.4375 45.09375 
Q 46.96875 40.921875 40.578125 39.3125 
" id="BitstreamVeraSans-Roman-33"/>
      </defs>
      <g transform="translate(48.91625 276.91125)scale(0.12 -0.12)">
       <use xlink:href="#BitstreamVeraSans-Roman-30"/>
       <use x="63.623046875" xlink:href="#BitstreamVeraSans-Roman-2e"/>
       <use x="95.41015625" xlink:href="#BitstreamVeraSans-Roman-33"/>
      </g>
     </g>
    </g>
    <g id="ytick_5">
     <g id="line2d_67">
      <g>
       <use style="stroke:#000000;stroke-width:0.5;" x="72.0" xlink:href="#mc20043a57c" y="235.2"/>
      </g>
     </g>
     <g id="line2d_68">
      <g>
       <use style="stroke:#000000;stroke-width:0.5;" x="518.4" xlink:href="#mba896d44ff" y="235.2"/>
      </g>
     </g>
     <g id="text_11">
      <!-- 0.4 -->
      <defs>
       <path d="M 37.796875 64.3125 
L 12.890625 25.390625 
L 37.796875 25.390625 
z
M 35.203125 72.90625 
L 47.609375 72.90625 
L 47.609375 25.390625 
L 58.015625 25.390625 
L 58.015625 17.1875 
L 47.609375 17.1875 
L 47.609375 0 
L 37.796875 0 
L 37.796875 17.1875 
L 4.890625 17.1875 
L 4.890625 26.703125 
z
" id="BitstreamVeraSans-Roman-34"/>
      </defs>
      <g transform="translate(48.91625 238.51125)scale(0.12 -0.12)">
       <use xlink:href="#BitstreamVeraSans-Roman-30"/>
       <use x="63.623046875" xlink:href="#BitstreamVeraSans-Roman-2e"/>
       <use x="95.41015625" xlink:href="#BitstreamVeraSans-Roman-34"/>
      </g>
     </g>
    </g>
    <g id="ytick_6">
     <g id="line2d_69">
      <g>
       <use style="stroke:#000000;stroke-width:0.5;" x="72.0" xlink:href="#mc20043a57c" y="196.8"/>
      </g>
     </g>
     <g id="line2d_70">
      <g>
       <use style="stroke:#000000;stroke-width:0.5;" x="518.4" xlink:href="#mba896d44ff" y="196.8"/>
      </g>
     </g>
     <g id="text_12">
      <!-- 0.5 -->
      <g transform="translate(48.91625 200.11125)scale(0.12 -0.12)">
       <use xlink:href="#BitstreamVeraSans-Roman-30"/>
       <use x="63.623046875" xlink:href="#BitstreamVeraSans-Roman-2e"/>
       <use x="95.41015625" xlink:href="#BitstreamVeraSans-Roman-35"/>
      </g>
     </g>
    </g>
    <g id="ytick_7">
     <g id="line2d_71">
      <g>
       <use style="stroke:#000000;stroke-width:0.5;" x="72.0" xlink:href="#mc20043a57c" y="158.4"/>
      </g>
     </g>
     <g id="line2d_72">
      <g>
       <use style="stroke:#000000;stroke-width:0.5;" x="518.4" xlink:href="#mba896d44ff" y="158.4"/>
      </g>
     </g>
     <g id="text_13">
      <!-- 0.6 -->
      <defs>
       <path d="M 33.015625 40.375 
Q 26.375 40.375 22.484375 35.828125 
Q 18.609375 31.296875 18.609375 23.390625 
Q 18.609375 15.53125 22.484375 10.953125 
Q 26.375 6.390625 33.015625 6.390625 
Q 39.65625 6.390625 43.53125 10.953125 
Q 47.40625 15.53125 47.40625 23.390625 
Q 47.40625 31.296875 43.53125 35.828125 
Q 39.65625 40.375 33.015625 40.375 
M 52.59375 71.296875 
L 52.59375 62.3125 
Q 48.875 64.0625 45.09375 64.984375 
Q 41.3125 65.921875 37.59375 65.921875 
Q 27.828125 65.921875 22.671875 59.328125 
Q 17.53125 52.734375 16.796875 39.40625 
Q 19.671875 43.65625 24.015625 45.921875 
Q 28.375 48.1875 33.59375 48.1875 
Q 44.578125 48.1875 50.953125 41.515625 
Q 57.328125 34.859375 57.328125 23.390625 
Q 57.328125 12.15625 50.6875 5.359375 
Q 44.046875 -1.421875 33.015625 -1.421875 
Q 20.359375 -1.421875 13.671875 8.265625 
Q 6.984375 17.96875 6.984375 36.375 
Q 6.984375 53.65625 15.1875 63.9375 
Q 23.390625 74.21875 37.203125 74.21875 
Q 40.921875 74.21875 44.703125 73.484375 
Q 48.484375 72.75 52.59375 71.296875 
" id="BitstreamVeraSans-Roman-36"/>
      </defs>
      <g transform="translate(48.91625 161.71125)scale(0.12 -0.12)">
       <use xlink:href="#BitstreamVeraSans-Roman-30"/>
       <use x="63.623046875" xlink:href="#BitstreamVeraSans-Roman-2e"/>
       <use x="95.41015625" xlink:href="#BitstreamVeraSans-Roman-36"/>
      </g>
     </g>
    </g>
    <g id="ytick_8">
     <g id="line2d_73">
      <g>
       <use style="stroke:#000000;stroke-width:0.5;" x="72.0" xlink:href="#mc20043a57c" y="120.0"/>
      </g>
     </g>
     <g id="line2d_74">
      <g>
       <use style="stroke:#000000;stroke-width:0.5;" x="518.4" xlink:href="#mba896d44ff" y="120.0"/>
      </g>
     </g>
     <g id="text_14">
      <!-- 0.7 -->
      <defs>
       <path d="M 8.203125 72.90625 
L 55.078125 72.90625 
L 55.078125 68.703125 
L 28.609375 0 
L 18.3125 0 
L 43.21875 64.59375 
L 8.203125 64.59375 
z
" id="BitstreamVeraSans-Roman-37"/>
      </defs>
      <g transform="translate(48.91625 123.31125)scale(0.12 -0.12)">
       <use xlink:href="#BitstreamVeraSans-Roman-30"/>
       <use x="63.623046875" xlink:href="#BitstreamVeraSans-Roman-2e"/>
       <use x="95.41015625" xlink:href="#BitstreamVeraSans-Roman-37"/>
      </g>
     </g>
    </g>
    <g id="ytick_9">
     <g id="line2d_75">
      <g>
       <use style="stroke:#000000;stroke-width:0.5;" x="72.0" xlink:href="#mc20043a57c" y="81.6"/>
      </g>
     </g>
     <g id="line2d_76">
      <g>
       <use style="stroke:#000000;stroke-width:0.5;" x="518.4" xlink:href="#mba896d44ff" y="81.6"/>
      </g>
     </g>
     <g id="text_15">
      <!-- 0.8 -->
      <defs>
       <path d="M 31.78125 34.625 
Q 24.75 34.625 20.71875 30.859375 
Q 16.703125 27.09375 16.703125 20.515625 
Q 16.703125 13.921875 20.71875 10.15625 
Q 24.75 6.390625 31.78125 6.390625 
Q 38.8125 6.390625 42.859375 10.171875 
Q 46.921875 13.96875 46.921875 20.515625 
Q 46.921875 27.09375 42.890625 30.859375 
Q 38.875 34.625 31.78125 34.625 
M 21.921875 38.8125 
Q 15.578125 40.375 12.03125 44.71875 
Q 8.5 49.078125 8.5 55.328125 
Q 8.5 64.0625 14.71875 69.140625 
Q 20.953125 74.21875 31.78125 74.21875 
Q 42.671875 74.21875 48.875 69.140625 
Q 55.078125 64.0625 55.078125 55.328125 
Q 55.078125 49.078125 51.53125 44.71875 
Q 48 40.375 41.703125 38.8125 
Q 48.828125 37.15625 52.796875 32.3125 
Q 56.78125 27.484375 56.78125 20.515625 
Q 56.78125 9.90625 50.3125 4.234375 
Q 43.84375 -1.421875 31.78125 -1.421875 
Q 19.734375 -1.421875 13.25 4.234375 
Q 6.78125 9.90625 6.78125 20.515625 
Q 6.78125 27.484375 10.78125 32.3125 
Q 14.796875 37.15625 21.921875 38.8125 
M 18.3125 54.390625 
Q 18.3125 48.734375 21.84375 45.5625 
Q 25.390625 42.390625 31.78125 42.390625 
Q 38.140625 42.390625 41.71875 45.5625 
Q 45.3125 48.734375 45.3125 54.390625 
Q 45.3125 60.0625 41.71875 63.234375 
Q 38.140625 66.40625 31.78125 66.40625 
Q 25.390625 66.40625 21.84375 63.234375 
Q 18.3125 60.0625 18.3125 54.390625 
" id="BitstreamVeraSans-Roman-38"/>
      </defs>
      <g transform="translate(48.91625 84.91125)scale(0.12 -0.12)">
       <use xlink:href="#BitstreamVeraSans-Roman-30"/>
       <use x="63.623046875" xlink:href="#BitstreamVeraSans-Roman-2e"/>
       <use x="95.41015625" xlink:href="#BitstreamVeraSans-Roman-38"/>
      </g>
     </g>
    </g>
    <g id="ytick_10">
     <g id="line2d_77">
      <g>
       <use style="stroke:#000000;stroke-width:0.5;" x="72.0" xlink:href="#mc20043a57c" y="43.2"/>
      </g>
     </g>
     <g id="line2d_78">
      <g>
       <use style="stroke:#000000;stroke-width:0.5;" x="518.4" xlink:href="#mba896d44ff" y="43.2"/>
      </g>
     </g>
     <g id="text_16">
      <!-- 0.9 -->
      <defs>
       <path d="M 10.984375 1.515625 
L 10.984375 10.5 
Q 14.703125 8.734375 18.5 7.8125 
Q 22.3125 6.890625 25.984375 6.890625 
Q 35.75 6.890625 40.890625 13.453125 
Q 46.046875 20.015625 46.78125 33.40625 
Q 43.953125 29.203125 39.59375 26.953125 
Q 35.25 24.703125 29.984375 24.703125 
Q 19.046875 24.703125 12.671875 31.3125 
Q 6.296875 37.9375 6.296875 49.421875 
Q 6.296875 60.640625 12.9375 67.421875 
Q 19.578125 74.21875 30.609375 74.21875 
Q 43.265625 74.21875 49.921875 64.515625 
Q 56.59375 54.828125 56.59375 36.375 
Q 56.59375 19.140625 48.40625 8.859375 
Q 40.234375 -1.421875 26.421875 -1.421875 
Q 22.703125 -1.421875 18.890625 -0.6875 
Q 15.09375 0.046875 10.984375 1.515625 
M 30.609375 32.421875 
Q 37.25 32.421875 41.125 36.953125 
Q 45.015625 41.5 45.015625 49.421875 
Q 45.015625 57.28125 41.125 61.84375 
Q 37.25 66.40625 30.609375 66.40625 
Q 23.96875 66.40625 20.09375 61.84375 
Q 16.21875 57.28125 16.21875 49.421875 
Q 16.21875 41.5 20.09375 36.953125 
Q 23.96875 32.421875 30.609375 32.421875 
" id="BitstreamVeraSans-Roman-39"/>
      </defs>
      <g transform="translate(48.91625 46.51125)scale(0.12 -0.12)">
       <use xlink:href="#BitstreamVeraSans-Roman-30"/>
       <use x="63.623046875" xlink:href="#BitstreamVeraSans-Roman-2e"/>
       <use x="95.41015625" xlink:href="#BitstreamVeraSans-Roman-39"/>
      </g>
     </g>
    </g>
    <g id="text_17">
     <!-- Mean coverage -->
     <defs>
      <path d="M 9.8125 72.90625 
L 24.515625 72.90625 
L 43.109375 23.296875 
L 61.8125 72.90625 
L 76.515625 72.90625 
L 76.515625 0 
L 66.890625 0 
L 66.890625 64.015625 
L 48.09375 14.015625 
L 38.1875 14.015625 
L 19.390625 64.015625 
L 19.390625 0 
L 9.8125 0 
z
" id="BitstreamVeraSans-Roman-4d"/>
      <path d="M 2.984375 54.6875 
L 12.5 54.6875 
L 29.59375 8.796875 
L 46.6875 54.6875 
L 56.203125 54.6875 
L 35.6875 0 
L 23.484375 0 
z
" id="BitstreamVeraSans-Roman-76"/>
      <path d="M 45.40625 27.984375 
Q 45.40625 37.75 41.375 43.109375 
Q 37.359375 48.484375 30.078125 48.484375 
Q 22.859375 48.484375 18.828125 43.109375 
Q 14.796875 37.75 14.796875 27.984375 
Q 14.796875 18.265625 18.828125 12.890625 
Q 22.859375 7.515625 30.078125 7.515625 
Q 37.359375 7.515625 41.375 12.890625 
Q 45.40625 18.265625 45.40625 27.984375 
M 54.390625 6.78125 
Q 54.390625 -7.171875 48.1875 -13.984375 
Q 42 -20.796875 29.203125 -20.796875 
Q 24.46875 -20.796875 20.265625 -20.09375 
Q 16.0625 -19.390625 12.109375 -17.921875 
L 12.109375 -9.1875 
Q 16.0625 -11.328125 19.921875 -12.34375 
Q 23.78125 -13.375 27.78125 -13.375 
Q 36.625 -13.375 41.015625 -8.765625 
Q 45.40625 -4.15625 45.40625 5.171875 
L 45.40625 9.625 
Q 42.625 4.78125 38.28125 2.390625 
Q 33.9375 0 27.875 0 
Q 17.828125 0 11.671875 7.65625 
Q 5.515625 15.328125 5.515625 27.984375 
Q 5.515625 40.671875 11.671875 48.328125 
Q 17.828125 56 27.875 56 
Q 33.9375 56 38.28125 53.609375 
Q 42.625 51.21875 45.40625 46.390625 
L 45.40625 54.6875 
L 54.390625 54.6875 
z
" id="BitstreamVeraSans-Roman-67"/>
     </defs>
     <g transform="translate(41.420625 262.1128125)rotate(-90.0)scale(0.12 -0.12)">
      <use xlink:href="#BitstreamVeraSans-Roman-4d"/>
      <use x="86.279296875" xlink:href="#BitstreamVeraSans-Roman-65"/>
      <use x="147.802734375" xlink:href="#BitstreamVeraSans-Roman-61"/>
      <use x="209.08203125" xlink:href="#BitstreamVeraSans-Roman-6e"/>
      <use x="272.4609375" xlink:href="#BitstreamVeraSans-Roman-20"/>
      <use x="304.248046875" xlink:href="#BitstreamVeraSans-Roman-63"/>
      <use x="359.228515625" xlink:href="#BitstreamVeraSans-Roman-6f"/>
      <use x="420.41015625" xlink:href="#BitstreamVeraSans-Roman-76"/>
      <use x="479.58984375" xlink:href="#BitstreamVeraSans-Roman-65"/>
      <use x="541.11328125" xlink:href="#BitstreamVeraSans-Roman-72"/>
      <use x="582.2265625" xlink:href="#BitstreamVeraSans-Roman-61"/>
      <use x="643.505859375" xlink:href="#BitstreamVeraSans-Roman-67"/>
      <use x="706.982421875" xlink:href="#BitstreamVeraSans-Roman-65"/>
     </g>
    </g>
   </g>
   <g id="text_18">
    <!-- Mean coverage of different amount of corrections -->
    <g transform="translate(115.707375 22.07515)scale(0.144 -0.144)">
     <use xlink:href="#BitstreamVeraSans-Roman-4d"/>
     <use x="86.279296875" xlink:href="#BitstreamVeraSans-Roman-65"/>
     <use x="147.802734375" xlink:href="#BitstreamVeraSans-Roman-61"/>
     <use x="209.08203125" xlink:href="#BitstreamVeraSans-Roman-6e"/>
     <use x="272.4609375" xlink:href="#BitstreamVeraSans-Roman-20"/>
     <use x="304.248046875" xlink:href="#BitstreamVeraSans-Roman-63"/>
     <use x="359.228515625" xlink:href="#BitstreamVeraSans-Roman-6f"/>
     <use x="420.41015625" xlink:href="#BitstreamVeraSans-Roman-76"/>
     <use x="479.58984375" xlink:href="#BitstreamVeraSans-Roman-65"/>
     <use x="541.11328125" xlink:href="#BitstreamVeraSans-Roman-72"/>
     <use x="582.2265625" xlink:href="#BitstreamVeraSans-Roman-61"/>
     <use x="643.505859375" xlink:href="#BitstreamVeraSans-Roman-67"/>
     <use x="706.982421875" xlink:href="#BitstreamVeraSans-Roman-65"/>
     <use x="768.505859375" xlink:href="#BitstreamVeraSans-Roman-20"/>
     <use x="800.29296875" xlink:href="#BitstreamVeraSans-Roman-6f"/>
     <use x="861.474609375" xlink:href="#BitstreamVeraSans-Roman-66"/>
     <use x="896.6796875" xlink:href="#BitstreamVeraSans-Roman-20"/>
     <use x="928.466796875" xlink:href="#BitstreamVeraSans-Roman-64"/>
     <use x="991.943359375" xlink:href="#BitstreamVeraSans-Roman-69"/>
     <use x="1019.7265625" xlink:href="#BitstreamVeraSans-Roman-66"/>
     <use x="1054.931640625" xlink:href="#BitstreamVeraSans-Roman-66"/>
     <use x="1090.13671875" xlink:href="#BitstreamVeraSans-Roman-65"/>
     <use x="1151.66015625" xlink:href="#BitstreamVeraSans-Roman-72"/>
     <use x="1192.7421875" xlink:href="#BitstreamVeraSans-Roman-65"/>
     <use x="1254.265625" xlink:href="#BitstreamVeraSans-Roman-6e"/>
     <use x="1317.64453125" xlink:href="#BitstreamVeraSans-Roman-74"/>
     <use x="1356.853515625" xlink:href="#BitstreamVeraSans-Roman-20"/>
     <use x="1388.640625" xlink:href="#BitstreamVeraSans-Roman-61"/>
     <use x="1449.919921875" xlink:href="#BitstreamVeraSans-Roman-6d"/>
     <use x="1547.33203125" xlink:href="#BitstreamVeraSans-Roman-6f"/>
     <use x="1608.513671875" xlink:href="#BitstreamVeraSans-Roman-75"/>
     <use x="1671.892578125" xlink:href="#BitstreamVeraSans-Roman-6e"/>
     <use x="1735.271484375" xlink:href="#BitstreamVeraSans-Roman-74"/>
     <use x="1774.48046875" xlink:href="#BitstreamVeraSans-Roman-20"/>
     <use x="1806.267578125" xlink:href="#BitstreamVeraSans-Roman-6f"/>
     <use x="1867.44921875" xlink:href="#BitstreamVeraSans-Roman-66"/>
     <use x="1902.654296875" xlink:href="#BitstreamVeraSans-Roman-20"/>
     <use x="1934.44140625" xlink:href="#BitstreamVeraSans-Roman-63"/>
     <use x="1989.421875" xlink:href="#BitstreamVeraSans-Roman-6f"/>
     <use x="2050.603515625" xlink:href="#BitstreamVeraSans-Roman-72"/>
     <use x="2091.701171875" xlink:href="#BitstreamVeraSans-Roman-72"/>
     <use x="2132.783203125" xlink:href="#BitstreamVeraSans-Roman-65"/>
     <use x="2194.306640625" xlink:href="#BitstreamVeraSans-Roman-63"/>
     <use x="2249.287109375" xlink:href="#BitstreamVeraSans-Roman-74"/>
     <use x="2288.49609375" xlink:href="#BitstreamVeraSans-Roman-69"/>
     <use x="2316.279296875" xlink:href="#BitstreamVeraSans-Roman-6f"/>
     <use x="2377.4609375" xlink:href="#BitstreamVeraSans-Roman-6e"/>
     <use x="2440.83984375" xlink:href="#BitstreamVeraSans-Roman-73"/>
    </g>
    <!-- using exact comparison -->
    <defs>
     <path d="M 54.890625 54.6875 
L 35.109375 28.078125 
L 55.90625 0 
L 45.3125 0 
L 29.390625 21.484375 
L 13.484375 0 
L 2.875 0 
L 24.125 28.609375 
L 4.6875 54.6875 
L 15.28125 54.6875 
L 29.78125 35.203125 
L 44.28125 54.6875 
z
" id="BitstreamVeraSans-Roman-78"/>
    </defs>
    <g transform="translate(209.251125 38.2)scale(0.144 -0.144)">
     <use xlink:href="#BitstreamVeraSans-Roman-75"/>
     <use x="63.37890625" xlink:href="#BitstreamVeraSans-Roman-73"/>
     <use x="115.478515625" xlink:href="#BitstreamVeraSans-Roman-69"/>
     <use x="143.26171875" xlink:href="#BitstreamVeraSans-Roman-6e"/>
     <use x="206.640625" xlink:href="#BitstreamVeraSans-Roman-67"/>
     <use x="270.1171875" xlink:href="#BitstreamVeraSans-Roman-20"/>
     <use x="301.904296875" xlink:href="#BitstreamVeraSans-Roman-65"/>
     <use x="363.412109375" xlink:href="#BitstreamVeraSans-Roman-78"/>
     <use x="422.591796875" xlink:href="#BitstreamVeraSans-Roman-61"/>
     <use x="483.87109375" xlink:href="#BitstreamVeraSans-Roman-63"/>
     <use x="538.8515625" xlink:href="#BitstreamVeraSans-Roman-74"/>
     <use x="578.060546875" xlink:href="#BitstreamVeraSans-Roman-20"/>
     <use x="609.84765625" xlink:href="#BitstreamVeraSans-Roman-63"/>
     <use x="664.828125" xlink:href="#BitstreamVeraSans-Roman-6f"/>
     <use x="726.009765625" xlink:href="#BitstreamVeraSans-Roman-6d"/>
     <use x="823.421875" xlink:href="#BitstreamVeraSans-Roman-70"/>
     <use x="886.8984375" xlink:href="#BitstreamVeraSans-Roman-61"/>
     <use x="948.177734375" xlink:href="#BitstreamVeraSans-Roman-72"/>
     <use x="989.291015625" xlink:href="#BitstreamVeraSans-Roman-69"/>
     <use x="1017.07421875" xlink:href="#BitstreamVeraSans-Roman-73"/>
     <use x="1069.173828125" xlink:href="#BitstreamVeraSans-Roman-6f"/>
     <use x="1130.35546875" xlink:href="#BitstreamVeraSans-Roman-6e"/>
    </g>
   </g>
  </g>
 </g>
 <defs>
  <clipPath id="p5af335d9dc">
   <rect height="345.6" width="446.4" x="72.0" y="43.2"/>
  </clipPath>
 </defs>
</svg>
