<?xml version="1.0" encoding="utf-8" standalone="no"?>
<!DOCTYPE svg PUBLIC "-//W3C//DTD SVG 1.1//EN"
  "http://www.w3.org/Graphics/SVG/1.1/DTD/svg11.dtd">
<!-- Created with matplotlib (http://matplotlib.org/) -->
<svg height="432pt" version="1.1" viewBox="0 0 576 432" width="576pt" xmlns="http://www.w3.org/2000/svg" xmlns:xlink="http://www.w3.org/1999/xlink">
 <defs>
  <style type="text/css">
*{stroke-linecap:butt;stroke-linejoin:round;stroke-miterlimit:100000;}
  </style>
 </defs>
 <g id="figure_1">
  <g id="patch_1">
   <path d="M 0 432 
L 576 432 
L 576 0 
L 0 0 
z
" style="fill:#ffffff;"/>
  </g>
  <g id="axes_1">
   <g id="patch_2">
    <path d="M 72 388.8 
L 518.4 388.8 
L 518.4 43.2 
L 72 43.2 
z
" style="fill:#ffffff;"/>
   </g>
   <g id="line2d_1">
    <path clip-path="url(#peb80a49f47)" d="M 72 388.8 
L 94.32 366.054367 
L 116.64 351.365229 
L 138.96 337.821484 
L 161.28 331.758153 
L 183.6 324.219467 
L 205.92 318.075238 
L 228.24 314.311835 
L 250.56 309.237628 
L 272.88 309.66928 
L 295.2 309.276244 
L 317.52 308.065259 
L 339.84 302.741007 
L 362.16 304.817461 
L 384.48 302.777109 
L 406.8 301.572499 
L 429.12 301.174774 
L 451.44 299.968862 
L 473.76 300.393535 
L 496.08 299.175357 
L 518.4 299.613788 
" style="fill:none;stroke:#8000ff;stroke-linecap:square;"/>
   </g>
   <g id="line2d_2">
    <path clip-path="url(#peb80a49f47)" d="M 72 388.8 
L 94.32 363.473855 
L 116.64 342.377436 
L 138.96 320.603966 
L 161.28 308.632465 
L 183.6 298.164066 
L 205.92 279.395423 
L 228.24 270.078641 
L 250.56 263.77232 
L 272.88 257.693362 
L 295.2 254.510974 
L 317.52 250.447503 
L 339.84 243.614759 
L 362.16 239.858485 
L 384.48 237.788732 
L 406.8 234.731508 
L 429.12 231.619149 
L 451.44 226.518287 
L 473.76 226.811645 
L 496.08 221.022139 
L 518.4 219.698193 
" style="fill:none;stroke:#7610ff;stroke-linecap:square;"/>
   </g>
   <g id="line2d_3">
    <path clip-path="url(#peb80a49f47)" d="M 72 388.8 
L 94.32 379.312797 
L 116.64 373.112835 
L 138.96 365.97701 
L 161.28 363.021936 
L 183.6 356.86617 
L 205.92 347.480419 
L 228.24 343.99629 
L 250.56 337.221559 
L 272.88 331.908928 
L 295.2 333.951519 
L 317.52 328.466715 
L 339.84 326.207918 
L 362.16 318.434006 
L 384.48 313.535085 
L 406.8 313.722413 
L 429.12 310.049533 
L 451.44 309.505933 
L 473.76 306.895184 
L 496.08 306.230865 
L 518.4 303.711022 
" style="fill:none;stroke:#6c1fff;stroke-linecap:square;"/>
   </g>
   <g id="line2d_4">
    <path clip-path="url(#peb80a49f47)" d="M 72 388.8 
L 94.32 199.141862 
L 116.64 137.055558 
L 138.96 119.555277 
L 161.28 109.620181 
L 183.6 101.811589 
L 205.92 94.295062 
L 228.24 91.086698 
L 250.56 90.104532 
L 272.88 86.488357 
L 295.2 84.436075 
L 317.52 80.524308 
L 339.84 81.222561 
L 362.16 79.888158 
L 384.48 79.69212 
L 406.8 79.254325 
L 429.12 78.625708 
L 451.44 78.54181 
L 473.76 78.04206 
L 496.08 78.02819 
L 518.4 77.811738 
" style="fill:none;stroke:#6032fe;stroke-linecap:square;"/>
   </g>
   <g id="line2d_5">
    <path clip-path="url(#peb80a49f47)" d="M 72 388.8 
L 94.32 386.766883 
L 116.64 384.571427 
L 138.96 382.719389 
L 161.28 380.832986 
L 183.6 378.982173 
L 205.92 377.252066 
L 228.24 375.076699 
L 250.56 373.411704 
L 272.88 372.091687 
L 295.2 370.95379 
L 317.52 369.064644 
L 339.84 366.430217 
L 362.16 364.450081 
L 384.48 363.318734 
L 406.8 362.28159 
L 429.12 360.972264 
L 451.44 360.193791 
L 473.76 357.597469 
L 496.08 354.918532 
L 518.4 353.76774 
" style="fill:none;stroke:#5641fd;stroke-linecap:square;"/>
   </g>
   <g id="line2d_6">
    <path clip-path="url(#peb80a49f47)" d="M 72 388.8 
L 94.32 297.796357 
L 116.64 255.289392 
L 138.96 219.638751 
L 161.28 209.775953 
L 183.6 197.9541 
L 205.92 192.527635 
L 228.24 184.21262 
L 250.56 179.306856 
L 272.88 176.513955 
L 295.2 173.298332 
L 317.52 170.492966 
L 339.84 167.691848 
L 362.16 164.892591 
L 384.48 162.118872 
L 406.8 159.280127 
L 429.12 156.503823 
L 451.44 153.691461 
L 473.76 150.904671 
L 496.08 148.098232 
L 518.4 145.301164 
" style="fill:none;stroke:#4a53fb;stroke-linecap:square;"/>
   </g>
   <g id="line2d_7">
    <path clip-path="url(#peb80a49f47)" d="M 72 388.8 
L 94.32 348.55149 
L 116.64 311.151781 
L 138.96 276.116489 
L 161.28 239.647391 
L 183.6 206.026648 
L 205.92 178.586886 
L 228.24 155.608867 
L 250.56 133.579806 
L 272.88 115.71782 
L 295.2 103.302772 
L 317.52 96.551139 
L 339.84 91.046935 
L 362.16 86.073976 
L 384.48 83.151629 
L 406.8 82.087867 
L 429.12 80.8391 
L 451.44 80.042784 
L 473.76 78.973906 
L 496.08 77.310485 
L 518.4 78.355962 
" style="fill:none;stroke:#4062fa;stroke-linecap:square;"/>
   </g>
   <g id="line2d_8">
    <path clip-path="url(#peb80a49f47)" d="M 72 388.8 
L 94.32 289.298907 
L 116.64 221.625068 
L 138.96 171.621684 
L 161.28 153.094578 
L 183.6 137.509367 
L 205.92 126.868644 
L 228.24 119.3261 
L 250.56 113.618064 
L 272.88 108.640027 
L 295.2 101.048849 
L 317.52 96.35872 
L 339.84 91.542488 
L 362.16 85.866007 
L 384.48 85.761882 
L 406.8 83.174146 
L 429.12 81.797185 
L 451.44 79.312444 
L 473.76 76.793701 
L 496.08 76.757872 
L 518.4 76.001729 
" style="fill:none;stroke:#3473f8;stroke-linecap:square;"/>
   </g>
   <g id="line2d_9">
    <path clip-path="url(#peb80a49f47)" d="M 72 388.8 
L 94.32 365.150321 
L 116.64 340.005337 
L 138.96 316.915937 
L 161.28 297.669913 
L 183.6 279.46096 
L 205.92 258.05378 
L 228.24 242.162602 
L 250.56 233.834833 
L 272.88 220.300861 
L 295.2 210.781955 
L 317.52 198.698646 
L 339.84 194.256931 
L 362.16 179.155427 
L 384.48 174.105087 
L 406.8 171.392152 
L 429.12 165.142801 
L 451.44 163.8226 
L 473.76 157.613184 
L 496.08 154.555327 
L 518.4 153.557938 
" style="fill:none;stroke:#2981f6;stroke-linecap:square;"/>
   </g>
   <g id="line2d_10">
    <path clip-path="url(#peb80a49f47)" d="M 72 388.8 
L 94.32 355.569041 
L 116.64 330.528089 
L 138.96 309.993498 
L 161.28 292.167644 
L 183.6 282.288295 
L 205.92 276.741708 
L 228.24 277.448908 
L 250.56 268.281836 
L 272.88 262.343977 
L 295.2 260.80083 
L 317.52 259.251224 
L 339.84 254.719794 
L 362.16 253.443903 
L 384.48 249.147042 
L 406.8 246.138112 
L 429.12 242.251322 
L 451.44 243.302471 
L 473.76 237.070565 
L 496.08 237.354382 
L 518.4 233.602852 
" style="fill:none;stroke:#1e91f3;stroke-linecap:square;"/>
   </g>
   <g id="line2d_11">
    <path clip-path="url(#peb80a49f47)" d="M 72 388.8 
L 94.32 332.167244 
L 116.64 299.633272 
L 138.96 264.108174 
L 161.28 234.854898 
L 183.6 213.629624 
L 205.92 196.62455 
L 228.24 180.429086 
L 250.56 175.926018 
L 272.88 168.269469 
L 295.2 160.319624 
L 317.52 153.167076 
L 339.84 145.443008 
L 362.16 139.538724 
L 384.48 133.631587 
L 406.8 127.772498 
L 429.12 121.913414 
L 451.44 116.187887 
L 473.76 110.19524 
L 496.08 104.336158 
L 518.4 98.477073 
" style="fill:none;stroke:#149df1;stroke-linecap:square;"/>
   </g>
   <g id="line2d_12">
    <path clip-path="url(#peb80a49f47)" d="M 72 388.8 
L 94.32 343.801394 
L 116.64 304.038638 
L 138.96 267.224291 
L 161.28 228.657819 
L 183.6 206.248756 
L 205.92 199.138431 
L 228.24 184.091693 
L 250.56 180.628329 
L 272.88 166.083897 
L 295.2 162.884592 
L 317.52 157.619373 
L 339.84 150.151634 
L 362.16 148.611956 
L 384.48 144.17277 
L 406.8 143.145822 
L 429.12 139.636229 
L 451.44 137.270827 
L 473.76 134.285209 
L 496.08 130.947955 
L 518.4 128.711372 
" style="fill:none;stroke:#09a9ee;stroke-linecap:square;"/>
   </g>
   <g id="line2d_13">
    <path clip-path="url(#peb80a49f47)" d="M 72 388.8 
L 94.32 311.828364 
L 116.64 254.050762 
L 138.96 206.466639 
L 161.28 184.204109 
L 183.6 169.557806 
L 205.92 156.59218 
L 228.24 156.102248 
L 250.56 150.624582 
L 272.88 149.28546 
L 295.2 147.801018 
L 317.52 147.308564 
L 339.84 147.239444 
L 362.16 147.339657 
L 384.48 147.101204 
L 406.8 147.032084 
L 429.12 146.962964 
L 451.44 146.893844 
L 473.76 146.824724 
L 496.08 146.755604 
L 518.4 146.686484 
" style="fill:none;stroke:#02b7eb;stroke-linecap:square;"/>
   </g>
   <g id="line2d_14">
    <path clip-path="url(#peb80a49f47)" d="M 72 388.8 
L 94.32 353.03608 
L 116.64 334.599744 
L 138.96 317.690428 
L 161.28 297.674656 
L 183.6 279.238264 
L 205.92 270.241979 
L 228.24 267.331931 
L 250.56 254.654307 
L 272.88 252.318985 
L 295.2 250.060077 
L 317.52 245.793317 
L 339.84 242.081721 
L 362.16 238.305397 
L 384.48 238.171653 
L 406.8 235.021783 
L 429.12 233.844217 
L 451.44 232.442382 
L 473.76 230.479412 
L 496.08 229.687378 
L 518.4 229.207432 
" style="fill:none;stroke:#0dc2e8;stroke-linecap:square;"/>
   </g>
   <g id="line2d_15">
    <path clip-path="url(#peb80a49f47)" d="M 72 388.8 
L 94.32 232.852518 
L 116.64 168.988485 
L 138.96 149.14417 
L 161.28 137.274711 
L 183.6 128.235721 
L 205.92 124.027877 
L 228.24 113.483689 
L 250.56 108.372994 
L 272.88 106.776963 
L 295.2 103.588513 
L 317.52 101.794546 
L 339.84 98.545012 
L 362.16 98.763251 
L 384.48 95.638871 
L 406.8 95.233381 
L 429.12 94.937702 
L 451.44 94.43034 
L 473.76 93.932662 
L 496.08 94.09629 
L 518.4 93.450169 
" style="fill:none;stroke:#18cde4;stroke-linecap:square;"/>
   </g>
   <g id="line2d_16">
    <path clip-path="url(#peb80a49f47)" d="M 72 388.8 
L 94.32 370.649296 
L 116.64 359.156617 
L 138.96 344.116583 
L 161.28 333.404601 
L 183.6 319.770156 
L 205.92 310.142174 
L 228.24 301.527553 
L 250.56 293.386346 
L 272.88 288.902287 
L 295.2 282.845179 
L 317.52 278.737526 
L 339.84 273.772049 
L 362.16 265.175787 
L 384.48 267.210169 
L 406.8 262.658359 
L 429.12 257.075259 
L 451.44 256.476311 
L 473.76 251.978417 
L 496.08 250.953748 
L 518.4 252.16092 
" style="fill:none;stroke:#22d6e0;stroke-linecap:square;"/>
   </g>
   <g id="line2d_17">
    <path clip-path="url(#peb80a49f47)" d="M 72 388.8 
L 94.32 388.185492 
L 116.64 387.571487 
L 138.96 386.955543 
L 161.28 386.340726 
L 183.6 385.731512 
L 205.92 385.114962 
L 228.24 384.501044 
L 250.56 383.886153 
L 272.88 383.269913 
L 295.2 382.653571 
L 317.52 382.038414 
L 339.84 381.4212 
L 362.16 380.814778 
L 384.48 380.194532 
L 406.8 379.583545 
L 429.12 378.970739 
L 451.44 378.356714 
L 473.76 377.739687 
L 496.08 377.128485 
L 518.4 376.51325 
" style="fill:none;stroke:#2fe0db;stroke-linecap:square;"/>
   </g>
   <g id="line2d_18">
    <path clip-path="url(#peb80a49f47)" d="M 72 388.8 
L 94.32 280.170374 
L 116.64 219.146722 
L 138.96 184.915263 
L 161.28 164.94785 
L 183.6 154.74041 
L 205.92 150.886719 
L 228.24 147.592237 
L 250.56 143.818189 
L 272.88 141.470662 
L 295.2 139.127639 
L 317.52 136.810926 
L 339.84 134.46633 
L 362.16 132.132683 
L 384.48 129.824728 
L 406.8 127.45279 
L 429.12 125.125964 
L 451.44 122.801842 
L 473.76 120.453236 
L 496.08 118.093459 
L 518.4 115.806736 
" style="fill:none;stroke:#38e7d7;stroke-linecap:square;"/>
   </g>
   <g id="line2d_19">
    <path clip-path="url(#peb80a49f47)" d="M 72 388.8 
L 94.32 333.683383 
L 116.64 284.734106 
L 138.96 244.254261 
L 161.28 210.976709 
L 183.6 199.219291 
L 205.92 179.860668 
L 228.24 166.96912 
L 250.56 156.474586 
L 272.88 151.788532 
L 295.2 144.278049 
L 317.52 140.361233 
L 339.84 134.129743 
L 362.16 128.840192 
L 384.48 127.052068 
L 406.8 124.601532 
L 429.12 120.695503 
L 451.44 117.103939 
L 473.76 115.751995 
L 496.08 113.980669 
L 518.4 113.264471 
" style="fill:none;stroke:#44eed2;stroke-linecap:square;"/>
   </g>
   <g id="line2d_20">
    <path clip-path="url(#peb80a49f47)" d="M 72 388.8 
L 94.32 282.12678 
L 116.64 219.030786 
L 138.96 181.443115 
L 161.28 160.772235 
L 183.6 149.182179 
L 205.92 139.062433 
L 228.24 129.192126 
L 250.56 123.021423 
L 272.88 119.910492 
L 295.2 114.082565 
L 317.52 111.305882 
L 339.84 110.259732 
L 362.16 107.24431 
L 384.48 106.239135 
L 406.8 105.499936 
L 429.12 104.081703 
L 451.44 102.788259 
L 473.76 101.985786 
L 496.08 101.086557 
L 518.4 100.683732 
" style="fill:none;stroke:#4ef3cd;stroke-linecap:square;"/>
   </g>
   <g id="line2d_21">
    <path clip-path="url(#peb80a49f47)" d="M 72 388.8 
L 94.32 276.384211 
L 116.64 223.713619 
L 138.96 202.374806 
L 161.28 193.141811 
L 183.6 188.632673 
L 205.92 188.320414 
L 228.24 184.732196 
L 250.56 183.987448 
L 272.88 183.256969 
L 295.2 182.519826 
L 317.52 181.764804 
L 339.84 181.02947 
L 362.16 180.287363 
L 384.48 179.545543 
L 406.8 178.802799 
L 429.12 178.062768 
L 451.44 177.318553 
L 473.76 176.579682 
L 496.08 175.833452 
L 518.4 175.097215 
" style="fill:none;stroke:#58f8c9;stroke-linecap:square;"/>
   </g>
   <g id="line2d_22">
    <path clip-path="url(#peb80a49f47)" d="M 72 388.8 
L 94.32 388.180101 
L 116.64 386.275056 
L 138.96 384.388368 
L 161.28 383.860265 
L 183.6 382.524356 
L 205.92 382.436876 
L 228.24 381.468152 
L 250.56 378.681862 
L 272.88 380.099842 
L 295.2 379.718613 
L 317.52 378.529578 
L 339.84 376.661251 
L 362.16 377.877277 
L 384.48 375.880436 
L 406.8 374.103905 
L 429.12 376.715236 
L 451.44 373.782073 
L 473.76 375.071535 
L 496.08 374.818823 
L 518.4 373.850099 
" style="fill:none;stroke:#64fbc3;stroke-linecap:square;"/>
   </g>
   <g id="line2d_23">
    <path clip-path="url(#peb80a49f47)" d="M 72 388.8 
L 94.32 269.029516 
L 116.64 185.150188 
L 138.96 150.901705 
L 161.28 132.38848 
L 183.6 120.140854 
L 205.92 113.478163 
L 228.24 108.154963 
L 250.56 104.170447 
L 272.88 100.180013 
L 295.2 96.194431 
L 317.52 92.203611 
L 339.84 88.211292 
L 362.16 84.234123 
L 384.48 80.225493 
L 406.8 76.262895 
L 429.12 72.294175 
L 451.44 68.284288 
L 473.76 64.305549 
L 496.08 60.32973 
L 518.4 56.336967 
" style="fill:none;stroke:#6efebe;stroke-linecap:square;"/>
   </g>
   <g id="line2d_24">
    <path clip-path="url(#peb80a49f47)" d="M 72 388.8 
L 94.32 323.268229 
L 116.64 282.766636 
L 138.96 253.092402 
L 161.28 227.611738 
L 183.6 210.484933 
L 205.92 199.112475 
L 228.24 194.681366 
L 250.56 183.688357 
L 272.88 175.925724 
L 295.2 170.19291 
L 317.52 168.390524 
L 339.84 162.396256 
L 362.16 160.087921 
L 384.48 157.706198 
L 406.8 153.618789 
L 429.12 154.52741 
L 451.44 149.891012 
L 473.76 150.3729 
L 496.08 146.535584 
L 518.4 147.610796 
" style="fill:none;stroke:#7affb7;stroke-linecap:square;"/>
   </g>
   <g id="line2d_25">
    <path clip-path="url(#peb80a49f47)" d="M 72 388.8 
L 94.32 238.566368 
L 116.64 175.528283 
L 138.96 155.630093 
L 161.28 141.457486 
L 183.6 137.569415 
L 205.92 132.819444 
L 228.24 130.011153 
L 250.56 127.206768 
L 272.88 124.425719 
L 295.2 121.623753 
L 317.52 118.804242 
L 339.84 116.008477 
L 362.16 113.220554 
L 384.48 110.415566 
L 406.8 107.633907 
L 429.12 104.836362 
L 451.44 102.036741 
L 473.76 99.215984 
L 496.08 96.432795 
L 518.4 93.625729 
" style="fill:none;stroke:#84ffb2;stroke-linecap:square;"/>
   </g>
   <g id="line2d_26">
    <path clip-path="url(#peb80a49f47)" d="M 72 388.8 
L 94.32 328.715542 
L 116.64 285.140598 
L 138.96 241.887932 
L 161.28 207.789525 
L 183.6 196.695567 
L 205.92 183.527498 
L 228.24 177.203846 
L 250.56 171.442294 
L 272.88 166.953906 
L 295.2 165.904729 
L 317.52 161.562531 
L 339.84 161.65425 
L 362.16 160.397485 
L 384.48 159.160361 
L 406.8 158.045168 
L 429.12 156.681549 
L 451.44 155.807706 
L 473.76 154.91849 
L 496.08 154.056126 
L 518.4 153.172202 
" style="fill:none;stroke:#90feab;stroke-linecap:square;"/>
   </g>
   <g id="line2d_27">
    <path clip-path="url(#peb80a49f47)" d="M 72 388.8 
L 94.32 280.736948 
L 116.64 224.158164 
L 138.96 189.654898 
L 161.28 179.927684 
L 183.6 172.143989 
L 205.92 166.416419 
L 228.24 166.233637 
L 250.56 162.718831 
L 272.88 161.844533 
L 295.2 160.954855 
L 317.52 160.081151 
L 339.84 159.201771 
L 362.16 158.321891 
L 384.48 157.438543 
L 406.8 156.562211 
L 429.12 155.675507 
L 451.44 154.805502 
L 473.76 153.916992 
L 496.08 153.055152 
L 518.4 152.170755 
" style="fill:none;stroke:#9bfba5;stroke-linecap:square;"/>
   </g>
   <g id="line2d_28">
    <path clip-path="url(#peb80a49f47)" d="M 72 388.8 
L 94.32 383.037 
L 116.64 379.0379 
L 138.96 373.668411 
L 161.28 368.335289 
L 183.6 362.399784 
L 205.92 358.50902 
L 228.24 354.877078 
L 250.56 350.005401 
L 272.88 345.04354 
L 295.2 340.844071 
L 317.52 336.503998 
L 339.84 334.521135 
L 362.16 330.097419 
L 384.48 325.960309 
L 406.8 321.626005 
L 429.12 319.201595 
L 451.44 313.516195 
L 473.76 311.112126 
L 496.08 310.89053 
L 518.4 306.100823 
" style="fill:none;stroke:#a6f89d;stroke-linecap:square;"/>
   </g>
   <g id="line2d_29">
    <path clip-path="url(#peb80a49f47)" d="M 72 388.8 
L 94.32 377.692366 
L 116.64 367.118206 
L 138.96 359.286511 
L 161.28 351.330691 
L 183.6 343.711816 
L 205.92 334.090253 
L 228.24 330.750039 
L 250.56 320.806332 
L 272.88 318.126236 
L 295.2 309.454886 
L 317.52 305.036746 
L 339.84 301.998186 
L 362.16 295.291362 
L 384.48 291.36292 
L 406.8 287.55003 
L 429.12 283.758538 
L 451.44 282.274955 
L 473.76 281.870268 
L 496.08 276.031601 
L 518.4 275.600856 
" style="fill:none;stroke:#b0f397;stroke-linecap:square;"/>
   </g>
   <g id="line2d_30">
    <path clip-path="url(#peb80a49f47)" d="M 72 388.8 
L 94.32 376.717914 
L 116.64 368.074006 
L 138.96 358.345589 
L 161.28 349.962751 
L 183.6 341.261526 
L 205.92 332.437211 
L 228.24 325.793622 
L 250.56 321.018541 
L 272.88 312.328479 
L 295.2 306.423145 
L 317.52 306.274658 
L 339.84 296.982845 
L 362.16 295.571521 
L 384.48 290.730959 
L 406.8 289.258662 
L 429.12 283.024786 
L 451.44 282.701034 
L 473.76 276.810673 
L 496.08 274.945068 
L 518.4 271.375275 
" style="fill:none;stroke:#bbee91;stroke-linecap:square;"/>
   </g>
   <g id="line2d_31">
    <path clip-path="url(#peb80a49f47)" d="M 72 388.8 
L 94.32 292.486181 
L 116.64 241.306242 
L 138.96 200.200702 
L 161.28 189.184526 
L 183.6 178.74787 
L 205.92 169.300292 
L 228.24 165.726401 
L 250.56 163.918337 
L 272.88 162.115642 
L 295.2 161.236814 
L 317.52 161.286279 
L 339.84 159.47872 
L 362.16 158.597368 
L 384.48 157.716133 
L 406.8 156.839796 
L 429.12 155.960968 
L 451.44 155.075469 
L 473.76 154.206021 
L 496.08 153.317626 
L 518.4 152.440416 
" style="fill:none;stroke:#c6e789;stroke-linecap:square;"/>
   </g>
   <g id="line2d_32">
    <path clip-path="url(#peb80a49f47)" d="M 72 388.8 
L 94.32 274.938089 
L 116.64 206.921415 
L 138.96 163.267775 
L 161.28 140.625088 
L 183.6 133.070625 
L 205.92 127.808577 
L 228.24 125.718815 
L 250.56 120.595008 
L 272.88 118.758722 
L 295.2 116.926223 
L 317.52 115.884725 
L 339.84 114.685177 
L 362.16 112.729987 
L 384.48 111.301767 
L 406.8 109.885604 
L 429.12 110.41646 
L 451.44 108.918266 
L 473.76 108.403289 
L 496.08 105.769402 
L 518.4 106.472596 
" style="fill:none;stroke:#d0e082;stroke-linecap:square;"/>
   </g>
   <g id="line2d_33">
    <path clip-path="url(#peb80a49f47)" d="M 72 388.8 
L 94.32 363.278778 
L 116.64 347.481992 
L 138.96 333.970269 
L 161.28 320.894725 
L 183.6 313.593677 
L 205.92 309.534477 
L 228.24 298.809329 
L 250.56 296.38339 
L 272.88 289.712444 
L 295.2 286.982057 
L 317.52 283.798529 
L 339.84 284.093313 
L 362.16 275.502952 
L 384.48 275.914589 
L 406.8 270.25858 
L 429.12 269.523498 
L 451.44 266.162472 
L 473.76 263.683452 
L 496.08 262.916404 
L 518.4 258.3784 
" style="fill:none;stroke:#dcd67a;stroke-linecap:square;"/>
   </g>
   <g id="line2d_34">
    <path clip-path="url(#peb80a49f47)" d="M 72 388.8 
L 94.32 386.642722 
L 116.64 384.620961 
L 138.96 382.744186 
L 161.28 381.307988 
L 183.6 379.812532 
L 205.92 378.383178 
L 228.24 376.875896 
L 250.56 375.091562 
L 272.88 374.24123 
L 295.2 373.927763 
L 317.52 371.582465 
L 339.84 370.519982 
L 362.16 368.212268 
L 384.48 368.112276 
L 406.8 365.920053 
L 429.12 366.086111 
L 451.44 363.349407 
L 473.76 363.294815 
L 496.08 361.907118 
L 518.4 360.784924 
" style="fill:none;stroke:#e6cd73;stroke-linecap:square;"/>
   </g>
   <g id="line2d_35">
    <path clip-path="url(#peb80a49f47)" d="M 72 388.8 
L 94.32 362.775055 
L 116.64 343.633662 
L 138.96 319.904782 
L 161.28 301.190369 
L 183.6 287.891019 
L 205.92 272.764446 
L 228.24 259.710016 
L 250.56 249.052674 
L 272.88 240.330483 
L 295.2 228.224969 
L 317.52 218.352095 
L 339.84 211.779153 
L 362.16 204.056283 
L 384.48 200.071422 
L 406.8 194.432293 
L 429.12 188.164459 
L 451.44 184.663445 
L 473.76 183.703912 
L 496.08 181.677967 
L 518.4 178.728067 
" style="fill:none;stroke:#f2c26b;stroke-linecap:square;"/>
   </g>
   <g id="line2d_36">
    <path clip-path="url(#peb80a49f47)" d="M 72 388.8 
L 94.32 376.030151 
L 116.64 368.533838 
L 138.96 358.214871 
L 161.28 353.363322 
L 183.6 342.299284 
L 205.92 333.925158 
L 228.24 327.95636 
L 250.56 325.713285 
L 272.88 318.437831 
L 295.2 315.022896 
L 317.52 308.579471 
L 339.84 304.732353 
L 362.16 302.207595 
L 384.48 301.301004 
L 406.8 298.871044 
L 429.12 293.276939 
L 451.44 290.820319 
L 473.76 289.241879 
L 496.08 287.08003 
L 518.4 284.833192 
" style="fill:none;stroke:#fcb763;stroke-linecap:square;"/>
   </g>
   <g id="line2d_37">
    <path clip-path="url(#peb80a49f47)" d="M 72 388.8 
L 94.32 380.160405 
L 116.64 373.846037 
L 138.96 366.660179 
L 161.28 360.081462 
L 183.6 352.777201 
L 205.92 347.572924 
L 228.24 341.977379 
L 250.56 332.626868 
L 272.88 330.716227 
L 295.2 321.64003 
L 317.52 323.163347 
L 339.84 314.692054 
L 362.16 312.442267 
L 384.48 308.842315 
L 406.8 305.804016 
L 429.12 300.803262 
L 451.44 297.818387 
L 473.76 295.942981 
L 496.08 298.703255 
L 518.4 293.00553 
" style="fill:none;stroke:#ffa95b;stroke-linecap:square;"/>
   </g>
   <g id="line2d_38">
    <path clip-path="url(#peb80a49f47)" d="M 72 388.8 
L 94.32 357.066795 
L 116.64 337.896921 
L 138.96 310.62266 
L 161.28 300.388758 
L 183.6 285.700872 
L 205.92 278.785716 
L 228.24 266.335803 
L 250.56 260.308178 
L 272.88 256.494151 
L 295.2 252.396494 
L 317.52 251.42567 
L 339.84 247.78364 
L 362.16 245.434845 
L 384.48 241.674281 
L 406.8 239.302521 
L 429.12 237.525803 
L 451.44 236.429569 
L 473.76 235.347205 
L 496.08 234.285731 
L 518.4 233.827354 
" style="fill:none;stroke:#ff9d53;stroke-linecap:square;"/>
   </g>
   <g id="line2d_39">
    <path clip-path="url(#peb80a49f47)" d="M 72 388.8 
L 94.32 381.055845 
L 116.64 374.717774 
L 138.96 367.887863 
L 161.28 361.787898 
L 183.6 355.653181 
L 205.92 349.186251 
L 228.24 342.859972 
L 250.56 335.938793 
L 272.88 329.749344 
L 295.2 324.041948 
L 317.52 316.898117 
L 339.84 311.391095 
L 362.16 306.616674 
L 384.48 300.20423 
L 406.8 293.676479 
L 429.12 287.903706 
L 451.44 284.066307 
L 473.76 278.885787 
L 496.08 272.260602 
L 518.4 268.527787 
" style="fill:none;stroke:#ff914c;stroke-linecap:square;"/>
   </g>
   <g id="line2d_40">
    <path clip-path="url(#peb80a49f47)" d="M 72 388.8 
L 94.32 343.166011 
L 116.64 319.133415 
L 138.96 293.282302 
L 161.28 275.385039 
L 183.6 257.710195 
L 205.92 255.285351 
L 228.24 241.411946 
L 250.56 240.586308 
L 272.88 231.022413 
L 295.2 228.077447 
L 317.52 222.948942 
L 339.84 220.477878 
L 362.16 219.303387 
L 384.48 215.157478 
L 406.8 213.849395 
L 429.12 211.82605 
L 451.44 212.523114 
L 473.76 209.993299 
L 496.08 209.891907 
L 518.4 206.797379 
" style="fill:none;stroke:#ff8143;stroke-linecap:square;"/>
   </g>
   <g id="line2d_41">
    <path clip-path="url(#peb80a49f47)" d="M 72 388.8 
L 94.32 387.573304 
L 116.64 386.345553 
L 138.96 385.11792 
L 161.28 383.89167 
L 183.6 382.667433 
L 205.92 381.437772 
L 228.24 380.210059 
L 250.56 378.986444 
L 272.88 377.75566 
L 295.2 376.525914 
L 317.52 375.299851 
L 339.84 374.075146 
L 362.16 372.846984 
L 384.48 371.614278 
L 406.8 370.387431 
L 429.12 369.161785 
L 451.44 367.946116 
L 473.76 366.710658 
L 496.08 365.475642 
L 518.4 364.258206 
" style="fill:none;stroke:#ff733b;stroke-linecap:square;"/>
   </g>
   <g id="line2d_42">
    <path clip-path="url(#peb80a49f47)" d="M 72 388.8 
L 94.32 382.116166 
L 116.64 375.720663 
L 138.96 371.171027 
L 161.28 368.161912 
L 183.6 364.91816 
L 205.92 360.640391 
L 228.24 356.987595 
L 250.56 354.61411 
L 272.88 352.803125 
L 295.2 349.517846 
L 317.52 346.284869 
L 339.84 345.428476 
L 362.16 342.058082 
L 384.48 339.458253 
L 406.8 339.000916 
L 429.12 336.607936 
L 451.44 332.371936 
L 473.76 330.320262 
L 496.08 329.470346 
L 518.4 327.318907 
" style="fill:none;stroke:#ff6232;stroke-linecap:square;"/>
   </g>
   <g id="line2d_43">
    <path clip-path="url(#peb80a49f47)" d="M 72 388.8 
L 94.32 372.955831 
L 116.64 360.176324 
L 138.96 345.72448 
L 161.28 335.547256 
L 183.6 330.041107 
L 205.92 320.18946 
L 228.24 311.961732 
L 250.56 300.758418 
L 272.88 295.921653 
L 295.2 291.231349 
L 317.52 286.526677 
L 339.84 284.429502 
L 362.16 283.080764 
L 384.48 277.131157 
L 406.8 273.675995 
L 429.12 270.517312 
L 451.44 270.146388 
L 473.76 266.125978 
L 496.08 262.295049 
L 518.4 259.495275 
" style="fill:none;stroke:#ff532a;stroke-linecap:square;"/>
   </g>
   <g id="line2d_44">
    <path clip-path="url(#peb80a49f47)" d="M 72 388.8 
L 94.32 362.427873 
L 116.64 339.595941 
L 138.96 316.254351 
L 161.28 296.542689 
L 183.6 279.642365 
L 205.92 265.89587 
L 228.24 255.300311 
L 250.56 234.329408 
L 272.88 229.276236 
L 295.2 219.165081 
L 317.52 210.546664 
L 339.84 203.554558 
L 362.16 196.911971 
L 384.48 191.0322 
L 406.8 187.434686 
L 429.12 179.812806 
L 451.44 178.243871 
L 473.76 172.587478 
L 496.08 171.921168 
L 518.4 168.58999 
" style="fill:none;stroke:#ff4121;stroke-linecap:square;"/>
   </g>
   <g id="line2d_45">
    <path clip-path="url(#peb80a49f47)" d="M 72 388.8 
L 94.32 244.101532 
L 116.64 192.179715 
L 138.96 186.767344 
L 161.28 175.520487 
L 183.6 170.935157 
L 205.92 169.056966 
L 228.24 167.209757 
L 250.56 165.322542 
L 272.88 163.459001 
L 295.2 161.578251 
L 317.52 159.712892 
L 339.84 157.854009 
L 362.16 155.968546 
L 384.48 154.107688 
L 406.8 152.211758 
L 429.12 150.354227 
L 451.44 148.495904 
L 473.76 146.614799 
L 496.08 144.752959 
L 518.4 142.871486 
" style="fill:none;stroke:#ff3219;stroke-linecap:square;"/>
   </g>
   <g id="line2d_46">
    <path clip-path="url(#peb80a49f47)" d="M 72 388.8 
L 94.32 320.747891 
L 116.64 287.905537 
L 138.96 248.466275 
L 161.28 235.401456 
L 183.6 219.672434 
L 205.92 210.195109 
L 228.24 201.588007 
L 250.56 194.965298 
L 272.88 185.787824 
L 295.2 179.132199 
L 317.52 173.852249 
L 339.84 167.557887 
L 362.16 161.122267 
L 384.48 156.943281 
L 406.8 148.86053 
L 429.12 145.117138 
L 451.44 140.491607 
L 473.76 135.928192 
L 496.08 130.947058 
L 518.4 125.876066 
" style="fill:none;stroke:#ff1f10;stroke-linecap:square;"/>
   </g>
   <g id="line2d_47">
    <path clip-path="url(#peb80a49f47)" d="M 72 388.8 
L 94.32 339.1097 
L 116.64 311.994111 
L 138.96 289.985689 
L 161.28 278.077859 
L 183.6 266.745 
L 205.92 258.86866 
L 228.24 251.731144 
L 250.56 248.176369 
L 272.88 245.423367 
L 295.2 240.43321 
L 317.52 236.464587 
L 339.84 232.531636 
L 362.16 228.756368 
L 384.48 226.553967 
L 406.8 222.375991 
L 429.12 219.140496 
L 451.44 214.929005 
L 473.76 212.230289 
L 496.08 210.888614 
L 518.4 206.747703 
" style="fill:none;stroke:#ff1008;stroke-linecap:square;"/>
   </g>
   <g id="line2d_48">
    <path clip-path="url(#peb80a49f47)" d="M 72 388.8 
L 94.32 370.334482 
L 116.64 353.883844 
L 138.96 339.71761 
L 161.28 325.029801 
L 183.6 311.381708 
L 205.92 294.401927 
L 228.24 282.91029 
L 250.56 268.135171 
L 272.88 257.709514 
L 295.2 245.340763 
L 317.52 231.481447 
L 339.84 222.258044 
L 362.16 215.861491 
L 384.48 207.093587 
L 406.8 203.261129 
L 429.12 189.212539 
L 451.44 181.692945 
L 473.76 178.37133 
L 496.08 171.280038 
L 518.4 166.156662 
" style="fill:none;stroke:#ff0000;stroke-linecap:square;"/>
   </g>
   <g id="patch_3">
    <path d="M 72 388.8 
L 72 43.2 
" style="fill:none;stroke:#000000;stroke-linecap:square;stroke-linejoin:miter;"/>
   </g>
   <g id="patch_4">
    <path d="M 72 388.8 
L 518.4 388.8 
" style="fill:none;stroke:#000000;stroke-linecap:square;stroke-linejoin:miter;"/>
   </g>
   <g id="patch_5">
    <path d="M 518.4 388.8 
L 518.4 43.2 
" style="fill:none;stroke:#000000;stroke-linecap:square;stroke-linejoin:miter;"/>
   </g>
   <g id="patch_6">
    <path d="M 72 43.2 
L 518.4 43.2 
" style="fill:none;stroke:#000000;stroke-linecap:square;stroke-linejoin:miter;"/>
   </g>
   <g id="matplotlib.axis_1">
    <g id="xtick_1">
     <g id="line2d_49">
      <defs>
       <path d="M 0 0 
L 0 -4 
" id="mb62cbd0bab" style="stroke:#000000;stroke-width:0.5;"/>
      </defs>
      <g>
       <use style="stroke:#000000;stroke-width:0.5;" x="72.0" xlink:href="#mb62cbd0bab" y="388.8"/>
      </g>
     </g>
     <g id="line2d_50">
      <defs>
       <path d="M 0 0 
L 0 4 
" id="m96bb4978e3" style="stroke:#000000;stroke-width:0.5;"/>
      </defs>
      <g>
       <use style="stroke:#000000;stroke-width:0.5;" x="72.0" xlink:href="#m96bb4978e3" y="43.2"/>
      </g>
     </g>
     <g id="text_1">
      <!-- 0 -->
      <defs>
       <path d="M 31.78125 66.40625 
Q 24.171875 66.40625 20.328125 58.90625 
Q 16.5 51.421875 16.5 36.375 
Q 16.5 21.390625 20.328125 13.890625 
Q 24.171875 6.390625 31.78125 6.390625 
Q 39.453125 6.390625 43.28125 13.890625 
Q 47.125 21.390625 47.125 36.375 
Q 47.125 51.421875 43.28125 58.90625 
Q 39.453125 66.40625 31.78125 66.40625 
M 31.78125 74.21875 
Q 44.046875 74.21875 50.515625 64.515625 
Q 56.984375 54.828125 56.984375 36.375 
Q 56.984375 17.96875 50.515625 8.265625 
Q 44.046875 -1.421875 31.78125 -1.421875 
Q 19.53125 -1.421875 13.0625 8.265625 
Q 6.59375 17.96875 6.59375 36.375 
Q 6.59375 54.828125 13.0625 64.515625 
Q 19.53125 74.21875 31.78125 74.21875 
" id="BitstreamVeraSans-Roman-30"/>
      </defs>
      <g transform="translate(68.1825 401.918125)scale(0.12 -0.12)">
       <use xlink:href="#BitstreamVeraSans-Roman-30"/>
      </g>
     </g>
    </g>
    <g id="xtick_2">
     <g id="line2d_51">
      <g>
       <use style="stroke:#000000;stroke-width:0.5;" x="183.6" xlink:href="#mb62cbd0bab" y="388.8"/>
      </g>
     </g>
     <g id="line2d_52">
      <g>
       <use style="stroke:#000000;stroke-width:0.5;" x="183.6" xlink:href="#m96bb4978e3" y="43.2"/>
      </g>
     </g>
     <g id="text_2">
      <!-- 5 -->
      <defs>
       <path d="M 10.796875 72.90625 
L 49.515625 72.90625 
L 49.515625 64.59375 
L 19.828125 64.59375 
L 19.828125 46.734375 
Q 21.96875 47.46875 24.109375 47.828125 
Q 26.265625 48.1875 28.421875 48.1875 
Q 40.625 48.1875 47.75 41.5 
Q 54.890625 34.8125 54.890625 23.390625 
Q 54.890625 11.625 47.5625 5.09375 
Q 40.234375 -1.421875 26.90625 -1.421875 
Q 22.3125 -1.421875 17.546875 -0.640625 
Q 12.796875 0.140625 7.71875 1.703125 
L 7.71875 11.625 
Q 12.109375 9.234375 16.796875 8.0625 
Q 21.484375 6.890625 26.703125 6.890625 
Q 35.15625 6.890625 40.078125 11.328125 
Q 45.015625 15.765625 45.015625 23.390625 
Q 45.015625 31 40.078125 35.4375 
Q 35.15625 39.890625 26.703125 39.890625 
Q 22.75 39.890625 18.8125 39.015625 
Q 14.890625 38.140625 10.796875 36.28125 
z
" id="BitstreamVeraSans-Roman-35"/>
      </defs>
      <g transform="translate(179.7825 401.918125)scale(0.12 -0.12)">
       <use xlink:href="#BitstreamVeraSans-Roman-35"/>
      </g>
     </g>
    </g>
    <g id="xtick_3">
     <g id="line2d_53">
      <g>
       <use style="stroke:#000000;stroke-width:0.5;" x="295.2" xlink:href="#mb62cbd0bab" y="388.8"/>
      </g>
     </g>
     <g id="line2d_54">
      <g>
       <use style="stroke:#000000;stroke-width:0.5;" x="295.2" xlink:href="#m96bb4978e3" y="43.2"/>
      </g>
     </g>
     <g id="text_3">
      <!-- 10 -->
      <defs>
       <path d="M 12.40625 8.296875 
L 28.515625 8.296875 
L 28.515625 63.921875 
L 10.984375 60.40625 
L 10.984375 69.390625 
L 28.421875 72.90625 
L 38.28125 72.90625 
L 38.28125 8.296875 
L 54.390625 8.296875 
L 54.390625 0 
L 12.40625 0 
z
" id="BitstreamVeraSans-Roman-31"/>
      </defs>
      <g transform="translate(287.565 401.918125)scale(0.12 -0.12)">
       <use xlink:href="#BitstreamVeraSans-Roman-31"/>
       <use x="63.623046875" xlink:href="#BitstreamVeraSans-Roman-30"/>
      </g>
     </g>
    </g>
    <g id="xtick_4">
     <g id="line2d_55">
      <g>
       <use style="stroke:#000000;stroke-width:0.5;" x="406.8" xlink:href="#mb62cbd0bab" y="388.8"/>
      </g>
     </g>
     <g id="line2d_56">
      <g>
       <use style="stroke:#000000;stroke-width:0.5;" x="406.8" xlink:href="#m96bb4978e3" y="43.2"/>
      </g>
     </g>
     <g id="text_4">
      <!-- 15 -->
      <g transform="translate(399.165 401.918125)scale(0.12 -0.12)">
       <use xlink:href="#BitstreamVeraSans-Roman-31"/>
       <use x="63.623046875" xlink:href="#BitstreamVeraSans-Roman-35"/>
      </g>
     </g>
    </g>
    <g id="xtick_5">
     <g id="line2d_57">
      <g>
       <use style="stroke:#000000;stroke-width:0.5;" x="518.4" xlink:href="#mb62cbd0bab" y="388.8"/>
      </g>
     </g>
     <g id="line2d_58">
      <g>
       <use style="stroke:#000000;stroke-width:0.5;" x="518.4" xlink:href="#m96bb4978e3" y="43.2"/>
      </g>
     </g>
     <g id="text_5">
      <!-- 20 -->
      <defs>
       <path d="M 19.1875 8.296875 
L 53.609375 8.296875 
L 53.609375 0 
L 7.328125 0 
L 7.328125 8.296875 
Q 12.9375 14.109375 22.625 23.890625 
Q 32.328125 33.6875 34.8125 36.53125 
Q 39.546875 41.84375 41.421875 45.53125 
Q 43.3125 49.21875 43.3125 52.78125 
Q 43.3125 58.59375 39.234375 62.25 
Q 35.15625 65.921875 28.609375 65.921875 
Q 23.96875 65.921875 18.8125 64.3125 
Q 13.671875 62.703125 7.8125 59.421875 
L 7.8125 69.390625 
Q 13.765625 71.78125 18.9375 73 
Q 24.125 74.21875 28.421875 74.21875 
Q 39.75 74.21875 46.484375 68.546875 
Q 53.21875 62.890625 53.21875 53.421875 
Q 53.21875 48.921875 51.53125 44.890625 
Q 49.859375 40.875 45.40625 35.40625 
Q 44.1875 33.984375 37.640625 27.21875 
Q 31.109375 20.453125 19.1875 8.296875 
" id="BitstreamVeraSans-Roman-32"/>
      </defs>
      <g transform="translate(510.765 401.918125)scale(0.12 -0.12)">
       <use xlink:href="#BitstreamVeraSans-Roman-32"/>
       <use x="63.623046875" xlink:href="#BitstreamVeraSans-Roman-30"/>
      </g>
     </g>
    </g>
    <g id="text_6">
     <!-- amount of different corrections -->
     <defs>
      <path d="M 54.890625 33.015625 
L 54.890625 0 
L 45.90625 0 
L 45.90625 32.71875 
Q 45.90625 40.484375 42.875 44.328125 
Q 39.84375 48.1875 33.796875 48.1875 
Q 26.515625 48.1875 22.3125 43.546875 
Q 18.109375 38.921875 18.109375 30.90625 
L 18.109375 0 
L 9.078125 0 
L 9.078125 54.6875 
L 18.109375 54.6875 
L 18.109375 46.1875 
Q 21.34375 51.125 25.703125 53.5625 
Q 30.078125 56 35.796875 56 
Q 45.21875 56 50.046875 50.171875 
Q 54.890625 44.34375 54.890625 33.015625 
" id="BitstreamVeraSans-Roman-6e"/>
      <path d="M 52 44.1875 
Q 55.375 50.25 60.0625 53.125 
Q 64.75 56 71.09375 56 
Q 79.640625 56 84.28125 50.015625 
Q 88.921875 44.046875 88.921875 33.015625 
L 88.921875 0 
L 79.890625 0 
L 79.890625 32.71875 
Q 79.890625 40.578125 77.09375 44.375 
Q 74.3125 48.1875 68.609375 48.1875 
Q 61.625 48.1875 57.5625 43.546875 
Q 53.515625 38.921875 53.515625 30.90625 
L 53.515625 0 
L 44.484375 0 
L 44.484375 32.71875 
Q 44.484375 40.625 41.703125 44.40625 
Q 38.921875 48.1875 33.109375 48.1875 
Q 26.21875 48.1875 22.15625 43.53125 
Q 18.109375 38.875 18.109375 30.90625 
L 18.109375 0 
L 9.078125 0 
L 9.078125 54.6875 
L 18.109375 54.6875 
L 18.109375 46.1875 
Q 21.1875 51.21875 25.484375 53.609375 
Q 29.78125 56 35.6875 56 
Q 41.65625 56 45.828125 52.96875 
Q 50 49.953125 52 44.1875 
" id="BitstreamVeraSans-Roman-6d"/>
      <path d="M 41.109375 46.296875 
Q 39.59375 47.171875 37.8125 47.578125 
Q 36.03125 48 33.890625 48 
Q 26.265625 48 22.1875 43.046875 
Q 18.109375 38.09375 18.109375 28.8125 
L 18.109375 0 
L 9.078125 0 
L 9.078125 54.6875 
L 18.109375 54.6875 
L 18.109375 46.1875 
Q 20.953125 51.171875 25.484375 53.578125 
Q 30.03125 56 36.53125 56 
Q 37.453125 56 38.578125 55.875 
Q 39.703125 55.765625 41.0625 55.515625 
z
" id="BitstreamVeraSans-Roman-72"/>
      <path d="M 9.421875 54.6875 
L 18.40625 54.6875 
L 18.40625 0 
L 9.421875 0 
z
M 9.421875 75.984375 
L 18.40625 75.984375 
L 18.40625 64.59375 
L 9.421875 64.59375 
z
" id="BitstreamVeraSans-Roman-69"/>
      <path id="BitstreamVeraSans-Roman-20"/>
      <path d="M 18.3125 70.21875 
L 18.3125 54.6875 
L 36.8125 54.6875 
L 36.8125 47.703125 
L 18.3125 47.703125 
L 18.3125 18.015625 
Q 18.3125 11.328125 20.140625 9.421875 
Q 21.96875 7.515625 27.59375 7.515625 
L 36.8125 7.515625 
L 36.8125 0 
L 27.59375 0 
Q 17.1875 0 13.234375 3.875 
Q 9.28125 7.765625 9.28125 18.015625 
L 9.28125 47.703125 
L 2.6875 47.703125 
L 2.6875 54.6875 
L 9.28125 54.6875 
L 9.28125 70.21875 
z
" id="BitstreamVeraSans-Roman-74"/>
      <path d="M 30.609375 48.390625 
Q 23.390625 48.390625 19.1875 42.75 
Q 14.984375 37.109375 14.984375 27.296875 
Q 14.984375 17.484375 19.15625 11.84375 
Q 23.34375 6.203125 30.609375 6.203125 
Q 37.796875 6.203125 41.984375 11.859375 
Q 46.1875 17.53125 46.1875 27.296875 
Q 46.1875 37.015625 41.984375 42.703125 
Q 37.796875 48.390625 30.609375 48.390625 
M 30.609375 56 
Q 42.328125 56 49.015625 48.375 
Q 55.71875 40.765625 55.71875 27.296875 
Q 55.71875 13.875 49.015625 6.21875 
Q 42.328125 -1.421875 30.609375 -1.421875 
Q 18.84375 -1.421875 12.171875 6.21875 
Q 5.515625 13.875 5.515625 27.296875 
Q 5.515625 40.765625 12.171875 48.375 
Q 18.84375 56 30.609375 56 
" id="BitstreamVeraSans-Roman-6f"/>
      <path d="M 45.40625 46.390625 
L 45.40625 75.984375 
L 54.390625 75.984375 
L 54.390625 0 
L 45.40625 0 
L 45.40625 8.203125 
Q 42.578125 3.328125 38.25 0.953125 
Q 33.9375 -1.421875 27.875 -1.421875 
Q 17.96875 -1.421875 11.734375 6.484375 
Q 5.515625 14.40625 5.515625 27.296875 
Q 5.515625 40.1875 11.734375 48.09375 
Q 17.96875 56 27.875 56 
Q 33.9375 56 38.25 53.625 
Q 42.578125 51.265625 45.40625 46.390625 
M 14.796875 27.296875 
Q 14.796875 17.390625 18.875 11.75 
Q 22.953125 6.109375 30.078125 6.109375 
Q 37.203125 6.109375 41.296875 11.75 
Q 45.40625 17.390625 45.40625 27.296875 
Q 45.40625 37.203125 41.296875 42.84375 
Q 37.203125 48.484375 30.078125 48.484375 
Q 22.953125 48.484375 18.875 42.84375 
Q 14.796875 37.203125 14.796875 27.296875 
" id="BitstreamVeraSans-Roman-64"/>
      <path d="M 48.78125 52.59375 
L 48.78125 44.1875 
Q 44.96875 46.296875 41.140625 47.34375 
Q 37.3125 48.390625 33.40625 48.390625 
Q 24.65625 48.390625 19.8125 42.84375 
Q 14.984375 37.3125 14.984375 27.296875 
Q 14.984375 17.28125 19.8125 11.734375 
Q 24.65625 6.203125 33.40625 6.203125 
Q 37.3125 6.203125 41.140625 7.25 
Q 44.96875 8.296875 48.78125 10.40625 
L 48.78125 2.09375 
Q 45.015625 0.34375 40.984375 -0.53125 
Q 36.96875 -1.421875 32.421875 -1.421875 
Q 20.0625 -1.421875 12.78125 6.34375 
Q 5.515625 14.109375 5.515625 27.296875 
Q 5.515625 40.671875 12.859375 48.328125 
Q 20.21875 56 33.015625 56 
Q 37.15625 56 41.109375 55.140625 
Q 45.0625 54.296875 48.78125 52.59375 
" id="BitstreamVeraSans-Roman-63"/>
      <path d="M 34.28125 27.484375 
Q 23.390625 27.484375 19.1875 25 
Q 14.984375 22.515625 14.984375 16.5 
Q 14.984375 11.71875 18.140625 8.90625 
Q 21.296875 6.109375 26.703125 6.109375 
Q 34.1875 6.109375 38.703125 11.40625 
Q 43.21875 16.703125 43.21875 25.484375 
L 43.21875 27.484375 
z
M 52.203125 31.203125 
L 52.203125 0 
L 43.21875 0 
L 43.21875 8.296875 
Q 40.140625 3.328125 35.546875 0.953125 
Q 30.953125 -1.421875 24.3125 -1.421875 
Q 15.921875 -1.421875 10.953125 3.296875 
Q 6 8.015625 6 15.921875 
Q 6 25.140625 12.171875 29.828125 
Q 18.359375 34.515625 30.609375 34.515625 
L 43.21875 34.515625 
L 43.21875 35.40625 
Q 43.21875 41.609375 39.140625 45 
Q 35.0625 48.390625 27.6875 48.390625 
Q 23 48.390625 18.546875 47.265625 
Q 14.109375 46.140625 10.015625 43.890625 
L 10.015625 52.203125 
Q 14.9375 54.109375 19.578125 55.046875 
Q 24.21875 56 28.609375 56 
Q 40.484375 56 46.34375 49.84375 
Q 52.203125 43.703125 52.203125 31.203125 
" id="BitstreamVeraSans-Roman-61"/>
      <path d="M 8.5 21.578125 
L 8.5 54.6875 
L 17.484375 54.6875 
L 17.484375 21.921875 
Q 17.484375 14.15625 20.5 10.265625 
Q 23.53125 6.390625 29.59375 6.390625 
Q 36.859375 6.390625 41.078125 11.03125 
Q 45.3125 15.671875 45.3125 23.6875 
L 45.3125 54.6875 
L 54.296875 54.6875 
L 54.296875 0 
L 45.3125 0 
L 45.3125 8.40625 
Q 42.046875 3.421875 37.71875 1 
Q 33.40625 -1.421875 27.6875 -1.421875 
Q 18.265625 -1.421875 13.375 4.4375 
Q 8.5 10.296875 8.5 21.578125 
" id="BitstreamVeraSans-Roman-75"/>
      <path d="M 44.28125 53.078125 
L 44.28125 44.578125 
Q 40.484375 46.53125 36.375 47.5 
Q 32.28125 48.484375 27.875 48.484375 
Q 21.1875 48.484375 17.84375 46.4375 
Q 14.5 44.390625 14.5 40.28125 
Q 14.5 37.15625 16.890625 35.375 
Q 19.28125 33.59375 26.515625 31.984375 
L 29.59375 31.296875 
Q 39.15625 29.25 43.1875 25.515625 
Q 47.21875 21.78125 47.21875 15.09375 
Q 47.21875 7.46875 41.1875 3.015625 
Q 35.15625 -1.421875 24.609375 -1.421875 
Q 20.21875 -1.421875 15.453125 -0.5625 
Q 10.6875 0.296875 5.421875 2 
L 5.421875 11.28125 
Q 10.40625 8.6875 15.234375 7.390625 
Q 20.0625 6.109375 24.8125 6.109375 
Q 31.15625 6.109375 34.5625 8.28125 
Q 37.984375 10.453125 37.984375 14.40625 
Q 37.984375 18.0625 35.515625 20.015625 
Q 33.0625 21.96875 24.703125 23.78125 
L 21.578125 24.515625 
Q 13.234375 26.265625 9.515625 29.90625 
Q 5.8125 33.546875 5.8125 39.890625 
Q 5.8125 47.609375 11.28125 51.796875 
Q 16.75 56 26.8125 56 
Q 31.78125 56 36.171875 55.265625 
Q 40.578125 54.546875 44.28125 53.078125 
" id="BitstreamVeraSans-Roman-73"/>
      <path d="M 37.109375 75.984375 
L 37.109375 68.5 
L 28.515625 68.5 
Q 23.6875 68.5 21.796875 66.546875 
Q 19.921875 64.59375 19.921875 59.515625 
L 19.921875 54.6875 
L 34.71875 54.6875 
L 34.71875 47.703125 
L 19.921875 47.703125 
L 19.921875 0 
L 10.890625 0 
L 10.890625 47.703125 
L 2.296875 47.703125 
L 2.296875 54.6875 
L 10.890625 54.6875 
L 10.890625 58.5 
Q 10.890625 67.625 15.140625 71.796875 
Q 19.390625 75.984375 28.609375 75.984375 
z
" id="BitstreamVeraSans-Roman-66"/>
      <path d="M 56.203125 29.59375 
L 56.203125 25.203125 
L 14.890625 25.203125 
Q 15.484375 15.921875 20.484375 11.0625 
Q 25.484375 6.203125 34.421875 6.203125 
Q 39.59375 6.203125 44.453125 7.46875 
Q 49.3125 8.734375 54.109375 11.28125 
L 54.109375 2.78125 
Q 49.265625 0.734375 44.1875 -0.34375 
Q 39.109375 -1.421875 33.890625 -1.421875 
Q 20.796875 -1.421875 13.15625 6.1875 
Q 5.515625 13.8125 5.515625 26.8125 
Q 5.515625 40.234375 12.765625 48.109375 
Q 20.015625 56 32.328125 56 
Q 43.359375 56 49.78125 48.890625 
Q 56.203125 41.796875 56.203125 29.59375 
M 47.21875 32.234375 
Q 47.125 39.59375 43.09375 43.984375 
Q 39.0625 48.390625 32.421875 48.390625 
Q 24.90625 48.390625 20.390625 44.140625 
Q 15.875 39.890625 15.1875 32.171875 
z
" id="BitstreamVeraSans-Roman-65"/>
     </defs>
     <g transform="translate(201.3328125 418.531875)scale(0.12 -0.12)">
      <use xlink:href="#BitstreamVeraSans-Roman-61"/>
      <use x="61.279296875" xlink:href="#BitstreamVeraSans-Roman-6d"/>
      <use x="158.69140625" xlink:href="#BitstreamVeraSans-Roman-6f"/>
      <use x="219.873046875" xlink:href="#BitstreamVeraSans-Roman-75"/>
      <use x="283.251953125" xlink:href="#BitstreamVeraSans-Roman-6e"/>
      <use x="346.630859375" xlink:href="#BitstreamVeraSans-Roman-74"/>
      <use x="385.83984375" xlink:href="#BitstreamVeraSans-Roman-20"/>
      <use x="417.626953125" xlink:href="#BitstreamVeraSans-Roman-6f"/>
      <use x="478.80859375" xlink:href="#BitstreamVeraSans-Roman-66"/>
      <use x="514.013671875" xlink:href="#BitstreamVeraSans-Roman-20"/>
      <use x="545.80078125" xlink:href="#BitstreamVeraSans-Roman-64"/>
      <use x="609.27734375" xlink:href="#BitstreamVeraSans-Roman-69"/>
      <use x="637.060546875" xlink:href="#BitstreamVeraSans-Roman-66"/>
      <use x="672.265625" xlink:href="#BitstreamVeraSans-Roman-66"/>
      <use x="707.470703125" xlink:href="#BitstreamVeraSans-Roman-65"/>
      <use x="768.994140625" xlink:href="#BitstreamVeraSans-Roman-72"/>
      <use x="810.076171875" xlink:href="#BitstreamVeraSans-Roman-65"/>
      <use x="871.599609375" xlink:href="#BitstreamVeraSans-Roman-6e"/>
      <use x="934.978515625" xlink:href="#BitstreamVeraSans-Roman-74"/>
      <use x="974.1875" xlink:href="#BitstreamVeraSans-Roman-20"/>
      <use x="1005.974609375" xlink:href="#BitstreamVeraSans-Roman-63"/>
      <use x="1060.955078125" xlink:href="#BitstreamVeraSans-Roman-6f"/>
      <use x="1122.13671875" xlink:href="#BitstreamVeraSans-Roman-72"/>
      <use x="1163.234375" xlink:href="#BitstreamVeraSans-Roman-72"/>
      <use x="1204.31640625" xlink:href="#BitstreamVeraSans-Roman-65"/>
      <use x="1265.83984375" xlink:href="#BitstreamVeraSans-Roman-63"/>
      <use x="1320.8203125" xlink:href="#BitstreamVeraSans-Roman-74"/>
      <use x="1360.029296875" xlink:href="#BitstreamVeraSans-Roman-69"/>
      <use x="1387.8125" xlink:href="#BitstreamVeraSans-Roman-6f"/>
      <use x="1448.994140625" xlink:href="#BitstreamVeraSans-Roman-6e"/>
      <use x="1512.373046875" xlink:href="#BitstreamVeraSans-Roman-73"/>
     </g>
    </g>
   </g>
   <g id="matplotlib.axis_2">
    <g id="ytick_1">
     <g id="line2d_59">
      <defs>
       <path d="M 0 0 
L 4 0 
" id="m0d68397f56" style="stroke:#000000;stroke-width:0.5;"/>
      </defs>
      <g>
       <use style="stroke:#000000;stroke-width:0.5;" x="72.0" xlink:href="#m0d68397f56" y="388.8"/>
      </g>
     </g>
     <g id="line2d_60">
      <defs>
       <path d="M 0 0 
L -4 0 
" id="mbf8d6ea0a0" style="stroke:#000000;stroke-width:0.5;"/>
      </defs>
      <g>
       <use style="stroke:#000000;stroke-width:0.5;" x="518.4" xlink:href="#mbf8d6ea0a0" y="388.8"/>
      </g>
     </g>
     <g id="text_7">
      <!-- 0.0 -->
      <defs>
       <path d="M 10.6875 12.40625 
L 21 12.40625 
L 21 0 
L 10.6875 0 
z
" id="BitstreamVeraSans-Roman-2e"/>
      </defs>
      <g transform="translate(48.91625 392.11125)scale(0.12 -0.12)">
       <use xlink:href="#BitstreamVeraSans-Roman-30"/>
       <use x="63.623046875" xlink:href="#BitstreamVeraSans-Roman-2e"/>
       <use x="95.41015625" xlink:href="#BitstreamVeraSans-Roman-30"/>
      </g>
     </g>
    </g>
    <g id="ytick_2">
     <g id="line2d_61">
      <g>
       <use style="stroke:#000000;stroke-width:0.5;" x="72.0" xlink:href="#m0d68397f56" y="319.68"/>
      </g>
     </g>
     <g id="line2d_62">
      <g>
       <use style="stroke:#000000;stroke-width:0.5;" x="518.4" xlink:href="#mbf8d6ea0a0" y="319.68"/>
      </g>
     </g>
     <g id="text_8">
      <!-- 0.2 -->
      <g transform="translate(48.91625 322.99125)scale(0.12 -0.12)">
       <use xlink:href="#BitstreamVeraSans-Roman-30"/>
       <use x="63.623046875" xlink:href="#BitstreamVeraSans-Roman-2e"/>
       <use x="95.41015625" xlink:href="#BitstreamVeraSans-Roman-32"/>
      </g>
     </g>
    </g>
    <g id="ytick_3">
     <g id="line2d_63">
      <g>
       <use style="stroke:#000000;stroke-width:0.5;" x="72.0" xlink:href="#m0d68397f56" y="250.56"/>
      </g>
     </g>
     <g id="line2d_64">
      <g>
       <use style="stroke:#000000;stroke-width:0.5;" x="518.4" xlink:href="#mbf8d6ea0a0" y="250.56"/>
      </g>
     </g>
     <g id="text_9">
      <!-- 0.4 -->
      <defs>
       <path d="M 37.796875 64.3125 
L 12.890625 25.390625 
L 37.796875 25.390625 
z
M 35.203125 72.90625 
L 47.609375 72.90625 
L 47.609375 25.390625 
L 58.015625 25.390625 
L 58.015625 17.1875 
L 47.609375 17.1875 
L 47.609375 0 
L 37.796875 0 
L 37.796875 17.1875 
L 4.890625 17.1875 
L 4.890625 26.703125 
z
" id="BitstreamVeraSans-Roman-34"/>
      </defs>
      <g transform="translate(48.91625 253.87125)scale(0.12 -0.12)">
       <use xlink:href="#BitstreamVeraSans-Roman-30"/>
       <use x="63.623046875" xlink:href="#BitstreamVeraSans-Roman-2e"/>
       <use x="95.41015625" xlink:href="#BitstreamVeraSans-Roman-34"/>
      </g>
     </g>
    </g>
    <g id="ytick_4">
     <g id="line2d_65">
      <g>
       <use style="stroke:#000000;stroke-width:0.5;" x="72.0" xlink:href="#m0d68397f56" y="181.44"/>
      </g>
     </g>
     <g id="line2d_66">
      <g>
       <use style="stroke:#000000;stroke-width:0.5;" x="518.4" xlink:href="#mbf8d6ea0a0" y="181.44"/>
      </g>
     </g>
     <g id="text_10">
      <!-- 0.6 -->
      <defs>
       <path d="M 33.015625 40.375 
Q 26.375 40.375 22.484375 35.828125 
Q 18.609375 31.296875 18.609375 23.390625 
Q 18.609375 15.53125 22.484375 10.953125 
Q 26.375 6.390625 33.015625 6.390625 
Q 39.65625 6.390625 43.53125 10.953125 
Q 47.40625 15.53125 47.40625 23.390625 
Q 47.40625 31.296875 43.53125 35.828125 
Q 39.65625 40.375 33.015625 40.375 
M 52.59375 71.296875 
L 52.59375 62.3125 
Q 48.875 64.0625 45.09375 64.984375 
Q 41.3125 65.921875 37.59375 65.921875 
Q 27.828125 65.921875 22.671875 59.328125 
Q 17.53125 52.734375 16.796875 39.40625 
Q 19.671875 43.65625 24.015625 45.921875 
Q 28.375 48.1875 33.59375 48.1875 
Q 44.578125 48.1875 50.953125 41.515625 
Q 57.328125 34.859375 57.328125 23.390625 
Q 57.328125 12.15625 50.6875 5.359375 
Q 44.046875 -1.421875 33.015625 -1.421875 
Q 20.359375 -1.421875 13.671875 8.265625 
Q 6.984375 17.96875 6.984375 36.375 
Q 6.984375 53.65625 15.1875 63.9375 
Q 23.390625 74.21875 37.203125 74.21875 
Q 40.921875 74.21875 44.703125 73.484375 
Q 48.484375 72.75 52.59375 71.296875 
" id="BitstreamVeraSans-Roman-36"/>
      </defs>
      <g transform="translate(48.91625 184.75125)scale(0.12 -0.12)">
       <use xlink:href="#BitstreamVeraSans-Roman-30"/>
       <use x="63.623046875" xlink:href="#BitstreamVeraSans-Roman-2e"/>
       <use x="95.41015625" xlink:href="#BitstreamVeraSans-Roman-36"/>
      </g>
     </g>
    </g>
    <g id="ytick_5">
     <g id="line2d_67">
      <g>
       <use style="stroke:#000000;stroke-width:0.5;" x="72.0" xlink:href="#m0d68397f56" y="112.32"/>
      </g>
     </g>
     <g id="line2d_68">
      <g>
       <use style="stroke:#000000;stroke-width:0.5;" x="518.4" xlink:href="#mbf8d6ea0a0" y="112.32"/>
      </g>
     </g>
     <g id="text_11">
      <!-- 0.8 -->
      <defs>
       <path d="M 31.78125 34.625 
Q 24.75 34.625 20.71875 30.859375 
Q 16.703125 27.09375 16.703125 20.515625 
Q 16.703125 13.921875 20.71875 10.15625 
Q 24.75 6.390625 31.78125 6.390625 
Q 38.8125 6.390625 42.859375 10.171875 
Q 46.921875 13.96875 46.921875 20.515625 
Q 46.921875 27.09375 42.890625 30.859375 
Q 38.875 34.625 31.78125 34.625 
M 21.921875 38.8125 
Q 15.578125 40.375 12.03125 44.71875 
Q 8.5 49.078125 8.5 55.328125 
Q 8.5 64.0625 14.71875 69.140625 
Q 20.953125 74.21875 31.78125 74.21875 
Q 42.671875 74.21875 48.875 69.140625 
Q 55.078125 64.0625 55.078125 55.328125 
Q 55.078125 49.078125 51.53125 44.71875 
Q 48 40.375 41.703125 38.8125 
Q 48.828125 37.15625 52.796875 32.3125 
Q 56.78125 27.484375 56.78125 20.515625 
Q 56.78125 9.90625 50.3125 4.234375 
Q 43.84375 -1.421875 31.78125 -1.421875 
Q 19.734375 -1.421875 13.25 4.234375 
Q 6.78125 9.90625 6.78125 20.515625 
Q 6.78125 27.484375 10.78125 32.3125 
Q 14.796875 37.15625 21.921875 38.8125 
M 18.3125 54.390625 
Q 18.3125 48.734375 21.84375 45.5625 
Q 25.390625 42.390625 31.78125 42.390625 
Q 38.140625 42.390625 41.71875 45.5625 
Q 45.3125 48.734375 45.3125 54.390625 
Q 45.3125 60.0625 41.71875 63.234375 
Q 38.140625 66.40625 31.78125 66.40625 
Q 25.390625 66.40625 21.84375 63.234375 
Q 18.3125 60.0625 18.3125 54.390625 
" id="BitstreamVeraSans-Roman-38"/>
      </defs>
      <g transform="translate(48.91625 115.63125)scale(0.12 -0.12)">
       <use xlink:href="#BitstreamVeraSans-Roman-30"/>
       <use x="63.623046875" xlink:href="#BitstreamVeraSans-Roman-2e"/>
       <use x="95.41015625" xlink:href="#BitstreamVeraSans-Roman-38"/>
      </g>
     </g>
    </g>
    <g id="ytick_6">
     <g id="line2d_69">
      <g>
       <use style="stroke:#000000;stroke-width:0.5;" x="72.0" xlink:href="#m0d68397f56" y="43.2"/>
      </g>
     </g>
     <g id="line2d_70">
      <g>
       <use style="stroke:#000000;stroke-width:0.5;" x="518.4" xlink:href="#mbf8d6ea0a0" y="43.2"/>
      </g>
     </g>
     <g id="text_12">
      <!-- 1.0 -->
      <g transform="translate(48.91625 46.51125)scale(0.12 -0.12)">
       <use xlink:href="#BitstreamVeraSans-Roman-31"/>
       <use x="63.623046875" xlink:href="#BitstreamVeraSans-Roman-2e"/>
       <use x="95.41015625" xlink:href="#BitstreamVeraSans-Roman-30"/>
      </g>
     </g>
    </g>
    <g id="text_13">
     <!-- Mean coverage -->
     <defs>
      <path d="M 9.8125 72.90625 
L 24.515625 72.90625 
L 43.109375 23.296875 
L 61.8125 72.90625 
L 76.515625 72.90625 
L 76.515625 0 
L 66.890625 0 
L 66.890625 64.015625 
L 48.09375 14.015625 
L 38.1875 14.015625 
L 19.390625 64.015625 
L 19.390625 0 
L 9.8125 0 
z
" id="BitstreamVeraSans-Roman-4d"/>
      <path d="M 2.984375 54.6875 
L 12.5 54.6875 
L 29.59375 8.796875 
L 46.6875 54.6875 
L 56.203125 54.6875 
L 35.6875 0 
L 23.484375 0 
z
" id="BitstreamVeraSans-Roman-76"/>
      <path d="M 45.40625 27.984375 
Q 45.40625 37.75 41.375 43.109375 
Q 37.359375 48.484375 30.078125 48.484375 
Q 22.859375 48.484375 18.828125 43.109375 
Q 14.796875 37.75 14.796875 27.984375 
Q 14.796875 18.265625 18.828125 12.890625 
Q 22.859375 7.515625 30.078125 7.515625 
Q 37.359375 7.515625 41.375 12.890625 
Q 45.40625 18.265625 45.40625 27.984375 
M 54.390625 6.78125 
Q 54.390625 -7.171875 48.1875 -13.984375 
Q 42 -20.796875 29.203125 -20.796875 
Q 24.46875 -20.796875 20.265625 -20.09375 
Q 16.0625 -19.390625 12.109375 -17.921875 
L 12.109375 -9.1875 
Q 16.0625 -11.328125 19.921875 -12.34375 
Q 23.78125 -13.375 27.78125 -13.375 
Q 36.625 -13.375 41.015625 -8.765625 
Q 45.40625 -4.15625 45.40625 5.171875 
L 45.40625 9.625 
Q 42.625 4.78125 38.28125 2.390625 
Q 33.9375 0 27.875 0 
Q 17.828125 0 11.671875 7.65625 
Q 5.515625 15.328125 5.515625 27.984375 
Q 5.515625 40.671875 11.671875 48.328125 
Q 17.828125 56 27.875 56 
Q 33.9375 56 38.28125 53.609375 
Q 42.625 51.21875 45.40625 46.390625 
L 45.40625 54.6875 
L 54.390625 54.6875 
z
" id="BitstreamVeraSans-Roman-67"/>
     </defs>
     <g transform="translate(41.420625 262.1128125)rotate(-90.0)scale(0.12 -0.12)">
      <use xlink:href="#BitstreamVeraSans-Roman-4d"/>
      <use x="86.279296875" xlink:href="#BitstreamVeraSans-Roman-65"/>
      <use x="147.802734375" xlink:href="#BitstreamVeraSans-Roman-61"/>
      <use x="209.08203125" xlink:href="#BitstreamVeraSans-Roman-6e"/>
      <use x="272.4609375" xlink:href="#BitstreamVeraSans-Roman-20"/>
      <use x="304.248046875" xlink:href="#BitstreamVeraSans-Roman-63"/>
      <use x="359.228515625" xlink:href="#BitstreamVeraSans-Roman-6f"/>
      <use x="420.41015625" xlink:href="#BitstreamVeraSans-Roman-76"/>
      <use x="479.58984375" xlink:href="#BitstreamVeraSans-Roman-65"/>
      <use x="541.11328125" xlink:href="#BitstreamVeraSans-Roman-72"/>
      <use x="582.2265625" xlink:href="#BitstreamVeraSans-Roman-61"/>
      <use x="643.505859375" xlink:href="#BitstreamVeraSans-Roman-67"/>
      <use x="706.982421875" xlink:href="#BitstreamVeraSans-Roman-65"/>
     </g>
    </g>
   </g>
   <g id="text_14">
    <!-- Mean coverage of different amount of corrections -->
    <g transform="translate(115.707375 22.07515)scale(0.144 -0.144)">
     <use xlink:href="#BitstreamVeraSans-Roman-4d"/>
     <use x="86.279296875" xlink:href="#BitstreamVeraSans-Roman-65"/>
     <use x="147.802734375" xlink:href="#BitstreamVeraSans-Roman-61"/>
     <use x="209.08203125" xlink:href="#BitstreamVeraSans-Roman-6e"/>
     <use x="272.4609375" xlink:href="#BitstreamVeraSans-Roman-20"/>
     <use x="304.248046875" xlink:href="#BitstreamVeraSans-Roman-63"/>
     <use x="359.228515625" xlink:href="#BitstreamVeraSans-Roman-6f"/>
     <use x="420.41015625" xlink:href="#BitstreamVeraSans-Roman-76"/>
     <use x="479.58984375" xlink:href="#BitstreamVeraSans-Roman-65"/>
     <use x="541.11328125" xlink:href="#BitstreamVeraSans-Roman-72"/>
     <use x="582.2265625" xlink:href="#BitstreamVeraSans-Roman-61"/>
     <use x="643.505859375" xlink:href="#BitstreamVeraSans-Roman-67"/>
     <use x="706.982421875" xlink:href="#BitstreamVeraSans-Roman-65"/>
     <use x="768.505859375" xlink:href="#BitstreamVeraSans-Roman-20"/>
     <use x="800.29296875" xlink:href="#BitstreamVeraSans-Roman-6f"/>
     <use x="861.474609375" xlink:href="#BitstreamVeraSans-Roman-66"/>
     <use x="896.6796875" xlink:href="#BitstreamVeraSans-Roman-20"/>
     <use x="928.466796875" xlink:href="#BitstreamVeraSans-Roman-64"/>
     <use x="991.943359375" xlink:href="#BitstreamVeraSans-Roman-69"/>
     <use x="1019.7265625" xlink:href="#BitstreamVeraSans-Roman-66"/>
     <use x="1054.931640625" xlink:href="#BitstreamVeraSans-Roman-66"/>
     <use x="1090.13671875" xlink:href="#BitstreamVeraSans-Roman-65"/>
     <use x="1151.66015625" xlink:href="#BitstreamVeraSans-Roman-72"/>
     <use x="1192.7421875" xlink:href="#BitstreamVeraSans-Roman-65"/>
     <use x="1254.265625" xlink:href="#BitstreamVeraSans-Roman-6e"/>
     <use x="1317.64453125" xlink:href="#BitstreamVeraSans-Roman-74"/>
     <use x="1356.853515625" xlink:href="#BitstreamVeraSans-Roman-20"/>
     <use x="1388.640625" xlink:href="#BitstreamVeraSans-Roman-61"/>
     <use x="1449.919921875" xlink:href="#BitstreamVeraSans-Roman-6d"/>
     <use x="1547.33203125" xlink:href="#BitstreamVeraSans-Roman-6f"/>
     <use x="1608.513671875" xlink:href="#BitstreamVeraSans-Roman-75"/>
     <use x="1671.892578125" xlink:href="#BitstreamVeraSans-Roman-6e"/>
     <use x="1735.271484375" xlink:href="#BitstreamVeraSans-Roman-74"/>
     <use x="1774.48046875" xlink:href="#BitstreamVeraSans-Roman-20"/>
     <use x="1806.267578125" xlink:href="#BitstreamVeraSans-Roman-6f"/>
     <use x="1867.44921875" xlink:href="#BitstreamVeraSans-Roman-66"/>
     <use x="1902.654296875" xlink:href="#BitstreamVeraSans-Roman-20"/>
     <use x="1934.44140625" xlink:href="#BitstreamVeraSans-Roman-63"/>
     <use x="1989.421875" xlink:href="#BitstreamVeraSans-Roman-6f"/>
     <use x="2050.603515625" xlink:href="#BitstreamVeraSans-Roman-72"/>
     <use x="2091.701171875" xlink:href="#BitstreamVeraSans-Roman-72"/>
     <use x="2132.783203125" xlink:href="#BitstreamVeraSans-Roman-65"/>
     <use x="2194.306640625" xlink:href="#BitstreamVeraSans-Roman-63"/>
     <use x="2249.287109375" xlink:href="#BitstreamVeraSans-Roman-74"/>
     <use x="2288.49609375" xlink:href="#BitstreamVeraSans-Roman-69"/>
     <use x="2316.279296875" xlink:href="#BitstreamVeraSans-Roman-6f"/>
     <use x="2377.4609375" xlink:href="#BitstreamVeraSans-Roman-6e"/>
     <use x="2440.83984375" xlink:href="#BitstreamVeraSans-Roman-73"/>
    </g>
    <!-- using exact comparison -->
    <defs>
     <path d="M 54.890625 54.6875 
L 35.109375 28.078125 
L 55.90625 0 
L 45.3125 0 
L 29.390625 21.484375 
L 13.484375 0 
L 2.875 0 
L 24.125 28.609375 
L 4.6875 54.6875 
L 15.28125 54.6875 
L 29.78125 35.203125 
L 44.28125 54.6875 
z
" id="BitstreamVeraSans-Roman-78"/>
     <path d="M 18.109375 8.203125 
L 18.109375 -20.796875 
L 9.078125 -20.796875 
L 9.078125 54.6875 
L 18.109375 54.6875 
L 18.109375 46.390625 
Q 20.953125 51.265625 25.265625 53.625 
Q 29.59375 56 35.59375 56 
Q 45.5625 56 51.78125 48.09375 
Q 58.015625 40.1875 58.015625 27.296875 
Q 58.015625 14.40625 51.78125 6.484375 
Q 45.5625 -1.421875 35.59375 -1.421875 
Q 29.59375 -1.421875 25.265625 0.953125 
Q 20.953125 3.328125 18.109375 8.203125 
M 48.6875 27.296875 
Q 48.6875 37.203125 44.609375 42.84375 
Q 40.53125 48.484375 33.40625 48.484375 
Q 26.265625 48.484375 22.1875 42.84375 
Q 18.109375 37.203125 18.109375 27.296875 
Q 18.109375 17.390625 22.1875 11.75 
Q 26.265625 6.109375 33.40625 6.109375 
Q 40.53125 6.109375 44.609375 11.75 
Q 48.6875 17.390625 48.6875 27.296875 
" id="BitstreamVeraSans-Roman-70"/>
    </defs>
    <g transform="translate(209.251125 38.2)scale(0.144 -0.144)">
     <use xlink:href="#BitstreamVeraSans-Roman-75"/>
     <use x="63.37890625" xlink:href="#BitstreamVeraSans-Roman-73"/>
     <use x="115.478515625" xlink:href="#BitstreamVeraSans-Roman-69"/>
     <use x="143.26171875" xlink:href="#BitstreamVeraSans-Roman-6e"/>
     <use x="206.640625" xlink:href="#BitstreamVeraSans-Roman-67"/>
     <use x="270.1171875" xlink:href="#BitstreamVeraSans-Roman-20"/>
     <use x="301.904296875" xlink:href="#BitstreamVeraSans-Roman-65"/>
     <use x="363.412109375" xlink:href="#BitstreamVeraSans-Roman-78"/>
     <use x="422.591796875" xlink:href="#BitstreamVeraSans-Roman-61"/>
     <use x="483.87109375" xlink:href="#BitstreamVeraSans-Roman-63"/>
     <use x="538.8515625" xlink:href="#BitstreamVeraSans-Roman-74"/>
     <use x="578.060546875" xlink:href="#BitstreamVeraSans-Roman-20"/>
     <use x="609.84765625" xlink:href="#BitstreamVeraSans-Roman-63"/>
     <use x="664.828125" xlink:href="#BitstreamVeraSans-Roman-6f"/>
     <use x="726.009765625" xlink:href="#BitstreamVeraSans-Roman-6d"/>
     <use x="823.421875" xlink:href="#BitstreamVeraSans-Roman-70"/>
     <use x="886.8984375" xlink:href="#BitstreamVeraSans-Roman-61"/>
     <use x="948.177734375" xlink:href="#BitstreamVeraSans-Roman-72"/>
     <use x="989.291015625" xlink:href="#BitstreamVeraSans-Roman-69"/>
     <use x="1017.07421875" xlink:href="#BitstreamVeraSans-Roman-73"/>
     <use x="1069.173828125" xlink:href="#BitstreamVeraSans-Roman-6f"/>
     <use x="1130.35546875" xlink:href="#BitstreamVeraSans-Roman-6e"/>
    </g>
   </g>
  </g>
 </g>
 <defs>
  <clipPath id="peb80a49f47">
   <rect height="345.6" width="446.4" x="72.0" y="43.2"/>
  </clipPath>
 </defs>
</svg>
