<?xml version="1.0" encoding="utf-8" standalone="no"?>
<!DOCTYPE svg PUBLIC "-//W3C//DTD SVG 1.1//EN"
  "http://www.w3.org/Graphics/SVG/1.1/DTD/svg11.dtd">
<!-- Created with matplotlib (http://matplotlib.org/) -->
<svg height="432pt" version="1.1" viewBox="0 0 576 432" width="576pt" xmlns="http://www.w3.org/2000/svg" xmlns:xlink="http://www.w3.org/1999/xlink">
 <defs>
  <style type="text/css">
*{stroke-linecap:butt;stroke-linejoin:round;stroke-miterlimit:100000;}
  </style>
 </defs>
 <g id="figure_1">
  <g id="patch_1">
   <path d="M 0 432 
L 576 432 
L 576 0 
L 0 0 
z
" style="fill:#ffffff;"/>
  </g>
  <g id="axes_1">
   <g id="patch_2">
    <path d="M 72 388.8 
L 518.4 388.8 
L 518.4 43.2 
L 72 43.2 
z
" style="fill:#ffffff;"/>
   </g>
   <g id="line2d_1">
    <path clip-path="url(#p14b0437cee)" d="M 72 319.361969 
L 80.928 316.484549 
L 89.856 304.363946 
L 98.784 273.003386 
L 107.712 217.973941 
L 116.64 150.758097 
L 125.568 97.051629 
L 134.496 80.365074 
L 143.424 105.644719 
L 152.352 158.014833 
L 161.28 215.356651 
L 170.208 261.637977 
L 179.136 291.633795 
L 188.064 307.840168 
L 196.992 315.292186 
L 205.92 318.246866 
L 214.848 319.266147 
L 223.776 319.574065 
L 232.704 319.655915 
L 241.632 319.675129 
L 250.56 319.679123 
L 259.488 319.679859 
L 268.416 319.67998 
L 277.344 319.679997 
L 286.272 319.68 
L 295.2 319.68 
L 304.128 319.68 
L 313.056 319.68 
L 321.984 319.68 
L 330.912 319.68 
L 339.84 319.68 
L 348.768 319.68 
L 357.696 319.68 
L 366.624 319.68 
L 375.552 319.68 
L 384.48 319.68 
L 393.408 319.68 
L 402.336 319.68 
L 411.264 319.68 
L 420.192 319.68 
L 429.12 319.68 
L 438.048 319.68 
L 446.976 319.68 
L 455.904 319.68 
L 464.832 319.68 
L 473.76 319.68 
L 482.688 319.68 
L 491.616 319.68 
L 500.544 319.68 
" style="fill:none;stroke:#8000ff;stroke-linecap:square;"/>
   </g>
   <g id="line2d_2">
    <path clip-path="url(#p14b0437cee)" d="M 72 319.678928 
L 80.928 319.659456 
L 89.856 319.492613 
L 98.784 318.595986 
L 107.712 315.207137 
L 116.64 305.644457 
L 125.568 284.808857 
L 134.496 249.167259 
L 143.424 201.296044 
L 152.352 152.164204 
L 161.28 117.565725 
L 170.208 109.834859 
L 179.136 130.813245 
L 188.064 171.443518 
L 196.992 217.725074 
L 205.92 257.986484 
L 214.848 286.730025 
L 223.776 304.106279 
L 232.704 313.152336 
L 241.632 317.249728 
L 250.56 318.875354 
L 259.488 319.442882 
L 268.416 319.61778 
L 277.344 319.66546 
L 286.272 319.676975 
L 295.2 319.67944 
L 304.128 319.679908 
L 313.056 319.679987 
L 321.984 319.679998 
L 330.912 319.68 
L 339.84 319.68 
L 348.768 319.68 
L 357.696 319.68 
L 366.624 319.68 
L 375.552 319.68 
L 384.48 319.68 
L 393.408 319.68 
L 402.336 319.68 
L 411.264 319.68 
L 420.192 319.68 
L 429.12 319.68 
L 438.048 319.68 
L 446.976 319.68 
L 455.904 319.68 
L 464.832 319.68 
L 473.76 319.68 
L 482.688 319.68 
L 491.616 319.68 
L 500.544 319.68 
" style="fill:none;stroke:#6629fe;stroke-linecap:square;"/>
   </g>
   <g id="line2d_3">
    <path clip-path="url(#p14b0437cee)" d="M 72 319.679984 
L 80.928 319.679563 
L 89.856 319.674412 
L 98.784 319.634601 
L 107.712 319.41656 
L 116.64 318.515928 
L 125.568 315.602356 
L 134.496 308.04097 
L 143.424 292.065167 
L 152.352 264.397895 
L 161.28 225.214847 
L 170.208 180.628239 
L 179.136 142.062461 
L 188.064 121.626434 
L 196.992 125.960308 
L 205.92 152.808761 
L 214.848 192.677934 
L 223.776 234.055285 
L 232.704 268.434705 
L 241.632 292.410266 
L 250.56 306.761724 
L 259.488 314.227644 
L 268.416 317.628721 
L 277.344 318.992009 
L 286.272 319.474329 
L 295.2 319.625227 
L 304.128 319.667017 
L 313.056 319.677264 
L 321.984 319.679488 
L 330.912 319.679915 
L 339.84 319.679988 
L 348.768 319.679998 
L 357.696 319.68 
L 366.624 319.68 
L 375.552 319.68 
L 384.48 319.68 
L 393.408 319.68 
L 402.336 319.68 
L 411.264 319.68 
L 420.192 319.68 
L 429.12 319.68 
L 438.048 319.68 
L 446.976 319.68 
L 455.904 319.68 
L 464.832 319.68 
L 473.76 319.68 
L 482.688 319.68 
L 491.616 319.68 
L 500.544 319.68 
" style="fill:none;stroke:#4c50fc;stroke-linecap:square;"/>
   </g>
   <g id="line2d_4">
    <path clip-path="url(#p14b0437cee)" d="M 72 319.679999 
L 80.928 319.67998 
L 89.856 319.679676 
L 98.784 319.676723 
L 107.712 319.656301 
L 116.64 319.549158 
L 125.568 319.106049 
L 134.496 317.624146 
L 143.424 313.54689 
L 152.352 304.213741 
L 161.28 286.330827 
L 170.208 257.634935 
L 179.136 219.358146 
L 188.064 177.874773 
L 196.992 143.618114 
L 205.92 126.927493 
L 214.848 133.013886 
L 223.776 159.368487 
L 232.704 197.339036 
L 241.632 236.587749 
L 250.56 269.396627 
L 259.488 292.547293 
L 268.416 306.620006 
L 277.344 314.072052 
L 286.272 317.53235 
L 295.2 318.946894 
L 304.128 319.457149 
L 313.056 319.61975 
L 321.984 319.665536 
L 330.912 319.676923 
L 339.84 319.679421 
L 348.768 319.679904 
L 357.696 319.679986 
L 366.624 319.679998 
L 375.552 319.68 
L 384.48 319.68 
L 393.408 319.68 
L 402.336 319.68 
L 411.264 319.68 
L 420.192 319.68 
L 429.12 319.68 
L 438.048 319.68 
L 446.976 319.68 
L 455.904 319.68 
L 464.832 319.68 
L 473.76 319.68 
L 482.688 319.68 
L 491.616 319.68 
L 500.544 319.68 
" style="fill:none;stroke:#3079f7;stroke-linecap:square;"/>
   </g>
   <g id="line2d_5">
    <path clip-path="url(#p14b0437cee)" d="M 72 319.68 
L 80.928 319.679998 
L 89.856 319.679959 
L 98.784 319.679527 
L 107.712 319.676063 
L 116.64 319.654969 
L 125.568 319.553352 
L 134.496 319.155933 
L 143.424 317.8711 
L 152.352 314.394126 
L 161.28 306.452953 
L 170.208 291.079672 
L 179.136 265.855935 
L 188.064 231.002468 
L 196.992 191.168314 
L 205.92 155.227236 
L 214.848 133.269188 
L 223.776 132.038813 
L 232.704 151.614137 
L 241.632 185.529686 
L 250.56 224.147354 
L 259.488 258.93886 
L 268.416 285.185086 
L 277.344 302.18185 
L 286.272 311.753606 
L 295.2 316.475611 
L 304.128 318.524962 
L 313.056 319.309256 
L 321.984 319.574205 
L 330.912 319.653215 
L 339.84 319.673998 
L 348.768 319.678813 
L 357.696 319.679794 
L 366.624 319.679969 
L 375.552 319.679996 
L 384.48 319.68 
L 393.408 319.68 
L 402.336 319.68 
L 411.264 319.68 
L 420.192 319.68 
L 429.12 319.68 
L 438.048 319.68 
L 446.976 319.68 
L 455.904 319.68 
L 464.832 319.68 
L 473.76 319.68 
L 482.688 319.68 
L 491.616 319.68 
L 500.544 319.68 
" style="fill:none;stroke:#169bf2;stroke-linecap:square;"/>
   </g>
   <g id="line2d_6">
    <path clip-path="url(#p14b0437cee)" d="M 72 319.68 
L 80.928 319.68 
L 89.856 319.679992 
L 98.784 319.679898 
L 107.712 319.679064 
L 116.64 319.673409 
L 125.568 319.643021 
L 134.496 319.51014 
L 143.424 319.028439 
L 152.352 317.561738 
L 161.28 313.776106 
L 170.208 305.445083 
L 179.136 289.773248 
L 188.064 264.609211 
L 196.992 230.374719 
L 205.92 191.647491 
L 214.848 156.893483 
L 223.776 135.656419 
L 232.704 134.344507 
L 241.632 153.129271 
L 250.56 185.980212 
L 259.488 223.730927 
L 268.416 258.098026 
L 277.344 284.329096 
L 286.272 301.53441 
L 295.2 311.356349 
L 304.128 316.270944 
L 313.056 318.434945 
L 321.984 319.275166 
L 330.912 319.563042 
L 339.84 319.65005 
L 348.768 319.673222 
L 357.696 319.678649 
L 366.624 319.679764 
L 375.552 319.679964 
L 384.48 319.679995 
L 393.408 319.679999 
L 402.336 319.68 
L 411.264 319.68 
L 420.192 319.68 
L 429.12 319.68 
L 438.048 319.68 
L 446.976 319.68 
L 455.904 319.68 
L 464.832 319.68 
L 473.76 319.68 
L 482.688 319.68 
L 491.616 319.68 
L 500.544 319.68 
" style="fill:none;stroke:#07bbea;stroke-linecap:square;"/>
   </g>
   <g id="line2d_7">
    <path clip-path="url(#p14b0437cee)" d="M 72 319.68 
L 80.928 319.68 
L 89.856 319.679998 
L 98.784 319.679976 
L 107.712 319.679757 
L 116.64 319.678134 
L 125.568 319.668565 
L 134.496 319.622537 
L 143.424 319.438556 
L 152.352 318.819057 
L 161.28 317.044724 
L 170.208 312.693035 
L 179.136 303.517987 
L 188.064 286.872011 
L 196.992 260.958069 
L 205.92 226.647547 
L 214.848 188.808991 
L 223.776 155.801083 
L 232.704 136.642073 
L 241.632 137.052839 
L 250.56 156.718408 
L 259.488 189.535078 
L 268.416 226.619362 
L 277.344 260.09568 
L 286.272 285.528091 
L 295.2 302.166811 
L 304.128 311.6523 
L 313.056 316.394859 
L 321.984 318.481715 
L 330.912 319.291181 
L 339.84 319.568038 
L 348.768 319.651471 
L 357.696 319.673589 
L 366.624 319.678735 
L 375.552 319.679782 
L 384.48 319.679967 
L 393.408 319.679996 
L 402.336 319.68 
L 411.264 319.68 
L 420.192 319.68 
L 429.12 319.68 
L 438.048 319.68 
L 446.976 319.68 
L 455.904 319.68 
L 464.832 319.68 
L 473.76 319.68 
L 482.688 319.68 
L 491.616 319.68 
L 500.544 319.68 
" style="fill:none;stroke:#20d5e1;stroke-linecap:square;"/>
   </g>
   <g id="line2d_8">
    <path clip-path="url(#p14b0437cee)" d="M 72 319.68 
L 80.928 319.68 
L 89.856 319.679999 
L 98.784 319.679992 
L 107.712 319.679916 
L 116.64 319.679309 
L 125.568 319.675482 
L 134.496 319.655747 
L 143.424 319.571036 
L 152.352 319.264123 
L 161.28 318.316112 
L 170.208 315.80175 
L 179.136 310.049065 
L 188.064 298.670932 
L 196.992 279.231124 
L 205.92 250.681432 
L 214.848 215.072197 
L 223.776 178.371387 
L 232.704 149.262122 
L 241.632 135.914212 
L 250.56 142.302277 
L 259.488 166.31121 
L 268.416 200.844851 
L 277.344 237.162761 
L 286.272 268.344535 
L 295.2 291.084027 
L 304.128 305.430272 
L 313.056 313.33582 
L 321.984 317.160529 
L 330.912 318.789284 
L 339.84 319.400352 
L 348.768 319.602255 
L 357.696 319.660926 
L 366.624 319.675887 
L 375.552 319.679224 
L 384.48 319.679873 
L 393.408 319.679982 
L 402.336 319.679998 
L 411.264 319.68 
L 420.192 319.68 
L 429.12 319.68 
L 438.048 319.68 
L 446.976 319.68 
L 455.904 319.68 
L 464.832 319.68 
L 473.76 319.68 
L 482.688 319.68 
L 491.616 319.68 
L 500.544 319.68 
" style="fill:none;stroke:#3dead5;stroke-linecap:square;"/>
   </g>
   <g id="line2d_9">
    <path clip-path="url(#p14b0437cee)" d="M 72 319.68 
L 80.928 319.68 
L 89.856 319.68 
L 98.784 319.679997 
L 107.712 319.679965 
L 116.64 319.6797 
L 125.568 319.677931 
L 134.496 319.668286 
L 143.424 319.624461 
L 152.352 319.45617 
L 161.28 318.904356 
L 170.208 317.347878 
L 179.136 313.551886 
L 188.064 305.524406 
L 196.992 290.798524 
L 205.92 267.430607 
L 214.848 235.602965 
L 223.776 199.036361 
L 232.704 165.00169 
L 241.632 142.212789 
L 250.56 137.266765 
L 259.488 151.580785 
L 268.416 180.743985 
L 277.344 216.682409 
L 286.272 251.212518 
L 295.2 278.892369 
L 304.128 297.924999 
L 313.056 309.304025 
L 321.984 315.2619 
L 330.912 318.003861 
L 339.84 319.114802 
L 348.768 319.51109 
L 357.696 319.635415 
L 366.624 319.669647 
L 375.552 319.677895 
L 384.48 319.679627 
L 393.408 319.679943 
L 402.336 319.679992 
L 411.264 319.679999 
L 420.192 319.68 
L 429.12 319.68 
L 438.048 319.68 
L 446.976 319.68 
L 455.904 319.68 
L 464.832 319.68 
L 473.76 319.68 
L 482.688 319.68 
L 491.616 319.68 
L 500.544 319.68 
" style="fill:none;stroke:#56f7ca;stroke-linecap:square;"/>
   </g>
   <g id="line2d_10">
    <path clip-path="url(#p14b0437cee)" d="M 72 319.68 
L 80.928 319.68 
L 89.856 319.68 
L 98.784 319.679999 
L 107.712 319.679984 
L 116.64 319.679859 
L 125.568 319.678985 
L 134.496 319.673979 
L 143.424 319.650075 
L 152.352 319.553498 
L 161.28 319.219919 
L 170.208 318.227313 
L 179.136 315.668962 
L 188.064 309.938368 
L 196.992 298.769434 
L 205.92 279.856074 
L 214.848 252.175125 
L 223.776 217.576484 
L 232.704 181.599256 
L 241.632 152.461723 
L 250.56 138.13504 
L 259.488 142.847463 
L 268.416 165.085947 
L 277.344 198.367359 
L 286.272 234.253779 
L 295.2 265.729222 
L 304.128 289.149517 
L 313.056 304.218168 
L 321.984 312.683395 
L 330.912 316.856712 
L 339.84 318.666495 
L 348.768 319.357254 
L 357.696 319.589136 
L 366.624 319.657473 
L 375.552 319.675105 
L 384.48 319.679073 
L 393.408 319.679848 
L 402.336 319.679979 
L 411.264 319.679997 
L 420.192 319.68 
L 429.12 319.68 
L 438.048 319.68 
L 446.976 319.68 
L 455.904 319.68 
L 464.832 319.68 
L 473.76 319.68 
L 482.688 319.68 
L 491.616 319.68 
L 500.544 319.68 
" style="fill:none;stroke:#72febb;stroke-linecap:square;"/>
   </g>
   <g id="line2d_11">
    <path clip-path="url(#p14b0437cee)" d="M 72 319.68 
L 80.928 319.68 
L 89.856 319.68 
L 98.784 319.679999 
L 107.712 319.679993 
L 116.64 319.679932 
L 125.568 319.679489 
L 134.496 319.676836 
L 143.424 319.663578 
L 152.352 319.607459 
L 161.28 319.404137 
L 170.208 318.768639 
L 179.136 317.045367 
L 188.064 312.976152 
L 196.992 304.594128 
L 205.92 289.540022 
L 214.848 266.049796 
L 223.776 234.473843 
L 232.704 198.564586 
L 241.632 165.415542 
L 250.56 143.416629 
L 259.488 138.872602 
L 268.416 153.107093 
L 277.344 181.845399 
L 286.272 217.263606 
L 295.2 251.384683 
L 304.128 278.844757 
L 313.056 297.813974 
L 321.984 309.210877 
L 330.912 315.206905 
L 339.84 317.978483 
L 348.768 319.105394 
L 357.696 319.508304 
L 366.624 319.634783 
L 375.552 319.669553 
L 384.48 319.677894 
L 393.408 319.679632 
L 402.336 319.679945 
L 411.264 319.679993 
L 420.192 319.679999 
L 429.12 319.68 
L 438.048 319.68 
L 446.976 319.68 
L 455.904 319.68 
L 464.832 319.68 
L 473.76 319.68 
L 482.688 319.68 
L 491.616 319.68 
L 500.544 319.68 
" style="fill:none;stroke:#8cfead;stroke-linecap:square;"/>
   </g>
   <g id="line2d_12">
    <path clip-path="url(#p14b0437cee)" d="M 72 319.68 
L 80.928 319.68 
L 89.856 319.68 
L 98.784 319.68 
L 107.712 319.679996 
L 116.64 319.679965 
L 125.568 319.679724 
L 134.496 319.678227 
L 143.424 319.67043 
L 152.352 319.636031 
L 161.28 319.506017 
L 170.208 319.081723 
L 179.136 317.879133 
L 188.064 314.907023 
L 196.992 308.488292 
L 205.92 296.372792 
L 214.848 276.434392 
L 223.776 248.006937 
L 232.704 213.361882 
L 241.632 178.305729 
L 250.56 150.970197 
L 259.488 138.859053 
L 268.416 145.549316 
L 277.344 169.000063 
L 286.272 202.545536 
L 295.2 237.923882 
L 304.128 268.490677 
L 313.056 290.96327 
L 321.984 305.268535 
L 330.912 313.222609 
L 339.84 317.102714 
L 348.768 318.766291 
L 357.696 319.393216 
L 366.624 319.60062 
L 375.552 319.660712 
L 384.48 319.675908 
L 393.408 319.679247 
L 402.336 319.679881 
L 411.264 319.679984 
L 420.192 319.679998 
L 429.12 319.68 
L 438.048 319.68 
L 446.976 319.68 
L 455.904 319.68 
L 464.832 319.68 
L 473.76 319.68 
L 482.688 319.68 
L 491.616 319.68 
L 500.544 319.68 
" style="fill:none;stroke:#a8f79c;stroke-linecap:square;"/>
   </g>
   <g id="line2d_13">
    <path clip-path="url(#p14b0437cee)" d="M 72 319.68 
L 80.928 319.68 
L 89.856 319.68 
L 98.784 319.68 
L 107.712 319.679998 
L 116.64 319.679981 
L 125.568 319.679845 
L 134.496 319.678968 
L 143.424 319.674235 
L 152.352 319.652563 
L 161.28 319.567508 
L 170.208 319.279025 
L 179.136 318.428377 
L 188.064 316.238557 
L 196.992 311.304828 
L 205.92 301.569709 
L 214.848 284.773077 
L 223.776 259.55409 
L 232.704 226.942317 
L 241.632 191.395187 
L 250.56 160.341988 
L 259.488 141.841357 
L 268.416 141.244557 
L 277.344 158.717036 
L 286.272 189.164318 
L 295.2 224.607419 
L 304.128 257.517538 
L 313.056 283.241362 
L 321.984 300.560057 
L 330.912 310.716675 
L 339.84 315.934578 
L 348.768 318.288841 
L 357.696 319.222205 
L 366.624 319.547044 
L 375.552 319.646075 
L 384.48 319.672436 
L 393.408 319.678535 
L 402.336 319.679755 
L 411.264 319.679965 
L 420.192 319.679996 
L 429.12 319.68 
L 438.048 319.68 
L 446.976 319.68 
L 455.904 319.68 
L 464.832 319.68 
L 473.76 319.68 
L 482.688 319.68 
L 491.616 319.68 
L 500.544 319.68 
" style="fill:none;stroke:#c2ea8c;stroke-linecap:square;"/>
   </g>
   <g id="line2d_14">
    <path clip-path="url(#p14b0437cee)" d="M 72 319.68 
L 80.928 319.68 
L 89.856 319.68 
L 98.784 319.68 
L 107.712 319.679999 
L 116.64 319.679988 
L 125.568 319.679901 
L 134.496 319.679324 
L 143.424 319.676122 
L 152.352 319.661042 
L 161.28 319.600131 
L 170.208 319.387387 
L 179.136 318.740926 
L 188.064 317.024473 
L 196.992 313.031497 
L 205.92 304.885014 
L 214.848 290.323665 
L 223.776 267.608719 
L 232.704 236.94532 
L 241.632 201.742186 
L 250.56 168.672371 
L 259.488 145.873465 
L 268.416 139.774624 
L 277.344 152.193974 
L 286.272 179.471091 
L 295.2 214.191879 
L 304.128 248.412512 
L 313.056 276.495812 
L 321.984 296.246458 
L 330.912 308.314104 
L 339.84 314.763928 
L 348.768 317.789041 
L 357.696 319.035274 
L 366.624 319.4859 
L 375.552 319.628635 
L 384.48 319.668115 
L 393.408 319.677611 
L 402.336 319.679586 
L 411.264 319.679939 
L 420.192 319.679992 
L 429.12 319.679999 
L 438.048 319.68 
L 446.976 319.68 
L 455.904 319.68 
L 464.832 319.68 
L 473.76 319.68 
L 482.688 319.68 
L 491.616 319.68 
L 500.544 319.68 
" style="fill:none;stroke:#ded579;stroke-linecap:square;"/>
   </g>
   <g id="line2d_15">
    <path clip-path="url(#p14b0437cee)" d="M 72 319.68 
L 80.928 319.68 
L 89.856 319.68 
L 98.784 319.68 
L 107.712 319.679999 
L 116.64 319.679992 
L 125.568 319.679934 
L 134.496 319.679536 
L 143.424 319.677275 
L 152.352 319.666365 
L 161.28 319.62118 
L 170.208 319.459284 
L 179.136 318.954315 
L 188.064 317.577083 
L 196.992 314.28319 
L 205.92 307.366218 
L 214.848 294.620817 
L 223.776 274.078574 
L 232.704 245.324728 
L 241.632 210.874231 
L 250.56 176.624507 
L 259.488 150.553377 
L 268.416 139.807446 
L 277.344 147.568391 
L 286.272 171.545758 
L 295.2 205.0572 
L 304.128 240.011178 
L 313.056 269.998291 
L 321.984 291.925426 
L 330.912 305.816224 
L 339.84 313.502082 
L 348.768 317.230779 
L 357.696 318.81894 
L 366.624 319.412573 
L 375.552 319.606953 
L 384.48 319.662544 
L 393.408 319.676373 
L 402.336 319.67935 
L 411.264 319.6799 
L 420.192 319.679987 
L 429.12 319.679999 
L 438.048 319.68 
L 446.976 319.68 
L 455.904 319.68 
L 464.832 319.68 
L 473.76 319.68 
L 482.688 319.68 
L 491.616 319.68 
L 500.544 319.68 
" style="fill:none;stroke:#f9bb66;stroke-linecap:square;"/>
   </g>
   <g id="line2d_16">
    <path clip-path="url(#p14b0437cee)" d="M 72 319.68 
L 80.928 319.68 
L 89.856 319.68 
L 98.784 319.68 
L 107.712 319.68 
L 116.64 319.679996 
L 125.568 319.679961 
L 134.496 319.679719 
L 143.424 319.678294 
L 152.352 319.671187 
L 161.28 319.640745 
L 170.208 319.527893 
L 179.136 319.163522 
L 188.064 318.134167 
L 196.992 315.582035 
L 205.92 310.020102 
L 214.848 299.367501 
L 223.776 281.480093 
L 232.704 255.29834 
L 241.632 222.280806 
L 250.56 187.259448 
L 259.488 157.755387 
L 268.416 141.513076 
L 277.344 143.257518 
L 286.272 162.495198 
L 295.2 193.736127 
L 304.128 229.003382 
L 313.056 261.084391 
L 321.984 285.745863 
L 330.912 302.100705 
L 339.84 311.552139 
L 348.768 316.335077 
L 357.696 318.458652 
L 366.624 319.285817 
L 375.552 319.568047 
L 384.48 319.652165 
L 393.408 319.673978 
L 402.336 319.678875 
L 411.264 319.67982 
L 420.192 319.679976 
L 429.12 319.679997 
L 438.048 319.68 
L 446.976 319.68 
L 455.904 319.68 
L 464.832 319.68 
L 473.76 319.68 
L 482.688 319.68 
L 491.616 319.68 
L 500.544 319.68 
" style="fill:none;stroke:#ff9b52;stroke-linecap:square;"/>
   </g>
   <g id="line2d_17">
    <path clip-path="url(#p14b0437cee)" d="M 72 319.68 
L 80.928 319.68 
L 89.856 319.68 
L 98.784 319.68 
L 107.712 319.68 
L 116.64 319.679997 
L 125.568 319.679975 
L 134.496 319.679814 
L 143.424 319.678842 
L 152.352 319.673861 
L 161.28 319.651942 
L 170.208 319.568438 
L 179.136 319.291249 
L 188.064 318.48576 
L 196.992 316.430122 
L 205.92 311.814846 
L 214.848 302.697378 
L 223.776 286.879078 
L 232.704 262.892999 
L 241.632 231.414542 
L 250.56 196.360949 
L 259.488 164.68315 
L 268.416 144.343041 
L 277.344 141.136797 
L 286.272 156.05289 
L 295.2 184.785158 
L 304.128 219.723331 
L 313.056 253.181633 
L 321.984 280.020185 
L 330.912 298.514445 
L 339.84 309.59505 
L 348.768 315.401245 
L 357.696 318.068687 
L 366.624 319.14342 
L 375.552 319.522685 
L 384.48 319.639603 
L 393.408 319.67097 
L 402.336 319.678255 
L 411.264 319.679711 
L 420.192 319.679959 
L 429.12 319.679995 
L 438.048 319.68 
L 446.976 319.68 
L 455.904 319.68 
L 464.832 319.68 
L 473.76 319.68 
L 482.688 319.68 
L 491.616 319.68 
L 500.544 319.68 
" style="fill:none;stroke:#ff793e;stroke-linecap:square;"/>
   </g>
   <g id="line2d_18">
    <path clip-path="url(#p14b0437cee)" d="M 72 319.68 
L 80.928 319.68 
L 89.856 319.68 
L 98.784 319.68 
L 107.712 319.68 
L 116.64 319.679998 
L 125.568 319.679982 
L 134.496 319.679864 
L 143.424 319.679142 
L 152.352 319.675374 
L 161.28 319.658476 
L 170.208 319.592839 
L 179.136 319.370555 
L 188.064 318.711111 
L 196.992 316.991633 
L 205.92 313.043537 
L 214.848 305.057769 
L 223.776 290.849777 
L 232.704 268.707073 
L 241.632 238.735415 
L 250.56 204.091881 
L 259.488 171.12974 
L 268.416 147.780405 
L 277.344 140.544942 
L 286.272 151.600369 
L 295.2 177.752693 
L 304.128 211.91372 
L 313.056 246.182308 
L 321.984 274.722989 
L 330.912 295.061924 
L 339.84 307.638773 
L 348.768 314.433341 
L 357.696 317.649931 
L 366.624 318.985089 
L 375.552 319.470479 
L 384.48 319.624644 
L 393.408 319.667262 
L 402.336 319.677466 
L 411.264 319.679568 
L 420.192 319.679937 
L 429.12 319.679992 
L 438.048 319.679999 
L 446.976 319.68 
L 455.904 319.68 
L 464.832 319.68 
L 473.76 319.68 
L 482.688 319.68 
L 491.616 319.68 
L 500.544 319.68 
" style="fill:none;stroke:#ff5029;stroke-linecap:square;"/>
   </g>
   <g id="line2d_19">
    <path clip-path="url(#p14b0437cee)" d="M 72 319.68 
L 80.928 319.68 
L 89.856 319.68 
L 98.784 319.68 
L 107.712 319.68 
L 116.64 319.679999 
L 125.568 319.679988 
L 134.496 319.679911 
L 143.424 319.679421 
L 152.352 319.676795 
L 161.28 319.664702 
L 170.208 319.616451 
L 179.136 319.448544 
L 188.064 318.936487 
L 196.992 317.563256 
L 205.92 314.318004 
L 214.848 307.555487 
L 223.776 295.143279 
L 232.704 275.146254 
L 241.632 247.071409 
L 250.56 213.206987 
L 259.488 179.137516 
L 268.416 152.607555 
L 277.344 140.784072 
L 286.272 147.165626 
L 295.2 169.927747 
L 304.128 202.756727 
L 313.056 237.659444 
L 321.984 268.061578 
L 330.912 290.589283 
L 339.84 305.031045 
L 348.768 313.106371 
L 357.696 317.05953 
L 366.624 318.755487 
L 375.552 319.392587 
L 384.48 319.60167 
L 393.408 319.661399 
L 402.336 319.676178 
L 411.264 319.679327 
L 420.192 319.679899 
L 429.12 319.679987 
L 438.048 319.679999 
L 446.976 319.68 
L 455.904 319.68 
L 464.832 319.68 
L 473.76 319.68 
L 482.688 319.68 
L 491.616 319.68 
L 500.544 319.68 
" style="fill:none;stroke:#ff2914;stroke-linecap:square;"/>
   </g>
   <g id="line2d_20">
    <path clip-path="url(#p14b0437cee)" d="M 72 319.68 
L 80.928 319.68 
L 89.856 319.68 
L 98.784 319.68 
L 107.712 319.68 
L 116.64 319.679999 
L 125.568 319.679992 
L 134.496 319.679935 
L 143.424 319.679573 
L 152.352 319.677589 
L 161.28 319.668267 
L 170.208 319.630307 
L 179.136 319.495454 
L 188.064 319.075497 
L 196.992 317.924981 
L 205.92 315.146035 
L 214.848 309.223326 
L 223.776 298.094168 
L 232.704 279.711695 
L 241.632 253.191554 
L 250.56 220.186821 
L 259.488 185.642065 
L 268.416 157.024327 
L 277.344 141.854234 
L 286.272 144.557068 
L 295.2 164.399515 
L 304.128 195.805535 
L 313.056 230.869903 
L 321.984 262.540632 
L 330.912 286.747841 
L 339.84 302.714592 
L 348.768 311.888416 
L 357.696 316.499838 
L 366.624 318.530692 
L 375.552 319.313809 
L 384.48 319.577659 
L 393.408 319.655062 
L 402.336 319.674739 
L 411.264 319.679047 
L 420.192 319.679853 
L 429.12 319.679981 
L 438.048 319.679998 
L 446.976 319.68 
L 455.904 319.68 
L 464.832 319.68 
L 473.76 319.68 
L 482.688 319.68 
L 491.616 319.68 
L 500.544 319.68 
" style="fill:none;stroke:#ff0000;stroke-linecap:square;"/>
   </g>
   <g id="patch_3">
    <path d="M 72 388.8 
L 72 43.2 
" style="fill:none;stroke:#000000;stroke-linecap:square;stroke-linejoin:miter;"/>
   </g>
   <g id="patch_4">
    <path d="M 72 388.8 
L 518.4 388.8 
" style="fill:none;stroke:#000000;stroke-linecap:square;stroke-linejoin:miter;"/>
   </g>
   <g id="patch_5">
    <path d="M 518.4 388.8 
L 518.4 43.2 
" style="fill:none;stroke:#000000;stroke-linecap:square;stroke-linejoin:miter;"/>
   </g>
   <g id="patch_6">
    <path d="M 72 43.2 
L 518.4 43.2 
" style="fill:none;stroke:#000000;stroke-linecap:square;stroke-linejoin:miter;"/>
   </g>
   <g id="matplotlib.axis_1">
    <g id="xtick_1">
     <g id="line2d_21">
      <defs>
       <path d="M 0 0 
L 0 -4 
" id="m80028cf471" style="stroke:#000000;stroke-width:0.5;"/>
      </defs>
      <g>
       <use style="stroke:#000000;stroke-width:0.5;" x="72.0" xlink:href="#m80028cf471" y="388.8"/>
      </g>
     </g>
     <g id="line2d_22">
      <defs>
       <path d="M 0 0 
L 0 4 
" id="m4229b41d14" style="stroke:#000000;stroke-width:0.5;"/>
      </defs>
      <g>
       <use style="stroke:#000000;stroke-width:0.5;" x="72.0" xlink:href="#m4229b41d14" y="43.2"/>
      </g>
     </g>
     <g id="text_1">
      <!-- 0 -->
      <defs>
       <path d="M 31.78125 66.40625 
Q 24.171875 66.40625 20.328125 58.90625 
Q 16.5 51.421875 16.5 36.375 
Q 16.5 21.390625 20.328125 13.890625 
Q 24.171875 6.390625 31.78125 6.390625 
Q 39.453125 6.390625 43.28125 13.890625 
Q 47.125 21.390625 47.125 36.375 
Q 47.125 51.421875 43.28125 58.90625 
Q 39.453125 66.40625 31.78125 66.40625 
M 31.78125 74.21875 
Q 44.046875 74.21875 50.515625 64.515625 
Q 56.984375 54.828125 56.984375 36.375 
Q 56.984375 17.96875 50.515625 8.265625 
Q 44.046875 -1.421875 31.78125 -1.421875 
Q 19.53125 -1.421875 13.0625 8.265625 
Q 6.59375 17.96875 6.59375 36.375 
Q 6.59375 54.828125 13.0625 64.515625 
Q 19.53125 74.21875 31.78125 74.21875 
" id="BitstreamVeraSans-Roman-30"/>
      </defs>
      <g transform="translate(68.1825 401.918125)scale(0.12 -0.12)">
       <use xlink:href="#BitstreamVeraSans-Roman-30"/>
      </g>
     </g>
    </g>
    <g id="xtick_2">
     <g id="line2d_23">
      <g>
       <use style="stroke:#000000;stroke-width:0.5;" x="161.28" xlink:href="#m80028cf471" y="388.8"/>
      </g>
     </g>
     <g id="line2d_24">
      <g>
       <use style="stroke:#000000;stroke-width:0.5;" x="161.28" xlink:href="#m4229b41d14" y="43.2"/>
      </g>
     </g>
     <g id="text_2">
      <!-- 10 -->
      <defs>
       <path d="M 12.40625 8.296875 
L 28.515625 8.296875 
L 28.515625 63.921875 
L 10.984375 60.40625 
L 10.984375 69.390625 
L 28.421875 72.90625 
L 38.28125 72.90625 
L 38.28125 8.296875 
L 54.390625 8.296875 
L 54.390625 0 
L 12.40625 0 
z
" id="BitstreamVeraSans-Roman-31"/>
      </defs>
      <g transform="translate(153.645 401.918125)scale(0.12 -0.12)">
       <use xlink:href="#BitstreamVeraSans-Roman-31"/>
       <use x="63.623046875" xlink:href="#BitstreamVeraSans-Roman-30"/>
      </g>
     </g>
    </g>
    <g id="xtick_3">
     <g id="line2d_25">
      <g>
       <use style="stroke:#000000;stroke-width:0.5;" x="250.56" xlink:href="#m80028cf471" y="388.8"/>
      </g>
     </g>
     <g id="line2d_26">
      <g>
       <use style="stroke:#000000;stroke-width:0.5;" x="250.56" xlink:href="#m4229b41d14" y="43.2"/>
      </g>
     </g>
     <g id="text_3">
      <!-- 20 -->
      <defs>
       <path d="M 19.1875 8.296875 
L 53.609375 8.296875 
L 53.609375 0 
L 7.328125 0 
L 7.328125 8.296875 
Q 12.9375 14.109375 22.625 23.890625 
Q 32.328125 33.6875 34.8125 36.53125 
Q 39.546875 41.84375 41.421875 45.53125 
Q 43.3125 49.21875 43.3125 52.78125 
Q 43.3125 58.59375 39.234375 62.25 
Q 35.15625 65.921875 28.609375 65.921875 
Q 23.96875 65.921875 18.8125 64.3125 
Q 13.671875 62.703125 7.8125 59.421875 
L 7.8125 69.390625 
Q 13.765625 71.78125 18.9375 73 
Q 24.125 74.21875 28.421875 74.21875 
Q 39.75 74.21875 46.484375 68.546875 
Q 53.21875 62.890625 53.21875 53.421875 
Q 53.21875 48.921875 51.53125 44.890625 
Q 49.859375 40.875 45.40625 35.40625 
Q 44.1875 33.984375 37.640625 27.21875 
Q 31.109375 20.453125 19.1875 8.296875 
" id="BitstreamVeraSans-Roman-32"/>
      </defs>
      <g transform="translate(242.925 401.918125)scale(0.12 -0.12)">
       <use xlink:href="#BitstreamVeraSans-Roman-32"/>
       <use x="63.623046875" xlink:href="#BitstreamVeraSans-Roman-30"/>
      </g>
     </g>
    </g>
    <g id="xtick_4">
     <g id="line2d_27">
      <g>
       <use style="stroke:#000000;stroke-width:0.5;" x="339.84" xlink:href="#m80028cf471" y="388.8"/>
      </g>
     </g>
     <g id="line2d_28">
      <g>
       <use style="stroke:#000000;stroke-width:0.5;" x="339.84" xlink:href="#m4229b41d14" y="43.2"/>
      </g>
     </g>
     <g id="text_4">
      <!-- 30 -->
      <defs>
       <path d="M 40.578125 39.3125 
Q 47.65625 37.796875 51.625 33 
Q 55.609375 28.21875 55.609375 21.1875 
Q 55.609375 10.40625 48.1875 4.484375 
Q 40.765625 -1.421875 27.09375 -1.421875 
Q 22.515625 -1.421875 17.65625 -0.515625 
Q 12.796875 0.390625 7.625 2.203125 
L 7.625 11.71875 
Q 11.71875 9.328125 16.59375 8.109375 
Q 21.484375 6.890625 26.8125 6.890625 
Q 36.078125 6.890625 40.9375 10.546875 
Q 45.796875 14.203125 45.796875 21.1875 
Q 45.796875 27.640625 41.28125 31.265625 
Q 36.765625 34.90625 28.71875 34.90625 
L 20.21875 34.90625 
L 20.21875 43.015625 
L 29.109375 43.015625 
Q 36.375 43.015625 40.234375 45.921875 
Q 44.09375 48.828125 44.09375 54.296875 
Q 44.09375 59.90625 40.109375 62.90625 
Q 36.140625 65.921875 28.71875 65.921875 
Q 24.65625 65.921875 20.015625 65.03125 
Q 15.375 64.15625 9.8125 62.3125 
L 9.8125 71.09375 
Q 15.4375 72.65625 20.34375 73.4375 
Q 25.25 74.21875 29.59375 74.21875 
Q 40.828125 74.21875 47.359375 69.109375 
Q 53.90625 64.015625 53.90625 55.328125 
Q 53.90625 49.265625 50.4375 45.09375 
Q 46.96875 40.921875 40.578125 39.3125 
" id="BitstreamVeraSans-Roman-33"/>
      </defs>
      <g transform="translate(332.205 401.918125)scale(0.12 -0.12)">
       <use xlink:href="#BitstreamVeraSans-Roman-33"/>
       <use x="63.623046875" xlink:href="#BitstreamVeraSans-Roman-30"/>
      </g>
     </g>
    </g>
    <g id="xtick_5">
     <g id="line2d_29">
      <g>
       <use style="stroke:#000000;stroke-width:0.5;" x="429.12" xlink:href="#m80028cf471" y="388.8"/>
      </g>
     </g>
     <g id="line2d_30">
      <g>
       <use style="stroke:#000000;stroke-width:0.5;" x="429.12" xlink:href="#m4229b41d14" y="43.2"/>
      </g>
     </g>
     <g id="text_5">
      <!-- 40 -->
      <defs>
       <path d="M 37.796875 64.3125 
L 12.890625 25.390625 
L 37.796875 25.390625 
z
M 35.203125 72.90625 
L 47.609375 72.90625 
L 47.609375 25.390625 
L 58.015625 25.390625 
L 58.015625 17.1875 
L 47.609375 17.1875 
L 47.609375 0 
L 37.796875 0 
L 37.796875 17.1875 
L 4.890625 17.1875 
L 4.890625 26.703125 
z
" id="BitstreamVeraSans-Roman-34"/>
      </defs>
      <g transform="translate(421.485 401.918125)scale(0.12 -0.12)">
       <use xlink:href="#BitstreamVeraSans-Roman-34"/>
       <use x="63.623046875" xlink:href="#BitstreamVeraSans-Roman-30"/>
      </g>
     </g>
    </g>
    <g id="xtick_6">
     <g id="line2d_31">
      <g>
       <use style="stroke:#000000;stroke-width:0.5;" x="518.4" xlink:href="#m80028cf471" y="388.8"/>
      </g>
     </g>
     <g id="line2d_32">
      <g>
       <use style="stroke:#000000;stroke-width:0.5;" x="518.4" xlink:href="#m4229b41d14" y="43.2"/>
      </g>
     </g>
     <g id="text_6">
      <!-- 50 -->
      <defs>
       <path d="M 10.796875 72.90625 
L 49.515625 72.90625 
L 49.515625 64.59375 
L 19.828125 64.59375 
L 19.828125 46.734375 
Q 21.96875 47.46875 24.109375 47.828125 
Q 26.265625 48.1875 28.421875 48.1875 
Q 40.625 48.1875 47.75 41.5 
Q 54.890625 34.8125 54.890625 23.390625 
Q 54.890625 11.625 47.5625 5.09375 
Q 40.234375 -1.421875 26.90625 -1.421875 
Q 22.3125 -1.421875 17.546875 -0.640625 
Q 12.796875 0.140625 7.71875 1.703125 
L 7.71875 11.625 
Q 12.109375 9.234375 16.796875 8.0625 
Q 21.484375 6.890625 26.703125 6.890625 
Q 35.15625 6.890625 40.078125 11.328125 
Q 45.015625 15.765625 45.015625 23.390625 
Q 45.015625 31 40.078125 35.4375 
Q 35.15625 39.890625 26.703125 39.890625 
Q 22.75 39.890625 18.8125 39.015625 
Q 14.890625 38.140625 10.796875 36.28125 
z
" id="BitstreamVeraSans-Roman-35"/>
      </defs>
      <g transform="translate(510.765 401.918125)scale(0.12 -0.12)">
       <use xlink:href="#BitstreamVeraSans-Roman-35"/>
       <use x="63.623046875" xlink:href="#BitstreamVeraSans-Roman-30"/>
      </g>
     </g>
    </g>
    <g id="text_7">
     <!-- number of covered sentences -->
     <defs>
      <path d="M 54.890625 33.015625 
L 54.890625 0 
L 45.90625 0 
L 45.90625 32.71875 
Q 45.90625 40.484375 42.875 44.328125 
Q 39.84375 48.1875 33.796875 48.1875 
Q 26.515625 48.1875 22.3125 43.546875 
Q 18.109375 38.921875 18.109375 30.90625 
L 18.109375 0 
L 9.078125 0 
L 9.078125 54.6875 
L 18.109375 54.6875 
L 18.109375 46.1875 
Q 21.34375 51.125 25.703125 53.5625 
Q 30.078125 56 35.796875 56 
Q 45.21875 56 50.046875 50.171875 
Q 54.890625 44.34375 54.890625 33.015625 
" id="BitstreamVeraSans-Roman-6e"/>
      <path d="M 52 44.1875 
Q 55.375 50.25 60.0625 53.125 
Q 64.75 56 71.09375 56 
Q 79.640625 56 84.28125 50.015625 
Q 88.921875 44.046875 88.921875 33.015625 
L 88.921875 0 
L 79.890625 0 
L 79.890625 32.71875 
Q 79.890625 40.578125 77.09375 44.375 
Q 74.3125 48.1875 68.609375 48.1875 
Q 61.625 48.1875 57.5625 43.546875 
Q 53.515625 38.921875 53.515625 30.90625 
L 53.515625 0 
L 44.484375 0 
L 44.484375 32.71875 
Q 44.484375 40.625 41.703125 44.40625 
Q 38.921875 48.1875 33.109375 48.1875 
Q 26.21875 48.1875 22.15625 43.53125 
Q 18.109375 38.875 18.109375 30.90625 
L 18.109375 0 
L 9.078125 0 
L 9.078125 54.6875 
L 18.109375 54.6875 
L 18.109375 46.1875 
Q 21.1875 51.21875 25.484375 53.609375 
Q 29.78125 56 35.6875 56 
Q 41.65625 56 45.828125 52.96875 
Q 50 49.953125 52 44.1875 
" id="BitstreamVeraSans-Roman-6d"/>
      <path d="M 2.984375 54.6875 
L 12.5 54.6875 
L 29.59375 8.796875 
L 46.6875 54.6875 
L 56.203125 54.6875 
L 35.6875 0 
L 23.484375 0 
z
" id="BitstreamVeraSans-Roman-76"/>
      <path d="M 41.109375 46.296875 
Q 39.59375 47.171875 37.8125 47.578125 
Q 36.03125 48 33.890625 48 
Q 26.265625 48 22.1875 43.046875 
Q 18.109375 38.09375 18.109375 28.8125 
L 18.109375 0 
L 9.078125 0 
L 9.078125 54.6875 
L 18.109375 54.6875 
L 18.109375 46.1875 
Q 20.953125 51.171875 25.484375 53.578125 
Q 30.03125 56 36.53125 56 
Q 37.453125 56 38.578125 55.875 
Q 39.703125 55.765625 41.0625 55.515625 
z
" id="BitstreamVeraSans-Roman-72"/>
      <path d="M 48.78125 52.59375 
L 48.78125 44.1875 
Q 44.96875 46.296875 41.140625 47.34375 
Q 37.3125 48.390625 33.40625 48.390625 
Q 24.65625 48.390625 19.8125 42.84375 
Q 14.984375 37.3125 14.984375 27.296875 
Q 14.984375 17.28125 19.8125 11.734375 
Q 24.65625 6.203125 33.40625 6.203125 
Q 37.3125 6.203125 41.140625 7.25 
Q 44.96875 8.296875 48.78125 10.40625 
L 48.78125 2.09375 
Q 45.015625 0.34375 40.984375 -0.53125 
Q 36.96875 -1.421875 32.421875 -1.421875 
Q 20.0625 -1.421875 12.78125 6.34375 
Q 5.515625 14.109375 5.515625 27.296875 
Q 5.515625 40.671875 12.859375 48.328125 
Q 20.21875 56 33.015625 56 
Q 37.15625 56 41.109375 55.140625 
Q 45.0625 54.296875 48.78125 52.59375 
" id="BitstreamVeraSans-Roman-63"/>
      <path d="M 48.6875 27.296875 
Q 48.6875 37.203125 44.609375 42.84375 
Q 40.53125 48.484375 33.40625 48.484375 
Q 26.265625 48.484375 22.1875 42.84375 
Q 18.109375 37.203125 18.109375 27.296875 
Q 18.109375 17.390625 22.1875 11.75 
Q 26.265625 6.109375 33.40625 6.109375 
Q 40.53125 6.109375 44.609375 11.75 
Q 48.6875 17.390625 48.6875 27.296875 
M 18.109375 46.390625 
Q 20.953125 51.265625 25.265625 53.625 
Q 29.59375 56 35.59375 56 
Q 45.5625 56 51.78125 48.09375 
Q 58.015625 40.1875 58.015625 27.296875 
Q 58.015625 14.40625 51.78125 6.484375 
Q 45.5625 -1.421875 35.59375 -1.421875 
Q 29.59375 -1.421875 25.265625 0.953125 
Q 20.953125 3.328125 18.109375 8.203125 
L 18.109375 0 
L 9.078125 0 
L 9.078125 75.984375 
L 18.109375 75.984375 
z
" id="BitstreamVeraSans-Roman-62"/>
      <path d="M 30.609375 48.390625 
Q 23.390625 48.390625 19.1875 42.75 
Q 14.984375 37.109375 14.984375 27.296875 
Q 14.984375 17.484375 19.15625 11.84375 
Q 23.34375 6.203125 30.609375 6.203125 
Q 37.796875 6.203125 41.984375 11.859375 
Q 46.1875 17.53125 46.1875 27.296875 
Q 46.1875 37.015625 41.984375 42.703125 
Q 37.796875 48.390625 30.609375 48.390625 
M 30.609375 56 
Q 42.328125 56 49.015625 48.375 
Q 55.71875 40.765625 55.71875 27.296875 
Q 55.71875 13.875 49.015625 6.21875 
Q 42.328125 -1.421875 30.609375 -1.421875 
Q 18.84375 -1.421875 12.171875 6.21875 
Q 5.515625 13.875 5.515625 27.296875 
Q 5.515625 40.765625 12.171875 48.375 
Q 18.84375 56 30.609375 56 
" id="BitstreamVeraSans-Roman-6f"/>
      <path d="M 45.40625 46.390625 
L 45.40625 75.984375 
L 54.390625 75.984375 
L 54.390625 0 
L 45.40625 0 
L 45.40625 8.203125 
Q 42.578125 3.328125 38.25 0.953125 
Q 33.9375 -1.421875 27.875 -1.421875 
Q 17.96875 -1.421875 11.734375 6.484375 
Q 5.515625 14.40625 5.515625 27.296875 
Q 5.515625 40.1875 11.734375 48.09375 
Q 17.96875 56 27.875 56 
Q 33.9375 56 38.25 53.625 
Q 42.578125 51.265625 45.40625 46.390625 
M 14.796875 27.296875 
Q 14.796875 17.390625 18.875 11.75 
Q 22.953125 6.109375 30.078125 6.109375 
Q 37.203125 6.109375 41.296875 11.75 
Q 45.40625 17.390625 45.40625 27.296875 
Q 45.40625 37.203125 41.296875 42.84375 
Q 37.203125 48.484375 30.078125 48.484375 
Q 22.953125 48.484375 18.875 42.84375 
Q 14.796875 37.203125 14.796875 27.296875 
" id="BitstreamVeraSans-Roman-64"/>
      <path id="BitstreamVeraSans-Roman-20"/>
      <path d="M 18.3125 70.21875 
L 18.3125 54.6875 
L 36.8125 54.6875 
L 36.8125 47.703125 
L 18.3125 47.703125 
L 18.3125 18.015625 
Q 18.3125 11.328125 20.140625 9.421875 
Q 21.96875 7.515625 27.59375 7.515625 
L 36.8125 7.515625 
L 36.8125 0 
L 27.59375 0 
Q 17.1875 0 13.234375 3.875 
Q 9.28125 7.765625 9.28125 18.015625 
L 9.28125 47.703125 
L 2.6875 47.703125 
L 2.6875 54.6875 
L 9.28125 54.6875 
L 9.28125 70.21875 
z
" id="BitstreamVeraSans-Roman-74"/>
      <path d="M 8.5 21.578125 
L 8.5 54.6875 
L 17.484375 54.6875 
L 17.484375 21.921875 
Q 17.484375 14.15625 20.5 10.265625 
Q 23.53125 6.390625 29.59375 6.390625 
Q 36.859375 6.390625 41.078125 11.03125 
Q 45.3125 15.671875 45.3125 23.6875 
L 45.3125 54.6875 
L 54.296875 54.6875 
L 54.296875 0 
L 45.3125 0 
L 45.3125 8.40625 
Q 42.046875 3.421875 37.71875 1 
Q 33.40625 -1.421875 27.6875 -1.421875 
Q 18.265625 -1.421875 13.375 4.4375 
Q 8.5 10.296875 8.5 21.578125 
" id="BitstreamVeraSans-Roman-75"/>
      <path d="M 44.28125 53.078125 
L 44.28125 44.578125 
Q 40.484375 46.53125 36.375 47.5 
Q 32.28125 48.484375 27.875 48.484375 
Q 21.1875 48.484375 17.84375 46.4375 
Q 14.5 44.390625 14.5 40.28125 
Q 14.5 37.15625 16.890625 35.375 
Q 19.28125 33.59375 26.515625 31.984375 
L 29.59375 31.296875 
Q 39.15625 29.25 43.1875 25.515625 
Q 47.21875 21.78125 47.21875 15.09375 
Q 47.21875 7.46875 41.1875 3.015625 
Q 35.15625 -1.421875 24.609375 -1.421875 
Q 20.21875 -1.421875 15.453125 -0.5625 
Q 10.6875 0.296875 5.421875 2 
L 5.421875 11.28125 
Q 10.40625 8.6875 15.234375 7.390625 
Q 20.0625 6.109375 24.8125 6.109375 
Q 31.15625 6.109375 34.5625 8.28125 
Q 37.984375 10.453125 37.984375 14.40625 
Q 37.984375 18.0625 35.515625 20.015625 
Q 33.0625 21.96875 24.703125 23.78125 
L 21.578125 24.515625 
Q 13.234375 26.265625 9.515625 29.90625 
Q 5.8125 33.546875 5.8125 39.890625 
Q 5.8125 47.609375 11.28125 51.796875 
Q 16.75 56 26.8125 56 
Q 31.78125 56 36.171875 55.265625 
Q 40.578125 54.546875 44.28125 53.078125 
" id="BitstreamVeraSans-Roman-73"/>
      <path d="M 37.109375 75.984375 
L 37.109375 68.5 
L 28.515625 68.5 
Q 23.6875 68.5 21.796875 66.546875 
Q 19.921875 64.59375 19.921875 59.515625 
L 19.921875 54.6875 
L 34.71875 54.6875 
L 34.71875 47.703125 
L 19.921875 47.703125 
L 19.921875 0 
L 10.890625 0 
L 10.890625 47.703125 
L 2.296875 47.703125 
L 2.296875 54.6875 
L 10.890625 54.6875 
L 10.890625 58.5 
Q 10.890625 67.625 15.140625 71.796875 
Q 19.390625 75.984375 28.609375 75.984375 
z
" id="BitstreamVeraSans-Roman-66"/>
      <path d="M 56.203125 29.59375 
L 56.203125 25.203125 
L 14.890625 25.203125 
Q 15.484375 15.921875 20.484375 11.0625 
Q 25.484375 6.203125 34.421875 6.203125 
Q 39.59375 6.203125 44.453125 7.46875 
Q 49.3125 8.734375 54.109375 11.28125 
L 54.109375 2.78125 
Q 49.265625 0.734375 44.1875 -0.34375 
Q 39.109375 -1.421875 33.890625 -1.421875 
Q 20.796875 -1.421875 13.15625 6.1875 
Q 5.515625 13.8125 5.515625 26.8125 
Q 5.515625 40.234375 12.765625 48.109375 
Q 20.015625 56 32.328125 56 
Q 43.359375 56 49.78125 48.890625 
Q 56.203125 41.796875 56.203125 29.59375 
M 47.21875 32.234375 
Q 47.125 39.59375 43.09375 43.984375 
Q 39.0625 48.390625 32.421875 48.390625 
Q 24.90625 48.390625 20.390625 44.140625 
Q 15.875 39.890625 15.1875 32.171875 
z
" id="BitstreamVeraSans-Roman-65"/>
     </defs>
     <g transform="translate(205.516875 418.531875)scale(0.12 -0.12)">
      <use xlink:href="#BitstreamVeraSans-Roman-6e"/>
      <use x="63.37890625" xlink:href="#BitstreamVeraSans-Roman-75"/>
      <use x="126.7578125" xlink:href="#BitstreamVeraSans-Roman-6d"/>
      <use x="224.169921875" xlink:href="#BitstreamVeraSans-Roman-62"/>
      <use x="287.646484375" xlink:href="#BitstreamVeraSans-Roman-65"/>
      <use x="349.169921875" xlink:href="#BitstreamVeraSans-Roman-72"/>
      <use x="390.283203125" xlink:href="#BitstreamVeraSans-Roman-20"/>
      <use x="422.0703125" xlink:href="#BitstreamVeraSans-Roman-6f"/>
      <use x="483.251953125" xlink:href="#BitstreamVeraSans-Roman-66"/>
      <use x="518.45703125" xlink:href="#BitstreamVeraSans-Roman-20"/>
      <use x="550.244140625" xlink:href="#BitstreamVeraSans-Roman-63"/>
      <use x="605.224609375" xlink:href="#BitstreamVeraSans-Roman-6f"/>
      <use x="666.40625" xlink:href="#BitstreamVeraSans-Roman-76"/>
      <use x="725.5859375" xlink:href="#BitstreamVeraSans-Roman-65"/>
      <use x="787.109375" xlink:href="#BitstreamVeraSans-Roman-72"/>
      <use x="828.19140625" xlink:href="#BitstreamVeraSans-Roman-65"/>
      <use x="889.71484375" xlink:href="#BitstreamVeraSans-Roman-64"/>
      <use x="953.19140625" xlink:href="#BitstreamVeraSans-Roman-20"/>
      <use x="984.978515625" xlink:href="#BitstreamVeraSans-Roman-73"/>
      <use x="1037.078125" xlink:href="#BitstreamVeraSans-Roman-65"/>
      <use x="1098.6015625" xlink:href="#BitstreamVeraSans-Roman-6e"/>
      <use x="1161.98046875" xlink:href="#BitstreamVeraSans-Roman-74"/>
      <use x="1201.189453125" xlink:href="#BitstreamVeraSans-Roman-65"/>
      <use x="1262.712890625" xlink:href="#BitstreamVeraSans-Roman-6e"/>
      <use x="1326.091796875" xlink:href="#BitstreamVeraSans-Roman-63"/>
      <use x="1381.072265625" xlink:href="#BitstreamVeraSans-Roman-65"/>
      <use x="1442.595703125" xlink:href="#BitstreamVeraSans-Roman-73"/>
     </g>
    </g>
   </g>
   <g id="matplotlib.axis_2">
    <g id="ytick_1">
     <g id="line2d_33">
      <defs>
       <path d="M 0 0 
L 4 0 
" id="mf78af743dc" style="stroke:#000000;stroke-width:0.5;"/>
      </defs>
      <g>
       <use style="stroke:#000000;stroke-width:0.5;" x="72.0" xlink:href="#mf78af743dc" y="388.8"/>
      </g>
     </g>
     <g id="line2d_34">
      <defs>
       <path d="M 0 0 
L -4 0 
" id="madaeff4db1" style="stroke:#000000;stroke-width:0.5;"/>
      </defs>
      <g>
       <use style="stroke:#000000;stroke-width:0.5;" x="518.4" xlink:href="#madaeff4db1" y="388.8"/>
      </g>
     </g>
     <g id="text_8">
      <!-- −0.05 -->
      <defs>
       <path d="M 10.59375 35.5 
L 73.1875 35.5 
L 73.1875 27.203125 
L 10.59375 27.203125 
z
" id="BitstreamVeraSans-Roman-2212"/>
       <path d="M 10.6875 12.40625 
L 21 12.40625 
L 21 0 
L 10.6875 0 
z
" id="BitstreamVeraSans-Roman-2e"/>
      </defs>
      <g transform="translate(31.225625 392.11125)scale(0.12 -0.12)">
       <use xlink:href="#BitstreamVeraSans-Roman-2212"/>
       <use x="83.7890625" xlink:href="#BitstreamVeraSans-Roman-30"/>
       <use x="147.412109375" xlink:href="#BitstreamVeraSans-Roman-2e"/>
       <use x="179.19921875" xlink:href="#BitstreamVeraSans-Roman-30"/>
       <use x="242.822265625" xlink:href="#BitstreamVeraSans-Roman-35"/>
      </g>
     </g>
    </g>
    <g id="ytick_2">
     <g id="line2d_35">
      <g>
       <use style="stroke:#000000;stroke-width:0.5;" x="72.0" xlink:href="#mf78af743dc" y="319.68"/>
      </g>
     </g>
     <g id="line2d_36">
      <g>
       <use style="stroke:#000000;stroke-width:0.5;" x="518.4" xlink:href="#madaeff4db1" y="319.68"/>
      </g>
     </g>
     <g id="text_9">
      <!-- 0.00 -->
      <g transform="translate(41.28125 322.99125)scale(0.12 -0.12)">
       <use xlink:href="#BitstreamVeraSans-Roman-30"/>
       <use x="63.623046875" xlink:href="#BitstreamVeraSans-Roman-2e"/>
       <use x="95.41015625" xlink:href="#BitstreamVeraSans-Roman-30"/>
       <use x="159.033203125" xlink:href="#BitstreamVeraSans-Roman-30"/>
      </g>
     </g>
    </g>
    <g id="ytick_3">
     <g id="line2d_37">
      <g>
       <use style="stroke:#000000;stroke-width:0.5;" x="72.0" xlink:href="#mf78af743dc" y="250.56"/>
      </g>
     </g>
     <g id="line2d_38">
      <g>
       <use style="stroke:#000000;stroke-width:0.5;" x="518.4" xlink:href="#madaeff4db1" y="250.56"/>
      </g>
     </g>
     <g id="text_10">
      <!-- 0.05 -->
      <g transform="translate(41.28125 253.87125)scale(0.12 -0.12)">
       <use xlink:href="#BitstreamVeraSans-Roman-30"/>
       <use x="63.623046875" xlink:href="#BitstreamVeraSans-Roman-2e"/>
       <use x="95.41015625" xlink:href="#BitstreamVeraSans-Roman-30"/>
       <use x="159.033203125" xlink:href="#BitstreamVeraSans-Roman-35"/>
      </g>
     </g>
    </g>
    <g id="ytick_4">
     <g id="line2d_39">
      <g>
       <use style="stroke:#000000;stroke-width:0.5;" x="72.0" xlink:href="#mf78af743dc" y="181.44"/>
      </g>
     </g>
     <g id="line2d_40">
      <g>
       <use style="stroke:#000000;stroke-width:0.5;" x="518.4" xlink:href="#madaeff4db1" y="181.44"/>
      </g>
     </g>
     <g id="text_11">
      <!-- 0.10 -->
      <g transform="translate(41.28125 184.75125)scale(0.12 -0.12)">
       <use xlink:href="#BitstreamVeraSans-Roman-30"/>
       <use x="63.623046875" xlink:href="#BitstreamVeraSans-Roman-2e"/>
       <use x="95.41015625" xlink:href="#BitstreamVeraSans-Roman-31"/>
       <use x="159.033203125" xlink:href="#BitstreamVeraSans-Roman-30"/>
      </g>
     </g>
    </g>
    <g id="ytick_5">
     <g id="line2d_41">
      <g>
       <use style="stroke:#000000;stroke-width:0.5;" x="72.0" xlink:href="#mf78af743dc" y="112.32"/>
      </g>
     </g>
     <g id="line2d_42">
      <g>
       <use style="stroke:#000000;stroke-width:0.5;" x="518.4" xlink:href="#madaeff4db1" y="112.32"/>
      </g>
     </g>
     <g id="text_12">
      <!-- 0.15 -->
      <g transform="translate(41.28125 115.63125)scale(0.12 -0.12)">
       <use xlink:href="#BitstreamVeraSans-Roman-30"/>
       <use x="63.623046875" xlink:href="#BitstreamVeraSans-Roman-2e"/>
       <use x="95.41015625" xlink:href="#BitstreamVeraSans-Roman-31"/>
       <use x="159.033203125" xlink:href="#BitstreamVeraSans-Roman-35"/>
      </g>
     </g>
    </g>
    <g id="ytick_6">
     <g id="line2d_43">
      <g>
       <use style="stroke:#000000;stroke-width:0.5;" x="72.0" xlink:href="#mf78af743dc" y="43.2"/>
      </g>
     </g>
     <g id="line2d_44">
      <g>
       <use style="stroke:#000000;stroke-width:0.5;" x="518.4" xlink:href="#madaeff4db1" y="43.2"/>
      </g>
     </g>
     <g id="text_13">
      <!-- 0.20 -->
      <g transform="translate(41.28125 46.51125)scale(0.12 -0.12)">
       <use xlink:href="#BitstreamVeraSans-Roman-30"/>
       <use x="63.623046875" xlink:href="#BitstreamVeraSans-Roman-2e"/>
       <use x="95.41015625" xlink:href="#BitstreamVeraSans-Roman-32"/>
       <use x="159.033203125" xlink:href="#BitstreamVeraSans-Roman-30"/>
      </g>
     </g>
    </g>
    <g id="text_14">
     <!-- probabillity -->
     <defs>
      <path d="M 34.28125 27.484375 
Q 23.390625 27.484375 19.1875 25 
Q 14.984375 22.515625 14.984375 16.5 
Q 14.984375 11.71875 18.140625 8.90625 
Q 21.296875 6.109375 26.703125 6.109375 
Q 34.1875 6.109375 38.703125 11.40625 
Q 43.21875 16.703125 43.21875 25.484375 
L 43.21875 27.484375 
z
M 52.203125 31.203125 
L 52.203125 0 
L 43.21875 0 
L 43.21875 8.296875 
Q 40.140625 3.328125 35.546875 0.953125 
Q 30.953125 -1.421875 24.3125 -1.421875 
Q 15.921875 -1.421875 10.953125 3.296875 
Q 6 8.015625 6 15.921875 
Q 6 25.140625 12.171875 29.828125 
Q 18.359375 34.515625 30.609375 34.515625 
L 43.21875 34.515625 
L 43.21875 35.40625 
Q 43.21875 41.609375 39.140625 45 
Q 35.0625 48.390625 27.6875 48.390625 
Q 23 48.390625 18.546875 47.265625 
Q 14.109375 46.140625 10.015625 43.890625 
L 10.015625 52.203125 
Q 14.9375 54.109375 19.578125 55.046875 
Q 24.21875 56 28.609375 56 
Q 40.484375 56 46.34375 49.84375 
Q 52.203125 43.703125 52.203125 31.203125 
" id="BitstreamVeraSans-Roman-61"/>
      <path d="M 9.421875 54.6875 
L 18.40625 54.6875 
L 18.40625 0 
L 9.421875 0 
z
M 9.421875 75.984375 
L 18.40625 75.984375 
L 18.40625 64.59375 
L 9.421875 64.59375 
z
" id="BitstreamVeraSans-Roman-69"/>
      <path d="M 9.421875 75.984375 
L 18.40625 75.984375 
L 18.40625 0 
L 9.421875 0 
z
" id="BitstreamVeraSans-Roman-6c"/>
      <path d="M 18.109375 8.203125 
L 18.109375 -20.796875 
L 9.078125 -20.796875 
L 9.078125 54.6875 
L 18.109375 54.6875 
L 18.109375 46.390625 
Q 20.953125 51.265625 25.265625 53.625 
Q 29.59375 56 35.59375 56 
Q 45.5625 56 51.78125 48.09375 
Q 58.015625 40.1875 58.015625 27.296875 
Q 58.015625 14.40625 51.78125 6.484375 
Q 45.5625 -1.421875 35.59375 -1.421875 
Q 29.59375 -1.421875 25.265625 0.953125 
Q 20.953125 3.328125 18.109375 8.203125 
M 48.6875 27.296875 
Q 48.6875 37.203125 44.609375 42.84375 
Q 40.53125 48.484375 33.40625 48.484375 
Q 26.265625 48.484375 22.1875 42.84375 
Q 18.109375 37.203125 18.109375 27.296875 
Q 18.109375 17.390625 22.1875 11.75 
Q 26.265625 6.109375 33.40625 6.109375 
Q 40.53125 6.109375 44.609375 11.75 
Q 48.6875 17.390625 48.6875 27.296875 
" id="BitstreamVeraSans-Roman-70"/>
      <path d="M 32.171875 -5.078125 
Q 28.375 -14.84375 24.75 -17.8125 
Q 21.140625 -20.796875 15.09375 -20.796875 
L 7.90625 -20.796875 
L 7.90625 -13.28125 
L 13.1875 -13.28125 
Q 16.890625 -13.28125 18.9375 -11.515625 
Q 21 -9.765625 23.484375 -3.21875 
L 25.09375 0.875 
L 2.984375 54.6875 
L 12.5 54.6875 
L 29.59375 11.921875 
L 46.6875 54.6875 
L 56.203125 54.6875 
z
" id="BitstreamVeraSans-Roman-79"/>
     </defs>
     <g transform="translate(23.73 249.8109375)rotate(-90.0)scale(0.12 -0.12)">
      <use xlink:href="#BitstreamVeraSans-Roman-70"/>
      <use x="63.4765625" xlink:href="#BitstreamVeraSans-Roman-72"/>
      <use x="104.55859375" xlink:href="#BitstreamVeraSans-Roman-6f"/>
      <use x="165.740234375" xlink:href="#BitstreamVeraSans-Roman-62"/>
      <use x="229.216796875" xlink:href="#BitstreamVeraSans-Roman-61"/>
      <use x="290.49609375" xlink:href="#BitstreamVeraSans-Roman-62"/>
      <use x="353.97265625" xlink:href="#BitstreamVeraSans-Roman-69"/>
      <use x="381.755859375" xlink:href="#BitstreamVeraSans-Roman-6c"/>
      <use x="409.5390625" xlink:href="#BitstreamVeraSans-Roman-6c"/>
      <use x="437.322265625" xlink:href="#BitstreamVeraSans-Roman-69"/>
      <use x="465.10546875" xlink:href="#BitstreamVeraSans-Roman-74"/>
      <use x="504.314453125" xlink:href="#BitstreamVeraSans-Roman-79"/>
     </g>
    </g>
   </g>
   <g id="text_15">
    <!-- probabillity distribution for correct sentences covered in g.s. -->
    <defs>
     <path d="M 45.40625 27.984375 
Q 45.40625 37.75 41.375 43.109375 
Q 37.359375 48.484375 30.078125 48.484375 
Q 22.859375 48.484375 18.828125 43.109375 
Q 14.796875 37.75 14.796875 27.984375 
Q 14.796875 18.265625 18.828125 12.890625 
Q 22.859375 7.515625 30.078125 7.515625 
Q 37.359375 7.515625 41.375 12.890625 
Q 45.40625 18.265625 45.40625 27.984375 
M 54.390625 6.78125 
Q 54.390625 -7.171875 48.1875 -13.984375 
Q 42 -20.796875 29.203125 -20.796875 
Q 24.46875 -20.796875 20.265625 -20.09375 
Q 16.0625 -19.390625 12.109375 -17.921875 
L 12.109375 -9.1875 
Q 16.0625 -11.328125 19.921875 -12.34375 
Q 23.78125 -13.375 27.78125 -13.375 
Q 36.625 -13.375 41.015625 -8.765625 
Q 45.40625 -4.15625 45.40625 5.171875 
L 45.40625 9.625 
Q 42.625 4.78125 38.28125 2.390625 
Q 33.9375 0 27.875 0 
Q 17.828125 0 11.671875 7.65625 
Q 5.515625 15.328125 5.515625 27.984375 
Q 5.515625 40.671875 11.671875 48.328125 
Q 17.828125 56 27.875 56 
Q 33.9375 56 38.28125 53.609375 
Q 42.625 51.21875 45.40625 46.390625 
L 45.40625 54.6875 
L 54.390625 54.6875 
z
" id="BitstreamVeraSans-Roman-67"/>
    </defs>
    <g transform="translate(77.01075 22.07515)scale(0.144 -0.144)">
     <use xlink:href="#BitstreamVeraSans-Roman-70"/>
     <use x="63.4765625" xlink:href="#BitstreamVeraSans-Roman-72"/>
     <use x="104.55859375" xlink:href="#BitstreamVeraSans-Roman-6f"/>
     <use x="165.740234375" xlink:href="#BitstreamVeraSans-Roman-62"/>
     <use x="229.216796875" xlink:href="#BitstreamVeraSans-Roman-61"/>
     <use x="290.49609375" xlink:href="#BitstreamVeraSans-Roman-62"/>
     <use x="353.97265625" xlink:href="#BitstreamVeraSans-Roman-69"/>
     <use x="381.755859375" xlink:href="#BitstreamVeraSans-Roman-6c"/>
     <use x="409.5390625" xlink:href="#BitstreamVeraSans-Roman-6c"/>
     <use x="437.322265625" xlink:href="#BitstreamVeraSans-Roman-69"/>
     <use x="465.10546875" xlink:href="#BitstreamVeraSans-Roman-74"/>
     <use x="504.314453125" xlink:href="#BitstreamVeraSans-Roman-79"/>
     <use x="563.494140625" xlink:href="#BitstreamVeraSans-Roman-20"/>
     <use x="595.28125" xlink:href="#BitstreamVeraSans-Roman-64"/>
     <use x="658.7578125" xlink:href="#BitstreamVeraSans-Roman-69"/>
     <use x="686.541015625" xlink:href="#BitstreamVeraSans-Roman-73"/>
     <use x="738.640625" xlink:href="#BitstreamVeraSans-Roman-74"/>
     <use x="777.849609375" xlink:href="#BitstreamVeraSans-Roman-72"/>
     <use x="818.962890625" xlink:href="#BitstreamVeraSans-Roman-69"/>
     <use x="846.74609375" xlink:href="#BitstreamVeraSans-Roman-62"/>
     <use x="910.22265625" xlink:href="#BitstreamVeraSans-Roman-75"/>
     <use x="973.6015625" xlink:href="#BitstreamVeraSans-Roman-74"/>
     <use x="1012.810546875" xlink:href="#BitstreamVeraSans-Roman-69"/>
     <use x="1040.59375" xlink:href="#BitstreamVeraSans-Roman-6f"/>
     <use x="1101.775390625" xlink:href="#BitstreamVeraSans-Roman-6e"/>
     <use x="1165.154296875" xlink:href="#BitstreamVeraSans-Roman-20"/>
     <use x="1196.94140625" xlink:href="#BitstreamVeraSans-Roman-66"/>
     <use x="1232.146484375" xlink:href="#BitstreamVeraSans-Roman-6f"/>
     <use x="1293.328125" xlink:href="#BitstreamVeraSans-Roman-72"/>
     <use x="1334.44140625" xlink:href="#BitstreamVeraSans-Roman-20"/>
     <use x="1366.228515625" xlink:href="#BitstreamVeraSans-Roman-63"/>
     <use x="1421.208984375" xlink:href="#BitstreamVeraSans-Roman-6f"/>
     <use x="1482.390625" xlink:href="#BitstreamVeraSans-Roman-72"/>
     <use x="1523.48828125" xlink:href="#BitstreamVeraSans-Roman-72"/>
     <use x="1564.5703125" xlink:href="#BitstreamVeraSans-Roman-65"/>
     <use x="1626.09375" xlink:href="#BitstreamVeraSans-Roman-63"/>
     <use x="1681.07421875" xlink:href="#BitstreamVeraSans-Roman-74"/>
     <use x="1720.283203125" xlink:href="#BitstreamVeraSans-Roman-20"/>
     <use x="1752.0703125" xlink:href="#BitstreamVeraSans-Roman-73"/>
     <use x="1804.169921875" xlink:href="#BitstreamVeraSans-Roman-65"/>
     <use x="1865.693359375" xlink:href="#BitstreamVeraSans-Roman-6e"/>
     <use x="1929.072265625" xlink:href="#BitstreamVeraSans-Roman-74"/>
     <use x="1968.28125" xlink:href="#BitstreamVeraSans-Roman-65"/>
     <use x="2029.8046875" xlink:href="#BitstreamVeraSans-Roman-6e"/>
     <use x="2093.18359375" xlink:href="#BitstreamVeraSans-Roman-63"/>
     <use x="2148.1640625" xlink:href="#BitstreamVeraSans-Roman-65"/>
     <use x="2209.6875" xlink:href="#BitstreamVeraSans-Roman-73"/>
     <use x="2261.787109375" xlink:href="#BitstreamVeraSans-Roman-20"/>
     <use x="2293.57421875" xlink:href="#BitstreamVeraSans-Roman-63"/>
     <use x="2348.5546875" xlink:href="#BitstreamVeraSans-Roman-6f"/>
     <use x="2409.736328125" xlink:href="#BitstreamVeraSans-Roman-76"/>
     <use x="2468.916015625" xlink:href="#BitstreamVeraSans-Roman-65"/>
     <use x="2530.439453125" xlink:href="#BitstreamVeraSans-Roman-72"/>
     <use x="2571.521484375" xlink:href="#BitstreamVeraSans-Roman-65"/>
     <use x="2633.044921875" xlink:href="#BitstreamVeraSans-Roman-64"/>
     <use x="2696.521484375" xlink:href="#BitstreamVeraSans-Roman-20"/>
     <use x="2728.30859375" xlink:href="#BitstreamVeraSans-Roman-69"/>
     <use x="2756.091796875" xlink:href="#BitstreamVeraSans-Roman-6e"/>
     <use x="2819.470703125" xlink:href="#BitstreamVeraSans-Roman-20"/>
     <use x="2851.2578125" xlink:href="#BitstreamVeraSans-Roman-67"/>
     <use x="2914.734375" xlink:href="#BitstreamVeraSans-Roman-2e"/>
     <use x="2946.521484375" xlink:href="#BitstreamVeraSans-Roman-73"/>
     <use x="2998.62109375" xlink:href="#BitstreamVeraSans-Roman-2e"/>
    </g>
    <!-- out of 48 using exact comparison -->
    <defs>
     <path d="M 54.890625 54.6875 
L 35.109375 28.078125 
L 55.90625 0 
L 45.3125 0 
L 29.390625 21.484375 
L 13.484375 0 
L 2.875 0 
L 24.125 28.609375 
L 4.6875 54.6875 
L 15.28125 54.6875 
L 29.78125 35.203125 
L 44.28125 54.6875 
z
" id="BitstreamVeraSans-Roman-78"/>
     <path d="M 31.78125 34.625 
Q 24.75 34.625 20.71875 30.859375 
Q 16.703125 27.09375 16.703125 20.515625 
Q 16.703125 13.921875 20.71875 10.15625 
Q 24.75 6.390625 31.78125 6.390625 
Q 38.8125 6.390625 42.859375 10.171875 
Q 46.921875 13.96875 46.921875 20.515625 
Q 46.921875 27.09375 42.890625 30.859375 
Q 38.875 34.625 31.78125 34.625 
M 21.921875 38.8125 
Q 15.578125 40.375 12.03125 44.71875 
Q 8.5 49.078125 8.5 55.328125 
Q 8.5 64.0625 14.71875 69.140625 
Q 20.953125 74.21875 31.78125 74.21875 
Q 42.671875 74.21875 48.875 69.140625 
Q 55.078125 64.0625 55.078125 55.328125 
Q 55.078125 49.078125 51.53125 44.71875 
Q 48 40.375 41.703125 38.8125 
Q 48.828125 37.15625 52.796875 32.3125 
Q 56.78125 27.484375 56.78125 20.515625 
Q 56.78125 9.90625 50.3125 4.234375 
Q 43.84375 -1.421875 31.78125 -1.421875 
Q 19.734375 -1.421875 13.25 4.234375 
Q 6.78125 9.90625 6.78125 20.515625 
Q 6.78125 27.484375 10.78125 32.3125 
Q 14.796875 37.15625 21.921875 38.8125 
M 18.3125 54.390625 
Q 18.3125 48.734375 21.84375 45.5625 
Q 25.390625 42.390625 31.78125 42.390625 
Q 38.140625 42.390625 41.71875 45.5625 
Q 45.3125 48.734375 45.3125 54.390625 
Q 45.3125 60.0625 41.71875 63.234375 
Q 38.140625 66.40625 31.78125 66.40625 
Q 25.390625 66.40625 21.84375 63.234375 
Q 18.3125 60.0625 18.3125 54.390625 
" id="BitstreamVeraSans-Roman-38"/>
    </defs>
    <g transform="translate(174.493125 38.2)scale(0.144 -0.144)">
     <use xlink:href="#BitstreamVeraSans-Roman-6f"/>
     <use x="61.181640625" xlink:href="#BitstreamVeraSans-Roman-75"/>
     <use x="124.560546875" xlink:href="#BitstreamVeraSans-Roman-74"/>
     <use x="163.76953125" xlink:href="#BitstreamVeraSans-Roman-20"/>
     <use x="195.556640625" xlink:href="#BitstreamVeraSans-Roman-6f"/>
     <use x="256.73828125" xlink:href="#BitstreamVeraSans-Roman-66"/>
     <use x="291.943359375" xlink:href="#BitstreamVeraSans-Roman-20"/>
     <use x="323.73046875" xlink:href="#BitstreamVeraSans-Roman-34"/>
     <use x="387.353515625" xlink:href="#BitstreamVeraSans-Roman-38"/>
     <use x="450.9765625" xlink:href="#BitstreamVeraSans-Roman-20"/>
     <use x="482.763671875" xlink:href="#BitstreamVeraSans-Roman-75"/>
     <use x="546.142578125" xlink:href="#BitstreamVeraSans-Roman-73"/>
     <use x="598.2421875" xlink:href="#BitstreamVeraSans-Roman-69"/>
     <use x="626.025390625" xlink:href="#BitstreamVeraSans-Roman-6e"/>
     <use x="689.404296875" xlink:href="#BitstreamVeraSans-Roman-67"/>
     <use x="752.880859375" xlink:href="#BitstreamVeraSans-Roman-20"/>
     <use x="784.66796875" xlink:href="#BitstreamVeraSans-Roman-65"/>
     <use x="846.17578125" xlink:href="#BitstreamVeraSans-Roman-78"/>
     <use x="905.35546875" xlink:href="#BitstreamVeraSans-Roman-61"/>
     <use x="966.634765625" xlink:href="#BitstreamVeraSans-Roman-63"/>
     <use x="1021.615234375" xlink:href="#BitstreamVeraSans-Roman-74"/>
     <use x="1060.82421875" xlink:href="#BitstreamVeraSans-Roman-20"/>
     <use x="1092.611328125" xlink:href="#BitstreamVeraSans-Roman-63"/>
     <use x="1147.591796875" xlink:href="#BitstreamVeraSans-Roman-6f"/>
     <use x="1208.7734375" xlink:href="#BitstreamVeraSans-Roman-6d"/>
     <use x="1306.185546875" xlink:href="#BitstreamVeraSans-Roman-70"/>
     <use x="1369.662109375" xlink:href="#BitstreamVeraSans-Roman-61"/>
     <use x="1430.94140625" xlink:href="#BitstreamVeraSans-Roman-72"/>
     <use x="1472.0546875" xlink:href="#BitstreamVeraSans-Roman-69"/>
     <use x="1499.837890625" xlink:href="#BitstreamVeraSans-Roman-73"/>
     <use x="1551.9375" xlink:href="#BitstreamVeraSans-Roman-6f"/>
     <use x="1613.119140625" xlink:href="#BitstreamVeraSans-Roman-6e"/>
    </g>
   </g>
   <g id="legend_1">
    <g id="patch_7">
     <path d="M 402.316875 374.588125 
L 513.4 374.588125 
Q 515.4 374.588125 515.4 372.588125 
L 515.4 63.411875 
Q 515.4 61.411875 513.4 61.411875 
L 402.316875 61.411875 
Q 400.316875 61.411875 400.316875 63.411875 
L 400.316875 372.588125 
Q 400.316875 374.588125 402.316875 374.588125 
z
" style="fill:#4c4c4c;opacity:0.5;stroke:#4c4c4c;stroke-linejoin:miter;"/>
    </g>
    <g id="patch_8">
     <path d="M 400.316875 372.588125 
L 511.4 372.588125 
Q 513.4 372.588125 513.4 370.588125 
L 513.4 61.411875 
Q 513.4 59.411875 511.4 59.411875 
L 400.316875 59.411875 
Q 398.316875 59.411875 398.316875 61.411875 
L 398.316875 370.588125 
Q 398.316875 372.588125 400.316875 372.588125 
z
" style="fill:#ffffff;stroke:#000000;stroke-linejoin:miter;"/>
    </g>
    <g id="text_16">
     <!-- corrections in g.s. -->
     <g transform="translate(402.316875 72.53)scale(0.12 -0.12)">
      <use xlink:href="#BitstreamVeraSans-Roman-63"/>
      <use x="54.98046875" xlink:href="#BitstreamVeraSans-Roman-6f"/>
      <use x="116.162109375" xlink:href="#BitstreamVeraSans-Roman-72"/>
      <use x="157.259765625" xlink:href="#BitstreamVeraSans-Roman-72"/>
      <use x="198.341796875" xlink:href="#BitstreamVeraSans-Roman-65"/>
      <use x="259.865234375" xlink:href="#BitstreamVeraSans-Roman-63"/>
      <use x="314.845703125" xlink:href="#BitstreamVeraSans-Roman-74"/>
      <use x="354.0546875" xlink:href="#BitstreamVeraSans-Roman-69"/>
      <use x="381.837890625" xlink:href="#BitstreamVeraSans-Roman-6f"/>
      <use x="443.01953125" xlink:href="#BitstreamVeraSans-Roman-6e"/>
      <use x="506.3984375" xlink:href="#BitstreamVeraSans-Roman-73"/>
      <use x="558.498046875" xlink:href="#BitstreamVeraSans-Roman-20"/>
      <use x="590.28515625" xlink:href="#BitstreamVeraSans-Roman-69"/>
      <use x="618.068359375" xlink:href="#BitstreamVeraSans-Roman-6e"/>
      <use x="681.447265625" xlink:href="#BitstreamVeraSans-Roman-20"/>
      <use x="713.234375" xlink:href="#BitstreamVeraSans-Roman-67"/>
      <use x="776.7109375" xlink:href="#BitstreamVeraSans-Roman-2e"/>
      <use x="808.498046875" xlink:href="#BitstreamVeraSans-Roman-73"/>
      <use x="860.59765625" xlink:href="#BitstreamVeraSans-Roman-2e"/>
     </g>
    </g>
    <g id="line2d_45">
     <path d="M 438.495937 84.124062 
L 452.495937 84.124062 
" style="fill:none;stroke:#8000ff;stroke-linecap:square;"/>
    </g>
    <g id="line2d_46"/>
    <g id="text_17">
     <!-- 1 -->
     <g transform="translate(463.4959375 87.6240625)scale(0.1 -0.1)">
      <use xlink:href="#BitstreamVeraSans-Roman-31"/>
     </g>
    </g>
    <g id="line2d_47">
     <path d="M 438.495937 98.802188 
L 452.495937 98.802188 
" style="fill:none;stroke:#6629fe;stroke-linecap:square;"/>
    </g>
    <g id="line2d_48"/>
    <g id="text_18">
     <!-- 2 -->
     <g transform="translate(463.4959375 102.3021875)scale(0.1 -0.1)">
      <use xlink:href="#BitstreamVeraSans-Roman-32"/>
     </g>
    </g>
    <g id="line2d_49">
     <path d="M 438.495937 113.480312 
L 452.495937 113.480312 
" style="fill:none;stroke:#4c50fc;stroke-linecap:square;"/>
    </g>
    <g id="line2d_50"/>
    <g id="text_19">
     <!-- 3 -->
     <g transform="translate(463.4959375 116.9803125)scale(0.1 -0.1)">
      <use xlink:href="#BitstreamVeraSans-Roman-33"/>
     </g>
    </g>
    <g id="line2d_51">
     <path d="M 438.495937 128.158437 
L 452.495937 128.158437 
" style="fill:none;stroke:#3079f7;stroke-linecap:square;"/>
    </g>
    <g id="line2d_52"/>
    <g id="text_20">
     <!-- 4 -->
     <g transform="translate(463.4959375 131.6584375)scale(0.1 -0.1)">
      <use xlink:href="#BitstreamVeraSans-Roman-34"/>
     </g>
    </g>
    <g id="line2d_53">
     <path d="M 438.495937 142.836563 
L 452.495937 142.836563 
" style="fill:none;stroke:#169bf2;stroke-linecap:square;"/>
    </g>
    <g id="line2d_54"/>
    <g id="text_21">
     <!-- 5 -->
     <g transform="translate(463.4959375 146.3365625)scale(0.1 -0.1)">
      <use xlink:href="#BitstreamVeraSans-Roman-35"/>
     </g>
    </g>
    <g id="line2d_55">
     <path d="M 438.495937 157.514687 
L 452.495937 157.514687 
" style="fill:none;stroke:#07bbea;stroke-linecap:square;"/>
    </g>
    <g id="line2d_56"/>
    <g id="text_22">
     <!-- 6 -->
     <defs>
      <path d="M 33.015625 40.375 
Q 26.375 40.375 22.484375 35.828125 
Q 18.609375 31.296875 18.609375 23.390625 
Q 18.609375 15.53125 22.484375 10.953125 
Q 26.375 6.390625 33.015625 6.390625 
Q 39.65625 6.390625 43.53125 10.953125 
Q 47.40625 15.53125 47.40625 23.390625 
Q 47.40625 31.296875 43.53125 35.828125 
Q 39.65625 40.375 33.015625 40.375 
M 52.59375 71.296875 
L 52.59375 62.3125 
Q 48.875 64.0625 45.09375 64.984375 
Q 41.3125 65.921875 37.59375 65.921875 
Q 27.828125 65.921875 22.671875 59.328125 
Q 17.53125 52.734375 16.796875 39.40625 
Q 19.671875 43.65625 24.015625 45.921875 
Q 28.375 48.1875 33.59375 48.1875 
Q 44.578125 48.1875 50.953125 41.515625 
Q 57.328125 34.859375 57.328125 23.390625 
Q 57.328125 12.15625 50.6875 5.359375 
Q 44.046875 -1.421875 33.015625 -1.421875 
Q 20.359375 -1.421875 13.671875 8.265625 
Q 6.984375 17.96875 6.984375 36.375 
Q 6.984375 53.65625 15.1875 63.9375 
Q 23.390625 74.21875 37.203125 74.21875 
Q 40.921875 74.21875 44.703125 73.484375 
Q 48.484375 72.75 52.59375 71.296875 
" id="BitstreamVeraSans-Roman-36"/>
     </defs>
     <g transform="translate(463.4959375 161.0146875)scale(0.1 -0.1)">
      <use xlink:href="#BitstreamVeraSans-Roman-36"/>
     </g>
    </g>
    <g id="line2d_57">
     <path d="M 438.495937 172.192813 
L 452.495937 172.192813 
" style="fill:none;stroke:#20d5e1;stroke-linecap:square;"/>
    </g>
    <g id="line2d_58"/>
    <g id="text_23">
     <!-- 7 -->
     <defs>
      <path d="M 8.203125 72.90625 
L 55.078125 72.90625 
L 55.078125 68.703125 
L 28.609375 0 
L 18.3125 0 
L 43.21875 64.59375 
L 8.203125 64.59375 
z
" id="BitstreamVeraSans-Roman-37"/>
     </defs>
     <g transform="translate(463.4959375 175.6928125)scale(0.1 -0.1)">
      <use xlink:href="#BitstreamVeraSans-Roman-37"/>
     </g>
    </g>
    <g id="line2d_59">
     <path d="M 438.495937 186.870937 
L 452.495937 186.870937 
" style="fill:none;stroke:#3dead5;stroke-linecap:square;"/>
    </g>
    <g id="line2d_60"/>
    <g id="text_24">
     <!-- 8 -->
     <g transform="translate(463.4959375 190.3709375)scale(0.1 -0.1)">
      <use xlink:href="#BitstreamVeraSans-Roman-38"/>
     </g>
    </g>
    <g id="line2d_61">
     <path d="M 438.495937 201.549062 
L 452.495937 201.549062 
" style="fill:none;stroke:#56f7ca;stroke-linecap:square;"/>
    </g>
    <g id="line2d_62"/>
    <g id="text_25">
     <!-- 9 -->
     <defs>
      <path d="M 10.984375 1.515625 
L 10.984375 10.5 
Q 14.703125 8.734375 18.5 7.8125 
Q 22.3125 6.890625 25.984375 6.890625 
Q 35.75 6.890625 40.890625 13.453125 
Q 46.046875 20.015625 46.78125 33.40625 
Q 43.953125 29.203125 39.59375 26.953125 
Q 35.25 24.703125 29.984375 24.703125 
Q 19.046875 24.703125 12.671875 31.3125 
Q 6.296875 37.9375 6.296875 49.421875 
Q 6.296875 60.640625 12.9375 67.421875 
Q 19.578125 74.21875 30.609375 74.21875 
Q 43.265625 74.21875 49.921875 64.515625 
Q 56.59375 54.828125 56.59375 36.375 
Q 56.59375 19.140625 48.40625 8.859375 
Q 40.234375 -1.421875 26.421875 -1.421875 
Q 22.703125 -1.421875 18.890625 -0.6875 
Q 15.09375 0.046875 10.984375 1.515625 
M 30.609375 32.421875 
Q 37.25 32.421875 41.125 36.953125 
Q 45.015625 41.5 45.015625 49.421875 
Q 45.015625 57.28125 41.125 61.84375 
Q 37.25 66.40625 30.609375 66.40625 
Q 23.96875 66.40625 20.09375 61.84375 
Q 16.21875 57.28125 16.21875 49.421875 
Q 16.21875 41.5 20.09375 36.953125 
Q 23.96875 32.421875 30.609375 32.421875 
" id="BitstreamVeraSans-Roman-39"/>
     </defs>
     <g transform="translate(463.4959375 205.0490625)scale(0.1 -0.1)">
      <use xlink:href="#BitstreamVeraSans-Roman-39"/>
     </g>
    </g>
    <g id="line2d_63">
     <path d="M 438.495937 216.227187 
L 452.495937 216.227187 
" style="fill:none;stroke:#72febb;stroke-linecap:square;"/>
    </g>
    <g id="line2d_64"/>
    <g id="text_26">
     <!-- 10 -->
     <g transform="translate(463.4959375 219.7271875)scale(0.1 -0.1)">
      <use xlink:href="#BitstreamVeraSans-Roman-31"/>
      <use x="63.623046875" xlink:href="#BitstreamVeraSans-Roman-30"/>
     </g>
    </g>
    <g id="line2d_65">
     <path d="M 438.495937 230.905312 
L 452.495937 230.905312 
" style="fill:none;stroke:#8cfead;stroke-linecap:square;"/>
    </g>
    <g id="line2d_66"/>
    <g id="text_27">
     <!-- 11 -->
     <g transform="translate(463.4959375 234.4053125)scale(0.1 -0.1)">
      <use xlink:href="#BitstreamVeraSans-Roman-31"/>
      <use x="63.623046875" xlink:href="#BitstreamVeraSans-Roman-31"/>
     </g>
    </g>
    <g id="line2d_67">
     <path d="M 438.495937 245.583437 
L 452.495937 245.583437 
" style="fill:none;stroke:#a8f79c;stroke-linecap:square;"/>
    </g>
    <g id="line2d_68"/>
    <g id="text_28">
     <!-- 12 -->
     <g transform="translate(463.4959375 249.0834375)scale(0.1 -0.1)">
      <use xlink:href="#BitstreamVeraSans-Roman-31"/>
      <use x="63.623046875" xlink:href="#BitstreamVeraSans-Roman-32"/>
     </g>
    </g>
    <g id="line2d_69">
     <path d="M 438.495937 260.261562 
L 452.495937 260.261562 
" style="fill:none;stroke:#c2ea8c;stroke-linecap:square;"/>
    </g>
    <g id="line2d_70"/>
    <g id="text_29">
     <!-- 13 -->
     <g transform="translate(463.4959375 263.7615625)scale(0.1 -0.1)">
      <use xlink:href="#BitstreamVeraSans-Roman-31"/>
      <use x="63.623046875" xlink:href="#BitstreamVeraSans-Roman-33"/>
     </g>
    </g>
    <g id="line2d_71">
     <path d="M 438.495937 274.939687 
L 452.495937 274.939687 
" style="fill:none;stroke:#ded579;stroke-linecap:square;"/>
    </g>
    <g id="line2d_72"/>
    <g id="text_30">
     <!-- 14 -->
     <g transform="translate(463.4959375 278.4396875)scale(0.1 -0.1)">
      <use xlink:href="#BitstreamVeraSans-Roman-31"/>
      <use x="63.623046875" xlink:href="#BitstreamVeraSans-Roman-34"/>
     </g>
    </g>
    <g id="line2d_73">
     <path d="M 438.495937 289.617812 
L 452.495937 289.617812 
" style="fill:none;stroke:#f9bb66;stroke-linecap:square;"/>
    </g>
    <g id="line2d_74"/>
    <g id="text_31">
     <!-- 15 -->
     <g transform="translate(463.4959375 293.1178125)scale(0.1 -0.1)">
      <use xlink:href="#BitstreamVeraSans-Roman-31"/>
      <use x="63.623046875" xlink:href="#BitstreamVeraSans-Roman-35"/>
     </g>
    </g>
    <g id="line2d_75">
     <path d="M 438.495937 304.295937 
L 452.495937 304.295937 
" style="fill:none;stroke:#ff9b52;stroke-linecap:square;"/>
    </g>
    <g id="line2d_76"/>
    <g id="text_32">
     <!-- 16 -->
     <g transform="translate(463.4959375 307.7959375)scale(0.1 -0.1)">
      <use xlink:href="#BitstreamVeraSans-Roman-31"/>
      <use x="63.623046875" xlink:href="#BitstreamVeraSans-Roman-36"/>
     </g>
    </g>
    <g id="line2d_77">
     <path d="M 438.495937 318.974062 
L 452.495937 318.974062 
" style="fill:none;stroke:#ff793e;stroke-linecap:square;"/>
    </g>
    <g id="line2d_78"/>
    <g id="text_33">
     <!-- 17 -->
     <g transform="translate(463.4959375 322.4740625)scale(0.1 -0.1)">
      <use xlink:href="#BitstreamVeraSans-Roman-31"/>
      <use x="63.623046875" xlink:href="#BitstreamVeraSans-Roman-37"/>
     </g>
    </g>
    <g id="line2d_79">
     <path d="M 438.495937 333.652187 
L 452.495937 333.652187 
" style="fill:none;stroke:#ff5029;stroke-linecap:square;"/>
    </g>
    <g id="line2d_80"/>
    <g id="text_34">
     <!-- 18 -->
     <g transform="translate(463.4959375 337.1521875)scale(0.1 -0.1)">
      <use xlink:href="#BitstreamVeraSans-Roman-31"/>
      <use x="63.623046875" xlink:href="#BitstreamVeraSans-Roman-38"/>
     </g>
    </g>
    <g id="line2d_81">
     <path d="M 438.495937 348.330312 
L 452.495937 348.330312 
" style="fill:none;stroke:#ff2914;stroke-linecap:square;"/>
    </g>
    <g id="line2d_82"/>
    <g id="text_35">
     <!-- 19 -->
     <g transform="translate(463.4959375 351.8303125)scale(0.1 -0.1)">
      <use xlink:href="#BitstreamVeraSans-Roman-31"/>
      <use x="63.623046875" xlink:href="#BitstreamVeraSans-Roman-39"/>
     </g>
    </g>
    <g id="line2d_83">
     <path d="M 438.495937 363.008437 
L 452.495937 363.008437 
" style="fill:none;stroke:#ff0000;stroke-linecap:square;"/>
    </g>
    <g id="line2d_84"/>
    <g id="text_36">
     <!-- 20 -->
     <g transform="translate(463.4959375 366.5084375)scale(0.1 -0.1)">
      <use xlink:href="#BitstreamVeraSans-Roman-32"/>
      <use x="63.623046875" xlink:href="#BitstreamVeraSans-Roman-30"/>
     </g>
    </g>
   </g>
  </g>
 </g>
 <defs>
  <clipPath id="p14b0437cee">
   <rect height="345.6" width="446.4" x="72.0" y="43.2"/>
  </clipPath>
 </defs>
</svg>
