<?xml version="1.0" encoding="utf-8" standalone="no"?>
<!DOCTYPE svg PUBLIC "-//W3C//DTD SVG 1.1//EN"
  "http://www.w3.org/Graphics/SVG/1.1/DTD/svg11.dtd">
<!-- Created with matplotlib (http://matplotlib.org/) -->
<svg height="432pt" version="1.1" viewBox="0 0 576 432" width="576pt" xmlns="http://www.w3.org/2000/svg" xmlns:xlink="http://www.w3.org/1999/xlink">
 <defs>
  <style type="text/css">
*{stroke-linecap:butt;stroke-linejoin:round;stroke-miterlimit:100000;}
  </style>
 </defs>
 <g id="figure_1">
  <g id="patch_1">
   <path d="M 0 432 
L 576 432 
L 576 0 
L 0 0 
z
" style="fill:#ffffff;"/>
  </g>
  <g id="axes_1">
   <g id="patch_2">
    <path d="M 72 388.8 
L 518.4 388.8 
L 518.4 43.2 
L 72 43.2 
z
" style="fill:#ffffff;"/>
   </g>
   <g id="line2d_1">
    <path clip-path="url(#p5b6658172c)" d="M 72 388.8 
L 94.32 382.292972 
L 116.64 375.735432 
L 138.96 370.602335 
L 161.28 366.273546 
L 183.6 360.93609 
L 205.92 356.308788 
L 228.24 350.30981 
L 250.56 346.722747 
L 272.88 342.198028 
L 295.2 338.254833 
L 317.52 333.483069 
L 339.84 329.288843 
L 362.16 325.686196 
L 384.48 321.06156 
L 406.8 316.508503 
L 429.12 312.049224 
L 451.44 308.939396 
L 473.76 306.494343 
L 496.08 303.076124 
L 518.4 300.663326 
" style="fill:none;stroke:#8000ff;stroke-linecap:square;"/>
   </g>
   <g id="line2d_2">
    <path clip-path="url(#p5b6658172c)" d="M 72 388.8 
L 94.32 344.428152 
L 116.64 322.400104 
L 138.96 297.580398 
L 161.28 270.028999 
L 183.6 259.397252 
L 205.92 248.309684 
L 228.24 241.188033 
L 250.56 233.308163 
L 272.88 230.30084 
L 295.2 224.551066 
L 317.52 219.667499 
L 339.84 218.340107 
L 362.16 213.414374 
L 384.48 210.059525 
L 406.8 207.14671 
L 429.12 203.879653 
L 451.44 200.775594 
L 473.76 197.620696 
L 496.08 194.582603 
L 518.4 191.473772 
" style="fill:none;stroke:#7610ff;stroke-linecap:square;"/>
   </g>
   <g id="line2d_3">
    <path clip-path="url(#p5b6658172c)" d="M 72 388.8 
L 94.32 378.959017 
L 116.64 368.490353 
L 138.96 357.842822 
L 161.28 349.322671 
L 183.6 339.347165 
L 205.92 330.883713 
L 228.24 322.709662 
L 250.56 314.107903 
L 272.88 306.264924 
L 295.2 297.724048 
L 317.52 289.855711 
L 339.84 281.224238 
L 362.16 275.45614 
L 384.48 268.224542 
L 406.8 258.982214 
L 429.12 251.684525 
L 451.44 245.089381 
L 473.76 238.923673 
L 496.08 231.728291 
L 518.4 225.905486 
" style="fill:none;stroke:#6c1fff;stroke-linecap:square;"/>
   </g>
   <g id="line2d_4">
    <path clip-path="url(#p5b6658172c)" d="M 72 388.8 
L 94.32 353.83399 
L 116.64 324.194018 
L 138.96 297.741641 
L 161.28 274.389185 
L 183.6 247.362846 
L 205.92 235.863644 
L 228.24 215.80754 
L 250.56 207.100115 
L 272.88 198.753174 
L 295.2 192.574691 
L 317.52 183.80942 
L 339.84 179.096173 
L 362.16 178.489532 
L 384.48 175.980471 
L 406.8 175.949782 
L 429.12 172.171824 
L 451.44 170.440409 
L 473.76 169.943341 
L 496.08 168.64517 
L 518.4 167.991956 
" style="fill:none;stroke:#6032fe;stroke-linecap:square;"/>
   </g>
   <g id="line2d_5">
    <path clip-path="url(#p5b6658172c)" d="M 72 388.8 
L 94.32 313.719504 
L 116.64 259.186583 
L 138.96 218.193295 
L 161.28 190.509224 
L 183.6 173.426914 
L 205.92 163.246117 
L 228.24 151.013964 
L 250.56 141.223957 
L 272.88 132.721501 
L 295.2 127.163738 
L 317.52 122.194304 
L 339.84 118.483589 
L 362.16 116.075856 
L 384.48 114.851045 
L 406.8 114.320081 
L 429.12 113.875559 
L 451.44 113.701602 
L 473.76 113.777639 
L 496.08 113.711441 
L 518.4 113.404489 
" style="fill:none;stroke:#5641fd;stroke-linecap:square;"/>
   </g>
   <g id="line2d_6">
    <path clip-path="url(#p5b6658172c)" d="M 72 388.8 
L 94.32 341.487031 
L 116.64 306.708905 
L 138.96 268.12357 
L 161.28 247.717179 
L 183.6 226.527253 
L 205.92 212.474046 
L 228.24 203.859038 
L 250.56 194.367871 
L 272.88 190.397494 
L 295.2 183.273416 
L 317.52 177.921726 
L 339.84 177.31809 
L 362.16 173.05637 
L 384.48 171.113542 
L 406.8 168.145722 
L 429.12 166.159661 
L 451.44 162.968864 
L 473.76 161.767849 
L 496.08 159.785559 
L 518.4 158.125152 
" style="fill:none;stroke:#4a53fb;stroke-linecap:square;"/>
   </g>
   <g id="line2d_7">
    <path clip-path="url(#p5b6658172c)" d="M 72 388.8 
L 94.32 368.723477 
L 116.64 356.808361 
L 138.96 340.956257 
L 161.28 327.631908 
L 183.6 318.892749 
L 205.92 307.047659 
L 228.24 295.133009 
L 250.56 287.536341 
L 272.88 279.320726 
L 295.2 271.218088 
L 317.52 264.568989 
L 339.84 257.801754 
L 362.16 253.09252 
L 384.48 245.836974 
L 406.8 238.671025 
L 429.12 235.069203 
L 451.44 230.344058 
L 473.76 226.39574 
L 496.08 221.098025 
L 518.4 219.661379 
" style="fill:none;stroke:#4062fa;stroke-linecap:square;"/>
   </g>
   <g id="line2d_8">
    <path clip-path="url(#p5b6658172c)" d="M 72 388.8 
L 94.32 362.022845 
L 116.64 346.198493 
L 138.96 325.691019 
L 161.28 312.646573 
L 183.6 301.998706 
L 205.92 291.019932 
L 228.24 282.308431 
L 250.56 273.841965 
L 272.88 267.511561 
L 295.2 260.421144 
L 317.52 253.19489 
L 339.84 248.295577 
L 362.16 243.851461 
L 384.48 233.91775 
L 406.8 230.939482 
L 429.12 228.637355 
L 451.44 221.645634 
L 473.76 221.783476 
L 496.08 217.953012 
L 518.4 215.019653 
" style="fill:none;stroke:#3473f8;stroke-linecap:square;"/>
   </g>
   <g id="line2d_9">
    <path clip-path="url(#p5b6658172c)" d="M 72 388.8 
L 94.32 273.117189 
L 116.64 199.96374 
L 138.96 177.628176 
L 161.28 163.557338 
L 183.6 162.145312 
L 205.92 159.657971 
L 228.24 158.362732 
L 250.56 157.068149 
L 272.88 155.754507 
L 295.2 154.460562 
L 317.52 153.162077 
L 339.84 151.86148 
L 362.16 150.558513 
L 384.48 149.25257 
L 406.8 147.946834 
L 429.12 146.654745 
L 451.44 145.359827 
L 473.76 144.053646 
L 496.08 142.755545 
L 518.4 141.461596 
" style="fill:none;stroke:#2981f6;stroke-linecap:square;"/>
   </g>
   <g id="line2d_10">
    <path clip-path="url(#p5b6658172c)" d="M 72 388.8 
L 94.32 271.172703 
L 116.64 221.662553 
L 138.96 205.040609 
L 161.28 196.002647 
L 183.6 193.498689 
L 205.92 190.211936 
L 228.24 188.992796 
L 250.56 188.151886 
L 272.88 187.316536 
L 295.2 186.480064 
L 317.52 185.641197 
L 339.84 184.79755 
L 362.16 183.964629 
L 384.48 183.122581 
L 406.8 182.298821 
L 429.12 181.460013 
L 451.44 180.6197 
L 473.76 179.793845 
L 496.08 178.943401 
L 518.4 178.108236 
" style="fill:none;stroke:#1e91f3;stroke-linecap:square;"/>
   </g>
   <g id="line2d_11">
    <path clip-path="url(#p5b6658172c)" d="M 72 388.8 
L 94.32 278.554569 
L 116.64 186.306129 
L 138.96 166.502902 
L 161.28 151.779892 
L 183.6 143.970097 
L 205.92 140.932284 
L 228.24 138.994941 
L 250.56 137.043656 
L 272.88 135.103186 
L 295.2 133.155984 
L 317.52 131.21098 
L 339.84 129.255704 
L 362.16 127.307831 
L 384.48 125.372764 
L 406.8 123.438826 
L 429.12 121.489415 
L 451.44 119.53546 
L 473.76 117.580635 
L 496.08 115.650497 
L 518.4 113.698306 
" style="fill:none;stroke:#149df1;stroke-linecap:square;"/>
   </g>
   <g id="line2d_12">
    <path clip-path="url(#p5b6658172c)" d="M 72 388.8 
L 94.32 301.349514 
L 116.64 254.105052 
L 138.96 225.300577 
L 161.28 207.440076 
L 183.6 198.537857 
L 205.92 190.889537 
L 228.24 186.820964 
L 250.56 182.74946 
L 272.88 179.233759 
L 295.2 175.773763 
L 317.52 172.269073 
L 339.84 168.804919 
L 362.16 165.321812 
L 384.48 161.828536 
L 406.8 158.35393 
L 429.12 154.875201 
L 451.44 151.396657 
L 473.76 147.906476 
L 496.08 144.42024 
L 518.4 140.928275 
" style="fill:none;stroke:#09a9ee;stroke-linecap:square;"/>
   </g>
   <g id="line2d_13">
    <path clip-path="url(#p5b6658172c)" d="M 72 388.8 
L 94.32 367.940848 
L 116.64 350.333142 
L 138.96 334.733228 
L 161.28 317.534173 
L 183.6 303.216772 
L 205.92 288.891529 
L 228.24 273.774572 
L 250.56 261.559072 
L 272.88 253.344529 
L 295.2 244.684888 
L 317.52 236.834423 
L 339.84 233.061118 
L 362.16 224.453893 
L 384.48 220.08303 
L 406.8 215.762665 
L 429.12 212.797211 
L 451.44 208.434387 
L 473.76 205.859041 
L 496.08 205.911741 
L 518.4 202.892824 
" style="fill:none;stroke:#02b7eb;stroke-linecap:square;"/>
   </g>
   <g id="line2d_14">
    <path clip-path="url(#p5b6658172c)" d="M 72 388.8 
L 94.32 362.494635 
L 116.64 340.317782 
L 138.96 327.050552 
L 161.28 321.333491 
L 183.6 313.301682 
L 205.92 304.378542 
L 228.24 302.225389 
L 250.56 297.401465 
L 272.88 291.135107 
L 295.2 289.481781 
L 317.52 285.9887 
L 339.84 284.408231 
L 362.16 282.106631 
L 384.48 279.746639 
L 406.8 278.229742 
L 429.12 274.859395 
L 451.44 273.286464 
L 473.76 270.573396 
L 496.08 268.858671 
L 518.4 267.360203 
" style="fill:none;stroke:#0dc2e8;stroke-linecap:square;"/>
   </g>
   <g id="line2d_15">
    <path clip-path="url(#p5b6658172c)" d="M 72 388.8 
L 94.32 338.725189 
L 116.64 312.756516 
L 138.96 288.530447 
L 161.28 280.197845 
L 183.6 264.129912 
L 205.92 260.140447 
L 228.24 253.852521 
L 250.56 249.50677 
L 272.88 243.341536 
L 295.2 239.45008 
L 317.52 236.666024 
L 339.84 232.481485 
L 362.16 229.577998 
L 384.48 226.527479 
L 406.8 221.954755 
L 429.12 220.042947 
L 451.44 216.485835 
L 473.76 212.522228 
L 496.08 209.647504 
L 518.4 207.253936 
" style="fill:none;stroke:#18cde4;stroke-linecap:square;"/>
   </g>
   <g id="line2d_16">
    <path clip-path="url(#p5b6658172c)" d="M 72 388.8 
L 94.32 249.694443 
L 116.64 218.8943 
L 138.96 198.124715 
L 161.28 191.971079 
L 183.6 185.048113 
L 205.92 179.471696 
L 228.24 175.075987 
L 250.56 170.016356 
L 272.88 165.741776 
L 295.2 161.049562 
L 317.52 155.422185 
L 339.84 150.638983 
L 362.16 146.42653 
L 384.48 141.30948 
L 406.8 137.353463 
L 429.12 133.220956 
L 451.44 132.453555 
L 473.76 127.341086 
L 496.08 125.453767 
L 518.4 122.514587 
" style="fill:none;stroke:#22d6e0;stroke-linecap:square;"/>
   </g>
   <g id="line2d_17">
    <path clip-path="url(#p5b6658172c)" d="M 72 388.8 
L 94.32 317.636698 
L 116.64 270.293935 
L 138.96 244.161579 
L 161.28 220.360903 
L 183.6 210.425751 
L 205.92 194.015739 
L 228.24 190.605175 
L 250.56 185.485392 
L 272.88 181.7639 
L 295.2 175.647247 
L 317.52 174.384003 
L 339.84 170.698742 
L 362.16 170.186965 
L 384.48 167.124895 
L 406.8 164.782799 
L 429.12 163.791476 
L 451.44 163.263576 
L 473.76 163.311999 
L 496.08 162.411995 
L 518.4 160.679155 
" style="fill:none;stroke:#2fe0db;stroke-linecap:square;"/>
   </g>
   <g id="line2d_18">
    <path clip-path="url(#p5b6658172c)" d="M 72 388.8 
L 94.32 375.693501 
L 116.64 365.097673 
L 138.96 353.875193 
L 161.28 345.066316 
L 183.6 334.811354 
L 205.92 327.511468 
L 228.24 317.479754 
L 250.56 310.96268 
L 272.88 302.098274 
L 295.2 296.747439 
L 317.52 291.937273 
L 339.84 285.279751 
L 362.16 279.866595 
L 384.48 278.365032 
L 406.8 273.573773 
L 429.12 266.710402 
L 451.44 265.412656 
L 473.76 259.466988 
L 496.08 256.679213 
L 518.4 251.965727 
" style="fill:none;stroke:#38e7d7;stroke-linecap:square;"/>
   </g>
   <g id="line2d_19">
    <path clip-path="url(#p5b6658172c)" d="M 72 388.8 
L 94.32 371.535926 
L 116.64 355.841132 
L 138.96 342.194598 
L 161.28 327.813833 
L 183.6 313.952168 
L 205.92 302.315332 
L 228.24 290.066127 
L 250.56 280.489853 
L 272.88 271.374571 
L 295.2 260.824851 
L 317.52 253.210337 
L 339.84 246.786331 
L 362.16 240.149948 
L 384.48 234.072839 
L 406.8 227.001154 
L 429.12 219.797001 
L 451.44 215.732877 
L 473.76 210.197272 
L 496.08 204.556996 
L 518.4 198.96332 
" style="fill:none;stroke:#44eed2;stroke-linecap:square;"/>
   </g>
   <g id="line2d_20">
    <path clip-path="url(#p5b6658172c)" d="M 72 388.8 
L 94.32 357.410269 
L 116.64 324.749751 
L 138.96 292.343933 
L 161.28 257.409788 
L 183.6 235.940878 
L 205.92 199.671069 
L 228.24 180.450787 
L 250.56 159.587312 
L 272.88 148.725346 
L 295.2 133.119156 
L 317.52 123.172752 
L 339.84 115.527535 
L 362.16 107.596171 
L 384.48 100.8 
L 406.8 100.8 
L 429.12 100.8 
L 451.44 100.8 
L 473.76 100.8 
L 496.08 100.8 
L 518.4 100.8 
" style="fill:none;stroke:#4ef3cd;stroke-linecap:square;"/>
   </g>
   <g id="line2d_21">
    <path clip-path="url(#p5b6658172c)" d="M 72 388.8 
L 94.32 279.216133 
L 116.64 195.714576 
L 138.96 174.482539 
L 161.28 163.133514 
L 183.6 154.314135 
L 205.92 150.354719 
L 228.24 146.740341 
L 250.56 143.97391 
L 272.88 142.858336 
L 295.2 141.284277 
L 317.52 140.205135 
L 339.84 138.721197 
L 362.16 138.27436 
L 384.48 135.988263 
L 406.8 136.058213 
L 429.12 134.376874 
L 451.44 134.403103 
L 473.76 133.460148 
L 496.08 133.139412 
L 518.4 133.163695 
" style="fill:none;stroke:#58f8c9;stroke-linecap:square;"/>
   </g>
   <g id="line2d_22">
    <path clip-path="url(#p5b6658172c)" d="M 72 388.8 
L 94.32 308.702375 
L 116.64 274.208625 
L 138.96 250.239081 
L 161.28 238.360496 
L 183.6 232.589245 
L 205.92 222.053672 
L 228.24 217.436871 
L 250.56 215.323506 
L 272.88 210.216991 
L 295.2 207.506681 
L 317.52 206.32854 
L 339.84 202.639143 
L 362.16 198.600754 
L 384.48 197.650895 
L 406.8 196.691094 
L 429.12 192.43391 
L 451.44 191.754699 
L 473.76 188.130241 
L 496.08 187.356072 
L 518.4 186.523167 
" style="fill:none;stroke:#64fbc3;stroke-linecap:square;"/>
   </g>
   <g id="line2d_23">
    <path clip-path="url(#p5b6658172c)" d="M 72 388.8 
L 94.32 314.936866 
L 116.64 256.588013 
L 138.96 226.837021 
L 161.28 205.998713 
L 183.6 191.29305 
L 205.92 185.172666 
L 228.24 173.882554 
L 250.56 172.604379 
L 272.88 169.398409 
L 295.2 165.709433 
L 317.52 163.39829 
L 339.84 160.107255 
L 362.16 161.934974 
L 384.48 160.231259 
L 406.8 156.857174 
L 429.12 158.166991 
L 451.44 157.204118 
L 473.76 156.021524 
L 496.08 156.093073 
L 518.4 154.778132 
" style="fill:none;stroke:#6efebe;stroke-linecap:square;"/>
   </g>
   <g id="line2d_24">
    <path clip-path="url(#p5b6658172c)" d="M 72 388.8 
L 94.32 362.26815 
L 116.64 338.899849 
L 138.96 314.538551 
L 161.28 293.785938 
L 183.6 271.683322 
L 205.92 249.849132 
L 228.24 230.391561 
L 250.56 211.863345 
L 272.88 199.385311 
L 295.2 179.819162 
L 317.52 161.303166 
L 339.84 155.116325 
L 362.16 142.322621 
L 384.48 135.730071 
L 406.8 131.303158 
L 429.12 127.177968 
L 451.44 123.71669 
L 473.76 121.832127 
L 496.08 120.061144 
L 518.4 118.111237 
" style="fill:none;stroke:#7affb7;stroke-linecap:square;"/>
   </g>
   <g id="line2d_25">
    <path clip-path="url(#p5b6658172c)" d="M 72 388.8 
L 94.32 303.28969 
L 116.64 254.494909 
L 138.96 225.359883 
L 161.28 211.439176 
L 183.6 200.066737 
L 205.92 196.097608 
L 228.24 188.709747 
L 250.56 184.722027 
L 272.88 180.570665 
L 295.2 177.528689 
L 317.52 174.415199 
L 339.84 173.13512 
L 362.16 169.094526 
L 384.48 167.974884 
L 406.8 164.728001 
L 429.12 163.245065 
L 451.44 162.298974 
L 473.76 159.201988 
L 496.08 157.668176 
L 518.4 154.790597 
" style="fill:none;stroke:#84ffb2;stroke-linecap:square;"/>
   </g>
   <g id="line2d_26">
    <path clip-path="url(#p5b6658172c)" d="M 72 388.8 
L 94.32 241.791076 
L 116.64 178.305688 
L 138.96 161.050976 
L 161.28 149.996678 
L 183.6 147.701573 
L 205.92 146.013877 
L 228.24 144.321451 
L 250.56 142.622233 
L 272.88 140.924996 
L 295.2 139.221019 
L 317.52 137.537426 
L 339.84 135.834945 
L 362.16 134.132417 
L 384.48 132.443577 
L 406.8 130.731085 
L 429.12 129.036253 
L 451.44 127.367934 
L 473.76 125.655542 
L 496.08 123.950015 
L 518.4 122.265141 
" style="fill:none;stroke:#90feab;stroke-linecap:square;"/>
   </g>
   <g id="line2d_27">
    <path clip-path="url(#p5b6658172c)" d="M 72 388.8 
L 94.32 386.815455 
L 116.64 385.062894 
L 138.96 383.340224 
L 161.28 381.70349 
L 183.6 379.880106 
L 205.92 378.335365 
L 228.24 376.734789 
L 250.56 374.747785 
L 272.88 373.372148 
L 295.2 372.184716 
L 317.52 370.072374 
L 339.84 368.119824 
L 362.16 366.343976 
L 384.48 365.27039 
L 406.8 363.378205 
L 429.12 361.866373 
L 451.44 360.467178 
L 473.76 358.538255 
L 496.08 357.346153 
L 518.4 355.361869 
" style="fill:none;stroke:#9bfba5;stroke-linecap:square;"/>
   </g>
   <g id="line2d_28">
    <path clip-path="url(#p5b6658172c)" d="M 72 388.8 
L 94.32 378.642975 
L 116.64 371.080124 
L 138.96 361.793815 
L 161.28 353.175232 
L 183.6 343.54756 
L 205.92 336.784858 
L 228.24 332.002628 
L 250.56 320.577228 
L 272.88 315.534265 
L 295.2 307.302071 
L 317.52 301.228265 
L 339.84 297.03382 
L 362.16 288.534875 
L 384.48 281.516789 
L 406.8 282.129822 
L 429.12 278.036051 
L 451.44 269.69347 
L 473.76 265.031664 
L 496.08 261.946218 
L 518.4 256.936485 
" style="fill:none;stroke:#a6f89d;stroke-linecap:square;"/>
   </g>
   <g id="line2d_29">
    <path clip-path="url(#p5b6658172c)" d="M 72 388.8 
L 94.32 292.280459 
L 116.64 245.002763 
L 138.96 212.025581 
L 161.28 202.848507 
L 183.6 193.724683 
L 205.92 190.620425 
L 228.24 186.220886 
L 250.56 182.246251 
L 272.88 178.764018 
L 295.2 175.25961 
L 317.52 171.769217 
L 339.84 168.323401 
L 362.16 164.820265 
L 384.48 161.31932 
L 406.8 157.87017 
L 429.12 154.38653 
L 451.44 150.883316 
L 473.76 147.403366 
L 496.08 143.913678 
L 518.4 140.427355 
" style="fill:none;stroke:#b0f397;stroke-linecap:square;"/>
   </g>
   <g id="line2d_30">
    <path clip-path="url(#p5b6658172c)" d="M 72 388.8 
L 94.32 353.841237 
L 116.64 324.97476 
L 138.96 300.89313 
L 161.28 277.860502 
L 183.6 255.026568 
L 205.92 236.283956 
L 228.24 222.849294 
L 250.56 206.588958 
L 272.88 197.617016 
L 295.2 187.925488 
L 317.52 177.887084 
L 339.84 172.270986 
L 362.16 167.003283 
L 384.48 163.96693 
L 406.8 158.61861 
L 429.12 156.111026 
L 451.44 152.210589 
L 473.76 150.38226 
L 496.08 147.856346 
L 518.4 145.396867 
" style="fill:none;stroke:#bbee91;stroke-linecap:square;"/>
   </g>
   <g id="line2d_31">
    <path clip-path="url(#p5b6658172c)" d="M 72 388.8 
L 94.32 349.369501 
L 116.64 321.896025 
L 138.96 290.91234 
L 161.28 277.118343 
L 183.6 259.303092 
L 205.92 239.324279 
L 228.24 229.205685 
L 250.56 223.348511 
L 272.88 218.464737 
L 295.2 211.262108 
L 317.52 210.336833 
L 339.84 207.012139 
L 362.16 205.340017 
L 384.48 202.782059 
L 406.8 201.62564 
L 429.12 199.866517 
L 451.44 198.407651 
L 473.76 197.531079 
L 496.08 196.009205 
L 518.4 194.023188 
" style="fill:none;stroke:#c6e789;stroke-linecap:square;"/>
   </g>
   <g id="line2d_32">
    <path clip-path="url(#p5b6658172c)" d="M 72 388.8 
L 94.32 378.932651 
L 116.64 372.03661 
L 138.96 360.734574 
L 161.28 352.570257 
L 183.6 347.832069 
L 205.92 340.41758 
L 228.24 334.818803 
L 250.56 327.050399 
L 272.88 324.638248 
L 295.2 318.302 
L 317.52 317.600441 
L 339.84 313.315801 
L 362.16 307.806011 
L 384.48 304.084252 
L 406.8 302.859947 
L 429.12 301.699081 
L 451.44 299.346391 
L 473.76 297.356857 
L 496.08 296.36608 
L 518.4 293.211017 
" style="fill:none;stroke:#d0e082;stroke-linecap:square;"/>
   </g>
   <g id="line2d_33">
    <path clip-path="url(#p5b6658172c)" d="M 72 388.8 
L 94.32 340.779532 
L 116.64 294.963323 
L 138.96 254.526141 
L 161.28 240.002923 
L 183.6 225.843631 
L 205.92 214.288423 
L 228.24 205.677004 
L 250.56 197.165225 
L 272.88 190.50948 
L 295.2 185.53797 
L 317.52 180.256048 
L 339.84 174.376295 
L 362.16 169.404772 
L 384.48 164.122884 
L 406.8 158.996162 
L 429.12 153.869478 
L 451.44 148.742764 
L 473.76 143.616068 
L 496.08 138.489342 
L 518.4 133.362652 
" style="fill:none;stroke:#dcd67a;stroke-linecap:square;"/>
   </g>
   <g id="line2d_34">
    <path clip-path="url(#p5b6658172c)" d="M 72 388.8 
L 94.32 266.690201 
L 116.64 217.471753 
L 138.96 200.494011 
L 161.28 185.270297 
L 183.6 180.624827 
L 205.92 175.694168 
L 228.24 171.191274 
L 250.56 166.973535 
L 272.88 162.755794 
L 295.2 158.53808 
L 317.52 154.32032 
L 339.84 150.102568 
L 362.16 145.884827 
L 384.48 141.667094 
L 406.8 137.449345 
L 429.12 133.231624 
L 451.44 129.013881 
L 473.76 124.796155 
L 496.08 120.578405 
L 518.4 116.360672 
" style="fill:none;stroke:#e6cd73;stroke-linecap:square;"/>
   </g>
   <g id="line2d_35">
    <path clip-path="url(#p5b6658172c)" d="M 72 388.8 
L 94.32 353.022062 
L 116.64 335.629929 
L 138.96 316.01458 
L 161.28 304.544188 
L 183.6 289.341447 
L 205.92 285.550262 
L 228.24 281.611703 
L 250.56 279.823399 
L 272.88 273.836074 
L 295.2 272.982142 
L 317.52 272.366779 
L 339.84 270.561861 
L 362.16 270.340656 
L 384.48 268.784249 
L 406.8 268.51728 
L 429.12 268.851271 
L 451.44 267.843279 
L 473.76 267.504608 
L 496.08 267.827175 
L 518.4 266.267156 
" style="fill:none;stroke:#f2c26b;stroke-linecap:square;"/>
   </g>
   <g id="line2d_36">
    <path clip-path="url(#p5b6658172c)" d="M 72 388.8 
L 94.32 334.056136 
L 116.64 291.217482 
L 138.96 256.829775 
L 161.28 223.413023 
L 183.6 207.399695 
L 205.92 195.224086 
L 228.24 188.974046 
L 250.56 181.326704 
L 272.88 174.522466 
L 295.2 170.185563 
L 317.52 167.854913 
L 339.84 166.104154 
L 362.16 163.846775 
L 384.48 160.860616 
L 406.8 158.528025 
L 429.12 156.211403 
L 451.44 153.868827 
L 473.76 151.531929 
L 496.08 149.204595 
L 518.4 146.874313 
" style="fill:none;stroke:#fcb763;stroke-linecap:square;"/>
   </g>
   <g id="line2d_37">
    <path clip-path="url(#p5b6658172c)" d="M 72 388.8 
L 94.32 362.608019 
L 116.64 334.494169 
L 138.96 310.188237 
L 161.28 281.693322 
L 183.6 263.118553 
L 205.92 242.680672 
L 228.24 225.627792 
L 250.56 212.09891 
L 272.88 198.538194 
L 295.2 185.655426 
L 317.52 175.293285 
L 339.84 167.70934 
L 362.16 163.862873 
L 384.48 155.008571 
L 406.8 151.555784 
L 429.12 147.171762 
L 451.44 144.916653 
L 473.76 143.202348 
L 496.08 139.741613 
L 518.4 137.447334 
" style="fill:none;stroke:#ffa95b;stroke-linecap:square;"/>
   </g>
   <g id="line2d_38">
    <path clip-path="url(#p5b6658172c)" d="M 72 388.8 
L 94.32 254.007386 
L 116.64 193.575514 
L 138.96 170.68388 
L 161.28 160.581564 
L 183.6 153.842017 
L 205.92 151.393929 
L 228.24 147.898808 
L 250.56 146.054996 
L 272.88 142.581629 
L 295.2 142.846765 
L 317.52 139.107529 
L 339.84 139.184009 
L 362.16 137.935903 
L 384.48 138.649071 
L 406.8 136.69818 
L 429.12 136.705136 
L 451.44 135.69303 
L 473.76 135.31592 
L 496.08 135.369613 
L 518.4 135.397459 
" style="fill:none;stroke:#ff9d53;stroke-linecap:square;"/>
   </g>
   <g id="line2d_39">
    <path clip-path="url(#p5b6658172c)" d="M 72 388.8 
L 94.32 316.423349 
L 116.64 285.614265 
L 138.96 257.464877 
L 161.28 243.123865 
L 183.6 231.08028 
L 205.92 223.245052 
L 228.24 216.326085 
L 250.56 207.929575 
L 272.88 201.719305 
L 295.2 197.99619 
L 317.52 194.930281 
L 339.84 193.573686 
L 362.16 191.452329 
L 384.48 187.568332 
L 406.8 185.457163 
L 429.12 185.036708 
L 451.44 182.392968 
L 473.76 182.908003 
L 496.08 181.730634 
L 518.4 179.949153 
" style="fill:none;stroke:#ff914c;stroke-linecap:square;"/>
   </g>
   <g id="line2d_40">
    <path clip-path="url(#p5b6658172c)" d="M 72 388.8 
L 94.32 354.63753 
L 116.64 333.558534 
L 138.96 310.274519 
L 161.28 289.597767 
L 183.6 270.011959 
L 205.92 260.496317 
L 228.24 246.887591 
L 250.56 237.775891 
L 272.88 228.871516 
L 295.2 214.953694 
L 317.52 207.097277 
L 339.84 198.441102 
L 362.16 193.45773 
L 384.48 188.61597 
L 406.8 184.557518 
L 429.12 180.73886 
L 451.44 178.705844 
L 473.76 174.557958 
L 496.08 173.426914 
L 518.4 169.043835 
" style="fill:none;stroke:#ff8143;stroke-linecap:square;"/>
   </g>
   <g id="line2d_41">
    <path clip-path="url(#p5b6658172c)" d="M 72 388.8 
L 94.32 332.464177 
L 116.64 282.718534 
L 138.96 243.890063 
L 161.28 223.042908 
L 183.6 202.006948 
L 205.92 190.760082 
L 228.24 185.866733 
L 250.56 177.16384 
L 272.88 172.9192 
L 295.2 170.879102 
L 317.52 169.891174 
L 339.84 168.806948 
L 362.16 166.985497 
L 384.48 165.505897 
L 406.8 165.022981 
L 429.12 164.262745 
L 451.44 162.213166 
L 473.76 161.759984 
L 496.08 160.91964 
L 518.4 160.363685 
" style="fill:none;stroke:#ff733b;stroke-linecap:square;"/>
   </g>
   <g id="line2d_42">
    <path clip-path="url(#p5b6658172c)" d="M 72 388.8 
L 94.32 378.959747 
L 116.64 371.317578 
L 138.96 362.067847 
L 161.28 354.685238 
L 183.6 346.475601 
L 205.92 338.862771 
L 228.24 330.630609 
L 250.56 322.051035 
L 272.88 314.262602 
L 295.2 307.621522 
L 317.52 300.202625 
L 339.84 295.072889 
L 362.16 288.406014 
L 384.48 280.92303 
L 406.8 273.39339 
L 429.12 269.015114 
L 451.44 263.723423 
L 473.76 256.947718 
L 496.08 255.18827 
L 518.4 248.230492 
" style="fill:none;stroke:#ff6232;stroke-linecap:square;"/>
   </g>
   <g id="line2d_43">
    <path clip-path="url(#p5b6658172c)" d="M 72 388.8 
L 94.32 199.131504 
L 116.64 149.028417 
L 138.96 133.930802 
L 161.28 130.527955 
L 183.6 127.619356 
L 205.92 124.699432 
L 228.24 121.801606 
L 250.56 118.897214 
L 272.88 115.987523 
L 295.2 113.097794 
L 317.52 110.169062 
L 339.84 107.254412 
L 362.16 104.356889 
L 384.48 101.457905 
L 406.8 100.8 
L 429.12 100.8 
L 451.44 100.8 
L 473.76 100.8 
L 496.08 100.8 
L 518.4 100.8 
" style="fill:none;stroke:#ff532a;stroke-linecap:square;"/>
   </g>
   <g id="line2d_44">
    <path clip-path="url(#p5b6658172c)" d="M 72 388.8 
L 94.32 381.720627 
L 116.64 375.762955 
L 138.96 368.33203 
L 161.28 360.77325 
L 183.6 354.32918 
L 205.92 346.740386 
L 228.24 339.23189 
L 250.56 333.664571 
L 272.88 327.130744 
L 295.2 320.050072 
L 317.52 315.299846 
L 339.84 308.450931 
L 362.16 299.912319 
L 384.48 294.370082 
L 406.8 289.559059 
L 429.12 283.305833 
L 451.44 276.860915 
L 473.76 271.250153 
L 496.08 266.293266 
L 518.4 259.069713 
" style="fill:none;stroke:#ff4121;stroke-linecap:square;"/>
   </g>
   <g id="line2d_45">
    <path clip-path="url(#p5b6658172c)" d="M 72 388.8 
L 94.32 369.9608 
L 116.64 356.483599 
L 138.96 342.8921 
L 161.28 327.123027 
L 183.6 316.064128 
L 205.92 304.652232 
L 228.24 293.659652 
L 250.56 284.377299 
L 272.88 275.859965 
L 295.2 268.353016 
L 317.52 257.549832 
L 339.84 252.936581 
L 362.16 249.65769 
L 384.48 243.274514 
L 406.8 234.583894 
L 429.12 230.550762 
L 451.44 225.768721 
L 473.76 220.744078 
L 496.08 217.968592 
L 518.4 214.887454 
" style="fill:none;stroke:#ff3219;stroke-linecap:square;"/>
   </g>
   <g id="line2d_46">
    <path clip-path="url(#p5b6658172c)" d="M 72 388.8 
L 94.32 267.479999 
L 116.64 169.535381 
L 138.96 145.145481 
L 161.28 136.623693 
L 183.6 135.52058 
L 205.92 135.46298 
L 228.24 135.405379 
L 250.56 135.347779 
L 272.88 135.290178 
L 295.2 135.232578 
L 317.52 135.174977 
L 339.84 135.117376 
L 362.16 135.059775 
L 384.48 135.002175 
L 406.8 134.944574 
L 429.12 134.886974 
L 451.44 134.829373 
L 473.76 134.771773 
L 496.08 134.714172 
L 518.4 134.656572 
" style="fill:none;stroke:#ff1f10;stroke-linecap:square;"/>
   </g>
   <g id="line2d_47">
    <path clip-path="url(#p5b6658172c)" d="M 72 388.8 
L 94.32 372.985816 
L 116.64 359.314436 
L 138.96 348.077472 
L 161.28 335.220112 
L 183.6 323.757865 
L 205.92 314.164125 
L 228.24 301.714409 
L 250.56 292.362119 
L 272.88 282.21149 
L 295.2 274.753253 
L 317.52 267.458741 
L 339.84 260.712544 
L 362.16 253.21464 
L 384.48 251.240979 
L 406.8 244.527805 
L 429.12 240.799551 
L 451.44 236.849231 
L 473.76 231.522463 
L 496.08 230.312659 
L 518.4 227.103726 
" style="fill:none;stroke:#ff1008;stroke-linecap:square;"/>
   </g>
   <g id="line2d_48">
    <path clip-path="url(#p5b6658172c)" d="M 72 388.8 
L 94.32 382.368542 
L 116.64 376.87059 
L 138.96 371.458767 
L 161.28 364.352045 
L 183.6 358.994745 
L 205.92 354.288879 
L 228.24 348.86386 
L 250.56 344.311732 
L 272.88 338.733587 
L 295.2 333.874424 
L 317.52 327.921643 
L 339.84 325.198767 
L 362.16 319.380641 
L 384.48 315.381328 
L 406.8 311.098736 
L 429.12 306.995467 
L 451.44 303.179568 
L 473.76 298.977085 
L 496.08 295.805735 
L 518.4 294.446988 
" style="fill:none;stroke:#ff0000;stroke-linecap:square;"/>
   </g>
   <g id="patch_3">
    <path d="M 72 388.8 
L 72 43.2 
" style="fill:none;stroke:#000000;stroke-linecap:square;stroke-linejoin:miter;"/>
   </g>
   <g id="patch_4">
    <path d="M 72 388.8 
L 518.4 388.8 
" style="fill:none;stroke:#000000;stroke-linecap:square;stroke-linejoin:miter;"/>
   </g>
   <g id="patch_5">
    <path d="M 518.4 388.8 
L 518.4 43.2 
" style="fill:none;stroke:#000000;stroke-linecap:square;stroke-linejoin:miter;"/>
   </g>
   <g id="patch_6">
    <path d="M 72 43.2 
L 518.4 43.2 
" style="fill:none;stroke:#000000;stroke-linecap:square;stroke-linejoin:miter;"/>
   </g>
   <g id="matplotlib.axis_1">
    <g id="xtick_1">
     <g id="line2d_49">
      <defs>
       <path d="M 0 0 
L 0 -4 
" id="mfb3106fa3f" style="stroke:#000000;stroke-width:0.5;"/>
      </defs>
      <g>
       <use style="stroke:#000000;stroke-width:0.5;" x="72.0" xlink:href="#mfb3106fa3f" y="388.8"/>
      </g>
     </g>
     <g id="line2d_50">
      <defs>
       <path d="M 0 0 
L 0 4 
" id="m0e4206a82b" style="stroke:#000000;stroke-width:0.5;"/>
      </defs>
      <g>
       <use style="stroke:#000000;stroke-width:0.5;" x="72.0" xlink:href="#m0e4206a82b" y="43.2"/>
      </g>
     </g>
     <g id="text_1">
      <!-- 0 -->
      <defs>
       <path d="M 31.78125 66.40625 
Q 24.171875 66.40625 20.328125 58.90625 
Q 16.5 51.421875 16.5 36.375 
Q 16.5 21.390625 20.328125 13.890625 
Q 24.171875 6.390625 31.78125 6.390625 
Q 39.453125 6.390625 43.28125 13.890625 
Q 47.125 21.390625 47.125 36.375 
Q 47.125 51.421875 43.28125 58.90625 
Q 39.453125 66.40625 31.78125 66.40625 
M 31.78125 74.21875 
Q 44.046875 74.21875 50.515625 64.515625 
Q 56.984375 54.828125 56.984375 36.375 
Q 56.984375 17.96875 50.515625 8.265625 
Q 44.046875 -1.421875 31.78125 -1.421875 
Q 19.53125 -1.421875 13.0625 8.265625 
Q 6.59375 17.96875 6.59375 36.375 
Q 6.59375 54.828125 13.0625 64.515625 
Q 19.53125 74.21875 31.78125 74.21875 
" id="BitstreamVeraSans-Roman-30"/>
      </defs>
      <g transform="translate(68.1825 401.918125)scale(0.12 -0.12)">
       <use xlink:href="#BitstreamVeraSans-Roman-30"/>
      </g>
     </g>
    </g>
    <g id="xtick_2">
     <g id="line2d_51">
      <g>
       <use style="stroke:#000000;stroke-width:0.5;" x="183.6" xlink:href="#mfb3106fa3f" y="388.8"/>
      </g>
     </g>
     <g id="line2d_52">
      <g>
       <use style="stroke:#000000;stroke-width:0.5;" x="183.6" xlink:href="#m0e4206a82b" y="43.2"/>
      </g>
     </g>
     <g id="text_2">
      <!-- 5 -->
      <defs>
       <path d="M 10.796875 72.90625 
L 49.515625 72.90625 
L 49.515625 64.59375 
L 19.828125 64.59375 
L 19.828125 46.734375 
Q 21.96875 47.46875 24.109375 47.828125 
Q 26.265625 48.1875 28.421875 48.1875 
Q 40.625 48.1875 47.75 41.5 
Q 54.890625 34.8125 54.890625 23.390625 
Q 54.890625 11.625 47.5625 5.09375 
Q 40.234375 -1.421875 26.90625 -1.421875 
Q 22.3125 -1.421875 17.546875 -0.640625 
Q 12.796875 0.140625 7.71875 1.703125 
L 7.71875 11.625 
Q 12.109375 9.234375 16.796875 8.0625 
Q 21.484375 6.890625 26.703125 6.890625 
Q 35.15625 6.890625 40.078125 11.328125 
Q 45.015625 15.765625 45.015625 23.390625 
Q 45.015625 31 40.078125 35.4375 
Q 35.15625 39.890625 26.703125 39.890625 
Q 22.75 39.890625 18.8125 39.015625 
Q 14.890625 38.140625 10.796875 36.28125 
z
" id="BitstreamVeraSans-Roman-35"/>
      </defs>
      <g transform="translate(179.7825 401.918125)scale(0.12 -0.12)">
       <use xlink:href="#BitstreamVeraSans-Roman-35"/>
      </g>
     </g>
    </g>
    <g id="xtick_3">
     <g id="line2d_53">
      <g>
       <use style="stroke:#000000;stroke-width:0.5;" x="295.2" xlink:href="#mfb3106fa3f" y="388.8"/>
      </g>
     </g>
     <g id="line2d_54">
      <g>
       <use style="stroke:#000000;stroke-width:0.5;" x="295.2" xlink:href="#m0e4206a82b" y="43.2"/>
      </g>
     </g>
     <g id="text_3">
      <!-- 10 -->
      <defs>
       <path d="M 12.40625 8.296875 
L 28.515625 8.296875 
L 28.515625 63.921875 
L 10.984375 60.40625 
L 10.984375 69.390625 
L 28.421875 72.90625 
L 38.28125 72.90625 
L 38.28125 8.296875 
L 54.390625 8.296875 
L 54.390625 0 
L 12.40625 0 
z
" id="BitstreamVeraSans-Roman-31"/>
      </defs>
      <g transform="translate(287.565 401.918125)scale(0.12 -0.12)">
       <use xlink:href="#BitstreamVeraSans-Roman-31"/>
       <use x="63.623046875" xlink:href="#BitstreamVeraSans-Roman-30"/>
      </g>
     </g>
    </g>
    <g id="xtick_4">
     <g id="line2d_55">
      <g>
       <use style="stroke:#000000;stroke-width:0.5;" x="406.8" xlink:href="#mfb3106fa3f" y="388.8"/>
      </g>
     </g>
     <g id="line2d_56">
      <g>
       <use style="stroke:#000000;stroke-width:0.5;" x="406.8" xlink:href="#m0e4206a82b" y="43.2"/>
      </g>
     </g>
     <g id="text_4">
      <!-- 15 -->
      <g transform="translate(399.165 401.918125)scale(0.12 -0.12)">
       <use xlink:href="#BitstreamVeraSans-Roman-31"/>
       <use x="63.623046875" xlink:href="#BitstreamVeraSans-Roman-35"/>
      </g>
     </g>
    </g>
    <g id="xtick_5">
     <g id="line2d_57">
      <g>
       <use style="stroke:#000000;stroke-width:0.5;" x="518.4" xlink:href="#mfb3106fa3f" y="388.8"/>
      </g>
     </g>
     <g id="line2d_58">
      <g>
       <use style="stroke:#000000;stroke-width:0.5;" x="518.4" xlink:href="#m0e4206a82b" y="43.2"/>
      </g>
     </g>
     <g id="text_5">
      <!-- 20 -->
      <defs>
       <path d="M 19.1875 8.296875 
L 53.609375 8.296875 
L 53.609375 0 
L 7.328125 0 
L 7.328125 8.296875 
Q 12.9375 14.109375 22.625 23.890625 
Q 32.328125 33.6875 34.8125 36.53125 
Q 39.546875 41.84375 41.421875 45.53125 
Q 43.3125 49.21875 43.3125 52.78125 
Q 43.3125 58.59375 39.234375 62.25 
Q 35.15625 65.921875 28.609375 65.921875 
Q 23.96875 65.921875 18.8125 64.3125 
Q 13.671875 62.703125 7.8125 59.421875 
L 7.8125 69.390625 
Q 13.765625 71.78125 18.9375 73 
Q 24.125 74.21875 28.421875 74.21875 
Q 39.75 74.21875 46.484375 68.546875 
Q 53.21875 62.890625 53.21875 53.421875 
Q 53.21875 48.921875 51.53125 44.890625 
Q 49.859375 40.875 45.40625 35.40625 
Q 44.1875 33.984375 37.640625 27.21875 
Q 31.109375 20.453125 19.1875 8.296875 
" id="BitstreamVeraSans-Roman-32"/>
      </defs>
      <g transform="translate(510.765 401.918125)scale(0.12 -0.12)">
       <use xlink:href="#BitstreamVeraSans-Roman-32"/>
       <use x="63.623046875" xlink:href="#BitstreamVeraSans-Roman-30"/>
      </g>
     </g>
    </g>
    <g id="text_6">
     <!-- amount of different corrections -->
     <defs>
      <path d="M 54.890625 33.015625 
L 54.890625 0 
L 45.90625 0 
L 45.90625 32.71875 
Q 45.90625 40.484375 42.875 44.328125 
Q 39.84375 48.1875 33.796875 48.1875 
Q 26.515625 48.1875 22.3125 43.546875 
Q 18.109375 38.921875 18.109375 30.90625 
L 18.109375 0 
L 9.078125 0 
L 9.078125 54.6875 
L 18.109375 54.6875 
L 18.109375 46.1875 
Q 21.34375 51.125 25.703125 53.5625 
Q 30.078125 56 35.796875 56 
Q 45.21875 56 50.046875 50.171875 
Q 54.890625 44.34375 54.890625 33.015625 
" id="BitstreamVeraSans-Roman-6e"/>
      <path d="M 52 44.1875 
Q 55.375 50.25 60.0625 53.125 
Q 64.75 56 71.09375 56 
Q 79.640625 56 84.28125 50.015625 
Q 88.921875 44.046875 88.921875 33.015625 
L 88.921875 0 
L 79.890625 0 
L 79.890625 32.71875 
Q 79.890625 40.578125 77.09375 44.375 
Q 74.3125 48.1875 68.609375 48.1875 
Q 61.625 48.1875 57.5625 43.546875 
Q 53.515625 38.921875 53.515625 30.90625 
L 53.515625 0 
L 44.484375 0 
L 44.484375 32.71875 
Q 44.484375 40.625 41.703125 44.40625 
Q 38.921875 48.1875 33.109375 48.1875 
Q 26.21875 48.1875 22.15625 43.53125 
Q 18.109375 38.875 18.109375 30.90625 
L 18.109375 0 
L 9.078125 0 
L 9.078125 54.6875 
L 18.109375 54.6875 
L 18.109375 46.1875 
Q 21.1875 51.21875 25.484375 53.609375 
Q 29.78125 56 35.6875 56 
Q 41.65625 56 45.828125 52.96875 
Q 50 49.953125 52 44.1875 
" id="BitstreamVeraSans-Roman-6d"/>
      <path d="M 41.109375 46.296875 
Q 39.59375 47.171875 37.8125 47.578125 
Q 36.03125 48 33.890625 48 
Q 26.265625 48 22.1875 43.046875 
Q 18.109375 38.09375 18.109375 28.8125 
L 18.109375 0 
L 9.078125 0 
L 9.078125 54.6875 
L 18.109375 54.6875 
L 18.109375 46.1875 
Q 20.953125 51.171875 25.484375 53.578125 
Q 30.03125 56 36.53125 56 
Q 37.453125 56 38.578125 55.875 
Q 39.703125 55.765625 41.0625 55.515625 
z
" id="BitstreamVeraSans-Roman-72"/>
      <path d="M 9.421875 54.6875 
L 18.40625 54.6875 
L 18.40625 0 
L 9.421875 0 
z
M 9.421875 75.984375 
L 18.40625 75.984375 
L 18.40625 64.59375 
L 9.421875 64.59375 
z
" id="BitstreamVeraSans-Roman-69"/>
      <path id="BitstreamVeraSans-Roman-20"/>
      <path d="M 18.3125 70.21875 
L 18.3125 54.6875 
L 36.8125 54.6875 
L 36.8125 47.703125 
L 18.3125 47.703125 
L 18.3125 18.015625 
Q 18.3125 11.328125 20.140625 9.421875 
Q 21.96875 7.515625 27.59375 7.515625 
L 36.8125 7.515625 
L 36.8125 0 
L 27.59375 0 
Q 17.1875 0 13.234375 3.875 
Q 9.28125 7.765625 9.28125 18.015625 
L 9.28125 47.703125 
L 2.6875 47.703125 
L 2.6875 54.6875 
L 9.28125 54.6875 
L 9.28125 70.21875 
z
" id="BitstreamVeraSans-Roman-74"/>
      <path d="M 30.609375 48.390625 
Q 23.390625 48.390625 19.1875 42.75 
Q 14.984375 37.109375 14.984375 27.296875 
Q 14.984375 17.484375 19.15625 11.84375 
Q 23.34375 6.203125 30.609375 6.203125 
Q 37.796875 6.203125 41.984375 11.859375 
Q 46.1875 17.53125 46.1875 27.296875 
Q 46.1875 37.015625 41.984375 42.703125 
Q 37.796875 48.390625 30.609375 48.390625 
M 30.609375 56 
Q 42.328125 56 49.015625 48.375 
Q 55.71875 40.765625 55.71875 27.296875 
Q 55.71875 13.875 49.015625 6.21875 
Q 42.328125 -1.421875 30.609375 -1.421875 
Q 18.84375 -1.421875 12.171875 6.21875 
Q 5.515625 13.875 5.515625 27.296875 
Q 5.515625 40.765625 12.171875 48.375 
Q 18.84375 56 30.609375 56 
" id="BitstreamVeraSans-Roman-6f"/>
      <path d="M 45.40625 46.390625 
L 45.40625 75.984375 
L 54.390625 75.984375 
L 54.390625 0 
L 45.40625 0 
L 45.40625 8.203125 
Q 42.578125 3.328125 38.25 0.953125 
Q 33.9375 -1.421875 27.875 -1.421875 
Q 17.96875 -1.421875 11.734375 6.484375 
Q 5.515625 14.40625 5.515625 27.296875 
Q 5.515625 40.1875 11.734375 48.09375 
Q 17.96875 56 27.875 56 
Q 33.9375 56 38.25 53.625 
Q 42.578125 51.265625 45.40625 46.390625 
M 14.796875 27.296875 
Q 14.796875 17.390625 18.875 11.75 
Q 22.953125 6.109375 30.078125 6.109375 
Q 37.203125 6.109375 41.296875 11.75 
Q 45.40625 17.390625 45.40625 27.296875 
Q 45.40625 37.203125 41.296875 42.84375 
Q 37.203125 48.484375 30.078125 48.484375 
Q 22.953125 48.484375 18.875 42.84375 
Q 14.796875 37.203125 14.796875 27.296875 
" id="BitstreamVeraSans-Roman-64"/>
      <path d="M 48.78125 52.59375 
L 48.78125 44.1875 
Q 44.96875 46.296875 41.140625 47.34375 
Q 37.3125 48.390625 33.40625 48.390625 
Q 24.65625 48.390625 19.8125 42.84375 
Q 14.984375 37.3125 14.984375 27.296875 
Q 14.984375 17.28125 19.8125 11.734375 
Q 24.65625 6.203125 33.40625 6.203125 
Q 37.3125 6.203125 41.140625 7.25 
Q 44.96875 8.296875 48.78125 10.40625 
L 48.78125 2.09375 
Q 45.015625 0.34375 40.984375 -0.53125 
Q 36.96875 -1.421875 32.421875 -1.421875 
Q 20.0625 -1.421875 12.78125 6.34375 
Q 5.515625 14.109375 5.515625 27.296875 
Q 5.515625 40.671875 12.859375 48.328125 
Q 20.21875 56 33.015625 56 
Q 37.15625 56 41.109375 55.140625 
Q 45.0625 54.296875 48.78125 52.59375 
" id="BitstreamVeraSans-Roman-63"/>
      <path d="M 34.28125 27.484375 
Q 23.390625 27.484375 19.1875 25 
Q 14.984375 22.515625 14.984375 16.5 
Q 14.984375 11.71875 18.140625 8.90625 
Q 21.296875 6.109375 26.703125 6.109375 
Q 34.1875 6.109375 38.703125 11.40625 
Q 43.21875 16.703125 43.21875 25.484375 
L 43.21875 27.484375 
z
M 52.203125 31.203125 
L 52.203125 0 
L 43.21875 0 
L 43.21875 8.296875 
Q 40.140625 3.328125 35.546875 0.953125 
Q 30.953125 -1.421875 24.3125 -1.421875 
Q 15.921875 -1.421875 10.953125 3.296875 
Q 6 8.015625 6 15.921875 
Q 6 25.140625 12.171875 29.828125 
Q 18.359375 34.515625 30.609375 34.515625 
L 43.21875 34.515625 
L 43.21875 35.40625 
Q 43.21875 41.609375 39.140625 45 
Q 35.0625 48.390625 27.6875 48.390625 
Q 23 48.390625 18.546875 47.265625 
Q 14.109375 46.140625 10.015625 43.890625 
L 10.015625 52.203125 
Q 14.9375 54.109375 19.578125 55.046875 
Q 24.21875 56 28.609375 56 
Q 40.484375 56 46.34375 49.84375 
Q 52.203125 43.703125 52.203125 31.203125 
" id="BitstreamVeraSans-Roman-61"/>
      <path d="M 8.5 21.578125 
L 8.5 54.6875 
L 17.484375 54.6875 
L 17.484375 21.921875 
Q 17.484375 14.15625 20.5 10.265625 
Q 23.53125 6.390625 29.59375 6.390625 
Q 36.859375 6.390625 41.078125 11.03125 
Q 45.3125 15.671875 45.3125 23.6875 
L 45.3125 54.6875 
L 54.296875 54.6875 
L 54.296875 0 
L 45.3125 0 
L 45.3125 8.40625 
Q 42.046875 3.421875 37.71875 1 
Q 33.40625 -1.421875 27.6875 -1.421875 
Q 18.265625 -1.421875 13.375 4.4375 
Q 8.5 10.296875 8.5 21.578125 
" id="BitstreamVeraSans-Roman-75"/>
      <path d="M 44.28125 53.078125 
L 44.28125 44.578125 
Q 40.484375 46.53125 36.375 47.5 
Q 32.28125 48.484375 27.875 48.484375 
Q 21.1875 48.484375 17.84375 46.4375 
Q 14.5 44.390625 14.5 40.28125 
Q 14.5 37.15625 16.890625 35.375 
Q 19.28125 33.59375 26.515625 31.984375 
L 29.59375 31.296875 
Q 39.15625 29.25 43.1875 25.515625 
Q 47.21875 21.78125 47.21875 15.09375 
Q 47.21875 7.46875 41.1875 3.015625 
Q 35.15625 -1.421875 24.609375 -1.421875 
Q 20.21875 -1.421875 15.453125 -0.5625 
Q 10.6875 0.296875 5.421875 2 
L 5.421875 11.28125 
Q 10.40625 8.6875 15.234375 7.390625 
Q 20.0625 6.109375 24.8125 6.109375 
Q 31.15625 6.109375 34.5625 8.28125 
Q 37.984375 10.453125 37.984375 14.40625 
Q 37.984375 18.0625 35.515625 20.015625 
Q 33.0625 21.96875 24.703125 23.78125 
L 21.578125 24.515625 
Q 13.234375 26.265625 9.515625 29.90625 
Q 5.8125 33.546875 5.8125 39.890625 
Q 5.8125 47.609375 11.28125 51.796875 
Q 16.75 56 26.8125 56 
Q 31.78125 56 36.171875 55.265625 
Q 40.578125 54.546875 44.28125 53.078125 
" id="BitstreamVeraSans-Roman-73"/>
      <path d="M 37.109375 75.984375 
L 37.109375 68.5 
L 28.515625 68.5 
Q 23.6875 68.5 21.796875 66.546875 
Q 19.921875 64.59375 19.921875 59.515625 
L 19.921875 54.6875 
L 34.71875 54.6875 
L 34.71875 47.703125 
L 19.921875 47.703125 
L 19.921875 0 
L 10.890625 0 
L 10.890625 47.703125 
L 2.296875 47.703125 
L 2.296875 54.6875 
L 10.890625 54.6875 
L 10.890625 58.5 
Q 10.890625 67.625 15.140625 71.796875 
Q 19.390625 75.984375 28.609375 75.984375 
z
" id="BitstreamVeraSans-Roman-66"/>
      <path d="M 56.203125 29.59375 
L 56.203125 25.203125 
L 14.890625 25.203125 
Q 15.484375 15.921875 20.484375 11.0625 
Q 25.484375 6.203125 34.421875 6.203125 
Q 39.59375 6.203125 44.453125 7.46875 
Q 49.3125 8.734375 54.109375 11.28125 
L 54.109375 2.78125 
Q 49.265625 0.734375 44.1875 -0.34375 
Q 39.109375 -1.421875 33.890625 -1.421875 
Q 20.796875 -1.421875 13.15625 6.1875 
Q 5.515625 13.8125 5.515625 26.8125 
Q 5.515625 40.234375 12.765625 48.109375 
Q 20.015625 56 32.328125 56 
Q 43.359375 56 49.78125 48.890625 
Q 56.203125 41.796875 56.203125 29.59375 
M 47.21875 32.234375 
Q 47.125 39.59375 43.09375 43.984375 
Q 39.0625 48.390625 32.421875 48.390625 
Q 24.90625 48.390625 20.390625 44.140625 
Q 15.875 39.890625 15.1875 32.171875 
z
" id="BitstreamVeraSans-Roman-65"/>
     </defs>
     <g transform="translate(201.3328125 418.531875)scale(0.12 -0.12)">
      <use xlink:href="#BitstreamVeraSans-Roman-61"/>
      <use x="61.279296875" xlink:href="#BitstreamVeraSans-Roman-6d"/>
      <use x="158.69140625" xlink:href="#BitstreamVeraSans-Roman-6f"/>
      <use x="219.873046875" xlink:href="#BitstreamVeraSans-Roman-75"/>
      <use x="283.251953125" xlink:href="#BitstreamVeraSans-Roman-6e"/>
      <use x="346.630859375" xlink:href="#BitstreamVeraSans-Roman-74"/>
      <use x="385.83984375" xlink:href="#BitstreamVeraSans-Roman-20"/>
      <use x="417.626953125" xlink:href="#BitstreamVeraSans-Roman-6f"/>
      <use x="478.80859375" xlink:href="#BitstreamVeraSans-Roman-66"/>
      <use x="514.013671875" xlink:href="#BitstreamVeraSans-Roman-20"/>
      <use x="545.80078125" xlink:href="#BitstreamVeraSans-Roman-64"/>
      <use x="609.27734375" xlink:href="#BitstreamVeraSans-Roman-69"/>
      <use x="637.060546875" xlink:href="#BitstreamVeraSans-Roman-66"/>
      <use x="672.265625" xlink:href="#BitstreamVeraSans-Roman-66"/>
      <use x="707.470703125" xlink:href="#BitstreamVeraSans-Roman-65"/>
      <use x="768.994140625" xlink:href="#BitstreamVeraSans-Roman-72"/>
      <use x="810.076171875" xlink:href="#BitstreamVeraSans-Roman-65"/>
      <use x="871.599609375" xlink:href="#BitstreamVeraSans-Roman-6e"/>
      <use x="934.978515625" xlink:href="#BitstreamVeraSans-Roman-74"/>
      <use x="974.1875" xlink:href="#BitstreamVeraSans-Roman-20"/>
      <use x="1005.974609375" xlink:href="#BitstreamVeraSans-Roman-63"/>
      <use x="1060.955078125" xlink:href="#BitstreamVeraSans-Roman-6f"/>
      <use x="1122.13671875" xlink:href="#BitstreamVeraSans-Roman-72"/>
      <use x="1163.234375" xlink:href="#BitstreamVeraSans-Roman-72"/>
      <use x="1204.31640625" xlink:href="#BitstreamVeraSans-Roman-65"/>
      <use x="1265.83984375" xlink:href="#BitstreamVeraSans-Roman-63"/>
      <use x="1320.8203125" xlink:href="#BitstreamVeraSans-Roman-74"/>
      <use x="1360.029296875" xlink:href="#BitstreamVeraSans-Roman-69"/>
      <use x="1387.8125" xlink:href="#BitstreamVeraSans-Roman-6f"/>
      <use x="1448.994140625" xlink:href="#BitstreamVeraSans-Roman-6e"/>
      <use x="1512.373046875" xlink:href="#BitstreamVeraSans-Roman-73"/>
     </g>
    </g>
   </g>
   <g id="matplotlib.axis_2">
    <g id="ytick_1">
     <g id="line2d_59">
      <defs>
       <path d="M 0 0 
L 4 0 
" id="m82b3b4600d" style="stroke:#000000;stroke-width:0.5;"/>
      </defs>
      <g>
       <use style="stroke:#000000;stroke-width:0.5;" x="72.0" xlink:href="#m82b3b4600d" y="388.8"/>
      </g>
     </g>
     <g id="line2d_60">
      <defs>
       <path d="M 0 0 
L -4 0 
" id="m1dc387cdf4" style="stroke:#000000;stroke-width:0.5;"/>
      </defs>
      <g>
       <use style="stroke:#000000;stroke-width:0.5;" x="518.4" xlink:href="#m1dc387cdf4" y="388.8"/>
      </g>
     </g>
     <g id="text_7">
      <!-- 0.0 -->
      <defs>
       <path d="M 10.6875 12.40625 
L 21 12.40625 
L 21 0 
L 10.6875 0 
z
" id="BitstreamVeraSans-Roman-2e"/>
      </defs>
      <g transform="translate(48.91625 392.11125)scale(0.12 -0.12)">
       <use xlink:href="#BitstreamVeraSans-Roman-30"/>
       <use x="63.623046875" xlink:href="#BitstreamVeraSans-Roman-2e"/>
       <use x="95.41015625" xlink:href="#BitstreamVeraSans-Roman-30"/>
      </g>
     </g>
    </g>
    <g id="ytick_2">
     <g id="line2d_61">
      <g>
       <use style="stroke:#000000;stroke-width:0.5;" x="72.0" xlink:href="#m82b3b4600d" y="331.2"/>
      </g>
     </g>
     <g id="line2d_62">
      <g>
       <use style="stroke:#000000;stroke-width:0.5;" x="518.4" xlink:href="#m1dc387cdf4" y="331.2"/>
      </g>
     </g>
     <g id="text_8">
      <!-- 0.2 -->
      <g transform="translate(48.91625 334.51125)scale(0.12 -0.12)">
       <use xlink:href="#BitstreamVeraSans-Roman-30"/>
       <use x="63.623046875" xlink:href="#BitstreamVeraSans-Roman-2e"/>
       <use x="95.41015625" xlink:href="#BitstreamVeraSans-Roman-32"/>
      </g>
     </g>
    </g>
    <g id="ytick_3">
     <g id="line2d_63">
      <g>
       <use style="stroke:#000000;stroke-width:0.5;" x="72.0" xlink:href="#m82b3b4600d" y="273.6"/>
      </g>
     </g>
     <g id="line2d_64">
      <g>
       <use style="stroke:#000000;stroke-width:0.5;" x="518.4" xlink:href="#m1dc387cdf4" y="273.6"/>
      </g>
     </g>
     <g id="text_9">
      <!-- 0.4 -->
      <defs>
       <path d="M 37.796875 64.3125 
L 12.890625 25.390625 
L 37.796875 25.390625 
z
M 35.203125 72.90625 
L 47.609375 72.90625 
L 47.609375 25.390625 
L 58.015625 25.390625 
L 58.015625 17.1875 
L 47.609375 17.1875 
L 47.609375 0 
L 37.796875 0 
L 37.796875 17.1875 
L 4.890625 17.1875 
L 4.890625 26.703125 
z
" id="BitstreamVeraSans-Roman-34"/>
      </defs>
      <g transform="translate(48.91625 276.91125)scale(0.12 -0.12)">
       <use xlink:href="#BitstreamVeraSans-Roman-30"/>
       <use x="63.623046875" xlink:href="#BitstreamVeraSans-Roman-2e"/>
       <use x="95.41015625" xlink:href="#BitstreamVeraSans-Roman-34"/>
      </g>
     </g>
    </g>
    <g id="ytick_4">
     <g id="line2d_65">
      <g>
       <use style="stroke:#000000;stroke-width:0.5;" x="72.0" xlink:href="#m82b3b4600d" y="216.0"/>
      </g>
     </g>
     <g id="line2d_66">
      <g>
       <use style="stroke:#000000;stroke-width:0.5;" x="518.4" xlink:href="#m1dc387cdf4" y="216.0"/>
      </g>
     </g>
     <g id="text_10">
      <!-- 0.6 -->
      <defs>
       <path d="M 33.015625 40.375 
Q 26.375 40.375 22.484375 35.828125 
Q 18.609375 31.296875 18.609375 23.390625 
Q 18.609375 15.53125 22.484375 10.953125 
Q 26.375 6.390625 33.015625 6.390625 
Q 39.65625 6.390625 43.53125 10.953125 
Q 47.40625 15.53125 47.40625 23.390625 
Q 47.40625 31.296875 43.53125 35.828125 
Q 39.65625 40.375 33.015625 40.375 
M 52.59375 71.296875 
L 52.59375 62.3125 
Q 48.875 64.0625 45.09375 64.984375 
Q 41.3125 65.921875 37.59375 65.921875 
Q 27.828125 65.921875 22.671875 59.328125 
Q 17.53125 52.734375 16.796875 39.40625 
Q 19.671875 43.65625 24.015625 45.921875 
Q 28.375 48.1875 33.59375 48.1875 
Q 44.578125 48.1875 50.953125 41.515625 
Q 57.328125 34.859375 57.328125 23.390625 
Q 57.328125 12.15625 50.6875 5.359375 
Q 44.046875 -1.421875 33.015625 -1.421875 
Q 20.359375 -1.421875 13.671875 8.265625 
Q 6.984375 17.96875 6.984375 36.375 
Q 6.984375 53.65625 15.1875 63.9375 
Q 23.390625 74.21875 37.203125 74.21875 
Q 40.921875 74.21875 44.703125 73.484375 
Q 48.484375 72.75 52.59375 71.296875 
" id="BitstreamVeraSans-Roman-36"/>
      </defs>
      <g transform="translate(48.91625 219.31125)scale(0.12 -0.12)">
       <use xlink:href="#BitstreamVeraSans-Roman-30"/>
       <use x="63.623046875" xlink:href="#BitstreamVeraSans-Roman-2e"/>
       <use x="95.41015625" xlink:href="#BitstreamVeraSans-Roman-36"/>
      </g>
     </g>
    </g>
    <g id="ytick_5">
     <g id="line2d_67">
      <g>
       <use style="stroke:#000000;stroke-width:0.5;" x="72.0" xlink:href="#m82b3b4600d" y="158.4"/>
      </g>
     </g>
     <g id="line2d_68">
      <g>
       <use style="stroke:#000000;stroke-width:0.5;" x="518.4" xlink:href="#m1dc387cdf4" y="158.4"/>
      </g>
     </g>
     <g id="text_11">
      <!-- 0.8 -->
      <defs>
       <path d="M 31.78125 34.625 
Q 24.75 34.625 20.71875 30.859375 
Q 16.703125 27.09375 16.703125 20.515625 
Q 16.703125 13.921875 20.71875 10.15625 
Q 24.75 6.390625 31.78125 6.390625 
Q 38.8125 6.390625 42.859375 10.171875 
Q 46.921875 13.96875 46.921875 20.515625 
Q 46.921875 27.09375 42.890625 30.859375 
Q 38.875 34.625 31.78125 34.625 
M 21.921875 38.8125 
Q 15.578125 40.375 12.03125 44.71875 
Q 8.5 49.078125 8.5 55.328125 
Q 8.5 64.0625 14.71875 69.140625 
Q 20.953125 74.21875 31.78125 74.21875 
Q 42.671875 74.21875 48.875 69.140625 
Q 55.078125 64.0625 55.078125 55.328125 
Q 55.078125 49.078125 51.53125 44.71875 
Q 48 40.375 41.703125 38.8125 
Q 48.828125 37.15625 52.796875 32.3125 
Q 56.78125 27.484375 56.78125 20.515625 
Q 56.78125 9.90625 50.3125 4.234375 
Q 43.84375 -1.421875 31.78125 -1.421875 
Q 19.734375 -1.421875 13.25 4.234375 
Q 6.78125 9.90625 6.78125 20.515625 
Q 6.78125 27.484375 10.78125 32.3125 
Q 14.796875 37.15625 21.921875 38.8125 
M 18.3125 54.390625 
Q 18.3125 48.734375 21.84375 45.5625 
Q 25.390625 42.390625 31.78125 42.390625 
Q 38.140625 42.390625 41.71875 45.5625 
Q 45.3125 48.734375 45.3125 54.390625 
Q 45.3125 60.0625 41.71875 63.234375 
Q 38.140625 66.40625 31.78125 66.40625 
Q 25.390625 66.40625 21.84375 63.234375 
Q 18.3125 60.0625 18.3125 54.390625 
" id="BitstreamVeraSans-Roman-38"/>
      </defs>
      <g transform="translate(48.91625 161.71125)scale(0.12 -0.12)">
       <use xlink:href="#BitstreamVeraSans-Roman-30"/>
       <use x="63.623046875" xlink:href="#BitstreamVeraSans-Roman-2e"/>
       <use x="95.41015625" xlink:href="#BitstreamVeraSans-Roman-38"/>
      </g>
     </g>
    </g>
    <g id="ytick_6">
     <g id="line2d_69">
      <g>
       <use style="stroke:#000000;stroke-width:0.5;" x="72.0" xlink:href="#m82b3b4600d" y="100.8"/>
      </g>
     </g>
     <g id="line2d_70">
      <g>
       <use style="stroke:#000000;stroke-width:0.5;" x="518.4" xlink:href="#m1dc387cdf4" y="100.8"/>
      </g>
     </g>
     <g id="text_12">
      <!-- 1.0 -->
      <g transform="translate(48.91625 104.11125)scale(0.12 -0.12)">
       <use xlink:href="#BitstreamVeraSans-Roman-31"/>
       <use x="63.623046875" xlink:href="#BitstreamVeraSans-Roman-2e"/>
       <use x="95.41015625" xlink:href="#BitstreamVeraSans-Roman-30"/>
      </g>
     </g>
    </g>
    <g id="ytick_7">
     <g id="line2d_71">
      <g>
       <use style="stroke:#000000;stroke-width:0.5;" x="72.0" xlink:href="#m82b3b4600d" y="43.2"/>
      </g>
     </g>
     <g id="line2d_72">
      <g>
       <use style="stroke:#000000;stroke-width:0.5;" x="518.4" xlink:href="#m1dc387cdf4" y="43.2"/>
      </g>
     </g>
     <g id="text_13">
      <!-- 1.2 -->
      <g transform="translate(48.91625 46.51125)scale(0.12 -0.12)">
       <use xlink:href="#BitstreamVeraSans-Roman-31"/>
       <use x="63.623046875" xlink:href="#BitstreamVeraSans-Roman-2e"/>
       <use x="95.41015625" xlink:href="#BitstreamVeraSans-Roman-32"/>
      </g>
     </g>
    </g>
    <g id="text_14">
     <!-- Mean coverage -->
     <defs>
      <path d="M 9.8125 72.90625 
L 24.515625 72.90625 
L 43.109375 23.296875 
L 61.8125 72.90625 
L 76.515625 72.90625 
L 76.515625 0 
L 66.890625 0 
L 66.890625 64.015625 
L 48.09375 14.015625 
L 38.1875 14.015625 
L 19.390625 64.015625 
L 19.390625 0 
L 9.8125 0 
z
" id="BitstreamVeraSans-Roman-4d"/>
      <path d="M 2.984375 54.6875 
L 12.5 54.6875 
L 29.59375 8.796875 
L 46.6875 54.6875 
L 56.203125 54.6875 
L 35.6875 0 
L 23.484375 0 
z
" id="BitstreamVeraSans-Roman-76"/>
      <path d="M 45.40625 27.984375 
Q 45.40625 37.75 41.375 43.109375 
Q 37.359375 48.484375 30.078125 48.484375 
Q 22.859375 48.484375 18.828125 43.109375 
Q 14.796875 37.75 14.796875 27.984375 
Q 14.796875 18.265625 18.828125 12.890625 
Q 22.859375 7.515625 30.078125 7.515625 
Q 37.359375 7.515625 41.375 12.890625 
Q 45.40625 18.265625 45.40625 27.984375 
M 54.390625 6.78125 
Q 54.390625 -7.171875 48.1875 -13.984375 
Q 42 -20.796875 29.203125 -20.796875 
Q 24.46875 -20.796875 20.265625 -20.09375 
Q 16.0625 -19.390625 12.109375 -17.921875 
L 12.109375 -9.1875 
Q 16.0625 -11.328125 19.921875 -12.34375 
Q 23.78125 -13.375 27.78125 -13.375 
Q 36.625 -13.375 41.015625 -8.765625 
Q 45.40625 -4.15625 45.40625 5.171875 
L 45.40625 9.625 
Q 42.625 4.78125 38.28125 2.390625 
Q 33.9375 0 27.875 0 
Q 17.828125 0 11.671875 7.65625 
Q 5.515625 15.328125 5.515625 27.984375 
Q 5.515625 40.671875 11.671875 48.328125 
Q 17.828125 56 27.875 56 
Q 33.9375 56 38.28125 53.609375 
Q 42.625 51.21875 45.40625 46.390625 
L 45.40625 54.6875 
L 54.390625 54.6875 
z
" id="BitstreamVeraSans-Roman-67"/>
     </defs>
     <g transform="translate(41.420625 262.1128125)rotate(-90.0)scale(0.12 -0.12)">
      <use xlink:href="#BitstreamVeraSans-Roman-4d"/>
      <use x="86.279296875" xlink:href="#BitstreamVeraSans-Roman-65"/>
      <use x="147.802734375" xlink:href="#BitstreamVeraSans-Roman-61"/>
      <use x="209.08203125" xlink:href="#BitstreamVeraSans-Roman-6e"/>
      <use x="272.4609375" xlink:href="#BitstreamVeraSans-Roman-20"/>
      <use x="304.248046875" xlink:href="#BitstreamVeraSans-Roman-63"/>
      <use x="359.228515625" xlink:href="#BitstreamVeraSans-Roman-6f"/>
      <use x="420.41015625" xlink:href="#BitstreamVeraSans-Roman-76"/>
      <use x="479.58984375" xlink:href="#BitstreamVeraSans-Roman-65"/>
      <use x="541.11328125" xlink:href="#BitstreamVeraSans-Roman-72"/>
      <use x="582.2265625" xlink:href="#BitstreamVeraSans-Roman-61"/>
      <use x="643.505859375" xlink:href="#BitstreamVeraSans-Roman-67"/>
      <use x="706.982421875" xlink:href="#BitstreamVeraSans-Roman-65"/>
     </g>
    </g>
   </g>
   <g id="text_15">
    <!-- Mean coverage of different amount of corrections -->
    <g transform="translate(115.707375 22.07515)scale(0.144 -0.144)">
     <use xlink:href="#BitstreamVeraSans-Roman-4d"/>
     <use x="86.279296875" xlink:href="#BitstreamVeraSans-Roman-65"/>
     <use x="147.802734375" xlink:href="#BitstreamVeraSans-Roman-61"/>
     <use x="209.08203125" xlink:href="#BitstreamVeraSans-Roman-6e"/>
     <use x="272.4609375" xlink:href="#BitstreamVeraSans-Roman-20"/>
     <use x="304.248046875" xlink:href="#BitstreamVeraSans-Roman-63"/>
     <use x="359.228515625" xlink:href="#BitstreamVeraSans-Roman-6f"/>
     <use x="420.41015625" xlink:href="#BitstreamVeraSans-Roman-76"/>
     <use x="479.58984375" xlink:href="#BitstreamVeraSans-Roman-65"/>
     <use x="541.11328125" xlink:href="#BitstreamVeraSans-Roman-72"/>
     <use x="582.2265625" xlink:href="#BitstreamVeraSans-Roman-61"/>
     <use x="643.505859375" xlink:href="#BitstreamVeraSans-Roman-67"/>
     <use x="706.982421875" xlink:href="#BitstreamVeraSans-Roman-65"/>
     <use x="768.505859375" xlink:href="#BitstreamVeraSans-Roman-20"/>
     <use x="800.29296875" xlink:href="#BitstreamVeraSans-Roman-6f"/>
     <use x="861.474609375" xlink:href="#BitstreamVeraSans-Roman-66"/>
     <use x="896.6796875" xlink:href="#BitstreamVeraSans-Roman-20"/>
     <use x="928.466796875" xlink:href="#BitstreamVeraSans-Roman-64"/>
     <use x="991.943359375" xlink:href="#BitstreamVeraSans-Roman-69"/>
     <use x="1019.7265625" xlink:href="#BitstreamVeraSans-Roman-66"/>
     <use x="1054.931640625" xlink:href="#BitstreamVeraSans-Roman-66"/>
     <use x="1090.13671875" xlink:href="#BitstreamVeraSans-Roman-65"/>
     <use x="1151.66015625" xlink:href="#BitstreamVeraSans-Roman-72"/>
     <use x="1192.7421875" xlink:href="#BitstreamVeraSans-Roman-65"/>
     <use x="1254.265625" xlink:href="#BitstreamVeraSans-Roman-6e"/>
     <use x="1317.64453125" xlink:href="#BitstreamVeraSans-Roman-74"/>
     <use x="1356.853515625" xlink:href="#BitstreamVeraSans-Roman-20"/>
     <use x="1388.640625" xlink:href="#BitstreamVeraSans-Roman-61"/>
     <use x="1449.919921875" xlink:href="#BitstreamVeraSans-Roman-6d"/>
     <use x="1547.33203125" xlink:href="#BitstreamVeraSans-Roman-6f"/>
     <use x="1608.513671875" xlink:href="#BitstreamVeraSans-Roman-75"/>
     <use x="1671.892578125" xlink:href="#BitstreamVeraSans-Roman-6e"/>
     <use x="1735.271484375" xlink:href="#BitstreamVeraSans-Roman-74"/>
     <use x="1774.48046875" xlink:href="#BitstreamVeraSans-Roman-20"/>
     <use x="1806.267578125" xlink:href="#BitstreamVeraSans-Roman-6f"/>
     <use x="1867.44921875" xlink:href="#BitstreamVeraSans-Roman-66"/>
     <use x="1902.654296875" xlink:href="#BitstreamVeraSans-Roman-20"/>
     <use x="1934.44140625" xlink:href="#BitstreamVeraSans-Roman-63"/>
     <use x="1989.421875" xlink:href="#BitstreamVeraSans-Roman-6f"/>
     <use x="2050.603515625" xlink:href="#BitstreamVeraSans-Roman-72"/>
     <use x="2091.701171875" xlink:href="#BitstreamVeraSans-Roman-72"/>
     <use x="2132.783203125" xlink:href="#BitstreamVeraSans-Roman-65"/>
     <use x="2194.306640625" xlink:href="#BitstreamVeraSans-Roman-63"/>
     <use x="2249.287109375" xlink:href="#BitstreamVeraSans-Roman-74"/>
     <use x="2288.49609375" xlink:href="#BitstreamVeraSans-Roman-69"/>
     <use x="2316.279296875" xlink:href="#BitstreamVeraSans-Roman-6f"/>
     <use x="2377.4609375" xlink:href="#BitstreamVeraSans-Roman-6e"/>
     <use x="2440.83984375" xlink:href="#BitstreamVeraSans-Roman-73"/>
    </g>
    <!-- using index comparison -->
    <defs>
     <path d="M 54.890625 54.6875 
L 35.109375 28.078125 
L 55.90625 0 
L 45.3125 0 
L 29.390625 21.484375 
L 13.484375 0 
L 2.875 0 
L 24.125 28.609375 
L 4.6875 54.6875 
L 15.28125 54.6875 
L 29.78125 35.203125 
L 44.28125 54.6875 
z
" id="BitstreamVeraSans-Roman-78"/>
     <path d="M 18.109375 8.203125 
L 18.109375 -20.796875 
L 9.078125 -20.796875 
L 9.078125 54.6875 
L 18.109375 54.6875 
L 18.109375 46.390625 
Q 20.953125 51.265625 25.265625 53.625 
Q 29.59375 56 35.59375 56 
Q 45.5625 56 51.78125 48.09375 
Q 58.015625 40.1875 58.015625 27.296875 
Q 58.015625 14.40625 51.78125 6.484375 
Q 45.5625 -1.421875 35.59375 -1.421875 
Q 29.59375 -1.421875 25.265625 0.953125 
Q 20.953125 3.328125 18.109375 8.203125 
M 48.6875 27.296875 
Q 48.6875 37.203125 44.609375 42.84375 
Q 40.53125 48.484375 33.40625 48.484375 
Q 26.265625 48.484375 22.1875 42.84375 
Q 18.109375 37.203125 18.109375 27.296875 
Q 18.109375 17.390625 22.1875 11.75 
Q 26.265625 6.109375 33.40625 6.109375 
Q 40.53125 6.109375 44.609375 11.75 
Q 48.6875 17.390625 48.6875 27.296875 
" id="BitstreamVeraSans-Roman-70"/>
    </defs>
    <g transform="translate(209.31075 38.2)scale(0.144 -0.144)">
     <use xlink:href="#BitstreamVeraSans-Roman-75"/>
     <use x="63.37890625" xlink:href="#BitstreamVeraSans-Roman-73"/>
     <use x="115.478515625" xlink:href="#BitstreamVeraSans-Roman-69"/>
     <use x="143.26171875" xlink:href="#BitstreamVeraSans-Roman-6e"/>
     <use x="206.640625" xlink:href="#BitstreamVeraSans-Roman-67"/>
     <use x="270.1171875" xlink:href="#BitstreamVeraSans-Roman-20"/>
     <use x="301.904296875" xlink:href="#BitstreamVeraSans-Roman-69"/>
     <use x="329.6875" xlink:href="#BitstreamVeraSans-Roman-6e"/>
     <use x="393.06640625" xlink:href="#BitstreamVeraSans-Roman-64"/>
     <use x="456.54296875" xlink:href="#BitstreamVeraSans-Roman-65"/>
     <use x="518.05078125" xlink:href="#BitstreamVeraSans-Roman-78"/>
     <use x="577.23046875" xlink:href="#BitstreamVeraSans-Roman-20"/>
     <use x="609.017578125" xlink:href="#BitstreamVeraSans-Roman-63"/>
     <use x="663.998046875" xlink:href="#BitstreamVeraSans-Roman-6f"/>
     <use x="725.1796875" xlink:href="#BitstreamVeraSans-Roman-6d"/>
     <use x="822.591796875" xlink:href="#BitstreamVeraSans-Roman-70"/>
     <use x="886.068359375" xlink:href="#BitstreamVeraSans-Roman-61"/>
     <use x="947.34765625" xlink:href="#BitstreamVeraSans-Roman-72"/>
     <use x="988.4609375" xlink:href="#BitstreamVeraSans-Roman-69"/>
     <use x="1016.244140625" xlink:href="#BitstreamVeraSans-Roman-73"/>
     <use x="1068.34375" xlink:href="#BitstreamVeraSans-Roman-6f"/>
     <use x="1129.525390625" xlink:href="#BitstreamVeraSans-Roman-6e"/>
    </g>
   </g>
  </g>
 </g>
 <defs>
  <clipPath id="p5b6658172c">
   <rect height="345.6" width="446.4" x="72.0" y="43.2"/>
  </clipPath>
 </defs>
</svg>
