<?xml version="1.0" encoding="utf-8" standalone="no"?>
<!DOCTYPE svg PUBLIC "-//W3C//DTD SVG 1.1//EN"
  "http://www.w3.org/Graphics/SVG/1.1/DTD/svg11.dtd">
<!-- Created with matplotlib (http://matplotlib.org/) -->
<svg height="432pt" version="1.1" viewBox="0 0 576 432" width="576pt" xmlns="http://www.w3.org/2000/svg" xmlns:xlink="http://www.w3.org/1999/xlink">
 <defs>
  <style type="text/css">
*{stroke-linecap:butt;stroke-linejoin:round;stroke-miterlimit:100000;}
  </style>
 </defs>
 <g id="figure_1">
  <g id="patch_1">
   <path d="M 0 432 
L 576 432 
L 576 0 
L 0 0 
z
" style="fill:#ffffff;"/>
  </g>
  <g id="axes_1">
   <g id="patch_2">
    <path d="M 72 388.8 
L 518.4 388.8 
L 518.4 43.2 
L 72 43.2 
z
" style="fill:#ffffff;"/>
   </g>
   <g id="line2d_1">
    <path clip-path="url(#pecf92152cb)" d="M 72 350.365851 
L 80.928 349.936033 
L 89.856 347.381989 
L 98.784 337.870988 
L 107.712 313.067641 
L 116.64 265.270581 
L 125.568 195.723946 
L 134.496 120.192764 
L 143.424 64.069641 
L 152.352 48.244141 
L 161.28 76.679671 
L 170.208 135.546772 
L 179.136 203.16855 
L 188.064 261.776369 
L 196.992 303.303976 
L 205.92 328.211841 
L 214.848 341.100367 
L 223.776 346.922541 
L 232.704 349.23713 
L 241.632 350.051582 
L 250.56 350.306325 
L 259.488 350.377374 
L 268.416 350.395086 
L 277.344 350.39904 
L 286.272 350.399831 
L 295.2 350.399973 
L 304.128 350.399996 
L 313.056 350.4 
L 321.984 350.4 
L 330.912 350.4 
L 339.84 350.4 
L 348.768 350.4 
L 357.696 350.4 
L 366.624 350.4 
L 375.552 350.4 
L 384.48 350.4 
L 393.408 350.4 
L 402.336 350.4 
L 411.264 350.4 
L 420.192 350.4 
L 429.12 350.4 
L 438.048 350.4 
L 446.976 350.4 
L 455.904 350.4 
L 464.832 350.4 
L 473.76 350.4 
L 482.688 350.4 
L 491.616 350.4 
L 500.544 350.4 
" style="fill:none;stroke:#8000ff;stroke-linecap:square;"/>
   </g>
   <g id="line2d_2">
    <path clip-path="url(#pecf92152cb)" d="M 72 350.39999 
L 80.928 350.399723 
L 89.856 350.396203 
L 98.784 350.36707 
L 107.712 350.196645 
L 116.64 349.445802 
L 125.568 346.855979 
L 134.496 339.684033 
L 143.424 323.477339 
L 152.352 293.321426 
L 161.28 247.044559 
L 170.208 189.011517 
L 179.136 131.385063 
L 188.064 90.435909 
L 196.992 79.074717 
L 205.92 100.29724 
L 214.848 146.040224 
L 223.776 201.925211 
L 232.704 254.239935 
L 241.632 294.767587 
L 250.56 321.600636 
L 259.488 337.042298 
L 268.416 344.843512 
L 277.344 348.325671 
L 286.272 349.704782 
L 295.2 350.1908 
L 304.128 350.343493 
L 313.056 350.386307 
L 321.984 350.397025 
L 330.912 350.399421 
L 339.84 350.399899 
L 348.768 350.399984 
L 357.696 350.399998 
L 366.624 350.4 
L 375.552 350.4 
L 384.48 350.4 
L 393.408 350.4 
L 402.336 350.4 
L 411.264 350.4 
L 420.192 350.4 
L 429.12 350.4 
L 438.048 350.4 
L 446.976 350.4 
L 455.904 350.4 
L 464.832 350.4 
L 473.76 350.4 
L 482.688 350.4 
L 491.616 350.4 
L 500.544 350.4 
" style="fill:none;stroke:#6629fe;stroke-linecap:square;"/>
   </g>
   <g id="line2d_3">
    <path clip-path="url(#pecf92152cb)" d="M 72 350.4 
L 80.928 350.399999 
L 89.856 350.399974 
L 98.784 350.399674 
L 107.712 350.397105 
L 116.64 350.380422 
L 125.568 350.295118 
L 134.496 349.942238 
L 143.424 348.738673 
L 152.352 345.308326 
L 161.28 337.06189 
L 170.208 320.246709 
L 179.136 291.111495 
L 188.064 248.356849 
L 196.992 195.846513 
L 205.92 143.49376 
L 214.848 104.664077 
L 223.776 90.684735 
L 232.704 105.513329 
L 241.632 143.967667 
L 250.56 194.565093 
L 259.488 244.913626 
L 268.416 286.309141 
L 277.344 315.425617 
L 286.272 333.252013 
L 295.2 342.845384 
L 304.128 347.41016 
L 313.056 349.337592 
L 321.984 350.061327 
L 330.912 350.303258 
L 339.84 350.375275 
L 348.768 350.394356 
L 357.696 350.398852 
L 366.624 350.399793 
L 375.552 350.399967 
L 384.48 350.399995 
L 393.408 350.399999 
L 402.336 350.4 
L 411.264 350.4 
L 420.192 350.4 
L 429.12 350.4 
L 438.048 350.4 
L 446.976 350.4 
L 455.904 350.4 
L 464.832 350.4 
L 473.76 350.4 
L 482.688 350.4 
L 491.616 350.4 
L 500.544 350.4 
" style="fill:none;stroke:#4c50fc;stroke-linecap:square;"/>
   </g>
   <g id="line2d_4">
    <path clip-path="url(#pecf92152cb)" d="M 72 350.4 
L 80.928 350.4 
L 89.856 350.4 
L 98.784 350.399994 
L 107.712 350.399927 
L 116.64 350.39936 
L 125.568 350.395579 
L 134.496 350.375092 
L 143.424 350.283218 
L 152.352 349.937273 
L 161.28 348.831794 
L 170.208 345.810482 
L 179.136 338.710726 
L 188.064 324.324508 
L 196.992 299.185345 
L 205.92 261.442818 
L 214.848 213.253525 
L 223.776 162.151703 
L 232.704 119.768549 
L 241.632 97.675725 
L 250.56 102.292316 
L 259.488 131.894096 
L 268.416 177.603679 
L 277.344 227.617694 
L 286.272 271.981625 
L 295.2 305.380151 
L 304.128 327.173097 
L 313.056 339.636623 
L 321.984 345.92377 
L 330.912 348.731292 
L 339.84 349.843198 
L 348.768 350.234019 
L 357.696 350.355898 
L 366.624 350.389584 
L 375.552 350.397821 
L 384.48 350.399598 
L 393.408 350.399935 
L 402.336 350.399991 
L 411.264 350.399999 
L 420.192 350.4 
L 429.12 350.4 
L 438.048 350.4 
L 446.976 350.4 
L 455.904 350.4 
L 464.832 350.4 
L 473.76 350.4 
L 482.688 350.4 
L 491.616 350.4 
L 500.544 350.4 
" style="fill:none;stroke:#3079f7;stroke-linecap:square;"/>
   </g>
   <g id="line2d_5">
    <path clip-path="url(#pecf92152cb)" d="M 72 350.4 
L 80.928 350.4 
L 89.856 350.4 
L 98.784 350.4 
L 107.712 350.399996 
L 116.64 350.399955 
L 125.568 350.399632 
L 134.496 350.397552 
L 143.424 350.386431 
L 152.352 350.336352 
L 161.28 350.144327 
L 170.208 349.512 
L 179.136 347.712549 
L 188.064 343.267567 
L 196.992 333.712296 
L 205.92 315.828083 
L 214.848 286.748842 
L 223.776 245.93629 
L 232.704 197.188268 
L 241.632 149.177107 
L 250.56 113.35235 
L 259.488 99.603824 
L 268.416 111.871563 
L 277.344 146.337719 
L 286.272 193.317922 
L 295.2 241.596669 
L 304.128 282.605704 
L 313.056 312.421719 
L 321.984 331.288603 
L 330.912 341.771216 
L 339.84 346.909858 
L 348.768 349.137746 
L 357.696 349.992757 
L 366.624 350.283117 
L 375.552 350.370257 
L 384.48 350.393316 
L 393.408 350.39868 
L 402.336 350.399772 
L 411.264 350.399966 
L 420.192 350.399996 
L 429.12 350.4 
L 438.048 350.4 
L 446.976 350.4 
L 455.904 350.4 
L 464.832 350.4 
L 473.76 350.4 
L 482.688 350.4 
L 491.616 350.4 
L 500.544 350.4 
" style="fill:none;stroke:#169bf2;stroke-linecap:square;"/>
   </g>
   <g id="line2d_6">
    <path clip-path="url(#pecf92152cb)" d="M 72 350.4 
L 80.928 350.4 
L 89.856 350.4 
L 98.784 350.4 
L 107.712 350.399999 
L 116.64 350.399993 
L 125.568 350.399939 
L 134.496 350.399552 
L 143.424 350.397244 
L 152.352 350.385635 
L 161.28 350.335769 
L 170.208 350.151268 
L 179.136 349.559299 
L 188.064 347.903961 
L 196.992 343.85579 
L 205.92 335.181604 
L 214.848 318.895236 
L 223.776 292.162799 
L 232.704 254.032058 
L 241.632 207.358316 
L 250.56 159.633318 
L 259.488 121.522361 
L 268.416 103.131798 
L 277.344 109.707838 
L 286.272 139.237362 
L 295.2 183.430159 
L 304.128 231.439705 
L 313.056 274.076583 
L 321.984 306.342315 
L 330.912 327.545549 
L 339.84 339.762655 
L 348.768 345.966218 
L 357.696 348.748881 
L 366.624 349.852197 
L 375.552 350.238618 
L 384.48 350.357953 
L 393.408 350.390357 
L 402.336 350.398065 
L 411.264 350.399662 
L 420.192 350.399949 
L 429.12 350.399993 
L 438.048 350.399999 
L 446.976 350.4 
L 455.904 350.4 
L 464.832 350.4 
L 473.76 350.4 
L 482.688 350.4 
L 491.616 350.4 
L 500.544 350.4 
" style="fill:none;stroke:#07bbea;stroke-linecap:square;"/>
   </g>
   <g id="line2d_7">
    <path clip-path="url(#pecf92152cb)" d="M 72 350.4 
L 80.928 350.4 
L 89.856 350.4 
L 98.784 350.4 
L 107.712 350.4 
L 116.64 350.399999 
L 125.568 350.399988 
L 134.496 350.399907 
L 143.424 350.399376 
L 152.352 350.396439 
L 161.28 350.382545 
L 170.208 350.325788 
L 179.136 350.124222 
L 188.064 349.498511 
L 196.992 347.794052 
L 205.92 343.709178 
L 214.848 335.086127 
L 223.776 319.060172 
L 232.704 292.909304 
L 241.632 255.67381 
L 250.56 209.983643 
L 259.488 162.907985 
L 268.416 124.685535 
L 277.344 105.266336 
L 286.272 110.164776 
L 295.2 137.950656 
L 304.128 180.916761 
L 313.056 228.503829 
L 321.984 271.431767 
L 330.912 304.376236 
L 339.84 326.306556 
L 348.768 339.092667 
L 357.696 345.65383 
L 366.624 348.623272 
L 375.552 349.808805 
L 384.48 350.225846 
L 393.408 350.354798 
L 402.336 350.389721 
L 411.264 350.397966 
L 420.192 350.399653 
L 429.12 350.399949 
L 438.048 350.399994 
L 446.976 350.399999 
L 455.904 350.4 
L 464.832 350.4 
L 473.76 350.4 
L 482.688 350.4 
L 491.616 350.4 
L 500.544 350.4 
" style="fill:none;stroke:#20d5e1;stroke-linecap:square;"/>
   </g>
   <g id="line2d_8">
    <path clip-path="url(#pecf92152cb)" d="M 72 350.4 
L 80.928 350.4 
L 89.856 350.4 
L 98.784 350.4 
L 107.712 350.4 
L 116.64 350.4 
L 125.568 350.399997 
L 134.496 350.399975 
L 143.424 350.399819 
L 152.352 350.398897 
L 161.28 350.394207 
L 170.208 350.373566 
L 179.136 350.2944 
L 188.064 350.028354 
L 196.992 349.241656 
L 205.92 347.188716 
L 214.848 342.452602 
L 223.776 332.789189 
L 232.704 315.371983 
L 241.632 287.737623 
L 250.56 249.416848 
L 259.488 203.616614 
L 268.416 157.790131 
L 277.344 122.101227 
L 286.272 105.904858 
L 295.2 113.82497 
L 304.128 143.64149 
L 313.056 187.286609 
L 321.984 234.348237 
L 330.912 276.026965 
L 339.84 307.53544 
L 348.768 328.225395 
L 357.696 340.127798 
L 366.624 346.150942 
L 375.552 348.835847 
L 384.48 349.889634 
L 393.408 350.253097 
L 402.336 350.362911 
L 411.264 350.391843 
L 420.192 350.39845 
L 429.12 350.399748 
L 438.048 350.399965 
L 446.976 350.399996 
L 455.904 350.4 
L 464.832 350.4 
L 473.76 350.4 
L 482.688 350.4 
L 491.616 350.4 
L 500.544 350.4 
" style="fill:none;stroke:#3dead5;stroke-linecap:square;"/>
   </g>
   <g id="line2d_9">
    <path clip-path="url(#pecf92152cb)" d="M 72 350.4 
L 80.928 350.4 
L 89.856 350.4 
L 98.784 350.4 
L 107.712 350.4 
L 116.64 350.4 
L 125.568 350.399999 
L 134.496 350.399992 
L 143.424 350.399938 
L 152.352 350.399602 
L 161.28 350.39779 
L 170.208 350.389323 
L 179.136 350.354776 
L 188.064 350.231017 
L 196.992 349.840073 
L 205.92 348.747585 
L 214.848 346.041176 
L 223.776 340.091882 
L 232.704 328.491237 
L 241.632 308.467252 
L 250.56 278.010208 
L 259.488 237.544828 
L 268.416 191.373181 
L 277.344 147.738553 
L 286.272 116.764028 
L 295.2 106.751031 
L 304.128 120.622268 
L 313.056 154.558665 
L 321.984 199.684865 
L 330.912 245.800353 
L 339.84 285.035642 
L 348.768 313.693417 
L 357.696 331.919499 
L 366.624 342.081962 
L 375.552 347.064197 
L 384.48 349.212837 
L 393.408 350.026855 
L 402.336 350.297003 
L 411.264 350.375205 
L 420.192 350.394837 
L 429.12 350.39908 
L 438.048 350.399861 
L 446.976 350.399983 
L 455.904 350.399998 
L 464.832 350.4 
L 473.76 350.4 
L 482.688 350.4 
L 491.616 350.4 
L 500.544 350.4 
" style="fill:none;stroke:#56f7ca;stroke-linecap:square;"/>
   </g>
   <g id="line2d_10">
    <path clip-path="url(#pecf92152cb)" d="M 72 350.4 
L 80.928 350.4 
L 89.856 350.4 
L 98.784 350.4 
L 107.712 350.4 
L 116.64 350.4 
L 125.568 350.4 
L 134.496 350.399997 
L 143.424 350.399979 
L 152.352 350.399855 
L 161.28 350.39915 
L 170.208 350.395653 
L 179.136 350.380497 
L 188.064 350.322742 
L 196.992 350.128374 
L 205.92 349.548742 
L 214.848 348.013462 
L 223.776 344.396772 
L 232.704 336.817713 
L 241.632 322.705353 
L 250.56 299.426994 
L 259.488 265.612214 
L 268.416 222.82793 
L 277.344 176.679666 
L 286.272 136.243549 
L 295.2 111.408342 
L 304.128 109.040125 
L 313.056 129.949772 
L 321.984 168.463264 
L 330.912 214.894182 
L 339.84 259.463389 
L 348.768 295.519621 
L 357.696 320.685553 
L 366.624 336.006656 
L 375.552 344.183645 
L 384.48 348.015755 
L 393.408 349.591765 
L 402.336 350.159218 
L 411.264 350.337391 
L 420.192 350.385908 
L 429.12 350.397283 
L 438.048 350.399557 
L 446.976 350.39994 
L 455.904 350.399993 
L 464.832 350.399999 
L 473.76 350.4 
L 482.688 350.4 
L 491.616 350.4 
L 500.544 350.4 
" style="fill:none;stroke:#72febb;stroke-linecap:square;"/>
   </g>
   <g id="line2d_11">
    <path clip-path="url(#pecf92152cb)" d="M 72 350.4 
L 80.928 350.4 
L 89.856 350.4 
L 98.784 350.4 
L 107.712 350.4 
L 116.64 350.4 
L 125.568 350.4 
L 134.496 350.399999 
L 143.424 350.399992 
L 152.352 350.399942 
L 161.28 350.39964 
L 170.208 350.39807 
L 179.136 350.390907 
L 188.064 350.362141 
L 196.992 350.25999 
L 205.92 349.938067 
L 214.848 349.035502 
L 223.776 346.780714 
L 232.704 341.758596 
L 241.632 331.791416 
L 250.56 314.201516 
L 259.488 286.715019 
L 268.416 248.978775 
L 277.344 204.113257 
L 286.272 159.250005 
L 295.2 124.134049 
L 304.128 107.852539 
L 313.056 115.091746 
L 321.984 143.985532 
L 330.912 186.881105 
L 339.84 233.601936 
L 348.768 275.324632 
L 357.696 307.075989 
L 366.624 328.017862 
L 375.552 340.082974 
L 384.48 346.173793 
L 393.408 348.868827 
L 402.336 349.912126 
L 411.264 350.264221 
L 420.192 350.367266 
L 429.12 350.393234 
L 438.048 350.398816 
L 446.976 350.399827 
L 455.904 350.39998 
L 464.832 350.399998 
L 473.76 350.4 
L 482.688 350.4 
L 491.616 350.4 
L 500.544 350.4 
" style="fill:none;stroke:#8cfead;stroke-linecap:square;"/>
   </g>
   <g id="line2d_12">
    <path clip-path="url(#pecf92152cb)" d="M 72 350.4 
L 80.928 350.4 
L 89.856 350.4 
L 98.784 350.4 
L 107.712 350.4 
L 116.64 350.4 
L 125.568 350.4 
L 134.496 350.4 
L 143.424 350.399997 
L 152.352 350.399976 
L 161.28 350.399845 
L 170.208 350.399131 
L 179.136 350.39571 
L 188.064 350.381269 
L 196.992 350.327297 
L 205.92 350.148079 
L 214.848 349.617955 
L 223.776 348.218625 
L 232.704 344.919644 
L 241.632 337.974373 
L 250.56 324.935534 
L 259.488 303.174667 
L 268.416 271.074696 
L 277.344 229.651774 
L 286.272 183.794872 
L 295.2 142.039812 
L 304.128 114.289645 
L 313.056 108.119768 
L 321.984 125.483182 
L 330.912 161.736407 
L 339.84 207.632068 
L 348.768 253.124581 
L 357.696 290.863949 
L 366.624 317.761273 
L 375.552 334.426489 
L 384.48 343.44905 
L 393.408 347.72331 
L 402.336 349.493029 
L 411.264 350.131427 
L 420.192 350.331072 
L 429.12 350.384824 
L 438.048 350.39717 
L 446.976 350.39956 
L 455.904 350.399944 
L 464.832 350.399994 
L 473.76 350.4 
L 482.688 350.4 
L 491.616 350.4 
L 500.544 350.4 
" style="fill:none;stroke:#a8f79c;stroke-linecap:square;"/>
   </g>
   <g id="line2d_13">
    <path clip-path="url(#pecf92152cb)" d="M 72 350.4 
L 80.928 350.4 
L 89.856 350.4 
L 98.784 350.4 
L 107.712 350.4 
L 116.64 350.4 
L 125.568 350.4 
L 134.496 350.4 
L 143.424 350.399999 
L 152.352 350.399989 
L 161.28 350.399926 
L 170.208 350.399567 
L 179.136 350.397775 
L 188.064 350.389891 
L 196.992 350.359151 
L 205.92 350.252556 
L 214.848 349.92292 
L 223.776 349.012138 
L 232.704 346.761366 
L 241.632 341.785777 
L 250.56 331.956089 
L 259.488 314.642722 
L 268.416 287.576728 
L 277.344 250.318087 
L 286.272 205.798034 
L 295.2 160.923698 
L 304.128 125.312572 
L 313.056 108.135207 
L 321.984 114.369162 
L 330.912 142.50407 
L 339.84 185.114687 
L 348.768 232.018191 
L 357.696 274.197291 
L 366.624 306.43978 
L 375.552 327.748956 
L 384.48 340.017186 
L 393.408 346.186235 
L 402.336 348.894497 
L 411.264 349.929699 
L 420.192 350.272608 
L 429.12 350.370383 
L 438.048 350.394166 
L 446.976 350.399042 
L 455.904 350.399872 
L 464.832 350.399986 
L 473.76 350.399999 
L 482.688 350.4 
L 491.616 350.4 
L 500.544 350.4 
" style="fill:none;stroke:#c2ea8c;stroke-linecap:square;"/>
   </g>
   <g id="line2d_14">
    <path clip-path="url(#pecf92152cb)" d="M 72 350.4 
L 80.928 350.4 
L 89.856 350.4 
L 98.784 350.4 
L 107.712 350.4 
L 116.64 350.4 
L 125.568 350.4 
L 134.496 350.4 
L 143.424 350.399999 
L 152.352 350.399995 
L 161.28 350.399965 
L 170.208 350.399787 
L 179.136 350.398863 
L 188.064 350.394621 
L 196.992 350.377358 
L 205.92 350.314823 
L 214.848 350.112633 
L 223.776 349.527979 
L 232.704 348.014206 
L 241.632 344.503424 
L 250.56 337.214463 
L 259.488 323.692131 
L 268.416 301.355314 
L 277.344 268.706305 
L 286.272 226.938255 
L 295.2 181.121602 
L 304.128 139.901273 
L 313.056 113.151247 
L 321.984 108.26205 
L 330.912 126.894801 
L 339.84 164.108444 
L 348.768 210.462429 
L 357.696 255.887835 
L 366.624 293.169466 
L 375.552 319.43324 
L 384.48 335.487222 
L 393.408 344.038569 
L 402.336 348.009864 
L 411.264 349.614401 
L 420.192 350.175976 
L 429.12 350.345137 
L 438.048 350.388608 
L 446.976 350.398027 
L 455.904 350.399721 
L 464.832 350.399969 
L 473.76 350.399997 
L 482.688 350.4 
L 491.616 350.4 
L 500.544 350.4 
" style="fill:none;stroke:#ded579;stroke-linecap:square;"/>
   </g>
   <g id="line2d_15">
    <path clip-path="url(#pecf92152cb)" d="M 72 350.4 
L 80.928 350.4 
L 89.856 350.4 
L 98.784 350.4 
L 107.712 350.4 
L 116.64 350.4 
L 125.568 350.4 
L 134.496 350.4 
L 143.424 350.4 
L 152.352 350.399997 
L 161.28 350.399982 
L 170.208 350.399887 
L 179.136 350.399377 
L 188.064 350.396953 
L 196.992 350.386728 
L 205.92 350.348311 
L 214.848 350.219362 
L 223.776 349.831865 
L 232.704 348.788002 
L 241.632 346.265788 
L 250.56 340.801454 
L 259.488 330.201719 
L 268.416 311.844472 
L 277.344 283.6035 
L 286.272 245.344723 
L 295.2 200.412255 
L 304.128 156.07917 
L 313.056 122.085009 
L 321.984 107.349424 
L 330.912 116.265864 
L 339.84 146.625206 
L 348.768 190.479176 
L 357.696 237.498226 
L 366.624 278.899785 
L 375.552 309.918144 
L 384.48 329.991049 
L 393.408 341.281575 
L 402.336 346.810051 
L 411.264 349.163037 
L 420.192 350.03007 
L 429.12 350.304952 
L 438.048 350.379286 
L 446.976 350.396233 
L 455.904 350.399441 
L 464.832 350.399934 
L 473.76 350.399994 
L 482.688 350.4 
L 491.616 350.4 
L 500.544 350.4 
" style="fill:none;stroke:#f9bb66;stroke-linecap:square;"/>
   </g>
   <g id="line2d_16">
    <path clip-path="url(#pecf92152cb)" d="M 72 350.4 
L 80.928 350.4 
L 89.856 350.4 
L 98.784 350.4 
L 107.712 350.4 
L 116.64 350.4 
L 125.568 350.4 
L 134.496 350.4 
L 143.424 350.4 
L 152.352 350.399999 
L 161.28 350.399991 
L 170.208 350.399939 
L 179.136 350.39965 
L 188.064 350.398229 
L 196.992 350.39202 
L 205.92 350.367836 
L 214.848 350.283643 
L 223.776 350.021096 
L 232.704 349.286662 
L 241.632 347.442501 
L 250.56 343.286382 
L 259.488 334.889146 
L 268.416 319.714963 
L 277.344 295.294499 
L 286.272 260.544747 
L 295.2 217.369947 
L 304.128 171.64131 
L 313.056 132.517033 
L 321.984 109.733314 
L 330.912 109.793945 
L 339.84 133.024908 
L 348.768 173.274852 
L 357.696 220.534422 
L 366.624 264.967108 
L 375.552 300.141016 
L 384.48 324.065461 
L 393.408 338.16797 
L 402.336 345.391947 
L 411.264 348.604957 
L 420.192 349.841377 
L 429.12 350.250592 
L 438.048 350.366092 
L 446.976 350.393576 
L 455.904 350.399006 
L 464.832 350.399878 
L 473.76 350.399989 
L 482.688 350.399999 
L 491.616 350.4 
L 500.544 350.4 
" style="fill:none;stroke:#ff9b52;stroke-linecap:square;"/>
   </g>
   <g id="line2d_17">
    <path clip-path="url(#pecf92152cb)" d="M 72 350.4 
L 80.928 350.4 
L 89.856 350.4 
L 98.784 350.4 
L 107.712 350.4 
L 116.64 350.4 
L 125.568 350.4 
L 134.496 350.4 
L 143.424 350.4 
L 152.352 350.399999 
L 161.28 350.399995 
L 170.208 350.399966 
L 179.136 350.399798 
L 188.064 350.398947 
L 196.992 350.395113 
L 205.92 350.379696 
L 214.848 350.324255 
L 223.776 350.145524 
L 232.704 349.628223 
L 241.632 348.28294 
L 250.56 345.139339 
L 259.488 338.544343 
L 268.416 326.147454 
L 277.344 305.342312 
L 286.272 274.356007 
L 295.2 233.819828 
L 304.128 188.105711 
L 313.056 145.364189 
L 321.984 115.543049 
L 330.912 106.794621 
L 339.84 121.947497 
L 348.768 157.075899 
L 357.696 203.12333 
L 366.624 249.680356 
L 375.552 288.773506 
L 384.48 316.798385 
L 393.408 334.15086 
L 402.336 343.470275 
L 411.264 347.811448 
L 420.192 349.560039 
L 429.12 350.16563 
L 438.048 350.34448 
L 446.976 350.389014 
L 455.904 350.398223 
L 464.832 350.399772 
L 473.76 350.399978 
L 482.688 350.399998 
L 491.616 350.4 
L 500.544 350.4 
" style="fill:none;stroke:#ff793e;stroke-linecap:square;"/>
   </g>
   <g id="line2d_18">
    <path clip-path="url(#pecf92152cb)" d="M 72 350.4 
L 80.928 350.4 
L 89.856 350.4 
L 98.784 350.4 
L 107.712 350.4 
L 116.64 350.4 
L 125.568 350.4 
L 134.496 350.4 
L 143.424 350.4 
L 152.352 350.4 
L 161.28 350.399997 
L 170.208 350.39998 
L 179.136 350.39988 
L 188.064 350.399355 
L 196.992 350.396918 
L 205.92 350.38681 
L 214.848 350.349306 
L 223.776 350.224502 
L 232.704 349.85146 
L 241.632 348.848998 
L 250.56 346.426702 
L 259.488 341.167127 
L 268.416 330.922279 
L 277.344 313.075925 
L 286.272 285.417654 
L 295.2 247.613003 
L 304.128 202.735985 
L 313.056 157.852968 
L 321.984 122.718764 
L 330.912 106.555867 
L 339.84 114.236776 
L 348.768 143.96303 
L 357.696 187.912397 
L 366.624 235.560602 
L 375.552 277.764861 
L 384.48 309.449312 
L 393.408 329.917648 
L 402.336 341.362494 
L 411.264 346.906056 
L 420.192 349.226192 
L 429.12 350.06078 
L 438.048 350.316738 
L 446.976 350.382923 
L 455.904 350.397135 
L 464.832 350.399618 
L 473.76 350.399961 
L 482.688 350.399997 
L 491.616 350.4 
L 500.544 350.4 
" style="fill:none;stroke:#ff5029;stroke-linecap:square;"/>
   </g>
   <g id="line2d_19">
    <path clip-path="url(#pecf92152cb)" d="M 72 350.4 
L 80.928 350.4 
L 89.856 350.4 
L 98.784 350.4 
L 107.712 350.4 
L 116.64 350.4 
L 125.568 350.4 
L 134.496 350.4 
L 143.424 350.4 
L 152.352 350.4 
L 161.28 350.399998 
L 170.208 350.399988 
L 179.136 350.399924 
L 188.064 350.399583 
L 196.992 350.397956 
L 205.92 350.39103 
L 214.848 350.364633 
L 223.776 350.274374 
L 232.704 349.997011 
L 241.632 349.230308 
L 250.56 347.323309 
L 259.488 343.057519 
L 268.416 334.488307 
L 277.344 319.071579 
L 286.272 294.344954 
L 295.2 259.256497 
L 304.128 215.774195 
L 313.056 169.868131 
L 321.984 130.814177 
L 330.912 108.439143 
L 339.84 109.245404 
L 348.768 133.422454 
L 357.696 174.573685 
L 366.624 222.437782 
L 375.552 267.040659 
L 384.48 301.985737 
L 393.408 325.449275 
L 402.336 339.054372 
L 411.264 345.878765 
L 420.192 348.834028 
L 429.12 349.933342 
L 438.048 350.281864 
L 446.976 350.375004 
L 455.904 350.395673 
L 464.832 350.399405 
L 473.76 350.399938 
L 482.688 350.399995 
L 491.616 350.4 
L 500.544 350.4 
" style="fill:none;stroke:#ff2914;stroke-linecap:square;"/>
   </g>
   <g id="line2d_20">
    <path clip-path="url(#pecf92152cb)" d="M 72 350.4 
L 80.928 350.4 
L 89.856 350.4 
L 98.784 350.4 
L 107.712 350.4 
L 116.64 350.4 
L 125.568 350.4 
L 134.496 350.4 
L 143.424 350.4 
L 152.352 350.4 
L 161.28 350.399999 
L 170.208 350.399993 
L 179.136 350.399955 
L 188.064 350.399746 
L 196.992 350.39872 
L 205.92 350.394219 
L 214.848 350.376544 
L 223.776 350.314237 
L 232.704 350.116758 
L 241.632 349.553425 
L 250.56 348.106507 
L 259.488 344.761466 
L 268.416 337.809509 
L 277.344 324.851644 
L 286.272 303.276772 
L 295.2 271.397271 
L 304.128 230.050726 
L 313.056 183.915771 
L 321.984 141.453364 
L 330.912 112.771581 
L 339.84 105.897244 
L 348.768 123.228867 
L 357.696 160.252809 
L 366.624 207.419968 
L 375.552 254.137362 
L 384.48 292.602187 
L 393.408 319.597692 
L 402.336 335.911576 
L 411.264 344.425846 
L 420.192 348.258249 
L 429.12 349.739162 
L 438.048 350.226722 
L 446.976 350.362011 
L 455.904 350.393184 
L 464.832 350.399028 
L 473.76 350.399894 
L 482.688 350.399992 
L 491.616 350.4 
L 500.544 350.4 
" style="fill:none;stroke:#ff0000;stroke-linecap:square;"/>
   </g>
   <g id="patch_3">
    <path d="M 72 388.8 
L 72 43.2 
" style="fill:none;stroke:#000000;stroke-linecap:square;stroke-linejoin:miter;"/>
   </g>
   <g id="patch_4">
    <path d="M 72 388.8 
L 518.4 388.8 
" style="fill:none;stroke:#000000;stroke-linecap:square;stroke-linejoin:miter;"/>
   </g>
   <g id="patch_5">
    <path d="M 518.4 388.8 
L 518.4 43.2 
" style="fill:none;stroke:#000000;stroke-linecap:square;stroke-linejoin:miter;"/>
   </g>
   <g id="patch_6">
    <path d="M 72 43.2 
L 518.4 43.2 
" style="fill:none;stroke:#000000;stroke-linecap:square;stroke-linejoin:miter;"/>
   </g>
   <g id="matplotlib.axis_1">
    <g id="xtick_1">
     <g id="line2d_21">
      <defs>
       <path d="M 0 0 
L 0 -4 
" id="m5260dbe46d" style="stroke:#000000;stroke-width:0.5;"/>
      </defs>
      <g>
       <use style="stroke:#000000;stroke-width:0.5;" x="72.0" xlink:href="#m5260dbe46d" y="388.8"/>
      </g>
     </g>
     <g id="line2d_22">
      <defs>
       <path d="M 0 0 
L 0 4 
" id="md251c6a046" style="stroke:#000000;stroke-width:0.5;"/>
      </defs>
      <g>
       <use style="stroke:#000000;stroke-width:0.5;" x="72.0" xlink:href="#md251c6a046" y="43.2"/>
      </g>
     </g>
     <g id="text_1">
      <!-- 0 -->
      <defs>
       <path d="M 31.78125 66.40625 
Q 24.171875 66.40625 20.328125 58.90625 
Q 16.5 51.421875 16.5 36.375 
Q 16.5 21.390625 20.328125 13.890625 
Q 24.171875 6.390625 31.78125 6.390625 
Q 39.453125 6.390625 43.28125 13.890625 
Q 47.125 21.390625 47.125 36.375 
Q 47.125 51.421875 43.28125 58.90625 
Q 39.453125 66.40625 31.78125 66.40625 
M 31.78125 74.21875 
Q 44.046875 74.21875 50.515625 64.515625 
Q 56.984375 54.828125 56.984375 36.375 
Q 56.984375 17.96875 50.515625 8.265625 
Q 44.046875 -1.421875 31.78125 -1.421875 
Q 19.53125 -1.421875 13.0625 8.265625 
Q 6.59375 17.96875 6.59375 36.375 
Q 6.59375 54.828125 13.0625 64.515625 
Q 19.53125 74.21875 31.78125 74.21875 
" id="BitstreamVeraSans-Roman-30"/>
      </defs>
      <g transform="translate(68.1825 401.918125)scale(0.12 -0.12)">
       <use xlink:href="#BitstreamVeraSans-Roman-30"/>
      </g>
     </g>
    </g>
    <g id="xtick_2">
     <g id="line2d_23">
      <g>
       <use style="stroke:#000000;stroke-width:0.5;" x="161.28" xlink:href="#m5260dbe46d" y="388.8"/>
      </g>
     </g>
     <g id="line2d_24">
      <g>
       <use style="stroke:#000000;stroke-width:0.5;" x="161.28" xlink:href="#md251c6a046" y="43.2"/>
      </g>
     </g>
     <g id="text_2">
      <!-- 10 -->
      <defs>
       <path d="M 12.40625 8.296875 
L 28.515625 8.296875 
L 28.515625 63.921875 
L 10.984375 60.40625 
L 10.984375 69.390625 
L 28.421875 72.90625 
L 38.28125 72.90625 
L 38.28125 8.296875 
L 54.390625 8.296875 
L 54.390625 0 
L 12.40625 0 
z
" id="BitstreamVeraSans-Roman-31"/>
      </defs>
      <g transform="translate(153.645 401.918125)scale(0.12 -0.12)">
       <use xlink:href="#BitstreamVeraSans-Roman-31"/>
       <use x="63.623046875" xlink:href="#BitstreamVeraSans-Roman-30"/>
      </g>
     </g>
    </g>
    <g id="xtick_3">
     <g id="line2d_25">
      <g>
       <use style="stroke:#000000;stroke-width:0.5;" x="250.56" xlink:href="#m5260dbe46d" y="388.8"/>
      </g>
     </g>
     <g id="line2d_26">
      <g>
       <use style="stroke:#000000;stroke-width:0.5;" x="250.56" xlink:href="#md251c6a046" y="43.2"/>
      </g>
     </g>
     <g id="text_3">
      <!-- 20 -->
      <defs>
       <path d="M 19.1875 8.296875 
L 53.609375 8.296875 
L 53.609375 0 
L 7.328125 0 
L 7.328125 8.296875 
Q 12.9375 14.109375 22.625 23.890625 
Q 32.328125 33.6875 34.8125 36.53125 
Q 39.546875 41.84375 41.421875 45.53125 
Q 43.3125 49.21875 43.3125 52.78125 
Q 43.3125 58.59375 39.234375 62.25 
Q 35.15625 65.921875 28.609375 65.921875 
Q 23.96875 65.921875 18.8125 64.3125 
Q 13.671875 62.703125 7.8125 59.421875 
L 7.8125 69.390625 
Q 13.765625 71.78125 18.9375 73 
Q 24.125 74.21875 28.421875 74.21875 
Q 39.75 74.21875 46.484375 68.546875 
Q 53.21875 62.890625 53.21875 53.421875 
Q 53.21875 48.921875 51.53125 44.890625 
Q 49.859375 40.875 45.40625 35.40625 
Q 44.1875 33.984375 37.640625 27.21875 
Q 31.109375 20.453125 19.1875 8.296875 
" id="BitstreamVeraSans-Roman-32"/>
      </defs>
      <g transform="translate(242.925 401.918125)scale(0.12 -0.12)">
       <use xlink:href="#BitstreamVeraSans-Roman-32"/>
       <use x="63.623046875" xlink:href="#BitstreamVeraSans-Roman-30"/>
      </g>
     </g>
    </g>
    <g id="xtick_4">
     <g id="line2d_27">
      <g>
       <use style="stroke:#000000;stroke-width:0.5;" x="339.84" xlink:href="#m5260dbe46d" y="388.8"/>
      </g>
     </g>
     <g id="line2d_28">
      <g>
       <use style="stroke:#000000;stroke-width:0.5;" x="339.84" xlink:href="#md251c6a046" y="43.2"/>
      </g>
     </g>
     <g id="text_4">
      <!-- 30 -->
      <defs>
       <path d="M 40.578125 39.3125 
Q 47.65625 37.796875 51.625 33 
Q 55.609375 28.21875 55.609375 21.1875 
Q 55.609375 10.40625 48.1875 4.484375 
Q 40.765625 -1.421875 27.09375 -1.421875 
Q 22.515625 -1.421875 17.65625 -0.515625 
Q 12.796875 0.390625 7.625 2.203125 
L 7.625 11.71875 
Q 11.71875 9.328125 16.59375 8.109375 
Q 21.484375 6.890625 26.8125 6.890625 
Q 36.078125 6.890625 40.9375 10.546875 
Q 45.796875 14.203125 45.796875 21.1875 
Q 45.796875 27.640625 41.28125 31.265625 
Q 36.765625 34.90625 28.71875 34.90625 
L 20.21875 34.90625 
L 20.21875 43.015625 
L 29.109375 43.015625 
Q 36.375 43.015625 40.234375 45.921875 
Q 44.09375 48.828125 44.09375 54.296875 
Q 44.09375 59.90625 40.109375 62.90625 
Q 36.140625 65.921875 28.71875 65.921875 
Q 24.65625 65.921875 20.015625 65.03125 
Q 15.375 64.15625 9.8125 62.3125 
L 9.8125 71.09375 
Q 15.4375 72.65625 20.34375 73.4375 
Q 25.25 74.21875 29.59375 74.21875 
Q 40.828125 74.21875 47.359375 69.109375 
Q 53.90625 64.015625 53.90625 55.328125 
Q 53.90625 49.265625 50.4375 45.09375 
Q 46.96875 40.921875 40.578125 39.3125 
" id="BitstreamVeraSans-Roman-33"/>
      </defs>
      <g transform="translate(332.205 401.918125)scale(0.12 -0.12)">
       <use xlink:href="#BitstreamVeraSans-Roman-33"/>
       <use x="63.623046875" xlink:href="#BitstreamVeraSans-Roman-30"/>
      </g>
     </g>
    </g>
    <g id="xtick_5">
     <g id="line2d_29">
      <g>
       <use style="stroke:#000000;stroke-width:0.5;" x="429.12" xlink:href="#m5260dbe46d" y="388.8"/>
      </g>
     </g>
     <g id="line2d_30">
      <g>
       <use style="stroke:#000000;stroke-width:0.5;" x="429.12" xlink:href="#md251c6a046" y="43.2"/>
      </g>
     </g>
     <g id="text_5">
      <!-- 40 -->
      <defs>
       <path d="M 37.796875 64.3125 
L 12.890625 25.390625 
L 37.796875 25.390625 
z
M 35.203125 72.90625 
L 47.609375 72.90625 
L 47.609375 25.390625 
L 58.015625 25.390625 
L 58.015625 17.1875 
L 47.609375 17.1875 
L 47.609375 0 
L 37.796875 0 
L 37.796875 17.1875 
L 4.890625 17.1875 
L 4.890625 26.703125 
z
" id="BitstreamVeraSans-Roman-34"/>
      </defs>
      <g transform="translate(421.485 401.918125)scale(0.12 -0.12)">
       <use xlink:href="#BitstreamVeraSans-Roman-34"/>
       <use x="63.623046875" xlink:href="#BitstreamVeraSans-Roman-30"/>
      </g>
     </g>
    </g>
    <g id="xtick_6">
     <g id="line2d_31">
      <g>
       <use style="stroke:#000000;stroke-width:0.5;" x="518.4" xlink:href="#m5260dbe46d" y="388.8"/>
      </g>
     </g>
     <g id="line2d_32">
      <g>
       <use style="stroke:#000000;stroke-width:0.5;" x="518.4" xlink:href="#md251c6a046" y="43.2"/>
      </g>
     </g>
     <g id="text_6">
      <!-- 50 -->
      <defs>
       <path d="M 10.796875 72.90625 
L 49.515625 72.90625 
L 49.515625 64.59375 
L 19.828125 64.59375 
L 19.828125 46.734375 
Q 21.96875 47.46875 24.109375 47.828125 
Q 26.265625 48.1875 28.421875 48.1875 
Q 40.625 48.1875 47.75 41.5 
Q 54.890625 34.8125 54.890625 23.390625 
Q 54.890625 11.625 47.5625 5.09375 
Q 40.234375 -1.421875 26.90625 -1.421875 
Q 22.3125 -1.421875 17.546875 -0.640625 
Q 12.796875 0.140625 7.71875 1.703125 
L 7.71875 11.625 
Q 12.109375 9.234375 16.796875 8.0625 
Q 21.484375 6.890625 26.703125 6.890625 
Q 35.15625 6.890625 40.078125 11.328125 
Q 45.015625 15.765625 45.015625 23.390625 
Q 45.015625 31 40.078125 35.4375 
Q 35.15625 39.890625 26.703125 39.890625 
Q 22.75 39.890625 18.8125 39.015625 
Q 14.890625 38.140625 10.796875 36.28125 
z
" id="BitstreamVeraSans-Roman-35"/>
      </defs>
      <g transform="translate(510.765 401.918125)scale(0.12 -0.12)">
       <use xlink:href="#BitstreamVeraSans-Roman-35"/>
       <use x="63.623046875" xlink:href="#BitstreamVeraSans-Roman-30"/>
      </g>
     </g>
    </g>
    <g id="text_7">
     <!-- number of covered sentences -->
     <defs>
      <path d="M 54.890625 33.015625 
L 54.890625 0 
L 45.90625 0 
L 45.90625 32.71875 
Q 45.90625 40.484375 42.875 44.328125 
Q 39.84375 48.1875 33.796875 48.1875 
Q 26.515625 48.1875 22.3125 43.546875 
Q 18.109375 38.921875 18.109375 30.90625 
L 18.109375 0 
L 9.078125 0 
L 9.078125 54.6875 
L 18.109375 54.6875 
L 18.109375 46.1875 
Q 21.34375 51.125 25.703125 53.5625 
Q 30.078125 56 35.796875 56 
Q 45.21875 56 50.046875 50.171875 
Q 54.890625 44.34375 54.890625 33.015625 
" id="BitstreamVeraSans-Roman-6e"/>
      <path d="M 52 44.1875 
Q 55.375 50.25 60.0625 53.125 
Q 64.75 56 71.09375 56 
Q 79.640625 56 84.28125 50.015625 
Q 88.921875 44.046875 88.921875 33.015625 
L 88.921875 0 
L 79.890625 0 
L 79.890625 32.71875 
Q 79.890625 40.578125 77.09375 44.375 
Q 74.3125 48.1875 68.609375 48.1875 
Q 61.625 48.1875 57.5625 43.546875 
Q 53.515625 38.921875 53.515625 30.90625 
L 53.515625 0 
L 44.484375 0 
L 44.484375 32.71875 
Q 44.484375 40.625 41.703125 44.40625 
Q 38.921875 48.1875 33.109375 48.1875 
Q 26.21875 48.1875 22.15625 43.53125 
Q 18.109375 38.875 18.109375 30.90625 
L 18.109375 0 
L 9.078125 0 
L 9.078125 54.6875 
L 18.109375 54.6875 
L 18.109375 46.1875 
Q 21.1875 51.21875 25.484375 53.609375 
Q 29.78125 56 35.6875 56 
Q 41.65625 56 45.828125 52.96875 
Q 50 49.953125 52 44.1875 
" id="BitstreamVeraSans-Roman-6d"/>
      <path d="M 2.984375 54.6875 
L 12.5 54.6875 
L 29.59375 8.796875 
L 46.6875 54.6875 
L 56.203125 54.6875 
L 35.6875 0 
L 23.484375 0 
z
" id="BitstreamVeraSans-Roman-76"/>
      <path d="M 41.109375 46.296875 
Q 39.59375 47.171875 37.8125 47.578125 
Q 36.03125 48 33.890625 48 
Q 26.265625 48 22.1875 43.046875 
Q 18.109375 38.09375 18.109375 28.8125 
L 18.109375 0 
L 9.078125 0 
L 9.078125 54.6875 
L 18.109375 54.6875 
L 18.109375 46.1875 
Q 20.953125 51.171875 25.484375 53.578125 
Q 30.03125 56 36.53125 56 
Q 37.453125 56 38.578125 55.875 
Q 39.703125 55.765625 41.0625 55.515625 
z
" id="BitstreamVeraSans-Roman-72"/>
      <path d="M 48.78125 52.59375 
L 48.78125 44.1875 
Q 44.96875 46.296875 41.140625 47.34375 
Q 37.3125 48.390625 33.40625 48.390625 
Q 24.65625 48.390625 19.8125 42.84375 
Q 14.984375 37.3125 14.984375 27.296875 
Q 14.984375 17.28125 19.8125 11.734375 
Q 24.65625 6.203125 33.40625 6.203125 
Q 37.3125 6.203125 41.140625 7.25 
Q 44.96875 8.296875 48.78125 10.40625 
L 48.78125 2.09375 
Q 45.015625 0.34375 40.984375 -0.53125 
Q 36.96875 -1.421875 32.421875 -1.421875 
Q 20.0625 -1.421875 12.78125 6.34375 
Q 5.515625 14.109375 5.515625 27.296875 
Q 5.515625 40.671875 12.859375 48.328125 
Q 20.21875 56 33.015625 56 
Q 37.15625 56 41.109375 55.140625 
Q 45.0625 54.296875 48.78125 52.59375 
" id="BitstreamVeraSans-Roman-63"/>
      <path d="M 48.6875 27.296875 
Q 48.6875 37.203125 44.609375 42.84375 
Q 40.53125 48.484375 33.40625 48.484375 
Q 26.265625 48.484375 22.1875 42.84375 
Q 18.109375 37.203125 18.109375 27.296875 
Q 18.109375 17.390625 22.1875 11.75 
Q 26.265625 6.109375 33.40625 6.109375 
Q 40.53125 6.109375 44.609375 11.75 
Q 48.6875 17.390625 48.6875 27.296875 
M 18.109375 46.390625 
Q 20.953125 51.265625 25.265625 53.625 
Q 29.59375 56 35.59375 56 
Q 45.5625 56 51.78125 48.09375 
Q 58.015625 40.1875 58.015625 27.296875 
Q 58.015625 14.40625 51.78125 6.484375 
Q 45.5625 -1.421875 35.59375 -1.421875 
Q 29.59375 -1.421875 25.265625 0.953125 
Q 20.953125 3.328125 18.109375 8.203125 
L 18.109375 0 
L 9.078125 0 
L 9.078125 75.984375 
L 18.109375 75.984375 
z
" id="BitstreamVeraSans-Roman-62"/>
      <path d="M 30.609375 48.390625 
Q 23.390625 48.390625 19.1875 42.75 
Q 14.984375 37.109375 14.984375 27.296875 
Q 14.984375 17.484375 19.15625 11.84375 
Q 23.34375 6.203125 30.609375 6.203125 
Q 37.796875 6.203125 41.984375 11.859375 
Q 46.1875 17.53125 46.1875 27.296875 
Q 46.1875 37.015625 41.984375 42.703125 
Q 37.796875 48.390625 30.609375 48.390625 
M 30.609375 56 
Q 42.328125 56 49.015625 48.375 
Q 55.71875 40.765625 55.71875 27.296875 
Q 55.71875 13.875 49.015625 6.21875 
Q 42.328125 -1.421875 30.609375 -1.421875 
Q 18.84375 -1.421875 12.171875 6.21875 
Q 5.515625 13.875 5.515625 27.296875 
Q 5.515625 40.765625 12.171875 48.375 
Q 18.84375 56 30.609375 56 
" id="BitstreamVeraSans-Roman-6f"/>
      <path d="M 45.40625 46.390625 
L 45.40625 75.984375 
L 54.390625 75.984375 
L 54.390625 0 
L 45.40625 0 
L 45.40625 8.203125 
Q 42.578125 3.328125 38.25 0.953125 
Q 33.9375 -1.421875 27.875 -1.421875 
Q 17.96875 -1.421875 11.734375 6.484375 
Q 5.515625 14.40625 5.515625 27.296875 
Q 5.515625 40.1875 11.734375 48.09375 
Q 17.96875 56 27.875 56 
Q 33.9375 56 38.25 53.625 
Q 42.578125 51.265625 45.40625 46.390625 
M 14.796875 27.296875 
Q 14.796875 17.390625 18.875 11.75 
Q 22.953125 6.109375 30.078125 6.109375 
Q 37.203125 6.109375 41.296875 11.75 
Q 45.40625 17.390625 45.40625 27.296875 
Q 45.40625 37.203125 41.296875 42.84375 
Q 37.203125 48.484375 30.078125 48.484375 
Q 22.953125 48.484375 18.875 42.84375 
Q 14.796875 37.203125 14.796875 27.296875 
" id="BitstreamVeraSans-Roman-64"/>
      <path id="BitstreamVeraSans-Roman-20"/>
      <path d="M 18.3125 70.21875 
L 18.3125 54.6875 
L 36.8125 54.6875 
L 36.8125 47.703125 
L 18.3125 47.703125 
L 18.3125 18.015625 
Q 18.3125 11.328125 20.140625 9.421875 
Q 21.96875 7.515625 27.59375 7.515625 
L 36.8125 7.515625 
L 36.8125 0 
L 27.59375 0 
Q 17.1875 0 13.234375 3.875 
Q 9.28125 7.765625 9.28125 18.015625 
L 9.28125 47.703125 
L 2.6875 47.703125 
L 2.6875 54.6875 
L 9.28125 54.6875 
L 9.28125 70.21875 
z
" id="BitstreamVeraSans-Roman-74"/>
      <path d="M 8.5 21.578125 
L 8.5 54.6875 
L 17.484375 54.6875 
L 17.484375 21.921875 
Q 17.484375 14.15625 20.5 10.265625 
Q 23.53125 6.390625 29.59375 6.390625 
Q 36.859375 6.390625 41.078125 11.03125 
Q 45.3125 15.671875 45.3125 23.6875 
L 45.3125 54.6875 
L 54.296875 54.6875 
L 54.296875 0 
L 45.3125 0 
L 45.3125 8.40625 
Q 42.046875 3.421875 37.71875 1 
Q 33.40625 -1.421875 27.6875 -1.421875 
Q 18.265625 -1.421875 13.375 4.4375 
Q 8.5 10.296875 8.5 21.578125 
" id="BitstreamVeraSans-Roman-75"/>
      <path d="M 44.28125 53.078125 
L 44.28125 44.578125 
Q 40.484375 46.53125 36.375 47.5 
Q 32.28125 48.484375 27.875 48.484375 
Q 21.1875 48.484375 17.84375 46.4375 
Q 14.5 44.390625 14.5 40.28125 
Q 14.5 37.15625 16.890625 35.375 
Q 19.28125 33.59375 26.515625 31.984375 
L 29.59375 31.296875 
Q 39.15625 29.25 43.1875 25.515625 
Q 47.21875 21.78125 47.21875 15.09375 
Q 47.21875 7.46875 41.1875 3.015625 
Q 35.15625 -1.421875 24.609375 -1.421875 
Q 20.21875 -1.421875 15.453125 -0.5625 
Q 10.6875 0.296875 5.421875 2 
L 5.421875 11.28125 
Q 10.40625 8.6875 15.234375 7.390625 
Q 20.0625 6.109375 24.8125 6.109375 
Q 31.15625 6.109375 34.5625 8.28125 
Q 37.984375 10.453125 37.984375 14.40625 
Q 37.984375 18.0625 35.515625 20.015625 
Q 33.0625 21.96875 24.703125 23.78125 
L 21.578125 24.515625 
Q 13.234375 26.265625 9.515625 29.90625 
Q 5.8125 33.546875 5.8125 39.890625 
Q 5.8125 47.609375 11.28125 51.796875 
Q 16.75 56 26.8125 56 
Q 31.78125 56 36.171875 55.265625 
Q 40.578125 54.546875 44.28125 53.078125 
" id="BitstreamVeraSans-Roman-73"/>
      <path d="M 37.109375 75.984375 
L 37.109375 68.5 
L 28.515625 68.5 
Q 23.6875 68.5 21.796875 66.546875 
Q 19.921875 64.59375 19.921875 59.515625 
L 19.921875 54.6875 
L 34.71875 54.6875 
L 34.71875 47.703125 
L 19.921875 47.703125 
L 19.921875 0 
L 10.890625 0 
L 10.890625 47.703125 
L 2.296875 47.703125 
L 2.296875 54.6875 
L 10.890625 54.6875 
L 10.890625 58.5 
Q 10.890625 67.625 15.140625 71.796875 
Q 19.390625 75.984375 28.609375 75.984375 
z
" id="BitstreamVeraSans-Roman-66"/>
      <path d="M 56.203125 29.59375 
L 56.203125 25.203125 
L 14.890625 25.203125 
Q 15.484375 15.921875 20.484375 11.0625 
Q 25.484375 6.203125 34.421875 6.203125 
Q 39.59375 6.203125 44.453125 7.46875 
Q 49.3125 8.734375 54.109375 11.28125 
L 54.109375 2.78125 
Q 49.265625 0.734375 44.1875 -0.34375 
Q 39.109375 -1.421875 33.890625 -1.421875 
Q 20.796875 -1.421875 13.15625 6.1875 
Q 5.515625 13.8125 5.515625 26.8125 
Q 5.515625 40.234375 12.765625 48.109375 
Q 20.015625 56 32.328125 56 
Q 43.359375 56 49.78125 48.890625 
Q 56.203125 41.796875 56.203125 29.59375 
M 47.21875 32.234375 
Q 47.125 39.59375 43.09375 43.984375 
Q 39.0625 48.390625 32.421875 48.390625 
Q 24.90625 48.390625 20.390625 44.140625 
Q 15.875 39.890625 15.1875 32.171875 
z
" id="BitstreamVeraSans-Roman-65"/>
     </defs>
     <g transform="translate(205.516875 418.531875)scale(0.12 -0.12)">
      <use xlink:href="#BitstreamVeraSans-Roman-6e"/>
      <use x="63.37890625" xlink:href="#BitstreamVeraSans-Roman-75"/>
      <use x="126.7578125" xlink:href="#BitstreamVeraSans-Roman-6d"/>
      <use x="224.169921875" xlink:href="#BitstreamVeraSans-Roman-62"/>
      <use x="287.646484375" xlink:href="#BitstreamVeraSans-Roman-65"/>
      <use x="349.169921875" xlink:href="#BitstreamVeraSans-Roman-72"/>
      <use x="390.283203125" xlink:href="#BitstreamVeraSans-Roman-20"/>
      <use x="422.0703125" xlink:href="#BitstreamVeraSans-Roman-6f"/>
      <use x="483.251953125" xlink:href="#BitstreamVeraSans-Roman-66"/>
      <use x="518.45703125" xlink:href="#BitstreamVeraSans-Roman-20"/>
      <use x="550.244140625" xlink:href="#BitstreamVeraSans-Roman-63"/>
      <use x="605.224609375" xlink:href="#BitstreamVeraSans-Roman-6f"/>
      <use x="666.40625" xlink:href="#BitstreamVeraSans-Roman-76"/>
      <use x="725.5859375" xlink:href="#BitstreamVeraSans-Roman-65"/>
      <use x="787.109375" xlink:href="#BitstreamVeraSans-Roman-72"/>
      <use x="828.19140625" xlink:href="#BitstreamVeraSans-Roman-65"/>
      <use x="889.71484375" xlink:href="#BitstreamVeraSans-Roman-64"/>
      <use x="953.19140625" xlink:href="#BitstreamVeraSans-Roman-20"/>
      <use x="984.978515625" xlink:href="#BitstreamVeraSans-Roman-73"/>
      <use x="1037.078125" xlink:href="#BitstreamVeraSans-Roman-65"/>
      <use x="1098.6015625" xlink:href="#BitstreamVeraSans-Roman-6e"/>
      <use x="1161.98046875" xlink:href="#BitstreamVeraSans-Roman-74"/>
      <use x="1201.189453125" xlink:href="#BitstreamVeraSans-Roman-65"/>
      <use x="1262.712890625" xlink:href="#BitstreamVeraSans-Roman-6e"/>
      <use x="1326.091796875" xlink:href="#BitstreamVeraSans-Roman-63"/>
      <use x="1381.072265625" xlink:href="#BitstreamVeraSans-Roman-65"/>
      <use x="1442.595703125" xlink:href="#BitstreamVeraSans-Roman-73"/>
     </g>
    </g>
   </g>
   <g id="matplotlib.axis_2">
    <g id="ytick_1">
     <g id="line2d_33">
      <defs>
       <path d="M 0 0 
L 4 0 
" id="m4569e6e2a2" style="stroke:#000000;stroke-width:0.5;"/>
      </defs>
      <g>
       <use style="stroke:#000000;stroke-width:0.5;" x="72.0" xlink:href="#m4569e6e2a2" y="388.8"/>
      </g>
     </g>
     <g id="line2d_34">
      <defs>
       <path d="M 0 0 
L -4 0 
" id="m943a7080ef" style="stroke:#000000;stroke-width:0.5;"/>
      </defs>
      <g>
       <use style="stroke:#000000;stroke-width:0.5;" x="518.4" xlink:href="#m943a7080ef" y="388.8"/>
      </g>
     </g>
     <g id="text_8">
      <!-- −0.02 -->
      <defs>
       <path d="M 10.59375 35.5 
L 73.1875 35.5 
L 73.1875 27.203125 
L 10.59375 27.203125 
z
" id="BitstreamVeraSans-Roman-2212"/>
       <path d="M 10.6875 12.40625 
L 21 12.40625 
L 21 0 
L 10.6875 0 
z
" id="BitstreamVeraSans-Roman-2e"/>
      </defs>
      <g transform="translate(31.225625 392.11125)scale(0.12 -0.12)">
       <use xlink:href="#BitstreamVeraSans-Roman-2212"/>
       <use x="83.7890625" xlink:href="#BitstreamVeraSans-Roman-30"/>
       <use x="147.412109375" xlink:href="#BitstreamVeraSans-Roman-2e"/>
       <use x="179.19921875" xlink:href="#BitstreamVeraSans-Roman-30"/>
       <use x="242.822265625" xlink:href="#BitstreamVeraSans-Roman-32"/>
      </g>
     </g>
    </g>
    <g id="ytick_2">
     <g id="line2d_35">
      <g>
       <use style="stroke:#000000;stroke-width:0.5;" x="72.0" xlink:href="#m4569e6e2a2" y="350.4"/>
      </g>
     </g>
     <g id="line2d_36">
      <g>
       <use style="stroke:#000000;stroke-width:0.5;" x="518.4" xlink:href="#m943a7080ef" y="350.4"/>
      </g>
     </g>
     <g id="text_9">
      <!-- 0.00 -->
      <g transform="translate(41.28125 353.71125)scale(0.12 -0.12)">
       <use xlink:href="#BitstreamVeraSans-Roman-30"/>
       <use x="63.623046875" xlink:href="#BitstreamVeraSans-Roman-2e"/>
       <use x="95.41015625" xlink:href="#BitstreamVeraSans-Roman-30"/>
       <use x="159.033203125" xlink:href="#BitstreamVeraSans-Roman-30"/>
      </g>
     </g>
    </g>
    <g id="ytick_3">
     <g id="line2d_37">
      <g>
       <use style="stroke:#000000;stroke-width:0.5;" x="72.0" xlink:href="#m4569e6e2a2" y="312.0"/>
      </g>
     </g>
     <g id="line2d_38">
      <g>
       <use style="stroke:#000000;stroke-width:0.5;" x="518.4" xlink:href="#m943a7080ef" y="312.0"/>
      </g>
     </g>
     <g id="text_10">
      <!-- 0.02 -->
      <g transform="translate(41.28125 315.31125)scale(0.12 -0.12)">
       <use xlink:href="#BitstreamVeraSans-Roman-30"/>
       <use x="63.623046875" xlink:href="#BitstreamVeraSans-Roman-2e"/>
       <use x="95.41015625" xlink:href="#BitstreamVeraSans-Roman-30"/>
       <use x="159.033203125" xlink:href="#BitstreamVeraSans-Roman-32"/>
      </g>
     </g>
    </g>
    <g id="ytick_4">
     <g id="line2d_39">
      <g>
       <use style="stroke:#000000;stroke-width:0.5;" x="72.0" xlink:href="#m4569e6e2a2" y="273.6"/>
      </g>
     </g>
     <g id="line2d_40">
      <g>
       <use style="stroke:#000000;stroke-width:0.5;" x="518.4" xlink:href="#m943a7080ef" y="273.6"/>
      </g>
     </g>
     <g id="text_11">
      <!-- 0.04 -->
      <g transform="translate(41.28125 276.91125)scale(0.12 -0.12)">
       <use xlink:href="#BitstreamVeraSans-Roman-30"/>
       <use x="63.623046875" xlink:href="#BitstreamVeraSans-Roman-2e"/>
       <use x="95.41015625" xlink:href="#BitstreamVeraSans-Roman-30"/>
       <use x="159.033203125" xlink:href="#BitstreamVeraSans-Roman-34"/>
      </g>
     </g>
    </g>
    <g id="ytick_5">
     <g id="line2d_41">
      <g>
       <use style="stroke:#000000;stroke-width:0.5;" x="72.0" xlink:href="#m4569e6e2a2" y="235.2"/>
      </g>
     </g>
     <g id="line2d_42">
      <g>
       <use style="stroke:#000000;stroke-width:0.5;" x="518.4" xlink:href="#m943a7080ef" y="235.2"/>
      </g>
     </g>
     <g id="text_12">
      <!-- 0.06 -->
      <defs>
       <path d="M 33.015625 40.375 
Q 26.375 40.375 22.484375 35.828125 
Q 18.609375 31.296875 18.609375 23.390625 
Q 18.609375 15.53125 22.484375 10.953125 
Q 26.375 6.390625 33.015625 6.390625 
Q 39.65625 6.390625 43.53125 10.953125 
Q 47.40625 15.53125 47.40625 23.390625 
Q 47.40625 31.296875 43.53125 35.828125 
Q 39.65625 40.375 33.015625 40.375 
M 52.59375 71.296875 
L 52.59375 62.3125 
Q 48.875 64.0625 45.09375 64.984375 
Q 41.3125 65.921875 37.59375 65.921875 
Q 27.828125 65.921875 22.671875 59.328125 
Q 17.53125 52.734375 16.796875 39.40625 
Q 19.671875 43.65625 24.015625 45.921875 
Q 28.375 48.1875 33.59375 48.1875 
Q 44.578125 48.1875 50.953125 41.515625 
Q 57.328125 34.859375 57.328125 23.390625 
Q 57.328125 12.15625 50.6875 5.359375 
Q 44.046875 -1.421875 33.015625 -1.421875 
Q 20.359375 -1.421875 13.671875 8.265625 
Q 6.984375 17.96875 6.984375 36.375 
Q 6.984375 53.65625 15.1875 63.9375 
Q 23.390625 74.21875 37.203125 74.21875 
Q 40.921875 74.21875 44.703125 73.484375 
Q 48.484375 72.75 52.59375 71.296875 
" id="BitstreamVeraSans-Roman-36"/>
      </defs>
      <g transform="translate(41.28125 238.51125)scale(0.12 -0.12)">
       <use xlink:href="#BitstreamVeraSans-Roman-30"/>
       <use x="63.623046875" xlink:href="#BitstreamVeraSans-Roman-2e"/>
       <use x="95.41015625" xlink:href="#BitstreamVeraSans-Roman-30"/>
       <use x="159.033203125" xlink:href="#BitstreamVeraSans-Roman-36"/>
      </g>
     </g>
    </g>
    <g id="ytick_6">
     <g id="line2d_43">
      <g>
       <use style="stroke:#000000;stroke-width:0.5;" x="72.0" xlink:href="#m4569e6e2a2" y="196.8"/>
      </g>
     </g>
     <g id="line2d_44">
      <g>
       <use style="stroke:#000000;stroke-width:0.5;" x="518.4" xlink:href="#m943a7080ef" y="196.8"/>
      </g>
     </g>
     <g id="text_13">
      <!-- 0.08 -->
      <defs>
       <path d="M 31.78125 34.625 
Q 24.75 34.625 20.71875 30.859375 
Q 16.703125 27.09375 16.703125 20.515625 
Q 16.703125 13.921875 20.71875 10.15625 
Q 24.75 6.390625 31.78125 6.390625 
Q 38.8125 6.390625 42.859375 10.171875 
Q 46.921875 13.96875 46.921875 20.515625 
Q 46.921875 27.09375 42.890625 30.859375 
Q 38.875 34.625 31.78125 34.625 
M 21.921875 38.8125 
Q 15.578125 40.375 12.03125 44.71875 
Q 8.5 49.078125 8.5 55.328125 
Q 8.5 64.0625 14.71875 69.140625 
Q 20.953125 74.21875 31.78125 74.21875 
Q 42.671875 74.21875 48.875 69.140625 
Q 55.078125 64.0625 55.078125 55.328125 
Q 55.078125 49.078125 51.53125 44.71875 
Q 48 40.375 41.703125 38.8125 
Q 48.828125 37.15625 52.796875 32.3125 
Q 56.78125 27.484375 56.78125 20.515625 
Q 56.78125 9.90625 50.3125 4.234375 
Q 43.84375 -1.421875 31.78125 -1.421875 
Q 19.734375 -1.421875 13.25 4.234375 
Q 6.78125 9.90625 6.78125 20.515625 
Q 6.78125 27.484375 10.78125 32.3125 
Q 14.796875 37.15625 21.921875 38.8125 
M 18.3125 54.390625 
Q 18.3125 48.734375 21.84375 45.5625 
Q 25.390625 42.390625 31.78125 42.390625 
Q 38.140625 42.390625 41.71875 45.5625 
Q 45.3125 48.734375 45.3125 54.390625 
Q 45.3125 60.0625 41.71875 63.234375 
Q 38.140625 66.40625 31.78125 66.40625 
Q 25.390625 66.40625 21.84375 63.234375 
Q 18.3125 60.0625 18.3125 54.390625 
" id="BitstreamVeraSans-Roman-38"/>
      </defs>
      <g transform="translate(41.28125 200.11125)scale(0.12 -0.12)">
       <use xlink:href="#BitstreamVeraSans-Roman-30"/>
       <use x="63.623046875" xlink:href="#BitstreamVeraSans-Roman-2e"/>
       <use x="95.41015625" xlink:href="#BitstreamVeraSans-Roman-30"/>
       <use x="159.033203125" xlink:href="#BitstreamVeraSans-Roman-38"/>
      </g>
     </g>
    </g>
    <g id="ytick_7">
     <g id="line2d_45">
      <g>
       <use style="stroke:#000000;stroke-width:0.5;" x="72.0" xlink:href="#m4569e6e2a2" y="158.4"/>
      </g>
     </g>
     <g id="line2d_46">
      <g>
       <use style="stroke:#000000;stroke-width:0.5;" x="518.4" xlink:href="#m943a7080ef" y="158.4"/>
      </g>
     </g>
     <g id="text_14">
      <!-- 0.10 -->
      <g transform="translate(41.28125 161.71125)scale(0.12 -0.12)">
       <use xlink:href="#BitstreamVeraSans-Roman-30"/>
       <use x="63.623046875" xlink:href="#BitstreamVeraSans-Roman-2e"/>
       <use x="95.41015625" xlink:href="#BitstreamVeraSans-Roman-31"/>
       <use x="159.033203125" xlink:href="#BitstreamVeraSans-Roman-30"/>
      </g>
     </g>
    </g>
    <g id="ytick_8">
     <g id="line2d_47">
      <g>
       <use style="stroke:#000000;stroke-width:0.5;" x="72.0" xlink:href="#m4569e6e2a2" y="120.0"/>
      </g>
     </g>
     <g id="line2d_48">
      <g>
       <use style="stroke:#000000;stroke-width:0.5;" x="518.4" xlink:href="#m943a7080ef" y="120.0"/>
      </g>
     </g>
     <g id="text_15">
      <!-- 0.12 -->
      <g transform="translate(41.28125 123.31125)scale(0.12 -0.12)">
       <use xlink:href="#BitstreamVeraSans-Roman-30"/>
       <use x="63.623046875" xlink:href="#BitstreamVeraSans-Roman-2e"/>
       <use x="95.41015625" xlink:href="#BitstreamVeraSans-Roman-31"/>
       <use x="159.033203125" xlink:href="#BitstreamVeraSans-Roman-32"/>
      </g>
     </g>
    </g>
    <g id="ytick_9">
     <g id="line2d_49">
      <g>
       <use style="stroke:#000000;stroke-width:0.5;" x="72.0" xlink:href="#m4569e6e2a2" y="81.6"/>
      </g>
     </g>
     <g id="line2d_50">
      <g>
       <use style="stroke:#000000;stroke-width:0.5;" x="518.4" xlink:href="#m943a7080ef" y="81.6"/>
      </g>
     </g>
     <g id="text_16">
      <!-- 0.14 -->
      <g transform="translate(41.28125 84.91125)scale(0.12 -0.12)">
       <use xlink:href="#BitstreamVeraSans-Roman-30"/>
       <use x="63.623046875" xlink:href="#BitstreamVeraSans-Roman-2e"/>
       <use x="95.41015625" xlink:href="#BitstreamVeraSans-Roman-31"/>
       <use x="159.033203125" xlink:href="#BitstreamVeraSans-Roman-34"/>
      </g>
     </g>
    </g>
    <g id="ytick_10">
     <g id="line2d_51">
      <g>
       <use style="stroke:#000000;stroke-width:0.5;" x="72.0" xlink:href="#m4569e6e2a2" y="43.2"/>
      </g>
     </g>
     <g id="line2d_52">
      <g>
       <use style="stroke:#000000;stroke-width:0.5;" x="518.4" xlink:href="#m943a7080ef" y="43.2"/>
      </g>
     </g>
     <g id="text_17">
      <!-- 0.16 -->
      <g transform="translate(41.28125 46.51125)scale(0.12 -0.12)">
       <use xlink:href="#BitstreamVeraSans-Roman-30"/>
       <use x="63.623046875" xlink:href="#BitstreamVeraSans-Roman-2e"/>
       <use x="95.41015625" xlink:href="#BitstreamVeraSans-Roman-31"/>
       <use x="159.033203125" xlink:href="#BitstreamVeraSans-Roman-36"/>
      </g>
     </g>
    </g>
    <g id="text_18">
     <!-- probabillity -->
     <defs>
      <path d="M 34.28125 27.484375 
Q 23.390625 27.484375 19.1875 25 
Q 14.984375 22.515625 14.984375 16.5 
Q 14.984375 11.71875 18.140625 8.90625 
Q 21.296875 6.109375 26.703125 6.109375 
Q 34.1875 6.109375 38.703125 11.40625 
Q 43.21875 16.703125 43.21875 25.484375 
L 43.21875 27.484375 
z
M 52.203125 31.203125 
L 52.203125 0 
L 43.21875 0 
L 43.21875 8.296875 
Q 40.140625 3.328125 35.546875 0.953125 
Q 30.953125 -1.421875 24.3125 -1.421875 
Q 15.921875 -1.421875 10.953125 3.296875 
Q 6 8.015625 6 15.921875 
Q 6 25.140625 12.171875 29.828125 
Q 18.359375 34.515625 30.609375 34.515625 
L 43.21875 34.515625 
L 43.21875 35.40625 
Q 43.21875 41.609375 39.140625 45 
Q 35.0625 48.390625 27.6875 48.390625 
Q 23 48.390625 18.546875 47.265625 
Q 14.109375 46.140625 10.015625 43.890625 
L 10.015625 52.203125 
Q 14.9375 54.109375 19.578125 55.046875 
Q 24.21875 56 28.609375 56 
Q 40.484375 56 46.34375 49.84375 
Q 52.203125 43.703125 52.203125 31.203125 
" id="BitstreamVeraSans-Roman-61"/>
      <path d="M 9.421875 54.6875 
L 18.40625 54.6875 
L 18.40625 0 
L 9.421875 0 
z
M 9.421875 75.984375 
L 18.40625 75.984375 
L 18.40625 64.59375 
L 9.421875 64.59375 
z
" id="BitstreamVeraSans-Roman-69"/>
      <path d="M 9.421875 75.984375 
L 18.40625 75.984375 
L 18.40625 0 
L 9.421875 0 
z
" id="BitstreamVeraSans-Roman-6c"/>
      <path d="M 18.109375 8.203125 
L 18.109375 -20.796875 
L 9.078125 -20.796875 
L 9.078125 54.6875 
L 18.109375 54.6875 
L 18.109375 46.390625 
Q 20.953125 51.265625 25.265625 53.625 
Q 29.59375 56 35.59375 56 
Q 45.5625 56 51.78125 48.09375 
Q 58.015625 40.1875 58.015625 27.296875 
Q 58.015625 14.40625 51.78125 6.484375 
Q 45.5625 -1.421875 35.59375 -1.421875 
Q 29.59375 -1.421875 25.265625 0.953125 
Q 20.953125 3.328125 18.109375 8.203125 
M 48.6875 27.296875 
Q 48.6875 37.203125 44.609375 42.84375 
Q 40.53125 48.484375 33.40625 48.484375 
Q 26.265625 48.484375 22.1875 42.84375 
Q 18.109375 37.203125 18.109375 27.296875 
Q 18.109375 17.390625 22.1875 11.75 
Q 26.265625 6.109375 33.40625 6.109375 
Q 40.53125 6.109375 44.609375 11.75 
Q 48.6875 17.390625 48.6875 27.296875 
" id="BitstreamVeraSans-Roman-70"/>
      <path d="M 32.171875 -5.078125 
Q 28.375 -14.84375 24.75 -17.8125 
Q 21.140625 -20.796875 15.09375 -20.796875 
L 7.90625 -20.796875 
L 7.90625 -13.28125 
L 13.1875 -13.28125 
Q 16.890625 -13.28125 18.9375 -11.515625 
Q 21 -9.765625 23.484375 -3.21875 
L 25.09375 0.875 
L 2.984375 54.6875 
L 12.5 54.6875 
L 29.59375 11.921875 
L 46.6875 54.6875 
L 56.203125 54.6875 
z
" id="BitstreamVeraSans-Roman-79"/>
     </defs>
     <g transform="translate(23.73 249.8109375)rotate(-90.0)scale(0.12 -0.12)">
      <use xlink:href="#BitstreamVeraSans-Roman-70"/>
      <use x="63.4765625" xlink:href="#BitstreamVeraSans-Roman-72"/>
      <use x="104.55859375" xlink:href="#BitstreamVeraSans-Roman-6f"/>
      <use x="165.740234375" xlink:href="#BitstreamVeraSans-Roman-62"/>
      <use x="229.216796875" xlink:href="#BitstreamVeraSans-Roman-61"/>
      <use x="290.49609375" xlink:href="#BitstreamVeraSans-Roman-62"/>
      <use x="353.97265625" xlink:href="#BitstreamVeraSans-Roman-69"/>
      <use x="381.755859375" xlink:href="#BitstreamVeraSans-Roman-6c"/>
      <use x="409.5390625" xlink:href="#BitstreamVeraSans-Roman-6c"/>
      <use x="437.322265625" xlink:href="#BitstreamVeraSans-Roman-69"/>
      <use x="465.10546875" xlink:href="#BitstreamVeraSans-Roman-74"/>
      <use x="504.314453125" xlink:href="#BitstreamVeraSans-Roman-79"/>
     </g>
    </g>
   </g>
   <g id="text_19">
    <!-- probabillity distribution for correct sentences covered in g.s. -->
    <defs>
     <path d="M 45.40625 27.984375 
Q 45.40625 37.75 41.375 43.109375 
Q 37.359375 48.484375 30.078125 48.484375 
Q 22.859375 48.484375 18.828125 43.109375 
Q 14.796875 37.75 14.796875 27.984375 
Q 14.796875 18.265625 18.828125 12.890625 
Q 22.859375 7.515625 30.078125 7.515625 
Q 37.359375 7.515625 41.375 12.890625 
Q 45.40625 18.265625 45.40625 27.984375 
M 54.390625 6.78125 
Q 54.390625 -7.171875 48.1875 -13.984375 
Q 42 -20.796875 29.203125 -20.796875 
Q 24.46875 -20.796875 20.265625 -20.09375 
Q 16.0625 -19.390625 12.109375 -17.921875 
L 12.109375 -9.1875 
Q 16.0625 -11.328125 19.921875 -12.34375 
Q 23.78125 -13.375 27.78125 -13.375 
Q 36.625 -13.375 41.015625 -8.765625 
Q 45.40625 -4.15625 45.40625 5.171875 
L 45.40625 9.625 
Q 42.625 4.78125 38.28125 2.390625 
Q 33.9375 0 27.875 0 
Q 17.828125 0 11.671875 7.65625 
Q 5.515625 15.328125 5.515625 27.984375 
Q 5.515625 40.671875 11.671875 48.328125 
Q 17.828125 56 27.875 56 
Q 33.9375 56 38.28125 53.609375 
Q 42.625 51.21875 45.40625 46.390625 
L 45.40625 54.6875 
L 54.390625 54.6875 
z
" id="BitstreamVeraSans-Roman-67"/>
    </defs>
    <g transform="translate(77.01075 22.07515)scale(0.144 -0.144)">
     <use xlink:href="#BitstreamVeraSans-Roman-70"/>
     <use x="63.4765625" xlink:href="#BitstreamVeraSans-Roman-72"/>
     <use x="104.55859375" xlink:href="#BitstreamVeraSans-Roman-6f"/>
     <use x="165.740234375" xlink:href="#BitstreamVeraSans-Roman-62"/>
     <use x="229.216796875" xlink:href="#BitstreamVeraSans-Roman-61"/>
     <use x="290.49609375" xlink:href="#BitstreamVeraSans-Roman-62"/>
     <use x="353.97265625" xlink:href="#BitstreamVeraSans-Roman-69"/>
     <use x="381.755859375" xlink:href="#BitstreamVeraSans-Roman-6c"/>
     <use x="409.5390625" xlink:href="#BitstreamVeraSans-Roman-6c"/>
     <use x="437.322265625" xlink:href="#BitstreamVeraSans-Roman-69"/>
     <use x="465.10546875" xlink:href="#BitstreamVeraSans-Roman-74"/>
     <use x="504.314453125" xlink:href="#BitstreamVeraSans-Roman-79"/>
     <use x="563.494140625" xlink:href="#BitstreamVeraSans-Roman-20"/>
     <use x="595.28125" xlink:href="#BitstreamVeraSans-Roman-64"/>
     <use x="658.7578125" xlink:href="#BitstreamVeraSans-Roman-69"/>
     <use x="686.541015625" xlink:href="#BitstreamVeraSans-Roman-73"/>
     <use x="738.640625" xlink:href="#BitstreamVeraSans-Roman-74"/>
     <use x="777.849609375" xlink:href="#BitstreamVeraSans-Roman-72"/>
     <use x="818.962890625" xlink:href="#BitstreamVeraSans-Roman-69"/>
     <use x="846.74609375" xlink:href="#BitstreamVeraSans-Roman-62"/>
     <use x="910.22265625" xlink:href="#BitstreamVeraSans-Roman-75"/>
     <use x="973.6015625" xlink:href="#BitstreamVeraSans-Roman-74"/>
     <use x="1012.810546875" xlink:href="#BitstreamVeraSans-Roman-69"/>
     <use x="1040.59375" xlink:href="#BitstreamVeraSans-Roman-6f"/>
     <use x="1101.775390625" xlink:href="#BitstreamVeraSans-Roman-6e"/>
     <use x="1165.154296875" xlink:href="#BitstreamVeraSans-Roman-20"/>
     <use x="1196.94140625" xlink:href="#BitstreamVeraSans-Roman-66"/>
     <use x="1232.146484375" xlink:href="#BitstreamVeraSans-Roman-6f"/>
     <use x="1293.328125" xlink:href="#BitstreamVeraSans-Roman-72"/>
     <use x="1334.44140625" xlink:href="#BitstreamVeraSans-Roman-20"/>
     <use x="1366.228515625" xlink:href="#BitstreamVeraSans-Roman-63"/>
     <use x="1421.208984375" xlink:href="#BitstreamVeraSans-Roman-6f"/>
     <use x="1482.390625" xlink:href="#BitstreamVeraSans-Roman-72"/>
     <use x="1523.48828125" xlink:href="#BitstreamVeraSans-Roman-72"/>
     <use x="1564.5703125" xlink:href="#BitstreamVeraSans-Roman-65"/>
     <use x="1626.09375" xlink:href="#BitstreamVeraSans-Roman-63"/>
     <use x="1681.07421875" xlink:href="#BitstreamVeraSans-Roman-74"/>
     <use x="1720.283203125" xlink:href="#BitstreamVeraSans-Roman-20"/>
     <use x="1752.0703125" xlink:href="#BitstreamVeraSans-Roman-73"/>
     <use x="1804.169921875" xlink:href="#BitstreamVeraSans-Roman-65"/>
     <use x="1865.693359375" xlink:href="#BitstreamVeraSans-Roman-6e"/>
     <use x="1929.072265625" xlink:href="#BitstreamVeraSans-Roman-74"/>
     <use x="1968.28125" xlink:href="#BitstreamVeraSans-Roman-65"/>
     <use x="2029.8046875" xlink:href="#BitstreamVeraSans-Roman-6e"/>
     <use x="2093.18359375" xlink:href="#BitstreamVeraSans-Roman-63"/>
     <use x="2148.1640625" xlink:href="#BitstreamVeraSans-Roman-65"/>
     <use x="2209.6875" xlink:href="#BitstreamVeraSans-Roman-73"/>
     <use x="2261.787109375" xlink:href="#BitstreamVeraSans-Roman-20"/>
     <use x="2293.57421875" xlink:href="#BitstreamVeraSans-Roman-63"/>
     <use x="2348.5546875" xlink:href="#BitstreamVeraSans-Roman-6f"/>
     <use x="2409.736328125" xlink:href="#BitstreamVeraSans-Roman-76"/>
     <use x="2468.916015625" xlink:href="#BitstreamVeraSans-Roman-65"/>
     <use x="2530.439453125" xlink:href="#BitstreamVeraSans-Roman-72"/>
     <use x="2571.521484375" xlink:href="#BitstreamVeraSans-Roman-65"/>
     <use x="2633.044921875" xlink:href="#BitstreamVeraSans-Roman-64"/>
     <use x="2696.521484375" xlink:href="#BitstreamVeraSans-Roman-20"/>
     <use x="2728.30859375" xlink:href="#BitstreamVeraSans-Roman-69"/>
     <use x="2756.091796875" xlink:href="#BitstreamVeraSans-Roman-6e"/>
     <use x="2819.470703125" xlink:href="#BitstreamVeraSans-Roman-20"/>
     <use x="2851.2578125" xlink:href="#BitstreamVeraSans-Roman-67"/>
     <use x="2914.734375" xlink:href="#BitstreamVeraSans-Roman-2e"/>
     <use x="2946.521484375" xlink:href="#BitstreamVeraSans-Roman-73"/>
     <use x="2998.62109375" xlink:href="#BitstreamVeraSans-Roman-2e"/>
    </g>
    <!-- out of 48 using index comparison -->
    <defs>
     <path d="M 54.890625 54.6875 
L 35.109375 28.078125 
L 55.90625 0 
L 45.3125 0 
L 29.390625 21.484375 
L 13.484375 0 
L 2.875 0 
L 24.125 28.609375 
L 4.6875 54.6875 
L 15.28125 54.6875 
L 29.78125 35.203125 
L 44.28125 54.6875 
z
" id="BitstreamVeraSans-Roman-78"/>
    </defs>
    <g transform="translate(174.55275 38.2)scale(0.144 -0.144)">
     <use xlink:href="#BitstreamVeraSans-Roman-6f"/>
     <use x="61.181640625" xlink:href="#BitstreamVeraSans-Roman-75"/>
     <use x="124.560546875" xlink:href="#BitstreamVeraSans-Roman-74"/>
     <use x="163.76953125" xlink:href="#BitstreamVeraSans-Roman-20"/>
     <use x="195.556640625" xlink:href="#BitstreamVeraSans-Roman-6f"/>
     <use x="256.73828125" xlink:href="#BitstreamVeraSans-Roman-66"/>
     <use x="291.943359375" xlink:href="#BitstreamVeraSans-Roman-20"/>
     <use x="323.73046875" xlink:href="#BitstreamVeraSans-Roman-34"/>
     <use x="387.353515625" xlink:href="#BitstreamVeraSans-Roman-38"/>
     <use x="450.9765625" xlink:href="#BitstreamVeraSans-Roman-20"/>
     <use x="482.763671875" xlink:href="#BitstreamVeraSans-Roman-75"/>
     <use x="546.142578125" xlink:href="#BitstreamVeraSans-Roman-73"/>
     <use x="598.2421875" xlink:href="#BitstreamVeraSans-Roman-69"/>
     <use x="626.025390625" xlink:href="#BitstreamVeraSans-Roman-6e"/>
     <use x="689.404296875" xlink:href="#BitstreamVeraSans-Roman-67"/>
     <use x="752.880859375" xlink:href="#BitstreamVeraSans-Roman-20"/>
     <use x="784.66796875" xlink:href="#BitstreamVeraSans-Roman-69"/>
     <use x="812.451171875" xlink:href="#BitstreamVeraSans-Roman-6e"/>
     <use x="875.830078125" xlink:href="#BitstreamVeraSans-Roman-64"/>
     <use x="939.306640625" xlink:href="#BitstreamVeraSans-Roman-65"/>
     <use x="1000.814453125" xlink:href="#BitstreamVeraSans-Roman-78"/>
     <use x="1059.994140625" xlink:href="#BitstreamVeraSans-Roman-20"/>
     <use x="1091.78125" xlink:href="#BitstreamVeraSans-Roman-63"/>
     <use x="1146.76171875" xlink:href="#BitstreamVeraSans-Roman-6f"/>
     <use x="1207.943359375" xlink:href="#BitstreamVeraSans-Roman-6d"/>
     <use x="1305.35546875" xlink:href="#BitstreamVeraSans-Roman-70"/>
     <use x="1368.83203125" xlink:href="#BitstreamVeraSans-Roman-61"/>
     <use x="1430.111328125" xlink:href="#BitstreamVeraSans-Roman-72"/>
     <use x="1471.224609375" xlink:href="#BitstreamVeraSans-Roman-69"/>
     <use x="1499.0078125" xlink:href="#BitstreamVeraSans-Roman-73"/>
     <use x="1551.107421875" xlink:href="#BitstreamVeraSans-Roman-6f"/>
     <use x="1612.2890625" xlink:href="#BitstreamVeraSans-Roman-6e"/>
    </g>
   </g>
   <g id="legend_1">
    <g id="patch_7">
     <path d="M 402.316875 374.588125 
L 513.4 374.588125 
Q 515.4 374.588125 515.4 372.588125 
L 515.4 63.411875 
Q 515.4 61.411875 513.4 61.411875 
L 402.316875 61.411875 
Q 400.316875 61.411875 400.316875 63.411875 
L 400.316875 372.588125 
Q 400.316875 374.588125 402.316875 374.588125 
z
" style="fill:#4c4c4c;opacity:0.5;stroke:#4c4c4c;stroke-linejoin:miter;"/>
    </g>
    <g id="patch_8">
     <path d="M 400.316875 372.588125 
L 511.4 372.588125 
Q 513.4 372.588125 513.4 370.588125 
L 513.4 61.411875 
Q 513.4 59.411875 511.4 59.411875 
L 400.316875 59.411875 
Q 398.316875 59.411875 398.316875 61.411875 
L 398.316875 370.588125 
Q 398.316875 372.588125 400.316875 372.588125 
z
" style="fill:#ffffff;stroke:#000000;stroke-linejoin:miter;"/>
    </g>
    <g id="text_20">
     <!-- corrections in g.s. -->
     <g transform="translate(402.316875 72.53)scale(0.12 -0.12)">
      <use xlink:href="#BitstreamVeraSans-Roman-63"/>
      <use x="54.98046875" xlink:href="#BitstreamVeraSans-Roman-6f"/>
      <use x="116.162109375" xlink:href="#BitstreamVeraSans-Roman-72"/>
      <use x="157.259765625" xlink:href="#BitstreamVeraSans-Roman-72"/>
      <use x="198.341796875" xlink:href="#BitstreamVeraSans-Roman-65"/>
      <use x="259.865234375" xlink:href="#BitstreamVeraSans-Roman-63"/>
      <use x="314.845703125" xlink:href="#BitstreamVeraSans-Roman-74"/>
      <use x="354.0546875" xlink:href="#BitstreamVeraSans-Roman-69"/>
      <use x="381.837890625" xlink:href="#BitstreamVeraSans-Roman-6f"/>
      <use x="443.01953125" xlink:href="#BitstreamVeraSans-Roman-6e"/>
      <use x="506.3984375" xlink:href="#BitstreamVeraSans-Roman-73"/>
      <use x="558.498046875" xlink:href="#BitstreamVeraSans-Roman-20"/>
      <use x="590.28515625" xlink:href="#BitstreamVeraSans-Roman-69"/>
      <use x="618.068359375" xlink:href="#BitstreamVeraSans-Roman-6e"/>
      <use x="681.447265625" xlink:href="#BitstreamVeraSans-Roman-20"/>
      <use x="713.234375" xlink:href="#BitstreamVeraSans-Roman-67"/>
      <use x="776.7109375" xlink:href="#BitstreamVeraSans-Roman-2e"/>
      <use x="808.498046875" xlink:href="#BitstreamVeraSans-Roman-73"/>
      <use x="860.59765625" xlink:href="#BitstreamVeraSans-Roman-2e"/>
     </g>
    </g>
    <g id="line2d_53">
     <path d="M 438.495937 84.124062 
L 452.495937 84.124062 
" style="fill:none;stroke:#8000ff;stroke-linecap:square;"/>
    </g>
    <g id="line2d_54"/>
    <g id="text_21">
     <!-- 1 -->
     <g transform="translate(463.4959375 87.6240625)scale(0.1 -0.1)">
      <use xlink:href="#BitstreamVeraSans-Roman-31"/>
     </g>
    </g>
    <g id="line2d_55">
     <path d="M 438.495937 98.802188 
L 452.495937 98.802188 
" style="fill:none;stroke:#6629fe;stroke-linecap:square;"/>
    </g>
    <g id="line2d_56"/>
    <g id="text_22">
     <!-- 2 -->
     <g transform="translate(463.4959375 102.3021875)scale(0.1 -0.1)">
      <use xlink:href="#BitstreamVeraSans-Roman-32"/>
     </g>
    </g>
    <g id="line2d_57">
     <path d="M 438.495937 113.480312 
L 452.495937 113.480312 
" style="fill:none;stroke:#4c50fc;stroke-linecap:square;"/>
    </g>
    <g id="line2d_58"/>
    <g id="text_23">
     <!-- 3 -->
     <g transform="translate(463.4959375 116.9803125)scale(0.1 -0.1)">
      <use xlink:href="#BitstreamVeraSans-Roman-33"/>
     </g>
    </g>
    <g id="line2d_59">
     <path d="M 438.495937 128.158437 
L 452.495937 128.158437 
" style="fill:none;stroke:#3079f7;stroke-linecap:square;"/>
    </g>
    <g id="line2d_60"/>
    <g id="text_24">
     <!-- 4 -->
     <g transform="translate(463.4959375 131.6584375)scale(0.1 -0.1)">
      <use xlink:href="#BitstreamVeraSans-Roman-34"/>
     </g>
    </g>
    <g id="line2d_61">
     <path d="M 438.495937 142.836563 
L 452.495937 142.836563 
" style="fill:none;stroke:#169bf2;stroke-linecap:square;"/>
    </g>
    <g id="line2d_62"/>
    <g id="text_25">
     <!-- 5 -->
     <g transform="translate(463.4959375 146.3365625)scale(0.1 -0.1)">
      <use xlink:href="#BitstreamVeraSans-Roman-35"/>
     </g>
    </g>
    <g id="line2d_63">
     <path d="M 438.495937 157.514687 
L 452.495937 157.514687 
" style="fill:none;stroke:#07bbea;stroke-linecap:square;"/>
    </g>
    <g id="line2d_64"/>
    <g id="text_26">
     <!-- 6 -->
     <g transform="translate(463.4959375 161.0146875)scale(0.1 -0.1)">
      <use xlink:href="#BitstreamVeraSans-Roman-36"/>
     </g>
    </g>
    <g id="line2d_65">
     <path d="M 438.495937 172.192813 
L 452.495937 172.192813 
" style="fill:none;stroke:#20d5e1;stroke-linecap:square;"/>
    </g>
    <g id="line2d_66"/>
    <g id="text_27">
     <!-- 7 -->
     <defs>
      <path d="M 8.203125 72.90625 
L 55.078125 72.90625 
L 55.078125 68.703125 
L 28.609375 0 
L 18.3125 0 
L 43.21875 64.59375 
L 8.203125 64.59375 
z
" id="BitstreamVeraSans-Roman-37"/>
     </defs>
     <g transform="translate(463.4959375 175.6928125)scale(0.1 -0.1)">
      <use xlink:href="#BitstreamVeraSans-Roman-37"/>
     </g>
    </g>
    <g id="line2d_67">
     <path d="M 438.495937 186.870937 
L 452.495937 186.870937 
" style="fill:none;stroke:#3dead5;stroke-linecap:square;"/>
    </g>
    <g id="line2d_68"/>
    <g id="text_28">
     <!-- 8 -->
     <g transform="translate(463.4959375 190.3709375)scale(0.1 -0.1)">
      <use xlink:href="#BitstreamVeraSans-Roman-38"/>
     </g>
    </g>
    <g id="line2d_69">
     <path d="M 438.495937 201.549062 
L 452.495937 201.549062 
" style="fill:none;stroke:#56f7ca;stroke-linecap:square;"/>
    </g>
    <g id="line2d_70"/>
    <g id="text_29">
     <!-- 9 -->
     <defs>
      <path d="M 10.984375 1.515625 
L 10.984375 10.5 
Q 14.703125 8.734375 18.5 7.8125 
Q 22.3125 6.890625 25.984375 6.890625 
Q 35.75 6.890625 40.890625 13.453125 
Q 46.046875 20.015625 46.78125 33.40625 
Q 43.953125 29.203125 39.59375 26.953125 
Q 35.25 24.703125 29.984375 24.703125 
Q 19.046875 24.703125 12.671875 31.3125 
Q 6.296875 37.9375 6.296875 49.421875 
Q 6.296875 60.640625 12.9375 67.421875 
Q 19.578125 74.21875 30.609375 74.21875 
Q 43.265625 74.21875 49.921875 64.515625 
Q 56.59375 54.828125 56.59375 36.375 
Q 56.59375 19.140625 48.40625 8.859375 
Q 40.234375 -1.421875 26.421875 -1.421875 
Q 22.703125 -1.421875 18.890625 -0.6875 
Q 15.09375 0.046875 10.984375 1.515625 
M 30.609375 32.421875 
Q 37.25 32.421875 41.125 36.953125 
Q 45.015625 41.5 45.015625 49.421875 
Q 45.015625 57.28125 41.125 61.84375 
Q 37.25 66.40625 30.609375 66.40625 
Q 23.96875 66.40625 20.09375 61.84375 
Q 16.21875 57.28125 16.21875 49.421875 
Q 16.21875 41.5 20.09375 36.953125 
Q 23.96875 32.421875 30.609375 32.421875 
" id="BitstreamVeraSans-Roman-39"/>
     </defs>
     <g transform="translate(463.4959375 205.0490625)scale(0.1 -0.1)">
      <use xlink:href="#BitstreamVeraSans-Roman-39"/>
     </g>
    </g>
    <g id="line2d_71">
     <path d="M 438.495937 216.227187 
L 452.495937 216.227187 
" style="fill:none;stroke:#72febb;stroke-linecap:square;"/>
    </g>
    <g id="line2d_72"/>
    <g id="text_30">
     <!-- 10 -->
     <g transform="translate(463.4959375 219.7271875)scale(0.1 -0.1)">
      <use xlink:href="#BitstreamVeraSans-Roman-31"/>
      <use x="63.623046875" xlink:href="#BitstreamVeraSans-Roman-30"/>
     </g>
    </g>
    <g id="line2d_73">
     <path d="M 438.495937 230.905312 
L 452.495937 230.905312 
" style="fill:none;stroke:#8cfead;stroke-linecap:square;"/>
    </g>
    <g id="line2d_74"/>
    <g id="text_31">
     <!-- 11 -->
     <g transform="translate(463.4959375 234.4053125)scale(0.1 -0.1)">
      <use xlink:href="#BitstreamVeraSans-Roman-31"/>
      <use x="63.623046875" xlink:href="#BitstreamVeraSans-Roman-31"/>
     </g>
    </g>
    <g id="line2d_75">
     <path d="M 438.495937 245.583437 
L 452.495937 245.583437 
" style="fill:none;stroke:#a8f79c;stroke-linecap:square;"/>
    </g>
    <g id="line2d_76"/>
    <g id="text_32">
     <!-- 12 -->
     <g transform="translate(463.4959375 249.0834375)scale(0.1 -0.1)">
      <use xlink:href="#BitstreamVeraSans-Roman-31"/>
      <use x="63.623046875" xlink:href="#BitstreamVeraSans-Roman-32"/>
     </g>
    </g>
    <g id="line2d_77">
     <path d="M 438.495937 260.261562 
L 452.495937 260.261562 
" style="fill:none;stroke:#c2ea8c;stroke-linecap:square;"/>
    </g>
    <g id="line2d_78"/>
    <g id="text_33">
     <!-- 13 -->
     <g transform="translate(463.4959375 263.7615625)scale(0.1 -0.1)">
      <use xlink:href="#BitstreamVeraSans-Roman-31"/>
      <use x="63.623046875" xlink:href="#BitstreamVeraSans-Roman-33"/>
     </g>
    </g>
    <g id="line2d_79">
     <path d="M 438.495937 274.939687 
L 452.495937 274.939687 
" style="fill:none;stroke:#ded579;stroke-linecap:square;"/>
    </g>
    <g id="line2d_80"/>
    <g id="text_34">
     <!-- 14 -->
     <g transform="translate(463.4959375 278.4396875)scale(0.1 -0.1)">
      <use xlink:href="#BitstreamVeraSans-Roman-31"/>
      <use x="63.623046875" xlink:href="#BitstreamVeraSans-Roman-34"/>
     </g>
    </g>
    <g id="line2d_81">
     <path d="M 438.495937 289.617812 
L 452.495937 289.617812 
" style="fill:none;stroke:#f9bb66;stroke-linecap:square;"/>
    </g>
    <g id="line2d_82"/>
    <g id="text_35">
     <!-- 15 -->
     <g transform="translate(463.4959375 293.1178125)scale(0.1 -0.1)">
      <use xlink:href="#BitstreamVeraSans-Roman-31"/>
      <use x="63.623046875" xlink:href="#BitstreamVeraSans-Roman-35"/>
     </g>
    </g>
    <g id="line2d_83">
     <path d="M 438.495937 304.295937 
L 452.495937 304.295937 
" style="fill:none;stroke:#ff9b52;stroke-linecap:square;"/>
    </g>
    <g id="line2d_84"/>
    <g id="text_36">
     <!-- 16 -->
     <g transform="translate(463.4959375 307.7959375)scale(0.1 -0.1)">
      <use xlink:href="#BitstreamVeraSans-Roman-31"/>
      <use x="63.623046875" xlink:href="#BitstreamVeraSans-Roman-36"/>
     </g>
    </g>
    <g id="line2d_85">
     <path d="M 438.495937 318.974062 
L 452.495937 318.974062 
" style="fill:none;stroke:#ff793e;stroke-linecap:square;"/>
    </g>
    <g id="line2d_86"/>
    <g id="text_37">
     <!-- 17 -->
     <g transform="translate(463.4959375 322.4740625)scale(0.1 -0.1)">
      <use xlink:href="#BitstreamVeraSans-Roman-31"/>
      <use x="63.623046875" xlink:href="#BitstreamVeraSans-Roman-37"/>
     </g>
    </g>
    <g id="line2d_87">
     <path d="M 438.495937 333.652187 
L 452.495937 333.652187 
" style="fill:none;stroke:#ff5029;stroke-linecap:square;"/>
    </g>
    <g id="line2d_88"/>
    <g id="text_38">
     <!-- 18 -->
     <g transform="translate(463.4959375 337.1521875)scale(0.1 -0.1)">
      <use xlink:href="#BitstreamVeraSans-Roman-31"/>
      <use x="63.623046875" xlink:href="#BitstreamVeraSans-Roman-38"/>
     </g>
    </g>
    <g id="line2d_89">
     <path d="M 438.495937 348.330312 
L 452.495937 348.330312 
" style="fill:none;stroke:#ff2914;stroke-linecap:square;"/>
    </g>
    <g id="line2d_90"/>
    <g id="text_39">
     <!-- 19 -->
     <g transform="translate(463.4959375 351.8303125)scale(0.1 -0.1)">
      <use xlink:href="#BitstreamVeraSans-Roman-31"/>
      <use x="63.623046875" xlink:href="#BitstreamVeraSans-Roman-39"/>
     </g>
    </g>
    <g id="line2d_91">
     <path d="M 438.495937 363.008437 
L 452.495937 363.008437 
" style="fill:none;stroke:#ff0000;stroke-linecap:square;"/>
    </g>
    <g id="line2d_92"/>
    <g id="text_40">
     <!-- 20 -->
     <g transform="translate(463.4959375 366.5084375)scale(0.1 -0.1)">
      <use xlink:href="#BitstreamVeraSans-Roman-32"/>
      <use x="63.623046875" xlink:href="#BitstreamVeraSans-Roman-30"/>
     </g>
    </g>
   </g>
  </g>
 </g>
 <defs>
  <clipPath id="pecf92152cb">
   <rect height="345.6" width="446.4" x="72.0" y="43.2"/>
  </clipPath>
 </defs>
</svg>
