<?xml version="1.0" encoding="utf-8" standalone="no"?>
<!DOCTYPE svg PUBLIC "-//W3C//DTD SVG 1.1//EN"
  "http://www.w3.org/Graphics/SVG/1.1/DTD/svg11.dtd">
<!-- Created with matplotlib (http://matplotlib.org/) -->
<svg height="432pt" version="1.1" viewBox="0 0 576 432" width="576pt" xmlns="http://www.w3.org/2000/svg" xmlns:xlink="http://www.w3.org/1999/xlink">
 <defs>
  <style type="text/css">
*{stroke-linecap:butt;stroke-linejoin:round;stroke-miterlimit:100000;}
  </style>
 </defs>
 <g id="figure_1">
  <g id="patch_1">
   <path d="M 0 432 
L 576 432 
L 576 0 
L 0 0 
z
" style="fill:#ffffff;"/>
  </g>
  <g id="axes_1">
   <g id="patch_2">
    <path d="M 72 388.8 
L 518.4 388.8 
L 518.4 43.2 
L 72 43.2 
z
" style="fill:#ffffff;"/>
   </g>
   <g id="line2d_1">
    <path clip-path="url(#p478538c5a1)" d="M 72 388.8 
L 94.32 379.689009 
L 116.64 372.615861 
L 138.96 364.544938 
L 161.28 356.789553 
L 183.6 350.438966 
L 205.92 345.042403 
L 228.24 339.241252 
L 250.56 332.065509 
L 272.88 327.083655 
L 295.2 322.627045 
L 317.52 319.065236 
L 339.84 313.804823 
L 362.16 310.742342 
L 384.48 304.578537 
L 406.8 301.477298 
L 429.12 297.876314 
L 451.44 295.549981 
L 473.76 291.800751 
L 496.08 288.606094 
L 518.4 285.741037 
" style="fill:none;stroke:#8000ff;stroke-linecap:square;"/>
   </g>
   <g id="line2d_2">
    <path clip-path="url(#p478538c5a1)" d="M 72 388.8 
L 94.32 332.76692 
L 116.64 299.032957 
L 138.96 267.849632 
L 161.28 253.159477 
L 183.6 232.407994 
L 205.92 216.149613 
L 228.24 210.265492 
L 250.56 198.169213 
L 272.88 197.918763 
L 295.2 189.628387 
L 317.52 189.748979 
L 339.84 185.133069 
L 362.16 180.668185 
L 384.48 177.216286 
L 406.8 174.729293 
L 429.12 173.103194 
L 451.44 170.239008 
L 473.76 170.489212 
L 496.08 167.25907 
L 518.4 162.560687 
" style="fill:none;stroke:#7610ff;stroke-linecap:square;"/>
   </g>
   <g id="line2d_3">
    <path clip-path="url(#p478538c5a1)" d="M 72 388.8 
L 94.32 374.202527 
L 116.64 362.414362 
L 138.96 348.941176 
L 161.28 338.289972 
L 183.6 327.245483 
L 205.92 319.080005 
L 228.24 308.968655 
L 250.56 298.432326 
L 272.88 289.207659 
L 295.2 282.980717 
L 317.52 273.285548 
L 339.84 268.114643 
L 362.16 262.748896 
L 384.48 253.840433 
L 406.8 247.294982 
L 429.12 242.015968 
L 451.44 235.767508 
L 473.76 229.086908 
L 496.08 222.365195 
L 518.4 218.996036 
" style="fill:none;stroke:#6c1fff;stroke-linecap:square;"/>
   </g>
   <g id="line2d_4">
    <path clip-path="url(#p478538c5a1)" d="M 72 388.8 
L 94.32 343.1225 
L 116.64 308.890344 
L 138.96 278.678007 
L 161.28 253.413117 
L 183.6 233.256727 
L 205.92 213.024692 
L 228.24 200.372087 
L 250.56 186.683871 
L 272.88 171.408626 
L 295.2 168.45729 
L 317.52 161.200171 
L 339.84 155.732919 
L 362.16 148.265751 
L 384.48 140.578531 
L 406.8 132.700039 
L 429.12 127.407388 
L 451.44 130.136401 
L 473.76 123.545007 
L 496.08 122.934399 
L 518.4 119.967067 
" style="fill:none;stroke:#6032fe;stroke-linecap:square;"/>
   </g>
   <g id="line2d_5">
    <path clip-path="url(#p478538c5a1)" d="M 72 388.8 
L 94.32 292.223746 
L 116.64 229.354578 
L 138.96 194.871955 
L 161.28 168.628121 
L 183.6 148.140729 
L 205.92 131.395749 
L 228.24 124.587928 
L 250.56 119.018822 
L 272.88 108.526498 
L 295.2 103.969278 
L 317.52 99.375694 
L 339.84 93.50501 
L 362.16 92.082389 
L 384.48 87.141511 
L 406.8 84.60052 
L 429.12 83.060577 
L 451.44 80.183342 
L 473.76 76.504943 
L 496.08 73.925435 
L 518.4 71.765521 
" style="fill:none;stroke:#5641fd;stroke-linecap:square;"/>
   </g>
   <g id="line2d_6">
    <path clip-path="url(#p478538c5a1)" d="M 72 388.8 
L 94.32 329.536327 
L 116.64 279.335549 
L 138.96 250.598465 
L 161.28 228.418154 
L 183.6 195.498355 
L 205.92 189.527529 
L 228.24 176.316189 
L 250.56 171.022092 
L 272.88 160.823116 
L 295.2 152.660367 
L 317.52 147.170784 
L 339.84 138.477831 
L 362.16 135.350411 
L 384.48 129.818896 
L 406.8 128.13493 
L 429.12 126.865476 
L 451.44 125.31579 
L 473.76 120.173496 
L 496.08 117.725123 
L 518.4 117.51462 
" style="fill:none;stroke:#4a53fb;stroke-linecap:square;"/>
   </g>
   <g id="line2d_7">
    <path clip-path="url(#p478538c5a1)" d="M 72 388.8 
L 94.32 363.568665 
L 116.64 346.602852 
L 138.96 325.984482 
L 161.28 313.226043 
L 183.6 301.788724 
L 205.92 288.76198 
L 228.24 281.791621 
L 250.56 269.882357 
L 272.88 261.191646 
L 295.2 253.138744 
L 317.52 244.238055 
L 339.84 236.003528 
L 362.16 232.550077 
L 384.48 225.36239 
L 406.8 219.720005 
L 429.12 217.32279 
L 451.44 210.326279 
L 473.76 204.530355 
L 496.08 202.823895 
L 518.4 198.007327 
" style="fill:none;stroke:#4062fa;stroke-linecap:square;"/>
   </g>
   <g id="line2d_8">
    <path clip-path="url(#p478538c5a1)" d="M 72 388.8 
L 94.32 352.408019 
L 116.64 333.077222 
L 138.96 316.034516 
L 161.28 300.459932 
L 183.6 285.816909 
L 205.92 274.177006 
L 228.24 266.473043 
L 250.56 255.598017 
L 272.88 249.596294 
L 295.2 242.514398 
L 317.52 238.859256 
L 339.84 229.996773 
L 362.16 224.878879 
L 384.48 218.921951 
L 406.8 215.691493 
L 429.12 208.720818 
L 451.44 203.492772 
L 473.76 202.334225 
L 496.08 198.842014 
L 518.4 195.976831 
" style="fill:none;stroke:#3473f8;stroke-linecap:square;"/>
   </g>
   <g id="line2d_9">
    <path clip-path="url(#p478538c5a1)" d="M 72 388.8 
L 94.32 244.232007 
L 116.64 173.731268 
L 138.96 140.544848 
L 161.28 107.202233 
L 183.6 93.012346 
L 205.92 90.760228 
L 228.24 90.516199 
L 250.56 88.027434 
L 272.88 87.709786 
L 295.2 87.311352 
L 317.52 87.133898 
L 339.84 86.622542 
L 362.16 86.17926 
L 384.48 85.896916 
L 406.8 85.569455 
L 429.12 85.224793 
L 451.44 84.772048 
L 473.76 84.402373 
L 496.08 83.963921 
L 518.4 83.618938 
" style="fill:none;stroke:#2981f6;stroke-linecap:square;"/>
   </g>
   <g id="line2d_10">
    <path clip-path="url(#p478538c5a1)" d="M 72 388.8 
L 94.32 247.865573 
L 116.64 184.831939 
L 138.96 155.121588 
L 161.28 139.072012 
L 183.6 133.480615 
L 205.92 128.475879 
L 228.24 129.815513 
L 250.56 126.868833 
L 272.88 127.56594 
L 295.2 125.140387 
L 317.52 124.81244 
L 339.84 124.478333 
L 362.16 124.11683 
L 384.48 123.76569 
L 406.8 123.419476 
L 429.12 123.084883 
L 451.44 122.747519 
L 473.76 122.315028 
L 496.08 121.936667 
L 518.4 121.606371 
" style="fill:none;stroke:#1e91f3;stroke-linecap:square;"/>
   </g>
   <g id="line2d_11">
    <path clip-path="url(#p478538c5a1)" d="M 72 388.8 
L 94.32 243.506226 
L 116.64 164.974132 
L 138.96 123.917234 
L 161.28 92.868368 
L 183.6 81.88724 
L 205.92 74.620878 
L 228.24 68.353854 
L 250.56 67.482242 
L 272.88 68.484453 
L 295.2 64.912779 
L 317.52 64.523392 
L 339.84 64.161796 
L 362.16 63.801586 
L 384.48 63.390929 
L 406.8 63.017805 
L 429.12 62.65275 
L 451.44 62.274974 
L 473.76 61.702102 
L 496.08 61.376421 
L 518.4 60.667503 
" style="fill:none;stroke:#149df1;stroke-linecap:square;"/>
   </g>
   <g id="line2d_12">
    <path clip-path="url(#p478538c5a1)" d="M 72 388.8 
L 94.32 277.910571 
L 116.64 228.230893 
L 138.96 195.345671 
L 161.28 166.196069 
L 183.6 152.437159 
L 205.92 147.132873 
L 228.24 142.084054 
L 250.56 135.955443 
L 272.88 134.096929 
L 295.2 130.584367 
L 317.52 129.35714 
L 339.84 125.765255 
L 362.16 124.254901 
L 384.48 122.534324 
L 406.8 120.832963 
L 429.12 119.540278 
L 451.44 118.292548 
L 473.76 116.630098 
L 496.08 115.197166 
L 518.4 114.110289 
" style="fill:none;stroke:#09a9ee;stroke-linecap:square;"/>
   </g>
   <g id="line2d_13">
    <path clip-path="url(#p478538c5a1)" d="M 72 388.8 
L 94.32 361.586203 
L 116.64 338.333328 
L 138.96 319.397533 
L 161.28 302.230591 
L 183.6 287.570515 
L 205.92 274.278883 
L 228.24 259.730689 
L 250.56 249.696802 
L 272.88 238.219059 
L 295.2 228.124471 
L 317.52 221.67907 
L 339.84 212.472921 
L 362.16 203.635222 
L 384.48 197.236746 
L 406.8 189.668994 
L 429.12 185.891039 
L 451.44 179.797053 
L 473.76 179.521331 
L 496.08 175.019571 
L 518.4 170.139308 
" style="fill:none;stroke:#02b7eb;stroke-linecap:square;"/>
   </g>
   <g id="line2d_14">
    <path clip-path="url(#p478538c5a1)" d="M 72 388.8 
L 94.32 350.031395 
L 116.64 337.002795 
L 138.96 316.526164 
L 161.28 301.458492 
L 183.6 288.594696 
L 205.92 284.761708 
L 228.24 280.448344 
L 250.56 272.142976 
L 272.88 266.613385 
L 295.2 262.84231 
L 317.52 260.01405 
L 339.84 258.137907 
L 362.16 255.69939 
L 384.48 253.474356 
L 406.8 250.627834 
L 429.12 249.361255 
L 451.44 246.527229 
L 473.76 245.901752 
L 496.08 243.715929 
L 518.4 242.335893 
" style="fill:none;stroke:#0dc2e8;stroke-linecap:square;"/>
   </g>
   <g id="line2d_15">
    <path clip-path="url(#p478538c5a1)" d="M 72 388.8 
L 94.32 318.692472 
L 116.64 287.543737 
L 138.96 263.396981 
L 161.28 247.299818 
L 183.6 234.424592 
L 205.92 228.260356 
L 228.24 216.637985 
L 250.56 214.687473 
L 272.88 209.342991 
L 295.2 205.504465 
L 317.52 203.389153 
L 339.84 200.310176 
L 362.16 198.241478 
L 384.48 195.824903 
L 406.8 193.851364 
L 429.12 192.172176 
L 451.44 188.960211 
L 473.76 187.318726 
L 496.08 184.605169 
L 518.4 182.779137 
" style="fill:none;stroke:#18cde4;stroke-linecap:square;"/>
   </g>
   <g id="line2d_16">
    <path clip-path="url(#p478538c5a1)" d="M 72 388.8 
L 94.32 221.667414 
L 116.64 163.364689 
L 138.96 144.258189 
L 161.28 139.161134 
L 183.6 133.706771 
L 205.92 129.81928 
L 228.24 127.464854 
L 250.56 125.733251 
L 272.88 123.560777 
L 295.2 121.542256 
L 317.52 119.791836 
L 339.84 117.11794 
L 362.16 115.625262 
L 384.48 112.689376 
L 406.8 111.512429 
L 429.12 109.592701 
L 451.44 107.590768 
L 473.76 105.889693 
L 496.08 103.267731 
L 518.4 101.561388 
" style="fill:none;stroke:#22d6e0;stroke-linecap:square;"/>
   </g>
   <g id="line2d_17">
    <path clip-path="url(#p478538c5a1)" d="M 72 388.8 
L 94.32 298.619765 
L 116.64 254.207987 
L 138.96 210.804783 
L 161.28 183.139319 
L 183.6 171.096032 
L 205.92 157.795881 
L 228.24 153.212828 
L 250.56 149.755842 
L 272.88 145.36179 
L 295.2 137.617958 
L 317.52 133.697254 
L 339.84 129.380289 
L 362.16 126.644471 
L 384.48 124.506985 
L 406.8 123.446612 
L 429.12 121.135251 
L 451.44 119.470314 
L 473.76 116.025888 
L 496.08 114.980432 
L 518.4 113.552629 
" style="fill:none;stroke:#2fe0db;stroke-linecap:square;"/>
   </g>
   <g id="line2d_18">
    <path clip-path="url(#p478538c5a1)" d="M 72 388.8 
L 94.32 370.122954 
L 116.64 357.641894 
L 138.96 345.298964 
L 161.28 335.138528 
L 183.6 324.900841 
L 205.92 314.877975 
L 228.24 306.863967 
L 250.56 296.7615 
L 272.88 288.540117 
L 295.2 282.643837 
L 317.52 276.373121 
L 339.84 268.354595 
L 362.16 264.261416 
L 384.48 259.073396 
L 406.8 253.341134 
L 429.12 246.922763 
L 451.44 242.454703 
L 473.76 238.889519 
L 496.08 236.821206 
L 518.4 231.920437 
" style="fill:none;stroke:#38e7d7;stroke-linecap:square;"/>
   </g>
   <g id="line2d_19">
    <path clip-path="url(#p478538c5a1)" d="M 72 388.8 
L 94.32 366.120279 
L 116.64 344.137114 
L 138.96 326.931662 
L 161.28 312.919715 
L 183.6 295.568333 
L 205.92 280.8843 
L 228.24 271.049826 
L 250.56 264.115757 
L 272.88 254.93205 
L 295.2 245.346417 
L 317.52 235.41216 
L 339.84 227.385428 
L 362.16 220.807554 
L 384.48 218.191603 
L 406.8 208.921179 
L 429.12 204.64566 
L 451.44 200.66671 
L 473.76 196.193637 
L 496.08 192.096204 
L 518.4 186.896673 
" style="fill:none;stroke:#44eed2;stroke-linecap:square;"/>
   </g>
   <g id="line2d_20">
    <path clip-path="url(#p478538c5a1)" d="M 72 388.8 
L 94.32 343.51835 
L 116.64 305.71839 
L 138.96 275.889212 
L 161.28 246.121665 
L 183.6 219.362111 
L 205.92 198.89298 
L 228.24 175.981924 
L 250.56 158.398722 
L 272.88 146.561016 
L 295.2 136.346087 
L 317.52 125.049431 
L 339.84 113.920124 
L 362.16 104.78773 
L 384.48 98.288799 
L 406.8 98.145842 
L 429.12 83.182606 
L 451.44 80.594435 
L 473.76 77.521661 
L 496.08 75.060247 
L 518.4 69.578459 
" style="fill:none;stroke:#4ef3cd;stroke-linecap:square;"/>
   </g>
   <g id="line2d_21">
    <path clip-path="url(#p478538c5a1)" d="M 72 388.8 
L 94.32 250.280191 
L 116.64 166.93703 
L 138.96 137.287136 
L 161.28 109.732359 
L 183.6 92.709286 
L 205.92 91.248766 
L 228.24 83.635372 
L 250.56 81.127023 
L 272.88 81.610542 
L 295.2 79.037869 
L 317.52 78.849334 
L 339.84 78.487926 
L 362.16 77.185596 
L 384.48 76.360333 
L 406.8 75.877212 
L 429.12 75.06807 
L 451.44 75.234405 
L 473.76 74.644466 
L 496.08 74.178683 
L 518.4 73.441147 
" style="fill:none;stroke:#58f8c9;stroke-linecap:square;"/>
   </g>
   <g id="line2d_22">
    <path clip-path="url(#p478538c5a1)" d="M 72 388.8 
L 94.32 283.808322 
L 116.64 238.514254 
L 138.96 211.221517 
L 161.28 200.609148 
L 183.6 183.819996 
L 205.92 180.485952 
L 228.24 174.314404 
L 250.56 171.253254 
L 272.88 171.837133 
L 295.2 167.020265 
L 317.52 164.434034 
L 339.84 162.504356 
L 362.16 160.250885 
L 384.48 158.413112 
L 406.8 155.933204 
L 429.12 155.106425 
L 451.44 152.32113 
L 473.76 150.183899 
L 496.08 149.588214 
L 518.4 148.601735 
" style="fill:none;stroke:#64fbc3;stroke-linecap:square;"/>
   </g>
   <g id="line2d_23">
    <path clip-path="url(#p478538c5a1)" d="M 72 388.8 
L 94.32 292.269029 
L 116.64 234.437432 
L 138.96 197.621902 
L 161.28 166.616154 
L 183.6 153.188294 
L 205.92 142.825843 
L 228.24 131.747202 
L 250.56 128.253473 
L 272.88 123.328784 
L 295.2 118.897656 
L 317.52 116.919014 
L 339.84 114.80757 
L 362.16 111.747306 
L 384.48 109.65768 
L 406.8 107.496308 
L 429.12 106.259023 
L 451.44 103.846022 
L 473.76 103.368374 
L 496.08 101.814497 
L 518.4 100.234261 
" style="fill:none;stroke:#6efebe;stroke-linecap:square;"/>
   </g>
   <g id="line2d_24">
    <path clip-path="url(#p478538c5a1)" d="M 72 388.8 
L 94.32 354.485251 
L 116.64 327.20395 
L 138.96 303.110768 
L 161.28 280.083511 
L 183.6 256.320128 
L 205.92 239.724117 
L 228.24 219.237788 
L 250.56 204.623256 
L 272.88 188.760084 
L 295.2 177.155697 
L 317.52 167.638273 
L 339.84 156.620645 
L 362.16 149.613893 
L 384.48 143.28673 
L 406.8 132.248419 
L 429.12 122.417031 
L 451.44 118.063717 
L 473.76 114.727375 
L 496.08 106.91931 
L 518.4 103.417375 
" style="fill:none;stroke:#7affb7;stroke-linecap:square;"/>
   </g>
   <g id="line2d_25">
    <path clip-path="url(#p478538c5a1)" d="M 72 388.8 
L 94.32 283.212641 
L 116.64 229.508696 
L 138.96 196.995889 
L 161.28 178.208522 
L 183.6 156.247627 
L 205.92 151.349022 
L 228.24 144.473562 
L 250.56 140.824714 
L 272.88 139.6856 
L 295.2 133.890076 
L 317.52 130.16436 
L 339.84 128.689513 
L 362.16 129.326827 
L 384.48 128.165223 
L 406.8 124.385805 
L 429.12 122.513424 
L 451.44 120.943905 
L 473.76 118.953301 
L 496.08 117.598773 
L 518.4 117.407287 
" style="fill:none;stroke:#84ffb2;stroke-linecap:square;"/>
   </g>
   <g id="line2d_26">
    <path clip-path="url(#p478538c5a1)" d="M 72 388.8 
L 94.32 212.150412 
L 116.64 124.960003 
L 138.96 95.851278 
L 161.28 82.946911 
L 183.6 80.23954 
L 205.92 75.959738 
L 228.24 74.328707 
L 250.56 72.617112 
L 272.88 72.117073 
L 295.2 71.795374 
L 317.52 71.237596 
L 339.84 70.838995 
L 362.16 70.331557 
L 384.48 69.964019 
L 406.8 69.479732 
L 429.12 68.929081 
L 451.44 68.493808 
L 473.76 68.046759 
L 496.08 67.707072 
L 518.4 67.287086 
" style="fill:none;stroke:#90feab;stroke-linecap:square;"/>
   </g>
   <g id="line2d_27">
    <path clip-path="url(#p478538c5a1)" d="M 72 388.8 
L 94.32 386.258748 
L 116.64 384.010035 
L 138.96 381.784516 
L 161.28 379.385513 
L 183.6 377.166862 
L 205.92 375.008805 
L 228.24 372.777561 
L 250.56 370.969379 
L 272.88 368.950842 
L 295.2 366.185152 
L 317.52 363.759199 
L 339.84 362.158023 
L 362.16 360.85089 
L 384.48 358.448241 
L 406.8 356.973236 
L 429.12 355.212556 
L 451.44 352.678294 
L 473.76 351.163737 
L 496.08 349.677887 
L 518.4 347.423766 
" style="fill:none;stroke:#9bfba5;stroke-linecap:square;"/>
   </g>
   <g id="line2d_28">
    <path clip-path="url(#p478538c5a1)" d="M 72 388.8 
L 94.32 375.031813 
L 116.64 363.216909 
L 138.96 352.785539 
L 161.28 342.907906 
L 183.6 332.483479 
L 205.92 322.755423 
L 228.24 312.684426 
L 250.56 306.080888 
L 272.88 297.487369 
L 295.2 290.801109 
L 317.52 285.883507 
L 339.84 278.302114 
L 362.16 272.479973 
L 384.48 266.820619 
L 406.8 260.539733 
L 429.12 257.165248 
L 451.44 250.55349 
L 473.76 246.571356 
L 496.08 246.26281 
L 518.4 239.532888 
" style="fill:none;stroke:#a6f89d;stroke-linecap:square;"/>
   </g>
   <g id="line2d_29">
    <path clip-path="url(#p478538c5a1)" d="M 72 388.8 
L 94.32 267.929157 
L 116.64 218.50662 
L 138.96 185.879163 
L 161.28 160.305127 
L 183.6 147.849743 
L 205.92 144.449069 
L 228.24 135.912141 
L 250.56 133.514089 
L 272.88 133.073839 
L 295.2 129.349366 
L 317.52 126.483589 
L 339.84 125.193342 
L 362.16 123.394025 
L 384.48 122.012193 
L 406.8 120.740847 
L 429.12 119.391955 
L 451.44 117.761616 
L 473.76 116.427222 
L 496.08 115.45955 
L 518.4 113.488239 
" style="fill:none;stroke:#b0f397;stroke-linecap:square;"/>
   </g>
   <g id="line2d_30">
    <path clip-path="url(#p478538c5a1)" d="M 72 388.8 
L 94.32 341.403755 
L 116.64 309.637505 
L 138.96 281.730812 
L 161.28 258.597262 
L 183.6 239.093321 
L 205.92 223.634775 
L 228.24 205.795888 
L 250.56 193.141132 
L 272.88 187.191997 
L 295.2 177.666523 
L 317.52 166.061046 
L 339.84 156.170973 
L 362.16 148.933029 
L 384.48 147.241429 
L 406.8 137.837586 
L 429.12 130.699616 
L 451.44 125.242978 
L 473.76 124.831908 
L 496.08 117.969649 
L 518.4 117.250881 
" style="fill:none;stroke:#bbee91;stroke-linecap:square;"/>
   </g>
   <g id="line2d_31">
    <path clip-path="url(#p478538c5a1)" d="M 72 388.8 
L 94.32 336.274326 
L 116.64 299.589272 
L 138.96 269.159632 
L 161.28 241.267792 
L 183.6 227.032857 
L 205.92 212.682454 
L 228.24 195.223987 
L 250.56 191.461558 
L 272.88 185.747281 
L 295.2 177.066314 
L 317.52 171.178582 
L 339.84 168.414597 
L 362.16 165.094807 
L 384.48 159.128365 
L 406.8 158.192957 
L 429.12 156.02198 
L 451.44 153.954033 
L 473.76 152.606473 
L 496.08 152.028493 
L 518.4 151.029774 
" style="fill:none;stroke:#c6e789;stroke-linecap:square;"/>
   </g>
   <g id="line2d_32">
    <path clip-path="url(#p478538c5a1)" d="M 72 388.8 
L 94.32 374.05563 
L 116.64 363.735139 
L 138.96 349.65571 
L 161.28 339.15409 
L 183.6 333.147296 
L 205.92 320.105703 
L 228.24 315.962775 
L 250.56 309.821782 
L 272.88 303.635115 
L 295.2 300.381642 
L 317.52 294.461059 
L 339.84 290.938003 
L 362.16 287.569544 
L 384.48 285.013095 
L 406.8 283.340867 
L 429.12 281.372015 
L 451.44 277.865732 
L 473.76 274.466595 
L 496.08 273.583622 
L 518.4 274.249425 
" style="fill:none;stroke:#d0e082;stroke-linecap:square;"/>
   </g>
   <g id="line2d_33">
    <path clip-path="url(#p478538c5a1)" d="M 72 388.8 
L 94.32 321.525204 
L 116.64 275.31499 
L 138.96 242.525423 
L 161.28 213.588308 
L 183.6 199.277277 
L 205.92 189.375536 
L 228.24 180.272418 
L 250.56 167.42046 
L 272.88 157.305834 
L 295.2 152.772158 
L 317.52 146.58184 
L 339.84 145.175228 
L 362.16 141.606407 
L 384.48 135.612044 
L 406.8 134.612291 
L 429.12 130.987237 
L 451.44 128.393086 
L 473.76 125.480509 
L 496.08 123.729042 
L 518.4 121.226811 
" style="fill:none;stroke:#dcd67a;stroke-linecap:square;"/>
   </g>
   <g id="line2d_34">
    <path clip-path="url(#p478538c5a1)" d="M 72 388.8 
L 94.32 239.655852 
L 116.64 175.766049 
L 138.96 152.526475 
L 161.28 133.237812 
L 183.6 129.133398 
L 205.92 123.996166 
L 228.24 120.355119 
L 250.56 117.619164 
L 272.88 115.515116 
L 295.2 113.66474 
L 317.52 112.569323 
L 339.84 110.947574 
L 362.16 109.367267 
L 384.48 107.83566 
L 406.8 106.383878 
L 429.12 104.907047 
L 451.44 103.433385 
L 473.76 101.323824 
L 496.08 99.904419 
L 518.4 98.589527 
" style="fill:none;stroke:#e6cd73;stroke-linecap:square;"/>
   </g>
   <g id="line2d_35">
    <path clip-path="url(#p478538c5a1)" d="M 72 388.8 
L 94.32 342.092601 
L 116.64 317.771425 
L 138.96 295.807837 
L 161.28 282.424554 
L 183.6 269.384558 
L 205.92 261.697432 
L 228.24 257.064032 
L 250.56 247.33701 
L 272.88 243.993467 
L 295.2 241.90553 
L 317.52 239.602404 
L 339.84 236.457172 
L 362.16 235.645883 
L 384.48 236.150117 
L 406.8 231.86426 
L 429.12 232.034136 
L 451.44 230.761959 
L 473.76 230.334506 
L 496.08 231.532744 
L 518.4 229.698908 
" style="fill:none;stroke:#f2c26b;stroke-linecap:square;"/>
   </g>
   <g id="line2d_36">
    <path clip-path="url(#p478538c5a1)" d="M 72 388.8 
L 94.32 314.467397 
L 116.64 270.072131 
L 138.96 228.768456 
L 161.28 193.19185 
L 183.6 176.65526 
L 205.92 164.158196 
L 228.24 151.314149 
L 250.56 139.230708 
L 272.88 135.689519 
L 295.2 127.569009 
L 317.52 123.97872 
L 339.84 116.397496 
L 362.16 115.647986 
L 384.48 109.50618 
L 406.8 109.436148 
L 429.12 109.2335 
L 451.44 106.664942 
L 473.76 103.516187 
L 496.08 104.278376 
L 518.4 101.355339 
" style="fill:none;stroke:#fcb763;stroke-linecap:square;"/>
   </g>
   <g id="line2d_37">
    <path clip-path="url(#p478538c5a1)" d="M 72 388.8 
L 94.32 351.422664 
L 116.64 319.159916 
L 138.96 292.098065 
L 161.28 266.50699 
L 183.6 247.981748 
L 205.92 227.088445 
L 228.24 212.51822 
L 250.56 200.519024 
L 272.88 184.108106 
L 295.2 179.818717 
L 317.52 161.291272 
L 339.84 155.650559 
L 362.16 148.43222 
L 384.48 135.429819 
L 406.8 131.540285 
L 429.12 125.766748 
L 451.44 121.543377 
L 473.76 112.35961 
L 496.08 112.928359 
L 518.4 107.557982 
" style="fill:none;stroke:#ffa95b;stroke-linecap:square;"/>
   </g>
   <g id="line2d_38">
    <path clip-path="url(#p478538c5a1)" d="M 72 388.8 
L 94.32 215.544326 
L 116.64 140.376598 
L 138.96 112.387897 
L 161.28 102.831922 
L 183.6 96.324329 
L 205.92 94.502253 
L 228.24 91.247334 
L 250.56 89.686848 
L 272.88 87.112067 
L 295.2 86.358952 
L 317.52 85.092366 
L 339.84 83.21647 
L 362.16 82.558942 
L 384.48 80.781989 
L 406.8 79.775277 
L 429.12 79.164762 
L 451.44 78.036947 
L 473.76 77.730802 
L 496.08 75.451479 
L 518.4 74.661903 
" style="fill:none;stroke:#ff9d53;stroke-linecap:square;"/>
   </g>
   <g id="line2d_39">
    <path clip-path="url(#p478538c5a1)" d="M 72 388.8 
L 94.32 305.437266 
L 116.64 262.717592 
L 138.96 229.738285 
L 161.28 209.101262 
L 183.6 195.99351 
L 205.92 185.138444 
L 228.24 179.375361 
L 250.56 173.776812 
L 272.88 168.585889 
L 295.2 162.722459 
L 317.52 158.946265 
L 339.84 155.980265 
L 362.16 153.358765 
L 384.48 150.459667 
L 406.8 147.271882 
L 429.12 148.690923 
L 451.44 144.368485 
L 473.76 142.39861 
L 496.08 141.268265 
L 518.4 139.820983 
" style="fill:none;stroke:#ff914c;stroke-linecap:square;"/>
   </g>
   <g id="line2d_40">
    <path clip-path="url(#p478538c5a1)" d="M 72 388.8 
L 94.32 345.528832 
L 116.64 319.58317 
L 138.96 297.630332 
L 161.28 273.083348 
L 183.6 261.661006 
L 205.92 241.888777 
L 228.24 227.137815 
L 250.56 217.023081 
L 272.88 205.87953 
L 295.2 195.80078 
L 317.52 193.184038 
L 339.84 185.641978 
L 362.16 176.834254 
L 384.48 170.68989 
L 406.8 164.313843 
L 429.12 159.809512 
L 451.44 155.377511 
L 473.76 152.620382 
L 496.08 146.608351 
L 518.4 144.695135 
" style="fill:none;stroke:#ff8143;stroke-linecap:square;"/>
   </g>
   <g id="line2d_41">
    <path clip-path="url(#p478538c5a1)" d="M 72 388.8 
L 94.32 313.50398 
L 116.64 262.250302 
L 138.96 223.153346 
L 161.28 196.282758 
L 183.6 172.731975 
L 205.92 159.49877 
L 228.24 151.529786 
L 250.56 139.462312 
L 272.88 133.621274 
L 295.2 131.200396 
L 317.52 122.196161 
L 339.84 117.857161 
L 362.16 111.588225 
L 384.48 110.634147 
L 406.8 109.749326 
L 429.12 108.250637 
L 451.44 107.432693 
L 473.76 104.450422 
L 496.08 105.678293 
L 518.4 101.906507 
" style="fill:none;stroke:#ff733b;stroke-linecap:square;"/>
   </g>
   <g id="line2d_42">
    <path clip-path="url(#p478538c5a1)" d="M 72 388.8 
L 94.32 375.389048 
L 116.64 364.51946 
L 138.96 354.023562 
L 161.28 344.280451 
L 183.6 334.989755 
L 205.92 325.316649 
L 228.24 317.193288 
L 250.56 306.872117 
L 272.88 297.47404 
L 295.2 292.592893 
L 317.52 284.349262 
L 339.84 277.730103 
L 362.16 271.536846 
L 384.48 265.600316 
L 406.8 257.325421 
L 429.12 254.166894 
L 451.44 248.41268 
L 473.76 241.878528 
L 496.08 237.516181 
L 518.4 231.674626 
" style="fill:none;stroke:#ff6232;stroke-linecap:square;"/>
   </g>
   <g id="line2d_43">
    <path clip-path="url(#p478538c5a1)" d="M 72 388.8 
L 94.32 163.082342 
L 116.64 81.796298 
L 138.96 67.004711 
L 161.28 59.271955 
L 183.6 54.501404 
L 205.92 53.965345 
L 228.24 51.636025 
L 250.56 52.155876 
L 272.88 50.502603 
L 295.2 50.173949 
L 317.52 49.51712 
L 339.84 48.985578 
L 362.16 48.301976 
L 384.48 47.830047 
L 406.8 47.15005 
L 429.12 46.728956 
L 451.44 46.300208 
L 473.76 45.763947 
L 496.08 45.348463 
L 518.4 44.855437 
" style="fill:none;stroke:#ff532a;stroke-linecap:square;"/>
   </g>
   <g id="line2d_44">
    <path clip-path="url(#p478538c5a1)" d="M 72 388.8 
L 94.32 378.785787 
L 116.64 369.284123 
L 138.96 360.633039 
L 161.28 352.042053 
L 183.6 342.908686 
L 205.92 335.13696 
L 228.24 326.303753 
L 250.56 319.474611 
L 272.88 312.132431 
L 295.2 303.780011 
L 317.52 299.612094 
L 339.84 292.079498 
L 362.16 285.476846 
L 384.48 279.136444 
L 406.8 274.781137 
L 429.12 267.305776 
L 451.44 262.430721 
L 473.76 256.963215 
L 496.08 251.676356 
L 518.4 246.032339 
" style="fill:none;stroke:#ff4121;stroke-linecap:square;"/>
   </g>
   <g id="line2d_45">
    <path clip-path="url(#p478538c5a1)" d="M 72 388.8 
L 94.32 364.794632 
L 116.64 344.791755 
L 138.96 327.118762 
L 161.28 312.394889 
L 183.6 302.765036 
L 205.92 288.372942 
L 228.24 277.783029 
L 250.56 268.678841 
L 272.88 256.80364 
L 295.2 249.744874 
L 317.52 240.685559 
L 339.84 237.538814 
L 362.16 225.304635 
L 384.48 221.064386 
L 406.8 215.615345 
L 429.12 209.498757 
L 451.44 202.556441 
L 473.76 201.68485 
L 496.08 193.388128 
L 518.4 190.723352 
" style="fill:none;stroke:#ff3219;stroke-linecap:square;"/>
   </g>
   <g id="line2d_46">
    <path clip-path="url(#p478538c5a1)" d="M 72 388.8 
L 94.32 230.651601 
L 116.64 137.352808 
L 138.96 93.871683 
L 161.28 76.716831 
L 183.6 63.005821 
L 205.92 54.872725 
L 228.24 53.184918 
L 250.56 52.069032 
L 272.88 51.88877 
L 295.2 51.294697 
L 317.52 51.240201 
L 339.84 51.23073 
L 362.16 51.220982 
L 384.48 51.211064 
L 406.8 51.200341 
L 429.12 51.191865 
L 451.44 51.178396 
L 473.76 51.166761 
L 496.08 51.155197 
L 518.4 51.14199 
" style="fill:none;stroke:#ff1f10;stroke-linecap:square;"/>
   </g>
   <g id="line2d_47">
    <path clip-path="url(#p478538c5a1)" d="M 72 388.8 
L 94.32 368.004817 
L 116.64 351.538761 
L 138.96 336.188172 
L 161.28 319.497304 
L 183.6 306.535722 
L 205.92 298.061093 
L 228.24 282.693141 
L 250.56 276.941426 
L 272.88 267.811047 
L 295.2 254.694088 
L 317.52 247.355699 
L 339.84 241.759029 
L 362.16 233.76645 
L 384.48 232.227174 
L 406.8 223.364879 
L 429.12 220.884811 
L 451.44 213.448843 
L 473.76 212.340465 
L 496.08 206.400047 
L 518.4 200.639456 
" style="fill:none;stroke:#ff1008;stroke-linecap:square;"/>
   </g>
   <g id="line2d_48">
    <path clip-path="url(#p478538c5a1)" d="M 72 388.8 
L 94.32 380.32297 
L 116.64 372.860912 
L 138.96 365.501924 
L 161.28 357.833593 
L 183.6 350.660977 
L 205.92 343.942451 
L 228.24 337.049414 
L 250.56 330.435576 
L 272.88 323.592767 
L 295.2 317.566522 
L 317.52 311.041519 
L 339.84 307.661371 
L 362.16 301.921523 
L 384.48 297.936567 
L 406.8 295.029613 
L 429.12 290.702068 
L 451.44 288.119345 
L 473.76 283.158069 
L 496.08 280.822468 
L 518.4 276.922563 
" style="fill:none;stroke:#ff0000;stroke-linecap:square;"/>
   </g>
   <g id="patch_3">
    <path d="M 72 388.8 
L 72 43.2 
" style="fill:none;stroke:#000000;stroke-linecap:square;stroke-linejoin:miter;"/>
   </g>
   <g id="patch_4">
    <path d="M 72 388.8 
L 518.4 388.8 
" style="fill:none;stroke:#000000;stroke-linecap:square;stroke-linejoin:miter;"/>
   </g>
   <g id="patch_5">
    <path d="M 518.4 388.8 
L 518.4 43.2 
" style="fill:none;stroke:#000000;stroke-linecap:square;stroke-linejoin:miter;"/>
   </g>
   <g id="patch_6">
    <path d="M 72 43.2 
L 518.4 43.2 
" style="fill:none;stroke:#000000;stroke-linecap:square;stroke-linejoin:miter;"/>
   </g>
   <g id="matplotlib.axis_1">
    <g id="xtick_1">
     <g id="line2d_49">
      <defs>
       <path d="M 0 0 
L 0 -4 
" id="m6a46d2c559" style="stroke:#000000;stroke-width:0.5;"/>
      </defs>
      <g>
       <use style="stroke:#000000;stroke-width:0.5;" x="72.0" xlink:href="#m6a46d2c559" y="388.8"/>
      </g>
     </g>
     <g id="line2d_50">
      <defs>
       <path d="M 0 0 
L 0 4 
" id="ma8642365a0" style="stroke:#000000;stroke-width:0.5;"/>
      </defs>
      <g>
       <use style="stroke:#000000;stroke-width:0.5;" x="72.0" xlink:href="#ma8642365a0" y="43.2"/>
      </g>
     </g>
     <g id="text_1">
      <!-- 0 -->
      <defs>
       <path d="M 31.78125 66.40625 
Q 24.171875 66.40625 20.328125 58.90625 
Q 16.5 51.421875 16.5 36.375 
Q 16.5 21.390625 20.328125 13.890625 
Q 24.171875 6.390625 31.78125 6.390625 
Q 39.453125 6.390625 43.28125 13.890625 
Q 47.125 21.390625 47.125 36.375 
Q 47.125 51.421875 43.28125 58.90625 
Q 39.453125 66.40625 31.78125 66.40625 
M 31.78125 74.21875 
Q 44.046875 74.21875 50.515625 64.515625 
Q 56.984375 54.828125 56.984375 36.375 
Q 56.984375 17.96875 50.515625 8.265625 
Q 44.046875 -1.421875 31.78125 -1.421875 
Q 19.53125 -1.421875 13.0625 8.265625 
Q 6.59375 17.96875 6.59375 36.375 
Q 6.59375 54.828125 13.0625 64.515625 
Q 19.53125 74.21875 31.78125 74.21875 
" id="BitstreamVeraSans-Roman-30"/>
      </defs>
      <g transform="translate(68.1825 401.918125)scale(0.12 -0.12)">
       <use xlink:href="#BitstreamVeraSans-Roman-30"/>
      </g>
     </g>
    </g>
    <g id="xtick_2">
     <g id="line2d_51">
      <g>
       <use style="stroke:#000000;stroke-width:0.5;" x="183.6" xlink:href="#m6a46d2c559" y="388.8"/>
      </g>
     </g>
     <g id="line2d_52">
      <g>
       <use style="stroke:#000000;stroke-width:0.5;" x="183.6" xlink:href="#ma8642365a0" y="43.2"/>
      </g>
     </g>
     <g id="text_2">
      <!-- 5 -->
      <defs>
       <path d="M 10.796875 72.90625 
L 49.515625 72.90625 
L 49.515625 64.59375 
L 19.828125 64.59375 
L 19.828125 46.734375 
Q 21.96875 47.46875 24.109375 47.828125 
Q 26.265625 48.1875 28.421875 48.1875 
Q 40.625 48.1875 47.75 41.5 
Q 54.890625 34.8125 54.890625 23.390625 
Q 54.890625 11.625 47.5625 5.09375 
Q 40.234375 -1.421875 26.90625 -1.421875 
Q 22.3125 -1.421875 17.546875 -0.640625 
Q 12.796875 0.140625 7.71875 1.703125 
L 7.71875 11.625 
Q 12.109375 9.234375 16.796875 8.0625 
Q 21.484375 6.890625 26.703125 6.890625 
Q 35.15625 6.890625 40.078125 11.328125 
Q 45.015625 15.765625 45.015625 23.390625 
Q 45.015625 31 40.078125 35.4375 
Q 35.15625 39.890625 26.703125 39.890625 
Q 22.75 39.890625 18.8125 39.015625 
Q 14.890625 38.140625 10.796875 36.28125 
z
" id="BitstreamVeraSans-Roman-35"/>
      </defs>
      <g transform="translate(179.7825 401.918125)scale(0.12 -0.12)">
       <use xlink:href="#BitstreamVeraSans-Roman-35"/>
      </g>
     </g>
    </g>
    <g id="xtick_3">
     <g id="line2d_53">
      <g>
       <use style="stroke:#000000;stroke-width:0.5;" x="295.2" xlink:href="#m6a46d2c559" y="388.8"/>
      </g>
     </g>
     <g id="line2d_54">
      <g>
       <use style="stroke:#000000;stroke-width:0.5;" x="295.2" xlink:href="#ma8642365a0" y="43.2"/>
      </g>
     </g>
     <g id="text_3">
      <!-- 10 -->
      <defs>
       <path d="M 12.40625 8.296875 
L 28.515625 8.296875 
L 28.515625 63.921875 
L 10.984375 60.40625 
L 10.984375 69.390625 
L 28.421875 72.90625 
L 38.28125 72.90625 
L 38.28125 8.296875 
L 54.390625 8.296875 
L 54.390625 0 
L 12.40625 0 
z
" id="BitstreamVeraSans-Roman-31"/>
      </defs>
      <g transform="translate(287.565 401.918125)scale(0.12 -0.12)">
       <use xlink:href="#BitstreamVeraSans-Roman-31"/>
       <use x="63.623046875" xlink:href="#BitstreamVeraSans-Roman-30"/>
      </g>
     </g>
    </g>
    <g id="xtick_4">
     <g id="line2d_55">
      <g>
       <use style="stroke:#000000;stroke-width:0.5;" x="406.8" xlink:href="#m6a46d2c559" y="388.8"/>
      </g>
     </g>
     <g id="line2d_56">
      <g>
       <use style="stroke:#000000;stroke-width:0.5;" x="406.8" xlink:href="#ma8642365a0" y="43.2"/>
      </g>
     </g>
     <g id="text_4">
      <!-- 15 -->
      <g transform="translate(399.165 401.918125)scale(0.12 -0.12)">
       <use xlink:href="#BitstreamVeraSans-Roman-31"/>
       <use x="63.623046875" xlink:href="#BitstreamVeraSans-Roman-35"/>
      </g>
     </g>
    </g>
    <g id="xtick_5">
     <g id="line2d_57">
      <g>
       <use style="stroke:#000000;stroke-width:0.5;" x="518.4" xlink:href="#m6a46d2c559" y="388.8"/>
      </g>
     </g>
     <g id="line2d_58">
      <g>
       <use style="stroke:#000000;stroke-width:0.5;" x="518.4" xlink:href="#ma8642365a0" y="43.2"/>
      </g>
     </g>
     <g id="text_5">
      <!-- 20 -->
      <defs>
       <path d="M 19.1875 8.296875 
L 53.609375 8.296875 
L 53.609375 0 
L 7.328125 0 
L 7.328125 8.296875 
Q 12.9375 14.109375 22.625 23.890625 
Q 32.328125 33.6875 34.8125 36.53125 
Q 39.546875 41.84375 41.421875 45.53125 
Q 43.3125 49.21875 43.3125 52.78125 
Q 43.3125 58.59375 39.234375 62.25 
Q 35.15625 65.921875 28.609375 65.921875 
Q 23.96875 65.921875 18.8125 64.3125 
Q 13.671875 62.703125 7.8125 59.421875 
L 7.8125 69.390625 
Q 13.765625 71.78125 18.9375 73 
Q 24.125 74.21875 28.421875 74.21875 
Q 39.75 74.21875 46.484375 68.546875 
Q 53.21875 62.890625 53.21875 53.421875 
Q 53.21875 48.921875 51.53125 44.890625 
Q 49.859375 40.875 45.40625 35.40625 
Q 44.1875 33.984375 37.640625 27.21875 
Q 31.109375 20.453125 19.1875 8.296875 
" id="BitstreamVeraSans-Roman-32"/>
      </defs>
      <g transform="translate(510.765 401.918125)scale(0.12 -0.12)">
       <use xlink:href="#BitstreamVeraSans-Roman-32"/>
       <use x="63.623046875" xlink:href="#BitstreamVeraSans-Roman-30"/>
      </g>
     </g>
    </g>
    <g id="text_6">
     <!-- amount of corrections sampled -->
     <defs>
      <path d="M 54.890625 33.015625 
L 54.890625 0 
L 45.90625 0 
L 45.90625 32.71875 
Q 45.90625 40.484375 42.875 44.328125 
Q 39.84375 48.1875 33.796875 48.1875 
Q 26.515625 48.1875 22.3125 43.546875 
Q 18.109375 38.921875 18.109375 30.90625 
L 18.109375 0 
L 9.078125 0 
L 9.078125 54.6875 
L 18.109375 54.6875 
L 18.109375 46.1875 
Q 21.34375 51.125 25.703125 53.5625 
Q 30.078125 56 35.796875 56 
Q 45.21875 56 50.046875 50.171875 
Q 54.890625 44.34375 54.890625 33.015625 
" id="BitstreamVeraSans-Roman-6e"/>
      <path d="M 52 44.1875 
Q 55.375 50.25 60.0625 53.125 
Q 64.75 56 71.09375 56 
Q 79.640625 56 84.28125 50.015625 
Q 88.921875 44.046875 88.921875 33.015625 
L 88.921875 0 
L 79.890625 0 
L 79.890625 32.71875 
Q 79.890625 40.578125 77.09375 44.375 
Q 74.3125 48.1875 68.609375 48.1875 
Q 61.625 48.1875 57.5625 43.546875 
Q 53.515625 38.921875 53.515625 30.90625 
L 53.515625 0 
L 44.484375 0 
L 44.484375 32.71875 
Q 44.484375 40.625 41.703125 44.40625 
Q 38.921875 48.1875 33.109375 48.1875 
Q 26.21875 48.1875 22.15625 43.53125 
Q 18.109375 38.875 18.109375 30.90625 
L 18.109375 0 
L 9.078125 0 
L 9.078125 54.6875 
L 18.109375 54.6875 
L 18.109375 46.1875 
Q 21.1875 51.21875 25.484375 53.609375 
Q 29.78125 56 35.6875 56 
Q 41.65625 56 45.828125 52.96875 
Q 50 49.953125 52 44.1875 
" id="BitstreamVeraSans-Roman-6d"/>
      <path d="M 41.109375 46.296875 
Q 39.59375 47.171875 37.8125 47.578125 
Q 36.03125 48 33.890625 48 
Q 26.265625 48 22.1875 43.046875 
Q 18.109375 38.09375 18.109375 28.8125 
L 18.109375 0 
L 9.078125 0 
L 9.078125 54.6875 
L 18.109375 54.6875 
L 18.109375 46.1875 
Q 20.953125 51.171875 25.484375 53.578125 
Q 30.03125 56 36.53125 56 
Q 37.453125 56 38.578125 55.875 
Q 39.703125 55.765625 41.0625 55.515625 
z
" id="BitstreamVeraSans-Roman-72"/>
      <path d="M 9.421875 54.6875 
L 18.40625 54.6875 
L 18.40625 0 
L 9.421875 0 
z
M 9.421875 75.984375 
L 18.40625 75.984375 
L 18.40625 64.59375 
L 9.421875 64.59375 
z
" id="BitstreamVeraSans-Roman-69"/>
      <path d="M 48.78125 52.59375 
L 48.78125 44.1875 
Q 44.96875 46.296875 41.140625 47.34375 
Q 37.3125 48.390625 33.40625 48.390625 
Q 24.65625 48.390625 19.8125 42.84375 
Q 14.984375 37.3125 14.984375 27.296875 
Q 14.984375 17.28125 19.8125 11.734375 
Q 24.65625 6.203125 33.40625 6.203125 
Q 37.3125 6.203125 41.140625 7.25 
Q 44.96875 8.296875 48.78125 10.40625 
L 48.78125 2.09375 
Q 45.015625 0.34375 40.984375 -0.53125 
Q 36.96875 -1.421875 32.421875 -1.421875 
Q 20.0625 -1.421875 12.78125 6.34375 
Q 5.515625 14.109375 5.515625 27.296875 
Q 5.515625 40.671875 12.859375 48.328125 
Q 20.21875 56 33.015625 56 
Q 37.15625 56 41.109375 55.140625 
Q 45.0625 54.296875 48.78125 52.59375 
" id="BitstreamVeraSans-Roman-63"/>
      <path d="M 18.3125 70.21875 
L 18.3125 54.6875 
L 36.8125 54.6875 
L 36.8125 47.703125 
L 18.3125 47.703125 
L 18.3125 18.015625 
Q 18.3125 11.328125 20.140625 9.421875 
Q 21.96875 7.515625 27.59375 7.515625 
L 36.8125 7.515625 
L 36.8125 0 
L 27.59375 0 
Q 17.1875 0 13.234375 3.875 
Q 9.28125 7.765625 9.28125 18.015625 
L 9.28125 47.703125 
L 2.6875 47.703125 
L 2.6875 54.6875 
L 9.28125 54.6875 
L 9.28125 70.21875 
z
" id="BitstreamVeraSans-Roman-74"/>
      <path d="M 30.609375 48.390625 
Q 23.390625 48.390625 19.1875 42.75 
Q 14.984375 37.109375 14.984375 27.296875 
Q 14.984375 17.484375 19.15625 11.84375 
Q 23.34375 6.203125 30.609375 6.203125 
Q 37.796875 6.203125 41.984375 11.859375 
Q 46.1875 17.53125 46.1875 27.296875 
Q 46.1875 37.015625 41.984375 42.703125 
Q 37.796875 48.390625 30.609375 48.390625 
M 30.609375 56 
Q 42.328125 56 49.015625 48.375 
Q 55.71875 40.765625 55.71875 27.296875 
Q 55.71875 13.875 49.015625 6.21875 
Q 42.328125 -1.421875 30.609375 -1.421875 
Q 18.84375 -1.421875 12.171875 6.21875 
Q 5.515625 13.875 5.515625 27.296875 
Q 5.515625 40.765625 12.171875 48.375 
Q 18.84375 56 30.609375 56 
" id="BitstreamVeraSans-Roman-6f"/>
      <path d="M 9.421875 75.984375 
L 18.40625 75.984375 
L 18.40625 0 
L 9.421875 0 
z
" id="BitstreamVeraSans-Roman-6c"/>
      <path d="M 45.40625 46.390625 
L 45.40625 75.984375 
L 54.390625 75.984375 
L 54.390625 0 
L 45.40625 0 
L 45.40625 8.203125 
Q 42.578125 3.328125 38.25 0.953125 
Q 33.9375 -1.421875 27.875 -1.421875 
Q 17.96875 -1.421875 11.734375 6.484375 
Q 5.515625 14.40625 5.515625 27.296875 
Q 5.515625 40.1875 11.734375 48.09375 
Q 17.96875 56 27.875 56 
Q 33.9375 56 38.25 53.625 
Q 42.578125 51.265625 45.40625 46.390625 
M 14.796875 27.296875 
Q 14.796875 17.390625 18.875 11.75 
Q 22.953125 6.109375 30.078125 6.109375 
Q 37.203125 6.109375 41.296875 11.75 
Q 45.40625 17.390625 45.40625 27.296875 
Q 45.40625 37.203125 41.296875 42.84375 
Q 37.203125 48.484375 30.078125 48.484375 
Q 22.953125 48.484375 18.875 42.84375 
Q 14.796875 37.203125 14.796875 27.296875 
" id="BitstreamVeraSans-Roman-64"/>
      <path id="BitstreamVeraSans-Roman-20"/>
      <path d="M 18.109375 8.203125 
L 18.109375 -20.796875 
L 9.078125 -20.796875 
L 9.078125 54.6875 
L 18.109375 54.6875 
L 18.109375 46.390625 
Q 20.953125 51.265625 25.265625 53.625 
Q 29.59375 56 35.59375 56 
Q 45.5625 56 51.78125 48.09375 
Q 58.015625 40.1875 58.015625 27.296875 
Q 58.015625 14.40625 51.78125 6.484375 
Q 45.5625 -1.421875 35.59375 -1.421875 
Q 29.59375 -1.421875 25.265625 0.953125 
Q 20.953125 3.328125 18.109375 8.203125 
M 48.6875 27.296875 
Q 48.6875 37.203125 44.609375 42.84375 
Q 40.53125 48.484375 33.40625 48.484375 
Q 26.265625 48.484375 22.1875 42.84375 
Q 18.109375 37.203125 18.109375 27.296875 
Q 18.109375 17.390625 22.1875 11.75 
Q 26.265625 6.109375 33.40625 6.109375 
Q 40.53125 6.109375 44.609375 11.75 
Q 48.6875 17.390625 48.6875 27.296875 
" id="BitstreamVeraSans-Roman-70"/>
      <path d="M 34.28125 27.484375 
Q 23.390625 27.484375 19.1875 25 
Q 14.984375 22.515625 14.984375 16.5 
Q 14.984375 11.71875 18.140625 8.90625 
Q 21.296875 6.109375 26.703125 6.109375 
Q 34.1875 6.109375 38.703125 11.40625 
Q 43.21875 16.703125 43.21875 25.484375 
L 43.21875 27.484375 
z
M 52.203125 31.203125 
L 52.203125 0 
L 43.21875 0 
L 43.21875 8.296875 
Q 40.140625 3.328125 35.546875 0.953125 
Q 30.953125 -1.421875 24.3125 -1.421875 
Q 15.921875 -1.421875 10.953125 3.296875 
Q 6 8.015625 6 15.921875 
Q 6 25.140625 12.171875 29.828125 
Q 18.359375 34.515625 30.609375 34.515625 
L 43.21875 34.515625 
L 43.21875 35.40625 
Q 43.21875 41.609375 39.140625 45 
Q 35.0625 48.390625 27.6875 48.390625 
Q 23 48.390625 18.546875 47.265625 
Q 14.109375 46.140625 10.015625 43.890625 
L 10.015625 52.203125 
Q 14.9375 54.109375 19.578125 55.046875 
Q 24.21875 56 28.609375 56 
Q 40.484375 56 46.34375 49.84375 
Q 52.203125 43.703125 52.203125 31.203125 
" id="BitstreamVeraSans-Roman-61"/>
      <path d="M 8.5 21.578125 
L 8.5 54.6875 
L 17.484375 54.6875 
L 17.484375 21.921875 
Q 17.484375 14.15625 20.5 10.265625 
Q 23.53125 6.390625 29.59375 6.390625 
Q 36.859375 6.390625 41.078125 11.03125 
Q 45.3125 15.671875 45.3125 23.6875 
L 45.3125 54.6875 
L 54.296875 54.6875 
L 54.296875 0 
L 45.3125 0 
L 45.3125 8.40625 
Q 42.046875 3.421875 37.71875 1 
Q 33.40625 -1.421875 27.6875 -1.421875 
Q 18.265625 -1.421875 13.375 4.4375 
Q 8.5 10.296875 8.5 21.578125 
" id="BitstreamVeraSans-Roman-75"/>
      <path d="M 44.28125 53.078125 
L 44.28125 44.578125 
Q 40.484375 46.53125 36.375 47.5 
Q 32.28125 48.484375 27.875 48.484375 
Q 21.1875 48.484375 17.84375 46.4375 
Q 14.5 44.390625 14.5 40.28125 
Q 14.5 37.15625 16.890625 35.375 
Q 19.28125 33.59375 26.515625 31.984375 
L 29.59375 31.296875 
Q 39.15625 29.25 43.1875 25.515625 
Q 47.21875 21.78125 47.21875 15.09375 
Q 47.21875 7.46875 41.1875 3.015625 
Q 35.15625 -1.421875 24.609375 -1.421875 
Q 20.21875 -1.421875 15.453125 -0.5625 
Q 10.6875 0.296875 5.421875 2 
L 5.421875 11.28125 
Q 10.40625 8.6875 15.234375 7.390625 
Q 20.0625 6.109375 24.8125 6.109375 
Q 31.15625 6.109375 34.5625 8.28125 
Q 37.984375 10.453125 37.984375 14.40625 
Q 37.984375 18.0625 35.515625 20.015625 
Q 33.0625 21.96875 24.703125 23.78125 
L 21.578125 24.515625 
Q 13.234375 26.265625 9.515625 29.90625 
Q 5.8125 33.546875 5.8125 39.890625 
Q 5.8125 47.609375 11.28125 51.796875 
Q 16.75 56 26.8125 56 
Q 31.78125 56 36.171875 55.265625 
Q 40.578125 54.546875 44.28125 53.078125 
" id="BitstreamVeraSans-Roman-73"/>
      <path d="M 37.109375 75.984375 
L 37.109375 68.5 
L 28.515625 68.5 
Q 23.6875 68.5 21.796875 66.546875 
Q 19.921875 64.59375 19.921875 59.515625 
L 19.921875 54.6875 
L 34.71875 54.6875 
L 34.71875 47.703125 
L 19.921875 47.703125 
L 19.921875 0 
L 10.890625 0 
L 10.890625 47.703125 
L 2.296875 47.703125 
L 2.296875 54.6875 
L 10.890625 54.6875 
L 10.890625 58.5 
Q 10.890625 67.625 15.140625 71.796875 
Q 19.390625 75.984375 28.609375 75.984375 
z
" id="BitstreamVeraSans-Roman-66"/>
      <path d="M 56.203125 29.59375 
L 56.203125 25.203125 
L 14.890625 25.203125 
Q 15.484375 15.921875 20.484375 11.0625 
Q 25.484375 6.203125 34.421875 6.203125 
Q 39.59375 6.203125 44.453125 7.46875 
Q 49.3125 8.734375 54.109375 11.28125 
L 54.109375 2.78125 
Q 49.265625 0.734375 44.1875 -0.34375 
Q 39.109375 -1.421875 33.890625 -1.421875 
Q 20.796875 -1.421875 13.15625 6.1875 
Q 5.515625 13.8125 5.515625 26.8125 
Q 5.515625 40.234375 12.765625 48.109375 
Q 20.015625 56 32.328125 56 
Q 43.359375 56 49.78125 48.890625 
Q 56.203125 41.796875 56.203125 29.59375 
M 47.21875 32.234375 
Q 47.125 39.59375 43.09375 43.984375 
Q 39.0625 48.390625 32.421875 48.390625 
Q 24.90625 48.390625 20.390625 44.140625 
Q 15.875 39.890625 15.1875 32.171875 
z
" id="BitstreamVeraSans-Roman-65"/>
     </defs>
     <g transform="translate(201.4125 418.531875)scale(0.12 -0.12)">
      <use xlink:href="#BitstreamVeraSans-Roman-61"/>
      <use x="61.279296875" xlink:href="#BitstreamVeraSans-Roman-6d"/>
      <use x="158.69140625" xlink:href="#BitstreamVeraSans-Roman-6f"/>
      <use x="219.873046875" xlink:href="#BitstreamVeraSans-Roman-75"/>
      <use x="283.251953125" xlink:href="#BitstreamVeraSans-Roman-6e"/>
      <use x="346.630859375" xlink:href="#BitstreamVeraSans-Roman-74"/>
      <use x="385.83984375" xlink:href="#BitstreamVeraSans-Roman-20"/>
      <use x="417.626953125" xlink:href="#BitstreamVeraSans-Roman-6f"/>
      <use x="478.80859375" xlink:href="#BitstreamVeraSans-Roman-66"/>
      <use x="514.013671875" xlink:href="#BitstreamVeraSans-Roman-20"/>
      <use x="545.80078125" xlink:href="#BitstreamVeraSans-Roman-63"/>
      <use x="600.78125" xlink:href="#BitstreamVeraSans-Roman-6f"/>
      <use x="661.962890625" xlink:href="#BitstreamVeraSans-Roman-72"/>
      <use x="703.060546875" xlink:href="#BitstreamVeraSans-Roman-72"/>
      <use x="744.142578125" xlink:href="#BitstreamVeraSans-Roman-65"/>
      <use x="805.666015625" xlink:href="#BitstreamVeraSans-Roman-63"/>
      <use x="860.646484375" xlink:href="#BitstreamVeraSans-Roman-74"/>
      <use x="899.85546875" xlink:href="#BitstreamVeraSans-Roman-69"/>
      <use x="927.638671875" xlink:href="#BitstreamVeraSans-Roman-6f"/>
      <use x="988.8203125" xlink:href="#BitstreamVeraSans-Roman-6e"/>
      <use x="1052.19921875" xlink:href="#BitstreamVeraSans-Roman-73"/>
      <use x="1104.298828125" xlink:href="#BitstreamVeraSans-Roman-20"/>
      <use x="1136.0859375" xlink:href="#BitstreamVeraSans-Roman-73"/>
      <use x="1188.185546875" xlink:href="#BitstreamVeraSans-Roman-61"/>
      <use x="1249.46484375" xlink:href="#BitstreamVeraSans-Roman-6d"/>
      <use x="1346.876953125" xlink:href="#BitstreamVeraSans-Roman-70"/>
      <use x="1410.353515625" xlink:href="#BitstreamVeraSans-Roman-6c"/>
      <use x="1438.13671875" xlink:href="#BitstreamVeraSans-Roman-65"/>
      <use x="1499.66015625" xlink:href="#BitstreamVeraSans-Roman-64"/>
     </g>
    </g>
   </g>
   <g id="matplotlib.axis_2">
    <g id="ytick_1">
     <g id="line2d_59">
      <defs>
       <path d="M 0 0 
L 4 0 
" id="mef52d828c5" style="stroke:#000000;stroke-width:0.5;"/>
      </defs>
      <g>
       <use style="stroke:#000000;stroke-width:0.5;" x="72.0" xlink:href="#mef52d828c5" y="388.8"/>
      </g>
     </g>
     <g id="line2d_60">
      <defs>
       <path d="M 0 0 
L -4 0 
" id="m7baf09c51e" style="stroke:#000000;stroke-width:0.5;"/>
      </defs>
      <g>
       <use style="stroke:#000000;stroke-width:0.5;" x="518.4" xlink:href="#m7baf09c51e" y="388.8"/>
      </g>
     </g>
     <g id="text_7">
      <!-- 0.0 -->
      <defs>
       <path d="M 10.6875 12.40625 
L 21 12.40625 
L 21 0 
L 10.6875 0 
z
" id="BitstreamVeraSans-Roman-2e"/>
      </defs>
      <g transform="translate(48.91625 392.11125)scale(0.12 -0.12)">
       <use xlink:href="#BitstreamVeraSans-Roman-30"/>
       <use x="63.623046875" xlink:href="#BitstreamVeraSans-Roman-2e"/>
       <use x="95.41015625" xlink:href="#BitstreamVeraSans-Roman-30"/>
      </g>
     </g>
    </g>
    <g id="ytick_2">
     <g id="line2d_61">
      <g>
       <use style="stroke:#000000;stroke-width:0.5;" x="72.0" xlink:href="#mef52d828c5" y="350.4"/>
      </g>
     </g>
     <g id="line2d_62">
      <g>
       <use style="stroke:#000000;stroke-width:0.5;" x="518.4" xlink:href="#m7baf09c51e" y="350.4"/>
      </g>
     </g>
     <g id="text_8">
      <!-- 0.1 -->
      <g transform="translate(48.91625 353.71125)scale(0.12 -0.12)">
       <use xlink:href="#BitstreamVeraSans-Roman-30"/>
       <use x="63.623046875" xlink:href="#BitstreamVeraSans-Roman-2e"/>
       <use x="95.41015625" xlink:href="#BitstreamVeraSans-Roman-31"/>
      </g>
     </g>
    </g>
    <g id="ytick_3">
     <g id="line2d_63">
      <g>
       <use style="stroke:#000000;stroke-width:0.5;" x="72.0" xlink:href="#mef52d828c5" y="312.0"/>
      </g>
     </g>
     <g id="line2d_64">
      <g>
       <use style="stroke:#000000;stroke-width:0.5;" x="518.4" xlink:href="#m7baf09c51e" y="312.0"/>
      </g>
     </g>
     <g id="text_9">
      <!-- 0.2 -->
      <g transform="translate(48.91625 315.31125)scale(0.12 -0.12)">
       <use xlink:href="#BitstreamVeraSans-Roman-30"/>
       <use x="63.623046875" xlink:href="#BitstreamVeraSans-Roman-2e"/>
       <use x="95.41015625" xlink:href="#BitstreamVeraSans-Roman-32"/>
      </g>
     </g>
    </g>
    <g id="ytick_4">
     <g id="line2d_65">
      <g>
       <use style="stroke:#000000;stroke-width:0.5;" x="72.0" xlink:href="#mef52d828c5" y="273.6"/>
      </g>
     </g>
     <g id="line2d_66">
      <g>
       <use style="stroke:#000000;stroke-width:0.5;" x="518.4" xlink:href="#m7baf09c51e" y="273.6"/>
      </g>
     </g>
     <g id="text_10">
      <!-- 0.3 -->
      <defs>
       <path d="M 40.578125 39.3125 
Q 47.65625 37.796875 51.625 33 
Q 55.609375 28.21875 55.609375 21.1875 
Q 55.609375 10.40625 48.1875 4.484375 
Q 40.765625 -1.421875 27.09375 -1.421875 
Q 22.515625 -1.421875 17.65625 -0.515625 
Q 12.796875 0.390625 7.625 2.203125 
L 7.625 11.71875 
Q 11.71875 9.328125 16.59375 8.109375 
Q 21.484375 6.890625 26.8125 6.890625 
Q 36.078125 6.890625 40.9375 10.546875 
Q 45.796875 14.203125 45.796875 21.1875 
Q 45.796875 27.640625 41.28125 31.265625 
Q 36.765625 34.90625 28.71875 34.90625 
L 20.21875 34.90625 
L 20.21875 43.015625 
L 29.109375 43.015625 
Q 36.375 43.015625 40.234375 45.921875 
Q 44.09375 48.828125 44.09375 54.296875 
Q 44.09375 59.90625 40.109375 62.90625 
Q 36.140625 65.921875 28.71875 65.921875 
Q 24.65625 65.921875 20.015625 65.03125 
Q 15.375 64.15625 9.8125 62.3125 
L 9.8125 71.09375 
Q 15.4375 72.65625 20.34375 73.4375 
Q 25.25 74.21875 29.59375 74.21875 
Q 40.828125 74.21875 47.359375 69.109375 
Q 53.90625 64.015625 53.90625 55.328125 
Q 53.90625 49.265625 50.4375 45.09375 
Q 46.96875 40.921875 40.578125 39.3125 
" id="BitstreamVeraSans-Roman-33"/>
      </defs>
      <g transform="translate(48.91625 276.91125)scale(0.12 -0.12)">
       <use xlink:href="#BitstreamVeraSans-Roman-30"/>
       <use x="63.623046875" xlink:href="#BitstreamVeraSans-Roman-2e"/>
       <use x="95.41015625" xlink:href="#BitstreamVeraSans-Roman-33"/>
      </g>
     </g>
    </g>
    <g id="ytick_5">
     <g id="line2d_67">
      <g>
       <use style="stroke:#000000;stroke-width:0.5;" x="72.0" xlink:href="#mef52d828c5" y="235.2"/>
      </g>
     </g>
     <g id="line2d_68">
      <g>
       <use style="stroke:#000000;stroke-width:0.5;" x="518.4" xlink:href="#m7baf09c51e" y="235.2"/>
      </g>
     </g>
     <g id="text_11">
      <!-- 0.4 -->
      <defs>
       <path d="M 37.796875 64.3125 
L 12.890625 25.390625 
L 37.796875 25.390625 
z
M 35.203125 72.90625 
L 47.609375 72.90625 
L 47.609375 25.390625 
L 58.015625 25.390625 
L 58.015625 17.1875 
L 47.609375 17.1875 
L 47.609375 0 
L 37.796875 0 
L 37.796875 17.1875 
L 4.890625 17.1875 
L 4.890625 26.703125 
z
" id="BitstreamVeraSans-Roman-34"/>
      </defs>
      <g transform="translate(48.91625 238.51125)scale(0.12 -0.12)">
       <use xlink:href="#BitstreamVeraSans-Roman-30"/>
       <use x="63.623046875" xlink:href="#BitstreamVeraSans-Roman-2e"/>
       <use x="95.41015625" xlink:href="#BitstreamVeraSans-Roman-34"/>
      </g>
     </g>
    </g>
    <g id="ytick_6">
     <g id="line2d_69">
      <g>
       <use style="stroke:#000000;stroke-width:0.5;" x="72.0" xlink:href="#mef52d828c5" y="196.8"/>
      </g>
     </g>
     <g id="line2d_70">
      <g>
       <use style="stroke:#000000;stroke-width:0.5;" x="518.4" xlink:href="#m7baf09c51e" y="196.8"/>
      </g>
     </g>
     <g id="text_12">
      <!-- 0.5 -->
      <g transform="translate(48.91625 200.11125)scale(0.12 -0.12)">
       <use xlink:href="#BitstreamVeraSans-Roman-30"/>
       <use x="63.623046875" xlink:href="#BitstreamVeraSans-Roman-2e"/>
       <use x="95.41015625" xlink:href="#BitstreamVeraSans-Roman-35"/>
      </g>
     </g>
    </g>
    <g id="ytick_7">
     <g id="line2d_71">
      <g>
       <use style="stroke:#000000;stroke-width:0.5;" x="72.0" xlink:href="#mef52d828c5" y="158.4"/>
      </g>
     </g>
     <g id="line2d_72">
      <g>
       <use style="stroke:#000000;stroke-width:0.5;" x="518.4" xlink:href="#m7baf09c51e" y="158.4"/>
      </g>
     </g>
     <g id="text_13">
      <!-- 0.6 -->
      <defs>
       <path d="M 33.015625 40.375 
Q 26.375 40.375 22.484375 35.828125 
Q 18.609375 31.296875 18.609375 23.390625 
Q 18.609375 15.53125 22.484375 10.953125 
Q 26.375 6.390625 33.015625 6.390625 
Q 39.65625 6.390625 43.53125 10.953125 
Q 47.40625 15.53125 47.40625 23.390625 
Q 47.40625 31.296875 43.53125 35.828125 
Q 39.65625 40.375 33.015625 40.375 
M 52.59375 71.296875 
L 52.59375 62.3125 
Q 48.875 64.0625 45.09375 64.984375 
Q 41.3125 65.921875 37.59375 65.921875 
Q 27.828125 65.921875 22.671875 59.328125 
Q 17.53125 52.734375 16.796875 39.40625 
Q 19.671875 43.65625 24.015625 45.921875 
Q 28.375 48.1875 33.59375 48.1875 
Q 44.578125 48.1875 50.953125 41.515625 
Q 57.328125 34.859375 57.328125 23.390625 
Q 57.328125 12.15625 50.6875 5.359375 
Q 44.046875 -1.421875 33.015625 -1.421875 
Q 20.359375 -1.421875 13.671875 8.265625 
Q 6.984375 17.96875 6.984375 36.375 
Q 6.984375 53.65625 15.1875 63.9375 
Q 23.390625 74.21875 37.203125 74.21875 
Q 40.921875 74.21875 44.703125 73.484375 
Q 48.484375 72.75 52.59375 71.296875 
" id="BitstreamVeraSans-Roman-36"/>
      </defs>
      <g transform="translate(48.91625 161.71125)scale(0.12 -0.12)">
       <use xlink:href="#BitstreamVeraSans-Roman-30"/>
       <use x="63.623046875" xlink:href="#BitstreamVeraSans-Roman-2e"/>
       <use x="95.41015625" xlink:href="#BitstreamVeraSans-Roman-36"/>
      </g>
     </g>
    </g>
    <g id="ytick_8">
     <g id="line2d_73">
      <g>
       <use style="stroke:#000000;stroke-width:0.5;" x="72.0" xlink:href="#mef52d828c5" y="120.0"/>
      </g>
     </g>
     <g id="line2d_74">
      <g>
       <use style="stroke:#000000;stroke-width:0.5;" x="518.4" xlink:href="#m7baf09c51e" y="120.0"/>
      </g>
     </g>
     <g id="text_14">
      <!-- 0.7 -->
      <defs>
       <path d="M 8.203125 72.90625 
L 55.078125 72.90625 
L 55.078125 68.703125 
L 28.609375 0 
L 18.3125 0 
L 43.21875 64.59375 
L 8.203125 64.59375 
z
" id="BitstreamVeraSans-Roman-37"/>
      </defs>
      <g transform="translate(48.91625 123.31125)scale(0.12 -0.12)">
       <use xlink:href="#BitstreamVeraSans-Roman-30"/>
       <use x="63.623046875" xlink:href="#BitstreamVeraSans-Roman-2e"/>
       <use x="95.41015625" xlink:href="#BitstreamVeraSans-Roman-37"/>
      </g>
     </g>
    </g>
    <g id="ytick_9">
     <g id="line2d_75">
      <g>
       <use style="stroke:#000000;stroke-width:0.5;" x="72.0" xlink:href="#mef52d828c5" y="81.6"/>
      </g>
     </g>
     <g id="line2d_76">
      <g>
       <use style="stroke:#000000;stroke-width:0.5;" x="518.4" xlink:href="#m7baf09c51e" y="81.6"/>
      </g>
     </g>
     <g id="text_15">
      <!-- 0.8 -->
      <defs>
       <path d="M 31.78125 34.625 
Q 24.75 34.625 20.71875 30.859375 
Q 16.703125 27.09375 16.703125 20.515625 
Q 16.703125 13.921875 20.71875 10.15625 
Q 24.75 6.390625 31.78125 6.390625 
Q 38.8125 6.390625 42.859375 10.171875 
Q 46.921875 13.96875 46.921875 20.515625 
Q 46.921875 27.09375 42.890625 30.859375 
Q 38.875 34.625 31.78125 34.625 
M 21.921875 38.8125 
Q 15.578125 40.375 12.03125 44.71875 
Q 8.5 49.078125 8.5 55.328125 
Q 8.5 64.0625 14.71875 69.140625 
Q 20.953125 74.21875 31.78125 74.21875 
Q 42.671875 74.21875 48.875 69.140625 
Q 55.078125 64.0625 55.078125 55.328125 
Q 55.078125 49.078125 51.53125 44.71875 
Q 48 40.375 41.703125 38.8125 
Q 48.828125 37.15625 52.796875 32.3125 
Q 56.78125 27.484375 56.78125 20.515625 
Q 56.78125 9.90625 50.3125 4.234375 
Q 43.84375 -1.421875 31.78125 -1.421875 
Q 19.734375 -1.421875 13.25 4.234375 
Q 6.78125 9.90625 6.78125 20.515625 
Q 6.78125 27.484375 10.78125 32.3125 
Q 14.796875 37.15625 21.921875 38.8125 
M 18.3125 54.390625 
Q 18.3125 48.734375 21.84375 45.5625 
Q 25.390625 42.390625 31.78125 42.390625 
Q 38.140625 42.390625 41.71875 45.5625 
Q 45.3125 48.734375 45.3125 54.390625 
Q 45.3125 60.0625 41.71875 63.234375 
Q 38.140625 66.40625 31.78125 66.40625 
Q 25.390625 66.40625 21.84375 63.234375 
Q 18.3125 60.0625 18.3125 54.390625 
" id="BitstreamVeraSans-Roman-38"/>
      </defs>
      <g transform="translate(48.91625 84.91125)scale(0.12 -0.12)">
       <use xlink:href="#BitstreamVeraSans-Roman-30"/>
       <use x="63.623046875" xlink:href="#BitstreamVeraSans-Roman-2e"/>
       <use x="95.41015625" xlink:href="#BitstreamVeraSans-Roman-38"/>
      </g>
     </g>
    </g>
    <g id="ytick_10">
     <g id="line2d_77">
      <g>
       <use style="stroke:#000000;stroke-width:0.5;" x="72.0" xlink:href="#mef52d828c5" y="43.2"/>
      </g>
     </g>
     <g id="line2d_78">
      <g>
       <use style="stroke:#000000;stroke-width:0.5;" x="518.4" xlink:href="#m7baf09c51e" y="43.2"/>
      </g>
     </g>
     <g id="text_16">
      <!-- 0.9 -->
      <defs>
       <path d="M 10.984375 1.515625 
L 10.984375 10.5 
Q 14.703125 8.734375 18.5 7.8125 
Q 22.3125 6.890625 25.984375 6.890625 
Q 35.75 6.890625 40.890625 13.453125 
Q 46.046875 20.015625 46.78125 33.40625 
Q 43.953125 29.203125 39.59375 26.953125 
Q 35.25 24.703125 29.984375 24.703125 
Q 19.046875 24.703125 12.671875 31.3125 
Q 6.296875 37.9375 6.296875 49.421875 
Q 6.296875 60.640625 12.9375 67.421875 
Q 19.578125 74.21875 30.609375 74.21875 
Q 43.265625 74.21875 49.921875 64.515625 
Q 56.59375 54.828125 56.59375 36.375 
Q 56.59375 19.140625 48.40625 8.859375 
Q 40.234375 -1.421875 26.421875 -1.421875 
Q 22.703125 -1.421875 18.890625 -0.6875 
Q 15.09375 0.046875 10.984375 1.515625 
M 30.609375 32.421875 
Q 37.25 32.421875 41.125 36.953125 
Q 45.015625 41.5 45.015625 49.421875 
Q 45.015625 57.28125 41.125 61.84375 
Q 37.25 66.40625 30.609375 66.40625 
Q 23.96875 66.40625 20.09375 61.84375 
Q 16.21875 57.28125 16.21875 49.421875 
Q 16.21875 41.5 20.09375 36.953125 
Q 23.96875 32.421875 30.609375 32.421875 
" id="BitstreamVeraSans-Roman-39"/>
      </defs>
      <g transform="translate(48.91625 46.51125)scale(0.12 -0.12)">
       <use xlink:href="#BitstreamVeraSans-Roman-30"/>
       <use x="63.623046875" xlink:href="#BitstreamVeraSans-Roman-2e"/>
       <use x="95.41015625" xlink:href="#BitstreamVeraSans-Roman-39"/>
      </g>
     </g>
    </g>
    <g id="text_17">
     <!-- Mean coverage -->
     <defs>
      <path d="M 9.8125 72.90625 
L 24.515625 72.90625 
L 43.109375 23.296875 
L 61.8125 72.90625 
L 76.515625 72.90625 
L 76.515625 0 
L 66.890625 0 
L 66.890625 64.015625 
L 48.09375 14.015625 
L 38.1875 14.015625 
L 19.390625 64.015625 
L 19.390625 0 
L 9.8125 0 
z
" id="BitstreamVeraSans-Roman-4d"/>
      <path d="M 2.984375 54.6875 
L 12.5 54.6875 
L 29.59375 8.796875 
L 46.6875 54.6875 
L 56.203125 54.6875 
L 35.6875 0 
L 23.484375 0 
z
" id="BitstreamVeraSans-Roman-76"/>
      <path d="M 45.40625 27.984375 
Q 45.40625 37.75 41.375 43.109375 
Q 37.359375 48.484375 30.078125 48.484375 
Q 22.859375 48.484375 18.828125 43.109375 
Q 14.796875 37.75 14.796875 27.984375 
Q 14.796875 18.265625 18.828125 12.890625 
Q 22.859375 7.515625 30.078125 7.515625 
Q 37.359375 7.515625 41.375 12.890625 
Q 45.40625 18.265625 45.40625 27.984375 
M 54.390625 6.78125 
Q 54.390625 -7.171875 48.1875 -13.984375 
Q 42 -20.796875 29.203125 -20.796875 
Q 24.46875 -20.796875 20.265625 -20.09375 
Q 16.0625 -19.390625 12.109375 -17.921875 
L 12.109375 -9.1875 
Q 16.0625 -11.328125 19.921875 -12.34375 
Q 23.78125 -13.375 27.78125 -13.375 
Q 36.625 -13.375 41.015625 -8.765625 
Q 45.40625 -4.15625 45.40625 5.171875 
L 45.40625 9.625 
Q 42.625 4.78125 38.28125 2.390625 
Q 33.9375 0 27.875 0 
Q 17.828125 0 11.671875 7.65625 
Q 5.515625 15.328125 5.515625 27.984375 
Q 5.515625 40.671875 11.671875 48.328125 
Q 17.828125 56 27.875 56 
Q 33.9375 56 38.28125 53.609375 
Q 42.625 51.21875 45.40625 46.390625 
L 45.40625 54.6875 
L 54.390625 54.6875 
z
" id="BitstreamVeraSans-Roman-67"/>
     </defs>
     <g transform="translate(41.420625 262.1128125)rotate(-90.0)scale(0.12 -0.12)">
      <use xlink:href="#BitstreamVeraSans-Roman-4d"/>
      <use x="86.279296875" xlink:href="#BitstreamVeraSans-Roman-65"/>
      <use x="147.802734375" xlink:href="#BitstreamVeraSans-Roman-61"/>
      <use x="209.08203125" xlink:href="#BitstreamVeraSans-Roman-6e"/>
      <use x="272.4609375" xlink:href="#BitstreamVeraSans-Roman-20"/>
      <use x="304.248046875" xlink:href="#BitstreamVeraSans-Roman-63"/>
      <use x="359.228515625" xlink:href="#BitstreamVeraSans-Roman-6f"/>
      <use x="420.41015625" xlink:href="#BitstreamVeraSans-Roman-76"/>
      <use x="479.58984375" xlink:href="#BitstreamVeraSans-Roman-65"/>
      <use x="541.11328125" xlink:href="#BitstreamVeraSans-Roman-72"/>
      <use x="582.2265625" xlink:href="#BitstreamVeraSans-Roman-61"/>
      <use x="643.505859375" xlink:href="#BitstreamVeraSans-Roman-67"/>
      <use x="706.982421875" xlink:href="#BitstreamVeraSans-Roman-65"/>
     </g>
    </g>
   </g>
   <g id="text_18">
    <!-- Mean coverage of different amount of corrections -->
    <g transform="translate(115.707375 22.07515)scale(0.144 -0.144)">
     <use xlink:href="#BitstreamVeraSans-Roman-4d"/>
     <use x="86.279296875" xlink:href="#BitstreamVeraSans-Roman-65"/>
     <use x="147.802734375" xlink:href="#BitstreamVeraSans-Roman-61"/>
     <use x="209.08203125" xlink:href="#BitstreamVeraSans-Roman-6e"/>
     <use x="272.4609375" xlink:href="#BitstreamVeraSans-Roman-20"/>
     <use x="304.248046875" xlink:href="#BitstreamVeraSans-Roman-63"/>
     <use x="359.228515625" xlink:href="#BitstreamVeraSans-Roman-6f"/>
     <use x="420.41015625" xlink:href="#BitstreamVeraSans-Roman-76"/>
     <use x="479.58984375" xlink:href="#BitstreamVeraSans-Roman-65"/>
     <use x="541.11328125" xlink:href="#BitstreamVeraSans-Roman-72"/>
     <use x="582.2265625" xlink:href="#BitstreamVeraSans-Roman-61"/>
     <use x="643.505859375" xlink:href="#BitstreamVeraSans-Roman-67"/>
     <use x="706.982421875" xlink:href="#BitstreamVeraSans-Roman-65"/>
     <use x="768.505859375" xlink:href="#BitstreamVeraSans-Roman-20"/>
     <use x="800.29296875" xlink:href="#BitstreamVeraSans-Roman-6f"/>
     <use x="861.474609375" xlink:href="#BitstreamVeraSans-Roman-66"/>
     <use x="896.6796875" xlink:href="#BitstreamVeraSans-Roman-20"/>
     <use x="928.466796875" xlink:href="#BitstreamVeraSans-Roman-64"/>
     <use x="991.943359375" xlink:href="#BitstreamVeraSans-Roman-69"/>
     <use x="1019.7265625" xlink:href="#BitstreamVeraSans-Roman-66"/>
     <use x="1054.931640625" xlink:href="#BitstreamVeraSans-Roman-66"/>
     <use x="1090.13671875" xlink:href="#BitstreamVeraSans-Roman-65"/>
     <use x="1151.66015625" xlink:href="#BitstreamVeraSans-Roman-72"/>
     <use x="1192.7421875" xlink:href="#BitstreamVeraSans-Roman-65"/>
     <use x="1254.265625" xlink:href="#BitstreamVeraSans-Roman-6e"/>
     <use x="1317.64453125" xlink:href="#BitstreamVeraSans-Roman-74"/>
     <use x="1356.853515625" xlink:href="#BitstreamVeraSans-Roman-20"/>
     <use x="1388.640625" xlink:href="#BitstreamVeraSans-Roman-61"/>
     <use x="1449.919921875" xlink:href="#BitstreamVeraSans-Roman-6d"/>
     <use x="1547.33203125" xlink:href="#BitstreamVeraSans-Roman-6f"/>
     <use x="1608.513671875" xlink:href="#BitstreamVeraSans-Roman-75"/>
     <use x="1671.892578125" xlink:href="#BitstreamVeraSans-Roman-6e"/>
     <use x="1735.271484375" xlink:href="#BitstreamVeraSans-Roman-74"/>
     <use x="1774.48046875" xlink:href="#BitstreamVeraSans-Roman-20"/>
     <use x="1806.267578125" xlink:href="#BitstreamVeraSans-Roman-6f"/>
     <use x="1867.44921875" xlink:href="#BitstreamVeraSans-Roman-66"/>
     <use x="1902.654296875" xlink:href="#BitstreamVeraSans-Roman-20"/>
     <use x="1934.44140625" xlink:href="#BitstreamVeraSans-Roman-63"/>
     <use x="1989.421875" xlink:href="#BitstreamVeraSans-Roman-6f"/>
     <use x="2050.603515625" xlink:href="#BitstreamVeraSans-Roman-72"/>
     <use x="2091.701171875" xlink:href="#BitstreamVeraSans-Roman-72"/>
     <use x="2132.783203125" xlink:href="#BitstreamVeraSans-Roman-65"/>
     <use x="2194.306640625" xlink:href="#BitstreamVeraSans-Roman-63"/>
     <use x="2249.287109375" xlink:href="#BitstreamVeraSans-Roman-74"/>
     <use x="2288.49609375" xlink:href="#BitstreamVeraSans-Roman-69"/>
     <use x="2316.279296875" xlink:href="#BitstreamVeraSans-Roman-6f"/>
     <use x="2377.4609375" xlink:href="#BitstreamVeraSans-Roman-6e"/>
     <use x="2440.83984375" xlink:href="#BitstreamVeraSans-Roman-73"/>
    </g>
    <!-- using index comparison -->
    <defs>
     <path d="M 54.890625 54.6875 
L 35.109375 28.078125 
L 55.90625 0 
L 45.3125 0 
L 29.390625 21.484375 
L 13.484375 0 
L 2.875 0 
L 24.125 28.609375 
L 4.6875 54.6875 
L 15.28125 54.6875 
L 29.78125 35.203125 
L 44.28125 54.6875 
z
" id="BitstreamVeraSans-Roman-78"/>
    </defs>
    <g transform="translate(209.31075 38.2)scale(0.144 -0.144)">
     <use xlink:href="#BitstreamVeraSans-Roman-75"/>
     <use x="63.37890625" xlink:href="#BitstreamVeraSans-Roman-73"/>
     <use x="115.478515625" xlink:href="#BitstreamVeraSans-Roman-69"/>
     <use x="143.26171875" xlink:href="#BitstreamVeraSans-Roman-6e"/>
     <use x="206.640625" xlink:href="#BitstreamVeraSans-Roman-67"/>
     <use x="270.1171875" xlink:href="#BitstreamVeraSans-Roman-20"/>
     <use x="301.904296875" xlink:href="#BitstreamVeraSans-Roman-69"/>
     <use x="329.6875" xlink:href="#BitstreamVeraSans-Roman-6e"/>
     <use x="393.06640625" xlink:href="#BitstreamVeraSans-Roman-64"/>
     <use x="456.54296875" xlink:href="#BitstreamVeraSans-Roman-65"/>
     <use x="518.05078125" xlink:href="#BitstreamVeraSans-Roman-78"/>
     <use x="577.23046875" xlink:href="#BitstreamVeraSans-Roman-20"/>
     <use x="609.017578125" xlink:href="#BitstreamVeraSans-Roman-63"/>
     <use x="663.998046875" xlink:href="#BitstreamVeraSans-Roman-6f"/>
     <use x="725.1796875" xlink:href="#BitstreamVeraSans-Roman-6d"/>
     <use x="822.591796875" xlink:href="#BitstreamVeraSans-Roman-70"/>
     <use x="886.068359375" xlink:href="#BitstreamVeraSans-Roman-61"/>
     <use x="947.34765625" xlink:href="#BitstreamVeraSans-Roman-72"/>
     <use x="988.4609375" xlink:href="#BitstreamVeraSans-Roman-69"/>
     <use x="1016.244140625" xlink:href="#BitstreamVeraSans-Roman-73"/>
     <use x="1068.34375" xlink:href="#BitstreamVeraSans-Roman-6f"/>
     <use x="1129.525390625" xlink:href="#BitstreamVeraSans-Roman-6e"/>
    </g>
   </g>
  </g>
 </g>
 <defs>
  <clipPath id="p478538c5a1">
   <rect height="345.6" width="446.4" x="72.0" y="43.2"/>
  </clipPath>
 </defs>
</svg>
