<?xml version="1.0" encoding="utf-8" standalone="no"?>
<!DOCTYPE svg PUBLIC "-//W3C//DTD SVG 1.1//EN"
  "http://www.w3.org/Graphics/SVG/1.1/DTD/svg11.dtd">
<!-- Created with matplotlib (http://matplotlib.org/) -->
<svg height="432pt" version="1.1" viewBox="0 0 576 432" width="576pt" xmlns="http://www.w3.org/2000/svg" xmlns:xlink="http://www.w3.org/1999/xlink">
 <defs>
  <style type="text/css">
*{stroke-linecap:butt;stroke-linejoin:round;stroke-miterlimit:100000;}
  </style>
 </defs>
 <g id="figure_1">
  <g id="patch_1">
   <path d="M 0 432 
L 576 432 
L 576 0 
L 0 0 
z
" style="fill:#ffffff;"/>
  </g>
  <g id="axes_1">
   <g id="patch_2">
    <path d="M 72 388.8 
L 518.4 388.8 
L 518.4 43.2 
L 72 43.2 
z
" style="fill:#ffffff;"/>
   </g>
   <g id="line2d_1">
    <path clip-path="url(#p31b2f7ee94)" d="M 72 350.384236 
L 80.928 350.16238 
L 89.856 348.695098 
L 98.784 342.633357 
L 107.712 325.124003 
L 116.64 287.71839 
L 125.568 227.038441 
L 134.496 152.278375 
L 143.424 85.441377 
L 152.352 50.795574 
L 161.28 60.53498 
L 170.208 108.177146 
L 179.136 174.237737 
L 188.064 238.200118 
L 196.992 287.495376 
L 205.92 319.223259 
L 214.848 336.692104 
L 223.776 345.037413 
L 232.704 348.528935 
L 241.632 349.816599 
L 250.56 350.237187 
L 259.488 350.359283 
L 268.416 350.390867 
L 277.344 350.398162 
L 286.272 350.399668 
L 295.2 350.399946 
L 304.128 350.399992 
L 313.056 350.399999 
L 321.984 350.4 
L 330.912 350.4 
L 339.84 350.4 
L 348.768 350.4 
L 357.696 350.4 
L 366.624 350.4 
L 375.552 350.4 
L 384.48 350.4 
L 393.408 350.4 
L 402.336 350.4 
L 411.264 350.4 
L 420.192 350.4 
L 429.12 350.4 
L 438.048 350.4 
L 446.976 350.4 
L 455.904 350.4 
L 464.832 350.4 
L 473.76 350.4 
L 482.688 350.4 
L 491.616 350.4 
L 500.544 350.4 
" style="fill:none;stroke:#8000ff;stroke-linecap:square;"/>
   </g>
   <g id="line2d_2">
    <path clip-path="url(#p31b2f7ee94)" d="M 72 350.399999 
L 80.928 350.399977 
L 89.856 350.399604 
L 98.784 350.395745 
L 107.712 350.367626 
L 116.64 350.213866 
L 125.568 349.557667 
L 134.496 347.314366 
L 143.424 341.061713 
L 152.352 326.68797 
L 161.28 299.267696 
L 170.208 255.854821 
L 179.136 199.31931 
L 188.064 140.404037 
L 196.992 95.14233 
L 205.92 77.838583 
L 214.848 93.771256 
L 223.776 136.665236 
L 232.704 192.522051 
L 241.632 246.74401 
L 250.56 289.800549 
L 259.488 318.809233 
L 268.416 335.699301 
L 277.344 344.288704 
L 286.272 348.129378 
L 295.2 349.645877 
L 304.128 350.176146 
L 313.056 350.340636 
L 321.984 350.385946 
L 330.912 350.397033 
L 339.84 350.399442 
L 348.768 350.399907 
L 357.696 350.399986 
L 366.624 350.399998 
L 375.552 350.4 
L 384.48 350.4 
L 393.408 350.4 
L 402.336 350.4 
L 411.264 350.4 
L 420.192 350.4 
L 429.12 350.4 
L 438.048 350.4 
L 446.976 350.4 
L 455.904 350.4 
L 464.832 350.4 
L 473.76 350.4 
L 482.688 350.4 
L 491.616 350.4 
L 500.544 350.4 
" style="fill:none;stroke:#6629fe;stroke-linecap:square;"/>
   </g>
   <g id="line2d_3">
    <path clip-path="url(#p31b2f7ee94)" d="M 72 350.4 
L 80.928 350.4 
L 89.856 350.399999 
L 98.784 350.399987 
L 107.712 350.399856 
L 116.64 350.39875 
L 125.568 350.391451 
L 134.496 350.352611 
L 143.424 350.182707 
L 152.352 349.562815 
L 161.28 347.656557 
L 170.208 342.678608 
L 179.136 331.587464 
L 188.064 310.464009 
L 196.992 276.136471 
L 205.92 228.888263 
L 214.848 174.806859 
L 223.776 125.604369 
L 232.704 94.793521 
L 241.632 91.715463 
L 250.56 116.991928 
L 259.488 162.390865 
L 268.416 215.073635 
L 277.344 263.30158 
L 286.272 300.256551 
L 295.2 324.57638 
L 304.128 338.506376 
L 313.056 345.503662 
L 321.984 348.599799 
L 330.912 349.809588 
L 339.84 350.227529 
L 348.768 350.35521 
L 357.696 350.389683 
L 366.624 350.397898 
L 375.552 350.399623 
L 384.48 350.39994 
L 393.408 350.399992 
L 402.336 350.399999 
L 411.264 350.4 
L 420.192 350.4 
L 429.12 350.4 
L 438.048 350.4 
L 446.976 350.4 
L 455.904 350.4 
L 464.832 350.4 
L 473.76 350.4 
L 482.688 350.4 
L 491.616 350.4 
L 500.544 350.4 
" style="fill:none;stroke:#4c50fc;stroke-linecap:square;"/>
   </g>
   <g id="line2d_4">
    <path clip-path="url(#p31b2f7ee94)" d="M 72 350.4 
L 80.928 350.4 
L 89.856 350.4 
L 98.784 350.4 
L 107.712 350.399998 
L 116.64 350.399976 
L 125.568 350.399791 
L 134.496 350.398504 
L 143.424 350.391122 
L 152.352 350.355658 
L 161.28 350.211279 
L 170.208 349.70892 
L 179.136 348.205399 
L 188.064 344.317295 
L 196.992 335.606726 
L 205.92 318.691239 
L 214.848 290.277109 
L 223.776 249.24846 
L 232.704 199.019181 
L 241.632 148.458522 
L 250.56 109.8823 
L 259.488 94.315508 
L 268.416 106.432088 
L 277.344 142.308672 
L 286.272 191.445633 
L 295.2 241.661326 
L 304.128 283.802747 
L 313.056 313.905503 
L 321.984 332.522702 
L 330.912 342.581124 
L 339.84 347.351619 
L 348.768 349.342629 
L 357.696 350.074472 
L 366.624 350.311302 
L 375.552 350.378683 
L 384.48 350.395499 
L 393.408 350.399169 
L 402.336 350.399867 
L 411.264 350.399982 
L 420.192 350.399998 
L 429.12 350.4 
L 438.048 350.4 
L 446.976 350.4 
L 455.904 350.4 
L 464.832 350.4 
L 473.76 350.4 
L 482.688 350.4 
L 491.616 350.4 
L 500.544 350.4 
" style="fill:none;stroke:#3079f7;stroke-linecap:square;"/>
   </g>
   <g id="line2d_5">
    <path clip-path="url(#p31b2f7ee94)" d="M 72 350.4 
L 80.928 350.4 
L 89.856 350.4 
L 98.784 350.4 
L 107.712 350.4 
L 116.64 350.399999 
L 125.568 350.39999 
L 134.496 350.399916 
L 143.424 350.399409 
L 152.352 350.39648 
L 161.28 350.382079 
L 170.208 350.321276 
L 179.136 350.09931 
L 188.064 349.395021 
L 196.992 347.445366 
L 205.92 342.725541 
L 214.848 332.725163 
L 223.776 314.198963 
L 232.704 284.299378 
L 241.632 242.588187 
L 250.56 193.081491 
L 259.488 144.783067 
L 268.416 109.483764 
L 277.344 97.223596 
L 286.272 111.718886 
L 295.2 148.559625 
L 304.128 197.354041 
L 313.056 246.417968 
L 321.984 287.16135 
L 330.912 316.01888 
L 339.84 333.718067 
L 348.768 343.191009 
L 357.696 347.632189 
L 366.624 349.458631 
L 375.552 350.117358 
L 384.48 350.325393 
L 393.408 350.38277 
L 402.336 350.396539 
L 411.264 350.399399 
L 420.192 350.399911 
L 429.12 350.399989 
L 438.048 350.399999 
L 446.976 350.4 
L 455.904 350.4 
L 464.832 350.4 
L 473.76 350.4 
L 482.688 350.4 
L 491.616 350.4 
L 500.544 350.4 
" style="fill:none;stroke:#169bf2;stroke-linecap:square;"/>
   </g>
   <g id="line2d_6">
    <path clip-path="url(#p31b2f7ee94)" d="M 72 350.4 
L 80.928 350.4 
L 89.856 350.4 
L 98.784 350.4 
L 107.712 350.4 
L 116.64 350.4 
L 125.568 350.399999 
L 134.496 350.399993 
L 143.424 350.399947 
L 152.352 350.399637 
L 161.28 350.397875 
L 170.208 350.389238 
L 179.136 350.352498 
L 188.064 350.216121 
L 196.992 349.772531 
L 205.92 348.504401 
L 214.848 345.312239 
L 223.776 338.232746 
L 232.704 324.412122 
L 241.632 300.731142 
L 250.56 265.330351 
L 259.488 219.68639 
L 268.416 170.076963 
L 277.344 126.963544 
L 286.272 101.695392 
L 295.2 101.763096 
L 304.128 127.250337 
L 313.056 170.74319 
L 321.984 220.788564 
L 330.912 266.725779 
L 339.84 302.145602 
L 348.768 325.593499 
L 357.696 339.060748 
L 366.624 345.804876 
L 375.552 348.754973 
L 384.48 349.881911 
L 393.408 350.257158 
L 402.336 350.365725 
L 411.264 350.392892 
L 420.192 350.398737 
L 429.12 350.39981 
L 438.048 350.399976 
L 446.976 350.399998 
L 455.904 350.4 
L 464.832 350.4 
L 473.76 350.4 
L 482.688 350.4 
L 491.616 350.4 
L 500.544 350.4 
" style="fill:none;stroke:#07bbea;stroke-linecap:square;"/>
   </g>
   <g id="line2d_7">
    <path clip-path="url(#p31b2f7ee94)" d="M 72 350.4 
L 80.928 350.4 
L 89.856 350.4 
L 98.784 350.4 
L 107.712 350.4 
L 116.64 350.4 
L 125.568 350.4 
L 134.496 350.399999 
L 143.424 350.399994 
L 152.352 350.399956 
L 161.28 350.399707 
L 170.208 350.398322 
L 179.136 350.391621 
L 188.064 350.363267 
L 196.992 350.25786 
L 205.92 349.912445 
L 214.848 348.912351 
L 223.776 346.350497 
L 232.704 340.542947 
L 241.632 328.904242 
L 250.56 308.341463 
L 259.488 276.486596 
L 268.416 233.64334 
L 277.344 184.551786 
L 286.272 138.535554 
L 295.2 107.044471 
L 304.128 99.182629 
L 313.056 117.51383 
L 321.984 156.73511 
L 330.912 206.135375 
L 339.84 254.302802 
L 348.768 293.280823 
L 357.696 320.181538 
L 366.624 336.213426 
L 375.552 344.510772 
L 384.48 348.247217 
L 393.408 349.710463 
L 402.336 350.207611 
L 411.264 350.353568 
L 420.192 350.390389 
L 429.12 350.398312 
L 438.048 350.399752 
L 446.976 350.39997 
L 455.904 350.399997 
L 464.832 350.4 
L 473.76 350.4 
L 482.688 350.4 
L 491.616 350.4 
L 500.544 350.4 
" style="fill:none;stroke:#20d5e1;stroke-linecap:square;"/>
   </g>
   <g id="line2d_8">
    <path clip-path="url(#p31b2f7ee94)" d="M 72 350.4 
L 80.928 350.4 
L 89.856 350.4 
L 98.784 350.4 
L 107.712 350.4 
L 116.64 350.4 
L 125.568 350.4 
L 134.496 350.4 
L 143.424 350.399999 
L 152.352 350.399994 
L 161.28 350.399957 
L 170.208 350.399723 
L 179.136 350.398453 
L 188.064 350.3924 
L 196.992 350.36703 
L 205.92 350.273129 
L 214.848 349.96545 
L 223.776 349.071359 
L 232.704 346.765177 
L 241.632 341.485835 
L 250.56 330.773933 
L 259.488 311.566048 
L 268.416 281.290747 
L 277.344 239.740762 
L 286.272 190.954115 
L 295.2 143.704403 
L 304.128 109.447246 
L 313.056 98.007001 
L 321.984 113.100151 
L 330.912 150.421121 
L 339.84 199.606943 
L 348.768 248.875198 
L 357.696 289.521962 
L 366.624 317.984839 
L 375.552 335.127786 
L 384.48 344.059642 
L 393.408 348.091953 
L 402.336 349.667595 
L 411.264 350.198819 
L 420.192 350.35257 
L 429.12 350.390502 
L 438.048 350.398406 
L 446.976 350.399779 
L 455.904 350.399975 
L 464.832 350.399998 
L 473.76 350.4 
L 482.688 350.4 
L 491.616 350.4 
L 500.544 350.4 
" style="fill:none;stroke:#3dead5;stroke-linecap:square;"/>
   </g>
   <g id="line2d_9">
    <path clip-path="url(#p31b2f7ee94)" d="M 72 350.4 
L 80.928 350.4 
L 89.856 350.4 
L 98.784 350.4 
L 107.712 350.4 
L 116.64 350.4 
L 125.568 350.4 
L 134.496 350.4 
L 143.424 350.4 
L 152.352 350.399999 
L 161.28 350.399992 
L 170.208 350.399946 
L 179.136 350.399669 
L 188.064 350.398206 
L 196.992 350.391411 
L 205.92 350.363519 
L 214.848 350.262057 
L 223.776 349.934288 
L 232.704 348.992809 
L 241.632 346.587285 
L 250.56 341.123 
L 259.488 330.106575 
L 268.416 310.45982 
L 277.344 279.644044 
L 286.272 237.557715 
L 295.2 188.418877 
L 304.128 141.210361 
L 313.056 107.53238 
L 321.984 97.184337 
L 330.912 113.643504 
L 339.84 152.222645 
L 348.768 202.204336 
L 357.696 251.645933 
L 366.624 291.932111 
L 375.552 319.752689 
L 384.48 336.236431 
L 393.408 344.657259 
L 402.336 348.369107 
L 411.264 349.777951 
L 420.192 350.236381 
L 429.12 350.363426 
L 438.048 350.393143 
L 446.976 350.39894 
L 455.904 350.399868 
L 464.832 350.399987 
L 473.76 350.399999 
L 482.688 350.4 
L 491.616 350.4 
L 500.544 350.4 
" style="fill:none;stroke:#56f7ca;stroke-linecap:square;"/>
   </g>
   <g id="line2d_10">
    <path clip-path="url(#p31b2f7ee94)" d="M 72 350.4 
L 80.928 350.4 
L 89.856 350.4 
L 98.784 350.4 
L 107.712 350.4 
L 116.64 350.4 
L 125.568 350.4 
L 134.496 350.4 
L 143.424 350.4 
L 152.352 350.4 
L 161.28 350.399999 
L 170.208 350.399991 
L 179.136 350.399938 
L 188.064 350.399629 
L 196.992 350.398028 
L 205.92 350.390712 
L 214.848 350.361058 
L 223.776 350.254249 
L 232.704 349.911832 
L 241.632 348.933994 
L 250.56 346.446624 
L 259.488 340.8157 
L 268.416 329.494814 
L 277.344 309.356089 
L 286.272 277.85471 
L 295.2 234.983059 
L 304.128 185.190512 
L 313.056 137.791259 
L 321.984 104.674281 
L 330.912 95.689403 
L 339.84 114.012086 
L 348.768 154.389882 
L 357.696 205.549513 
L 366.624 255.282763 
L 375.552 295.094219 
L 384.48 322.043596 
L 393.408 337.642486 
L 402.336 345.393046 
L 411.264 348.697747 
L 420.192 349.902929 
L 429.12 350.27663 
L 438.048 350.374314 
L 446.976 350.395589 
L 455.904 350.399389 
L 464.832 350.399934 
L 473.76 350.399995 
L 482.688 350.4 
L 491.616 350.4 
L 500.544 350.4 
" style="fill:none;stroke:#72febb;stroke-linecap:square;"/>
   </g>
   <g id="line2d_11">
    <path clip-path="url(#p31b2f7ee94)" d="M 72 350.4 
L 80.928 350.4 
L 89.856 350.4 
L 98.784 350.4 
L 107.712 350.4 
L 116.64 350.4 
L 125.568 350.4 
L 134.496 350.4 
L 143.424 350.4 
L 152.352 350.4 
L 161.28 350.4 
L 170.208 350.399998 
L 179.136 350.399988 
L 188.064 350.399917 
L 196.992 350.399516 
L 205.92 350.397486 
L 214.848 350.388395 
L 223.776 350.352216 
L 232.704 350.224069 
L 241.632 349.819625 
L 250.56 348.681818 
L 259.488 345.829707 
L 268.416 339.468003 
L 277.344 326.873505 
L 286.272 304.838037 
L 295.2 271.005893 
L 304.128 225.966305 
L 313.056 175.115157 
L 321.984 128.699596 
L 330.912 98.966118 
L 339.84 95.137632 
L 348.768 118.893152 
L 357.696 163.29587 
L 366.624 216.039964 
L 375.552 264.969354 
L 384.48 302.500912 
L 393.408 326.833647 
L 402.336 340.28455 
L 411.264 346.638372 
L 420.192 349.198323 
L 429.12 350.07364 
L 438.048 350.325623 
L 446.976 350.386012 
L 455.904 350.397876 
L 464.832 350.399748 
L 473.76 350.399978 
L 482.688 350.399999 
L 491.616 350.4 
L 500.544 350.4 
" style="fill:none;stroke:#8cfead;stroke-linecap:square;"/>
   </g>
   <g id="line2d_12">
    <path clip-path="url(#p31b2f7ee94)" d="M 72 350.4 
L 80.928 350.4 
L 89.856 350.4 
L 98.784 350.4 
L 107.712 350.4 
L 116.64 350.4 
L 125.568 350.4 
L 134.496 350.4 
L 143.424 350.4 
L 152.352 350.4 
L 161.28 350.4 
L 170.208 350.4 
L 179.136 350.399997 
L 188.064 350.399977 
L 196.992 350.399852 
L 205.92 350.399167 
L 214.848 350.395841 
L 223.776 350.381492 
L 232.704 350.326426 
L 241.632 350.138161 
L 250.56 349.564347 
L 259.488 348.005225 
L 268.416 344.231843 
L 277.344 336.112526 
L 286.272 320.62974 
L 295.2 294.601807 
L 304.128 256.358599 
L 313.056 207.971042 
L 321.984 156.739353 
L 330.912 114.302719 
L 339.84 92.744342 
L 348.768 99.201556 
L 357.696 132.141367 
L 366.624 181.881596 
L 375.552 235.173302 
L 384.48 280.91034 
L 393.408 313.616924 
L 402.336 333.408544 
L 411.264 343.5977 
L 420.192 348.059732 
L 429.12 349.71521 
L 438.048 350.231776 
L 446.976 350.365879 
L 455.904 350.39441 
L 464.832 350.399282 
L 473.76 350.399931 
L 482.688 350.399995 
L 491.616 350.4 
L 500.544 350.4 
" style="fill:none;stroke:#a8f79c;stroke-linecap:square;"/>
   </g>
   <g id="line2d_13">
    <path clip-path="url(#p31b2f7ee94)" d="M 72 350.4 
L 80.928 350.4 
L 89.856 350.4 
L 98.784 350.4 
L 107.712 350.4 
L 116.64 350.4 
L 125.568 350.4 
L 134.496 350.4 
L 143.424 350.4 
L 152.352 350.4 
L 161.28 350.4 
L 170.208 350.4 
L 179.136 350.399999 
L 188.064 350.399994 
L 196.992 350.399959 
L 205.92 350.399746 
L 214.848 350.398623 
L 223.776 350.393349 
L 232.704 350.371348 
L 241.632 350.289638 
L 250.56 350.019217 
L 259.488 349.221384 
L 268.416 347.123795 
L 277.344 342.215554 
L 286.272 332.017826 
L 295.2 313.278592 
L 304.128 283.014456 
L 313.056 240.50369 
L 321.984 189.522574 
L 330.912 139.254853 
L 339.84 102.333861 
L 348.768 90.015021 
L 357.696 106.783983 
L 366.624 147.813326 
L 375.552 201.165997 
L 384.48 253.408164 
L 393.408 295.047316 
L 402.336 322.819806 
L 411.264 338.484206 
L 420.192 345.973293 
L 429.12 349.000447 
L 438.048 350.028271 
L 446.976 350.318421 
L 455.904 350.385529 
L 464.832 350.397987 
L 473.76 350.39979 
L 482.688 350.399985 
L 491.616 350.399999 
L 500.544 350.4 
" style="fill:none;stroke:#c2ea8c;stroke-linecap:square;"/>
   </g>
   <g id="line2d_14">
    <path clip-path="url(#p31b2f7ee94)" d="M 72 350.4 
L 80.928 350.4 
L 89.856 350.4 
L 98.784 350.4 
L 107.712 350.4 
L 116.64 350.4 
L 125.568 350.4 
L 134.496 350.4 
L 143.424 350.4 
L 152.352 350.4 
L 161.28 350.4 
L 170.208 350.4 
L 179.136 350.4 
L 188.064 350.399999 
L 196.992 350.399989 
L 205.92 350.399926 
L 214.848 350.399559 
L 223.776 350.397682 
L 232.704 350.389164 
L 241.632 350.354783 
L 250.56 350.231249 
L 259.488 349.835787 
L 268.416 348.707841 
L 277.344 345.843556 
L 286.272 339.378854 
L 295.2 326.448895 
L 304.128 303.64128 
L 313.056 268.433292 
L 321.984 221.483766 
L 330.912 168.688057 
L 339.84 121.196961 
L 348.768 92.170409 
L 357.696 91.135399 
L 366.624 119.072788 
L 375.552 167.584908 
L 384.48 222.93985 
L 393.408 272.371366 
L 402.336 308.695577 
L 411.264 331.072276 
L 420.192 342.697668 
L 429.12 347.78766 
L 438.048 349.655643 
L 446.976 350.22475 
L 455.904 350.366649 
L 464.832 350.395023 
L 473.76 350.399443 
L 482.688 350.399956 
L 491.616 350.399998 
L 500.544 350.4 
" style="fill:none;stroke:#ded579;stroke-linecap:square;"/>
   </g>
   <g id="line2d_15">
    <path clip-path="url(#p31b2f7ee94)" d="M 72 350.4 
L 80.928 350.4 
L 89.856 350.4 
L 98.784 350.4 
L 107.712 350.4 
L 116.64 350.4 
L 125.568 350.4 
L 134.496 350.4 
L 143.424 350.4 
L 152.352 350.4 
L 161.28 350.4 
L 170.208 350.4 
L 179.136 350.4 
L 188.064 350.4 
L 196.992 350.399996 
L 205.92 350.399974 
L 214.848 350.399834 
L 223.776 350.399068 
L 232.704 350.39536 
L 241.632 350.379382 
L 250.56 350.318089 
L 259.488 350.108523 
L 268.416 349.469768 
L 277.344 347.73498 
L 286.272 343.542396 
L 295.2 334.547409 
L 304.128 317.481921 
L 313.056 289.026003 
L 321.984 247.736385 
L 330.912 196.496012 
L 339.84 143.93456 
L 348.768 102.997727 
L 357.696 86.203004 
L 366.624 99.662027 
L 375.552 139.614478 
L 384.48 194.060222 
L 393.408 248.575909 
L 402.336 292.494536 
L 411.264 321.843606 
L 420.192 338.28898 
L 429.12 346.027972 
L 438.048 349.073826 
L 446.976 350.067546 
L 455.904 350.332616 
L 464.832 350.389285 
L 473.76 350.398721 
L 482.688 350.399893 
L 491.616 350.399994 
L 500.544 350.4 
" style="fill:none;stroke:#f9bb66;stroke-linecap:square;"/>
   </g>
   <g id="line2d_16">
    <path clip-path="url(#p31b2f7ee94)" d="M 72 350.4 
L 80.928 350.4 
L 89.856 350.4 
L 98.784 350.4 
L 107.712 350.4 
L 116.64 350.4 
L 125.568 350.4 
L 134.496 350.4 
L 143.424 350.4 
L 152.352 350.4 
L 161.28 350.4 
L 170.208 350.4 
L 179.136 350.4 
L 188.064 350.4 
L 196.992 350.399999 
L 205.92 350.39999 
L 214.848 350.399932 
L 223.776 350.399599 
L 232.704 350.397888 
L 241.632 350.390067 
L 250.56 350.35825 
L 259.488 350.24286 
L 268.416 349.869682 
L 277.344 348.793741 
L 286.272 346.031049 
L 295.2 339.725993 
L 304.128 326.977688 
L 313.056 304.25696 
L 321.984 268.847725 
L 330.912 221.233193 
L 339.84 167.326245 
L 348.768 118.624086 
L 357.696 88.88396 
L 366.624 88.142638 
L 375.552 117.415158 
L 384.48 167.763183 
L 393.408 224.662751 
L 402.336 274.803842 
L 411.264 310.978636 
L 420.192 332.717351 
L 429.12 343.647154 
L 438.048 348.232548 
L 446.976 349.8249 
L 455.904 350.276588 
L 464.832 350.379217 
L 473.76 350.397371 
L 482.688 350.399767 
L 491.616 350.399987 
L 500.544 350.4 
" style="fill:none;stroke:#ff9b52;stroke-linecap:square;"/>
   </g>
   <g id="line2d_17">
    <path clip-path="url(#p31b2f7ee94)" d="M 72 350.4 
L 80.928 350.4 
L 89.856 350.4 
L 98.784 350.4 
L 107.712 350.4 
L 116.64 350.4 
L 125.568 350.4 
L 134.496 350.4 
L 143.424 350.4 
L 152.352 350.4 
L 161.28 350.4 
L 170.208 350.4 
L 179.136 350.4 
L 188.064 350.4 
L 196.992 350.4 
L 205.92 350.399996 
L 214.848 350.399973 
L 223.776 350.399829 
L 232.704 350.399046 
L 241.632 350.395264 
L 250.56 350.378977 
L 259.488 350.31645 
L 268.416 350.102296 
L 277.344 349.448049 
L 286.272 347.666617 
L 295.2 343.350472 
L 304.128 334.070734 
L 313.056 316.441188 
L 321.984 287.041293 
L 330.912 244.457872 
L 339.84 191.865628 
L 348.768 138.473639 
L 357.696 97.888578 
L 366.624 82.958291 
L 375.552 99.439306 
L 384.48 142.571603 
L 393.408 199.223598 
L 402.336 254.351587 
L 411.264 297.462876 
L 420.192 325.299534 
L 429.12 340.26571 
L 438.048 346.960528 
L 446.976 349.43488 
L 455.904 350.180949 
L 464.832 350.360979 
L 473.76 350.394779 
L 482.688 350.39951 
L 491.616 350.399972 
L 500.544 350.399999 
" style="fill:none;stroke:#ff793e;stroke-linecap:square;"/>
   </g>
   <g id="line2d_18">
    <path clip-path="url(#p31b2f7ee94)" d="M 72 350.4 
L 80.928 350.4 
L 89.856 350.4 
L 98.784 350.4 
L 107.712 350.4 
L 116.64 350.4 
L 125.568 350.4 
L 134.496 350.4 
L 143.424 350.4 
L 152.352 350.4 
L 161.28 350.4 
L 170.208 350.4 
L 179.136 350.4 
L 188.064 350.4 
L 196.992 350.4 
L 205.92 350.399999 
L 214.848 350.399989 
L 223.776 350.399928 
L 232.704 350.399573 
L 241.632 350.397761 
L 250.56 350.389503 
L 259.488 350.355952 
L 268.416 350.234333 
L 277.344 349.841015 
L 286.272 348.706818 
L 295.2 345.794473 
L 304.128 339.150909 
L 313.056 325.73584 
L 321.984 301.890071 
L 330.912 264.899987 
L 339.84 215.543669 
L 348.768 160.390918 
L 357.696 111.775035 
L 366.624 84.005386 
L 375.552 86.894051 
L 384.48 120.353855 
L 393.408 173.972872 
L 402.336 232.205604 
L 411.264 281.700455 
L 420.192 316.041774 
L 429.12 335.765642 
L 438.048 345.159316 
L 446.976 348.848009 
L 455.904 350.028142 
L 464.832 350.33005 
L 473.76 350.390112 
L 482.688 350.39902 
L 491.616 350.39994 
L 500.544 350.399998 
" style="fill:none;stroke:#ff5029;stroke-linecap:square;"/>
   </g>
   <g id="line2d_19">
    <path clip-path="url(#p31b2f7ee94)" d="M 72 350.4 
L 80.928 350.4 
L 89.856 350.4 
L 98.784 350.4 
L 107.712 350.4 
L 116.64 350.4 
L 125.568 350.4 
L 134.496 350.4 
L 143.424 350.4 
L 152.352 350.4 
L 161.28 350.4 
L 170.208 350.4 
L 179.136 350.4 
L 188.064 350.4 
L 196.992 350.4 
L 205.92 350.399999 
L 214.848 350.399995 
L 223.776 350.399966 
L 232.704 350.399791 
L 241.632 350.398849 
L 250.56 350.39433 
L 259.488 350.375017 
L 268.416 350.301396 
L 277.344 350.051052 
L 286.272 349.292019 
L 295.2 347.242389 
L 304.128 342.323117 
L 313.056 331.862573 
L 321.984 312.250122 
L 330.912 280.069593 
L 339.84 234.412958 
L 348.768 179.582835 
L 357.696 126.238913 
L 366.624 88.982414 
L 375.552 80.34543 
L 384.48 104.237001 
L 393.408 153.329128 
L 402.336 212.611545 
L 411.264 266.831057 
L 420.192 306.796687 
L 429.12 331.027349 
L 438.048 343.164552 
L 446.976 348.165548 
L 455.904 349.841768 
L 464.832 350.290519 
L 473.76 350.383865 
L 482.688 350.398332 
L 491.616 350.399893 
L 500.544 350.399997 
" style="fill:none;stroke:#ff2914;stroke-linecap:square;"/>
   </g>
   <g id="line2d_20">
    <path clip-path="url(#p31b2f7ee94)" d="M 72 350.4 
L 80.928 350.4 
L 89.856 350.4 
L 98.784 350.4 
L 107.712 350.4 
L 116.64 350.4 
L 125.568 350.4 
L 134.496 350.4 
L 143.424 350.4 
L 152.352 350.4 
L 161.28 350.4 
L 170.208 350.4 
L 179.136 350.4 
L 188.064 350.4 
L 196.992 350.4 
L 205.92 350.4 
L 214.848 350.399998 
L 223.776 350.399987 
L 232.704 350.399913 
L 241.632 350.399489 
L 250.56 350.397332 
L 259.488 350.387543 
L 268.416 350.347945 
L 277.344 350.205083 
L 286.272 349.745536 
L 295.2 348.428771 
L 304.128 345.073654 
L 313.056 337.492418 
L 321.984 322.363733 
L 330.912 295.869245 
L 339.84 255.550298 
L 348.768 203.114923 
L 357.696 146.66036 
L 366.624 99.997285 
L 375.552 77.842692 
L 384.48 88.668881 
L 393.408 129.693342 
L 402.336 187.87912 
L 411.264 246.600461 
L 420.192 293.372756 
L 429.12 323.723439 
L 438.048 339.910425 
L 446.976 346.989644 
L 455.904 349.503027 
L 464.832 350.21479 
L 473.76 350.371258 
L 482.688 350.396871 
L 491.616 350.399789 
L 500.544 350.399993 
" style="fill:none;stroke:#ff0000;stroke-linecap:square;"/>
   </g>
   <g id="patch_3">
    <path d="M 72 388.8 
L 72 43.2 
" style="fill:none;stroke:#000000;stroke-linecap:square;stroke-linejoin:miter;"/>
   </g>
   <g id="patch_4">
    <path d="M 72 388.8 
L 518.4 388.8 
" style="fill:none;stroke:#000000;stroke-linecap:square;stroke-linejoin:miter;"/>
   </g>
   <g id="patch_5">
    <path d="M 518.4 388.8 
L 518.4 43.2 
" style="fill:none;stroke:#000000;stroke-linecap:square;stroke-linejoin:miter;"/>
   </g>
   <g id="patch_6">
    <path d="M 72 43.2 
L 518.4 43.2 
" style="fill:none;stroke:#000000;stroke-linecap:square;stroke-linejoin:miter;"/>
   </g>
   <g id="matplotlib.axis_1">
    <g id="xtick_1">
     <g id="line2d_21">
      <defs>
       <path d="M 0 0 
L 0 -4 
" id="maa3cbc4371" style="stroke:#000000;stroke-width:0.5;"/>
      </defs>
      <g>
       <use style="stroke:#000000;stroke-width:0.5;" x="72.0" xlink:href="#maa3cbc4371" y="388.8"/>
      </g>
     </g>
     <g id="line2d_22">
      <defs>
       <path d="M 0 0 
L 0 4 
" id="m7a21da520d" style="stroke:#000000;stroke-width:0.5;"/>
      </defs>
      <g>
       <use style="stroke:#000000;stroke-width:0.5;" x="72.0" xlink:href="#m7a21da520d" y="43.2"/>
      </g>
     </g>
     <g id="text_1">
      <!-- 0 -->
      <defs>
       <path d="M 31.78125 66.40625 
Q 24.171875 66.40625 20.328125 58.90625 
Q 16.5 51.421875 16.5 36.375 
Q 16.5 21.390625 20.328125 13.890625 
Q 24.171875 6.390625 31.78125 6.390625 
Q 39.453125 6.390625 43.28125 13.890625 
Q 47.125 21.390625 47.125 36.375 
Q 47.125 51.421875 43.28125 58.90625 
Q 39.453125 66.40625 31.78125 66.40625 
M 31.78125 74.21875 
Q 44.046875 74.21875 50.515625 64.515625 
Q 56.984375 54.828125 56.984375 36.375 
Q 56.984375 17.96875 50.515625 8.265625 
Q 44.046875 -1.421875 31.78125 -1.421875 
Q 19.53125 -1.421875 13.0625 8.265625 
Q 6.59375 17.96875 6.59375 36.375 
Q 6.59375 54.828125 13.0625 64.515625 
Q 19.53125 74.21875 31.78125 74.21875 
" id="BitstreamVeraSans-Roman-30"/>
      </defs>
      <g transform="translate(68.1825 401.918125)scale(0.12 -0.12)">
       <use xlink:href="#BitstreamVeraSans-Roman-30"/>
      </g>
     </g>
    </g>
    <g id="xtick_2">
     <g id="line2d_23">
      <g>
       <use style="stroke:#000000;stroke-width:0.5;" x="161.28" xlink:href="#maa3cbc4371" y="388.8"/>
      </g>
     </g>
     <g id="line2d_24">
      <g>
       <use style="stroke:#000000;stroke-width:0.5;" x="161.28" xlink:href="#m7a21da520d" y="43.2"/>
      </g>
     </g>
     <g id="text_2">
      <!-- 10 -->
      <defs>
       <path d="M 12.40625 8.296875 
L 28.515625 8.296875 
L 28.515625 63.921875 
L 10.984375 60.40625 
L 10.984375 69.390625 
L 28.421875 72.90625 
L 38.28125 72.90625 
L 38.28125 8.296875 
L 54.390625 8.296875 
L 54.390625 0 
L 12.40625 0 
z
" id="BitstreamVeraSans-Roman-31"/>
      </defs>
      <g transform="translate(153.645 401.918125)scale(0.12 -0.12)">
       <use xlink:href="#BitstreamVeraSans-Roman-31"/>
       <use x="63.623046875" xlink:href="#BitstreamVeraSans-Roman-30"/>
      </g>
     </g>
    </g>
    <g id="xtick_3">
     <g id="line2d_25">
      <g>
       <use style="stroke:#000000;stroke-width:0.5;" x="250.56" xlink:href="#maa3cbc4371" y="388.8"/>
      </g>
     </g>
     <g id="line2d_26">
      <g>
       <use style="stroke:#000000;stroke-width:0.5;" x="250.56" xlink:href="#m7a21da520d" y="43.2"/>
      </g>
     </g>
     <g id="text_3">
      <!-- 20 -->
      <defs>
       <path d="M 19.1875 8.296875 
L 53.609375 8.296875 
L 53.609375 0 
L 7.328125 0 
L 7.328125 8.296875 
Q 12.9375 14.109375 22.625 23.890625 
Q 32.328125 33.6875 34.8125 36.53125 
Q 39.546875 41.84375 41.421875 45.53125 
Q 43.3125 49.21875 43.3125 52.78125 
Q 43.3125 58.59375 39.234375 62.25 
Q 35.15625 65.921875 28.609375 65.921875 
Q 23.96875 65.921875 18.8125 64.3125 
Q 13.671875 62.703125 7.8125 59.421875 
L 7.8125 69.390625 
Q 13.765625 71.78125 18.9375 73 
Q 24.125 74.21875 28.421875 74.21875 
Q 39.75 74.21875 46.484375 68.546875 
Q 53.21875 62.890625 53.21875 53.421875 
Q 53.21875 48.921875 51.53125 44.890625 
Q 49.859375 40.875 45.40625 35.40625 
Q 44.1875 33.984375 37.640625 27.21875 
Q 31.109375 20.453125 19.1875 8.296875 
" id="BitstreamVeraSans-Roman-32"/>
      </defs>
      <g transform="translate(242.925 401.918125)scale(0.12 -0.12)">
       <use xlink:href="#BitstreamVeraSans-Roman-32"/>
       <use x="63.623046875" xlink:href="#BitstreamVeraSans-Roman-30"/>
      </g>
     </g>
    </g>
    <g id="xtick_4">
     <g id="line2d_27">
      <g>
       <use style="stroke:#000000;stroke-width:0.5;" x="339.84" xlink:href="#maa3cbc4371" y="388.8"/>
      </g>
     </g>
     <g id="line2d_28">
      <g>
       <use style="stroke:#000000;stroke-width:0.5;" x="339.84" xlink:href="#m7a21da520d" y="43.2"/>
      </g>
     </g>
     <g id="text_4">
      <!-- 30 -->
      <defs>
       <path d="M 40.578125 39.3125 
Q 47.65625 37.796875 51.625 33 
Q 55.609375 28.21875 55.609375 21.1875 
Q 55.609375 10.40625 48.1875 4.484375 
Q 40.765625 -1.421875 27.09375 -1.421875 
Q 22.515625 -1.421875 17.65625 -0.515625 
Q 12.796875 0.390625 7.625 2.203125 
L 7.625 11.71875 
Q 11.71875 9.328125 16.59375 8.109375 
Q 21.484375 6.890625 26.8125 6.890625 
Q 36.078125 6.890625 40.9375 10.546875 
Q 45.796875 14.203125 45.796875 21.1875 
Q 45.796875 27.640625 41.28125 31.265625 
Q 36.765625 34.90625 28.71875 34.90625 
L 20.21875 34.90625 
L 20.21875 43.015625 
L 29.109375 43.015625 
Q 36.375 43.015625 40.234375 45.921875 
Q 44.09375 48.828125 44.09375 54.296875 
Q 44.09375 59.90625 40.109375 62.90625 
Q 36.140625 65.921875 28.71875 65.921875 
Q 24.65625 65.921875 20.015625 65.03125 
Q 15.375 64.15625 9.8125 62.3125 
L 9.8125 71.09375 
Q 15.4375 72.65625 20.34375 73.4375 
Q 25.25 74.21875 29.59375 74.21875 
Q 40.828125 74.21875 47.359375 69.109375 
Q 53.90625 64.015625 53.90625 55.328125 
Q 53.90625 49.265625 50.4375 45.09375 
Q 46.96875 40.921875 40.578125 39.3125 
" id="BitstreamVeraSans-Roman-33"/>
      </defs>
      <g transform="translate(332.205 401.918125)scale(0.12 -0.12)">
       <use xlink:href="#BitstreamVeraSans-Roman-33"/>
       <use x="63.623046875" xlink:href="#BitstreamVeraSans-Roman-30"/>
      </g>
     </g>
    </g>
    <g id="xtick_5">
     <g id="line2d_29">
      <g>
       <use style="stroke:#000000;stroke-width:0.5;" x="429.12" xlink:href="#maa3cbc4371" y="388.8"/>
      </g>
     </g>
     <g id="line2d_30">
      <g>
       <use style="stroke:#000000;stroke-width:0.5;" x="429.12" xlink:href="#m7a21da520d" y="43.2"/>
      </g>
     </g>
     <g id="text_5">
      <!-- 40 -->
      <defs>
       <path d="M 37.796875 64.3125 
L 12.890625 25.390625 
L 37.796875 25.390625 
z
M 35.203125 72.90625 
L 47.609375 72.90625 
L 47.609375 25.390625 
L 58.015625 25.390625 
L 58.015625 17.1875 
L 47.609375 17.1875 
L 47.609375 0 
L 37.796875 0 
L 37.796875 17.1875 
L 4.890625 17.1875 
L 4.890625 26.703125 
z
" id="BitstreamVeraSans-Roman-34"/>
      </defs>
      <g transform="translate(421.485 401.918125)scale(0.12 -0.12)">
       <use xlink:href="#BitstreamVeraSans-Roman-34"/>
       <use x="63.623046875" xlink:href="#BitstreamVeraSans-Roman-30"/>
      </g>
     </g>
    </g>
    <g id="xtick_6">
     <g id="line2d_31">
      <g>
       <use style="stroke:#000000;stroke-width:0.5;" x="518.4" xlink:href="#maa3cbc4371" y="388.8"/>
      </g>
     </g>
     <g id="line2d_32">
      <g>
       <use style="stroke:#000000;stroke-width:0.5;" x="518.4" xlink:href="#m7a21da520d" y="43.2"/>
      </g>
     </g>
     <g id="text_6">
      <!-- 50 -->
      <defs>
       <path d="M 10.796875 72.90625 
L 49.515625 72.90625 
L 49.515625 64.59375 
L 19.828125 64.59375 
L 19.828125 46.734375 
Q 21.96875 47.46875 24.109375 47.828125 
Q 26.265625 48.1875 28.421875 48.1875 
Q 40.625 48.1875 47.75 41.5 
Q 54.890625 34.8125 54.890625 23.390625 
Q 54.890625 11.625 47.5625 5.09375 
Q 40.234375 -1.421875 26.90625 -1.421875 
Q 22.3125 -1.421875 17.546875 -0.640625 
Q 12.796875 0.140625 7.71875 1.703125 
L 7.71875 11.625 
Q 12.109375 9.234375 16.796875 8.0625 
Q 21.484375 6.890625 26.703125 6.890625 
Q 35.15625 6.890625 40.078125 11.328125 
Q 45.015625 15.765625 45.015625 23.390625 
Q 45.015625 31 40.078125 35.4375 
Q 35.15625 39.890625 26.703125 39.890625 
Q 22.75 39.890625 18.8125 39.015625 
Q 14.890625 38.140625 10.796875 36.28125 
z
" id="BitstreamVeraSans-Roman-35"/>
      </defs>
      <g transform="translate(510.765 401.918125)scale(0.12 -0.12)">
       <use xlink:href="#BitstreamVeraSans-Roman-35"/>
       <use x="63.623046875" xlink:href="#BitstreamVeraSans-Roman-30"/>
      </g>
     </g>
    </g>
    <g id="text_7">
     <!-- number of covered sentences -->
     <defs>
      <path d="M 54.890625 33.015625 
L 54.890625 0 
L 45.90625 0 
L 45.90625 32.71875 
Q 45.90625 40.484375 42.875 44.328125 
Q 39.84375 48.1875 33.796875 48.1875 
Q 26.515625 48.1875 22.3125 43.546875 
Q 18.109375 38.921875 18.109375 30.90625 
L 18.109375 0 
L 9.078125 0 
L 9.078125 54.6875 
L 18.109375 54.6875 
L 18.109375 46.1875 
Q 21.34375 51.125 25.703125 53.5625 
Q 30.078125 56 35.796875 56 
Q 45.21875 56 50.046875 50.171875 
Q 54.890625 44.34375 54.890625 33.015625 
" id="BitstreamVeraSans-Roman-6e"/>
      <path d="M 52 44.1875 
Q 55.375 50.25 60.0625 53.125 
Q 64.75 56 71.09375 56 
Q 79.640625 56 84.28125 50.015625 
Q 88.921875 44.046875 88.921875 33.015625 
L 88.921875 0 
L 79.890625 0 
L 79.890625 32.71875 
Q 79.890625 40.578125 77.09375 44.375 
Q 74.3125 48.1875 68.609375 48.1875 
Q 61.625 48.1875 57.5625 43.546875 
Q 53.515625 38.921875 53.515625 30.90625 
L 53.515625 0 
L 44.484375 0 
L 44.484375 32.71875 
Q 44.484375 40.625 41.703125 44.40625 
Q 38.921875 48.1875 33.109375 48.1875 
Q 26.21875 48.1875 22.15625 43.53125 
Q 18.109375 38.875 18.109375 30.90625 
L 18.109375 0 
L 9.078125 0 
L 9.078125 54.6875 
L 18.109375 54.6875 
L 18.109375 46.1875 
Q 21.1875 51.21875 25.484375 53.609375 
Q 29.78125 56 35.6875 56 
Q 41.65625 56 45.828125 52.96875 
Q 50 49.953125 52 44.1875 
" id="BitstreamVeraSans-Roman-6d"/>
      <path d="M 2.984375 54.6875 
L 12.5 54.6875 
L 29.59375 8.796875 
L 46.6875 54.6875 
L 56.203125 54.6875 
L 35.6875 0 
L 23.484375 0 
z
" id="BitstreamVeraSans-Roman-76"/>
      <path d="M 41.109375 46.296875 
Q 39.59375 47.171875 37.8125 47.578125 
Q 36.03125 48 33.890625 48 
Q 26.265625 48 22.1875 43.046875 
Q 18.109375 38.09375 18.109375 28.8125 
L 18.109375 0 
L 9.078125 0 
L 9.078125 54.6875 
L 18.109375 54.6875 
L 18.109375 46.1875 
Q 20.953125 51.171875 25.484375 53.578125 
Q 30.03125 56 36.53125 56 
Q 37.453125 56 38.578125 55.875 
Q 39.703125 55.765625 41.0625 55.515625 
z
" id="BitstreamVeraSans-Roman-72"/>
      <path d="M 48.78125 52.59375 
L 48.78125 44.1875 
Q 44.96875 46.296875 41.140625 47.34375 
Q 37.3125 48.390625 33.40625 48.390625 
Q 24.65625 48.390625 19.8125 42.84375 
Q 14.984375 37.3125 14.984375 27.296875 
Q 14.984375 17.28125 19.8125 11.734375 
Q 24.65625 6.203125 33.40625 6.203125 
Q 37.3125 6.203125 41.140625 7.25 
Q 44.96875 8.296875 48.78125 10.40625 
L 48.78125 2.09375 
Q 45.015625 0.34375 40.984375 -0.53125 
Q 36.96875 -1.421875 32.421875 -1.421875 
Q 20.0625 -1.421875 12.78125 6.34375 
Q 5.515625 14.109375 5.515625 27.296875 
Q 5.515625 40.671875 12.859375 48.328125 
Q 20.21875 56 33.015625 56 
Q 37.15625 56 41.109375 55.140625 
Q 45.0625 54.296875 48.78125 52.59375 
" id="BitstreamVeraSans-Roman-63"/>
      <path d="M 48.6875 27.296875 
Q 48.6875 37.203125 44.609375 42.84375 
Q 40.53125 48.484375 33.40625 48.484375 
Q 26.265625 48.484375 22.1875 42.84375 
Q 18.109375 37.203125 18.109375 27.296875 
Q 18.109375 17.390625 22.1875 11.75 
Q 26.265625 6.109375 33.40625 6.109375 
Q 40.53125 6.109375 44.609375 11.75 
Q 48.6875 17.390625 48.6875 27.296875 
M 18.109375 46.390625 
Q 20.953125 51.265625 25.265625 53.625 
Q 29.59375 56 35.59375 56 
Q 45.5625 56 51.78125 48.09375 
Q 58.015625 40.1875 58.015625 27.296875 
Q 58.015625 14.40625 51.78125 6.484375 
Q 45.5625 -1.421875 35.59375 -1.421875 
Q 29.59375 -1.421875 25.265625 0.953125 
Q 20.953125 3.328125 18.109375 8.203125 
L 18.109375 0 
L 9.078125 0 
L 9.078125 75.984375 
L 18.109375 75.984375 
z
" id="BitstreamVeraSans-Roman-62"/>
      <path d="M 30.609375 48.390625 
Q 23.390625 48.390625 19.1875 42.75 
Q 14.984375 37.109375 14.984375 27.296875 
Q 14.984375 17.484375 19.15625 11.84375 
Q 23.34375 6.203125 30.609375 6.203125 
Q 37.796875 6.203125 41.984375 11.859375 
Q 46.1875 17.53125 46.1875 27.296875 
Q 46.1875 37.015625 41.984375 42.703125 
Q 37.796875 48.390625 30.609375 48.390625 
M 30.609375 56 
Q 42.328125 56 49.015625 48.375 
Q 55.71875 40.765625 55.71875 27.296875 
Q 55.71875 13.875 49.015625 6.21875 
Q 42.328125 -1.421875 30.609375 -1.421875 
Q 18.84375 -1.421875 12.171875 6.21875 
Q 5.515625 13.875 5.515625 27.296875 
Q 5.515625 40.765625 12.171875 48.375 
Q 18.84375 56 30.609375 56 
" id="BitstreamVeraSans-Roman-6f"/>
      <path d="M 45.40625 46.390625 
L 45.40625 75.984375 
L 54.390625 75.984375 
L 54.390625 0 
L 45.40625 0 
L 45.40625 8.203125 
Q 42.578125 3.328125 38.25 0.953125 
Q 33.9375 -1.421875 27.875 -1.421875 
Q 17.96875 -1.421875 11.734375 6.484375 
Q 5.515625 14.40625 5.515625 27.296875 
Q 5.515625 40.1875 11.734375 48.09375 
Q 17.96875 56 27.875 56 
Q 33.9375 56 38.25 53.625 
Q 42.578125 51.265625 45.40625 46.390625 
M 14.796875 27.296875 
Q 14.796875 17.390625 18.875 11.75 
Q 22.953125 6.109375 30.078125 6.109375 
Q 37.203125 6.109375 41.296875 11.75 
Q 45.40625 17.390625 45.40625 27.296875 
Q 45.40625 37.203125 41.296875 42.84375 
Q 37.203125 48.484375 30.078125 48.484375 
Q 22.953125 48.484375 18.875 42.84375 
Q 14.796875 37.203125 14.796875 27.296875 
" id="BitstreamVeraSans-Roman-64"/>
      <path id="BitstreamVeraSans-Roman-20"/>
      <path d="M 18.3125 70.21875 
L 18.3125 54.6875 
L 36.8125 54.6875 
L 36.8125 47.703125 
L 18.3125 47.703125 
L 18.3125 18.015625 
Q 18.3125 11.328125 20.140625 9.421875 
Q 21.96875 7.515625 27.59375 7.515625 
L 36.8125 7.515625 
L 36.8125 0 
L 27.59375 0 
Q 17.1875 0 13.234375 3.875 
Q 9.28125 7.765625 9.28125 18.015625 
L 9.28125 47.703125 
L 2.6875 47.703125 
L 2.6875 54.6875 
L 9.28125 54.6875 
L 9.28125 70.21875 
z
" id="BitstreamVeraSans-Roman-74"/>
      <path d="M 8.5 21.578125 
L 8.5 54.6875 
L 17.484375 54.6875 
L 17.484375 21.921875 
Q 17.484375 14.15625 20.5 10.265625 
Q 23.53125 6.390625 29.59375 6.390625 
Q 36.859375 6.390625 41.078125 11.03125 
Q 45.3125 15.671875 45.3125 23.6875 
L 45.3125 54.6875 
L 54.296875 54.6875 
L 54.296875 0 
L 45.3125 0 
L 45.3125 8.40625 
Q 42.046875 3.421875 37.71875 1 
Q 33.40625 -1.421875 27.6875 -1.421875 
Q 18.265625 -1.421875 13.375 4.4375 
Q 8.5 10.296875 8.5 21.578125 
" id="BitstreamVeraSans-Roman-75"/>
      <path d="M 44.28125 53.078125 
L 44.28125 44.578125 
Q 40.484375 46.53125 36.375 47.5 
Q 32.28125 48.484375 27.875 48.484375 
Q 21.1875 48.484375 17.84375 46.4375 
Q 14.5 44.390625 14.5 40.28125 
Q 14.5 37.15625 16.890625 35.375 
Q 19.28125 33.59375 26.515625 31.984375 
L 29.59375 31.296875 
Q 39.15625 29.25 43.1875 25.515625 
Q 47.21875 21.78125 47.21875 15.09375 
Q 47.21875 7.46875 41.1875 3.015625 
Q 35.15625 -1.421875 24.609375 -1.421875 
Q 20.21875 -1.421875 15.453125 -0.5625 
Q 10.6875 0.296875 5.421875 2 
L 5.421875 11.28125 
Q 10.40625 8.6875 15.234375 7.390625 
Q 20.0625 6.109375 24.8125 6.109375 
Q 31.15625 6.109375 34.5625 8.28125 
Q 37.984375 10.453125 37.984375 14.40625 
Q 37.984375 18.0625 35.515625 20.015625 
Q 33.0625 21.96875 24.703125 23.78125 
L 21.578125 24.515625 
Q 13.234375 26.265625 9.515625 29.90625 
Q 5.8125 33.546875 5.8125 39.890625 
Q 5.8125 47.609375 11.28125 51.796875 
Q 16.75 56 26.8125 56 
Q 31.78125 56 36.171875 55.265625 
Q 40.578125 54.546875 44.28125 53.078125 
" id="BitstreamVeraSans-Roman-73"/>
      <path d="M 37.109375 75.984375 
L 37.109375 68.5 
L 28.515625 68.5 
Q 23.6875 68.5 21.796875 66.546875 
Q 19.921875 64.59375 19.921875 59.515625 
L 19.921875 54.6875 
L 34.71875 54.6875 
L 34.71875 47.703125 
L 19.921875 47.703125 
L 19.921875 0 
L 10.890625 0 
L 10.890625 47.703125 
L 2.296875 47.703125 
L 2.296875 54.6875 
L 10.890625 54.6875 
L 10.890625 58.5 
Q 10.890625 67.625 15.140625 71.796875 
Q 19.390625 75.984375 28.609375 75.984375 
z
" id="BitstreamVeraSans-Roman-66"/>
      <path d="M 56.203125 29.59375 
L 56.203125 25.203125 
L 14.890625 25.203125 
Q 15.484375 15.921875 20.484375 11.0625 
Q 25.484375 6.203125 34.421875 6.203125 
Q 39.59375 6.203125 44.453125 7.46875 
Q 49.3125 8.734375 54.109375 11.28125 
L 54.109375 2.78125 
Q 49.265625 0.734375 44.1875 -0.34375 
Q 39.109375 -1.421875 33.890625 -1.421875 
Q 20.796875 -1.421875 13.15625 6.1875 
Q 5.515625 13.8125 5.515625 26.8125 
Q 5.515625 40.234375 12.765625 48.109375 
Q 20.015625 56 32.328125 56 
Q 43.359375 56 49.78125 48.890625 
Q 56.203125 41.796875 56.203125 29.59375 
M 47.21875 32.234375 
Q 47.125 39.59375 43.09375 43.984375 
Q 39.0625 48.390625 32.421875 48.390625 
Q 24.90625 48.390625 20.390625 44.140625 
Q 15.875 39.890625 15.1875 32.171875 
z
" id="BitstreamVeraSans-Roman-65"/>
     </defs>
     <g transform="translate(205.516875 418.531875)scale(0.12 -0.12)">
      <use xlink:href="#BitstreamVeraSans-Roman-6e"/>
      <use x="63.37890625" xlink:href="#BitstreamVeraSans-Roman-75"/>
      <use x="126.7578125" xlink:href="#BitstreamVeraSans-Roman-6d"/>
      <use x="224.169921875" xlink:href="#BitstreamVeraSans-Roman-62"/>
      <use x="287.646484375" xlink:href="#BitstreamVeraSans-Roman-65"/>
      <use x="349.169921875" xlink:href="#BitstreamVeraSans-Roman-72"/>
      <use x="390.283203125" xlink:href="#BitstreamVeraSans-Roman-20"/>
      <use x="422.0703125" xlink:href="#BitstreamVeraSans-Roman-6f"/>
      <use x="483.251953125" xlink:href="#BitstreamVeraSans-Roman-66"/>
      <use x="518.45703125" xlink:href="#BitstreamVeraSans-Roman-20"/>
      <use x="550.244140625" xlink:href="#BitstreamVeraSans-Roman-63"/>
      <use x="605.224609375" xlink:href="#BitstreamVeraSans-Roman-6f"/>
      <use x="666.40625" xlink:href="#BitstreamVeraSans-Roman-76"/>
      <use x="725.5859375" xlink:href="#BitstreamVeraSans-Roman-65"/>
      <use x="787.109375" xlink:href="#BitstreamVeraSans-Roman-72"/>
      <use x="828.19140625" xlink:href="#BitstreamVeraSans-Roman-65"/>
      <use x="889.71484375" xlink:href="#BitstreamVeraSans-Roman-64"/>
      <use x="953.19140625" xlink:href="#BitstreamVeraSans-Roman-20"/>
      <use x="984.978515625" xlink:href="#BitstreamVeraSans-Roman-73"/>
      <use x="1037.078125" xlink:href="#BitstreamVeraSans-Roman-65"/>
      <use x="1098.6015625" xlink:href="#BitstreamVeraSans-Roman-6e"/>
      <use x="1161.98046875" xlink:href="#BitstreamVeraSans-Roman-74"/>
      <use x="1201.189453125" xlink:href="#BitstreamVeraSans-Roman-65"/>
      <use x="1262.712890625" xlink:href="#BitstreamVeraSans-Roman-6e"/>
      <use x="1326.091796875" xlink:href="#BitstreamVeraSans-Roman-63"/>
      <use x="1381.072265625" xlink:href="#BitstreamVeraSans-Roman-65"/>
      <use x="1442.595703125" xlink:href="#BitstreamVeraSans-Roman-73"/>
     </g>
    </g>
   </g>
   <g id="matplotlib.axis_2">
    <g id="ytick_1">
     <g id="line2d_33">
      <defs>
       <path d="M 0 0 
L 4 0 
" id="m8bf820a743" style="stroke:#000000;stroke-width:0.5;"/>
      </defs>
      <g>
       <use style="stroke:#000000;stroke-width:0.5;" x="72.0" xlink:href="#m8bf820a743" y="388.8"/>
      </g>
     </g>
     <g id="line2d_34">
      <defs>
       <path d="M 0 0 
L -4 0 
" id="m9922b4cbfd" style="stroke:#000000;stroke-width:0.5;"/>
      </defs>
      <g>
       <use style="stroke:#000000;stroke-width:0.5;" x="518.4" xlink:href="#m9922b4cbfd" y="388.8"/>
      </g>
     </g>
     <g id="text_8">
      <!-- −0.02 -->
      <defs>
       <path d="M 10.59375 35.5 
L 73.1875 35.5 
L 73.1875 27.203125 
L 10.59375 27.203125 
z
" id="BitstreamVeraSans-Roman-2212"/>
       <path d="M 10.6875 12.40625 
L 21 12.40625 
L 21 0 
L 10.6875 0 
z
" id="BitstreamVeraSans-Roman-2e"/>
      </defs>
      <g transform="translate(31.225625 392.11125)scale(0.12 -0.12)">
       <use xlink:href="#BitstreamVeraSans-Roman-2212"/>
       <use x="83.7890625" xlink:href="#BitstreamVeraSans-Roman-30"/>
       <use x="147.412109375" xlink:href="#BitstreamVeraSans-Roman-2e"/>
       <use x="179.19921875" xlink:href="#BitstreamVeraSans-Roman-30"/>
       <use x="242.822265625" xlink:href="#BitstreamVeraSans-Roman-32"/>
      </g>
     </g>
    </g>
    <g id="ytick_2">
     <g id="line2d_35">
      <g>
       <use style="stroke:#000000;stroke-width:0.5;" x="72.0" xlink:href="#m8bf820a743" y="350.4"/>
      </g>
     </g>
     <g id="line2d_36">
      <g>
       <use style="stroke:#000000;stroke-width:0.5;" x="518.4" xlink:href="#m9922b4cbfd" y="350.4"/>
      </g>
     </g>
     <g id="text_9">
      <!-- 0.00 -->
      <g transform="translate(41.28125 353.71125)scale(0.12 -0.12)">
       <use xlink:href="#BitstreamVeraSans-Roman-30"/>
       <use x="63.623046875" xlink:href="#BitstreamVeraSans-Roman-2e"/>
       <use x="95.41015625" xlink:href="#BitstreamVeraSans-Roman-30"/>
       <use x="159.033203125" xlink:href="#BitstreamVeraSans-Roman-30"/>
      </g>
     </g>
    </g>
    <g id="ytick_3">
     <g id="line2d_37">
      <g>
       <use style="stroke:#000000;stroke-width:0.5;" x="72.0" xlink:href="#m8bf820a743" y="312.0"/>
      </g>
     </g>
     <g id="line2d_38">
      <g>
       <use style="stroke:#000000;stroke-width:0.5;" x="518.4" xlink:href="#m9922b4cbfd" y="312.0"/>
      </g>
     </g>
     <g id="text_10">
      <!-- 0.02 -->
      <g transform="translate(41.28125 315.31125)scale(0.12 -0.12)">
       <use xlink:href="#BitstreamVeraSans-Roman-30"/>
       <use x="63.623046875" xlink:href="#BitstreamVeraSans-Roman-2e"/>
       <use x="95.41015625" xlink:href="#BitstreamVeraSans-Roman-30"/>
       <use x="159.033203125" xlink:href="#BitstreamVeraSans-Roman-32"/>
      </g>
     </g>
    </g>
    <g id="ytick_4">
     <g id="line2d_39">
      <g>
       <use style="stroke:#000000;stroke-width:0.5;" x="72.0" xlink:href="#m8bf820a743" y="273.6"/>
      </g>
     </g>
     <g id="line2d_40">
      <g>
       <use style="stroke:#000000;stroke-width:0.5;" x="518.4" xlink:href="#m9922b4cbfd" y="273.6"/>
      </g>
     </g>
     <g id="text_11">
      <!-- 0.04 -->
      <g transform="translate(41.28125 276.91125)scale(0.12 -0.12)">
       <use xlink:href="#BitstreamVeraSans-Roman-30"/>
       <use x="63.623046875" xlink:href="#BitstreamVeraSans-Roman-2e"/>
       <use x="95.41015625" xlink:href="#BitstreamVeraSans-Roman-30"/>
       <use x="159.033203125" xlink:href="#BitstreamVeraSans-Roman-34"/>
      </g>
     </g>
    </g>
    <g id="ytick_5">
     <g id="line2d_41">
      <g>
       <use style="stroke:#000000;stroke-width:0.5;" x="72.0" xlink:href="#m8bf820a743" y="235.2"/>
      </g>
     </g>
     <g id="line2d_42">
      <g>
       <use style="stroke:#000000;stroke-width:0.5;" x="518.4" xlink:href="#m9922b4cbfd" y="235.2"/>
      </g>
     </g>
     <g id="text_12">
      <!-- 0.06 -->
      <defs>
       <path d="M 33.015625 40.375 
Q 26.375 40.375 22.484375 35.828125 
Q 18.609375 31.296875 18.609375 23.390625 
Q 18.609375 15.53125 22.484375 10.953125 
Q 26.375 6.390625 33.015625 6.390625 
Q 39.65625 6.390625 43.53125 10.953125 
Q 47.40625 15.53125 47.40625 23.390625 
Q 47.40625 31.296875 43.53125 35.828125 
Q 39.65625 40.375 33.015625 40.375 
M 52.59375 71.296875 
L 52.59375 62.3125 
Q 48.875 64.0625 45.09375 64.984375 
Q 41.3125 65.921875 37.59375 65.921875 
Q 27.828125 65.921875 22.671875 59.328125 
Q 17.53125 52.734375 16.796875 39.40625 
Q 19.671875 43.65625 24.015625 45.921875 
Q 28.375 48.1875 33.59375 48.1875 
Q 44.578125 48.1875 50.953125 41.515625 
Q 57.328125 34.859375 57.328125 23.390625 
Q 57.328125 12.15625 50.6875 5.359375 
Q 44.046875 -1.421875 33.015625 -1.421875 
Q 20.359375 -1.421875 13.671875 8.265625 
Q 6.984375 17.96875 6.984375 36.375 
Q 6.984375 53.65625 15.1875 63.9375 
Q 23.390625 74.21875 37.203125 74.21875 
Q 40.921875 74.21875 44.703125 73.484375 
Q 48.484375 72.75 52.59375 71.296875 
" id="BitstreamVeraSans-Roman-36"/>
      </defs>
      <g transform="translate(41.28125 238.51125)scale(0.12 -0.12)">
       <use xlink:href="#BitstreamVeraSans-Roman-30"/>
       <use x="63.623046875" xlink:href="#BitstreamVeraSans-Roman-2e"/>
       <use x="95.41015625" xlink:href="#BitstreamVeraSans-Roman-30"/>
       <use x="159.033203125" xlink:href="#BitstreamVeraSans-Roman-36"/>
      </g>
     </g>
    </g>
    <g id="ytick_6">
     <g id="line2d_43">
      <g>
       <use style="stroke:#000000;stroke-width:0.5;" x="72.0" xlink:href="#m8bf820a743" y="196.8"/>
      </g>
     </g>
     <g id="line2d_44">
      <g>
       <use style="stroke:#000000;stroke-width:0.5;" x="518.4" xlink:href="#m9922b4cbfd" y="196.8"/>
      </g>
     </g>
     <g id="text_13">
      <!-- 0.08 -->
      <defs>
       <path d="M 31.78125 34.625 
Q 24.75 34.625 20.71875 30.859375 
Q 16.703125 27.09375 16.703125 20.515625 
Q 16.703125 13.921875 20.71875 10.15625 
Q 24.75 6.390625 31.78125 6.390625 
Q 38.8125 6.390625 42.859375 10.171875 
Q 46.921875 13.96875 46.921875 20.515625 
Q 46.921875 27.09375 42.890625 30.859375 
Q 38.875 34.625 31.78125 34.625 
M 21.921875 38.8125 
Q 15.578125 40.375 12.03125 44.71875 
Q 8.5 49.078125 8.5 55.328125 
Q 8.5 64.0625 14.71875 69.140625 
Q 20.953125 74.21875 31.78125 74.21875 
Q 42.671875 74.21875 48.875 69.140625 
Q 55.078125 64.0625 55.078125 55.328125 
Q 55.078125 49.078125 51.53125 44.71875 
Q 48 40.375 41.703125 38.8125 
Q 48.828125 37.15625 52.796875 32.3125 
Q 56.78125 27.484375 56.78125 20.515625 
Q 56.78125 9.90625 50.3125 4.234375 
Q 43.84375 -1.421875 31.78125 -1.421875 
Q 19.734375 -1.421875 13.25 4.234375 
Q 6.78125 9.90625 6.78125 20.515625 
Q 6.78125 27.484375 10.78125 32.3125 
Q 14.796875 37.15625 21.921875 38.8125 
M 18.3125 54.390625 
Q 18.3125 48.734375 21.84375 45.5625 
Q 25.390625 42.390625 31.78125 42.390625 
Q 38.140625 42.390625 41.71875 45.5625 
Q 45.3125 48.734375 45.3125 54.390625 
Q 45.3125 60.0625 41.71875 63.234375 
Q 38.140625 66.40625 31.78125 66.40625 
Q 25.390625 66.40625 21.84375 63.234375 
Q 18.3125 60.0625 18.3125 54.390625 
" id="BitstreamVeraSans-Roman-38"/>
      </defs>
      <g transform="translate(41.28125 200.11125)scale(0.12 -0.12)">
       <use xlink:href="#BitstreamVeraSans-Roman-30"/>
       <use x="63.623046875" xlink:href="#BitstreamVeraSans-Roman-2e"/>
       <use x="95.41015625" xlink:href="#BitstreamVeraSans-Roman-30"/>
       <use x="159.033203125" xlink:href="#BitstreamVeraSans-Roman-38"/>
      </g>
     </g>
    </g>
    <g id="ytick_7">
     <g id="line2d_45">
      <g>
       <use style="stroke:#000000;stroke-width:0.5;" x="72.0" xlink:href="#m8bf820a743" y="158.4"/>
      </g>
     </g>
     <g id="line2d_46">
      <g>
       <use style="stroke:#000000;stroke-width:0.5;" x="518.4" xlink:href="#m9922b4cbfd" y="158.4"/>
      </g>
     </g>
     <g id="text_14">
      <!-- 0.10 -->
      <g transform="translate(41.28125 161.71125)scale(0.12 -0.12)">
       <use xlink:href="#BitstreamVeraSans-Roman-30"/>
       <use x="63.623046875" xlink:href="#BitstreamVeraSans-Roman-2e"/>
       <use x="95.41015625" xlink:href="#BitstreamVeraSans-Roman-31"/>
       <use x="159.033203125" xlink:href="#BitstreamVeraSans-Roman-30"/>
      </g>
     </g>
    </g>
    <g id="ytick_8">
     <g id="line2d_47">
      <g>
       <use style="stroke:#000000;stroke-width:0.5;" x="72.0" xlink:href="#m8bf820a743" y="120.0"/>
      </g>
     </g>
     <g id="line2d_48">
      <g>
       <use style="stroke:#000000;stroke-width:0.5;" x="518.4" xlink:href="#m9922b4cbfd" y="120.0"/>
      </g>
     </g>
     <g id="text_15">
      <!-- 0.12 -->
      <g transform="translate(41.28125 123.31125)scale(0.12 -0.12)">
       <use xlink:href="#BitstreamVeraSans-Roman-30"/>
       <use x="63.623046875" xlink:href="#BitstreamVeraSans-Roman-2e"/>
       <use x="95.41015625" xlink:href="#BitstreamVeraSans-Roman-31"/>
       <use x="159.033203125" xlink:href="#BitstreamVeraSans-Roman-32"/>
      </g>
     </g>
    </g>
    <g id="ytick_9">
     <g id="line2d_49">
      <g>
       <use style="stroke:#000000;stroke-width:0.5;" x="72.0" xlink:href="#m8bf820a743" y="81.6"/>
      </g>
     </g>
     <g id="line2d_50">
      <g>
       <use style="stroke:#000000;stroke-width:0.5;" x="518.4" xlink:href="#m9922b4cbfd" y="81.6"/>
      </g>
     </g>
     <g id="text_16">
      <!-- 0.14 -->
      <g transform="translate(41.28125 84.91125)scale(0.12 -0.12)">
       <use xlink:href="#BitstreamVeraSans-Roman-30"/>
       <use x="63.623046875" xlink:href="#BitstreamVeraSans-Roman-2e"/>
       <use x="95.41015625" xlink:href="#BitstreamVeraSans-Roman-31"/>
       <use x="159.033203125" xlink:href="#BitstreamVeraSans-Roman-34"/>
      </g>
     </g>
    </g>
    <g id="ytick_10">
     <g id="line2d_51">
      <g>
       <use style="stroke:#000000;stroke-width:0.5;" x="72.0" xlink:href="#m8bf820a743" y="43.2"/>
      </g>
     </g>
     <g id="line2d_52">
      <g>
       <use style="stroke:#000000;stroke-width:0.5;" x="518.4" xlink:href="#m9922b4cbfd" y="43.2"/>
      </g>
     </g>
     <g id="text_17">
      <!-- 0.16 -->
      <g transform="translate(41.28125 46.51125)scale(0.12 -0.12)">
       <use xlink:href="#BitstreamVeraSans-Roman-30"/>
       <use x="63.623046875" xlink:href="#BitstreamVeraSans-Roman-2e"/>
       <use x="95.41015625" xlink:href="#BitstreamVeraSans-Roman-31"/>
       <use x="159.033203125" xlink:href="#BitstreamVeraSans-Roman-36"/>
      </g>
     </g>
    </g>
    <g id="text_18">
     <!-- probabillity -->
     <defs>
      <path d="M 34.28125 27.484375 
Q 23.390625 27.484375 19.1875 25 
Q 14.984375 22.515625 14.984375 16.5 
Q 14.984375 11.71875 18.140625 8.90625 
Q 21.296875 6.109375 26.703125 6.109375 
Q 34.1875 6.109375 38.703125 11.40625 
Q 43.21875 16.703125 43.21875 25.484375 
L 43.21875 27.484375 
z
M 52.203125 31.203125 
L 52.203125 0 
L 43.21875 0 
L 43.21875 8.296875 
Q 40.140625 3.328125 35.546875 0.953125 
Q 30.953125 -1.421875 24.3125 -1.421875 
Q 15.921875 -1.421875 10.953125 3.296875 
Q 6 8.015625 6 15.921875 
Q 6 25.140625 12.171875 29.828125 
Q 18.359375 34.515625 30.609375 34.515625 
L 43.21875 34.515625 
L 43.21875 35.40625 
Q 43.21875 41.609375 39.140625 45 
Q 35.0625 48.390625 27.6875 48.390625 
Q 23 48.390625 18.546875 47.265625 
Q 14.109375 46.140625 10.015625 43.890625 
L 10.015625 52.203125 
Q 14.9375 54.109375 19.578125 55.046875 
Q 24.21875 56 28.609375 56 
Q 40.484375 56 46.34375 49.84375 
Q 52.203125 43.703125 52.203125 31.203125 
" id="BitstreamVeraSans-Roman-61"/>
      <path d="M 9.421875 54.6875 
L 18.40625 54.6875 
L 18.40625 0 
L 9.421875 0 
z
M 9.421875 75.984375 
L 18.40625 75.984375 
L 18.40625 64.59375 
L 9.421875 64.59375 
z
" id="BitstreamVeraSans-Roman-69"/>
      <path d="M 9.421875 75.984375 
L 18.40625 75.984375 
L 18.40625 0 
L 9.421875 0 
z
" id="BitstreamVeraSans-Roman-6c"/>
      <path d="M 18.109375 8.203125 
L 18.109375 -20.796875 
L 9.078125 -20.796875 
L 9.078125 54.6875 
L 18.109375 54.6875 
L 18.109375 46.390625 
Q 20.953125 51.265625 25.265625 53.625 
Q 29.59375 56 35.59375 56 
Q 45.5625 56 51.78125 48.09375 
Q 58.015625 40.1875 58.015625 27.296875 
Q 58.015625 14.40625 51.78125 6.484375 
Q 45.5625 -1.421875 35.59375 -1.421875 
Q 29.59375 -1.421875 25.265625 0.953125 
Q 20.953125 3.328125 18.109375 8.203125 
M 48.6875 27.296875 
Q 48.6875 37.203125 44.609375 42.84375 
Q 40.53125 48.484375 33.40625 48.484375 
Q 26.265625 48.484375 22.1875 42.84375 
Q 18.109375 37.203125 18.109375 27.296875 
Q 18.109375 17.390625 22.1875 11.75 
Q 26.265625 6.109375 33.40625 6.109375 
Q 40.53125 6.109375 44.609375 11.75 
Q 48.6875 17.390625 48.6875 27.296875 
" id="BitstreamVeraSans-Roman-70"/>
      <path d="M 32.171875 -5.078125 
Q 28.375 -14.84375 24.75 -17.8125 
Q 21.140625 -20.796875 15.09375 -20.796875 
L 7.90625 -20.796875 
L 7.90625 -13.28125 
L 13.1875 -13.28125 
Q 16.890625 -13.28125 18.9375 -11.515625 
Q 21 -9.765625 23.484375 -3.21875 
L 25.09375 0.875 
L 2.984375 54.6875 
L 12.5 54.6875 
L 29.59375 11.921875 
L 46.6875 54.6875 
L 56.203125 54.6875 
z
" id="BitstreamVeraSans-Roman-79"/>
     </defs>
     <g transform="translate(23.73 249.8109375)rotate(-90.0)scale(0.12 -0.12)">
      <use xlink:href="#BitstreamVeraSans-Roman-70"/>
      <use x="63.4765625" xlink:href="#BitstreamVeraSans-Roman-72"/>
      <use x="104.55859375" xlink:href="#BitstreamVeraSans-Roman-6f"/>
      <use x="165.740234375" xlink:href="#BitstreamVeraSans-Roman-62"/>
      <use x="229.216796875" xlink:href="#BitstreamVeraSans-Roman-61"/>
      <use x="290.49609375" xlink:href="#BitstreamVeraSans-Roman-62"/>
      <use x="353.97265625" xlink:href="#BitstreamVeraSans-Roman-69"/>
      <use x="381.755859375" xlink:href="#BitstreamVeraSans-Roman-6c"/>
      <use x="409.5390625" xlink:href="#BitstreamVeraSans-Roman-6c"/>
      <use x="437.322265625" xlink:href="#BitstreamVeraSans-Roman-69"/>
      <use x="465.10546875" xlink:href="#BitstreamVeraSans-Roman-74"/>
      <use x="504.314453125" xlink:href="#BitstreamVeraSans-Roman-79"/>
     </g>
    </g>
   </g>
   <g id="text_19">
    <!-- probabillity distribution for correct sentences covered in g.s. -->
    <defs>
     <path d="M 45.40625 27.984375 
Q 45.40625 37.75 41.375 43.109375 
Q 37.359375 48.484375 30.078125 48.484375 
Q 22.859375 48.484375 18.828125 43.109375 
Q 14.796875 37.75 14.796875 27.984375 
Q 14.796875 18.265625 18.828125 12.890625 
Q 22.859375 7.515625 30.078125 7.515625 
Q 37.359375 7.515625 41.375 12.890625 
Q 45.40625 18.265625 45.40625 27.984375 
M 54.390625 6.78125 
Q 54.390625 -7.171875 48.1875 -13.984375 
Q 42 -20.796875 29.203125 -20.796875 
Q 24.46875 -20.796875 20.265625 -20.09375 
Q 16.0625 -19.390625 12.109375 -17.921875 
L 12.109375 -9.1875 
Q 16.0625 -11.328125 19.921875 -12.34375 
Q 23.78125 -13.375 27.78125 -13.375 
Q 36.625 -13.375 41.015625 -8.765625 
Q 45.40625 -4.15625 45.40625 5.171875 
L 45.40625 9.625 
Q 42.625 4.78125 38.28125 2.390625 
Q 33.9375 0 27.875 0 
Q 17.828125 0 11.671875 7.65625 
Q 5.515625 15.328125 5.515625 27.984375 
Q 5.515625 40.671875 11.671875 48.328125 
Q 17.828125 56 27.875 56 
Q 33.9375 56 38.28125 53.609375 
Q 42.625 51.21875 45.40625 46.390625 
L 45.40625 54.6875 
L 54.390625 54.6875 
z
" id="BitstreamVeraSans-Roman-67"/>
    </defs>
    <g transform="translate(77.01075 22.07515)scale(0.144 -0.144)">
     <use xlink:href="#BitstreamVeraSans-Roman-70"/>
     <use x="63.4765625" xlink:href="#BitstreamVeraSans-Roman-72"/>
     <use x="104.55859375" xlink:href="#BitstreamVeraSans-Roman-6f"/>
     <use x="165.740234375" xlink:href="#BitstreamVeraSans-Roman-62"/>
     <use x="229.216796875" xlink:href="#BitstreamVeraSans-Roman-61"/>
     <use x="290.49609375" xlink:href="#BitstreamVeraSans-Roman-62"/>
     <use x="353.97265625" xlink:href="#BitstreamVeraSans-Roman-69"/>
     <use x="381.755859375" xlink:href="#BitstreamVeraSans-Roman-6c"/>
     <use x="409.5390625" xlink:href="#BitstreamVeraSans-Roman-6c"/>
     <use x="437.322265625" xlink:href="#BitstreamVeraSans-Roman-69"/>
     <use x="465.10546875" xlink:href="#BitstreamVeraSans-Roman-74"/>
     <use x="504.314453125" xlink:href="#BitstreamVeraSans-Roman-79"/>
     <use x="563.494140625" xlink:href="#BitstreamVeraSans-Roman-20"/>
     <use x="595.28125" xlink:href="#BitstreamVeraSans-Roman-64"/>
     <use x="658.7578125" xlink:href="#BitstreamVeraSans-Roman-69"/>
     <use x="686.541015625" xlink:href="#BitstreamVeraSans-Roman-73"/>
     <use x="738.640625" xlink:href="#BitstreamVeraSans-Roman-74"/>
     <use x="777.849609375" xlink:href="#BitstreamVeraSans-Roman-72"/>
     <use x="818.962890625" xlink:href="#BitstreamVeraSans-Roman-69"/>
     <use x="846.74609375" xlink:href="#BitstreamVeraSans-Roman-62"/>
     <use x="910.22265625" xlink:href="#BitstreamVeraSans-Roman-75"/>
     <use x="973.6015625" xlink:href="#BitstreamVeraSans-Roman-74"/>
     <use x="1012.810546875" xlink:href="#BitstreamVeraSans-Roman-69"/>
     <use x="1040.59375" xlink:href="#BitstreamVeraSans-Roman-6f"/>
     <use x="1101.775390625" xlink:href="#BitstreamVeraSans-Roman-6e"/>
     <use x="1165.154296875" xlink:href="#BitstreamVeraSans-Roman-20"/>
     <use x="1196.94140625" xlink:href="#BitstreamVeraSans-Roman-66"/>
     <use x="1232.146484375" xlink:href="#BitstreamVeraSans-Roman-6f"/>
     <use x="1293.328125" xlink:href="#BitstreamVeraSans-Roman-72"/>
     <use x="1334.44140625" xlink:href="#BitstreamVeraSans-Roman-20"/>
     <use x="1366.228515625" xlink:href="#BitstreamVeraSans-Roman-63"/>
     <use x="1421.208984375" xlink:href="#BitstreamVeraSans-Roman-6f"/>
     <use x="1482.390625" xlink:href="#BitstreamVeraSans-Roman-72"/>
     <use x="1523.48828125" xlink:href="#BitstreamVeraSans-Roman-72"/>
     <use x="1564.5703125" xlink:href="#BitstreamVeraSans-Roman-65"/>
     <use x="1626.09375" xlink:href="#BitstreamVeraSans-Roman-63"/>
     <use x="1681.07421875" xlink:href="#BitstreamVeraSans-Roman-74"/>
     <use x="1720.283203125" xlink:href="#BitstreamVeraSans-Roman-20"/>
     <use x="1752.0703125" xlink:href="#BitstreamVeraSans-Roman-73"/>
     <use x="1804.169921875" xlink:href="#BitstreamVeraSans-Roman-65"/>
     <use x="1865.693359375" xlink:href="#BitstreamVeraSans-Roman-6e"/>
     <use x="1929.072265625" xlink:href="#BitstreamVeraSans-Roman-74"/>
     <use x="1968.28125" xlink:href="#BitstreamVeraSans-Roman-65"/>
     <use x="2029.8046875" xlink:href="#BitstreamVeraSans-Roman-6e"/>
     <use x="2093.18359375" xlink:href="#BitstreamVeraSans-Roman-63"/>
     <use x="2148.1640625" xlink:href="#BitstreamVeraSans-Roman-65"/>
     <use x="2209.6875" xlink:href="#BitstreamVeraSans-Roman-73"/>
     <use x="2261.787109375" xlink:href="#BitstreamVeraSans-Roman-20"/>
     <use x="2293.57421875" xlink:href="#BitstreamVeraSans-Roman-63"/>
     <use x="2348.5546875" xlink:href="#BitstreamVeraSans-Roman-6f"/>
     <use x="2409.736328125" xlink:href="#BitstreamVeraSans-Roman-76"/>
     <use x="2468.916015625" xlink:href="#BitstreamVeraSans-Roman-65"/>
     <use x="2530.439453125" xlink:href="#BitstreamVeraSans-Roman-72"/>
     <use x="2571.521484375" xlink:href="#BitstreamVeraSans-Roman-65"/>
     <use x="2633.044921875" xlink:href="#BitstreamVeraSans-Roman-64"/>
     <use x="2696.521484375" xlink:href="#BitstreamVeraSans-Roman-20"/>
     <use x="2728.30859375" xlink:href="#BitstreamVeraSans-Roman-69"/>
     <use x="2756.091796875" xlink:href="#BitstreamVeraSans-Roman-6e"/>
     <use x="2819.470703125" xlink:href="#BitstreamVeraSans-Roman-20"/>
     <use x="2851.2578125" xlink:href="#BitstreamVeraSans-Roman-67"/>
     <use x="2914.734375" xlink:href="#BitstreamVeraSans-Roman-2e"/>
     <use x="2946.521484375" xlink:href="#BitstreamVeraSans-Roman-73"/>
     <use x="2998.62109375" xlink:href="#BitstreamVeraSans-Roman-2e"/>
    </g>
    <!-- out of 48 using index comparison -->
    <defs>
     <path d="M 54.890625 54.6875 
L 35.109375 28.078125 
L 55.90625 0 
L 45.3125 0 
L 29.390625 21.484375 
L 13.484375 0 
L 2.875 0 
L 24.125 28.609375 
L 4.6875 54.6875 
L 15.28125 54.6875 
L 29.78125 35.203125 
L 44.28125 54.6875 
z
" id="BitstreamVeraSans-Roman-78"/>
    </defs>
    <g transform="translate(174.55275 38.2)scale(0.144 -0.144)">
     <use xlink:href="#BitstreamVeraSans-Roman-6f"/>
     <use x="61.181640625" xlink:href="#BitstreamVeraSans-Roman-75"/>
     <use x="124.560546875" xlink:href="#BitstreamVeraSans-Roman-74"/>
     <use x="163.76953125" xlink:href="#BitstreamVeraSans-Roman-20"/>
     <use x="195.556640625" xlink:href="#BitstreamVeraSans-Roman-6f"/>
     <use x="256.73828125" xlink:href="#BitstreamVeraSans-Roman-66"/>
     <use x="291.943359375" xlink:href="#BitstreamVeraSans-Roman-20"/>
     <use x="323.73046875" xlink:href="#BitstreamVeraSans-Roman-34"/>
     <use x="387.353515625" xlink:href="#BitstreamVeraSans-Roman-38"/>
     <use x="450.9765625" xlink:href="#BitstreamVeraSans-Roman-20"/>
     <use x="482.763671875" xlink:href="#BitstreamVeraSans-Roman-75"/>
     <use x="546.142578125" xlink:href="#BitstreamVeraSans-Roman-73"/>
     <use x="598.2421875" xlink:href="#BitstreamVeraSans-Roman-69"/>
     <use x="626.025390625" xlink:href="#BitstreamVeraSans-Roman-6e"/>
     <use x="689.404296875" xlink:href="#BitstreamVeraSans-Roman-67"/>
     <use x="752.880859375" xlink:href="#BitstreamVeraSans-Roman-20"/>
     <use x="784.66796875" xlink:href="#BitstreamVeraSans-Roman-69"/>
     <use x="812.451171875" xlink:href="#BitstreamVeraSans-Roman-6e"/>
     <use x="875.830078125" xlink:href="#BitstreamVeraSans-Roman-64"/>
     <use x="939.306640625" xlink:href="#BitstreamVeraSans-Roman-65"/>
     <use x="1000.814453125" xlink:href="#BitstreamVeraSans-Roman-78"/>
     <use x="1059.994140625" xlink:href="#BitstreamVeraSans-Roman-20"/>
     <use x="1091.78125" xlink:href="#BitstreamVeraSans-Roman-63"/>
     <use x="1146.76171875" xlink:href="#BitstreamVeraSans-Roman-6f"/>
     <use x="1207.943359375" xlink:href="#BitstreamVeraSans-Roman-6d"/>
     <use x="1305.35546875" xlink:href="#BitstreamVeraSans-Roman-70"/>
     <use x="1368.83203125" xlink:href="#BitstreamVeraSans-Roman-61"/>
     <use x="1430.111328125" xlink:href="#BitstreamVeraSans-Roman-72"/>
     <use x="1471.224609375" xlink:href="#BitstreamVeraSans-Roman-69"/>
     <use x="1499.0078125" xlink:href="#BitstreamVeraSans-Roman-73"/>
     <use x="1551.107421875" xlink:href="#BitstreamVeraSans-Roman-6f"/>
     <use x="1612.2890625" xlink:href="#BitstreamVeraSans-Roman-6e"/>
    </g>
   </g>
   <g id="legend_1">
    <g id="patch_7">
     <path d="M 402.316875 374.588125 
L 513.4 374.588125 
Q 515.4 374.588125 515.4 372.588125 
L 515.4 63.411875 
Q 515.4 61.411875 513.4 61.411875 
L 402.316875 61.411875 
Q 400.316875 61.411875 400.316875 63.411875 
L 400.316875 372.588125 
Q 400.316875 374.588125 402.316875 374.588125 
z
" style="fill:#4c4c4c;opacity:0.5;stroke:#4c4c4c;stroke-linejoin:miter;"/>
    </g>
    <g id="patch_8">
     <path d="M 400.316875 372.588125 
L 511.4 372.588125 
Q 513.4 372.588125 513.4 370.588125 
L 513.4 61.411875 
Q 513.4 59.411875 511.4 59.411875 
L 400.316875 59.411875 
Q 398.316875 59.411875 398.316875 61.411875 
L 398.316875 370.588125 
Q 398.316875 372.588125 400.316875 372.588125 
z
" style="fill:#ffffff;stroke:#000000;stroke-linejoin:miter;"/>
    </g>
    <g id="text_20">
     <!-- corrections in g.s. -->
     <g transform="translate(402.316875 72.53)scale(0.12 -0.12)">
      <use xlink:href="#BitstreamVeraSans-Roman-63"/>
      <use x="54.98046875" xlink:href="#BitstreamVeraSans-Roman-6f"/>
      <use x="116.162109375" xlink:href="#BitstreamVeraSans-Roman-72"/>
      <use x="157.259765625" xlink:href="#BitstreamVeraSans-Roman-72"/>
      <use x="198.341796875" xlink:href="#BitstreamVeraSans-Roman-65"/>
      <use x="259.865234375" xlink:href="#BitstreamVeraSans-Roman-63"/>
      <use x="314.845703125" xlink:href="#BitstreamVeraSans-Roman-74"/>
      <use x="354.0546875" xlink:href="#BitstreamVeraSans-Roman-69"/>
      <use x="381.837890625" xlink:href="#BitstreamVeraSans-Roman-6f"/>
      <use x="443.01953125" xlink:href="#BitstreamVeraSans-Roman-6e"/>
      <use x="506.3984375" xlink:href="#BitstreamVeraSans-Roman-73"/>
      <use x="558.498046875" xlink:href="#BitstreamVeraSans-Roman-20"/>
      <use x="590.28515625" xlink:href="#BitstreamVeraSans-Roman-69"/>
      <use x="618.068359375" xlink:href="#BitstreamVeraSans-Roman-6e"/>
      <use x="681.447265625" xlink:href="#BitstreamVeraSans-Roman-20"/>
      <use x="713.234375" xlink:href="#BitstreamVeraSans-Roman-67"/>
      <use x="776.7109375" xlink:href="#BitstreamVeraSans-Roman-2e"/>
      <use x="808.498046875" xlink:href="#BitstreamVeraSans-Roman-73"/>
      <use x="860.59765625" xlink:href="#BitstreamVeraSans-Roman-2e"/>
     </g>
    </g>
    <g id="line2d_53">
     <path d="M 438.495937 84.124062 
L 452.495937 84.124062 
" style="fill:none;stroke:#8000ff;stroke-linecap:square;"/>
    </g>
    <g id="line2d_54"/>
    <g id="text_21">
     <!-- 1 -->
     <g transform="translate(463.4959375 87.6240625)scale(0.1 -0.1)">
      <use xlink:href="#BitstreamVeraSans-Roman-31"/>
     </g>
    </g>
    <g id="line2d_55">
     <path d="M 438.495937 98.802188 
L 452.495937 98.802188 
" style="fill:none;stroke:#6629fe;stroke-linecap:square;"/>
    </g>
    <g id="line2d_56"/>
    <g id="text_22">
     <!-- 2 -->
     <g transform="translate(463.4959375 102.3021875)scale(0.1 -0.1)">
      <use xlink:href="#BitstreamVeraSans-Roman-32"/>
     </g>
    </g>
    <g id="line2d_57">
     <path d="M 438.495937 113.480312 
L 452.495937 113.480312 
" style="fill:none;stroke:#4c50fc;stroke-linecap:square;"/>
    </g>
    <g id="line2d_58"/>
    <g id="text_23">
     <!-- 3 -->
     <g transform="translate(463.4959375 116.9803125)scale(0.1 -0.1)">
      <use xlink:href="#BitstreamVeraSans-Roman-33"/>
     </g>
    </g>
    <g id="line2d_59">
     <path d="M 438.495937 128.158437 
L 452.495937 128.158437 
" style="fill:none;stroke:#3079f7;stroke-linecap:square;"/>
    </g>
    <g id="line2d_60"/>
    <g id="text_24">
     <!-- 4 -->
     <g transform="translate(463.4959375 131.6584375)scale(0.1 -0.1)">
      <use xlink:href="#BitstreamVeraSans-Roman-34"/>
     </g>
    </g>
    <g id="line2d_61">
     <path d="M 438.495937 142.836563 
L 452.495937 142.836563 
" style="fill:none;stroke:#169bf2;stroke-linecap:square;"/>
    </g>
    <g id="line2d_62"/>
    <g id="text_25">
     <!-- 5 -->
     <g transform="translate(463.4959375 146.3365625)scale(0.1 -0.1)">
      <use xlink:href="#BitstreamVeraSans-Roman-35"/>
     </g>
    </g>
    <g id="line2d_63">
     <path d="M 438.495937 157.514687 
L 452.495937 157.514687 
" style="fill:none;stroke:#07bbea;stroke-linecap:square;"/>
    </g>
    <g id="line2d_64"/>
    <g id="text_26">
     <!-- 6 -->
     <g transform="translate(463.4959375 161.0146875)scale(0.1 -0.1)">
      <use xlink:href="#BitstreamVeraSans-Roman-36"/>
     </g>
    </g>
    <g id="line2d_65">
     <path d="M 438.495937 172.192813 
L 452.495937 172.192813 
" style="fill:none;stroke:#20d5e1;stroke-linecap:square;"/>
    </g>
    <g id="line2d_66"/>
    <g id="text_27">
     <!-- 7 -->
     <defs>
      <path d="M 8.203125 72.90625 
L 55.078125 72.90625 
L 55.078125 68.703125 
L 28.609375 0 
L 18.3125 0 
L 43.21875 64.59375 
L 8.203125 64.59375 
z
" id="BitstreamVeraSans-Roman-37"/>
     </defs>
     <g transform="translate(463.4959375 175.6928125)scale(0.1 -0.1)">
      <use xlink:href="#BitstreamVeraSans-Roman-37"/>
     </g>
    </g>
    <g id="line2d_67">
     <path d="M 438.495937 186.870937 
L 452.495937 186.870937 
" style="fill:none;stroke:#3dead5;stroke-linecap:square;"/>
    </g>
    <g id="line2d_68"/>
    <g id="text_28">
     <!-- 8 -->
     <g transform="translate(463.4959375 190.3709375)scale(0.1 -0.1)">
      <use xlink:href="#BitstreamVeraSans-Roman-38"/>
     </g>
    </g>
    <g id="line2d_69">
     <path d="M 438.495937 201.549062 
L 452.495937 201.549062 
" style="fill:none;stroke:#56f7ca;stroke-linecap:square;"/>
    </g>
    <g id="line2d_70"/>
    <g id="text_29">
     <!-- 9 -->
     <defs>
      <path d="M 10.984375 1.515625 
L 10.984375 10.5 
Q 14.703125 8.734375 18.5 7.8125 
Q 22.3125 6.890625 25.984375 6.890625 
Q 35.75 6.890625 40.890625 13.453125 
Q 46.046875 20.015625 46.78125 33.40625 
Q 43.953125 29.203125 39.59375 26.953125 
Q 35.25 24.703125 29.984375 24.703125 
Q 19.046875 24.703125 12.671875 31.3125 
Q 6.296875 37.9375 6.296875 49.421875 
Q 6.296875 60.640625 12.9375 67.421875 
Q 19.578125 74.21875 30.609375 74.21875 
Q 43.265625 74.21875 49.921875 64.515625 
Q 56.59375 54.828125 56.59375 36.375 
Q 56.59375 19.140625 48.40625 8.859375 
Q 40.234375 -1.421875 26.421875 -1.421875 
Q 22.703125 -1.421875 18.890625 -0.6875 
Q 15.09375 0.046875 10.984375 1.515625 
M 30.609375 32.421875 
Q 37.25 32.421875 41.125 36.953125 
Q 45.015625 41.5 45.015625 49.421875 
Q 45.015625 57.28125 41.125 61.84375 
Q 37.25 66.40625 30.609375 66.40625 
Q 23.96875 66.40625 20.09375 61.84375 
Q 16.21875 57.28125 16.21875 49.421875 
Q 16.21875 41.5 20.09375 36.953125 
Q 23.96875 32.421875 30.609375 32.421875 
" id="BitstreamVeraSans-Roman-39"/>
     </defs>
     <g transform="translate(463.4959375 205.0490625)scale(0.1 -0.1)">
      <use xlink:href="#BitstreamVeraSans-Roman-39"/>
     </g>
    </g>
    <g id="line2d_71">
     <path d="M 438.495937 216.227187 
L 452.495937 216.227187 
" style="fill:none;stroke:#72febb;stroke-linecap:square;"/>
    </g>
    <g id="line2d_72"/>
    <g id="text_30">
     <!-- 10 -->
     <g transform="translate(463.4959375 219.7271875)scale(0.1 -0.1)">
      <use xlink:href="#BitstreamVeraSans-Roman-31"/>
      <use x="63.623046875" xlink:href="#BitstreamVeraSans-Roman-30"/>
     </g>
    </g>
    <g id="line2d_73">
     <path d="M 438.495937 230.905312 
L 452.495937 230.905312 
" style="fill:none;stroke:#8cfead;stroke-linecap:square;"/>
    </g>
    <g id="line2d_74"/>
    <g id="text_31">
     <!-- 11 -->
     <g transform="translate(463.4959375 234.4053125)scale(0.1 -0.1)">
      <use xlink:href="#BitstreamVeraSans-Roman-31"/>
      <use x="63.623046875" xlink:href="#BitstreamVeraSans-Roman-31"/>
     </g>
    </g>
    <g id="line2d_75">
     <path d="M 438.495937 245.583437 
L 452.495937 245.583437 
" style="fill:none;stroke:#a8f79c;stroke-linecap:square;"/>
    </g>
    <g id="line2d_76"/>
    <g id="text_32">
     <!-- 12 -->
     <g transform="translate(463.4959375 249.0834375)scale(0.1 -0.1)">
      <use xlink:href="#BitstreamVeraSans-Roman-31"/>
      <use x="63.623046875" xlink:href="#BitstreamVeraSans-Roman-32"/>
     </g>
    </g>
    <g id="line2d_77">
     <path d="M 438.495937 260.261562 
L 452.495937 260.261562 
" style="fill:none;stroke:#c2ea8c;stroke-linecap:square;"/>
    </g>
    <g id="line2d_78"/>
    <g id="text_33">
     <!-- 13 -->
     <g transform="translate(463.4959375 263.7615625)scale(0.1 -0.1)">
      <use xlink:href="#BitstreamVeraSans-Roman-31"/>
      <use x="63.623046875" xlink:href="#BitstreamVeraSans-Roman-33"/>
     </g>
    </g>
    <g id="line2d_79">
     <path d="M 438.495937 274.939687 
L 452.495937 274.939687 
" style="fill:none;stroke:#ded579;stroke-linecap:square;"/>
    </g>
    <g id="line2d_80"/>
    <g id="text_34">
     <!-- 14 -->
     <g transform="translate(463.4959375 278.4396875)scale(0.1 -0.1)">
      <use xlink:href="#BitstreamVeraSans-Roman-31"/>
      <use x="63.623046875" xlink:href="#BitstreamVeraSans-Roman-34"/>
     </g>
    </g>
    <g id="line2d_81">
     <path d="M 438.495937 289.617812 
L 452.495937 289.617812 
" style="fill:none;stroke:#f9bb66;stroke-linecap:square;"/>
    </g>
    <g id="line2d_82"/>
    <g id="text_35">
     <!-- 15 -->
     <g transform="translate(463.4959375 293.1178125)scale(0.1 -0.1)">
      <use xlink:href="#BitstreamVeraSans-Roman-31"/>
      <use x="63.623046875" xlink:href="#BitstreamVeraSans-Roman-35"/>
     </g>
    </g>
    <g id="line2d_83">
     <path d="M 438.495937 304.295937 
L 452.495937 304.295937 
" style="fill:none;stroke:#ff9b52;stroke-linecap:square;"/>
    </g>
    <g id="line2d_84"/>
    <g id="text_36">
     <!-- 16 -->
     <g transform="translate(463.4959375 307.7959375)scale(0.1 -0.1)">
      <use xlink:href="#BitstreamVeraSans-Roman-31"/>
      <use x="63.623046875" xlink:href="#BitstreamVeraSans-Roman-36"/>
     </g>
    </g>
    <g id="line2d_85">
     <path d="M 438.495937 318.974062 
L 452.495937 318.974062 
" style="fill:none;stroke:#ff793e;stroke-linecap:square;"/>
    </g>
    <g id="line2d_86"/>
    <g id="text_37">
     <!-- 17 -->
     <g transform="translate(463.4959375 322.4740625)scale(0.1 -0.1)">
      <use xlink:href="#BitstreamVeraSans-Roman-31"/>
      <use x="63.623046875" xlink:href="#BitstreamVeraSans-Roman-37"/>
     </g>
    </g>
    <g id="line2d_87">
     <path d="M 438.495937 333.652187 
L 452.495937 333.652187 
" style="fill:none;stroke:#ff5029;stroke-linecap:square;"/>
    </g>
    <g id="line2d_88"/>
    <g id="text_38">
     <!-- 18 -->
     <g transform="translate(463.4959375 337.1521875)scale(0.1 -0.1)">
      <use xlink:href="#BitstreamVeraSans-Roman-31"/>
      <use x="63.623046875" xlink:href="#BitstreamVeraSans-Roman-38"/>
     </g>
    </g>
    <g id="line2d_89">
     <path d="M 438.495937 348.330312 
L 452.495937 348.330312 
" style="fill:none;stroke:#ff2914;stroke-linecap:square;"/>
    </g>
    <g id="line2d_90"/>
    <g id="text_39">
     <!-- 19 -->
     <g transform="translate(463.4959375 351.8303125)scale(0.1 -0.1)">
      <use xlink:href="#BitstreamVeraSans-Roman-31"/>
      <use x="63.623046875" xlink:href="#BitstreamVeraSans-Roman-39"/>
     </g>
    </g>
    <g id="line2d_91">
     <path d="M 438.495937 363.008437 
L 452.495937 363.008437 
" style="fill:none;stroke:#ff0000;stroke-linecap:square;"/>
    </g>
    <g id="line2d_92"/>
    <g id="text_40">
     <!-- 20 -->
     <g transform="translate(463.4959375 366.5084375)scale(0.1 -0.1)">
      <use xlink:href="#BitstreamVeraSans-Roman-32"/>
      <use x="63.623046875" xlink:href="#BitstreamVeraSans-Roman-30"/>
     </g>
    </g>
   </g>
  </g>
 </g>
 <defs>
  <clipPath id="p31b2f7ee94">
   <rect height="345.6" width="446.4" x="72.0" y="43.2"/>
  </clipPath>
 </defs>
</svg>
