<?xml version="1.0" encoding="utf-8" standalone="no"?>
<!DOCTYPE svg PUBLIC "-//W3C//DTD SVG 1.1//EN"
  "http://www.w3.org/Graphics/SVG/1.1/DTD/svg11.dtd">
<!-- Created with matplotlib (http://matplotlib.org/) -->
<svg height="432pt" version="1.1" viewBox="0 0 576 432" width="576pt" xmlns="http://www.w3.org/2000/svg" xmlns:xlink="http://www.w3.org/1999/xlink">
 <defs>
  <style type="text/css">
*{stroke-linecap:butt;stroke-linejoin:round;stroke-miterlimit:100000;}
  </style>
 </defs>
 <g id="figure_1">
  <g id="patch_1">
   <path d="M 0 432 
L 576 432 
L 576 0 
L 0 0 
z
" style="fill:#ffffff;"/>
  </g>
  <g id="axes_1">
   <g id="patch_2">
    <path d="M 72 200.290909 
L 274.909091 200.290909 
L 274.909091 43.2 
L 72 43.2 
z
" style="fill:#ffffff;"/>
   </g>
   <g id="line2d_1">
    <path clip-path="url(#pe0bc56e693)" d="M 72 200.290909 
L 75.381818 200.290909 
L 78.763636 126.611102 
L 82.145455 87.685921 
L 85.527273 64.747868 
L 88.909091 56.17506 
L 92.290909 49.68753 
L 95.672727 46.90716 
L 99.054545 45.05358 
L 102.436364 44.12679 
L 105.818182 44.12679 
L 109.2 43.431698 
L 112.581818 43.2 
L 115.963636 43.2 
L 119.345455 43.2 
L 122.727273 43.2 
L 126.109091 43.2 
L 129.490909 43.2 
L 132.872727 43.2 
L 136.254545 43.2 
L 139.636364 43.2 
L 143.018182 43.2 
L 146.4 43.2 
L 149.781818 43.2 
L 153.163636 43.2 
L 156.545455 43.2 
L 159.927273 43.2 
L 163.309091 43.2 
L 166.690909 43.2 
L 170.072727 43.2 
L 173.454545 43.2 
L 176.836364 43.2 
L 180.218182 43.2 
L 183.6 43.2 
L 186.981818 43.2 
L 190.363636 43.2 
L 193.745455 43.2 
L 197.127273 43.2 
L 200.509091 43.2 
L 203.890909 43.2 
L 207.272727 43.2 
L 210.654545 43.2 
L 214.036364 43.2 
L 217.418182 43.2 
L 220.8 43.2 
L 224.181818 43.2 
L 227.563636 43.2 
L 230.945455 43.2 
L 234.327273 43.2 
L 237.709091 43.2 
L 241.090909 43.2 
L 244.472727 43.2 
L 247.854545 43.2 
L 251.236364 43.2 
L 254.618182 43.2 
L 258 43.2 
L 261.381818 43.2 
L 264.763636 43.2 
L 268.145455 43.2 
L 271.527273 43.2 
L 274.909091 43.2 
" style="fill:none;stroke:#8000ff;stroke-linecap:square;"/>
   </g>
   <g id="line2d_2">
    <path clip-path="url(#pe0bc56e693)" d="M 72 200.290909 
L 75.381818 200.290909 
L 78.763636 133.098632 
L 82.145455 96.722124 
L 85.527273 75.405953 
L 88.909091 65.442961 
L 92.290909 57.565245 
L 95.672727 52.931295 
L 99.054545 50.61432 
L 102.436364 47.83395 
L 105.818182 46.675463 
L 109.2 46.443765 
L 112.581818 46.212068 
L 115.963636 45.98037 
L 119.345455 45.98037 
L 122.727273 45.748673 
L 126.109091 45.748673 
L 129.490909 45.516975 
L 132.872727 45.516975 
L 136.254545 45.516975 
L 139.636364 45.516975 
L 143.018182 45.516975 
L 146.4 45.516975 
L 149.781818 45.516975 
L 153.163636 45.516975 
L 156.545455 45.516975 
L 159.927273 45.516975 
L 163.309091 45.516975 
L 166.690909 45.516975 
L 170.072727 45.516975 
L 173.454545 45.516975 
L 176.836364 45.516975 
L 180.218182 45.516975 
L 183.6 45.516975 
L 186.981818 45.516975 
L 190.363636 45.516975 
L 193.745455 45.516975 
L 197.127273 45.516975 
L 200.509091 45.516975 
L 203.890909 45.516975 
L 207.272727 45.516975 
L 210.654545 45.516975 
L 214.036364 45.516975 
L 217.418182 45.516975 
L 220.8 45.516975 
L 224.181818 45.516975 
L 227.563636 45.516975 
L 230.945455 45.516975 
L 234.327273 45.516975 
L 237.709091 45.516975 
L 241.090909 45.516975 
L 244.472727 45.516975 
L 247.854545 45.516975 
L 251.236364 45.516975 
L 254.618182 45.516975 
L 258 45.516975 
L 261.381818 45.516975 
L 264.763636 45.516975 
L 268.145455 45.516975 
L 271.527273 45.516975 
L 274.909091 45.516975 
" style="fill:none;stroke:#5e35fe;stroke-linecap:square;"/>
   </g>
   <g id="line2d_3">
    <path clip-path="url(#pe0bc56e693)" d="M 72 200.290909 
L 75.381818 200.290909 
L 78.763636 162.060821 
L 82.145455 138.195977 
L 85.527273 120.35527 
L 88.909091 110.160579 
L 92.290909 102.051167 
L 95.672727 97.185519 
L 99.054545 94.405149 
L 102.436364 92.088174 
L 105.818182 90.466291 
L 109.2 88.844409 
L 112.581818 88.149316 
L 115.963636 87.685921 
L 119.345455 87.222526 
L 122.727273 86.295736 
L 126.109091 85.832341 
L 129.490909 85.368946 
L 132.872727 85.368946 
L 136.254545 84.905551 
L 139.636364 84.905551 
L 143.018182 84.673854 
L 146.4 84.673854 
L 149.781818 84.673854 
L 153.163636 84.673854 
L 156.545455 83.978761 
L 159.927273 83.747064 
L 163.309091 83.747064 
L 166.690909 83.515366 
L 170.072727 83.515366 
L 173.454545 83.515366 
L 176.836364 83.515366 
L 180.218182 83.515366 
L 183.6 83.515366 
L 186.981818 83.515366 
L 190.363636 83.515366 
L 193.745455 83.515366 
L 197.127273 83.515366 
L 200.509091 83.515366 
L 203.890909 83.515366 
L 207.272727 83.515366 
L 210.654545 83.515366 
L 214.036364 83.515366 
L 217.418182 83.515366 
L 220.8 83.515366 
L 224.181818 83.515366 
L 227.563636 83.515366 
L 230.945455 83.515366 
L 234.327273 83.515366 
L 237.709091 83.515366 
L 241.090909 83.515366 
L 244.472727 83.515366 
L 247.854545 83.515366 
L 251.236364 83.515366 
L 254.618182 83.515366 
L 258 83.515366 
L 261.381818 83.515366 
L 264.763636 83.515366 
L 268.145455 83.515366 
L 271.527273 83.515366 
L 274.909091 83.515366 
" style="fill:none;stroke:#3c68f9;stroke-linecap:square;"/>
   </g>
   <g id="line2d_4">
    <path clip-path="url(#pe0bc56e693)" d="M 72 200.290909 
L 75.381818 200.290909 
L 78.763636 167.158166 
L 82.145455 159.280451 
L 85.527273 157.195173 
L 88.909091 156.731778 
L 92.290909 156.731778 
L 95.672727 156.731778 
L 99.054545 156.731778 
L 102.436364 156.731778 
L 105.818182 156.731778 
L 109.2 156.731778 
L 112.581818 156.731778 
L 115.963636 156.731778 
L 119.345455 156.731778 
L 122.727273 156.731778 
L 126.109091 156.731778 
L 129.490909 156.731778 
L 132.872727 156.731778 
L 136.254545 156.731778 
L 139.636364 156.731778 
L 143.018182 156.731778 
L 146.4 156.731778 
L 149.781818 156.731778 
L 153.163636 156.731778 
L 156.545455 156.731778 
L 159.927273 156.731778 
L 163.309091 156.731778 
L 166.690909 156.731778 
L 170.072727 156.731778 
L 173.454545 156.731778 
L 176.836364 156.731778 
L 180.218182 156.731778 
L 183.6 156.731778 
L 186.981818 156.731778 
L 190.363636 156.731778 
L 193.745455 156.731778 
L 197.127273 156.731778 
L 200.509091 156.731778 
L 203.890909 156.731778 
L 207.272727 156.731778 
L 210.654545 156.731778 
L 214.036364 156.731778 
L 217.418182 156.731778 
L 220.8 156.731778 
L 224.181818 156.731778 
L 227.563636 156.731778 
L 230.945455 156.731778 
L 234.327273 156.731778 
L 237.709091 156.731778 
L 241.090909 156.731778 
L 244.472727 156.731778 
L 247.854545 156.731778 
L 251.236364 156.731778 
L 254.618182 156.731778 
L 258 156.731778 
L 261.381818 156.731778 
L 264.763636 156.731778 
L 268.145455 156.731778 
L 271.527273 156.731778 
L 274.909091 156.731778 
" style="fill:none;stroke:#1996f3;stroke-linecap:square;"/>
   </g>
   <g id="line2d_5">
    <path clip-path="url(#pe0bc56e693)" d="M 72 200.290909 
L 75.381818 200.290909 
L 78.763636 197.742237 
L 82.145455 197.742237 
L 85.527273 197.510539 
L 88.909091 197.510539 
L 92.290909 197.510539 
L 95.672727 197.510539 
L 99.054545 197.510539 
L 102.436364 197.510539 
L 105.818182 197.510539 
L 109.2 197.510539 
L 112.581818 197.510539 
L 115.963636 197.510539 
L 119.345455 197.510539 
L 122.727273 197.510539 
L 126.109091 197.510539 
L 129.490909 197.510539 
L 132.872727 197.510539 
L 136.254545 197.510539 
L 139.636364 197.510539 
L 143.018182 197.510539 
L 146.4 197.510539 
L 149.781818 197.510539 
L 153.163636 197.510539 
L 156.545455 197.510539 
L 159.927273 197.510539 
L 163.309091 197.510539 
L 166.690909 197.510539 
L 170.072727 197.510539 
L 173.454545 197.510539 
L 176.836364 197.510539 
L 180.218182 197.510539 
L 183.6 197.510539 
L 186.981818 197.510539 
L 190.363636 197.510539 
L 193.745455 197.510539 
L 197.127273 197.510539 
L 200.509091 197.510539 
L 203.890909 197.510539 
L 207.272727 197.510539 
L 210.654545 197.510539 
L 214.036364 197.510539 
L 217.418182 197.510539 
L 220.8 197.510539 
L 224.181818 197.510539 
L 227.563636 197.510539 
L 230.945455 197.510539 
L 234.327273 197.510539 
L 237.709091 197.510539 
L 241.090909 197.510539 
L 244.472727 197.510539 
L 247.854545 197.510539 
L 251.236364 197.510539 
L 254.618182 197.510539 
L 258 197.510539 
L 261.381818 197.510539 
L 264.763636 197.510539 
L 268.145455 197.510539 
L 271.527273 197.510539 
L 274.909091 197.510539 
" style="fill:none;stroke:#08bee9;stroke-linecap:square;"/>
   </g>
   <g id="line2d_6">
    <path clip-path="url(#pe0bc56e693)" d="M 72 200.290909 
L 75.381818 200.290909 
L 78.763636 196.815447 
L 82.145455 196.583749 
L 85.527273 196.583749 
L 88.909091 196.583749 
L 92.290909 196.583749 
L 95.672727 196.583749 
L 99.054545 196.583749 
L 102.436364 196.583749 
L 105.818182 196.583749 
L 109.2 196.583749 
L 112.581818 196.583749 
L 115.963636 196.583749 
L 119.345455 196.583749 
L 122.727273 196.583749 
L 126.109091 196.583749 
L 129.490909 196.583749 
L 132.872727 196.583749 
L 136.254545 196.583749 
L 139.636364 196.583749 
L 143.018182 196.583749 
L 146.4 196.583749 
L 149.781818 196.583749 
L 153.163636 196.583749 
L 156.545455 196.583749 
L 159.927273 196.583749 
L 163.309091 196.583749 
L 166.690909 196.583749 
L 170.072727 196.583749 
L 173.454545 196.583749 
L 176.836364 196.583749 
L 180.218182 196.583749 
L 183.6 196.583749 
L 186.981818 196.583749 
L 190.363636 196.583749 
L 193.745455 196.583749 
L 197.127273 196.583749 
L 200.509091 196.583749 
L 203.890909 196.583749 
L 207.272727 196.583749 
L 210.654545 196.583749 
L 214.036364 196.583749 
L 217.418182 196.583749 
L 220.8 196.583749 
L 224.181818 196.583749 
L 227.563636 196.583749 
L 230.945455 196.583749 
L 234.327273 196.583749 
L 237.709091 196.583749 
L 241.090909 196.583749 
L 244.472727 196.583749 
L 247.854545 196.583749 
L 251.236364 196.583749 
L 254.618182 196.583749 
L 258 196.583749 
L 261.381818 196.583749 
L 264.763636 196.583749 
L 268.145455 196.583749 
L 271.527273 196.583749 
L 274.909091 196.583749 
" style="fill:none;stroke:#2adddd;stroke-linecap:square;"/>
   </g>
   <g id="line2d_7">
    <path clip-path="url(#pe0bc56e693)" d="M 72 200.290909 
L 75.381818 200.290909 
L 78.763636 168.084956 
L 82.145455 162.292518 
L 85.527273 160.670636 
L 88.909091 160.207241 
L 92.290909 160.207241 
L 95.672727 160.207241 
L 99.054545 159.975543 
L 102.436364 159.975543 
L 105.818182 159.975543 
L 109.2 159.975543 
L 112.581818 159.975543 
L 115.963636 159.743846 
L 119.345455 159.743846 
L 122.727273 159.512148 
L 126.109091 159.512148 
L 129.490909 159.512148 
L 132.872727 159.512148 
L 136.254545 159.512148 
L 139.636364 159.512148 
L 143.018182 159.512148 
L 146.4 159.512148 
L 149.781818 159.512148 
L 153.163636 159.512148 
L 156.545455 159.280451 
L 159.927273 159.280451 
L 163.309091 159.280451 
L 166.690909 159.280451 
L 170.072727 159.280451 
L 173.454545 159.280451 
L 176.836364 159.280451 
L 180.218182 159.280451 
L 183.6 159.280451 
L 186.981818 159.280451 
L 190.363636 159.280451 
L 193.745455 159.280451 
L 197.127273 159.280451 
L 200.509091 159.280451 
L 203.890909 159.280451 
L 207.272727 159.280451 
L 210.654545 159.280451 
L 214.036364 159.280451 
L 217.418182 159.280451 
L 220.8 159.280451 
L 224.181818 159.280451 
L 227.563636 159.280451 
L 230.945455 159.280451 
L 234.327273 159.280451 
L 237.709091 159.280451 
L 241.090909 159.280451 
L 244.472727 159.280451 
L 247.854545 159.280451 
L 251.236364 159.280451 
L 254.618182 159.280451 
L 258 159.280451 
L 261.381818 159.280451 
L 264.763636 159.280451 
L 268.145455 159.280451 
L 271.527273 159.280451 
L 274.909091 159.280451 
" style="fill:none;stroke:#4df3ce;stroke-linecap:square;"/>
   </g>
   <g id="line2d_8">
    <path clip-path="url(#pe0bc56e693)" d="M 72 200.290909 
L 75.381818 200.290909 
L 78.763636 188.010941 
L 82.145455 184.535479 
L 85.527273 184.535479 
L 88.909091 184.535479 
L 92.290909 184.535479 
L 95.672727 184.535479 
L 99.054545 184.535479 
L 102.436364 184.535479 
L 105.818182 184.535479 
L 109.2 184.535479 
L 112.581818 184.535479 
L 115.963636 184.535479 
L 119.345455 184.535479 
L 122.727273 184.535479 
L 126.109091 184.535479 
L 129.490909 184.535479 
L 132.872727 184.535479 
L 136.254545 184.535479 
L 139.636364 184.535479 
L 143.018182 184.535479 
L 146.4 184.535479 
L 149.781818 184.535479 
L 153.163636 184.535479 
L 156.545455 184.535479 
L 159.927273 184.535479 
L 163.309091 184.535479 
L 166.690909 184.535479 
L 170.072727 184.535479 
L 173.454545 184.535479 
L 176.836364 184.535479 
L 180.218182 184.535479 
L 183.6 184.535479 
L 186.981818 184.535479 
L 190.363636 184.535479 
L 193.745455 184.535479 
L 197.127273 184.535479 
L 200.509091 184.535479 
L 203.890909 184.535479 
L 207.272727 184.535479 
L 210.654545 184.535479 
L 214.036364 184.535479 
L 217.418182 184.535479 
L 220.8 184.535479 
L 224.181818 184.535479 
L 227.563636 184.535479 
L 230.945455 184.535479 
L 234.327273 184.535479 
L 237.709091 184.535479 
L 241.090909 184.535479 
L 244.472727 184.535479 
L 247.854545 184.535479 
L 251.236364 184.535479 
L 254.618182 184.535479 
L 258 184.535479 
L 261.381818 184.535479 
L 264.763636 184.535479 
L 268.145455 184.535479 
L 271.527273 184.535479 
L 274.909091 184.535479 
" style="fill:none;stroke:#6efebe;stroke-linecap:square;"/>
   </g>
   <g id="line2d_9">
    <path clip-path="url(#pe0bc56e693)" d="M 72 200.290909 
L 75.381818 200.290909 
L 78.763636 168.780048 
L 82.145455 159.743846 
L 85.527273 158.35366 
L 88.909091 158.121963 
L 92.290909 158.121963 
L 95.672727 158.121963 
L 99.054545 158.121963 
L 102.436364 158.121963 
L 105.818182 158.121963 
L 109.2 158.121963 
L 112.581818 158.121963 
L 115.963636 158.121963 
L 119.345455 158.121963 
L 122.727273 158.121963 
L 126.109091 158.121963 
L 129.490909 158.121963 
L 132.872727 158.121963 
L 136.254545 158.121963 
L 139.636364 158.121963 
L 143.018182 158.121963 
L 146.4 158.121963 
L 149.781818 158.121963 
L 153.163636 158.121963 
L 156.545455 158.121963 
L 159.927273 158.121963 
L 163.309091 158.121963 
L 166.690909 158.121963 
L 170.072727 158.121963 
L 173.454545 158.121963 
L 176.836364 158.121963 
L 180.218182 158.121963 
L 183.6 158.121963 
L 186.981818 158.121963 
L 190.363636 158.121963 
L 193.745455 158.121963 
L 197.127273 158.121963 
L 200.509091 158.121963 
L 203.890909 158.121963 
L 207.272727 158.121963 
L 210.654545 158.121963 
L 214.036364 158.121963 
L 217.418182 158.121963 
L 220.8 158.121963 
L 224.181818 158.121963 
L 227.563636 158.121963 
L 230.945455 158.121963 
L 234.327273 158.121963 
L 237.709091 158.121963 
L 241.090909 158.121963 
L 244.472727 158.121963 
L 247.854545 158.121963 
L 251.236364 158.121963 
L 254.618182 158.121963 
L 258 158.121963 
L 261.381818 158.121963 
L 264.763636 158.121963 
L 268.145455 158.121963 
L 271.527273 158.121963 
L 274.909091 158.121963 
" style="fill:none;stroke:#90feab;stroke-linecap:square;"/>
   </g>
   <g id="line2d_10">
    <path clip-path="url(#pe0bc56e693)" d="M 72 200.290909 
L 75.381818 200.290909 
L 78.763636 187.315849 
L 82.145455 184.767176 
L 85.527273 183.608689 
L 88.909091 183.608689 
L 92.290909 183.608689 
L 95.672727 183.608689 
L 99.054545 183.608689 
L 102.436364 183.608689 
L 105.818182 183.608689 
L 109.2 183.608689 
L 112.581818 183.608689 
L 115.963636 183.608689 
L 119.345455 183.608689 
L 122.727273 183.608689 
L 126.109091 183.608689 
L 129.490909 183.608689 
L 132.872727 183.608689 
L 136.254545 183.608689 
L 139.636364 183.608689 
L 143.018182 183.608689 
L 146.4 183.608689 
L 149.781818 183.608689 
L 153.163636 183.608689 
L 156.545455 183.608689 
L 159.927273 183.608689 
L 163.309091 183.608689 
L 166.690909 183.608689 
L 170.072727 183.608689 
L 173.454545 183.608689 
L 176.836364 183.608689 
L 180.218182 183.608689 
L 183.6 183.608689 
L 186.981818 183.608689 
L 190.363636 183.608689 
L 193.745455 183.608689 
L 197.127273 183.608689 
L 200.509091 183.608689 
L 203.890909 183.608689 
L 207.272727 183.608689 
L 210.654545 183.608689 
L 214.036364 183.608689 
L 217.418182 183.608689 
L 220.8 183.608689 
L 224.181818 183.608689 
L 227.563636 183.608689 
L 230.945455 183.608689 
L 234.327273 183.608689 
L 237.709091 183.608689 
L 241.090909 183.608689 
L 244.472727 183.608689 
L 247.854545 183.608689 
L 251.236364 183.608689 
L 254.618182 183.608689 
L 258 183.608689 
L 261.381818 183.608689 
L 264.763636 183.608689 
L 268.145455 183.608689 
L 271.527273 183.608689 
L 274.909091 183.608689 
" style="fill:none;stroke:#b2f396;stroke-linecap:square;"/>
   </g>
   <g id="line2d_11">
    <path clip-path="url(#pe0bc56e693)" d="M 72 200.290909 
L 75.381818 200.290909 
L 78.763636 191.486404 
L 82.145455 189.632824 
L 85.527273 189.401126 
L 88.909091 189.401126 
L 92.290909 189.401126 
L 95.672727 189.401126 
L 99.054545 189.401126 
L 102.436364 189.401126 
L 105.818182 189.401126 
L 109.2 189.401126 
L 112.581818 189.401126 
L 115.963636 189.401126 
L 119.345455 189.401126 
L 122.727273 189.401126 
L 126.109091 189.401126 
L 129.490909 189.401126 
L 132.872727 189.401126 
L 136.254545 189.401126 
L 139.636364 189.401126 
L 143.018182 189.401126 
L 146.4 189.401126 
L 149.781818 189.401126 
L 153.163636 189.401126 
L 156.545455 189.401126 
L 159.927273 189.401126 
L 163.309091 189.401126 
L 166.690909 189.401126 
L 170.072727 189.401126 
L 173.454545 189.401126 
L 176.836364 189.401126 
L 180.218182 189.401126 
L 183.6 189.401126 
L 186.981818 189.401126 
L 190.363636 189.401126 
L 193.745455 189.401126 
L 197.127273 189.401126 
L 200.509091 189.401126 
L 203.890909 189.401126 
L 207.272727 189.401126 
L 210.654545 189.401126 
L 214.036364 189.401126 
L 217.418182 189.401126 
L 220.8 189.401126 
L 224.181818 189.401126 
L 227.563636 189.401126 
L 230.945455 189.401126 
L 234.327273 189.401126 
L 237.709091 189.401126 
L 241.090909 189.401126 
L 244.472727 189.401126 
L 247.854545 189.401126 
L 251.236364 189.401126 
L 254.618182 189.401126 
L 258 189.401126 
L 261.381818 189.401126 
L 264.763636 189.401126 
L 268.145455 189.401126 
L 271.527273 189.401126 
L 274.909091 189.401126 
" style="fill:none;stroke:#d4dd80;stroke-linecap:square;"/>
   </g>
   <g id="line2d_12">
    <path clip-path="url(#pe0bc56e693)" d="M 72 200.290909 
L 75.381818 200.290909 
L 78.763636 200.290909 
L 82.145455 200.290909 
L 85.527273 200.290909 
L 88.909091 200.290909 
L 92.290909 200.290909 
L 95.672727 200.290909 
L 99.054545 200.290909 
L 102.436364 200.290909 
L 105.818182 200.290909 
L 109.2 200.290909 
L 112.581818 200.290909 
L 115.963636 200.290909 
L 119.345455 200.290909 
L 122.727273 200.290909 
L 126.109091 200.290909 
L 129.490909 200.290909 
L 132.872727 200.290909 
L 136.254545 200.290909 
L 139.636364 200.290909 
L 143.018182 200.290909 
L 146.4 200.290909 
L 149.781818 200.290909 
L 153.163636 200.290909 
L 156.545455 200.290909 
L 159.927273 200.290909 
L 163.309091 200.290909 
L 166.690909 200.290909 
L 170.072727 200.290909 
L 173.454545 200.290909 
L 176.836364 200.290909 
L 180.218182 200.290909 
L 183.6 200.290909 
L 186.981818 200.290909 
L 190.363636 200.290909 
L 193.745455 200.290909 
L 197.127273 200.290909 
L 200.509091 200.290909 
L 203.890909 200.290909 
L 207.272727 200.290909 
L 210.654545 200.290909 
L 214.036364 200.290909 
L 217.418182 200.290909 
L 220.8 200.290909 
L 224.181818 200.290909 
L 227.563636 200.290909 
L 230.945455 200.290909 
L 234.327273 200.290909 
L 237.709091 200.290909 
L 241.090909 200.290909 
L 244.472727 200.290909 
L 247.854545 200.290909 
L 251.236364 200.290909 
L 254.618182 200.290909 
L 258 200.290909 
L 261.381818 200.290909 
L 264.763636 200.290909 
L 268.145455 200.290909 
L 271.527273 200.290909 
L 274.909091 200.290909 
" style="fill:none;stroke:#f6be68;stroke-linecap:square;"/>
   </g>
   <g id="line2d_13">
    <path clip-path="url(#pe0bc56e693)" d="M 72 200.290909 
L 75.381818 200.290909 
L 78.763636 165.072888 
L 82.145455 157.890265 
L 85.527273 155.57329 
L 88.909091 155.109895 
L 92.290909 154.878198 
L 95.672727 154.6465 
L 99.054545 154.6465 
L 102.436364 154.6465 
L 105.818182 154.6465 
L 109.2 154.6465 
L 112.581818 154.6465 
L 115.963636 154.6465 
L 119.345455 154.6465 
L 122.727273 154.6465 
L 126.109091 154.6465 
L 129.490909 154.6465 
L 132.872727 154.6465 
L 136.254545 154.6465 
L 139.636364 154.6465 
L 143.018182 154.6465 
L 146.4 154.6465 
L 149.781818 154.6465 
L 153.163636 154.6465 
L 156.545455 154.6465 
L 159.927273 154.6465 
L 163.309091 154.6465 
L 166.690909 154.6465 
L 170.072727 154.6465 
L 173.454545 154.6465 
L 176.836364 154.6465 
L 180.218182 154.6465 
L 183.6 154.6465 
L 186.981818 154.6465 
L 190.363636 154.6465 
L 193.745455 154.6465 
L 197.127273 154.6465 
L 200.509091 154.6465 
L 203.890909 154.6465 
L 207.272727 154.6465 
L 210.654545 154.6465 
L 214.036364 154.6465 
L 217.418182 154.6465 
L 220.8 154.6465 
L 224.181818 154.6465 
L 227.563636 154.6465 
L 230.945455 154.6465 
L 234.327273 154.6465 
L 237.709091 154.6465 
L 241.090909 154.6465 
L 244.472727 154.6465 
L 247.854545 154.6465 
L 251.236364 154.6465 
L 254.618182 154.6465 
L 258 154.6465 
L 261.381818 154.6465 
L 264.763636 154.6465 
L 268.145455 154.6465 
L 271.527273 154.6465 
L 274.909091 154.6465 
" style="fill:none;stroke:#ff964f;stroke-linecap:square;"/>
   </g>
   <g id="line2d_14">
    <path clip-path="url(#pe0bc56e693)" d="M 72 200.290909 
L 75.381818 200.290909 
L 78.763636 139.586163 
L 82.145455 120.35527 
L 85.527273 115.026227 
L 88.909091 114.099437 
L 92.290909 113.404344 
L 95.672727 113.172647 
L 99.054545 113.172647 
L 102.436364 113.172647 
L 105.818182 113.172647 
L 109.2 113.172647 
L 112.581818 113.172647 
L 115.963636 113.172647 
L 119.345455 113.172647 
L 122.727273 113.172647 
L 126.109091 113.172647 
L 129.490909 113.172647 
L 132.872727 113.172647 
L 136.254545 113.172647 
L 139.636364 113.172647 
L 143.018182 113.172647 
L 146.4 113.172647 
L 149.781818 113.172647 
L 153.163636 113.172647 
L 156.545455 113.172647 
L 159.927273 113.172647 
L 163.309091 113.172647 
L 166.690909 113.172647 
L 170.072727 113.172647 
L 173.454545 113.172647 
L 176.836364 113.172647 
L 180.218182 113.172647 
L 183.6 113.172647 
L 186.981818 113.172647 
L 190.363636 113.172647 
L 193.745455 113.172647 
L 197.127273 113.172647 
L 200.509091 113.172647 
L 203.890909 113.172647 
L 207.272727 113.172647 
L 210.654545 113.172647 
L 214.036364 113.172647 
L 217.418182 113.172647 
L 220.8 113.172647 
L 224.181818 113.172647 
L 227.563636 113.172647 
L 230.945455 113.172647 
L 234.327273 113.172647 
L 237.709091 113.172647 
L 241.090909 113.172647 
L 244.472727 113.172647 
L 247.854545 113.172647 
L 251.236364 113.172647 
L 254.618182 113.172647 
L 258 113.172647 
L 261.381818 113.172647 
L 264.763636 113.172647 
L 268.145455 113.172647 
L 271.527273 113.172647 
L 274.909091 113.172647 
" style="fill:none;stroke:#ff6835;stroke-linecap:square;"/>
   </g>
   <g id="line2d_15">
    <path clip-path="url(#pe0bc56e693)" d="M 72 200.290909 
L 75.381818 200.290909 
L 78.763636 174.340788 
L 82.145455 162.987611 
L 85.527273 159.048753 
L 88.909091 156.50008 
L 92.290909 156.036685 
L 95.672727 155.804988 
L 99.054545 155.804988 
L 102.436364 155.804988 
L 105.818182 155.804988 
L 109.2 155.804988 
L 112.581818 155.804988 
L 115.963636 155.804988 
L 119.345455 155.804988 
L 122.727273 155.804988 
L 126.109091 155.804988 
L 129.490909 155.804988 
L 132.872727 155.804988 
L 136.254545 155.804988 
L 139.636364 155.804988 
L 143.018182 155.804988 
L 146.4 155.804988 
L 149.781818 155.804988 
L 153.163636 155.804988 
L 156.545455 155.804988 
L 159.927273 155.804988 
L 163.309091 155.804988 
L 166.690909 155.804988 
L 170.072727 155.804988 
L 173.454545 155.804988 
L 176.836364 155.804988 
L 180.218182 155.804988 
L 183.6 155.804988 
L 186.981818 155.804988 
L 190.363636 155.804988 
L 193.745455 155.804988 
L 197.127273 155.804988 
L 200.509091 155.804988 
L 203.890909 155.804988 
L 207.272727 155.804988 
L 210.654545 155.804988 
L 214.036364 155.804988 
L 217.418182 155.804988 
L 220.8 155.804988 
L 224.181818 155.804988 
L 227.563636 155.804988 
L 230.945455 155.804988 
L 234.327273 155.804988 
L 237.709091 155.804988 
L 241.090909 155.804988 
L 244.472727 155.804988 
L 247.854545 155.804988 
L 251.236364 155.804988 
L 254.618182 155.804988 
L 258 155.804988 
L 261.381818 155.804988 
L 264.763636 155.804988 
L 268.145455 155.804988 
L 271.527273 155.804988 
L 274.909091 155.804988 
" style="fill:none;stroke:#ff351b;stroke-linecap:square;"/>
   </g>
   <g id="line2d_16">
    <path clip-path="url(#pe0bc56e693)" d="M 72 200.290909 
L 75.381818 200.290909 
L 78.763636 184.072084 
L 82.145455 181.755109 
L 85.527273 179.901529 
L 88.909091 179.669831 
L 92.290909 179.669831 
L 95.672727 179.669831 
L 99.054545 179.669831 
L 102.436364 179.669831 
L 105.818182 179.669831 
L 109.2 179.669831 
L 112.581818 179.669831 
L 115.963636 179.669831 
L 119.345455 179.669831 
L 122.727273 179.669831 
L 126.109091 179.669831 
L 129.490909 179.669831 
L 132.872727 179.669831 
L 136.254545 179.669831 
L 139.636364 179.669831 
L 143.018182 179.669831 
L 146.4 179.669831 
L 149.781818 179.669831 
L 153.163636 179.669831 
L 156.545455 179.669831 
L 159.927273 179.669831 
L 163.309091 179.669831 
L 166.690909 179.669831 
L 170.072727 179.669831 
L 173.454545 179.669831 
L 176.836364 179.669831 
L 180.218182 179.669831 
L 183.6 179.669831 
L 186.981818 179.669831 
L 190.363636 179.669831 
L 193.745455 179.669831 
L 197.127273 179.669831 
L 200.509091 179.669831 
L 203.890909 179.669831 
L 207.272727 179.669831 
L 210.654545 179.669831 
L 214.036364 179.669831 
L 217.418182 179.669831 
L 220.8 179.669831 
L 224.181818 179.669831 
L 227.563636 179.669831 
L 230.945455 179.669831 
L 234.327273 179.669831 
L 237.709091 179.669831 
L 241.090909 179.669831 
L 244.472727 179.669831 
L 247.854545 179.669831 
L 251.236364 179.669831 
L 254.618182 179.669831 
L 258 179.669831 
L 261.381818 179.669831 
L 264.763636 179.669831 
L 268.145455 179.669831 
L 271.527273 179.669831 
L 274.909091 179.669831 
" style="fill:none;stroke:#ff0000;stroke-linecap:square;"/>
   </g>
   <g id="patch_3">
    <path d="M 72 43.2 
L 274.909091 43.2 
" style="fill:none;stroke:#000000;stroke-linecap:square;stroke-linejoin:miter;"/>
   </g>
   <g id="patch_4">
    <path d="M 72 200.290909 
L 274.909091 200.290909 
" style="fill:none;stroke:#000000;stroke-linecap:square;stroke-linejoin:miter;"/>
   </g>
   <g id="patch_5">
    <path d="M 72 200.290909 
L 72 43.2 
" style="fill:none;stroke:#000000;stroke-linecap:square;stroke-linejoin:miter;"/>
   </g>
   <g id="patch_6">
    <path d="M 274.909091 200.290909 
L 274.909091 43.2 
" style="fill:none;stroke:#000000;stroke-linecap:square;stroke-linejoin:miter;"/>
   </g>
   <g id="matplotlib.axis_1">
    <g id="xtick_1">
     <g id="line2d_17">
      <defs>
       <path d="M 0 0 
L 0 -4 
" id="m293ce67c89" style="stroke:#000000;stroke-width:0.5;"/>
      </defs>
      <g>
       <use style="stroke:#000000;stroke-width:0.5;" x="72.0" xlink:href="#m293ce67c89" y="200.290909091"/>
      </g>
     </g>
     <g id="line2d_18">
      <defs>
       <path d="M 0 0 
L 0 4 
" id="m63dbe49119" style="stroke:#000000;stroke-width:0.5;"/>
      </defs>
      <g>
       <use style="stroke:#000000;stroke-width:0.5;" x="72.0" xlink:href="#m63dbe49119" y="43.2"/>
      </g>
     </g>
     <g id="text_1">
      <!-- 0 -->
      <defs>
       <path d="M 31.78125 66.40625 
Q 24.171875 66.40625 20.328125 58.90625 
Q 16.5 51.421875 16.5 36.375 
Q 16.5 21.390625 20.328125 13.890625 
Q 24.171875 6.390625 31.78125 6.390625 
Q 39.453125 6.390625 43.28125 13.890625 
Q 47.125 21.390625 47.125 36.375 
Q 47.125 51.421875 43.28125 58.90625 
Q 39.453125 66.40625 31.78125 66.40625 
M 31.78125 74.21875 
Q 44.046875 74.21875 50.515625 64.515625 
Q 56.984375 54.828125 56.984375 36.375 
Q 56.984375 17.96875 50.515625 8.265625 
Q 44.046875 -1.421875 31.78125 -1.421875 
Q 19.53125 -1.421875 13.0625 8.265625 
Q 6.59375 17.96875 6.59375 36.375 
Q 6.59375 54.828125 13.0625 64.515625 
Q 19.53125 74.21875 31.78125 74.21875 
" id="BitstreamVeraSans-Roman-30"/>
      </defs>
      <g transform="translate(68.1825 213.409034091)scale(0.12 -0.12)">
       <use xlink:href="#BitstreamVeraSans-Roman-30"/>
      </g>
     </g>
    </g>
    <g id="xtick_2">
     <g id="line2d_19">
      <g>
       <use style="stroke:#000000;stroke-width:0.5;" x="105.818181818" xlink:href="#m293ce67c89" y="200.290909091"/>
      </g>
     </g>
     <g id="line2d_20">
      <g>
       <use style="stroke:#000000;stroke-width:0.5;" x="105.818181818" xlink:href="#m63dbe49119" y="43.2"/>
      </g>
     </g>
     <g id="text_2">
      <!-- 10 -->
      <defs>
       <path d="M 12.40625 8.296875 
L 28.515625 8.296875 
L 28.515625 63.921875 
L 10.984375 60.40625 
L 10.984375 69.390625 
L 28.421875 72.90625 
L 38.28125 72.90625 
L 38.28125 8.296875 
L 54.390625 8.296875 
L 54.390625 0 
L 12.40625 0 
z
" id="BitstreamVeraSans-Roman-31"/>
      </defs>
      <g transform="translate(98.1831818182 213.409034091)scale(0.12 -0.12)">
       <use xlink:href="#BitstreamVeraSans-Roman-31"/>
       <use x="63.623046875" xlink:href="#BitstreamVeraSans-Roman-30"/>
      </g>
     </g>
    </g>
    <g id="xtick_3">
     <g id="line2d_21">
      <g>
       <use style="stroke:#000000;stroke-width:0.5;" x="139.636363636" xlink:href="#m293ce67c89" y="200.290909091"/>
      </g>
     </g>
     <g id="line2d_22">
      <g>
       <use style="stroke:#000000;stroke-width:0.5;" x="139.636363636" xlink:href="#m63dbe49119" y="43.2"/>
      </g>
     </g>
     <g id="text_3">
      <!-- 20 -->
      <defs>
       <path d="M 19.1875 8.296875 
L 53.609375 8.296875 
L 53.609375 0 
L 7.328125 0 
L 7.328125 8.296875 
Q 12.9375 14.109375 22.625 23.890625 
Q 32.328125 33.6875 34.8125 36.53125 
Q 39.546875 41.84375 41.421875 45.53125 
Q 43.3125 49.21875 43.3125 52.78125 
Q 43.3125 58.59375 39.234375 62.25 
Q 35.15625 65.921875 28.609375 65.921875 
Q 23.96875 65.921875 18.8125 64.3125 
Q 13.671875 62.703125 7.8125 59.421875 
L 7.8125 69.390625 
Q 13.765625 71.78125 18.9375 73 
Q 24.125 74.21875 28.421875 74.21875 
Q 39.75 74.21875 46.484375 68.546875 
Q 53.21875 62.890625 53.21875 53.421875 
Q 53.21875 48.921875 51.53125 44.890625 
Q 49.859375 40.875 45.40625 35.40625 
Q 44.1875 33.984375 37.640625 27.21875 
Q 31.109375 20.453125 19.1875 8.296875 
" id="BitstreamVeraSans-Roman-32"/>
      </defs>
      <g transform="translate(132.001363636 213.409034091)scale(0.12 -0.12)">
       <use xlink:href="#BitstreamVeraSans-Roman-32"/>
       <use x="63.623046875" xlink:href="#BitstreamVeraSans-Roman-30"/>
      </g>
     </g>
    </g>
    <g id="xtick_4">
     <g id="line2d_23">
      <g>
       <use style="stroke:#000000;stroke-width:0.5;" x="173.454545455" xlink:href="#m293ce67c89" y="200.290909091"/>
      </g>
     </g>
     <g id="line2d_24">
      <g>
       <use style="stroke:#000000;stroke-width:0.5;" x="173.454545455" xlink:href="#m63dbe49119" y="43.2"/>
      </g>
     </g>
     <g id="text_4">
      <!-- 30 -->
      <defs>
       <path d="M 40.578125 39.3125 
Q 47.65625 37.796875 51.625 33 
Q 55.609375 28.21875 55.609375 21.1875 
Q 55.609375 10.40625 48.1875 4.484375 
Q 40.765625 -1.421875 27.09375 -1.421875 
Q 22.515625 -1.421875 17.65625 -0.515625 
Q 12.796875 0.390625 7.625 2.203125 
L 7.625 11.71875 
Q 11.71875 9.328125 16.59375 8.109375 
Q 21.484375 6.890625 26.8125 6.890625 
Q 36.078125 6.890625 40.9375 10.546875 
Q 45.796875 14.203125 45.796875 21.1875 
Q 45.796875 27.640625 41.28125 31.265625 
Q 36.765625 34.90625 28.71875 34.90625 
L 20.21875 34.90625 
L 20.21875 43.015625 
L 29.109375 43.015625 
Q 36.375 43.015625 40.234375 45.921875 
Q 44.09375 48.828125 44.09375 54.296875 
Q 44.09375 59.90625 40.109375 62.90625 
Q 36.140625 65.921875 28.71875 65.921875 
Q 24.65625 65.921875 20.015625 65.03125 
Q 15.375 64.15625 9.8125 62.3125 
L 9.8125 71.09375 
Q 15.4375 72.65625 20.34375 73.4375 
Q 25.25 74.21875 29.59375 74.21875 
Q 40.828125 74.21875 47.359375 69.109375 
Q 53.90625 64.015625 53.90625 55.328125 
Q 53.90625 49.265625 50.4375 45.09375 
Q 46.96875 40.921875 40.578125 39.3125 
" id="BitstreamVeraSans-Roman-33"/>
      </defs>
      <g transform="translate(165.819545455 213.409034091)scale(0.12 -0.12)">
       <use xlink:href="#BitstreamVeraSans-Roman-33"/>
       <use x="63.623046875" xlink:href="#BitstreamVeraSans-Roman-30"/>
      </g>
     </g>
    </g>
    <g id="xtick_5">
     <g id="line2d_25">
      <g>
       <use style="stroke:#000000;stroke-width:0.5;" x="207.272727273" xlink:href="#m293ce67c89" y="200.290909091"/>
      </g>
     </g>
     <g id="line2d_26">
      <g>
       <use style="stroke:#000000;stroke-width:0.5;" x="207.272727273" xlink:href="#m63dbe49119" y="43.2"/>
      </g>
     </g>
     <g id="text_5">
      <!-- 40 -->
      <defs>
       <path d="M 37.796875 64.3125 
L 12.890625 25.390625 
L 37.796875 25.390625 
z
M 35.203125 72.90625 
L 47.609375 72.90625 
L 47.609375 25.390625 
L 58.015625 25.390625 
L 58.015625 17.1875 
L 47.609375 17.1875 
L 47.609375 0 
L 37.796875 0 
L 37.796875 17.1875 
L 4.890625 17.1875 
L 4.890625 26.703125 
z
" id="BitstreamVeraSans-Roman-34"/>
      </defs>
      <g transform="translate(199.637727273 213.409034091)scale(0.12 -0.12)">
       <use xlink:href="#BitstreamVeraSans-Roman-34"/>
       <use x="63.623046875" xlink:href="#BitstreamVeraSans-Roman-30"/>
      </g>
     </g>
    </g>
    <g id="xtick_6">
     <g id="line2d_27">
      <g>
       <use style="stroke:#000000;stroke-width:0.5;" x="241.090909091" xlink:href="#m293ce67c89" y="200.290909091"/>
      </g>
     </g>
     <g id="line2d_28">
      <g>
       <use style="stroke:#000000;stroke-width:0.5;" x="241.090909091" xlink:href="#m63dbe49119" y="43.2"/>
      </g>
     </g>
     <g id="text_6">
      <!-- 50 -->
      <defs>
       <path d="M 10.796875 72.90625 
L 49.515625 72.90625 
L 49.515625 64.59375 
L 19.828125 64.59375 
L 19.828125 46.734375 
Q 21.96875 47.46875 24.109375 47.828125 
Q 26.265625 48.1875 28.421875 48.1875 
Q 40.625 48.1875 47.75 41.5 
Q 54.890625 34.8125 54.890625 23.390625 
Q 54.890625 11.625 47.5625 5.09375 
Q 40.234375 -1.421875 26.90625 -1.421875 
Q 22.3125 -1.421875 17.546875 -0.640625 
Q 12.796875 0.140625 7.71875 1.703125 
L 7.71875 11.625 
Q 12.109375 9.234375 16.796875 8.0625 
Q 21.484375 6.890625 26.703125 6.890625 
Q 35.15625 6.890625 40.078125 11.328125 
Q 45.015625 15.765625 45.015625 23.390625 
Q 45.015625 31 40.078125 35.4375 
Q 35.15625 39.890625 26.703125 39.890625 
Q 22.75 39.890625 18.8125 39.015625 
Q 14.890625 38.140625 10.796875 36.28125 
z
" id="BitstreamVeraSans-Roman-35"/>
      </defs>
      <g transform="translate(233.455909091 213.409034091)scale(0.12 -0.12)">
       <use xlink:href="#BitstreamVeraSans-Roman-35"/>
       <use x="63.623046875" xlink:href="#BitstreamVeraSans-Roman-30"/>
      </g>
     </g>
    </g>
    <g id="xtick_7">
     <g id="line2d_29">
      <g>
       <use style="stroke:#000000;stroke-width:0.5;" x="274.909090909" xlink:href="#m293ce67c89" y="200.290909091"/>
      </g>
     </g>
     <g id="line2d_30">
      <g>
       <use style="stroke:#000000;stroke-width:0.5;" x="274.909090909" xlink:href="#m63dbe49119" y="43.2"/>
      </g>
     </g>
     <g id="text_7">
      <!-- 60 -->
      <defs>
       <path d="M 33.015625 40.375 
Q 26.375 40.375 22.484375 35.828125 
Q 18.609375 31.296875 18.609375 23.390625 
Q 18.609375 15.53125 22.484375 10.953125 
Q 26.375 6.390625 33.015625 6.390625 
Q 39.65625 6.390625 43.53125 10.953125 
Q 47.40625 15.53125 47.40625 23.390625 
Q 47.40625 31.296875 43.53125 35.828125 
Q 39.65625 40.375 33.015625 40.375 
M 52.59375 71.296875 
L 52.59375 62.3125 
Q 48.875 64.0625 45.09375 64.984375 
Q 41.3125 65.921875 37.59375 65.921875 
Q 27.828125 65.921875 22.671875 59.328125 
Q 17.53125 52.734375 16.796875 39.40625 
Q 19.671875 43.65625 24.015625 45.921875 
Q 28.375 48.1875 33.59375 48.1875 
Q 44.578125 48.1875 50.953125 41.515625 
Q 57.328125 34.859375 57.328125 23.390625 
Q 57.328125 12.15625 50.6875 5.359375 
Q 44.046875 -1.421875 33.015625 -1.421875 
Q 20.359375 -1.421875 13.671875 8.265625 
Q 6.984375 17.96875 6.984375 36.375 
Q 6.984375 53.65625 15.1875 63.9375 
Q 23.390625 74.21875 37.203125 74.21875 
Q 40.921875 74.21875 44.703125 73.484375 
Q 48.484375 72.75 52.59375 71.296875 
" id="BitstreamVeraSans-Roman-36"/>
      </defs>
      <g transform="translate(267.274090909 213.409034091)scale(0.12 -0.12)">
       <use xlink:href="#BitstreamVeraSans-Roman-36"/>
       <use x="63.623046875" xlink:href="#BitstreamVeraSans-Roman-30"/>
      </g>
     </g>
    </g>
    <g id="text_8">
     <!-- number of words changed -->
     <defs>
      <path id="BitstreamVeraSans-Roman-20"/>
      <path d="M 48.78125 52.59375 
L 48.78125 44.1875 
Q 44.96875 46.296875 41.140625 47.34375 
Q 37.3125 48.390625 33.40625 48.390625 
Q 24.65625 48.390625 19.8125 42.84375 
Q 14.984375 37.3125 14.984375 27.296875 
Q 14.984375 17.28125 19.8125 11.734375 
Q 24.65625 6.203125 33.40625 6.203125 
Q 37.3125 6.203125 41.140625 7.25 
Q 44.96875 8.296875 48.78125 10.40625 
L 48.78125 2.09375 
Q 45.015625 0.34375 40.984375 -0.53125 
Q 36.96875 -1.421875 32.421875 -1.421875 
Q 20.0625 -1.421875 12.78125 6.34375 
Q 5.515625 14.109375 5.515625 27.296875 
Q 5.515625 40.671875 12.859375 48.328125 
Q 20.21875 56 33.015625 56 
Q 37.15625 56 41.109375 55.140625 
Q 45.0625 54.296875 48.78125 52.59375 
" id="BitstreamVeraSans-Roman-63"/>
      <path d="M 48.6875 27.296875 
Q 48.6875 37.203125 44.609375 42.84375 
Q 40.53125 48.484375 33.40625 48.484375 
Q 26.265625 48.484375 22.1875 42.84375 
Q 18.109375 37.203125 18.109375 27.296875 
Q 18.109375 17.390625 22.1875 11.75 
Q 26.265625 6.109375 33.40625 6.109375 
Q 40.53125 6.109375 44.609375 11.75 
Q 48.6875 17.390625 48.6875 27.296875 
M 18.109375 46.390625 
Q 20.953125 51.265625 25.265625 53.625 
Q 29.59375 56 35.59375 56 
Q 45.5625 56 51.78125 48.09375 
Q 58.015625 40.1875 58.015625 27.296875 
Q 58.015625 14.40625 51.78125 6.484375 
Q 45.5625 -1.421875 35.59375 -1.421875 
Q 29.59375 -1.421875 25.265625 0.953125 
Q 20.953125 3.328125 18.109375 8.203125 
L 18.109375 0 
L 9.078125 0 
L 9.078125 75.984375 
L 18.109375 75.984375 
z
" id="BitstreamVeraSans-Roman-62"/>
      <path d="M 56.203125 29.59375 
L 56.203125 25.203125 
L 14.890625 25.203125 
Q 15.484375 15.921875 20.484375 11.0625 
Q 25.484375 6.203125 34.421875 6.203125 
Q 39.59375 6.203125 44.453125 7.46875 
Q 49.3125 8.734375 54.109375 11.28125 
L 54.109375 2.78125 
Q 49.265625 0.734375 44.1875 -0.34375 
Q 39.109375 -1.421875 33.890625 -1.421875 
Q 20.796875 -1.421875 13.15625 6.1875 
Q 5.515625 13.8125 5.515625 26.8125 
Q 5.515625 40.234375 12.765625 48.109375 
Q 20.015625 56 32.328125 56 
Q 43.359375 56 49.78125 48.890625 
Q 56.203125 41.796875 56.203125 29.59375 
M 47.21875 32.234375 
Q 47.125 39.59375 43.09375 43.984375 
Q 39.0625 48.390625 32.421875 48.390625 
Q 24.90625 48.390625 20.390625 44.140625 
Q 15.875 39.890625 15.1875 32.171875 
z
" id="BitstreamVeraSans-Roman-65"/>
      <path d="M 45.40625 27.984375 
Q 45.40625 37.75 41.375 43.109375 
Q 37.359375 48.484375 30.078125 48.484375 
Q 22.859375 48.484375 18.828125 43.109375 
Q 14.796875 37.75 14.796875 27.984375 
Q 14.796875 18.265625 18.828125 12.890625 
Q 22.859375 7.515625 30.078125 7.515625 
Q 37.359375 7.515625 41.375 12.890625 
Q 45.40625 18.265625 45.40625 27.984375 
M 54.390625 6.78125 
Q 54.390625 -7.171875 48.1875 -13.984375 
Q 42 -20.796875 29.203125 -20.796875 
Q 24.46875 -20.796875 20.265625 -20.09375 
Q 16.0625 -19.390625 12.109375 -17.921875 
L 12.109375 -9.1875 
Q 16.0625 -11.328125 19.921875 -12.34375 
Q 23.78125 -13.375 27.78125 -13.375 
Q 36.625 -13.375 41.015625 -8.765625 
Q 45.40625 -4.15625 45.40625 5.171875 
L 45.40625 9.625 
Q 42.625 4.78125 38.28125 2.390625 
Q 33.9375 0 27.875 0 
Q 17.828125 0 11.671875 7.65625 
Q 5.515625 15.328125 5.515625 27.984375 
Q 5.515625 40.671875 11.671875 48.328125 
Q 17.828125 56 27.875 56 
Q 33.9375 56 38.28125 53.609375 
Q 42.625 51.21875 45.40625 46.390625 
L 45.40625 54.6875 
L 54.390625 54.6875 
z
" id="BitstreamVeraSans-Roman-67"/>
      <path d="M 54.890625 33.015625 
L 54.890625 0 
L 45.90625 0 
L 45.90625 32.71875 
Q 45.90625 40.484375 42.875 44.328125 
Q 39.84375 48.1875 33.796875 48.1875 
Q 26.515625 48.1875 22.3125 43.546875 
Q 18.109375 38.921875 18.109375 30.90625 
L 18.109375 0 
L 9.078125 0 
L 9.078125 54.6875 
L 18.109375 54.6875 
L 18.109375 46.1875 
Q 21.34375 51.125 25.703125 53.5625 
Q 30.078125 56 35.796875 56 
Q 45.21875 56 50.046875 50.171875 
Q 54.890625 44.34375 54.890625 33.015625 
" id="BitstreamVeraSans-Roman-6e"/>
      <path d="M 54.890625 33.015625 
L 54.890625 0 
L 45.90625 0 
L 45.90625 32.71875 
Q 45.90625 40.484375 42.875 44.328125 
Q 39.84375 48.1875 33.796875 48.1875 
Q 26.515625 48.1875 22.3125 43.546875 
Q 18.109375 38.921875 18.109375 30.90625 
L 18.109375 0 
L 9.078125 0 
L 9.078125 75.984375 
L 18.109375 75.984375 
L 18.109375 46.1875 
Q 21.34375 51.125 25.703125 53.5625 
Q 30.078125 56 35.796875 56 
Q 45.21875 56 50.046875 50.171875 
Q 54.890625 44.34375 54.890625 33.015625 
" id="BitstreamVeraSans-Roman-68"/>
      <path d="M 45.40625 46.390625 
L 45.40625 75.984375 
L 54.390625 75.984375 
L 54.390625 0 
L 45.40625 0 
L 45.40625 8.203125 
Q 42.578125 3.328125 38.25 0.953125 
Q 33.9375 -1.421875 27.875 -1.421875 
Q 17.96875 -1.421875 11.734375 6.484375 
Q 5.515625 14.40625 5.515625 27.296875 
Q 5.515625 40.1875 11.734375 48.09375 
Q 17.96875 56 27.875 56 
Q 33.9375 56 38.25 53.625 
Q 42.578125 51.265625 45.40625 46.390625 
M 14.796875 27.296875 
Q 14.796875 17.390625 18.875 11.75 
Q 22.953125 6.109375 30.078125 6.109375 
Q 37.203125 6.109375 41.296875 11.75 
Q 45.40625 17.390625 45.40625 27.296875 
Q 45.40625 37.203125 41.296875 42.84375 
Q 37.203125 48.484375 30.078125 48.484375 
Q 22.953125 48.484375 18.875 42.84375 
Q 14.796875 37.203125 14.796875 27.296875 
" id="BitstreamVeraSans-Roman-64"/>
      <path d="M 44.28125 53.078125 
L 44.28125 44.578125 
Q 40.484375 46.53125 36.375 47.5 
Q 32.28125 48.484375 27.875 48.484375 
Q 21.1875 48.484375 17.84375 46.4375 
Q 14.5 44.390625 14.5 40.28125 
Q 14.5 37.15625 16.890625 35.375 
Q 19.28125 33.59375 26.515625 31.984375 
L 29.59375 31.296875 
Q 39.15625 29.25 43.1875 25.515625 
Q 47.21875 21.78125 47.21875 15.09375 
Q 47.21875 7.46875 41.1875 3.015625 
Q 35.15625 -1.421875 24.609375 -1.421875 
Q 20.21875 -1.421875 15.453125 -0.5625 
Q 10.6875 0.296875 5.421875 2 
L 5.421875 11.28125 
Q 10.40625 8.6875 15.234375 7.390625 
Q 20.0625 6.109375 24.8125 6.109375 
Q 31.15625 6.109375 34.5625 8.28125 
Q 37.984375 10.453125 37.984375 14.40625 
Q 37.984375 18.0625 35.515625 20.015625 
Q 33.0625 21.96875 24.703125 23.78125 
L 21.578125 24.515625 
Q 13.234375 26.265625 9.515625 29.90625 
Q 5.8125 33.546875 5.8125 39.890625 
Q 5.8125 47.609375 11.28125 51.796875 
Q 16.75 56 26.8125 56 
Q 31.78125 56 36.171875 55.265625 
Q 40.578125 54.546875 44.28125 53.078125 
" id="BitstreamVeraSans-Roman-73"/>
      <path d="M 34.28125 27.484375 
Q 23.390625 27.484375 19.1875 25 
Q 14.984375 22.515625 14.984375 16.5 
Q 14.984375 11.71875 18.140625 8.90625 
Q 21.296875 6.109375 26.703125 6.109375 
Q 34.1875 6.109375 38.703125 11.40625 
Q 43.21875 16.703125 43.21875 25.484375 
L 43.21875 27.484375 
z
M 52.203125 31.203125 
L 52.203125 0 
L 43.21875 0 
L 43.21875 8.296875 
Q 40.140625 3.328125 35.546875 0.953125 
Q 30.953125 -1.421875 24.3125 -1.421875 
Q 15.921875 -1.421875 10.953125 3.296875 
Q 6 8.015625 6 15.921875 
Q 6 25.140625 12.171875 29.828125 
Q 18.359375 34.515625 30.609375 34.515625 
L 43.21875 34.515625 
L 43.21875 35.40625 
Q 43.21875 41.609375 39.140625 45 
Q 35.0625 48.390625 27.6875 48.390625 
Q 23 48.390625 18.546875 47.265625 
Q 14.109375 46.140625 10.015625 43.890625 
L 10.015625 52.203125 
Q 14.9375 54.109375 19.578125 55.046875 
Q 24.21875 56 28.609375 56 
Q 40.484375 56 46.34375 49.84375 
Q 52.203125 43.703125 52.203125 31.203125 
" id="BitstreamVeraSans-Roman-61"/>
      <path d="M 37.109375 75.984375 
L 37.109375 68.5 
L 28.515625 68.5 
Q 23.6875 68.5 21.796875 66.546875 
Q 19.921875 64.59375 19.921875 59.515625 
L 19.921875 54.6875 
L 34.71875 54.6875 
L 34.71875 47.703125 
L 19.921875 47.703125 
L 19.921875 0 
L 10.890625 0 
L 10.890625 47.703125 
L 2.296875 47.703125 
L 2.296875 54.6875 
L 10.890625 54.6875 
L 10.890625 58.5 
Q 10.890625 67.625 15.140625 71.796875 
Q 19.390625 75.984375 28.609375 75.984375 
z
" id="BitstreamVeraSans-Roman-66"/>
      <path d="M 52 44.1875 
Q 55.375 50.25 60.0625 53.125 
Q 64.75 56 71.09375 56 
Q 79.640625 56 84.28125 50.015625 
Q 88.921875 44.046875 88.921875 33.015625 
L 88.921875 0 
L 79.890625 0 
L 79.890625 32.71875 
Q 79.890625 40.578125 77.09375 44.375 
Q 74.3125 48.1875 68.609375 48.1875 
Q 61.625 48.1875 57.5625 43.546875 
Q 53.515625 38.921875 53.515625 30.90625 
L 53.515625 0 
L 44.484375 0 
L 44.484375 32.71875 
Q 44.484375 40.625 41.703125 44.40625 
Q 38.921875 48.1875 33.109375 48.1875 
Q 26.21875 48.1875 22.15625 43.53125 
Q 18.109375 38.875 18.109375 30.90625 
L 18.109375 0 
L 9.078125 0 
L 9.078125 54.6875 
L 18.109375 54.6875 
L 18.109375 46.1875 
Q 21.1875 51.21875 25.484375 53.609375 
Q 29.78125 56 35.6875 56 
Q 41.65625 56 45.828125 52.96875 
Q 50 49.953125 52 44.1875 
" id="BitstreamVeraSans-Roman-6d"/>
      <path d="M 30.609375 48.390625 
Q 23.390625 48.390625 19.1875 42.75 
Q 14.984375 37.109375 14.984375 27.296875 
Q 14.984375 17.484375 19.15625 11.84375 
Q 23.34375 6.203125 30.609375 6.203125 
Q 37.796875 6.203125 41.984375 11.859375 
Q 46.1875 17.53125 46.1875 27.296875 
Q 46.1875 37.015625 41.984375 42.703125 
Q 37.796875 48.390625 30.609375 48.390625 
M 30.609375 56 
Q 42.328125 56 49.015625 48.375 
Q 55.71875 40.765625 55.71875 27.296875 
Q 55.71875 13.875 49.015625 6.21875 
Q 42.328125 -1.421875 30.609375 -1.421875 
Q 18.84375 -1.421875 12.171875 6.21875 
Q 5.515625 13.875 5.515625 27.296875 
Q 5.515625 40.765625 12.171875 48.375 
Q 18.84375 56 30.609375 56 
" id="BitstreamVeraSans-Roman-6f"/>
      <path d="M 4.203125 54.6875 
L 13.1875 54.6875 
L 24.421875 12.015625 
L 35.59375 54.6875 
L 46.1875 54.6875 
L 57.421875 12.015625 
L 68.609375 54.6875 
L 77.59375 54.6875 
L 63.28125 0 
L 52.6875 0 
L 40.921875 44.828125 
L 29.109375 0 
L 18.5 0 
z
" id="BitstreamVeraSans-Roman-77"/>
      <path d="M 41.109375 46.296875 
Q 39.59375 47.171875 37.8125 47.578125 
Q 36.03125 48 33.890625 48 
Q 26.265625 48 22.1875 43.046875 
Q 18.109375 38.09375 18.109375 28.8125 
L 18.109375 0 
L 9.078125 0 
L 9.078125 54.6875 
L 18.109375 54.6875 
L 18.109375 46.1875 
Q 20.953125 51.171875 25.484375 53.578125 
Q 30.03125 56 36.53125 56 
Q 37.453125 56 38.578125 55.875 
Q 39.703125 55.765625 41.0625 55.515625 
z
" id="BitstreamVeraSans-Roman-72"/>
      <path d="M 8.5 21.578125 
L 8.5 54.6875 
L 17.484375 54.6875 
L 17.484375 21.921875 
Q 17.484375 14.15625 20.5 10.265625 
Q 23.53125 6.390625 29.59375 6.390625 
Q 36.859375 6.390625 41.078125 11.03125 
Q 45.3125 15.671875 45.3125 23.6875 
L 45.3125 54.6875 
L 54.296875 54.6875 
L 54.296875 0 
L 45.3125 0 
L 45.3125 8.40625 
Q 42.046875 3.421875 37.71875 1 
Q 33.40625 -1.421875 27.6875 -1.421875 
Q 18.265625 -1.421875 13.375 4.4375 
Q 8.5 10.296875 8.5 21.578125 
" id="BitstreamVeraSans-Roman-75"/>
     </defs>
     <g transform="translate(94.6642329545 230.022784091)scale(0.12 -0.12)">
      <use xlink:href="#BitstreamVeraSans-Roman-6e"/>
      <use x="63.37890625" xlink:href="#BitstreamVeraSans-Roman-75"/>
      <use x="126.7578125" xlink:href="#BitstreamVeraSans-Roman-6d"/>
      <use x="224.169921875" xlink:href="#BitstreamVeraSans-Roman-62"/>
      <use x="287.646484375" xlink:href="#BitstreamVeraSans-Roman-65"/>
      <use x="349.169921875" xlink:href="#BitstreamVeraSans-Roman-72"/>
      <use x="390.283203125" xlink:href="#BitstreamVeraSans-Roman-20"/>
      <use x="422.0703125" xlink:href="#BitstreamVeraSans-Roman-6f"/>
      <use x="483.251953125" xlink:href="#BitstreamVeraSans-Roman-66"/>
      <use x="518.45703125" xlink:href="#BitstreamVeraSans-Roman-20"/>
      <use x="550.244140625" xlink:href="#BitstreamVeraSans-Roman-77"/>
      <use x="632.03125" xlink:href="#BitstreamVeraSans-Roman-6f"/>
      <use x="693.212890625" xlink:href="#BitstreamVeraSans-Roman-72"/>
      <use x="734.310546875" xlink:href="#BitstreamVeraSans-Roman-64"/>
      <use x="797.787109375" xlink:href="#BitstreamVeraSans-Roman-73"/>
      <use x="849.88671875" xlink:href="#BitstreamVeraSans-Roman-20"/>
      <use x="881.673828125" xlink:href="#BitstreamVeraSans-Roman-63"/>
      <use x="936.654296875" xlink:href="#BitstreamVeraSans-Roman-68"/>
      <use x="1000.033203125" xlink:href="#BitstreamVeraSans-Roman-61"/>
      <use x="1061.3125" xlink:href="#BitstreamVeraSans-Roman-6e"/>
      <use x="1124.69140625" xlink:href="#BitstreamVeraSans-Roman-67"/>
      <use x="1188.16796875" xlink:href="#BitstreamVeraSans-Roman-65"/>
      <use x="1249.69140625" xlink:href="#BitstreamVeraSans-Roman-64"/>
     </g>
    </g>
   </g>
   <g id="matplotlib.axis_2">
    <g id="ytick_1">
     <g id="line2d_31">
      <defs>
       <path d="M 0 0 
L 4 0 
" id="md42c9240f9" style="stroke:#000000;stroke-width:0.5;"/>
      </defs>
      <g>
       <use style="stroke:#000000;stroke-width:0.5;" x="72.0" xlink:href="#md42c9240f9" y="200.290909091"/>
      </g>
     </g>
     <g id="line2d_32">
      <defs>
       <path d="M 0 0 
L -4 0 
" id="mc2e1f089dd" style="stroke:#000000;stroke-width:0.5;"/>
      </defs>
      <g>
       <use style="stroke:#000000;stroke-width:0.5;" x="274.909090909" xlink:href="#mc2e1f089dd" y="200.290909091"/>
      </g>
     </g>
     <g id="text_9">
      <!-- 0 -->
      <g transform="translate(60.365 203.602159091)scale(0.12 -0.12)">
       <use xlink:href="#BitstreamVeraSans-Roman-30"/>
      </g>
     </g>
    </g>
    <g id="ytick_2">
     <g id="line2d_33">
      <g>
       <use style="stroke:#000000;stroke-width:0.5;" x="72.0" xlink:href="#md42c9240f9" y="177.121158488"/>
      </g>
     </g>
     <g id="line2d_34">
      <g>
       <use style="stroke:#000000;stroke-width:0.5;" x="274.909090909" xlink:href="#mc2e1f089dd" y="177.121158488"/>
      </g>
     </g>
     <g id="text_10">
      <!-- 100 -->
      <g transform="translate(45.095 180.432408488)scale(0.12 -0.12)">
       <use xlink:href="#BitstreamVeraSans-Roman-31"/>
       <use x="63.623046875" xlink:href="#BitstreamVeraSans-Roman-30"/>
       <use x="127.24609375" xlink:href="#BitstreamVeraSans-Roman-30"/>
      </g>
     </g>
    </g>
    <g id="ytick_3">
     <g id="line2d_35">
      <g>
       <use style="stroke:#000000;stroke-width:0.5;" x="72.0" xlink:href="#md42c9240f9" y="153.951407884"/>
      </g>
     </g>
     <g id="line2d_36">
      <g>
       <use style="stroke:#000000;stroke-width:0.5;" x="274.909090909" xlink:href="#mc2e1f089dd" y="153.951407884"/>
      </g>
     </g>
     <g id="text_11">
      <!-- 200 -->
      <g transform="translate(45.095 157.262657884)scale(0.12 -0.12)">
       <use xlink:href="#BitstreamVeraSans-Roman-32"/>
       <use x="63.623046875" xlink:href="#BitstreamVeraSans-Roman-30"/>
       <use x="127.24609375" xlink:href="#BitstreamVeraSans-Roman-30"/>
      </g>
     </g>
    </g>
    <g id="ytick_4">
     <g id="line2d_37">
      <g>
       <use style="stroke:#000000;stroke-width:0.5;" x="72.0" xlink:href="#md42c9240f9" y="130.781657281"/>
      </g>
     </g>
     <g id="line2d_38">
      <g>
       <use style="stroke:#000000;stroke-width:0.5;" x="274.909090909" xlink:href="#mc2e1f089dd" y="130.781657281"/>
      </g>
     </g>
     <g id="text_12">
      <!-- 300 -->
      <g transform="translate(45.095 134.092907281)scale(0.12 -0.12)">
       <use xlink:href="#BitstreamVeraSans-Roman-33"/>
       <use x="63.623046875" xlink:href="#BitstreamVeraSans-Roman-30"/>
       <use x="127.24609375" xlink:href="#BitstreamVeraSans-Roman-30"/>
      </g>
     </g>
    </g>
    <g id="ytick_5">
     <g id="line2d_39">
      <g>
       <use style="stroke:#000000;stroke-width:0.5;" x="72.0" xlink:href="#md42c9240f9" y="107.611906677"/>
      </g>
     </g>
     <g id="line2d_40">
      <g>
       <use style="stroke:#000000;stroke-width:0.5;" x="274.909090909" xlink:href="#mc2e1f089dd" y="107.611906677"/>
      </g>
     </g>
     <g id="text_13">
      <!-- 400 -->
      <g transform="translate(45.095 110.923156677)scale(0.12 -0.12)">
       <use xlink:href="#BitstreamVeraSans-Roman-34"/>
       <use x="63.623046875" xlink:href="#BitstreamVeraSans-Roman-30"/>
       <use x="127.24609375" xlink:href="#BitstreamVeraSans-Roman-30"/>
      </g>
     </g>
    </g>
    <g id="ytick_6">
     <g id="line2d_41">
      <g>
       <use style="stroke:#000000;stroke-width:0.5;" x="72.0" xlink:href="#md42c9240f9" y="84.442156074"/>
      </g>
     </g>
     <g id="line2d_42">
      <g>
       <use style="stroke:#000000;stroke-width:0.5;" x="274.909090909" xlink:href="#mc2e1f089dd" y="84.442156074"/>
      </g>
     </g>
     <g id="text_14">
      <!-- 500 -->
      <g transform="translate(45.095 87.753406074)scale(0.12 -0.12)">
       <use xlink:href="#BitstreamVeraSans-Roman-35"/>
       <use x="63.623046875" xlink:href="#BitstreamVeraSans-Roman-30"/>
       <use x="127.24609375" xlink:href="#BitstreamVeraSans-Roman-30"/>
      </g>
     </g>
    </g>
    <g id="ytick_7">
     <g id="line2d_43">
      <g>
       <use style="stroke:#000000;stroke-width:0.5;" x="72.0" xlink:href="#md42c9240f9" y="61.2724054706"/>
      </g>
     </g>
     <g id="line2d_44">
      <g>
       <use style="stroke:#000000;stroke-width:0.5;" x="274.909090909" xlink:href="#mc2e1f089dd" y="61.2724054706"/>
      </g>
     </g>
     <g id="text_15">
      <!-- 600 -->
      <g transform="translate(45.095 64.5836554706)scale(0.12 -0.12)">
       <use xlink:href="#BitstreamVeraSans-Roman-36"/>
       <use x="63.623046875" xlink:href="#BitstreamVeraSans-Roman-30"/>
       <use x="127.24609375" xlink:href="#BitstreamVeraSans-Roman-30"/>
      </g>
     </g>
    </g>
    <g id="text_16">
     <!-- amount -->
     <defs>
      <path d="M 18.3125 70.21875 
L 18.3125 54.6875 
L 36.8125 54.6875 
L 36.8125 47.703125 
L 18.3125 47.703125 
L 18.3125 18.015625 
Q 18.3125 11.328125 20.140625 9.421875 
Q 21.96875 7.515625 27.59375 7.515625 
L 36.8125 7.515625 
L 36.8125 0 
L 27.59375 0 
Q 17.1875 0 13.234375 3.875 
Q 9.28125 7.765625 9.28125 18.015625 
L 9.28125 47.703125 
L 2.6875 47.703125 
L 2.6875 54.6875 
L 9.28125 54.6875 
L 9.28125 70.21875 
z
" id="BitstreamVeraSans-Roman-74"/>
     </defs>
     <g transform="translate(37.599375 144.895142045)rotate(-90.0)scale(0.12 -0.12)">
      <use xlink:href="#BitstreamVeraSans-Roman-61"/>
      <use x="61.279296875" xlink:href="#BitstreamVeraSans-Roman-6d"/>
      <use x="158.69140625" xlink:href="#BitstreamVeraSans-Roman-6f"/>
      <use x="219.873046875" xlink:href="#BitstreamVeraSans-Roman-75"/>
      <use x="283.251953125" xlink:href="#BitstreamVeraSans-Roman-6e"/>
      <use x="346.630859375" xlink:href="#BitstreamVeraSans-Roman-74"/>
     </g>
    </g>
   </g>
   <g id="text_17">
    <!-- accumulative number of sentences by words changed per -->
    <defs>
     <path d="M 2.984375 54.6875 
L 12.5 54.6875 
L 29.59375 8.796875 
L 46.6875 54.6875 
L 56.203125 54.6875 
L 35.6875 0 
L 23.484375 0 
z
" id="BitstreamVeraSans-Roman-76"/>
     <path d="M 9.421875 75.984375 
L 18.40625 75.984375 
L 18.40625 0 
L 9.421875 0 
z
" id="BitstreamVeraSans-Roman-6c"/>
     <path d="M 18.109375 8.203125 
L 18.109375 -20.796875 
L 9.078125 -20.796875 
L 9.078125 54.6875 
L 18.109375 54.6875 
L 18.109375 46.390625 
Q 20.953125 51.265625 25.265625 53.625 
Q 29.59375 56 35.59375 56 
Q 45.5625 56 51.78125 48.09375 
Q 58.015625 40.1875 58.015625 27.296875 
Q 58.015625 14.40625 51.78125 6.484375 
Q 45.5625 -1.421875 35.59375 -1.421875 
Q 29.59375 -1.421875 25.265625 0.953125 
Q 20.953125 3.328125 18.109375 8.203125 
M 48.6875 27.296875 
Q 48.6875 37.203125 44.609375 42.84375 
Q 40.53125 48.484375 33.40625 48.484375 
Q 26.265625 48.484375 22.1875 42.84375 
Q 18.109375 37.203125 18.109375 27.296875 
Q 18.109375 17.390625 22.1875 11.75 
Q 26.265625 6.109375 33.40625 6.109375 
Q 40.53125 6.109375 44.609375 11.75 
Q 48.6875 17.390625 48.6875 27.296875 
" id="BitstreamVeraSans-Roman-70"/>
     <path d="M 32.171875 -5.078125 
Q 28.375 -14.84375 24.75 -17.8125 
Q 21.140625 -20.796875 15.09375 -20.796875 
L 7.90625 -20.796875 
L 7.90625 -13.28125 
L 13.1875 -13.28125 
Q 16.890625 -13.28125 18.9375 -11.515625 
Q 21 -9.765625 23.484375 -3.21875 
L 25.09375 0.875 
L 2.984375 54.6875 
L 12.5 54.6875 
L 29.59375 11.921875 
L 46.6875 54.6875 
L 56.203125 54.6875 
z
" id="BitstreamVeraSans-Roman-79"/>
     <path d="M 9.421875 54.6875 
L 18.40625 54.6875 
L 18.40625 0 
L 9.421875 0 
z
M 9.421875 75.984375 
L 18.40625 75.984375 
L 18.40625 64.59375 
L 9.421875 64.59375 
z
" id="BitstreamVeraSans-Roman-69"/>
    </defs>
    <g transform="translate(-36.1363295455 38.2)scale(0.144 -0.144)">
     <use xlink:href="#BitstreamVeraSans-Roman-61"/>
     <use x="61.279296875" xlink:href="#BitstreamVeraSans-Roman-63"/>
     <use x="116.259765625" xlink:href="#BitstreamVeraSans-Roman-63"/>
     <use x="171.240234375" xlink:href="#BitstreamVeraSans-Roman-75"/>
     <use x="234.619140625" xlink:href="#BitstreamVeraSans-Roman-6d"/>
     <use x="332.03125" xlink:href="#BitstreamVeraSans-Roman-75"/>
     <use x="395.41015625" xlink:href="#BitstreamVeraSans-Roman-6c"/>
     <use x="423.193359375" xlink:href="#BitstreamVeraSans-Roman-61"/>
     <use x="484.47265625" xlink:href="#BitstreamVeraSans-Roman-74"/>
     <use x="523.681640625" xlink:href="#BitstreamVeraSans-Roman-69"/>
     <use x="551.46484375" xlink:href="#BitstreamVeraSans-Roman-76"/>
     <use x="610.64453125" xlink:href="#BitstreamVeraSans-Roman-65"/>
     <use x="672.16796875" xlink:href="#BitstreamVeraSans-Roman-20"/>
     <use x="703.955078125" xlink:href="#BitstreamVeraSans-Roman-6e"/>
     <use x="767.333984375" xlink:href="#BitstreamVeraSans-Roman-75"/>
     <use x="830.712890625" xlink:href="#BitstreamVeraSans-Roman-6d"/>
     <use x="928.125" xlink:href="#BitstreamVeraSans-Roman-62"/>
     <use x="991.6015625" xlink:href="#BitstreamVeraSans-Roman-65"/>
     <use x="1053.125" xlink:href="#BitstreamVeraSans-Roman-72"/>
     <use x="1094.23828125" xlink:href="#BitstreamVeraSans-Roman-20"/>
     <use x="1126.025390625" xlink:href="#BitstreamVeraSans-Roman-6f"/>
     <use x="1187.20703125" xlink:href="#BitstreamVeraSans-Roman-66"/>
     <use x="1222.412109375" xlink:href="#BitstreamVeraSans-Roman-20"/>
     <use x="1254.19921875" xlink:href="#BitstreamVeraSans-Roman-73"/>
     <use x="1306.298828125" xlink:href="#BitstreamVeraSans-Roman-65"/>
     <use x="1367.822265625" xlink:href="#BitstreamVeraSans-Roman-6e"/>
     <use x="1431.201171875" xlink:href="#BitstreamVeraSans-Roman-74"/>
     <use x="1470.41015625" xlink:href="#BitstreamVeraSans-Roman-65"/>
     <use x="1531.93359375" xlink:href="#BitstreamVeraSans-Roman-6e"/>
     <use x="1595.3125" xlink:href="#BitstreamVeraSans-Roman-63"/>
     <use x="1650.29296875" xlink:href="#BitstreamVeraSans-Roman-65"/>
     <use x="1711.81640625" xlink:href="#BitstreamVeraSans-Roman-73"/>
     <use x="1763.916015625" xlink:href="#BitstreamVeraSans-Roman-20"/>
     <use x="1795.703125" xlink:href="#BitstreamVeraSans-Roman-62"/>
     <use x="1859.1796875" xlink:href="#BitstreamVeraSans-Roman-79"/>
     <use x="1918.359375" xlink:href="#BitstreamVeraSans-Roman-20"/>
     <use x="1950.146484375" xlink:href="#BitstreamVeraSans-Roman-77"/>
     <use x="2031.93359375" xlink:href="#BitstreamVeraSans-Roman-6f"/>
     <use x="2093.115234375" xlink:href="#BitstreamVeraSans-Roman-72"/>
     <use x="2134.212890625" xlink:href="#BitstreamVeraSans-Roman-64"/>
     <use x="2197.689453125" xlink:href="#BitstreamVeraSans-Roman-73"/>
     <use x="2249.7890625" xlink:href="#BitstreamVeraSans-Roman-20"/>
     <use x="2281.576171875" xlink:href="#BitstreamVeraSans-Roman-63"/>
     <use x="2336.556640625" xlink:href="#BitstreamVeraSans-Roman-68"/>
     <use x="2399.935546875" xlink:href="#BitstreamVeraSans-Roman-61"/>
     <use x="2461.21484375" xlink:href="#BitstreamVeraSans-Roman-6e"/>
     <use x="2524.59375" xlink:href="#BitstreamVeraSans-Roman-67"/>
     <use x="2588.0703125" xlink:href="#BitstreamVeraSans-Roman-65"/>
     <use x="2649.59375" xlink:href="#BitstreamVeraSans-Roman-64"/>
     <use x="2713.0703125" xlink:href="#BitstreamVeraSans-Roman-20"/>
     <use x="2744.857421875" xlink:href="#BitstreamVeraSans-Roman-70"/>
     <use x="2808.333984375" xlink:href="#BitstreamVeraSans-Roman-65"/>
     <use x="2869.857421875" xlink:href="#BitstreamVeraSans-Roman-72"/>
    </g>
   </g>
   <g id="legend_1">
    <g id="patch_7">
     <path d="M 115.015341 240.670455 
L 269.909091 240.670455 
L 269.909091 2.820455 
L 115.015341 2.820455 
z
" style="fill:#ffffff;stroke:#000000;stroke-linejoin:miter;"/>
    </g>
    <g id="line2d_45">
     <path d="M 122.015341 10.918892 
L 136.015341 10.918892 
" style="fill:none;stroke:#8000ff;stroke-linecap:square;"/>
    </g>
    <g id="line2d_46"/>
    <g id="text_18">
     <!-- fce to gold -->
     <g transform="translate(147.015340909 14.4188920455)scale(0.1 -0.1)">
      <use xlink:href="#BitstreamVeraSans-Roman-66"/>
      <use x="35.205078125" xlink:href="#BitstreamVeraSans-Roman-63"/>
      <use x="90.185546875" xlink:href="#BitstreamVeraSans-Roman-65"/>
      <use x="151.708984375" xlink:href="#BitstreamVeraSans-Roman-20"/>
      <use x="183.49609375" xlink:href="#BitstreamVeraSans-Roman-74"/>
      <use x="222.705078125" xlink:href="#BitstreamVeraSans-Roman-6f"/>
      <use x="283.88671875" xlink:href="#BitstreamVeraSans-Roman-20"/>
      <use x="315.673828125" xlink:href="#BitstreamVeraSans-Roman-67"/>
      <use x="379.150390625" xlink:href="#BitstreamVeraSans-Roman-6f"/>
      <use x="440.33203125" xlink:href="#BitstreamVeraSans-Roman-6c"/>
      <use x="468.115234375" xlink:href="#BitstreamVeraSans-Roman-64"/>
     </g>
    </g>
    <g id="line2d_47">
     <path d="M 122.015341 25.597017 
L 136.015341 25.597017 
" style="fill:none;stroke:#5e35fe;stroke-linecap:square;"/>
    </g>
    <g id="line2d_48"/>
    <g id="text_19">
     <!-- fce to gold auto aligned -->
     <g transform="translate(147.015340909 29.0970170455)scale(0.1 -0.1)">
      <use xlink:href="#BitstreamVeraSans-Roman-66"/>
      <use x="35.205078125" xlink:href="#BitstreamVeraSans-Roman-63"/>
      <use x="90.185546875" xlink:href="#BitstreamVeraSans-Roman-65"/>
      <use x="151.708984375" xlink:href="#BitstreamVeraSans-Roman-20"/>
      <use x="183.49609375" xlink:href="#BitstreamVeraSans-Roman-74"/>
      <use x="222.705078125" xlink:href="#BitstreamVeraSans-Roman-6f"/>
      <use x="283.88671875" xlink:href="#BitstreamVeraSans-Roman-20"/>
      <use x="315.673828125" xlink:href="#BitstreamVeraSans-Roman-67"/>
      <use x="379.150390625" xlink:href="#BitstreamVeraSans-Roman-6f"/>
      <use x="440.33203125" xlink:href="#BitstreamVeraSans-Roman-6c"/>
      <use x="468.115234375" xlink:href="#BitstreamVeraSans-Roman-64"/>
      <use x="531.591796875" xlink:href="#BitstreamVeraSans-Roman-20"/>
      <use x="563.37890625" xlink:href="#BitstreamVeraSans-Roman-61"/>
      <use x="624.658203125" xlink:href="#BitstreamVeraSans-Roman-75"/>
      <use x="688.037109375" xlink:href="#BitstreamVeraSans-Roman-74"/>
      <use x="727.24609375" xlink:href="#BitstreamVeraSans-Roman-6f"/>
      <use x="788.427734375" xlink:href="#BitstreamVeraSans-Roman-20"/>
      <use x="820.21484375" xlink:href="#BitstreamVeraSans-Roman-61"/>
      <use x="881.494140625" xlink:href="#BitstreamVeraSans-Roman-6c"/>
      <use x="909.27734375" xlink:href="#BitstreamVeraSans-Roman-69"/>
      <use x="937.060546875" xlink:href="#BitstreamVeraSans-Roman-67"/>
      <use x="1000.537109375" xlink:href="#BitstreamVeraSans-Roman-6e"/>
      <use x="1063.916015625" xlink:href="#BitstreamVeraSans-Roman-65"/>
      <use x="1125.439453125" xlink:href="#BitstreamVeraSans-Roman-64"/>
     </g>
    </g>
    <g id="line2d_49">
     <path d="M 122.015341 40.275142 
L 136.015341 40.275142 
" style="fill:none;stroke:#3c68f9;stroke-linecap:square;"/>
    </g>
    <g id="line2d_50"/>
    <g id="text_20">
     <!-- gold standard -->
     <g transform="translate(147.015340909 43.7751420455)scale(0.1 -0.1)">
      <use xlink:href="#BitstreamVeraSans-Roman-67"/>
      <use x="63.4765625" xlink:href="#BitstreamVeraSans-Roman-6f"/>
      <use x="124.658203125" xlink:href="#BitstreamVeraSans-Roman-6c"/>
      <use x="152.44140625" xlink:href="#BitstreamVeraSans-Roman-64"/>
      <use x="215.91796875" xlink:href="#BitstreamVeraSans-Roman-20"/>
      <use x="247.705078125" xlink:href="#BitstreamVeraSans-Roman-73"/>
      <use x="299.8046875" xlink:href="#BitstreamVeraSans-Roman-74"/>
      <use x="339.013671875" xlink:href="#BitstreamVeraSans-Roman-61"/>
      <use x="400.29296875" xlink:href="#BitstreamVeraSans-Roman-6e"/>
      <use x="463.671875" xlink:href="#BitstreamVeraSans-Roman-64"/>
      <use x="527.1484375" xlink:href="#BitstreamVeraSans-Roman-61"/>
      <use x="588.427734375" xlink:href="#BitstreamVeraSans-Roman-72"/>
      <use x="629.525390625" xlink:href="#BitstreamVeraSans-Roman-64"/>
     </g>
    </g>
    <g id="line2d_51">
     <path d="M 122.015341 54.953267 
L 136.015341 54.953267 
" style="fill:none;stroke:#1996f3;stroke-linecap:square;"/>
    </g>
    <g id="line2d_52"/>
    <g id="text_21">
     <!-- cuui -->
     <g transform="translate(147.015340909 58.4532670455)scale(0.1 -0.1)">
      <use xlink:href="#BitstreamVeraSans-Roman-63"/>
      <use x="54.98046875" xlink:href="#BitstreamVeraSans-Roman-75"/>
      <use x="118.359375" xlink:href="#BitstreamVeraSans-Roman-75"/>
      <use x="181.73828125" xlink:href="#BitstreamVeraSans-Roman-69"/>
     </g>
    </g>
    <g id="line2d_53">
     <path d="M 122.015341 69.631392 
L 136.015341 69.631392 
" style="fill:none;stroke:#08bee9;stroke-linecap:square;"/>
    </g>
    <g id="line2d_54"/>
    <g id="text_22">
     <!-- iitb -->
     <g transform="translate(147.015340909 73.1313920455)scale(0.1 -0.1)">
      <use xlink:href="#BitstreamVeraSans-Roman-69"/>
      <use x="27.783203125" xlink:href="#BitstreamVeraSans-Roman-69"/>
      <use x="55.56640625" xlink:href="#BitstreamVeraSans-Roman-74"/>
      <use x="94.775390625" xlink:href="#BitstreamVeraSans-Roman-62"/>
     </g>
    </g>
    <g id="line2d_55">
     <path d="M 122.015341 84.309517 
L 136.015341 84.309517 
" style="fill:none;stroke:#2adddd;stroke-linecap:square;"/>
    </g>
    <g id="line2d_56"/>
    <g id="text_23">
     <!-- ipn -->
     <g transform="translate(147.015340909 87.8095170455)scale(0.1 -0.1)">
      <use xlink:href="#BitstreamVeraSans-Roman-69"/>
      <use x="27.783203125" xlink:href="#BitstreamVeraSans-Roman-70"/>
      <use x="91.259765625" xlink:href="#BitstreamVeraSans-Roman-6e"/>
     </g>
    </g>
    <g id="line2d_57">
     <path d="M 122.015341 98.987642 
L 136.015341 98.987642 
" style="fill:none;stroke:#4df3ce;stroke-linecap:square;"/>
    </g>
    <g id="line2d_58"/>
    <g id="text_24">
     <!-- nthu -->
     <g transform="translate(147.015340909 102.487642045)scale(0.1 -0.1)">
      <use xlink:href="#BitstreamVeraSans-Roman-6e"/>
      <use x="63.37890625" xlink:href="#BitstreamVeraSans-Roman-74"/>
      <use x="102.587890625" xlink:href="#BitstreamVeraSans-Roman-68"/>
      <use x="165.966796875" xlink:href="#BitstreamVeraSans-Roman-75"/>
     </g>
    </g>
    <g id="line2d_59">
     <path d="M 122.015341 113.665767 
L 136.015341 113.665767 
" style="fill:none;stroke:#6efebe;stroke-linecap:square;"/>
    </g>
    <g id="line2d_60"/>
    <g id="text_25">
     <!-- pku -->
     <defs>
      <path d="M 9.078125 75.984375 
L 18.109375 75.984375 
L 18.109375 31.109375 
L 44.921875 54.6875 
L 56.390625 54.6875 
L 27.390625 29.109375 
L 57.625 0 
L 45.90625 0 
L 18.109375 26.703125 
L 18.109375 0 
L 9.078125 0 
z
" id="BitstreamVeraSans-Roman-6b"/>
     </defs>
     <g transform="translate(147.015340909 117.165767045)scale(0.1 -0.1)">
      <use xlink:href="#BitstreamVeraSans-Roman-70"/>
      <use x="63.4765625" xlink:href="#BitstreamVeraSans-Roman-6b"/>
      <use x="121.33984375" xlink:href="#BitstreamVeraSans-Roman-75"/>
     </g>
    </g>
    <g id="line2d_61">
     <path d="M 122.015341 128.343892 
L 136.015341 128.343892 
" style="fill:none;stroke:#90feab;stroke-linecap:square;"/>
    </g>
    <g id="line2d_62"/>
    <g id="text_26">
     <!-- post -->
     <g transform="translate(147.015340909 131.843892045)scale(0.1 -0.1)">
      <use xlink:href="#BitstreamVeraSans-Roman-70"/>
      <use x="63.4765625" xlink:href="#BitstreamVeraSans-Roman-6f"/>
      <use x="124.658203125" xlink:href="#BitstreamVeraSans-Roman-73"/>
      <use x="176.7578125" xlink:href="#BitstreamVeraSans-Roman-74"/>
     </g>
    </g>
    <g id="line2d_63">
     <path d="M 122.015341 143.022017 
L 136.015341 143.022017 
" style="fill:none;stroke:#b2f396;stroke-linecap:square;"/>
    </g>
    <g id="line2d_64"/>
    <g id="text_27">
     <!-- rac -->
     <g transform="translate(147.015340909 146.522017045)scale(0.1 -0.1)">
      <use xlink:href="#BitstreamVeraSans-Roman-72"/>
      <use x="41.11328125" xlink:href="#BitstreamVeraSans-Roman-61"/>
      <use x="102.392578125" xlink:href="#BitstreamVeraSans-Roman-63"/>
     </g>
    </g>
    <g id="line2d_65">
     <path d="M 122.015341 157.700142 
L 136.015341 157.700142 
" style="fill:none;stroke:#d4dd80;stroke-linecap:square;"/>
    </g>
    <g id="line2d_66"/>
    <g id="text_28">
     <!-- sjtu -->
     <defs>
      <path d="M 9.421875 54.6875 
L 18.40625 54.6875 
L 18.40625 -0.984375 
Q 18.40625 -11.421875 14.421875 -16.109375 
Q 10.453125 -20.796875 1.609375 -20.796875 
L -1.8125 -20.796875 
L -1.8125 -13.1875 
L 0.59375 -13.1875 
Q 5.71875 -13.1875 7.5625 -10.8125 
Q 9.421875 -8.453125 9.421875 -0.984375 
z
M 9.421875 75.984375 
L 18.40625 75.984375 
L 18.40625 64.59375 
L 9.421875 64.59375 
z
" id="BitstreamVeraSans-Roman-6a"/>
     </defs>
     <g transform="translate(147.015340909 161.200142045)scale(0.1 -0.1)">
      <use xlink:href="#BitstreamVeraSans-Roman-73"/>
      <use x="52.099609375" xlink:href="#BitstreamVeraSans-Roman-6a"/>
      <use x="79.8828125" xlink:href="#BitstreamVeraSans-Roman-74"/>
      <use x="119.091796875" xlink:href="#BitstreamVeraSans-Roman-75"/>
     </g>
    </g>
    <g id="line2d_67">
     <path d="M 122.015341 172.378267 
L 136.015341 172.378267 
" style="fill:none;stroke:#f6be68;stroke-linecap:square;"/>
    </g>
    <g id="line2d_68"/>
    <g id="text_29">
     <!-- ufc -->
     <g transform="translate(147.015340909 175.878267045)scale(0.1 -0.1)">
      <use xlink:href="#BitstreamVeraSans-Roman-75"/>
      <use x="63.37890625" xlink:href="#BitstreamVeraSans-Roman-66"/>
      <use x="98.583984375" xlink:href="#BitstreamVeraSans-Roman-63"/>
     </g>
    </g>
    <g id="line2d_69">
     <path d="M 122.015341 187.056392 
L 136.015341 187.056392 
" style="fill:none;stroke:#ff964f;stroke-linecap:square;"/>
    </g>
    <g id="line2d_70"/>
    <g id="text_30">
     <!-- umc -->
     <g transform="translate(147.015340909 190.556392045)scale(0.1 -0.1)">
      <use xlink:href="#BitstreamVeraSans-Roman-75"/>
      <use x="63.37890625" xlink:href="#BitstreamVeraSans-Roman-6d"/>
      <use x="160.791015625" xlink:href="#BitstreamVeraSans-Roman-63"/>
     </g>
    </g>
    <g id="line2d_71">
     <path d="M 122.015341 201.734517 
L 136.015341 201.734517 
" style="fill:none;stroke:#ff6835;stroke-linecap:square;"/>
    </g>
    <g id="line2d_72"/>
    <g id="text_31">
     <!-- camb -->
     <g transform="translate(147.015340909 205.234517045)scale(0.1 -0.1)">
      <use xlink:href="#BitstreamVeraSans-Roman-63"/>
      <use x="54.98046875" xlink:href="#BitstreamVeraSans-Roman-61"/>
      <use x="116.259765625" xlink:href="#BitstreamVeraSans-Roman-6d"/>
      <use x="213.671875" xlink:href="#BitstreamVeraSans-Roman-62"/>
     </g>
    </g>
    <g id="line2d_73">
     <path d="M 122.015341 216.412642 
L 136.015341 216.412642 
" style="fill:none;stroke:#ff351b;stroke-linecap:square;"/>
    </g>
    <g id="line2d_74"/>
    <g id="text_32">
     <!-- AMU -->
     <defs>
      <path d="M 34.1875 63.1875 
L 20.796875 26.90625 
L 47.609375 26.90625 
z
M 28.609375 72.90625 
L 39.796875 72.90625 
L 67.578125 0 
L 57.328125 0 
L 50.6875 18.703125 
L 17.828125 18.703125 
L 11.1875 0 
L 0.78125 0 
z
" id="BitstreamVeraSans-Roman-41"/>
      <path d="M 9.8125 72.90625 
L 24.515625 72.90625 
L 43.109375 23.296875 
L 61.8125 72.90625 
L 76.515625 72.90625 
L 76.515625 0 
L 66.890625 0 
L 66.890625 64.015625 
L 48.09375 14.015625 
L 38.1875 14.015625 
L 19.390625 64.015625 
L 19.390625 0 
L 9.8125 0 
z
" id="BitstreamVeraSans-Roman-4d"/>
      <path d="M 8.6875 72.90625 
L 18.609375 72.90625 
L 18.609375 28.609375 
Q 18.609375 16.890625 22.84375 11.734375 
Q 27.09375 6.59375 36.625 6.59375 
Q 46.09375 6.59375 50.34375 11.734375 
Q 54.59375 16.890625 54.59375 28.609375 
L 54.59375 72.90625 
L 64.5 72.90625 
L 64.5 27.390625 
Q 64.5 13.140625 57.4375 5.859375 
Q 50.390625 -1.421875 36.625 -1.421875 
Q 22.796875 -1.421875 15.734375 5.859375 
Q 8.6875 13.140625 8.6875 27.390625 
z
" id="BitstreamVeraSans-Roman-55"/>
     </defs>
     <g transform="translate(147.015340909 219.912642045)scale(0.1 -0.1)">
      <use xlink:href="#BitstreamVeraSans-Roman-41"/>
      <use x="68.408203125" xlink:href="#BitstreamVeraSans-Roman-4d"/>
      <use x="154.6875" xlink:href="#BitstreamVeraSans-Roman-55"/>
     </g>
    </g>
    <g id="line2d_75">
     <path d="M 122.015341 231.090767 
L 136.015341 231.090767 
" style="fill:none;stroke:#ff0000;stroke-linecap:square;"/>
    </g>
    <g id="line2d_76"/>
    <g id="text_33">
     <!-- Rozovskaya Roth -->
     <defs>
      <path d="M 5.515625 54.6875 
L 48.1875 54.6875 
L 48.1875 46.484375 
L 14.40625 7.171875 
L 48.1875 7.171875 
L 48.1875 0 
L 4.296875 0 
L 4.296875 8.203125 
L 38.09375 47.515625 
L 5.515625 47.515625 
z
" id="BitstreamVeraSans-Roman-7a"/>
      <path d="M 44.390625 34.1875 
Q 47.5625 33.109375 50.5625 29.59375 
Q 53.5625 26.078125 56.59375 19.921875 
L 66.609375 0 
L 56 0 
L 46.6875 18.703125 
Q 43.0625 26.03125 39.671875 28.421875 
Q 36.28125 30.8125 30.421875 30.8125 
L 19.671875 30.8125 
L 19.671875 0 
L 9.8125 0 
L 9.8125 72.90625 
L 32.078125 72.90625 
Q 44.578125 72.90625 50.734375 67.671875 
Q 56.890625 62.453125 56.890625 51.90625 
Q 56.890625 45.015625 53.6875 40.46875 
Q 50.484375 35.9375 44.390625 34.1875 
M 19.671875 64.796875 
L 19.671875 38.921875 
L 32.078125 38.921875 
Q 39.203125 38.921875 42.84375 42.21875 
Q 46.484375 45.515625 46.484375 51.90625 
Q 46.484375 58.296875 42.84375 61.546875 
Q 39.203125 64.796875 32.078125 64.796875 
z
" id="BitstreamVeraSans-Roman-52"/>
     </defs>
     <g transform="translate(147.015340909 234.590767045)scale(0.1 -0.1)">
      <use xlink:href="#BitstreamVeraSans-Roman-52"/>
      <use x="69.419921875" xlink:href="#BitstreamVeraSans-Roman-6f"/>
      <use x="130.6015625" xlink:href="#BitstreamVeraSans-Roman-7a"/>
      <use x="183.091796875" xlink:href="#BitstreamVeraSans-Roman-6f"/>
      <use x="244.2734375" xlink:href="#BitstreamVeraSans-Roman-76"/>
      <use x="303.453125" xlink:href="#BitstreamVeraSans-Roman-73"/>
      <use x="355.552734375" xlink:href="#BitstreamVeraSans-Roman-6b"/>
      <use x="413.447265625" xlink:href="#BitstreamVeraSans-Roman-61"/>
      <use x="474.7265625" xlink:href="#BitstreamVeraSans-Roman-79"/>
      <use x="533.90625" xlink:href="#BitstreamVeraSans-Roman-61"/>
      <use x="595.185546875" xlink:href="#BitstreamVeraSans-Roman-20"/>
      <use x="626.97265625" xlink:href="#BitstreamVeraSans-Roman-52"/>
      <use x="696.392578125" xlink:href="#BitstreamVeraSans-Roman-6f"/>
      <use x="757.57421875" xlink:href="#BitstreamVeraSans-Roman-74"/>
      <use x="796.783203125" xlink:href="#BitstreamVeraSans-Roman-68"/>
     </g>
    </g>
   </g>
  </g>
 </g>
 <defs>
  <clipPath id="pe0bc56e693">
   <rect height="157.090909091" width="202.909090909" x="72.0" y="43.2"/>
  </clipPath>
 </defs>
</svg>
