<?xml version="1.0" encoding="utf-8" standalone="no"?>
<!DOCTYPE svg PUBLIC "-//W3C//DTD SVG 1.1//EN"
  "http://www.w3.org/Graphics/SVG/1.1/DTD/svg11.dtd">
<!-- Created with matplotlib (http://matplotlib.org/) -->
<svg height="432pt" version="1.1" viewBox="0 0 576 432" width="576pt" xmlns="http://www.w3.org/2000/svg" xmlns:xlink="http://www.w3.org/1999/xlink">
 <defs>
  <style type="text/css">
*{stroke-linecap:butt;stroke-linejoin:round;stroke-miterlimit:100000;}
  </style>
 </defs>
 <g id="figure_1">
  <g id="patch_1">
   <path d="M 0 432 
L 576 432 
L 576 0 
L 0 0 
z
" style="fill:#ffffff;"/>
  </g>
  <g id="axes_1">
   <g id="patch_2">
    <path d="M 72 388.8 
L 518.4 388.8 
L 518.4 43.2 
L 72 43.2 
z
" style="fill:#ffffff;"/>
   </g>
   <g id="line2d_1">
    <path clip-path="url(#p9d81ab1eba)" d="M 72 388.8 
L 79.44 388.8 
L 86.88 226.704425 
L 94.32 141.069027 
L 101.76 90.60531 
L 109.2 71.745133 
L 116.64 57.472566 
L 124.08 51.355752 
L 131.52 47.277876 
L 138.96 45.238938 
L 146.4 45.238938 
L 153.84 43.709735 
L 161.28 43.2 
L 168.72 43.2 
L 176.16 43.2 
L 183.6 43.2 
L 191.04 43.2 
L 198.48 43.2 
L 205.92 43.2 
L 213.36 43.2 
L 220.8 43.2 
L 228.24 43.2 
L 235.68 43.2 
L 243.12 43.2 
L 250.56 43.2 
L 258 43.2 
L 265.44 43.2 
L 272.88 43.2 
L 280.32 43.2 
L 287.76 43.2 
L 295.2 43.2 
L 302.64 43.2 
L 310.08 43.2 
L 317.52 43.2 
L 324.96 43.2 
L 332.4 43.2 
L 339.84 43.2 
L 347.28 43.2 
L 354.72 43.2 
L 362.16 43.2 
L 369.6 43.2 
L 377.04 43.2 
L 384.48 43.2 
L 391.92 43.2 
L 399.36 43.2 
L 406.8 43.2 
L 414.24 43.2 
L 421.68 43.2 
L 429.12 43.2 
L 436.56 43.2 
L 444 43.2 
L 451.44 43.2 
L 458.88 43.2 
L 466.32 43.2 
L 473.76 43.2 
L 481.2 43.2 
L 488.64 43.2 
L 496.08 43.2 
L 503.52 43.2 
L 510.96 43.2 
L 518.4 43.2 
" style="fill:none;stroke:#8000ff;stroke-linecap:square;"/>
   </g>
   <g id="line2d_2">
    <path clip-path="url(#p9d81ab1eba)" d="M 72 388.8 
L 79.44 388.8 
L 86.88 240.976991 
L 94.32 160.948673 
L 101.76 114.053097 
L 109.2 92.134513 
L 116.64 74.80354 
L 124.08 64.60885 
L 131.52 59.511504 
L 138.96 53.904425 
L 146.4 51.355752 
L 153.84 49.826549 
L 161.28 49.316814 
L 168.72 48.80708 
L 176.16 48.80708 
L 183.6 48.297345 
L 191.04 48.297345 
L 198.48 47.787611 
L 205.92 47.787611 
L 213.36 47.787611 
L 220.8 47.787611 
L 228.24 47.787611 
L 235.68 47.787611 
L 243.12 47.787611 
L 250.56 47.787611 
L 258 47.787611 
L 265.44 47.787611 
L 272.88 47.787611 
L 280.32 47.787611 
L 287.76 47.787611 
L 295.2 47.787611 
L 302.64 47.787611 
L 310.08 47.787611 
L 317.52 47.787611 
L 324.96 47.787611 
L 332.4 47.787611 
L 339.84 47.787611 
L 347.28 47.787611 
L 354.72 47.787611 
L 362.16 47.787611 
L 369.6 47.787611 
L 377.04 47.787611 
L 384.48 47.787611 
L 391.92 47.787611 
L 399.36 47.787611 
L 406.8 47.787611 
L 414.24 47.787611 
L 421.68 47.787611 
L 429.12 47.787611 
L 436.56 47.787611 
L 444 47.787611 
L 451.44 47.787611 
L 458.88 47.787611 
L 466.32 47.787611 
L 473.76 47.787611 
L 481.2 47.787611 
L 488.64 47.787611 
L 496.08 47.787611 
L 503.52 47.787611 
L 510.96 47.787611 
L 518.4 47.787611 
" style="fill:none;stroke:#5e35fe;stroke-linecap:square;"/>
   </g>
   <g id="line2d_3">
    <path clip-path="url(#p9d81ab1eba)" d="M 72 388.8 
L 79.44 388.8 
L 86.88 304.184071 
L 94.32 252.19115 
L 101.76 212.431858 
L 109.2 190.513274 
L 116.64 172.672566 
L 124.08 161.968142 
L 131.52 155.851327 
L 138.96 150.753982 
L 146.4 147.185841 
L 153.84 143.617699 
L 161.28 142.088496 
L 168.72 141.069027 
L 176.16 140.049558 
L 183.6 138.010619 
L 191.04 136.99115 
L 198.48 135.971681 
L 205.92 135.971681 
L 213.36 134.952212 
L 220.8 134.952212 
L 228.24 134.442478 
L 235.68 134.442478 
L 243.12 134.442478 
L 250.56 134.442478 
L 258 132.913274 
L 265.44 132.40354 
L 272.88 132.40354 
L 280.32 131.893805 
L 287.76 131.893805 
L 295.2 131.893805 
L 302.64 131.893805 
L 310.08 131.893805 
L 317.52 131.893805 
L 324.96 131.893805 
L 332.4 131.893805 
L 339.84 131.893805 
L 347.28 131.893805 
L 354.72 131.893805 
L 362.16 131.893805 
L 369.6 131.893805 
L 377.04 131.893805 
L 384.48 131.893805 
L 391.92 131.893805 
L 399.36 131.893805 
L 406.8 131.893805 
L 414.24 131.893805 
L 421.68 131.893805 
L 429.12 131.893805 
L 436.56 131.893805 
L 444 131.893805 
L 451.44 131.893805 
L 458.88 131.893805 
L 466.32 131.893805 
L 473.76 131.893805 
L 481.2 131.893805 
L 488.64 131.893805 
L 496.08 131.893805 
L 503.52 131.893805 
L 510.96 131.893805 
L 518.4 131.893805 
" style="fill:none;stroke:#3c68f9;stroke-linecap:square;"/>
   </g>
   <g id="line2d_4">
    <path clip-path="url(#p9d81ab1eba)" d="M 72 388.8 
L 79.44 388.8 
L 86.88 315.907965 
L 94.32 298.576991 
L 101.76 293.989381 
L 109.2 292.969912 
L 116.64 292.969912 
L 124.08 292.969912 
L 131.52 292.969912 
L 138.96 292.969912 
L 146.4 292.969912 
L 153.84 292.969912 
L 161.28 292.969912 
L 168.72 292.969912 
L 176.16 292.969912 
L 183.6 292.969912 
L 191.04 292.969912 
L 198.48 292.969912 
L 205.92 292.969912 
L 213.36 292.969912 
L 220.8 292.969912 
L 228.24 292.969912 
L 235.68 292.969912 
L 243.12 292.969912 
L 250.56 292.969912 
L 258 292.969912 
L 265.44 292.969912 
L 272.88 292.969912 
L 280.32 292.969912 
L 287.76 292.969912 
L 295.2 292.969912 
L 302.64 292.969912 
L 310.08 292.969912 
L 317.52 292.969912 
L 324.96 292.969912 
L 332.4 292.969912 
L 339.84 292.969912 
L 347.28 292.969912 
L 354.72 292.969912 
L 362.16 292.969912 
L 369.6 292.969912 
L 377.04 292.969912 
L 384.48 292.969912 
L 391.92 292.969912 
L 399.36 292.969912 
L 406.8 292.969912 
L 414.24 292.969912 
L 421.68 292.969912 
L 429.12 292.969912 
L 436.56 292.969912 
L 444 292.969912 
L 451.44 292.969912 
L 458.88 292.969912 
L 466.32 292.969912 
L 473.76 292.969912 
L 481.2 292.969912 
L 488.64 292.969912 
L 496.08 292.969912 
L 503.52 292.969912 
L 510.96 292.969912 
L 518.4 292.969912 
" style="fill:none;stroke:#1996f3;stroke-linecap:square;"/>
   </g>
   <g id="line2d_5">
    <path clip-path="url(#p9d81ab1eba)" d="M 72 388.8 
L 79.44 388.8 
L 86.88 383.19292 
L 94.32 383.19292 
L 101.76 382.683186 
L 109.2 382.683186 
L 116.64 382.683186 
L 124.08 382.683186 
L 131.52 382.683186 
L 138.96 382.683186 
L 146.4 382.683186 
L 153.84 382.683186 
L 161.28 382.683186 
L 168.72 382.683186 
L 176.16 382.683186 
L 183.6 382.683186 
L 191.04 382.683186 
L 198.48 382.683186 
L 205.92 382.683186 
L 213.36 382.683186 
L 220.8 382.683186 
L 228.24 382.683186 
L 235.68 382.683186 
L 243.12 382.683186 
L 250.56 382.683186 
L 258 382.683186 
L 265.44 382.683186 
L 272.88 382.683186 
L 280.32 382.683186 
L 287.76 382.683186 
L 295.2 382.683186 
L 302.64 382.683186 
L 310.08 382.683186 
L 317.52 382.683186 
L 324.96 382.683186 
L 332.4 382.683186 
L 339.84 382.683186 
L 347.28 382.683186 
L 354.72 382.683186 
L 362.16 382.683186 
L 369.6 382.683186 
L 377.04 382.683186 
L 384.48 382.683186 
L 391.92 382.683186 
L 399.36 382.683186 
L 406.8 382.683186 
L 414.24 382.683186 
L 421.68 382.683186 
L 429.12 382.683186 
L 436.56 382.683186 
L 444 382.683186 
L 451.44 382.683186 
L 458.88 382.683186 
L 466.32 382.683186 
L 473.76 382.683186 
L 481.2 382.683186 
L 488.64 382.683186 
L 496.08 382.683186 
L 503.52 382.683186 
L 510.96 382.683186 
L 518.4 382.683186 
" style="fill:none;stroke:#08bee9;stroke-linecap:square;"/>
   </g>
   <g id="line2d_6">
    <path clip-path="url(#p9d81ab1eba)" d="M 72 388.8 
L 79.44 388.8 
L 86.88 381.153982 
L 94.32 380.644248 
L 101.76 380.644248 
L 109.2 380.644248 
L 116.64 380.644248 
L 124.08 380.644248 
L 131.52 380.644248 
L 138.96 380.644248 
L 146.4 380.644248 
L 153.84 380.644248 
L 161.28 380.644248 
L 168.72 380.644248 
L 176.16 380.644248 
L 183.6 380.644248 
L 191.04 380.644248 
L 198.48 380.644248 
L 205.92 380.644248 
L 213.36 380.644248 
L 220.8 380.644248 
L 228.24 380.644248 
L 235.68 380.644248 
L 243.12 380.644248 
L 250.56 380.644248 
L 258 380.644248 
L 265.44 380.644248 
L 272.88 380.644248 
L 280.32 380.644248 
L 287.76 380.644248 
L 295.2 380.644248 
L 302.64 380.644248 
L 310.08 380.644248 
L 317.52 380.644248 
L 324.96 380.644248 
L 332.4 380.644248 
L 339.84 380.644248 
L 347.28 380.644248 
L 354.72 380.644248 
L 362.16 380.644248 
L 369.6 380.644248 
L 377.04 380.644248 
L 384.48 380.644248 
L 391.92 380.644248 
L 399.36 380.644248 
L 406.8 380.644248 
L 414.24 380.644248 
L 421.68 380.644248 
L 429.12 380.644248 
L 436.56 380.644248 
L 444 380.644248 
L 451.44 380.644248 
L 458.88 380.644248 
L 466.32 380.644248 
L 473.76 380.644248 
L 481.2 380.644248 
L 488.64 380.644248 
L 496.08 380.644248 
L 503.52 380.644248 
L 510.96 380.644248 
L 518.4 380.644248 
" style="fill:none;stroke:#2adddd;stroke-linecap:square;"/>
   </g>
   <g id="line2d_7">
    <path clip-path="url(#p9d81ab1eba)" d="M 72 388.8 
L 79.44 388.8 
L 86.88 317.946903 
L 94.32 305.20354 
L 101.76 301.635398 
L 109.2 300.615929 
L 116.64 300.615929 
L 124.08 300.615929 
L 131.52 300.106195 
L 138.96 300.106195 
L 146.4 300.106195 
L 153.84 300.106195 
L 161.28 300.106195 
L 168.72 299.59646 
L 176.16 299.59646 
L 183.6 299.086726 
L 191.04 299.086726 
L 198.48 299.086726 
L 205.92 299.086726 
L 213.36 299.086726 
L 220.8 299.086726 
L 228.24 299.086726 
L 235.68 299.086726 
L 243.12 299.086726 
L 250.56 299.086726 
L 258 298.576991 
L 265.44 298.576991 
L 272.88 298.576991 
L 280.32 298.576991 
L 287.76 298.576991 
L 295.2 298.576991 
L 302.64 298.576991 
L 310.08 298.576991 
L 317.52 298.576991 
L 324.96 298.576991 
L 332.4 298.576991 
L 339.84 298.576991 
L 347.28 298.576991 
L 354.72 298.576991 
L 362.16 298.576991 
L 369.6 298.576991 
L 377.04 298.576991 
L 384.48 298.576991 
L 391.92 298.576991 
L 399.36 298.576991 
L 406.8 298.576991 
L 414.24 298.576991 
L 421.68 298.576991 
L 429.12 298.576991 
L 436.56 298.576991 
L 444 298.576991 
L 451.44 298.576991 
L 458.88 298.576991 
L 466.32 298.576991 
L 473.76 298.576991 
L 481.2 298.576991 
L 488.64 298.576991 
L 496.08 298.576991 
L 503.52 298.576991 
L 510.96 298.576991 
L 518.4 298.576991 
" style="fill:none;stroke:#4df3ce;stroke-linecap:square;"/>
   </g>
   <g id="line2d_8">
    <path clip-path="url(#p9d81ab1eba)" d="M 72 388.8 
L 79.44 388.8 
L 86.88 361.784071 
L 94.32 354.138053 
L 101.76 354.138053 
L 109.2 354.138053 
L 116.64 354.138053 
L 124.08 354.138053 
L 131.52 354.138053 
L 138.96 354.138053 
L 146.4 354.138053 
L 153.84 354.138053 
L 161.28 354.138053 
L 168.72 354.138053 
L 176.16 354.138053 
L 183.6 354.138053 
L 191.04 354.138053 
L 198.48 354.138053 
L 205.92 354.138053 
L 213.36 354.138053 
L 220.8 354.138053 
L 228.24 354.138053 
L 235.68 354.138053 
L 243.12 354.138053 
L 250.56 354.138053 
L 258 354.138053 
L 265.44 354.138053 
L 272.88 354.138053 
L 280.32 354.138053 
L 287.76 354.138053 
L 295.2 354.138053 
L 302.64 354.138053 
L 310.08 354.138053 
L 317.52 354.138053 
L 324.96 354.138053 
L 332.4 354.138053 
L 339.84 354.138053 
L 347.28 354.138053 
L 354.72 354.138053 
L 362.16 354.138053 
L 369.6 354.138053 
L 377.04 354.138053 
L 384.48 354.138053 
L 391.92 354.138053 
L 399.36 354.138053 
L 406.8 354.138053 
L 414.24 354.138053 
L 421.68 354.138053 
L 429.12 354.138053 
L 436.56 354.138053 
L 444 354.138053 
L 451.44 354.138053 
L 458.88 354.138053 
L 466.32 354.138053 
L 473.76 354.138053 
L 481.2 354.138053 
L 488.64 354.138053 
L 496.08 354.138053 
L 503.52 354.138053 
L 510.96 354.138053 
L 518.4 354.138053 
" style="fill:none;stroke:#6efebe;stroke-linecap:square;"/>
   </g>
   <g id="line2d_9">
    <path clip-path="url(#p9d81ab1eba)" d="M 72 388.8 
L 79.44 388.8 
L 86.88 319.476106 
L 94.32 299.59646 
L 101.76 296.538053 
L 109.2 296.028319 
L 116.64 296.028319 
L 124.08 296.028319 
L 131.52 296.028319 
L 138.96 296.028319 
L 146.4 296.028319 
L 153.84 296.028319 
L 161.28 296.028319 
L 168.72 296.028319 
L 176.16 296.028319 
L 183.6 296.028319 
L 191.04 296.028319 
L 198.48 296.028319 
L 205.92 296.028319 
L 213.36 296.028319 
L 220.8 296.028319 
L 228.24 296.028319 
L 235.68 296.028319 
L 243.12 296.028319 
L 250.56 296.028319 
L 258 296.028319 
L 265.44 296.028319 
L 272.88 296.028319 
L 280.32 296.028319 
L 287.76 296.028319 
L 295.2 296.028319 
L 302.64 296.028319 
L 310.08 296.028319 
L 317.52 296.028319 
L 324.96 296.028319 
L 332.4 296.028319 
L 339.84 296.028319 
L 347.28 296.028319 
L 354.72 296.028319 
L 362.16 296.028319 
L 369.6 296.028319 
L 377.04 296.028319 
L 384.48 296.028319 
L 391.92 296.028319 
L 399.36 296.028319 
L 406.8 296.028319 
L 414.24 296.028319 
L 421.68 296.028319 
L 429.12 296.028319 
L 436.56 296.028319 
L 444 296.028319 
L 451.44 296.028319 
L 458.88 296.028319 
L 466.32 296.028319 
L 473.76 296.028319 
L 481.2 296.028319 
L 488.64 296.028319 
L 496.08 296.028319 
L 503.52 296.028319 
L 510.96 296.028319 
L 518.4 296.028319 
" style="fill:none;stroke:#90feab;stroke-linecap:square;"/>
   </g>
   <g id="line2d_10">
    <path clip-path="url(#p9d81ab1eba)" d="M 72 388.8 
L 79.44 388.8 
L 86.88 360.254867 
L 94.32 354.647788 
L 101.76 352.099115 
L 109.2 352.099115 
L 116.64 352.099115 
L 124.08 352.099115 
L 131.52 352.099115 
L 138.96 352.099115 
L 146.4 352.099115 
L 153.84 352.099115 
L 161.28 352.099115 
L 168.72 352.099115 
L 176.16 352.099115 
L 183.6 352.099115 
L 191.04 352.099115 
L 198.48 352.099115 
L 205.92 352.099115 
L 213.36 352.099115 
L 220.8 352.099115 
L 228.24 352.099115 
L 235.68 352.099115 
L 243.12 352.099115 
L 250.56 352.099115 
L 258 352.099115 
L 265.44 352.099115 
L 272.88 352.099115 
L 280.32 352.099115 
L 287.76 352.099115 
L 295.2 352.099115 
L 302.64 352.099115 
L 310.08 352.099115 
L 317.52 352.099115 
L 324.96 352.099115 
L 332.4 352.099115 
L 339.84 352.099115 
L 347.28 352.099115 
L 354.72 352.099115 
L 362.16 352.099115 
L 369.6 352.099115 
L 377.04 352.099115 
L 384.48 352.099115 
L 391.92 352.099115 
L 399.36 352.099115 
L 406.8 352.099115 
L 414.24 352.099115 
L 421.68 352.099115 
L 429.12 352.099115 
L 436.56 352.099115 
L 444 352.099115 
L 451.44 352.099115 
L 458.88 352.099115 
L 466.32 352.099115 
L 473.76 352.099115 
L 481.2 352.099115 
L 488.64 352.099115 
L 496.08 352.099115 
L 503.52 352.099115 
L 510.96 352.099115 
L 518.4 352.099115 
" style="fill:none;stroke:#b2f396;stroke-linecap:square;"/>
   </g>
   <g id="line2d_11">
    <path clip-path="url(#p9d81ab1eba)" d="M 72 388.8 
L 79.44 388.8 
L 86.88 369.430088 
L 94.32 365.352212 
L 101.76 364.842478 
L 109.2 364.842478 
L 116.64 364.842478 
L 124.08 364.842478 
L 131.52 364.842478 
L 138.96 364.842478 
L 146.4 364.842478 
L 153.84 364.842478 
L 161.28 364.842478 
L 168.72 364.842478 
L 176.16 364.842478 
L 183.6 364.842478 
L 191.04 364.842478 
L 198.48 364.842478 
L 205.92 364.842478 
L 213.36 364.842478 
L 220.8 364.842478 
L 228.24 364.842478 
L 235.68 364.842478 
L 243.12 364.842478 
L 250.56 364.842478 
L 258 364.842478 
L 265.44 364.842478 
L 272.88 364.842478 
L 280.32 364.842478 
L 287.76 364.842478 
L 295.2 364.842478 
L 302.64 364.842478 
L 310.08 364.842478 
L 317.52 364.842478 
L 324.96 364.842478 
L 332.4 364.842478 
L 339.84 364.842478 
L 347.28 364.842478 
L 354.72 364.842478 
L 362.16 364.842478 
L 369.6 364.842478 
L 377.04 364.842478 
L 384.48 364.842478 
L 391.92 364.842478 
L 399.36 364.842478 
L 406.8 364.842478 
L 414.24 364.842478 
L 421.68 364.842478 
L 429.12 364.842478 
L 436.56 364.842478 
L 444 364.842478 
L 451.44 364.842478 
L 458.88 364.842478 
L 466.32 364.842478 
L 473.76 364.842478 
L 481.2 364.842478 
L 488.64 364.842478 
L 496.08 364.842478 
L 503.52 364.842478 
L 510.96 364.842478 
L 518.4 364.842478 
" style="fill:none;stroke:#d4dd80;stroke-linecap:square;"/>
   </g>
   <g id="line2d_12">
    <path clip-path="url(#p9d81ab1eba)" d="M 72 388.8 
L 79.44 388.8 
L 86.88 388.8 
L 94.32 388.8 
L 101.76 388.8 
L 109.2 388.8 
L 116.64 388.8 
L 124.08 388.8 
L 131.52 388.8 
L 138.96 388.8 
L 146.4 388.8 
L 153.84 388.8 
L 161.28 388.8 
L 168.72 388.8 
L 176.16 388.8 
L 183.6 388.8 
L 191.04 388.8 
L 198.48 388.8 
L 205.92 388.8 
L 213.36 388.8 
L 220.8 388.8 
L 228.24 388.8 
L 235.68 388.8 
L 243.12 388.8 
L 250.56 388.8 
L 258 388.8 
L 265.44 388.8 
L 272.88 388.8 
L 280.32 388.8 
L 287.76 388.8 
L 295.2 388.8 
L 302.64 388.8 
L 310.08 388.8 
L 317.52 388.8 
L 324.96 388.8 
L 332.4 388.8 
L 339.84 388.8 
L 347.28 388.8 
L 354.72 388.8 
L 362.16 388.8 
L 369.6 388.8 
L 377.04 388.8 
L 384.48 388.8 
L 391.92 388.8 
L 399.36 388.8 
L 406.8 388.8 
L 414.24 388.8 
L 421.68 388.8 
L 429.12 388.8 
L 436.56 388.8 
L 444 388.8 
L 451.44 388.8 
L 458.88 388.8 
L 466.32 388.8 
L 473.76 388.8 
L 481.2 388.8 
L 488.64 388.8 
L 496.08 388.8 
L 503.52 388.8 
L 510.96 388.8 
L 518.4 388.8 
" style="fill:none;stroke:#f6be68;stroke-linecap:square;"/>
   </g>
   <g id="line2d_13">
    <path clip-path="url(#p9d81ab1eba)" d="M 72 388.8 
L 79.44 388.8 
L 86.88 311.320354 
L 94.32 295.518584 
L 101.76 290.421239 
L 109.2 289.40177 
L 116.64 288.892035 
L 124.08 288.382301 
L 131.52 288.382301 
L 138.96 288.382301 
L 146.4 288.382301 
L 153.84 288.382301 
L 161.28 288.382301 
L 168.72 288.382301 
L 176.16 288.382301 
L 183.6 288.382301 
L 191.04 288.382301 
L 198.48 288.382301 
L 205.92 288.382301 
L 213.36 288.382301 
L 220.8 288.382301 
L 228.24 288.382301 
L 235.68 288.382301 
L 243.12 288.382301 
L 250.56 288.382301 
L 258 288.382301 
L 265.44 288.382301 
L 272.88 288.382301 
L 280.32 288.382301 
L 287.76 288.382301 
L 295.2 288.382301 
L 302.64 288.382301 
L 310.08 288.382301 
L 317.52 288.382301 
L 324.96 288.382301 
L 332.4 288.382301 
L 339.84 288.382301 
L 347.28 288.382301 
L 354.72 288.382301 
L 362.16 288.382301 
L 369.6 288.382301 
L 377.04 288.382301 
L 384.48 288.382301 
L 391.92 288.382301 
L 399.36 288.382301 
L 406.8 288.382301 
L 414.24 288.382301 
L 421.68 288.382301 
L 429.12 288.382301 
L 436.56 288.382301 
L 444 288.382301 
L 451.44 288.382301 
L 458.88 288.382301 
L 466.32 288.382301 
L 473.76 288.382301 
L 481.2 288.382301 
L 488.64 288.382301 
L 496.08 288.382301 
L 503.52 288.382301 
L 510.96 288.382301 
L 518.4 288.382301 
" style="fill:none;stroke:#ff964f;stroke-linecap:square;"/>
   </g>
   <g id="line2d_14">
    <path clip-path="url(#p9d81ab1eba)" d="M 72 388.8 
L 79.44 388.8 
L 86.88 255.249558 
L 94.32 212.941593 
L 101.76 201.217699 
L 109.2 199.178761 
L 116.64 197.649558 
L 124.08 197.139823 
L 131.52 197.139823 
L 138.96 197.139823 
L 146.4 197.139823 
L 153.84 197.139823 
L 161.28 197.139823 
L 168.72 197.139823 
L 176.16 197.139823 
L 183.6 197.139823 
L 191.04 197.139823 
L 198.48 197.139823 
L 205.92 197.139823 
L 213.36 197.139823 
L 220.8 197.139823 
L 228.24 197.139823 
L 235.68 197.139823 
L 243.12 197.139823 
L 250.56 197.139823 
L 258 197.139823 
L 265.44 197.139823 
L 272.88 197.139823 
L 280.32 197.139823 
L 287.76 197.139823 
L 295.2 197.139823 
L 302.64 197.139823 
L 310.08 197.139823 
L 317.52 197.139823 
L 324.96 197.139823 
L 332.4 197.139823 
L 339.84 197.139823 
L 347.28 197.139823 
L 354.72 197.139823 
L 362.16 197.139823 
L 369.6 197.139823 
L 377.04 197.139823 
L 384.48 197.139823 
L 391.92 197.139823 
L 399.36 197.139823 
L 406.8 197.139823 
L 414.24 197.139823 
L 421.68 197.139823 
L 429.12 197.139823 
L 436.56 197.139823 
L 444 197.139823 
L 451.44 197.139823 
L 458.88 197.139823 
L 466.32 197.139823 
L 473.76 197.139823 
L 481.2 197.139823 
L 488.64 197.139823 
L 496.08 197.139823 
L 503.52 197.139823 
L 510.96 197.139823 
L 518.4 197.139823 
" style="fill:none;stroke:#ff6835;stroke-linecap:square;"/>
   </g>
   <g id="line2d_15">
    <path clip-path="url(#p9d81ab1eba)" d="M 72 388.8 
L 79.44 388.8 
L 86.88 331.709735 
L 94.32 306.732743 
L 101.76 298.067257 
L 109.2 292.460177 
L 116.64 291.440708 
L 124.08 290.930973 
L 131.52 290.930973 
L 138.96 290.930973 
L 146.4 290.930973 
L 153.84 290.930973 
L 161.28 290.930973 
L 168.72 290.930973 
L 176.16 290.930973 
L 183.6 290.930973 
L 191.04 290.930973 
L 198.48 290.930973 
L 205.92 290.930973 
L 213.36 290.930973 
L 220.8 290.930973 
L 228.24 290.930973 
L 235.68 290.930973 
L 243.12 290.930973 
L 250.56 290.930973 
L 258 290.930973 
L 265.44 290.930973 
L 272.88 290.930973 
L 280.32 290.930973 
L 287.76 290.930973 
L 295.2 290.930973 
L 302.64 290.930973 
L 310.08 290.930973 
L 317.52 290.930973 
L 324.96 290.930973 
L 332.4 290.930973 
L 339.84 290.930973 
L 347.28 290.930973 
L 354.72 290.930973 
L 362.16 290.930973 
L 369.6 290.930973 
L 377.04 290.930973 
L 384.48 290.930973 
L 391.92 290.930973 
L 399.36 290.930973 
L 406.8 290.930973 
L 414.24 290.930973 
L 421.68 290.930973 
L 429.12 290.930973 
L 436.56 290.930973 
L 444 290.930973 
L 451.44 290.930973 
L 458.88 290.930973 
L 466.32 290.930973 
L 473.76 290.930973 
L 481.2 290.930973 
L 488.64 290.930973 
L 496.08 290.930973 
L 503.52 290.930973 
L 510.96 290.930973 
L 518.4 290.930973 
" style="fill:none;stroke:#ff351b;stroke-linecap:square;"/>
   </g>
   <g id="line2d_16">
    <path clip-path="url(#p9d81ab1eba)" d="M 72 388.8 
L 79.44 388.8 
L 86.88 353.118584 
L 94.32 348.021239 
L 101.76 343.943363 
L 109.2 343.433628 
L 116.64 343.433628 
L 124.08 343.433628 
L 131.52 343.433628 
L 138.96 343.433628 
L 146.4 343.433628 
L 153.84 343.433628 
L 161.28 343.433628 
L 168.72 343.433628 
L 176.16 343.433628 
L 183.6 343.433628 
L 191.04 343.433628 
L 198.48 343.433628 
L 205.92 343.433628 
L 213.36 343.433628 
L 220.8 343.433628 
L 228.24 343.433628 
L 235.68 343.433628 
L 243.12 343.433628 
L 250.56 343.433628 
L 258 343.433628 
L 265.44 343.433628 
L 272.88 343.433628 
L 280.32 343.433628 
L 287.76 343.433628 
L 295.2 343.433628 
L 302.64 343.433628 
L 310.08 343.433628 
L 317.52 343.433628 
L 324.96 343.433628 
L 332.4 343.433628 
L 339.84 343.433628 
L 347.28 343.433628 
L 354.72 343.433628 
L 362.16 343.433628 
L 369.6 343.433628 
L 377.04 343.433628 
L 384.48 343.433628 
L 391.92 343.433628 
L 399.36 343.433628 
L 406.8 343.433628 
L 414.24 343.433628 
L 421.68 343.433628 
L 429.12 343.433628 
L 436.56 343.433628 
L 444 343.433628 
L 451.44 343.433628 
L 458.88 343.433628 
L 466.32 343.433628 
L 473.76 343.433628 
L 481.2 343.433628 
L 488.64 343.433628 
L 496.08 343.433628 
L 503.52 343.433628 
L 510.96 343.433628 
L 518.4 343.433628 
" style="fill:none;stroke:#ff0000;stroke-linecap:square;"/>
   </g>
   <g id="patch_3">
    <path d="M 72 388.8 
L 72 43.2 
" style="fill:none;stroke:#000000;stroke-linecap:square;stroke-linejoin:miter;"/>
   </g>
   <g id="patch_4">
    <path d="M 72 43.2 
L 518.4 43.2 
" style="fill:none;stroke:#000000;stroke-linecap:square;stroke-linejoin:miter;"/>
   </g>
   <g id="patch_5">
    <path d="M 72 388.8 
L 518.4 388.8 
" style="fill:none;stroke:#000000;stroke-linecap:square;stroke-linejoin:miter;"/>
   </g>
   <g id="patch_6">
    <path d="M 518.4 388.8 
L 518.4 43.2 
" style="fill:none;stroke:#000000;stroke-linecap:square;stroke-linejoin:miter;"/>
   </g>
   <g id="matplotlib.axis_1">
    <g id="xtick_1">
     <g id="line2d_17">
      <defs>
       <path d="M 0 0 
L 0 -4 
" id="mcfa1ab53de" style="stroke:#000000;stroke-width:0.5;"/>
      </defs>
      <g>
       <use style="stroke:#000000;stroke-width:0.5;" x="72.0" xlink:href="#mcfa1ab53de" y="388.8"/>
      </g>
     </g>
     <g id="line2d_18">
      <defs>
       <path d="M 0 0 
L 0 4 
" id="m341ccfd3d2" style="stroke:#000000;stroke-width:0.5;"/>
      </defs>
      <g>
       <use style="stroke:#000000;stroke-width:0.5;" x="72.0" xlink:href="#m341ccfd3d2" y="43.2"/>
      </g>
     </g>
     <g id="text_1">
      <!-- 0 -->
      <defs>
       <path d="M 31.78125 66.40625 
Q 24.171875 66.40625 20.328125 58.90625 
Q 16.5 51.421875 16.5 36.375 
Q 16.5 21.390625 20.328125 13.890625 
Q 24.171875 6.390625 31.78125 6.390625 
Q 39.453125 6.390625 43.28125 13.890625 
Q 47.125 21.390625 47.125 36.375 
Q 47.125 51.421875 43.28125 58.90625 
Q 39.453125 66.40625 31.78125 66.40625 
M 31.78125 74.21875 
Q 44.046875 74.21875 50.515625 64.515625 
Q 56.984375 54.828125 56.984375 36.375 
Q 56.984375 17.96875 50.515625 8.265625 
Q 44.046875 -1.421875 31.78125 -1.421875 
Q 19.53125 -1.421875 13.0625 8.265625 
Q 6.59375 17.96875 6.59375 36.375 
Q 6.59375 54.828125 13.0625 64.515625 
Q 19.53125 74.21875 31.78125 74.21875 
" id="BitstreamVeraSans-Roman-30"/>
      </defs>
      <g transform="translate(68.1825 401.918125)scale(0.12 -0.12)">
       <use xlink:href="#BitstreamVeraSans-Roman-30"/>
      </g>
     </g>
    </g>
    <g id="xtick_2">
     <g id="line2d_19">
      <g>
       <use style="stroke:#000000;stroke-width:0.5;" x="146.4" xlink:href="#mcfa1ab53de" y="388.8"/>
      </g>
     </g>
     <g id="line2d_20">
      <g>
       <use style="stroke:#000000;stroke-width:0.5;" x="146.4" xlink:href="#m341ccfd3d2" y="43.2"/>
      </g>
     </g>
     <g id="text_2">
      <!-- 10 -->
      <defs>
       <path d="M 12.40625 8.296875 
L 28.515625 8.296875 
L 28.515625 63.921875 
L 10.984375 60.40625 
L 10.984375 69.390625 
L 28.421875 72.90625 
L 38.28125 72.90625 
L 38.28125 8.296875 
L 54.390625 8.296875 
L 54.390625 0 
L 12.40625 0 
z
" id="BitstreamVeraSans-Roman-31"/>
      </defs>
      <g transform="translate(138.765 401.918125)scale(0.12 -0.12)">
       <use xlink:href="#BitstreamVeraSans-Roman-31"/>
       <use x="63.623046875" xlink:href="#BitstreamVeraSans-Roman-30"/>
      </g>
     </g>
    </g>
    <g id="xtick_3">
     <g id="line2d_21">
      <g>
       <use style="stroke:#000000;stroke-width:0.5;" x="220.8" xlink:href="#mcfa1ab53de" y="388.8"/>
      </g>
     </g>
     <g id="line2d_22">
      <g>
       <use style="stroke:#000000;stroke-width:0.5;" x="220.8" xlink:href="#m341ccfd3d2" y="43.2"/>
      </g>
     </g>
     <g id="text_3">
      <!-- 20 -->
      <defs>
       <path d="M 19.1875 8.296875 
L 53.609375 8.296875 
L 53.609375 0 
L 7.328125 0 
L 7.328125 8.296875 
Q 12.9375 14.109375 22.625 23.890625 
Q 32.328125 33.6875 34.8125 36.53125 
Q 39.546875 41.84375 41.421875 45.53125 
Q 43.3125 49.21875 43.3125 52.78125 
Q 43.3125 58.59375 39.234375 62.25 
Q 35.15625 65.921875 28.609375 65.921875 
Q 23.96875 65.921875 18.8125 64.3125 
Q 13.671875 62.703125 7.8125 59.421875 
L 7.8125 69.390625 
Q 13.765625 71.78125 18.9375 73 
Q 24.125 74.21875 28.421875 74.21875 
Q 39.75 74.21875 46.484375 68.546875 
Q 53.21875 62.890625 53.21875 53.421875 
Q 53.21875 48.921875 51.53125 44.890625 
Q 49.859375 40.875 45.40625 35.40625 
Q 44.1875 33.984375 37.640625 27.21875 
Q 31.109375 20.453125 19.1875 8.296875 
" id="BitstreamVeraSans-Roman-32"/>
      </defs>
      <g transform="translate(213.165 401.918125)scale(0.12 -0.12)">
       <use xlink:href="#BitstreamVeraSans-Roman-32"/>
       <use x="63.623046875" xlink:href="#BitstreamVeraSans-Roman-30"/>
      </g>
     </g>
    </g>
    <g id="xtick_4">
     <g id="line2d_23">
      <g>
       <use style="stroke:#000000;stroke-width:0.5;" x="295.2" xlink:href="#mcfa1ab53de" y="388.8"/>
      </g>
     </g>
     <g id="line2d_24">
      <g>
       <use style="stroke:#000000;stroke-width:0.5;" x="295.2" xlink:href="#m341ccfd3d2" y="43.2"/>
      </g>
     </g>
     <g id="text_4">
      <!-- 30 -->
      <defs>
       <path d="M 40.578125 39.3125 
Q 47.65625 37.796875 51.625 33 
Q 55.609375 28.21875 55.609375 21.1875 
Q 55.609375 10.40625 48.1875 4.484375 
Q 40.765625 -1.421875 27.09375 -1.421875 
Q 22.515625 -1.421875 17.65625 -0.515625 
Q 12.796875 0.390625 7.625 2.203125 
L 7.625 11.71875 
Q 11.71875 9.328125 16.59375 8.109375 
Q 21.484375 6.890625 26.8125 6.890625 
Q 36.078125 6.890625 40.9375 10.546875 
Q 45.796875 14.203125 45.796875 21.1875 
Q 45.796875 27.640625 41.28125 31.265625 
Q 36.765625 34.90625 28.71875 34.90625 
L 20.21875 34.90625 
L 20.21875 43.015625 
L 29.109375 43.015625 
Q 36.375 43.015625 40.234375 45.921875 
Q 44.09375 48.828125 44.09375 54.296875 
Q 44.09375 59.90625 40.109375 62.90625 
Q 36.140625 65.921875 28.71875 65.921875 
Q 24.65625 65.921875 20.015625 65.03125 
Q 15.375 64.15625 9.8125 62.3125 
L 9.8125 71.09375 
Q 15.4375 72.65625 20.34375 73.4375 
Q 25.25 74.21875 29.59375 74.21875 
Q 40.828125 74.21875 47.359375 69.109375 
Q 53.90625 64.015625 53.90625 55.328125 
Q 53.90625 49.265625 50.4375 45.09375 
Q 46.96875 40.921875 40.578125 39.3125 
" id="BitstreamVeraSans-Roman-33"/>
      </defs>
      <g transform="translate(287.565 401.918125)scale(0.12 -0.12)">
       <use xlink:href="#BitstreamVeraSans-Roman-33"/>
       <use x="63.623046875" xlink:href="#BitstreamVeraSans-Roman-30"/>
      </g>
     </g>
    </g>
    <g id="xtick_5">
     <g id="line2d_25">
      <g>
       <use style="stroke:#000000;stroke-width:0.5;" x="369.6" xlink:href="#mcfa1ab53de" y="388.8"/>
      </g>
     </g>
     <g id="line2d_26">
      <g>
       <use style="stroke:#000000;stroke-width:0.5;" x="369.6" xlink:href="#m341ccfd3d2" y="43.2"/>
      </g>
     </g>
     <g id="text_5">
      <!-- 40 -->
      <defs>
       <path d="M 37.796875 64.3125 
L 12.890625 25.390625 
L 37.796875 25.390625 
z
M 35.203125 72.90625 
L 47.609375 72.90625 
L 47.609375 25.390625 
L 58.015625 25.390625 
L 58.015625 17.1875 
L 47.609375 17.1875 
L 47.609375 0 
L 37.796875 0 
L 37.796875 17.1875 
L 4.890625 17.1875 
L 4.890625 26.703125 
z
" id="BitstreamVeraSans-Roman-34"/>
      </defs>
      <g transform="translate(361.965 401.918125)scale(0.12 -0.12)">
       <use xlink:href="#BitstreamVeraSans-Roman-34"/>
       <use x="63.623046875" xlink:href="#BitstreamVeraSans-Roman-30"/>
      </g>
     </g>
    </g>
    <g id="xtick_6">
     <g id="line2d_27">
      <g>
       <use style="stroke:#000000;stroke-width:0.5;" x="444.0" xlink:href="#mcfa1ab53de" y="388.8"/>
      </g>
     </g>
     <g id="line2d_28">
      <g>
       <use style="stroke:#000000;stroke-width:0.5;" x="444.0" xlink:href="#m341ccfd3d2" y="43.2"/>
      </g>
     </g>
     <g id="text_6">
      <!-- 50 -->
      <defs>
       <path d="M 10.796875 72.90625 
L 49.515625 72.90625 
L 49.515625 64.59375 
L 19.828125 64.59375 
L 19.828125 46.734375 
Q 21.96875 47.46875 24.109375 47.828125 
Q 26.265625 48.1875 28.421875 48.1875 
Q 40.625 48.1875 47.75 41.5 
Q 54.890625 34.8125 54.890625 23.390625 
Q 54.890625 11.625 47.5625 5.09375 
Q 40.234375 -1.421875 26.90625 -1.421875 
Q 22.3125 -1.421875 17.546875 -0.640625 
Q 12.796875 0.140625 7.71875 1.703125 
L 7.71875 11.625 
Q 12.109375 9.234375 16.796875 8.0625 
Q 21.484375 6.890625 26.703125 6.890625 
Q 35.15625 6.890625 40.078125 11.328125 
Q 45.015625 15.765625 45.015625 23.390625 
Q 45.015625 31 40.078125 35.4375 
Q 35.15625 39.890625 26.703125 39.890625 
Q 22.75 39.890625 18.8125 39.015625 
Q 14.890625 38.140625 10.796875 36.28125 
z
" id="BitstreamVeraSans-Roman-35"/>
      </defs>
      <g transform="translate(436.365 401.918125)scale(0.12 -0.12)">
       <use xlink:href="#BitstreamVeraSans-Roman-35"/>
       <use x="63.623046875" xlink:href="#BitstreamVeraSans-Roman-30"/>
      </g>
     </g>
    </g>
    <g id="xtick_7">
     <g id="line2d_29">
      <g>
       <use style="stroke:#000000;stroke-width:0.5;" x="518.4" xlink:href="#mcfa1ab53de" y="388.8"/>
      </g>
     </g>
     <g id="line2d_30">
      <g>
       <use style="stroke:#000000;stroke-width:0.5;" x="518.4" xlink:href="#m341ccfd3d2" y="43.2"/>
      </g>
     </g>
     <g id="text_7">
      <!-- 60 -->
      <defs>
       <path d="M 33.015625 40.375 
Q 26.375 40.375 22.484375 35.828125 
Q 18.609375 31.296875 18.609375 23.390625 
Q 18.609375 15.53125 22.484375 10.953125 
Q 26.375 6.390625 33.015625 6.390625 
Q 39.65625 6.390625 43.53125 10.953125 
Q 47.40625 15.53125 47.40625 23.390625 
Q 47.40625 31.296875 43.53125 35.828125 
Q 39.65625 40.375 33.015625 40.375 
M 52.59375 71.296875 
L 52.59375 62.3125 
Q 48.875 64.0625 45.09375 64.984375 
Q 41.3125 65.921875 37.59375 65.921875 
Q 27.828125 65.921875 22.671875 59.328125 
Q 17.53125 52.734375 16.796875 39.40625 
Q 19.671875 43.65625 24.015625 45.921875 
Q 28.375 48.1875 33.59375 48.1875 
Q 44.578125 48.1875 50.953125 41.515625 
Q 57.328125 34.859375 57.328125 23.390625 
Q 57.328125 12.15625 50.6875 5.359375 
Q 44.046875 -1.421875 33.015625 -1.421875 
Q 20.359375 -1.421875 13.671875 8.265625 
Q 6.984375 17.96875 6.984375 36.375 
Q 6.984375 53.65625 15.1875 63.9375 
Q 23.390625 74.21875 37.203125 74.21875 
Q 40.921875 74.21875 44.703125 73.484375 
Q 48.484375 72.75 52.59375 71.296875 
" id="BitstreamVeraSans-Roman-36"/>
      </defs>
      <g transform="translate(510.765 401.918125)scale(0.12 -0.12)">
       <use xlink:href="#BitstreamVeraSans-Roman-36"/>
       <use x="63.623046875" xlink:href="#BitstreamVeraSans-Roman-30"/>
      </g>
     </g>
    </g>
    <g id="text_8">
     <!-- number of words changed -->
     <defs>
      <path d="M 4.203125 54.6875 
L 13.1875 54.6875 
L 24.421875 12.015625 
L 35.59375 54.6875 
L 46.1875 54.6875 
L 57.421875 12.015625 
L 68.609375 54.6875 
L 77.59375 54.6875 
L 63.28125 0 
L 52.6875 0 
L 40.921875 44.828125 
L 29.109375 0 
L 18.5 0 
z
" id="BitstreamVeraSans-Roman-77"/>
      <path d="M 48.6875 27.296875 
Q 48.6875 37.203125 44.609375 42.84375 
Q 40.53125 48.484375 33.40625 48.484375 
Q 26.265625 48.484375 22.1875 42.84375 
Q 18.109375 37.203125 18.109375 27.296875 
Q 18.109375 17.390625 22.1875 11.75 
Q 26.265625 6.109375 33.40625 6.109375 
Q 40.53125 6.109375 44.609375 11.75 
Q 48.6875 17.390625 48.6875 27.296875 
M 18.109375 46.390625 
Q 20.953125 51.265625 25.265625 53.625 
Q 29.59375 56 35.59375 56 
Q 45.5625 56 51.78125 48.09375 
Q 58.015625 40.1875 58.015625 27.296875 
Q 58.015625 14.40625 51.78125 6.484375 
Q 45.5625 -1.421875 35.59375 -1.421875 
Q 29.59375 -1.421875 25.265625 0.953125 
Q 20.953125 3.328125 18.109375 8.203125 
L 18.109375 0 
L 9.078125 0 
L 9.078125 75.984375 
L 18.109375 75.984375 
z
" id="BitstreamVeraSans-Roman-62"/>
      <path d="M 56.203125 29.59375 
L 56.203125 25.203125 
L 14.890625 25.203125 
Q 15.484375 15.921875 20.484375 11.0625 
Q 25.484375 6.203125 34.421875 6.203125 
Q 39.59375 6.203125 44.453125 7.46875 
Q 49.3125 8.734375 54.109375 11.28125 
L 54.109375 2.78125 
Q 49.265625 0.734375 44.1875 -0.34375 
Q 39.109375 -1.421875 33.890625 -1.421875 
Q 20.796875 -1.421875 13.15625 6.1875 
Q 5.515625 13.8125 5.515625 26.8125 
Q 5.515625 40.234375 12.765625 48.109375 
Q 20.015625 56 32.328125 56 
Q 43.359375 56 49.78125 48.890625 
Q 56.203125 41.796875 56.203125 29.59375 
M 47.21875 32.234375 
Q 47.125 39.59375 43.09375 43.984375 
Q 39.0625 48.390625 32.421875 48.390625 
Q 24.90625 48.390625 20.390625 44.140625 
Q 15.875 39.890625 15.1875 32.171875 
z
" id="BitstreamVeraSans-Roman-65"/>
      <path d="M 48.78125 52.59375 
L 48.78125 44.1875 
Q 44.96875 46.296875 41.140625 47.34375 
Q 37.3125 48.390625 33.40625 48.390625 
Q 24.65625 48.390625 19.8125 42.84375 
Q 14.984375 37.3125 14.984375 27.296875 
Q 14.984375 17.28125 19.8125 11.734375 
Q 24.65625 6.203125 33.40625 6.203125 
Q 37.3125 6.203125 41.140625 7.25 
Q 44.96875 8.296875 48.78125 10.40625 
L 48.78125 2.09375 
Q 45.015625 0.34375 40.984375 -0.53125 
Q 36.96875 -1.421875 32.421875 -1.421875 
Q 20.0625 -1.421875 12.78125 6.34375 
Q 5.515625 14.109375 5.515625 27.296875 
Q 5.515625 40.671875 12.859375 48.328125 
Q 20.21875 56 33.015625 56 
Q 37.15625 56 41.109375 55.140625 
Q 45.0625 54.296875 48.78125 52.59375 
" id="BitstreamVeraSans-Roman-63"/>
      <path d="M 44.28125 53.078125 
L 44.28125 44.578125 
Q 40.484375 46.53125 36.375 47.5 
Q 32.28125 48.484375 27.875 48.484375 
Q 21.1875 48.484375 17.84375 46.4375 
Q 14.5 44.390625 14.5 40.28125 
Q 14.5 37.15625 16.890625 35.375 
Q 19.28125 33.59375 26.515625 31.984375 
L 29.59375 31.296875 
Q 39.15625 29.25 43.1875 25.515625 
Q 47.21875 21.78125 47.21875 15.09375 
Q 47.21875 7.46875 41.1875 3.015625 
Q 35.15625 -1.421875 24.609375 -1.421875 
Q 20.21875 -1.421875 15.453125 -0.5625 
Q 10.6875 0.296875 5.421875 2 
L 5.421875 11.28125 
Q 10.40625 8.6875 15.234375 7.390625 
Q 20.0625 6.109375 24.8125 6.109375 
Q 31.15625 6.109375 34.5625 8.28125 
Q 37.984375 10.453125 37.984375 14.40625 
Q 37.984375 18.0625 35.515625 20.015625 
Q 33.0625 21.96875 24.703125 23.78125 
L 21.578125 24.515625 
Q 13.234375 26.265625 9.515625 29.90625 
Q 5.8125 33.546875 5.8125 39.890625 
Q 5.8125 47.609375 11.28125 51.796875 
Q 16.75 56 26.8125 56 
Q 31.78125 56 36.171875 55.265625 
Q 40.578125 54.546875 44.28125 53.078125 
" id="BitstreamVeraSans-Roman-73"/>
      <path d="M 54.890625 33.015625 
L 54.890625 0 
L 45.90625 0 
L 45.90625 32.71875 
Q 45.90625 40.484375 42.875 44.328125 
Q 39.84375 48.1875 33.796875 48.1875 
Q 26.515625 48.1875 22.3125 43.546875 
Q 18.109375 38.921875 18.109375 30.90625 
L 18.109375 0 
L 9.078125 0 
L 9.078125 54.6875 
L 18.109375 54.6875 
L 18.109375 46.1875 
Q 21.34375 51.125 25.703125 53.5625 
Q 30.078125 56 35.796875 56 
Q 45.21875 56 50.046875 50.171875 
Q 54.890625 44.34375 54.890625 33.015625 
" id="BitstreamVeraSans-Roman-6e"/>
      <path d="M 45.40625 27.984375 
Q 45.40625 37.75 41.375 43.109375 
Q 37.359375 48.484375 30.078125 48.484375 
Q 22.859375 48.484375 18.828125 43.109375 
Q 14.796875 37.75 14.796875 27.984375 
Q 14.796875 18.265625 18.828125 12.890625 
Q 22.859375 7.515625 30.078125 7.515625 
Q 37.359375 7.515625 41.375 12.890625 
Q 45.40625 18.265625 45.40625 27.984375 
M 54.390625 6.78125 
Q 54.390625 -7.171875 48.1875 -13.984375 
Q 42 -20.796875 29.203125 -20.796875 
Q 24.46875 -20.796875 20.265625 -20.09375 
Q 16.0625 -19.390625 12.109375 -17.921875 
L 12.109375 -9.1875 
Q 16.0625 -11.328125 19.921875 -12.34375 
Q 23.78125 -13.375 27.78125 -13.375 
Q 36.625 -13.375 41.015625 -8.765625 
Q 45.40625 -4.15625 45.40625 5.171875 
L 45.40625 9.625 
Q 42.625 4.78125 38.28125 2.390625 
Q 33.9375 0 27.875 0 
Q 17.828125 0 11.671875 7.65625 
Q 5.515625 15.328125 5.515625 27.984375 
Q 5.515625 40.671875 11.671875 48.328125 
Q 17.828125 56 27.875 56 
Q 33.9375 56 38.28125 53.609375 
Q 42.625 51.21875 45.40625 46.390625 
L 45.40625 54.6875 
L 54.390625 54.6875 
z
" id="BitstreamVeraSans-Roman-67"/>
      <path d="M 30.609375 48.390625 
Q 23.390625 48.390625 19.1875 42.75 
Q 14.984375 37.109375 14.984375 27.296875 
Q 14.984375 17.484375 19.15625 11.84375 
Q 23.34375 6.203125 30.609375 6.203125 
Q 37.796875 6.203125 41.984375 11.859375 
Q 46.1875 17.53125 46.1875 27.296875 
Q 46.1875 37.015625 41.984375 42.703125 
Q 37.796875 48.390625 30.609375 48.390625 
M 30.609375 56 
Q 42.328125 56 49.015625 48.375 
Q 55.71875 40.765625 55.71875 27.296875 
Q 55.71875 13.875 49.015625 6.21875 
Q 42.328125 -1.421875 30.609375 -1.421875 
Q 18.84375 -1.421875 12.171875 6.21875 
Q 5.515625 13.875 5.515625 27.296875 
Q 5.515625 40.765625 12.171875 48.375 
Q 18.84375 56 30.609375 56 
" id="BitstreamVeraSans-Roman-6f"/>
      <path d="M 8.5 21.578125 
L 8.5 54.6875 
L 17.484375 54.6875 
L 17.484375 21.921875 
Q 17.484375 14.15625 20.5 10.265625 
Q 23.53125 6.390625 29.59375 6.390625 
Q 36.859375 6.390625 41.078125 11.03125 
Q 45.3125 15.671875 45.3125 23.6875 
L 45.3125 54.6875 
L 54.296875 54.6875 
L 54.296875 0 
L 45.3125 0 
L 45.3125 8.40625 
Q 42.046875 3.421875 37.71875 1 
Q 33.40625 -1.421875 27.6875 -1.421875 
Q 18.265625 -1.421875 13.375 4.4375 
Q 8.5 10.296875 8.5 21.578125 
" id="BitstreamVeraSans-Roman-75"/>
      <path d="M 34.28125 27.484375 
Q 23.390625 27.484375 19.1875 25 
Q 14.984375 22.515625 14.984375 16.5 
Q 14.984375 11.71875 18.140625 8.90625 
Q 21.296875 6.109375 26.703125 6.109375 
Q 34.1875 6.109375 38.703125 11.40625 
Q 43.21875 16.703125 43.21875 25.484375 
L 43.21875 27.484375 
z
M 52.203125 31.203125 
L 52.203125 0 
L 43.21875 0 
L 43.21875 8.296875 
Q 40.140625 3.328125 35.546875 0.953125 
Q 30.953125 -1.421875 24.3125 -1.421875 
Q 15.921875 -1.421875 10.953125 3.296875 
Q 6 8.015625 6 15.921875 
Q 6 25.140625 12.171875 29.828125 
Q 18.359375 34.515625 30.609375 34.515625 
L 43.21875 34.515625 
L 43.21875 35.40625 
Q 43.21875 41.609375 39.140625 45 
Q 35.0625 48.390625 27.6875 48.390625 
Q 23 48.390625 18.546875 47.265625 
Q 14.109375 46.140625 10.015625 43.890625 
L 10.015625 52.203125 
Q 14.9375 54.109375 19.578125 55.046875 
Q 24.21875 56 28.609375 56 
Q 40.484375 56 46.34375 49.84375 
Q 52.203125 43.703125 52.203125 31.203125 
" id="BitstreamVeraSans-Roman-61"/>
      <path d="M 37.109375 75.984375 
L 37.109375 68.5 
L 28.515625 68.5 
Q 23.6875 68.5 21.796875 66.546875 
Q 19.921875 64.59375 19.921875 59.515625 
L 19.921875 54.6875 
L 34.71875 54.6875 
L 34.71875 47.703125 
L 19.921875 47.703125 
L 19.921875 0 
L 10.890625 0 
L 10.890625 47.703125 
L 2.296875 47.703125 
L 2.296875 54.6875 
L 10.890625 54.6875 
L 10.890625 58.5 
Q 10.890625 67.625 15.140625 71.796875 
Q 19.390625 75.984375 28.609375 75.984375 
z
" id="BitstreamVeraSans-Roman-66"/>
      <path id="BitstreamVeraSans-Roman-20"/>
      <path d="M 52 44.1875 
Q 55.375 50.25 60.0625 53.125 
Q 64.75 56 71.09375 56 
Q 79.640625 56 84.28125 50.015625 
Q 88.921875 44.046875 88.921875 33.015625 
L 88.921875 0 
L 79.890625 0 
L 79.890625 32.71875 
Q 79.890625 40.578125 77.09375 44.375 
Q 74.3125 48.1875 68.609375 48.1875 
Q 61.625 48.1875 57.5625 43.546875 
Q 53.515625 38.921875 53.515625 30.90625 
L 53.515625 0 
L 44.484375 0 
L 44.484375 32.71875 
Q 44.484375 40.625 41.703125 44.40625 
Q 38.921875 48.1875 33.109375 48.1875 
Q 26.21875 48.1875 22.15625 43.53125 
Q 18.109375 38.875 18.109375 30.90625 
L 18.109375 0 
L 9.078125 0 
L 9.078125 54.6875 
L 18.109375 54.6875 
L 18.109375 46.1875 
Q 21.1875 51.21875 25.484375 53.609375 
Q 29.78125 56 35.6875 56 
Q 41.65625 56 45.828125 52.96875 
Q 50 49.953125 52 44.1875 
" id="BitstreamVeraSans-Roman-6d"/>
      <path d="M 41.109375 46.296875 
Q 39.59375 47.171875 37.8125 47.578125 
Q 36.03125 48 33.890625 48 
Q 26.265625 48 22.1875 43.046875 
Q 18.109375 38.09375 18.109375 28.8125 
L 18.109375 0 
L 9.078125 0 
L 9.078125 54.6875 
L 18.109375 54.6875 
L 18.109375 46.1875 
Q 20.953125 51.171875 25.484375 53.578125 
Q 30.03125 56 36.53125 56 
Q 37.453125 56 38.578125 55.875 
Q 39.703125 55.765625 41.0625 55.515625 
z
" id="BitstreamVeraSans-Roman-72"/>
      <path d="M 54.890625 33.015625 
L 54.890625 0 
L 45.90625 0 
L 45.90625 32.71875 
Q 45.90625 40.484375 42.875 44.328125 
Q 39.84375 48.1875 33.796875 48.1875 
Q 26.515625 48.1875 22.3125 43.546875 
Q 18.109375 38.921875 18.109375 30.90625 
L 18.109375 0 
L 9.078125 0 
L 9.078125 75.984375 
L 18.109375 75.984375 
L 18.109375 46.1875 
Q 21.34375 51.125 25.703125 53.5625 
Q 30.078125 56 35.796875 56 
Q 45.21875 56 50.046875 50.171875 
Q 54.890625 44.34375 54.890625 33.015625 
" id="BitstreamVeraSans-Roman-68"/>
      <path d="M 45.40625 46.390625 
L 45.40625 75.984375 
L 54.390625 75.984375 
L 54.390625 0 
L 45.40625 0 
L 45.40625 8.203125 
Q 42.578125 3.328125 38.25 0.953125 
Q 33.9375 -1.421875 27.875 -1.421875 
Q 17.96875 -1.421875 11.734375 6.484375 
Q 5.515625 14.40625 5.515625 27.296875 
Q 5.515625 40.1875 11.734375 48.09375 
Q 17.96875 56 27.875 56 
Q 33.9375 56 38.25 53.625 
Q 42.578125 51.265625 45.40625 46.390625 
M 14.796875 27.296875 
Q 14.796875 17.390625 18.875 11.75 
Q 22.953125 6.109375 30.078125 6.109375 
Q 37.203125 6.109375 41.296875 11.75 
Q 45.40625 17.390625 45.40625 27.296875 
Q 45.40625 37.203125 41.296875 42.84375 
Q 37.203125 48.484375 30.078125 48.484375 
Q 22.953125 48.484375 18.875 42.84375 
Q 14.796875 37.203125 14.796875 27.296875 
" id="BitstreamVeraSans-Roman-64"/>
     </defs>
     <g transform="translate(216.4096875 418.531875)scale(0.12 -0.12)">
      <use xlink:href="#BitstreamVeraSans-Roman-6e"/>
      <use x="63.37890625" xlink:href="#BitstreamVeraSans-Roman-75"/>
      <use x="126.7578125" xlink:href="#BitstreamVeraSans-Roman-6d"/>
      <use x="224.169921875" xlink:href="#BitstreamVeraSans-Roman-62"/>
      <use x="287.646484375" xlink:href="#BitstreamVeraSans-Roman-65"/>
      <use x="349.169921875" xlink:href="#BitstreamVeraSans-Roman-72"/>
      <use x="390.283203125" xlink:href="#BitstreamVeraSans-Roman-20"/>
      <use x="422.0703125" xlink:href="#BitstreamVeraSans-Roman-6f"/>
      <use x="483.251953125" xlink:href="#BitstreamVeraSans-Roman-66"/>
      <use x="518.45703125" xlink:href="#BitstreamVeraSans-Roman-20"/>
      <use x="550.244140625" xlink:href="#BitstreamVeraSans-Roman-77"/>
      <use x="632.03125" xlink:href="#BitstreamVeraSans-Roman-6f"/>
      <use x="693.212890625" xlink:href="#BitstreamVeraSans-Roman-72"/>
      <use x="734.310546875" xlink:href="#BitstreamVeraSans-Roman-64"/>
      <use x="797.787109375" xlink:href="#BitstreamVeraSans-Roman-73"/>
      <use x="849.88671875" xlink:href="#BitstreamVeraSans-Roman-20"/>
      <use x="881.673828125" xlink:href="#BitstreamVeraSans-Roman-63"/>
      <use x="936.654296875" xlink:href="#BitstreamVeraSans-Roman-68"/>
      <use x="1000.033203125" xlink:href="#BitstreamVeraSans-Roman-61"/>
      <use x="1061.3125" xlink:href="#BitstreamVeraSans-Roman-6e"/>
      <use x="1124.69140625" xlink:href="#BitstreamVeraSans-Roman-67"/>
      <use x="1188.16796875" xlink:href="#BitstreamVeraSans-Roman-65"/>
      <use x="1249.69140625" xlink:href="#BitstreamVeraSans-Roman-64"/>
     </g>
    </g>
   </g>
   <g id="matplotlib.axis_2">
    <g id="ytick_1">
     <g id="line2d_31">
      <defs>
       <path d="M 0 0 
L 4 0 
" id="m698ebb5e49" style="stroke:#000000;stroke-width:0.5;"/>
      </defs>
      <g>
       <use style="stroke:#000000;stroke-width:0.5;" x="72.0" xlink:href="#m698ebb5e49" y="388.8"/>
      </g>
     </g>
     <g id="line2d_32">
      <defs>
       <path d="M 0 0 
L -4 0 
" id="m467a44d322" style="stroke:#000000;stroke-width:0.5;"/>
      </defs>
      <g>
       <use style="stroke:#000000;stroke-width:0.5;" x="518.4" xlink:href="#m467a44d322" y="388.8"/>
      </g>
     </g>
     <g id="text_9">
      <!-- 0 -->
      <g transform="translate(60.365 392.11125)scale(0.12 -0.12)">
       <use xlink:href="#BitstreamVeraSans-Roman-30"/>
      </g>
     </g>
    </g>
    <g id="ytick_2">
     <g id="line2d_33">
      <g>
       <use style="stroke:#000000;stroke-width:0.5;" x="72.0" xlink:href="#m698ebb5e49" y="337.826548673"/>
      </g>
     </g>
     <g id="line2d_34">
      <g>
       <use style="stroke:#000000;stroke-width:0.5;" x="518.4" xlink:href="#m467a44d322" y="337.826548673"/>
      </g>
     </g>
     <g id="text_10">
      <!-- 100 -->
      <g transform="translate(45.095 341.137798673)scale(0.12 -0.12)">
       <use xlink:href="#BitstreamVeraSans-Roman-31"/>
       <use x="63.623046875" xlink:href="#BitstreamVeraSans-Roman-30"/>
       <use x="127.24609375" xlink:href="#BitstreamVeraSans-Roman-30"/>
      </g>
     </g>
    </g>
    <g id="ytick_3">
     <g id="line2d_35">
      <g>
       <use style="stroke:#000000;stroke-width:0.5;" x="72.0" xlink:href="#m698ebb5e49" y="286.853097345"/>
      </g>
     </g>
     <g id="line2d_36">
      <g>
       <use style="stroke:#000000;stroke-width:0.5;" x="518.4" xlink:href="#m467a44d322" y="286.853097345"/>
      </g>
     </g>
     <g id="text_11">
      <!-- 200 -->
      <g transform="translate(45.095 290.164347345)scale(0.12 -0.12)">
       <use xlink:href="#BitstreamVeraSans-Roman-32"/>
       <use x="63.623046875" xlink:href="#BitstreamVeraSans-Roman-30"/>
       <use x="127.24609375" xlink:href="#BitstreamVeraSans-Roman-30"/>
      </g>
     </g>
    </g>
    <g id="ytick_4">
     <g id="line2d_37">
      <g>
       <use style="stroke:#000000;stroke-width:0.5;" x="72.0" xlink:href="#m698ebb5e49" y="235.879646018"/>
      </g>
     </g>
     <g id="line2d_38">
      <g>
       <use style="stroke:#000000;stroke-width:0.5;" x="518.4" xlink:href="#m467a44d322" y="235.879646018"/>
      </g>
     </g>
     <g id="text_12">
      <!-- 300 -->
      <g transform="translate(45.095 239.190896018)scale(0.12 -0.12)">
       <use xlink:href="#BitstreamVeraSans-Roman-33"/>
       <use x="63.623046875" xlink:href="#BitstreamVeraSans-Roman-30"/>
       <use x="127.24609375" xlink:href="#BitstreamVeraSans-Roman-30"/>
      </g>
     </g>
    </g>
    <g id="ytick_5">
     <g id="line2d_39">
      <g>
       <use style="stroke:#000000;stroke-width:0.5;" x="72.0" xlink:href="#m698ebb5e49" y="184.90619469"/>
      </g>
     </g>
     <g id="line2d_40">
      <g>
       <use style="stroke:#000000;stroke-width:0.5;" x="518.4" xlink:href="#m467a44d322" y="184.90619469"/>
      </g>
     </g>
     <g id="text_13">
      <!-- 400 -->
      <g transform="translate(45.095 188.21744469)scale(0.12 -0.12)">
       <use xlink:href="#BitstreamVeraSans-Roman-34"/>
       <use x="63.623046875" xlink:href="#BitstreamVeraSans-Roman-30"/>
       <use x="127.24609375" xlink:href="#BitstreamVeraSans-Roman-30"/>
      </g>
     </g>
    </g>
    <g id="ytick_6">
     <g id="line2d_41">
      <g>
       <use style="stroke:#000000;stroke-width:0.5;" x="72.0" xlink:href="#m698ebb5e49" y="133.932743363"/>
      </g>
     </g>
     <g id="line2d_42">
      <g>
       <use style="stroke:#000000;stroke-width:0.5;" x="518.4" xlink:href="#m467a44d322" y="133.932743363"/>
      </g>
     </g>
     <g id="text_14">
      <!-- 500 -->
      <g transform="translate(45.095 137.243993363)scale(0.12 -0.12)">
       <use xlink:href="#BitstreamVeraSans-Roman-35"/>
       <use x="63.623046875" xlink:href="#BitstreamVeraSans-Roman-30"/>
       <use x="127.24609375" xlink:href="#BitstreamVeraSans-Roman-30"/>
      </g>
     </g>
    </g>
    <g id="ytick_7">
     <g id="line2d_43">
      <g>
       <use style="stroke:#000000;stroke-width:0.5;" x="72.0" xlink:href="#m698ebb5e49" y="82.9592920354"/>
      </g>
     </g>
     <g id="line2d_44">
      <g>
       <use style="stroke:#000000;stroke-width:0.5;" x="518.4" xlink:href="#m467a44d322" y="82.9592920354"/>
      </g>
     </g>
     <g id="text_15">
      <!-- 600 -->
      <g transform="translate(45.095 86.2705420354)scale(0.12 -0.12)">
       <use xlink:href="#BitstreamVeraSans-Roman-36"/>
       <use x="63.623046875" xlink:href="#BitstreamVeraSans-Roman-30"/>
       <use x="127.24609375" xlink:href="#BitstreamVeraSans-Roman-30"/>
      </g>
     </g>
    </g>
    <g id="text_16">
     <!-- amount -->
     <defs>
      <path d="M 18.3125 70.21875 
L 18.3125 54.6875 
L 36.8125 54.6875 
L 36.8125 47.703125 
L 18.3125 47.703125 
L 18.3125 18.015625 
Q 18.3125 11.328125 20.140625 9.421875 
Q 21.96875 7.515625 27.59375 7.515625 
L 36.8125 7.515625 
L 36.8125 0 
L 27.59375 0 
Q 17.1875 0 13.234375 3.875 
Q 9.28125 7.765625 9.28125 18.015625 
L 9.28125 47.703125 
L 2.6875 47.703125 
L 2.6875 54.6875 
L 9.28125 54.6875 
L 9.28125 70.21875 
z
" id="BitstreamVeraSans-Roman-74"/>
     </defs>
     <g transform="translate(37.599375 239.1496875)rotate(-90.0)scale(0.12 -0.12)">
      <use xlink:href="#BitstreamVeraSans-Roman-61"/>
      <use x="61.279296875" xlink:href="#BitstreamVeraSans-Roman-6d"/>
      <use x="158.69140625" xlink:href="#BitstreamVeraSans-Roman-6f"/>
      <use x="219.873046875" xlink:href="#BitstreamVeraSans-Roman-75"/>
      <use x="283.251953125" xlink:href="#BitstreamVeraSans-Roman-6e"/>
      <use x="346.630859375" xlink:href="#BitstreamVeraSans-Roman-74"/>
     </g>
    </g>
   </g>
   <g id="text_17">
    <!-- accumulative number of sentences by words changed per -->
    <defs>
     <path d="M 32.171875 -5.078125 
Q 28.375 -14.84375 24.75 -17.8125 
Q 21.140625 -20.796875 15.09375 -20.796875 
L 7.90625 -20.796875 
L 7.90625 -13.28125 
L 13.1875 -13.28125 
Q 16.890625 -13.28125 18.9375 -11.515625 
Q 21 -9.765625 23.484375 -3.21875 
L 25.09375 0.875 
L 2.984375 54.6875 
L 12.5 54.6875 
L 29.59375 11.921875 
L 46.6875 54.6875 
L 56.203125 54.6875 
z
" id="BitstreamVeraSans-Roman-79"/>
     <path d="M 9.421875 75.984375 
L 18.40625 75.984375 
L 18.40625 0 
L 9.421875 0 
z
" id="BitstreamVeraSans-Roman-6c"/>
     <path d="M 9.421875 54.6875 
L 18.40625 54.6875 
L 18.40625 0 
L 9.421875 0 
z
M 9.421875 75.984375 
L 18.40625 75.984375 
L 18.40625 64.59375 
L 9.421875 64.59375 
z
" id="BitstreamVeraSans-Roman-69"/>
     <path d="M 18.109375 8.203125 
L 18.109375 -20.796875 
L 9.078125 -20.796875 
L 9.078125 54.6875 
L 18.109375 54.6875 
L 18.109375 46.390625 
Q 20.953125 51.265625 25.265625 53.625 
Q 29.59375 56 35.59375 56 
Q 45.5625 56 51.78125 48.09375 
Q 58.015625 40.1875 58.015625 27.296875 
Q 58.015625 14.40625 51.78125 6.484375 
Q 45.5625 -1.421875 35.59375 -1.421875 
Q 29.59375 -1.421875 25.265625 0.953125 
Q 20.953125 3.328125 18.109375 8.203125 
M 48.6875 27.296875 
Q 48.6875 37.203125 44.609375 42.84375 
Q 40.53125 48.484375 33.40625 48.484375 
Q 26.265625 48.484375 22.1875 42.84375 
Q 18.109375 37.203125 18.109375 27.296875 
Q 18.109375 17.390625 22.1875 11.75 
Q 26.265625 6.109375 33.40625 6.109375 
Q 40.53125 6.109375 44.609375 11.75 
Q 48.6875 17.390625 48.6875 27.296875 
" id="BitstreamVeraSans-Roman-70"/>
     <path d="M 2.984375 54.6875 
L 12.5 54.6875 
L 29.59375 8.796875 
L 46.6875 54.6875 
L 56.203125 54.6875 
L 35.6875 0 
L 23.484375 0 
z
" id="BitstreamVeraSans-Roman-76"/>
    </defs>
    <g transform="translate(85.609125 38.2)scale(0.144 -0.144)">
     <use xlink:href="#BitstreamVeraSans-Roman-61"/>
     <use x="61.279296875" xlink:href="#BitstreamVeraSans-Roman-63"/>
     <use x="116.259765625" xlink:href="#BitstreamVeraSans-Roman-63"/>
     <use x="171.240234375" xlink:href="#BitstreamVeraSans-Roman-75"/>
     <use x="234.619140625" xlink:href="#BitstreamVeraSans-Roman-6d"/>
     <use x="332.03125" xlink:href="#BitstreamVeraSans-Roman-75"/>
     <use x="395.41015625" xlink:href="#BitstreamVeraSans-Roman-6c"/>
     <use x="423.193359375" xlink:href="#BitstreamVeraSans-Roman-61"/>
     <use x="484.47265625" xlink:href="#BitstreamVeraSans-Roman-74"/>
     <use x="523.681640625" xlink:href="#BitstreamVeraSans-Roman-69"/>
     <use x="551.46484375" xlink:href="#BitstreamVeraSans-Roman-76"/>
     <use x="610.64453125" xlink:href="#BitstreamVeraSans-Roman-65"/>
     <use x="672.16796875" xlink:href="#BitstreamVeraSans-Roman-20"/>
     <use x="703.955078125" xlink:href="#BitstreamVeraSans-Roman-6e"/>
     <use x="767.333984375" xlink:href="#BitstreamVeraSans-Roman-75"/>
     <use x="830.712890625" xlink:href="#BitstreamVeraSans-Roman-6d"/>
     <use x="928.125" xlink:href="#BitstreamVeraSans-Roman-62"/>
     <use x="991.6015625" xlink:href="#BitstreamVeraSans-Roman-65"/>
     <use x="1053.125" xlink:href="#BitstreamVeraSans-Roman-72"/>
     <use x="1094.23828125" xlink:href="#BitstreamVeraSans-Roman-20"/>
     <use x="1126.025390625" xlink:href="#BitstreamVeraSans-Roman-6f"/>
     <use x="1187.20703125" xlink:href="#BitstreamVeraSans-Roman-66"/>
     <use x="1222.412109375" xlink:href="#BitstreamVeraSans-Roman-20"/>
     <use x="1254.19921875" xlink:href="#BitstreamVeraSans-Roman-73"/>
     <use x="1306.298828125" xlink:href="#BitstreamVeraSans-Roman-65"/>
     <use x="1367.822265625" xlink:href="#BitstreamVeraSans-Roman-6e"/>
     <use x="1431.201171875" xlink:href="#BitstreamVeraSans-Roman-74"/>
     <use x="1470.41015625" xlink:href="#BitstreamVeraSans-Roman-65"/>
     <use x="1531.93359375" xlink:href="#BitstreamVeraSans-Roman-6e"/>
     <use x="1595.3125" xlink:href="#BitstreamVeraSans-Roman-63"/>
     <use x="1650.29296875" xlink:href="#BitstreamVeraSans-Roman-65"/>
     <use x="1711.81640625" xlink:href="#BitstreamVeraSans-Roman-73"/>
     <use x="1763.916015625" xlink:href="#BitstreamVeraSans-Roman-20"/>
     <use x="1795.703125" xlink:href="#BitstreamVeraSans-Roman-62"/>
     <use x="1859.1796875" xlink:href="#BitstreamVeraSans-Roman-79"/>
     <use x="1918.359375" xlink:href="#BitstreamVeraSans-Roman-20"/>
     <use x="1950.146484375" xlink:href="#BitstreamVeraSans-Roman-77"/>
     <use x="2031.93359375" xlink:href="#BitstreamVeraSans-Roman-6f"/>
     <use x="2093.115234375" xlink:href="#BitstreamVeraSans-Roman-72"/>
     <use x="2134.212890625" xlink:href="#BitstreamVeraSans-Roman-64"/>
     <use x="2197.689453125" xlink:href="#BitstreamVeraSans-Roman-73"/>
     <use x="2249.7890625" xlink:href="#BitstreamVeraSans-Roman-20"/>
     <use x="2281.576171875" xlink:href="#BitstreamVeraSans-Roman-63"/>
     <use x="2336.556640625" xlink:href="#BitstreamVeraSans-Roman-68"/>
     <use x="2399.935546875" xlink:href="#BitstreamVeraSans-Roman-61"/>
     <use x="2461.21484375" xlink:href="#BitstreamVeraSans-Roman-6e"/>
     <use x="2524.59375" xlink:href="#BitstreamVeraSans-Roman-67"/>
     <use x="2588.0703125" xlink:href="#BitstreamVeraSans-Roman-65"/>
     <use x="2649.59375" xlink:href="#BitstreamVeraSans-Roman-64"/>
     <use x="2713.0703125" xlink:href="#BitstreamVeraSans-Roman-20"/>
     <use x="2744.857421875" xlink:href="#BitstreamVeraSans-Roman-70"/>
     <use x="2808.333984375" xlink:href="#BitstreamVeraSans-Roman-65"/>
     <use x="2869.857421875" xlink:href="#BitstreamVeraSans-Roman-72"/>
    </g>
   </g>
   <g id="legend_1">
    <g id="patch_7">
     <path d="M 358.50625 334.925 
L 513.4 334.925 
L 513.4 97.075 
L 358.50625 97.075 
z
" style="fill:#ffffff;stroke:#000000;stroke-linejoin:miter;"/>
    </g>
    <g id="line2d_45">
     <path d="M 365.50625 105.173438 
L 379.50625 105.173438 
" style="fill:none;stroke:#8000ff;stroke-linecap:square;"/>
    </g>
    <g id="line2d_46"/>
    <g id="text_18">
     <!-- fce to gold -->
     <g transform="translate(390.50625 108.6734375)scale(0.1 -0.1)">
      <use xlink:href="#BitstreamVeraSans-Roman-66"/>
      <use x="35.205078125" xlink:href="#BitstreamVeraSans-Roman-63"/>
      <use x="90.185546875" xlink:href="#BitstreamVeraSans-Roman-65"/>
      <use x="151.708984375" xlink:href="#BitstreamVeraSans-Roman-20"/>
      <use x="183.49609375" xlink:href="#BitstreamVeraSans-Roman-74"/>
      <use x="222.705078125" xlink:href="#BitstreamVeraSans-Roman-6f"/>
      <use x="283.88671875" xlink:href="#BitstreamVeraSans-Roman-20"/>
      <use x="315.673828125" xlink:href="#BitstreamVeraSans-Roman-67"/>
      <use x="379.150390625" xlink:href="#BitstreamVeraSans-Roman-6f"/>
      <use x="440.33203125" xlink:href="#BitstreamVeraSans-Roman-6c"/>
      <use x="468.115234375" xlink:href="#BitstreamVeraSans-Roman-64"/>
     </g>
    </g>
    <g id="line2d_47">
     <path d="M 365.50625 119.851563 
L 379.50625 119.851563 
" style="fill:none;stroke:#5e35fe;stroke-linecap:square;"/>
    </g>
    <g id="line2d_48"/>
    <g id="text_19">
     <!-- fce to gold auto aligned -->
     <g transform="translate(390.50625 123.3515625)scale(0.1 -0.1)">
      <use xlink:href="#BitstreamVeraSans-Roman-66"/>
      <use x="35.205078125" xlink:href="#BitstreamVeraSans-Roman-63"/>
      <use x="90.185546875" xlink:href="#BitstreamVeraSans-Roman-65"/>
      <use x="151.708984375" xlink:href="#BitstreamVeraSans-Roman-20"/>
      <use x="183.49609375" xlink:href="#BitstreamVeraSans-Roman-74"/>
      <use x="222.705078125" xlink:href="#BitstreamVeraSans-Roman-6f"/>
      <use x="283.88671875" xlink:href="#BitstreamVeraSans-Roman-20"/>
      <use x="315.673828125" xlink:href="#BitstreamVeraSans-Roman-67"/>
      <use x="379.150390625" xlink:href="#BitstreamVeraSans-Roman-6f"/>
      <use x="440.33203125" xlink:href="#BitstreamVeraSans-Roman-6c"/>
      <use x="468.115234375" xlink:href="#BitstreamVeraSans-Roman-64"/>
      <use x="531.591796875" xlink:href="#BitstreamVeraSans-Roman-20"/>
      <use x="563.37890625" xlink:href="#BitstreamVeraSans-Roman-61"/>
      <use x="624.658203125" xlink:href="#BitstreamVeraSans-Roman-75"/>
      <use x="688.037109375" xlink:href="#BitstreamVeraSans-Roman-74"/>
      <use x="727.24609375" xlink:href="#BitstreamVeraSans-Roman-6f"/>
      <use x="788.427734375" xlink:href="#BitstreamVeraSans-Roman-20"/>
      <use x="820.21484375" xlink:href="#BitstreamVeraSans-Roman-61"/>
      <use x="881.494140625" xlink:href="#BitstreamVeraSans-Roman-6c"/>
      <use x="909.27734375" xlink:href="#BitstreamVeraSans-Roman-69"/>
      <use x="937.060546875" xlink:href="#BitstreamVeraSans-Roman-67"/>
      <use x="1000.537109375" xlink:href="#BitstreamVeraSans-Roman-6e"/>
      <use x="1063.916015625" xlink:href="#BitstreamVeraSans-Roman-65"/>
      <use x="1125.439453125" xlink:href="#BitstreamVeraSans-Roman-64"/>
     </g>
    </g>
    <g id="line2d_49">
     <path d="M 365.50625 134.529688 
L 379.50625 134.529688 
" style="fill:none;stroke:#3c68f9;stroke-linecap:square;"/>
    </g>
    <g id="line2d_50"/>
    <g id="text_20">
     <!-- gold standard -->
     <g transform="translate(390.50625 138.0296875)scale(0.1 -0.1)">
      <use xlink:href="#BitstreamVeraSans-Roman-67"/>
      <use x="63.4765625" xlink:href="#BitstreamVeraSans-Roman-6f"/>
      <use x="124.658203125" xlink:href="#BitstreamVeraSans-Roman-6c"/>
      <use x="152.44140625" xlink:href="#BitstreamVeraSans-Roman-64"/>
      <use x="215.91796875" xlink:href="#BitstreamVeraSans-Roman-20"/>
      <use x="247.705078125" xlink:href="#BitstreamVeraSans-Roman-73"/>
      <use x="299.8046875" xlink:href="#BitstreamVeraSans-Roman-74"/>
      <use x="339.013671875" xlink:href="#BitstreamVeraSans-Roman-61"/>
      <use x="400.29296875" xlink:href="#BitstreamVeraSans-Roman-6e"/>
      <use x="463.671875" xlink:href="#BitstreamVeraSans-Roman-64"/>
      <use x="527.1484375" xlink:href="#BitstreamVeraSans-Roman-61"/>
      <use x="588.427734375" xlink:href="#BitstreamVeraSans-Roman-72"/>
      <use x="629.525390625" xlink:href="#BitstreamVeraSans-Roman-64"/>
     </g>
    </g>
    <g id="line2d_51">
     <path d="M 365.50625 149.207813 
L 379.50625 149.207813 
" style="fill:none;stroke:#1996f3;stroke-linecap:square;"/>
    </g>
    <g id="line2d_52"/>
    <g id="text_21">
     <!-- cuui -->
     <g transform="translate(390.50625 152.7078125)scale(0.1 -0.1)">
      <use xlink:href="#BitstreamVeraSans-Roman-63"/>
      <use x="54.98046875" xlink:href="#BitstreamVeraSans-Roman-75"/>
      <use x="118.359375" xlink:href="#BitstreamVeraSans-Roman-75"/>
      <use x="181.73828125" xlink:href="#BitstreamVeraSans-Roman-69"/>
     </g>
    </g>
    <g id="line2d_53">
     <path d="M 365.50625 163.885938 
L 379.50625 163.885938 
" style="fill:none;stroke:#08bee9;stroke-linecap:square;"/>
    </g>
    <g id="line2d_54"/>
    <g id="text_22">
     <!-- iitb -->
     <g transform="translate(390.50625 167.3859375)scale(0.1 -0.1)">
      <use xlink:href="#BitstreamVeraSans-Roman-69"/>
      <use x="27.783203125" xlink:href="#BitstreamVeraSans-Roman-69"/>
      <use x="55.56640625" xlink:href="#BitstreamVeraSans-Roman-74"/>
      <use x="94.775390625" xlink:href="#BitstreamVeraSans-Roman-62"/>
     </g>
    </g>
    <g id="line2d_55">
     <path d="M 365.50625 178.564063 
L 379.50625 178.564063 
" style="fill:none;stroke:#2adddd;stroke-linecap:square;"/>
    </g>
    <g id="line2d_56"/>
    <g id="text_23">
     <!-- ipn -->
     <g transform="translate(390.50625 182.0640625)scale(0.1 -0.1)">
      <use xlink:href="#BitstreamVeraSans-Roman-69"/>
      <use x="27.783203125" xlink:href="#BitstreamVeraSans-Roman-70"/>
      <use x="91.259765625" xlink:href="#BitstreamVeraSans-Roman-6e"/>
     </g>
    </g>
    <g id="line2d_57">
     <path d="M 365.50625 193.242188 
L 379.50625 193.242188 
" style="fill:none;stroke:#4df3ce;stroke-linecap:square;"/>
    </g>
    <g id="line2d_58"/>
    <g id="text_24">
     <!-- nthu -->
     <g transform="translate(390.50625 196.7421875)scale(0.1 -0.1)">
      <use xlink:href="#BitstreamVeraSans-Roman-6e"/>
      <use x="63.37890625" xlink:href="#BitstreamVeraSans-Roman-74"/>
      <use x="102.587890625" xlink:href="#BitstreamVeraSans-Roman-68"/>
      <use x="165.966796875" xlink:href="#BitstreamVeraSans-Roman-75"/>
     </g>
    </g>
    <g id="line2d_59">
     <path d="M 365.50625 207.920313 
L 379.50625 207.920313 
" style="fill:none;stroke:#6efebe;stroke-linecap:square;"/>
    </g>
    <g id="line2d_60"/>
    <g id="text_25">
     <!-- pku -->
     <defs>
      <path d="M 9.078125 75.984375 
L 18.109375 75.984375 
L 18.109375 31.109375 
L 44.921875 54.6875 
L 56.390625 54.6875 
L 27.390625 29.109375 
L 57.625 0 
L 45.90625 0 
L 18.109375 26.703125 
L 18.109375 0 
L 9.078125 0 
z
" id="BitstreamVeraSans-Roman-6b"/>
     </defs>
     <g transform="translate(390.50625 211.4203125)scale(0.1 -0.1)">
      <use xlink:href="#BitstreamVeraSans-Roman-70"/>
      <use x="63.4765625" xlink:href="#BitstreamVeraSans-Roman-6b"/>
      <use x="121.33984375" xlink:href="#BitstreamVeraSans-Roman-75"/>
     </g>
    </g>
    <g id="line2d_61">
     <path d="M 365.50625 222.598438 
L 379.50625 222.598438 
" style="fill:none;stroke:#90feab;stroke-linecap:square;"/>
    </g>
    <g id="line2d_62"/>
    <g id="text_26">
     <!-- post -->
     <g transform="translate(390.50625 226.0984375)scale(0.1 -0.1)">
      <use xlink:href="#BitstreamVeraSans-Roman-70"/>
      <use x="63.4765625" xlink:href="#BitstreamVeraSans-Roman-6f"/>
      <use x="124.658203125" xlink:href="#BitstreamVeraSans-Roman-73"/>
      <use x="176.7578125" xlink:href="#BitstreamVeraSans-Roman-74"/>
     </g>
    </g>
    <g id="line2d_63">
     <path d="M 365.50625 237.276563 
L 379.50625 237.276563 
" style="fill:none;stroke:#b2f396;stroke-linecap:square;"/>
    </g>
    <g id="line2d_64"/>
    <g id="text_27">
     <!-- rac -->
     <g transform="translate(390.50625 240.7765625)scale(0.1 -0.1)">
      <use xlink:href="#BitstreamVeraSans-Roman-72"/>
      <use x="41.11328125" xlink:href="#BitstreamVeraSans-Roman-61"/>
      <use x="102.392578125" xlink:href="#BitstreamVeraSans-Roman-63"/>
     </g>
    </g>
    <g id="line2d_65">
     <path d="M 365.50625 251.954688 
L 379.50625 251.954688 
" style="fill:none;stroke:#d4dd80;stroke-linecap:square;"/>
    </g>
    <g id="line2d_66"/>
    <g id="text_28">
     <!-- sjtu -->
     <defs>
      <path d="M 9.421875 54.6875 
L 18.40625 54.6875 
L 18.40625 -0.984375 
Q 18.40625 -11.421875 14.421875 -16.109375 
Q 10.453125 -20.796875 1.609375 -20.796875 
L -1.8125 -20.796875 
L -1.8125 -13.1875 
L 0.59375 -13.1875 
Q 5.71875 -13.1875 7.5625 -10.8125 
Q 9.421875 -8.453125 9.421875 -0.984375 
z
M 9.421875 75.984375 
L 18.40625 75.984375 
L 18.40625 64.59375 
L 9.421875 64.59375 
z
" id="BitstreamVeraSans-Roman-6a"/>
     </defs>
     <g transform="translate(390.50625 255.4546875)scale(0.1 -0.1)">
      <use xlink:href="#BitstreamVeraSans-Roman-73"/>
      <use x="52.099609375" xlink:href="#BitstreamVeraSans-Roman-6a"/>
      <use x="79.8828125" xlink:href="#BitstreamVeraSans-Roman-74"/>
      <use x="119.091796875" xlink:href="#BitstreamVeraSans-Roman-75"/>
     </g>
    </g>
    <g id="line2d_67">
     <path d="M 365.50625 266.632812 
L 379.50625 266.632812 
" style="fill:none;stroke:#f6be68;stroke-linecap:square;"/>
    </g>
    <g id="line2d_68"/>
    <g id="text_29">
     <!-- ufc -->
     <g transform="translate(390.50625 270.1328125)scale(0.1 -0.1)">
      <use xlink:href="#BitstreamVeraSans-Roman-75"/>
      <use x="63.37890625" xlink:href="#BitstreamVeraSans-Roman-66"/>
      <use x="98.583984375" xlink:href="#BitstreamVeraSans-Roman-63"/>
     </g>
    </g>
    <g id="line2d_69">
     <path d="M 365.50625 281.310938 
L 379.50625 281.310938 
" style="fill:none;stroke:#ff964f;stroke-linecap:square;"/>
    </g>
    <g id="line2d_70"/>
    <g id="text_30">
     <!-- umc -->
     <g transform="translate(390.50625 284.8109375)scale(0.1 -0.1)">
      <use xlink:href="#BitstreamVeraSans-Roman-75"/>
      <use x="63.37890625" xlink:href="#BitstreamVeraSans-Roman-6d"/>
      <use x="160.791015625" xlink:href="#BitstreamVeraSans-Roman-63"/>
     </g>
    </g>
    <g id="line2d_71">
     <path d="M 365.50625 295.989062 
L 379.50625 295.989062 
" style="fill:none;stroke:#ff6835;stroke-linecap:square;"/>
    </g>
    <g id="line2d_72"/>
    <g id="text_31">
     <!-- camb -->
     <g transform="translate(390.50625 299.4890625)scale(0.1 -0.1)">
      <use xlink:href="#BitstreamVeraSans-Roman-63"/>
      <use x="54.98046875" xlink:href="#BitstreamVeraSans-Roman-61"/>
      <use x="116.259765625" xlink:href="#BitstreamVeraSans-Roman-6d"/>
      <use x="213.671875" xlink:href="#BitstreamVeraSans-Roman-62"/>
     </g>
    </g>
    <g id="line2d_73">
     <path d="M 365.50625 310.667187 
L 379.50625 310.667187 
" style="fill:none;stroke:#ff351b;stroke-linecap:square;"/>
    </g>
    <g id="line2d_74"/>
    <g id="text_32">
     <!-- AMU -->
     <defs>
      <path d="M 34.1875 63.1875 
L 20.796875 26.90625 
L 47.609375 26.90625 
z
M 28.609375 72.90625 
L 39.796875 72.90625 
L 67.578125 0 
L 57.328125 0 
L 50.6875 18.703125 
L 17.828125 18.703125 
L 11.1875 0 
L 0.78125 0 
z
" id="BitstreamVeraSans-Roman-41"/>
      <path d="M 8.6875 72.90625 
L 18.609375 72.90625 
L 18.609375 28.609375 
Q 18.609375 16.890625 22.84375 11.734375 
Q 27.09375 6.59375 36.625 6.59375 
Q 46.09375 6.59375 50.34375 11.734375 
Q 54.59375 16.890625 54.59375 28.609375 
L 54.59375 72.90625 
L 64.5 72.90625 
L 64.5 27.390625 
Q 64.5 13.140625 57.4375 5.859375 
Q 50.390625 -1.421875 36.625 -1.421875 
Q 22.796875 -1.421875 15.734375 5.859375 
Q 8.6875 13.140625 8.6875 27.390625 
z
" id="BitstreamVeraSans-Roman-55"/>
      <path d="M 9.8125 72.90625 
L 24.515625 72.90625 
L 43.109375 23.296875 
L 61.8125 72.90625 
L 76.515625 72.90625 
L 76.515625 0 
L 66.890625 0 
L 66.890625 64.015625 
L 48.09375 14.015625 
L 38.1875 14.015625 
L 19.390625 64.015625 
L 19.390625 0 
L 9.8125 0 
z
" id="BitstreamVeraSans-Roman-4d"/>
     </defs>
     <g transform="translate(390.50625 314.1671875)scale(0.1 -0.1)">
      <use xlink:href="#BitstreamVeraSans-Roman-41"/>
      <use x="68.408203125" xlink:href="#BitstreamVeraSans-Roman-4d"/>
      <use x="154.6875" xlink:href="#BitstreamVeraSans-Roman-55"/>
     </g>
    </g>
    <g id="line2d_75">
     <path d="M 365.50625 325.345312 
L 379.50625 325.345312 
" style="fill:none;stroke:#ff0000;stroke-linecap:square;"/>
    </g>
    <g id="line2d_76"/>
    <g id="text_33">
     <!-- Rozovskaya Roth -->
     <defs>
      <path d="M 5.515625 54.6875 
L 48.1875 54.6875 
L 48.1875 46.484375 
L 14.40625 7.171875 
L 48.1875 7.171875 
L 48.1875 0 
L 4.296875 0 
L 4.296875 8.203125 
L 38.09375 47.515625 
L 5.515625 47.515625 
z
" id="BitstreamVeraSans-Roman-7a"/>
      <path d="M 44.390625 34.1875 
Q 47.5625 33.109375 50.5625 29.59375 
Q 53.5625 26.078125 56.59375 19.921875 
L 66.609375 0 
L 56 0 
L 46.6875 18.703125 
Q 43.0625 26.03125 39.671875 28.421875 
Q 36.28125 30.8125 30.421875 30.8125 
L 19.671875 30.8125 
L 19.671875 0 
L 9.8125 0 
L 9.8125 72.90625 
L 32.078125 72.90625 
Q 44.578125 72.90625 50.734375 67.671875 
Q 56.890625 62.453125 56.890625 51.90625 
Q 56.890625 45.015625 53.6875 40.46875 
Q 50.484375 35.9375 44.390625 34.1875 
M 19.671875 64.796875 
L 19.671875 38.921875 
L 32.078125 38.921875 
Q 39.203125 38.921875 42.84375 42.21875 
Q 46.484375 45.515625 46.484375 51.90625 
Q 46.484375 58.296875 42.84375 61.546875 
Q 39.203125 64.796875 32.078125 64.796875 
z
" id="BitstreamVeraSans-Roman-52"/>
     </defs>
     <g transform="translate(390.50625 328.8453125)scale(0.1 -0.1)">
      <use xlink:href="#BitstreamVeraSans-Roman-52"/>
      <use x="69.419921875" xlink:href="#BitstreamVeraSans-Roman-6f"/>
      <use x="130.6015625" xlink:href="#BitstreamVeraSans-Roman-7a"/>
      <use x="183.091796875" xlink:href="#BitstreamVeraSans-Roman-6f"/>
      <use x="244.2734375" xlink:href="#BitstreamVeraSans-Roman-76"/>
      <use x="303.453125" xlink:href="#BitstreamVeraSans-Roman-73"/>
      <use x="355.552734375" xlink:href="#BitstreamVeraSans-Roman-6b"/>
      <use x="413.447265625" xlink:href="#BitstreamVeraSans-Roman-61"/>
      <use x="474.7265625" xlink:href="#BitstreamVeraSans-Roman-79"/>
      <use x="533.90625" xlink:href="#BitstreamVeraSans-Roman-61"/>
      <use x="595.185546875" xlink:href="#BitstreamVeraSans-Roman-20"/>
      <use x="626.97265625" xlink:href="#BitstreamVeraSans-Roman-52"/>
      <use x="696.392578125" xlink:href="#BitstreamVeraSans-Roman-6f"/>
      <use x="757.57421875" xlink:href="#BitstreamVeraSans-Roman-74"/>
      <use x="796.783203125" xlink:href="#BitstreamVeraSans-Roman-68"/>
     </g>
    </g>
   </g>
  </g>
 </g>
 <defs>
  <clipPath id="p9d81ab1eba">
   <rect height="345.6" width="446.4" x="72.0" y="43.2"/>
  </clipPath>
 </defs>
</svg>
