<?xml version="1.0" encoding="utf-8" standalone="no"?>
<!DOCTYPE svg PUBLIC "-//W3C//DTD SVG 1.1//EN"
  "http://www.w3.org/Graphics/SVG/1.1/DTD/svg11.dtd">
<!-- Created with matplotlib (http://matplotlib.org/) -->
<svg height="432pt" version="1.1" viewBox="0 0 576 432" width="576pt" xmlns="http://www.w3.org/2000/svg" xmlns:xlink="http://www.w3.org/1999/xlink">
 <defs>
  <style type="text/css">
*{stroke-linecap:butt;stroke-linejoin:round;stroke-miterlimit:100000;}
  </style>
 </defs>
 <g id="figure_1">
  <g id="patch_1">
   <path d="M 0 432 
L 576 432 
L 576 0 
L 0 0 
z
" style="fill:#ffffff;"/>
  </g>
  <g id="axes_1">
   <g id="patch_2">
    <path d="M 72 388.8 
L 518.4 388.8 
L 518.4 43.2 
L 72 43.2 
z
" style="fill:#ffffff;"/>
   </g>
   <g id="line2d_1">
    <path clip-path="url(#pb09e8006b8)" d="M 72 310.709618 
L 79.566102 194.575203 
L 87.132203 131.702433 
L 94.698305 94.859791 
L 102.264407 77.639861 
L 109.830508 64.424565 
L 117.39661 56.415295 
L 124.962712 52.41066 
L 132.528814 48.005562 
L 140.094915 46.003244 
L 147.661017 44.801854 
L 155.227119 44.40139 
L 162.79322 44.000927 
L 170.359322 44.000927 
L 177.925424 43.600463 
L 185.491525 43.600463 
L 193.057627 43.2 
L 200.623729 43.2 
L 208.189831 43.2 
L 215.755932 43.2 
L 223.322034 43.2 
L 230.888136 43.2 
L 238.454237 43.2 
L 246.020339 43.2 
L 253.586441 43.2 
L 261.152542 43.2 
L 268.718644 43.2 
L 276.284746 43.2 
L 283.850847 43.2 
L 291.416949 43.2 
L 298.983051 43.2 
L 306.549153 43.2 
L 314.115254 43.2 
L 321.681356 43.2 
L 329.247458 43.2 
L 336.813559 43.2 
L 344.379661 43.2 
L 351.945763 43.2 
L 359.511864 43.2 
L 367.077966 43.2 
L 374.644068 43.2 
L 382.210169 43.2 
L 389.776271 43.2 
L 397.342373 43.2 
L 404.908475 43.2 
L 412.474576 43.2 
L 420.040678 43.2 
L 427.60678 43.2 
L 435.172881 43.2 
L 442.738983 43.2 
L 450.305085 43.2 
L 457.871186 43.2 
L 465.437288 43.2 
L 473.00339 43.2 
L 480.569492 43.2 
L 488.135593 43.2 
L 495.701695 43.2 
L 503.267797 43.2 
L 510.833898 43.2 
L 518.4 43.2 
" style="fill:none;stroke:#8000ff;stroke-linecap:square;"/>
   </g>
   <g id="line2d_2">
    <path clip-path="url(#pb09e8006b8)" d="M 72 388.8 
L 79.566102 322.323059 
L 87.132203 281.475782 
L 94.698305 250.239629 
L 102.264407 233.019699 
L 109.830508 219.003476 
L 117.39661 210.593743 
L 124.962712 205.788181 
L 132.528814 201.783546 
L 140.094915 198.980301 
L 147.661017 196.177057 
L 155.227119 194.975666 
L 162.79322 194.174739 
L 170.359322 193.373812 
L 177.925424 191.771958 
L 185.491525 190.971031 
L 193.057627 190.170104 
L 200.623729 190.170104 
L 208.189831 189.369177 
L 215.755932 189.369177 
L 223.322034 188.968714 
L 230.888136 188.968714 
L 238.454237 188.968714 
L 246.020339 188.968714 
L 253.586441 187.767323 
L 261.152542 187.36686 
L 268.718644 187.36686 
L 276.284746 186.966396 
L 283.850847 186.966396 
L 291.416949 186.966396 
L 298.983051 186.966396 
L 306.549153 186.966396 
L 314.115254 186.966396 
L 321.681356 186.966396 
L 329.247458 186.966396 
L 336.813559 186.966396 
L 344.379661 186.966396 
L 351.945763 186.966396 
L 359.511864 186.966396 
L 367.077966 186.966396 
L 374.644068 186.966396 
L 382.210169 186.966396 
L 389.776271 186.966396 
L 397.342373 186.966396 
L 404.908475 186.966396 
L 412.474576 186.966396 
L 420.040678 186.966396 
L 427.60678 186.966396 
L 435.172881 186.966396 
L 442.738983 186.966396 
L 450.305085 186.966396 
L 457.871186 186.966396 
L 465.437288 186.966396 
L 473.00339 186.966396 
L 480.569492 186.966396 
L 488.135593 186.966396 
L 495.701695 186.966396 
L 503.267797 186.966396 
L 510.833898 186.966396 
L 518.4 186.966396 
" style="fill:none;stroke:#1996f3;stroke-linecap:square;"/>
   </g>
   <g id="line2d_3">
    <path clip-path="url(#pb09e8006b8)" d="M 72 311.510545 
L 79.566102 254.244264 
L 87.132203 240.628505 
L 94.698305 237.024334 
L 102.264407 236.223407 
L 109.830508 236.223407 
L 117.39661 236.223407 
L 124.962712 236.223407 
L 132.528814 236.223407 
L 140.094915 236.223407 
L 147.661017 236.223407 
L 155.227119 236.223407 
L 162.79322 236.223407 
L 170.359322 236.223407 
L 177.925424 236.223407 
L 185.491525 236.223407 
L 193.057627 236.223407 
L 200.623729 236.223407 
L 208.189831 236.223407 
L 215.755932 236.223407 
L 223.322034 236.223407 
L 230.888136 236.223407 
L 238.454237 236.223407 
L 246.020339 236.223407 
L 253.586441 236.223407 
L 261.152542 236.223407 
L 268.718644 236.223407 
L 276.284746 236.223407 
L 283.850847 236.223407 
L 291.416949 236.223407 
L 298.983051 236.223407 
L 306.549153 236.223407 
L 314.115254 236.223407 
L 321.681356 236.223407 
L 329.247458 236.223407 
L 336.813559 236.223407 
L 344.379661 236.223407 
L 351.945763 236.223407 
L 359.511864 236.223407 
L 367.077966 236.223407 
L 374.644068 236.223407 
L 382.210169 236.223407 
L 389.776271 236.223407 
L 397.342373 236.223407 
L 404.908475 236.223407 
L 412.474576 236.223407 
L 420.040678 236.223407 
L 427.60678 236.223407 
L 435.172881 236.223407 
L 442.738983 236.223407 
L 450.305085 236.223407 
L 457.871186 236.223407 
L 465.437288 236.223407 
L 473.00339 236.223407 
L 480.569492 236.223407 
L 488.135593 236.223407 
L 495.701695 236.223407 
L 503.267797 236.223407 
L 510.833898 236.223407 
L 518.4 236.223407 
" style="fill:none;stroke:#4df3ce;stroke-linecap:square;"/>
   </g>
   <g id="line2d_4">
    <path clip-path="url(#pb09e8006b8)" d="M 72 266.258169 
L 79.566102 161.336732 
L 87.132203 128.098262 
L 94.698305 118.887601 
L 102.264407 117.285747 
L 109.830508 116.084357 
L 117.39661 115.683893 
L 124.962712 115.683893 
L 132.528814 115.683893 
L 140.094915 115.683893 
L 147.661017 115.683893 
L 155.227119 115.683893 
L 162.79322 115.683893 
L 170.359322 115.683893 
L 177.925424 115.683893 
L 185.491525 115.683893 
L 193.057627 115.683893 
L 200.623729 115.683893 
L 208.189831 115.683893 
L 215.755932 115.683893 
L 223.322034 115.683893 
L 230.888136 115.683893 
L 238.454237 115.683893 
L 246.020339 115.683893 
L 253.586441 115.683893 
L 261.152542 115.683893 
L 268.718644 115.683893 
L 276.284746 115.683893 
L 283.850847 115.683893 
L 291.416949 115.683893 
L 298.983051 115.683893 
L 306.549153 115.683893 
L 314.115254 115.683893 
L 321.681356 115.683893 
L 329.247458 115.683893 
L 336.813559 115.683893 
L 344.379661 115.683893 
L 351.945763 115.683893 
L 359.511864 115.683893 
L 367.077966 115.683893 
L 374.644068 115.683893 
L 382.210169 115.683893 
L 389.776271 115.683893 
L 397.342373 115.683893 
L 404.908475 115.683893 
L 412.474576 115.683893 
L 420.040678 115.683893 
L 427.60678 115.683893 
L 435.172881 115.683893 
L 442.738983 115.683893 
L 450.305085 115.683893 
L 457.871186 115.683893 
L 465.437288 115.683893 
L 473.00339 115.683893 
L 480.569492 115.683893 
L 488.135593 115.683893 
L 495.701695 115.683893 
L 503.267797 115.683893 
L 510.833898 115.683893 
L 518.4 115.683893 
" style="fill:none;stroke:#b2f396;stroke-linecap:square;"/>
   </g>
   <g id="line2d_5">
    <path clip-path="url(#pb09e8006b8)" d="M 72 370.378679 
L 79.566102 325.526767 
L 87.132203 305.904056 
L 94.698305 299.096176 
L 102.264407 294.691078 
L 109.830508 293.890151 
L 117.39661 293.489687 
L 124.962712 293.489687 
L 132.528814 293.489687 
L 140.094915 293.489687 
L 147.661017 293.489687 
L 155.227119 293.489687 
L 162.79322 293.489687 
L 170.359322 293.489687 
L 177.925424 293.489687 
L 185.491525 293.489687 
L 193.057627 293.489687 
L 200.623729 293.489687 
L 208.189831 293.489687 
L 215.755932 293.489687 
L 223.322034 293.489687 
L 230.888136 293.489687 
L 238.454237 293.489687 
L 246.020339 293.489687 
L 253.586441 293.489687 
L 261.152542 293.489687 
L 268.718644 293.489687 
L 276.284746 293.489687 
L 283.850847 293.489687 
L 291.416949 293.489687 
L 298.983051 293.489687 
L 306.549153 293.489687 
L 314.115254 293.489687 
L 321.681356 293.489687 
L 329.247458 293.489687 
L 336.813559 293.489687 
L 344.379661 293.489687 
L 351.945763 293.489687 
L 359.511864 293.489687 
L 367.077966 293.489687 
L 374.644068 293.489687 
L 382.210169 293.489687 
L 389.776271 293.489687 
L 397.342373 293.489687 
L 404.908475 293.489687 
L 412.474576 293.489687 
L 420.040678 293.489687 
L 427.60678 293.489687 
L 435.172881 293.489687 
L 442.738983 293.489687 
L 450.305085 293.489687 
L 457.871186 293.489687 
L 465.437288 293.489687 
L 473.00339 293.489687 
L 480.569492 293.489687 
L 488.135593 293.489687 
L 495.701695 293.489687 
L 503.267797 293.489687 
L 510.833898 293.489687 
L 518.4 293.489687 
" style="fill:none;stroke:#ff964f;stroke-linecap:square;"/>
   </g>
   <g id="line2d_6">
    <path clip-path="url(#pb09e8006b8)" d="M 72 385.596292 
L 79.566102 357.563847 
L 87.132203 353.559212 
L 94.698305 350.355504 
L 102.264407 349.955041 
L 109.830508 349.955041 
L 117.39661 349.955041 
L 124.962712 349.955041 
L 132.528814 349.955041 
L 140.094915 349.955041 
L 147.661017 349.955041 
L 155.227119 349.955041 
L 162.79322 349.955041 
L 170.359322 349.955041 
L 177.925424 349.955041 
L 185.491525 349.955041 
L 193.057627 349.955041 
L 200.623729 349.955041 
L 208.189831 349.955041 
L 215.755932 349.955041 
L 223.322034 349.955041 
L 230.888136 349.955041 
L 238.454237 349.955041 
L 246.020339 349.955041 
L 253.586441 349.955041 
L 261.152542 349.955041 
L 268.718644 349.955041 
L 276.284746 349.955041 
L 283.850847 349.955041 
L 291.416949 349.955041 
L 298.983051 349.955041 
L 306.549153 349.955041 
L 314.115254 349.955041 
L 321.681356 349.955041 
L 329.247458 349.955041 
L 336.813559 349.955041 
L 344.379661 349.955041 
L 351.945763 349.955041 
L 359.511864 349.955041 
L 367.077966 349.955041 
L 374.644068 349.955041 
L 382.210169 349.955041 
L 389.776271 349.955041 
L 397.342373 349.955041 
L 404.908475 349.955041 
L 412.474576 349.955041 
L 420.040678 349.955041 
L 427.60678 349.955041 
L 435.172881 349.955041 
L 442.738983 349.955041 
L 450.305085 349.955041 
L 457.871186 349.955041 
L 465.437288 349.955041 
L 473.00339 349.955041 
L 480.569492 349.955041 
L 488.135593 349.955041 
L 495.701695 349.955041 
L 503.267797 349.955041 
L 510.833898 349.955041 
L 518.4 349.955041 
" style="fill:none;stroke:#ff0000;stroke-linecap:square;"/>
   </g>
   <g id="patch_3">
    <path d="M 72 388.8 
L 72 43.2 
" style="fill:none;stroke:#000000;stroke-linecap:square;stroke-linejoin:miter;"/>
   </g>
   <g id="patch_4">
    <path d="M 72 388.8 
L 518.4 388.8 
" style="fill:none;stroke:#000000;stroke-linecap:square;stroke-linejoin:miter;"/>
   </g>
   <g id="patch_5">
    <path d="M 72 43.2 
L 518.4 43.2 
" style="fill:none;stroke:#000000;stroke-linecap:square;stroke-linejoin:miter;"/>
   </g>
   <g id="patch_6">
    <path d="M 518.4 388.8 
L 518.4 43.2 
" style="fill:none;stroke:#000000;stroke-linecap:square;stroke-linejoin:miter;"/>
   </g>
   <g id="matplotlib.axis_1">
    <g id="xtick_1">
     <g id="line2d_7">
      <defs>
       <path d="M 0 0 
L 0 -4 
" id="m4ea39e73db" style="stroke:#000000;stroke-width:0.5;"/>
      </defs>
      <g>
       <use style="stroke:#000000;stroke-width:0.5;" x="140.094915254" xlink:href="#m4ea39e73db" y="388.8"/>
      </g>
     </g>
     <g id="line2d_8">
      <defs>
       <path d="M 0 0 
L 0 4 
" id="m7399387d09" style="stroke:#000000;stroke-width:0.5;"/>
      </defs>
      <g>
       <use style="stroke:#000000;stroke-width:0.5;" x="140.094915254" xlink:href="#m7399387d09" y="43.2"/>
      </g>
     </g>
     <g id="text_1">
      <!-- 10 -->
      <defs>
       <path d="M 12.40625 8.296875 
L 28.515625 8.296875 
L 28.515625 63.921875 
L 10.984375 60.40625 
L 10.984375 69.390625 
L 28.421875 72.90625 
L 38.28125 72.90625 
L 38.28125 8.296875 
L 54.390625 8.296875 
L 54.390625 0 
L 12.40625 0 
z
" id="BitstreamVeraSans-Roman-31"/>
       <path d="M 31.78125 66.40625 
Q 24.171875 66.40625 20.328125 58.90625 
Q 16.5 51.421875 16.5 36.375 
Q 16.5 21.390625 20.328125 13.890625 
Q 24.171875 6.390625 31.78125 6.390625 
Q 39.453125 6.390625 43.28125 13.890625 
Q 47.125 21.390625 47.125 36.375 
Q 47.125 51.421875 43.28125 58.90625 
Q 39.453125 66.40625 31.78125 66.40625 
M 31.78125 74.21875 
Q 44.046875 74.21875 50.515625 64.515625 
Q 56.984375 54.828125 56.984375 36.375 
Q 56.984375 17.96875 50.515625 8.265625 
Q 44.046875 -1.421875 31.78125 -1.421875 
Q 19.53125 -1.421875 13.0625 8.265625 
Q 6.59375 17.96875 6.59375 36.375 
Q 6.59375 54.828125 13.0625 64.515625 
Q 19.53125 74.21875 31.78125 74.21875 
" id="BitstreamVeraSans-Roman-30"/>
      </defs>
      <g transform="translate(132.459915254 401.918125)scale(0.12 -0.12)">
       <use xlink:href="#BitstreamVeraSans-Roman-31"/>
       <use x="63.623046875" xlink:href="#BitstreamVeraSans-Roman-30"/>
      </g>
     </g>
    </g>
    <g id="xtick_2">
     <g id="line2d_9">
      <g>
       <use style="stroke:#000000;stroke-width:0.5;" x="215.755932203" xlink:href="#m4ea39e73db" y="388.8"/>
      </g>
     </g>
     <g id="line2d_10">
      <g>
       <use style="stroke:#000000;stroke-width:0.5;" x="215.755932203" xlink:href="#m7399387d09" y="43.2"/>
      </g>
     </g>
     <g id="text_2">
      <!-- 20 -->
      <defs>
       <path d="M 19.1875 8.296875 
L 53.609375 8.296875 
L 53.609375 0 
L 7.328125 0 
L 7.328125 8.296875 
Q 12.9375 14.109375 22.625 23.890625 
Q 32.328125 33.6875 34.8125 36.53125 
Q 39.546875 41.84375 41.421875 45.53125 
Q 43.3125 49.21875 43.3125 52.78125 
Q 43.3125 58.59375 39.234375 62.25 
Q 35.15625 65.921875 28.609375 65.921875 
Q 23.96875 65.921875 18.8125 64.3125 
Q 13.671875 62.703125 7.8125 59.421875 
L 7.8125 69.390625 
Q 13.765625 71.78125 18.9375 73 
Q 24.125 74.21875 28.421875 74.21875 
Q 39.75 74.21875 46.484375 68.546875 
Q 53.21875 62.890625 53.21875 53.421875 
Q 53.21875 48.921875 51.53125 44.890625 
Q 49.859375 40.875 45.40625 35.40625 
Q 44.1875 33.984375 37.640625 27.21875 
Q 31.109375 20.453125 19.1875 8.296875 
" id="BitstreamVeraSans-Roman-32"/>
      </defs>
      <g transform="translate(208.120932203 401.918125)scale(0.12 -0.12)">
       <use xlink:href="#BitstreamVeraSans-Roman-32"/>
       <use x="63.623046875" xlink:href="#BitstreamVeraSans-Roman-30"/>
      </g>
     </g>
    </g>
    <g id="xtick_3">
     <g id="line2d_11">
      <g>
       <use style="stroke:#000000;stroke-width:0.5;" x="291.416949153" xlink:href="#m4ea39e73db" y="388.8"/>
      </g>
     </g>
     <g id="line2d_12">
      <g>
       <use style="stroke:#000000;stroke-width:0.5;" x="291.416949153" xlink:href="#m7399387d09" y="43.2"/>
      </g>
     </g>
     <g id="text_3">
      <!-- 30 -->
      <defs>
       <path d="M 40.578125 39.3125 
Q 47.65625 37.796875 51.625 33 
Q 55.609375 28.21875 55.609375 21.1875 
Q 55.609375 10.40625 48.1875 4.484375 
Q 40.765625 -1.421875 27.09375 -1.421875 
Q 22.515625 -1.421875 17.65625 -0.515625 
Q 12.796875 0.390625 7.625 2.203125 
L 7.625 11.71875 
Q 11.71875 9.328125 16.59375 8.109375 
Q 21.484375 6.890625 26.8125 6.890625 
Q 36.078125 6.890625 40.9375 10.546875 
Q 45.796875 14.203125 45.796875 21.1875 
Q 45.796875 27.640625 41.28125 31.265625 
Q 36.765625 34.90625 28.71875 34.90625 
L 20.21875 34.90625 
L 20.21875 43.015625 
L 29.109375 43.015625 
Q 36.375 43.015625 40.234375 45.921875 
Q 44.09375 48.828125 44.09375 54.296875 
Q 44.09375 59.90625 40.109375 62.90625 
Q 36.140625 65.921875 28.71875 65.921875 
Q 24.65625 65.921875 20.015625 65.03125 
Q 15.375 64.15625 9.8125 62.3125 
L 9.8125 71.09375 
Q 15.4375 72.65625 20.34375 73.4375 
Q 25.25 74.21875 29.59375 74.21875 
Q 40.828125 74.21875 47.359375 69.109375 
Q 53.90625 64.015625 53.90625 55.328125 
Q 53.90625 49.265625 50.4375 45.09375 
Q 46.96875 40.921875 40.578125 39.3125 
" id="BitstreamVeraSans-Roman-33"/>
      </defs>
      <g transform="translate(283.781949153 401.918125)scale(0.12 -0.12)">
       <use xlink:href="#BitstreamVeraSans-Roman-33"/>
       <use x="63.623046875" xlink:href="#BitstreamVeraSans-Roman-30"/>
      </g>
     </g>
    </g>
    <g id="xtick_4">
     <g id="line2d_13">
      <g>
       <use style="stroke:#000000;stroke-width:0.5;" x="367.077966102" xlink:href="#m4ea39e73db" y="388.8"/>
      </g>
     </g>
     <g id="line2d_14">
      <g>
       <use style="stroke:#000000;stroke-width:0.5;" x="367.077966102" xlink:href="#m7399387d09" y="43.2"/>
      </g>
     </g>
     <g id="text_4">
      <!-- 40 -->
      <defs>
       <path d="M 37.796875 64.3125 
L 12.890625 25.390625 
L 37.796875 25.390625 
z
M 35.203125 72.90625 
L 47.609375 72.90625 
L 47.609375 25.390625 
L 58.015625 25.390625 
L 58.015625 17.1875 
L 47.609375 17.1875 
L 47.609375 0 
L 37.796875 0 
L 37.796875 17.1875 
L 4.890625 17.1875 
L 4.890625 26.703125 
z
" id="BitstreamVeraSans-Roman-34"/>
      </defs>
      <g transform="translate(359.442966102 401.918125)scale(0.12 -0.12)">
       <use xlink:href="#BitstreamVeraSans-Roman-34"/>
       <use x="63.623046875" xlink:href="#BitstreamVeraSans-Roman-30"/>
      </g>
     </g>
    </g>
    <g id="xtick_5">
     <g id="line2d_15">
      <g>
       <use style="stroke:#000000;stroke-width:0.5;" x="442.738983051" xlink:href="#m4ea39e73db" y="388.8"/>
      </g>
     </g>
     <g id="line2d_16">
      <g>
       <use style="stroke:#000000;stroke-width:0.5;" x="442.738983051" xlink:href="#m7399387d09" y="43.2"/>
      </g>
     </g>
     <g id="text_5">
      <!-- 50 -->
      <defs>
       <path d="M 10.796875 72.90625 
L 49.515625 72.90625 
L 49.515625 64.59375 
L 19.828125 64.59375 
L 19.828125 46.734375 
Q 21.96875 47.46875 24.109375 47.828125 
Q 26.265625 48.1875 28.421875 48.1875 
Q 40.625 48.1875 47.75 41.5 
Q 54.890625 34.8125 54.890625 23.390625 
Q 54.890625 11.625 47.5625 5.09375 
Q 40.234375 -1.421875 26.90625 -1.421875 
Q 22.3125 -1.421875 17.546875 -0.640625 
Q 12.796875 0.140625 7.71875 1.703125 
L 7.71875 11.625 
Q 12.109375 9.234375 16.796875 8.0625 
Q 21.484375 6.890625 26.703125 6.890625 
Q 35.15625 6.890625 40.078125 11.328125 
Q 45.015625 15.765625 45.015625 23.390625 
Q 45.015625 31 40.078125 35.4375 
Q 35.15625 39.890625 26.703125 39.890625 
Q 22.75 39.890625 18.8125 39.015625 
Q 14.890625 38.140625 10.796875 36.28125 
z
" id="BitstreamVeraSans-Roman-35"/>
      </defs>
      <g transform="translate(435.103983051 401.918125)scale(0.12 -0.12)">
       <use xlink:href="#BitstreamVeraSans-Roman-35"/>
       <use x="63.623046875" xlink:href="#BitstreamVeraSans-Roman-30"/>
      </g>
     </g>
    </g>
    <g id="xtick_6">
     <g id="line2d_17">
      <g>
       <use style="stroke:#000000;stroke-width:0.5;" x="518.4" xlink:href="#m4ea39e73db" y="388.8"/>
      </g>
     </g>
     <g id="line2d_18">
      <g>
       <use style="stroke:#000000;stroke-width:0.5;" x="518.4" xlink:href="#m7399387d09" y="43.2"/>
      </g>
     </g>
     <g id="text_6">
      <!-- 60 -->
      <defs>
       <path d="M 33.015625 40.375 
Q 26.375 40.375 22.484375 35.828125 
Q 18.609375 31.296875 18.609375 23.390625 
Q 18.609375 15.53125 22.484375 10.953125 
Q 26.375 6.390625 33.015625 6.390625 
Q 39.65625 6.390625 43.53125 10.953125 
Q 47.40625 15.53125 47.40625 23.390625 
Q 47.40625 31.296875 43.53125 35.828125 
Q 39.65625 40.375 33.015625 40.375 
M 52.59375 71.296875 
L 52.59375 62.3125 
Q 48.875 64.0625 45.09375 64.984375 
Q 41.3125 65.921875 37.59375 65.921875 
Q 27.828125 65.921875 22.671875 59.328125 
Q 17.53125 52.734375 16.796875 39.40625 
Q 19.671875 43.65625 24.015625 45.921875 
Q 28.375 48.1875 33.59375 48.1875 
Q 44.578125 48.1875 50.953125 41.515625 
Q 57.328125 34.859375 57.328125 23.390625 
Q 57.328125 12.15625 50.6875 5.359375 
Q 44.046875 -1.421875 33.015625 -1.421875 
Q 20.359375 -1.421875 13.671875 8.265625 
Q 6.984375 17.96875 6.984375 36.375 
Q 6.984375 53.65625 15.1875 63.9375 
Q 23.390625 74.21875 37.203125 74.21875 
Q 40.921875 74.21875 44.703125 73.484375 
Q 48.484375 72.75 52.59375 71.296875 
" id="BitstreamVeraSans-Roman-36"/>
      </defs>
      <g transform="translate(510.765 401.918125)scale(0.12 -0.12)">
       <use xlink:href="#BitstreamVeraSans-Roman-36"/>
       <use x="63.623046875" xlink:href="#BitstreamVeraSans-Roman-30"/>
      </g>
     </g>
    </g>
    <g id="text_7">
     <!-- number of words changed -->
     <defs>
      <path d="M 8.5 21.578125 
L 8.5 54.6875 
L 17.484375 54.6875 
L 17.484375 21.921875 
Q 17.484375 14.15625 20.5 10.265625 
Q 23.53125 6.390625 29.59375 6.390625 
Q 36.859375 6.390625 41.078125 11.03125 
Q 45.3125 15.671875 45.3125 23.6875 
L 45.3125 54.6875 
L 54.296875 54.6875 
L 54.296875 0 
L 45.3125 0 
L 45.3125 8.40625 
Q 42.046875 3.421875 37.71875 1 
Q 33.40625 -1.421875 27.6875 -1.421875 
Q 18.265625 -1.421875 13.375 4.4375 
Q 8.5 10.296875 8.5 21.578125 
" id="BitstreamVeraSans-Roman-75"/>
      <path id="BitstreamVeraSans-Roman-20"/>
      <path d="M 54.890625 33.015625 
L 54.890625 0 
L 45.90625 0 
L 45.90625 32.71875 
Q 45.90625 40.484375 42.875 44.328125 
Q 39.84375 48.1875 33.796875 48.1875 
Q 26.515625 48.1875 22.3125 43.546875 
Q 18.109375 38.921875 18.109375 30.90625 
L 18.109375 0 
L 9.078125 0 
L 9.078125 54.6875 
L 18.109375 54.6875 
L 18.109375 46.1875 
Q 21.34375 51.125 25.703125 53.5625 
Q 30.078125 56 35.796875 56 
Q 45.21875 56 50.046875 50.171875 
Q 54.890625 44.34375 54.890625 33.015625 
" id="BitstreamVeraSans-Roman-6e"/>
      <path d="M 48.78125 52.59375 
L 48.78125 44.1875 
Q 44.96875 46.296875 41.140625 47.34375 
Q 37.3125 48.390625 33.40625 48.390625 
Q 24.65625 48.390625 19.8125 42.84375 
Q 14.984375 37.3125 14.984375 27.296875 
Q 14.984375 17.28125 19.8125 11.734375 
Q 24.65625 6.203125 33.40625 6.203125 
Q 37.3125 6.203125 41.140625 7.25 
Q 44.96875 8.296875 48.78125 10.40625 
L 48.78125 2.09375 
Q 45.015625 0.34375 40.984375 -0.53125 
Q 36.96875 -1.421875 32.421875 -1.421875 
Q 20.0625 -1.421875 12.78125 6.34375 
Q 5.515625 14.109375 5.515625 27.296875 
Q 5.515625 40.671875 12.859375 48.328125 
Q 20.21875 56 33.015625 56 
Q 37.15625 56 41.109375 55.140625 
Q 45.0625 54.296875 48.78125 52.59375 
" id="BitstreamVeraSans-Roman-63"/>
      <path d="M 44.28125 53.078125 
L 44.28125 44.578125 
Q 40.484375 46.53125 36.375 47.5 
Q 32.28125 48.484375 27.875 48.484375 
Q 21.1875 48.484375 17.84375 46.4375 
Q 14.5 44.390625 14.5 40.28125 
Q 14.5 37.15625 16.890625 35.375 
Q 19.28125 33.59375 26.515625 31.984375 
L 29.59375 31.296875 
Q 39.15625 29.25 43.1875 25.515625 
Q 47.21875 21.78125 47.21875 15.09375 
Q 47.21875 7.46875 41.1875 3.015625 
Q 35.15625 -1.421875 24.609375 -1.421875 
Q 20.21875 -1.421875 15.453125 -0.5625 
Q 10.6875 0.296875 5.421875 2 
L 5.421875 11.28125 
Q 10.40625 8.6875 15.234375 7.390625 
Q 20.0625 6.109375 24.8125 6.109375 
Q 31.15625 6.109375 34.5625 8.28125 
Q 37.984375 10.453125 37.984375 14.40625 
Q 37.984375 18.0625 35.515625 20.015625 
Q 33.0625 21.96875 24.703125 23.78125 
L 21.578125 24.515625 
Q 13.234375 26.265625 9.515625 29.90625 
Q 5.8125 33.546875 5.8125 39.890625 
Q 5.8125 47.609375 11.28125 51.796875 
Q 16.75 56 26.8125 56 
Q 31.78125 56 36.171875 55.265625 
Q 40.578125 54.546875 44.28125 53.078125 
" id="BitstreamVeraSans-Roman-73"/>
      <path d="M 30.609375 48.390625 
Q 23.390625 48.390625 19.1875 42.75 
Q 14.984375 37.109375 14.984375 27.296875 
Q 14.984375 17.484375 19.15625 11.84375 
Q 23.34375 6.203125 30.609375 6.203125 
Q 37.796875 6.203125 41.984375 11.859375 
Q 46.1875 17.53125 46.1875 27.296875 
Q 46.1875 37.015625 41.984375 42.703125 
Q 37.796875 48.390625 30.609375 48.390625 
M 30.609375 56 
Q 42.328125 56 49.015625 48.375 
Q 55.71875 40.765625 55.71875 27.296875 
Q 55.71875 13.875 49.015625 6.21875 
Q 42.328125 -1.421875 30.609375 -1.421875 
Q 18.84375 -1.421875 12.171875 6.21875 
Q 5.515625 13.875 5.515625 27.296875 
Q 5.515625 40.765625 12.171875 48.375 
Q 18.84375 56 30.609375 56 
" id="BitstreamVeraSans-Roman-6f"/>
      <path d="M 54.890625 33.015625 
L 54.890625 0 
L 45.90625 0 
L 45.90625 32.71875 
Q 45.90625 40.484375 42.875 44.328125 
Q 39.84375 48.1875 33.796875 48.1875 
Q 26.515625 48.1875 22.3125 43.546875 
Q 18.109375 38.921875 18.109375 30.90625 
L 18.109375 0 
L 9.078125 0 
L 9.078125 75.984375 
L 18.109375 75.984375 
L 18.109375 46.1875 
Q 21.34375 51.125 25.703125 53.5625 
Q 30.078125 56 35.796875 56 
Q 45.21875 56 50.046875 50.171875 
Q 54.890625 44.34375 54.890625 33.015625 
" id="BitstreamVeraSans-Roman-68"/>
      <path d="M 37.109375 75.984375 
L 37.109375 68.5 
L 28.515625 68.5 
Q 23.6875 68.5 21.796875 66.546875 
Q 19.921875 64.59375 19.921875 59.515625 
L 19.921875 54.6875 
L 34.71875 54.6875 
L 34.71875 47.703125 
L 19.921875 47.703125 
L 19.921875 0 
L 10.890625 0 
L 10.890625 47.703125 
L 2.296875 47.703125 
L 2.296875 54.6875 
L 10.890625 54.6875 
L 10.890625 58.5 
Q 10.890625 67.625 15.140625 71.796875 
Q 19.390625 75.984375 28.609375 75.984375 
z
" id="BitstreamVeraSans-Roman-66"/>
      <path d="M 41.109375 46.296875 
Q 39.59375 47.171875 37.8125 47.578125 
Q 36.03125 48 33.890625 48 
Q 26.265625 48 22.1875 43.046875 
Q 18.109375 38.09375 18.109375 28.8125 
L 18.109375 0 
L 9.078125 0 
L 9.078125 54.6875 
L 18.109375 54.6875 
L 18.109375 46.1875 
Q 20.953125 51.171875 25.484375 53.578125 
Q 30.03125 56 36.53125 56 
Q 37.453125 56 38.578125 55.875 
Q 39.703125 55.765625 41.0625 55.515625 
z
" id="BitstreamVeraSans-Roman-72"/>
      <path d="M 52 44.1875 
Q 55.375 50.25 60.0625 53.125 
Q 64.75 56 71.09375 56 
Q 79.640625 56 84.28125 50.015625 
Q 88.921875 44.046875 88.921875 33.015625 
L 88.921875 0 
L 79.890625 0 
L 79.890625 32.71875 
Q 79.890625 40.578125 77.09375 44.375 
Q 74.3125 48.1875 68.609375 48.1875 
Q 61.625 48.1875 57.5625 43.546875 
Q 53.515625 38.921875 53.515625 30.90625 
L 53.515625 0 
L 44.484375 0 
L 44.484375 32.71875 
Q 44.484375 40.625 41.703125 44.40625 
Q 38.921875 48.1875 33.109375 48.1875 
Q 26.21875 48.1875 22.15625 43.53125 
Q 18.109375 38.875 18.109375 30.90625 
L 18.109375 0 
L 9.078125 0 
L 9.078125 54.6875 
L 18.109375 54.6875 
L 18.109375 46.1875 
Q 21.1875 51.21875 25.484375 53.609375 
Q 29.78125 56 35.6875 56 
Q 41.65625 56 45.828125 52.96875 
Q 50 49.953125 52 44.1875 
" id="BitstreamVeraSans-Roman-6d"/>
      <path d="M 56.203125 29.59375 
L 56.203125 25.203125 
L 14.890625 25.203125 
Q 15.484375 15.921875 20.484375 11.0625 
Q 25.484375 6.203125 34.421875 6.203125 
Q 39.59375 6.203125 44.453125 7.46875 
Q 49.3125 8.734375 54.109375 11.28125 
L 54.109375 2.78125 
Q 49.265625 0.734375 44.1875 -0.34375 
Q 39.109375 -1.421875 33.890625 -1.421875 
Q 20.796875 -1.421875 13.15625 6.1875 
Q 5.515625 13.8125 5.515625 26.8125 
Q 5.515625 40.234375 12.765625 48.109375 
Q 20.015625 56 32.328125 56 
Q 43.359375 56 49.78125 48.890625 
Q 56.203125 41.796875 56.203125 29.59375 
M 47.21875 32.234375 
Q 47.125 39.59375 43.09375 43.984375 
Q 39.0625 48.390625 32.421875 48.390625 
Q 24.90625 48.390625 20.390625 44.140625 
Q 15.875 39.890625 15.1875 32.171875 
z
" id="BitstreamVeraSans-Roman-65"/>
      <path d="M 45.40625 46.390625 
L 45.40625 75.984375 
L 54.390625 75.984375 
L 54.390625 0 
L 45.40625 0 
L 45.40625 8.203125 
Q 42.578125 3.328125 38.25 0.953125 
Q 33.9375 -1.421875 27.875 -1.421875 
Q 17.96875 -1.421875 11.734375 6.484375 
Q 5.515625 14.40625 5.515625 27.296875 
Q 5.515625 40.1875 11.734375 48.09375 
Q 17.96875 56 27.875 56 
Q 33.9375 56 38.25 53.625 
Q 42.578125 51.265625 45.40625 46.390625 
M 14.796875 27.296875 
Q 14.796875 17.390625 18.875 11.75 
Q 22.953125 6.109375 30.078125 6.109375 
Q 37.203125 6.109375 41.296875 11.75 
Q 45.40625 17.390625 45.40625 27.296875 
Q 45.40625 37.203125 41.296875 42.84375 
Q 37.203125 48.484375 30.078125 48.484375 
Q 22.953125 48.484375 18.875 42.84375 
Q 14.796875 37.203125 14.796875 27.296875 
" id="BitstreamVeraSans-Roman-64"/>
      <path d="M 34.28125 27.484375 
Q 23.390625 27.484375 19.1875 25 
Q 14.984375 22.515625 14.984375 16.5 
Q 14.984375 11.71875 18.140625 8.90625 
Q 21.296875 6.109375 26.703125 6.109375 
Q 34.1875 6.109375 38.703125 11.40625 
Q 43.21875 16.703125 43.21875 25.484375 
L 43.21875 27.484375 
z
M 52.203125 31.203125 
L 52.203125 0 
L 43.21875 0 
L 43.21875 8.296875 
Q 40.140625 3.328125 35.546875 0.953125 
Q 30.953125 -1.421875 24.3125 -1.421875 
Q 15.921875 -1.421875 10.953125 3.296875 
Q 6 8.015625 6 15.921875 
Q 6 25.140625 12.171875 29.828125 
Q 18.359375 34.515625 30.609375 34.515625 
L 43.21875 34.515625 
L 43.21875 35.40625 
Q 43.21875 41.609375 39.140625 45 
Q 35.0625 48.390625 27.6875 48.390625 
Q 23 48.390625 18.546875 47.265625 
Q 14.109375 46.140625 10.015625 43.890625 
L 10.015625 52.203125 
Q 14.9375 54.109375 19.578125 55.046875 
Q 24.21875 56 28.609375 56 
Q 40.484375 56 46.34375 49.84375 
Q 52.203125 43.703125 52.203125 31.203125 
" id="BitstreamVeraSans-Roman-61"/>
      <path d="M 4.203125 54.6875 
L 13.1875 54.6875 
L 24.421875 12.015625 
L 35.59375 54.6875 
L 46.1875 54.6875 
L 57.421875 12.015625 
L 68.609375 54.6875 
L 77.59375 54.6875 
L 63.28125 0 
L 52.6875 0 
L 40.921875 44.828125 
L 29.109375 0 
L 18.5 0 
z
" id="BitstreamVeraSans-Roman-77"/>
      <path d="M 48.6875 27.296875 
Q 48.6875 37.203125 44.609375 42.84375 
Q 40.53125 48.484375 33.40625 48.484375 
Q 26.265625 48.484375 22.1875 42.84375 
Q 18.109375 37.203125 18.109375 27.296875 
Q 18.109375 17.390625 22.1875 11.75 
Q 26.265625 6.109375 33.40625 6.109375 
Q 40.53125 6.109375 44.609375 11.75 
Q 48.6875 17.390625 48.6875 27.296875 
M 18.109375 46.390625 
Q 20.953125 51.265625 25.265625 53.625 
Q 29.59375 56 35.59375 56 
Q 45.5625 56 51.78125 48.09375 
Q 58.015625 40.1875 58.015625 27.296875 
Q 58.015625 14.40625 51.78125 6.484375 
Q 45.5625 -1.421875 35.59375 -1.421875 
Q 29.59375 -1.421875 25.265625 0.953125 
Q 20.953125 3.328125 18.109375 8.203125 
L 18.109375 0 
L 9.078125 0 
L 9.078125 75.984375 
L 18.109375 75.984375 
z
" id="BitstreamVeraSans-Roman-62"/>
      <path d="M 45.40625 27.984375 
Q 45.40625 37.75 41.375 43.109375 
Q 37.359375 48.484375 30.078125 48.484375 
Q 22.859375 48.484375 18.828125 43.109375 
Q 14.796875 37.75 14.796875 27.984375 
Q 14.796875 18.265625 18.828125 12.890625 
Q 22.859375 7.515625 30.078125 7.515625 
Q 37.359375 7.515625 41.375 12.890625 
Q 45.40625 18.265625 45.40625 27.984375 
M 54.390625 6.78125 
Q 54.390625 -7.171875 48.1875 -13.984375 
Q 42 -20.796875 29.203125 -20.796875 
Q 24.46875 -20.796875 20.265625 -20.09375 
Q 16.0625 -19.390625 12.109375 -17.921875 
L 12.109375 -9.1875 
Q 16.0625 -11.328125 19.921875 -12.34375 
Q 23.78125 -13.375 27.78125 -13.375 
Q 36.625 -13.375 41.015625 -8.765625 
Q 45.40625 -4.15625 45.40625 5.171875 
L 45.40625 9.625 
Q 42.625 4.78125 38.28125 2.390625 
Q 33.9375 0 27.875 0 
Q 17.828125 0 11.671875 7.65625 
Q 5.515625 15.328125 5.515625 27.984375 
Q 5.515625 40.671875 11.671875 48.328125 
Q 17.828125 56 27.875 56 
Q 33.9375 56 38.28125 53.609375 
Q 42.625 51.21875 45.40625 46.390625 
L 45.40625 54.6875 
L 54.390625 54.6875 
z
" id="BitstreamVeraSans-Roman-67"/>
     </defs>
     <g transform="translate(216.4096875 418.531875)scale(0.12 -0.12)">
      <use xlink:href="#BitstreamVeraSans-Roman-6e"/>
      <use x="63.37890625" xlink:href="#BitstreamVeraSans-Roman-75"/>
      <use x="126.7578125" xlink:href="#BitstreamVeraSans-Roman-6d"/>
      <use x="224.169921875" xlink:href="#BitstreamVeraSans-Roman-62"/>
      <use x="287.646484375" xlink:href="#BitstreamVeraSans-Roman-65"/>
      <use x="349.169921875" xlink:href="#BitstreamVeraSans-Roman-72"/>
      <use x="390.283203125" xlink:href="#BitstreamVeraSans-Roman-20"/>
      <use x="422.0703125" xlink:href="#BitstreamVeraSans-Roman-6f"/>
      <use x="483.251953125" xlink:href="#BitstreamVeraSans-Roman-66"/>
      <use x="518.45703125" xlink:href="#BitstreamVeraSans-Roman-20"/>
      <use x="550.244140625" xlink:href="#BitstreamVeraSans-Roman-77"/>
      <use x="632.03125" xlink:href="#BitstreamVeraSans-Roman-6f"/>
      <use x="693.212890625" xlink:href="#BitstreamVeraSans-Roman-72"/>
      <use x="734.310546875" xlink:href="#BitstreamVeraSans-Roman-64"/>
      <use x="797.787109375" xlink:href="#BitstreamVeraSans-Roman-73"/>
      <use x="849.88671875" xlink:href="#BitstreamVeraSans-Roman-20"/>
      <use x="881.673828125" xlink:href="#BitstreamVeraSans-Roman-63"/>
      <use x="936.654296875" xlink:href="#BitstreamVeraSans-Roman-68"/>
      <use x="1000.033203125" xlink:href="#BitstreamVeraSans-Roman-61"/>
      <use x="1061.3125" xlink:href="#BitstreamVeraSans-Roman-6e"/>
      <use x="1124.69140625" xlink:href="#BitstreamVeraSans-Roman-67"/>
      <use x="1188.16796875" xlink:href="#BitstreamVeraSans-Roman-65"/>
      <use x="1249.69140625" xlink:href="#BitstreamVeraSans-Roman-64"/>
     </g>
    </g>
   </g>
   <g id="matplotlib.axis_2">
    <g id="ytick_1">
     <g id="line2d_19">
      <defs>
       <path d="M 0 0 
L 4 0 
" id="ma75c887525" style="stroke:#000000;stroke-width:0.5;"/>
      </defs>
      <g>
       <use style="stroke:#000000;stroke-width:0.5;" x="72.0" xlink:href="#ma75c887525" y="375.584704519"/>
      </g>
     </g>
     <g id="line2d_20">
      <defs>
       <path d="M 0 0 
L -4 0 
" id="m79114e34c8" style="stroke:#000000;stroke-width:0.5;"/>
      </defs>
      <g>
       <use style="stroke:#000000;stroke-width:0.5;" x="518.4" xlink:href="#m79114e34c8" y="375.584704519"/>
      </g>
     </g>
     <g id="text_8">
      <!-- 300 -->
      <g transform="translate(45.095 378.895954519)scale(0.12 -0.12)">
       <use xlink:href="#BitstreamVeraSans-Roman-33"/>
       <use x="63.623046875" xlink:href="#BitstreamVeraSans-Roman-30"/>
       <use x="127.24609375" xlink:href="#BitstreamVeraSans-Roman-30"/>
      </g>
     </g>
    </g>
    <g id="ytick_2">
     <g id="line2d_21">
      <g>
       <use style="stroke:#000000;stroke-width:0.5;" x="72.0" xlink:href="#ma75c887525" y="335.538354577"/>
      </g>
     </g>
     <g id="line2d_22">
      <g>
       <use style="stroke:#000000;stroke-width:0.5;" x="518.4" xlink:href="#m79114e34c8" y="335.538354577"/>
      </g>
     </g>
     <g id="text_9">
      <!-- 400 -->
      <g transform="translate(45.095 338.849604577)scale(0.12 -0.12)">
       <use xlink:href="#BitstreamVeraSans-Roman-34"/>
       <use x="63.623046875" xlink:href="#BitstreamVeraSans-Roman-30"/>
       <use x="127.24609375" xlink:href="#BitstreamVeraSans-Roman-30"/>
      </g>
     </g>
    </g>
    <g id="ytick_3">
     <g id="line2d_23">
      <g>
       <use style="stroke:#000000;stroke-width:0.5;" x="72.0" xlink:href="#ma75c887525" y="295.492004635"/>
      </g>
     </g>
     <g id="line2d_24">
      <g>
       <use style="stroke:#000000;stroke-width:0.5;" x="518.4" xlink:href="#m79114e34c8" y="295.492004635"/>
      </g>
     </g>
     <g id="text_10">
      <!-- 500 -->
      <g transform="translate(45.095 298.803254635)scale(0.12 -0.12)">
       <use xlink:href="#BitstreamVeraSans-Roman-35"/>
       <use x="63.623046875" xlink:href="#BitstreamVeraSans-Roman-30"/>
       <use x="127.24609375" xlink:href="#BitstreamVeraSans-Roman-30"/>
      </g>
     </g>
    </g>
    <g id="ytick_4">
     <g id="line2d_25">
      <g>
       <use style="stroke:#000000;stroke-width:0.5;" x="72.0" xlink:href="#ma75c887525" y="255.445654693"/>
      </g>
     </g>
     <g id="line2d_26">
      <g>
       <use style="stroke:#000000;stroke-width:0.5;" x="518.4" xlink:href="#m79114e34c8" y="255.445654693"/>
      </g>
     </g>
     <g id="text_11">
      <!-- 600 -->
      <g transform="translate(45.095 258.756904693)scale(0.12 -0.12)">
       <use xlink:href="#BitstreamVeraSans-Roman-36"/>
       <use x="63.623046875" xlink:href="#BitstreamVeraSans-Roman-30"/>
       <use x="127.24609375" xlink:href="#BitstreamVeraSans-Roman-30"/>
      </g>
     </g>
    </g>
    <g id="ytick_5">
     <g id="line2d_27">
      <g>
       <use style="stroke:#000000;stroke-width:0.5;" x="72.0" xlink:href="#ma75c887525" y="215.399304751"/>
      </g>
     </g>
     <g id="line2d_28">
      <g>
       <use style="stroke:#000000;stroke-width:0.5;" x="518.4" xlink:href="#m79114e34c8" y="215.399304751"/>
      </g>
     </g>
     <g id="text_12">
      <!-- 700 -->
      <defs>
       <path d="M 8.203125 72.90625 
L 55.078125 72.90625 
L 55.078125 68.703125 
L 28.609375 0 
L 18.3125 0 
L 43.21875 64.59375 
L 8.203125 64.59375 
z
" id="BitstreamVeraSans-Roman-37"/>
      </defs>
      <g transform="translate(45.095 218.710554751)scale(0.12 -0.12)">
       <use xlink:href="#BitstreamVeraSans-Roman-37"/>
       <use x="63.623046875" xlink:href="#BitstreamVeraSans-Roman-30"/>
       <use x="127.24609375" xlink:href="#BitstreamVeraSans-Roman-30"/>
      </g>
     </g>
    </g>
    <g id="ytick_6">
     <g id="line2d_29">
      <g>
       <use style="stroke:#000000;stroke-width:0.5;" x="72.0" xlink:href="#ma75c887525" y="175.352954809"/>
      </g>
     </g>
     <g id="line2d_30">
      <g>
       <use style="stroke:#000000;stroke-width:0.5;" x="518.4" xlink:href="#m79114e34c8" y="175.352954809"/>
      </g>
     </g>
     <g id="text_13">
      <!-- 800 -->
      <defs>
       <path d="M 31.78125 34.625 
Q 24.75 34.625 20.71875 30.859375 
Q 16.703125 27.09375 16.703125 20.515625 
Q 16.703125 13.921875 20.71875 10.15625 
Q 24.75 6.390625 31.78125 6.390625 
Q 38.8125 6.390625 42.859375 10.171875 
Q 46.921875 13.96875 46.921875 20.515625 
Q 46.921875 27.09375 42.890625 30.859375 
Q 38.875 34.625 31.78125 34.625 
M 21.921875 38.8125 
Q 15.578125 40.375 12.03125 44.71875 
Q 8.5 49.078125 8.5 55.328125 
Q 8.5 64.0625 14.71875 69.140625 
Q 20.953125 74.21875 31.78125 74.21875 
Q 42.671875 74.21875 48.875 69.140625 
Q 55.078125 64.0625 55.078125 55.328125 
Q 55.078125 49.078125 51.53125 44.71875 
Q 48 40.375 41.703125 38.8125 
Q 48.828125 37.15625 52.796875 32.3125 
Q 56.78125 27.484375 56.78125 20.515625 
Q 56.78125 9.90625 50.3125 4.234375 
Q 43.84375 -1.421875 31.78125 -1.421875 
Q 19.734375 -1.421875 13.25 4.234375 
Q 6.78125 9.90625 6.78125 20.515625 
Q 6.78125 27.484375 10.78125 32.3125 
Q 14.796875 37.15625 21.921875 38.8125 
M 18.3125 54.390625 
Q 18.3125 48.734375 21.84375 45.5625 
Q 25.390625 42.390625 31.78125 42.390625 
Q 38.140625 42.390625 41.71875 45.5625 
Q 45.3125 48.734375 45.3125 54.390625 
Q 45.3125 60.0625 41.71875 63.234375 
Q 38.140625 66.40625 31.78125 66.40625 
Q 25.390625 66.40625 21.84375 63.234375 
Q 18.3125 60.0625 18.3125 54.390625 
" id="BitstreamVeraSans-Roman-38"/>
      </defs>
      <g transform="translate(45.095 178.664204809)scale(0.12 -0.12)">
       <use xlink:href="#BitstreamVeraSans-Roman-38"/>
       <use x="63.623046875" xlink:href="#BitstreamVeraSans-Roman-30"/>
       <use x="127.24609375" xlink:href="#BitstreamVeraSans-Roman-30"/>
      </g>
     </g>
    </g>
    <g id="ytick_7">
     <g id="line2d_31">
      <g>
       <use style="stroke:#000000;stroke-width:0.5;" x="72.0" xlink:href="#ma75c887525" y="135.306604867"/>
      </g>
     </g>
     <g id="line2d_32">
      <g>
       <use style="stroke:#000000;stroke-width:0.5;" x="518.4" xlink:href="#m79114e34c8" y="135.306604867"/>
      </g>
     </g>
     <g id="text_14">
      <!-- 900 -->
      <defs>
       <path d="M 10.984375 1.515625 
L 10.984375 10.5 
Q 14.703125 8.734375 18.5 7.8125 
Q 22.3125 6.890625 25.984375 6.890625 
Q 35.75 6.890625 40.890625 13.453125 
Q 46.046875 20.015625 46.78125 33.40625 
Q 43.953125 29.203125 39.59375 26.953125 
Q 35.25 24.703125 29.984375 24.703125 
Q 19.046875 24.703125 12.671875 31.3125 
Q 6.296875 37.9375 6.296875 49.421875 
Q 6.296875 60.640625 12.9375 67.421875 
Q 19.578125 74.21875 30.609375 74.21875 
Q 43.265625 74.21875 49.921875 64.515625 
Q 56.59375 54.828125 56.59375 36.375 
Q 56.59375 19.140625 48.40625 8.859375 
Q 40.234375 -1.421875 26.421875 -1.421875 
Q 22.703125 -1.421875 18.890625 -0.6875 
Q 15.09375 0.046875 10.984375 1.515625 
M 30.609375 32.421875 
Q 37.25 32.421875 41.125 36.953125 
Q 45.015625 41.5 45.015625 49.421875 
Q 45.015625 57.28125 41.125 61.84375 
Q 37.25 66.40625 30.609375 66.40625 
Q 23.96875 66.40625 20.09375 61.84375 
Q 16.21875 57.28125 16.21875 49.421875 
Q 16.21875 41.5 20.09375 36.953125 
Q 23.96875 32.421875 30.609375 32.421875 
" id="BitstreamVeraSans-Roman-39"/>
      </defs>
      <g transform="translate(45.095 138.617854867)scale(0.12 -0.12)">
       <use xlink:href="#BitstreamVeraSans-Roman-39"/>
       <use x="63.623046875" xlink:href="#BitstreamVeraSans-Roman-30"/>
       <use x="127.24609375" xlink:href="#BitstreamVeraSans-Roman-30"/>
      </g>
     </g>
    </g>
    <g id="ytick_8">
     <g id="line2d_33">
      <g>
       <use style="stroke:#000000;stroke-width:0.5;" x="72.0" xlink:href="#ma75c887525" y="95.2602549247"/>
      </g>
     </g>
     <g id="line2d_34">
      <g>
       <use style="stroke:#000000;stroke-width:0.5;" x="518.4" xlink:href="#m79114e34c8" y="95.2602549247"/>
      </g>
     </g>
     <g id="text_15">
      <!-- 1000 -->
      <g transform="translate(37.46 98.5715049247)scale(0.12 -0.12)">
       <use xlink:href="#BitstreamVeraSans-Roman-31"/>
       <use x="63.623046875" xlink:href="#BitstreamVeraSans-Roman-30"/>
       <use x="127.24609375" xlink:href="#BitstreamVeraSans-Roman-30"/>
       <use x="190.869140625" xlink:href="#BitstreamVeraSans-Roman-30"/>
      </g>
     </g>
    </g>
    <g id="ytick_9">
     <g id="line2d_35">
      <g>
       <use style="stroke:#000000;stroke-width:0.5;" x="72.0" xlink:href="#ma75c887525" y="55.2139049826"/>
      </g>
     </g>
     <g id="line2d_36">
      <g>
       <use style="stroke:#000000;stroke-width:0.5;" x="518.4" xlink:href="#m79114e34c8" y="55.2139049826"/>
      </g>
     </g>
     <g id="text_16">
      <!-- 1100 -->
      <g transform="translate(37.46 58.5251549826)scale(0.12 -0.12)">
       <use xlink:href="#BitstreamVeraSans-Roman-31"/>
       <use x="63.623046875" xlink:href="#BitstreamVeraSans-Roman-31"/>
       <use x="127.24609375" xlink:href="#BitstreamVeraSans-Roman-30"/>
       <use x="190.869140625" xlink:href="#BitstreamVeraSans-Roman-30"/>
      </g>
     </g>
    </g>
    <g id="text_17">
     <!-- amount -->
     <defs>
      <path d="M 18.3125 70.21875 
L 18.3125 54.6875 
L 36.8125 54.6875 
L 36.8125 47.703125 
L 18.3125 47.703125 
L 18.3125 18.015625 
Q 18.3125 11.328125 20.140625 9.421875 
Q 21.96875 7.515625 27.59375 7.515625 
L 36.8125 7.515625 
L 36.8125 0 
L 27.59375 0 
Q 17.1875 0 13.234375 3.875 
Q 9.28125 7.765625 9.28125 18.015625 
L 9.28125 47.703125 
L 2.6875 47.703125 
L 2.6875 54.6875 
L 9.28125 54.6875 
L 9.28125 70.21875 
z
" id="BitstreamVeraSans-Roman-74"/>
     </defs>
     <g transform="translate(29.964375 239.1496875)rotate(-90.0)scale(0.12 -0.12)">
      <use xlink:href="#BitstreamVeraSans-Roman-61"/>
      <use x="61.279296875" xlink:href="#BitstreamVeraSans-Roman-6d"/>
      <use x="158.69140625" xlink:href="#BitstreamVeraSans-Roman-6f"/>
      <use x="219.873046875" xlink:href="#BitstreamVeraSans-Roman-75"/>
      <use x="283.251953125" xlink:href="#BitstreamVeraSans-Roman-6e"/>
      <use x="346.630859375" xlink:href="#BitstreamVeraSans-Roman-74"/>
     </g>
    </g>
   </g>
   <g id="text_18">
    <!-- accumulative number of sentences by words changed per -->
    <defs>
     <path d="M 18.109375 8.203125 
L 18.109375 -20.796875 
L 9.078125 -20.796875 
L 9.078125 54.6875 
L 18.109375 54.6875 
L 18.109375 46.390625 
Q 20.953125 51.265625 25.265625 53.625 
Q 29.59375 56 35.59375 56 
Q 45.5625 56 51.78125 48.09375 
Q 58.015625 40.1875 58.015625 27.296875 
Q 58.015625 14.40625 51.78125 6.484375 
Q 45.5625 -1.421875 35.59375 -1.421875 
Q 29.59375 -1.421875 25.265625 0.953125 
Q 20.953125 3.328125 18.109375 8.203125 
M 48.6875 27.296875 
Q 48.6875 37.203125 44.609375 42.84375 
Q 40.53125 48.484375 33.40625 48.484375 
Q 26.265625 48.484375 22.1875 42.84375 
Q 18.109375 37.203125 18.109375 27.296875 
Q 18.109375 17.390625 22.1875 11.75 
Q 26.265625 6.109375 33.40625 6.109375 
Q 40.53125 6.109375 44.609375 11.75 
Q 48.6875 17.390625 48.6875 27.296875 
" id="BitstreamVeraSans-Roman-70"/>
     <path d="M 2.984375 54.6875 
L 12.5 54.6875 
L 29.59375 8.796875 
L 46.6875 54.6875 
L 56.203125 54.6875 
L 35.6875 0 
L 23.484375 0 
z
" id="BitstreamVeraSans-Roman-76"/>
     <path d="M 9.421875 54.6875 
L 18.40625 54.6875 
L 18.40625 0 
L 9.421875 0 
z
M 9.421875 75.984375 
L 18.40625 75.984375 
L 18.40625 64.59375 
L 9.421875 64.59375 
z
" id="BitstreamVeraSans-Roman-69"/>
     <path d="M 9.421875 75.984375 
L 18.40625 75.984375 
L 18.40625 0 
L 9.421875 0 
z
" id="BitstreamVeraSans-Roman-6c"/>
     <path d="M 32.171875 -5.078125 
Q 28.375 -14.84375 24.75 -17.8125 
Q 21.140625 -20.796875 15.09375 -20.796875 
L 7.90625 -20.796875 
L 7.90625 -13.28125 
L 13.1875 -13.28125 
Q 16.890625 -13.28125 18.9375 -11.515625 
Q 21 -9.765625 23.484375 -3.21875 
L 25.09375 0.875 
L 2.984375 54.6875 
L 12.5 54.6875 
L 29.59375 11.921875 
L 46.6875 54.6875 
L 56.203125 54.6875 
z
" id="BitstreamVeraSans-Roman-79"/>
    </defs>
    <g transform="translate(85.609125 38.2)scale(0.144 -0.144)">
     <use xlink:href="#BitstreamVeraSans-Roman-61"/>
     <use x="61.279296875" xlink:href="#BitstreamVeraSans-Roman-63"/>
     <use x="116.259765625" xlink:href="#BitstreamVeraSans-Roman-63"/>
     <use x="171.240234375" xlink:href="#BitstreamVeraSans-Roman-75"/>
     <use x="234.619140625" xlink:href="#BitstreamVeraSans-Roman-6d"/>
     <use x="332.03125" xlink:href="#BitstreamVeraSans-Roman-75"/>
     <use x="395.41015625" xlink:href="#BitstreamVeraSans-Roman-6c"/>
     <use x="423.193359375" xlink:href="#BitstreamVeraSans-Roman-61"/>
     <use x="484.47265625" xlink:href="#BitstreamVeraSans-Roman-74"/>
     <use x="523.681640625" xlink:href="#BitstreamVeraSans-Roman-69"/>
     <use x="551.46484375" xlink:href="#BitstreamVeraSans-Roman-76"/>
     <use x="610.64453125" xlink:href="#BitstreamVeraSans-Roman-65"/>
     <use x="672.16796875" xlink:href="#BitstreamVeraSans-Roman-20"/>
     <use x="703.955078125" xlink:href="#BitstreamVeraSans-Roman-6e"/>
     <use x="767.333984375" xlink:href="#BitstreamVeraSans-Roman-75"/>
     <use x="830.712890625" xlink:href="#BitstreamVeraSans-Roman-6d"/>
     <use x="928.125" xlink:href="#BitstreamVeraSans-Roman-62"/>
     <use x="991.6015625" xlink:href="#BitstreamVeraSans-Roman-65"/>
     <use x="1053.125" xlink:href="#BitstreamVeraSans-Roman-72"/>
     <use x="1094.23828125" xlink:href="#BitstreamVeraSans-Roman-20"/>
     <use x="1126.025390625" xlink:href="#BitstreamVeraSans-Roman-6f"/>
     <use x="1187.20703125" xlink:href="#BitstreamVeraSans-Roman-66"/>
     <use x="1222.412109375" xlink:href="#BitstreamVeraSans-Roman-20"/>
     <use x="1254.19921875" xlink:href="#BitstreamVeraSans-Roman-73"/>
     <use x="1306.298828125" xlink:href="#BitstreamVeraSans-Roman-65"/>
     <use x="1367.822265625" xlink:href="#BitstreamVeraSans-Roman-6e"/>
     <use x="1431.201171875" xlink:href="#BitstreamVeraSans-Roman-74"/>
     <use x="1470.41015625" xlink:href="#BitstreamVeraSans-Roman-65"/>
     <use x="1531.93359375" xlink:href="#BitstreamVeraSans-Roman-6e"/>
     <use x="1595.3125" xlink:href="#BitstreamVeraSans-Roman-63"/>
     <use x="1650.29296875" xlink:href="#BitstreamVeraSans-Roman-65"/>
     <use x="1711.81640625" xlink:href="#BitstreamVeraSans-Roman-73"/>
     <use x="1763.916015625" xlink:href="#BitstreamVeraSans-Roman-20"/>
     <use x="1795.703125" xlink:href="#BitstreamVeraSans-Roman-62"/>
     <use x="1859.1796875" xlink:href="#BitstreamVeraSans-Roman-79"/>
     <use x="1918.359375" xlink:href="#BitstreamVeraSans-Roman-20"/>
     <use x="1950.146484375" xlink:href="#BitstreamVeraSans-Roman-77"/>
     <use x="2031.93359375" xlink:href="#BitstreamVeraSans-Roman-6f"/>
     <use x="2093.115234375" xlink:href="#BitstreamVeraSans-Roman-72"/>
     <use x="2134.212890625" xlink:href="#BitstreamVeraSans-Roman-64"/>
     <use x="2197.689453125" xlink:href="#BitstreamVeraSans-Roman-73"/>
     <use x="2249.7890625" xlink:href="#BitstreamVeraSans-Roman-20"/>
     <use x="2281.576171875" xlink:href="#BitstreamVeraSans-Roman-63"/>
     <use x="2336.556640625" xlink:href="#BitstreamVeraSans-Roman-68"/>
     <use x="2399.935546875" xlink:href="#BitstreamVeraSans-Roman-61"/>
     <use x="2461.21484375" xlink:href="#BitstreamVeraSans-Roman-6e"/>
     <use x="2524.59375" xlink:href="#BitstreamVeraSans-Roman-67"/>
     <use x="2588.0703125" xlink:href="#BitstreamVeraSans-Roman-65"/>
     <use x="2649.59375" xlink:href="#BitstreamVeraSans-Roman-64"/>
     <use x="2713.0703125" xlink:href="#BitstreamVeraSans-Roman-20"/>
     <use x="2744.857421875" xlink:href="#BitstreamVeraSans-Roman-70"/>
     <use x="2808.333984375" xlink:href="#BitstreamVeraSans-Roman-65"/>
     <use x="2869.857421875" xlink:href="#BitstreamVeraSans-Roman-72"/>
    </g>
   </g>
   <g id="legend_1">
    <g id="patch_7">
     <path d="M 358.50625 261.534375 
L 513.4 261.534375 
L 513.4 170.465625 
L 358.50625 170.465625 
z
" style="fill:#ffffff;stroke:#000000;stroke-linejoin:miter;"/>
    </g>
    <g id="line2d_37">
     <path d="M 365.50625 178.564063 
L 379.50625 178.564063 
" style="fill:none;stroke:#8000ff;stroke-linecap:square;"/>
    </g>
    <g id="line2d_38"/>
    <g id="text_19">
     <!-- fce to gold auto aligned -->
     <g transform="translate(390.50625 182.0640625)scale(0.1 -0.1)">
      <use xlink:href="#BitstreamVeraSans-Roman-66"/>
      <use x="35.205078125" xlink:href="#BitstreamVeraSans-Roman-63"/>
      <use x="90.185546875" xlink:href="#BitstreamVeraSans-Roman-65"/>
      <use x="151.708984375" xlink:href="#BitstreamVeraSans-Roman-20"/>
      <use x="183.49609375" xlink:href="#BitstreamVeraSans-Roman-74"/>
      <use x="222.705078125" xlink:href="#BitstreamVeraSans-Roman-6f"/>
      <use x="283.88671875" xlink:href="#BitstreamVeraSans-Roman-20"/>
      <use x="315.673828125" xlink:href="#BitstreamVeraSans-Roman-67"/>
      <use x="379.150390625" xlink:href="#BitstreamVeraSans-Roman-6f"/>
      <use x="440.33203125" xlink:href="#BitstreamVeraSans-Roman-6c"/>
      <use x="468.115234375" xlink:href="#BitstreamVeraSans-Roman-64"/>
      <use x="531.591796875" xlink:href="#BitstreamVeraSans-Roman-20"/>
      <use x="563.37890625" xlink:href="#BitstreamVeraSans-Roman-61"/>
      <use x="624.658203125" xlink:href="#BitstreamVeraSans-Roman-75"/>
      <use x="688.037109375" xlink:href="#BitstreamVeraSans-Roman-74"/>
      <use x="727.24609375" xlink:href="#BitstreamVeraSans-Roman-6f"/>
      <use x="788.427734375" xlink:href="#BitstreamVeraSans-Roman-20"/>
      <use x="820.21484375" xlink:href="#BitstreamVeraSans-Roman-61"/>
      <use x="881.494140625" xlink:href="#BitstreamVeraSans-Roman-6c"/>
      <use x="909.27734375" xlink:href="#BitstreamVeraSans-Roman-69"/>
      <use x="937.060546875" xlink:href="#BitstreamVeraSans-Roman-67"/>
      <use x="1000.537109375" xlink:href="#BitstreamVeraSans-Roman-6e"/>
      <use x="1063.916015625" xlink:href="#BitstreamVeraSans-Roman-65"/>
      <use x="1125.439453125" xlink:href="#BitstreamVeraSans-Roman-64"/>
     </g>
    </g>
    <g id="line2d_39">
     <path d="M 365.50625 193.242188 
L 379.50625 193.242188 
" style="fill:none;stroke:#1996f3;stroke-linecap:square;"/>
    </g>
    <g id="line2d_40"/>
    <g id="text_20">
     <!-- gold standard -->
     <g transform="translate(390.50625 196.7421875)scale(0.1 -0.1)">
      <use xlink:href="#BitstreamVeraSans-Roman-67"/>
      <use x="63.4765625" xlink:href="#BitstreamVeraSans-Roman-6f"/>
      <use x="124.658203125" xlink:href="#BitstreamVeraSans-Roman-6c"/>
      <use x="152.44140625" xlink:href="#BitstreamVeraSans-Roman-64"/>
      <use x="215.91796875" xlink:href="#BitstreamVeraSans-Roman-20"/>
      <use x="247.705078125" xlink:href="#BitstreamVeraSans-Roman-73"/>
      <use x="299.8046875" xlink:href="#BitstreamVeraSans-Roman-74"/>
      <use x="339.013671875" xlink:href="#BitstreamVeraSans-Roman-61"/>
      <use x="400.29296875" xlink:href="#BitstreamVeraSans-Roman-6e"/>
      <use x="463.671875" xlink:href="#BitstreamVeraSans-Roman-64"/>
      <use x="527.1484375" xlink:href="#BitstreamVeraSans-Roman-61"/>
      <use x="588.427734375" xlink:href="#BitstreamVeraSans-Roman-72"/>
      <use x="629.525390625" xlink:href="#BitstreamVeraSans-Roman-64"/>
     </g>
    </g>
    <g id="line2d_41">
     <path d="M 365.50625 207.920313 
L 379.50625 207.920313 
" style="fill:none;stroke:#4df3ce;stroke-linecap:square;"/>
    </g>
    <g id="line2d_42"/>
    <g id="text_21">
     <!-- cuui -->
     <g transform="translate(390.50625 211.4203125)scale(0.1 -0.1)">
      <use xlink:href="#BitstreamVeraSans-Roman-63"/>
      <use x="54.98046875" xlink:href="#BitstreamVeraSans-Roman-75"/>
      <use x="118.359375" xlink:href="#BitstreamVeraSans-Roman-75"/>
      <use x="181.73828125" xlink:href="#BitstreamVeraSans-Roman-69"/>
     </g>
    </g>
    <g id="line2d_43">
     <path d="M 365.50625 222.598438 
L 379.50625 222.598438 
" style="fill:none;stroke:#b2f396;stroke-linecap:square;"/>
    </g>
    <g id="line2d_44"/>
    <g id="text_22">
     <!-- camb -->
     <g transform="translate(390.50625 226.0984375)scale(0.1 -0.1)">
      <use xlink:href="#BitstreamVeraSans-Roman-63"/>
      <use x="54.98046875" xlink:href="#BitstreamVeraSans-Roman-61"/>
      <use x="116.259765625" xlink:href="#BitstreamVeraSans-Roman-6d"/>
      <use x="213.671875" xlink:href="#BitstreamVeraSans-Roman-62"/>
     </g>
    </g>
    <g id="line2d_45">
     <path d="M 365.50625 237.276563 
L 379.50625 237.276563 
" style="fill:none;stroke:#ff964f;stroke-linecap:square;"/>
    </g>
    <g id="line2d_46"/>
    <g id="text_23">
     <!-- AMU -->
     <defs>
      <path d="M 9.8125 72.90625 
L 24.515625 72.90625 
L 43.109375 23.296875 
L 61.8125 72.90625 
L 76.515625 72.90625 
L 76.515625 0 
L 66.890625 0 
L 66.890625 64.015625 
L 48.09375 14.015625 
L 38.1875 14.015625 
L 19.390625 64.015625 
L 19.390625 0 
L 9.8125 0 
z
" id="BitstreamVeraSans-Roman-4d"/>
      <path d="M 8.6875 72.90625 
L 18.609375 72.90625 
L 18.609375 28.609375 
Q 18.609375 16.890625 22.84375 11.734375 
Q 27.09375 6.59375 36.625 6.59375 
Q 46.09375 6.59375 50.34375 11.734375 
Q 54.59375 16.890625 54.59375 28.609375 
L 54.59375 72.90625 
L 64.5 72.90625 
L 64.5 27.390625 
Q 64.5 13.140625 57.4375 5.859375 
Q 50.390625 -1.421875 36.625 -1.421875 
Q 22.796875 -1.421875 15.734375 5.859375 
Q 8.6875 13.140625 8.6875 27.390625 
z
" id="BitstreamVeraSans-Roman-55"/>
      <path d="M 34.1875 63.1875 
L 20.796875 26.90625 
L 47.609375 26.90625 
z
M 28.609375 72.90625 
L 39.796875 72.90625 
L 67.578125 0 
L 57.328125 0 
L 50.6875 18.703125 
L 17.828125 18.703125 
L 11.1875 0 
L 0.78125 0 
z
" id="BitstreamVeraSans-Roman-41"/>
     </defs>
     <g transform="translate(390.50625 240.7765625)scale(0.1 -0.1)">
      <use xlink:href="#BitstreamVeraSans-Roman-41"/>
      <use x="68.408203125" xlink:href="#BitstreamVeraSans-Roman-4d"/>
      <use x="154.6875" xlink:href="#BitstreamVeraSans-Roman-55"/>
     </g>
    </g>
    <g id="line2d_47">
     <path d="M 365.50625 251.954688 
L 379.50625 251.954688 
" style="fill:none;stroke:#ff0000;stroke-linecap:square;"/>
    </g>
    <g id="line2d_48"/>
    <g id="text_24">
     <!-- Rozovskaya Roth -->
     <defs>
      <path d="M 5.515625 54.6875 
L 48.1875 54.6875 
L 48.1875 46.484375 
L 14.40625 7.171875 
L 48.1875 7.171875 
L 48.1875 0 
L 4.296875 0 
L 4.296875 8.203125 
L 38.09375 47.515625 
L 5.515625 47.515625 
z
" id="BitstreamVeraSans-Roman-7a"/>
      <path d="M 44.390625 34.1875 
Q 47.5625 33.109375 50.5625 29.59375 
Q 53.5625 26.078125 56.59375 19.921875 
L 66.609375 0 
L 56 0 
L 46.6875 18.703125 
Q 43.0625 26.03125 39.671875 28.421875 
Q 36.28125 30.8125 30.421875 30.8125 
L 19.671875 30.8125 
L 19.671875 0 
L 9.8125 0 
L 9.8125 72.90625 
L 32.078125 72.90625 
Q 44.578125 72.90625 50.734375 67.671875 
Q 56.890625 62.453125 56.890625 51.90625 
Q 56.890625 45.015625 53.6875 40.46875 
Q 50.484375 35.9375 44.390625 34.1875 
M 19.671875 64.796875 
L 19.671875 38.921875 
L 32.078125 38.921875 
Q 39.203125 38.921875 42.84375 42.21875 
Q 46.484375 45.515625 46.484375 51.90625 
Q 46.484375 58.296875 42.84375 61.546875 
Q 39.203125 64.796875 32.078125 64.796875 
z
" id="BitstreamVeraSans-Roman-52"/>
      <path d="M 9.078125 75.984375 
L 18.109375 75.984375 
L 18.109375 31.109375 
L 44.921875 54.6875 
L 56.390625 54.6875 
L 27.390625 29.109375 
L 57.625 0 
L 45.90625 0 
L 18.109375 26.703125 
L 18.109375 0 
L 9.078125 0 
z
" id="BitstreamVeraSans-Roman-6b"/>
     </defs>
     <g transform="translate(390.50625 255.4546875)scale(0.1 -0.1)">
      <use xlink:href="#BitstreamVeraSans-Roman-52"/>
      <use x="69.419921875" xlink:href="#BitstreamVeraSans-Roman-6f"/>
      <use x="130.6015625" xlink:href="#BitstreamVeraSans-Roman-7a"/>
      <use x="183.091796875" xlink:href="#BitstreamVeraSans-Roman-6f"/>
      <use x="244.2734375" xlink:href="#BitstreamVeraSans-Roman-76"/>
      <use x="303.453125" xlink:href="#BitstreamVeraSans-Roman-73"/>
      <use x="355.552734375" xlink:href="#BitstreamVeraSans-Roman-6b"/>
      <use x="413.447265625" xlink:href="#BitstreamVeraSans-Roman-61"/>
      <use x="474.7265625" xlink:href="#BitstreamVeraSans-Roman-79"/>
      <use x="533.90625" xlink:href="#BitstreamVeraSans-Roman-61"/>
      <use x="595.185546875" xlink:href="#BitstreamVeraSans-Roman-20"/>
      <use x="626.97265625" xlink:href="#BitstreamVeraSans-Roman-52"/>
      <use x="696.392578125" xlink:href="#BitstreamVeraSans-Roman-6f"/>
      <use x="757.57421875" xlink:href="#BitstreamVeraSans-Roman-74"/>
      <use x="796.783203125" xlink:href="#BitstreamVeraSans-Roman-68"/>
     </g>
    </g>
   </g>
  </g>
 </g>
 <defs>
  <clipPath id="pb09e8006b8">
   <rect height="345.6" width="446.4" x="72.0" y="43.2"/>
  </clipPath>
 </defs>
</svg>
