<?xml version="1.0" encoding="utf-8" standalone="no"?>
<!DOCTYPE svg PUBLIC "-//W3C//DTD SVG 1.1//EN"
  "http://www.w3.org/Graphics/SVG/1.1/DTD/svg11.dtd">
<!-- Created with matplotlib (http://matplotlib.org/) -->
<svg height="432pt" version="1.1" viewBox="0 0 576 432" width="576pt" xmlns="http://www.w3.org/2000/svg" xmlns:xlink="http://www.w3.org/1999/xlink">
 <defs>
  <style type="text/css">
*{stroke-linecap:butt;stroke-linejoin:round;stroke-miterlimit:100000;}
  </style>
 </defs>
 <g id="figure_1">
  <g id="patch_1">
   <path d="M 0 432 
L 576 432 
L 576 0 
L 0 0 
z
" style="fill:#ffffff;"/>
  </g>
  <g id="axes_1">
   <g id="patch_2">
    <path d="M 72 388.8 
L 518.4 388.8 
L 518.4 43.2 
L 72 43.2 
z
" style="fill:#ffffff;"/>
   </g>
   <g id="patch_3">
    <path clip-path="url(#pf5c5e64539)" d="M 72 388.8 
L 73.226374 388.8 
L 73.226374 330.721992 
L 72 330.721992 
z
" style="fill:#8000ff;stroke:#000000;stroke-linejoin:miter;"/>
   </g>
   <g id="patch_4">
    <path clip-path="url(#pf5c5e64539)" d="M 79.358242 388.8 
L 80.584615 388.8 
L 80.584615 223.170124 
L 79.358242 223.170124 
z
" style="fill:#8000ff;stroke:#000000;stroke-linejoin:miter;"/>
   </g>
   <g id="patch_5">
    <path clip-path="url(#pf5c5e64539)" d="M 86.716484 388.8 
L 87.942857 388.8 
L 87.942857 284.833195 
L 86.716484 284.833195 
z
" style="fill:#8000ff;stroke:#000000;stroke-linejoin:miter;"/>
   </g>
   <g id="patch_6">
    <path clip-path="url(#pf5c5e64539)" d="M 94.074725 388.8 
L 95.301099 388.8 
L 95.301099 332.514523 
L 94.074725 332.514523 
z
" style="fill:#8000ff;stroke:#000000;stroke-linejoin:miter;"/>
   </g>
   <g id="patch_7">
    <path clip-path="url(#pf5c5e64539)" d="M 101.432967 388.8 
L 102.659341 388.8 
L 102.659341 355.817427 
L 101.432967 355.817427 
z
" style="fill:#8000ff;stroke:#000000;stroke-linejoin:miter;"/>
   </g>
   <g id="patch_8">
    <path clip-path="url(#pf5c5e64539)" d="M 108.791209 388.8 
L 110.017582 388.8 
L 110.017582 373.384232 
L 108.791209 373.384232 
z
" style="fill:#8000ff;stroke:#000000;stroke-linejoin:miter;"/>
   </g>
   <g id="patch_9">
    <path clip-path="url(#pf5c5e64539)" d="M 116.149451 388.8 
L 117.375824 388.8 
L 117.375824 376.969295 
L 116.149451 376.969295 
z
" style="fill:#8000ff;stroke:#000000;stroke-linejoin:miter;"/>
   </g>
   <g id="patch_10">
    <path clip-path="url(#pf5c5e64539)" d="M 123.507692 388.8 
L 124.734066 388.8 
L 124.734066 381.629876 
L 123.507692 381.629876 
z
" style="fill:#8000ff;stroke:#000000;stroke-linejoin:miter;"/>
   </g>
   <g id="patch_11">
    <path clip-path="url(#pf5c5e64539)" d="M 130.865934 388.8 
L 132.092308 388.8 
L 132.092308 385.214938 
L 130.865934 385.214938 
z
" style="fill:#8000ff;stroke:#000000;stroke-linejoin:miter;"/>
   </g>
   <g id="patch_12">
    <path clip-path="url(#pf5c5e64539)" d="M 138.224176 388.8 
L 139.450549 388.8 
L 139.450549 384.856432 
L 138.224176 384.856432 
z
" style="fill:#8000ff;stroke:#000000;stroke-linejoin:miter;"/>
   </g>
   <g id="patch_13">
    <path clip-path="url(#pf5c5e64539)" d="M 145.582418 388.8 
L 146.808791 388.8 
L 146.808791 387.007469 
L 145.582418 387.007469 
z
" style="fill:#8000ff;stroke:#000000;stroke-linejoin:miter;"/>
   </g>
   <g id="patch_14">
    <path clip-path="url(#pf5c5e64539)" d="M 152.940659 388.8 
L 154.167033 388.8 
L 154.167033 387.724481 
L 152.940659 387.724481 
z
" style="fill:#8000ff;stroke:#000000;stroke-linejoin:miter;"/>
   </g>
   <g id="patch_15">
    <path clip-path="url(#pf5c5e64539)" d="M 160.298901 388.8 
L 161.525275 388.8 
L 161.525275 388.441494 
L 160.298901 388.441494 
z
" style="fill:#8000ff;stroke:#000000;stroke-linejoin:miter;"/>
   </g>
   <g id="patch_16">
    <path clip-path="url(#pf5c5e64539)" d="M 167.657143 388.8 
L 168.883516 388.8 
L 168.883516 388.441494 
L 167.657143 388.441494 
z
" style="fill:#8000ff;stroke:#000000;stroke-linejoin:miter;"/>
   </g>
   <g id="patch_17">
    <path clip-path="url(#pf5c5e64539)" d="M 175.015385 388.8 
L 176.241758 388.8 
L 176.241758 388.8 
L 175.015385 388.8 
z
" style="fill:#8000ff;stroke:#000000;stroke-linejoin:miter;"/>
   </g>
   <g id="patch_18">
    <path clip-path="url(#pf5c5e64539)" d="M 182.373626 388.8 
L 183.6 388.8 
L 183.6 388.441494 
L 182.373626 388.441494 
z
" style="fill:#8000ff;stroke:#000000;stroke-linejoin:miter;"/>
   </g>
   <g id="patch_19">
    <path clip-path="url(#pf5c5e64539)" d="M 189.731868 388.8 
L 190.958242 388.8 
L 190.958242 388.8 
L 189.731868 388.8 
z
" style="fill:#8000ff;stroke:#000000;stroke-linejoin:miter;"/>
   </g>
   <g id="patch_20">
    <path clip-path="url(#pf5c5e64539)" d="M 197.09011 388.8 
L 198.316484 388.8 
L 198.316484 388.441494 
L 197.09011 388.441494 
z
" style="fill:#8000ff;stroke:#000000;stroke-linejoin:miter;"/>
   </g>
   <g id="patch_21">
    <path clip-path="url(#pf5c5e64539)" d="M 73.226374 388.8 
L 74.452747 388.8 
L 74.452747 218.509544 
L 73.226374 218.509544 
z
" style="fill:#1996f3;stroke:#000000;stroke-linejoin:miter;"/>
   </g>
   <g id="patch_22">
    <path clip-path="url(#pf5c5e64539)" d="M 80.584615 388.8 
L 81.810989 388.8 
L 81.810989 293.078838 
L 80.584615 293.078838 
z
" style="fill:#1996f3;stroke:#000000;stroke-linejoin:miter;"/>
   </g>
   <g id="patch_23">
    <path clip-path="url(#pf5c5e64539)" d="M 87.942857 388.8 
L 89.169231 388.8 
L 89.169231 329.287967 
L 87.942857 329.287967 
z
" style="fill:#1996f3;stroke:#000000;stroke-linejoin:miter;"/>
   </g>
   <g id="patch_24">
    <path clip-path="url(#pf5c5e64539)" d="M 95.301099 388.8 
L 96.527473 388.8 
L 96.527473 352.232365 
L 95.301099 352.232365 
z
" style="fill:#1996f3;stroke:#000000;stroke-linejoin:miter;"/>
   </g>
   <g id="patch_25">
    <path clip-path="url(#pf5c5e64539)" d="M 102.659341 388.8 
L 103.885714 388.8 
L 103.885714 360.836515 
L 102.659341 360.836515 
z
" style="fill:#1996f3;stroke:#000000;stroke-linejoin:miter;"/>
   </g>
   <g id="patch_26">
    <path clip-path="url(#pf5c5e64539)" d="M 110.017582 388.8 
L 111.243956 388.8 
L 111.243956 373.384232 
L 110.017582 373.384232 
z
" style="fill:#1996f3;stroke:#000000;stroke-linejoin:miter;"/>
   </g>
   <g id="patch_27">
    <path clip-path="url(#pf5c5e64539)" d="M 117.375824 388.8 
L 118.602198 388.8 
L 118.602198 376.252282 
L 117.375824 376.252282 
z
" style="fill:#1996f3;stroke:#000000;stroke-linejoin:miter;"/>
   </g>
   <g id="patch_28">
    <path clip-path="url(#pf5c5e64539)" d="M 124.734066 388.8 
L 125.96044 388.8 
L 125.96044 381.271369 
L 124.734066 381.271369 
z
" style="fill:#1996f3;stroke:#000000;stroke-linejoin:miter;"/>
   </g>
   <g id="patch_29">
    <path clip-path="url(#pf5c5e64539)" d="M 132.092308 388.8 
L 133.318681 388.8 
L 133.318681 384.497925 
L 132.092308 384.497925 
z
" style="fill:#1996f3;stroke:#000000;stroke-linejoin:miter;"/>
   </g>
   <g id="patch_30">
    <path clip-path="url(#pf5c5e64539)" d="M 139.450549 388.8 
L 140.676923 388.8 
L 140.676923 385.214938 
L 139.450549 385.214938 
z
" style="fill:#1996f3;stroke:#000000;stroke-linejoin:miter;"/>
   </g>
   <g id="patch_31">
    <path clip-path="url(#pf5c5e64539)" d="M 146.808791 388.8 
L 148.035165 388.8 
L 148.035165 386.290456 
L 146.808791 386.290456 
z
" style="fill:#1996f3;stroke:#000000;stroke-linejoin:miter;"/>
   </g>
   <g id="patch_32">
    <path clip-path="url(#pf5c5e64539)" d="M 154.167033 388.8 
L 155.393407 388.8 
L 155.393407 386.290456 
L 154.167033 386.290456 
z
" style="fill:#1996f3;stroke:#000000;stroke-linejoin:miter;"/>
   </g>
   <g id="patch_33">
    <path clip-path="url(#pf5c5e64539)" d="M 161.525275 388.8 
L 162.751648 388.8 
L 162.751648 387.724481 
L 161.525275 387.724481 
z
" style="fill:#1996f3;stroke:#000000;stroke-linejoin:miter;"/>
   </g>
   <g id="patch_34">
    <path clip-path="url(#pf5c5e64539)" d="M 168.883516 388.8 
L 170.10989 388.8 
L 170.10989 388.082988 
L 168.883516 388.082988 
z
" style="fill:#1996f3;stroke:#000000;stroke-linejoin:miter;"/>
   </g>
   <g id="patch_35">
    <path clip-path="url(#pf5c5e64539)" d="M 176.241758 388.8 
L 177.468132 388.8 
L 177.468132 388.082988 
L 176.241758 388.082988 
z
" style="fill:#1996f3;stroke:#000000;stroke-linejoin:miter;"/>
   </g>
   <g id="patch_36">
    <path clip-path="url(#pf5c5e64539)" d="M 183.6 388.8 
L 184.826374 388.8 
L 184.826374 387.365975 
L 183.6 387.365975 
z
" style="fill:#1996f3;stroke:#000000;stroke-linejoin:miter;"/>
   </g>
   <g id="patch_37">
    <path clip-path="url(#pf5c5e64539)" d="M 190.958242 388.8 
L 192.184615 388.8 
L 192.184615 388.082988 
L 190.958242 388.082988 
z
" style="fill:#1996f3;stroke:#000000;stroke-linejoin:miter;"/>
   </g>
   <g id="patch_38">
    <path clip-path="url(#pf5c5e64539)" d="M 198.316484 388.8 
L 199.542857 388.8 
L 199.542857 388.082988 
L 198.316484 388.082988 
z
" style="fill:#1996f3;stroke:#000000;stroke-linejoin:miter;"/>
   </g>
   <g id="patch_39">
    <path clip-path="url(#pf5c5e64539)" d="M 205.674725 388.8 
L 206.901099 388.8 
L 206.901099 388.8 
L 205.674725 388.8 
z
" style="fill:#1996f3;stroke:#000000;stroke-linejoin:miter;"/>
   </g>
   <g id="patch_40">
    <path clip-path="url(#pf5c5e64539)" d="M 213.032967 388.8 
L 214.259341 388.8 
L 214.259341 388.082988 
L 213.032967 388.082988 
z
" style="fill:#1996f3;stroke:#000000;stroke-linejoin:miter;"/>
   </g>
   <g id="patch_41">
    <path clip-path="url(#pf5c5e64539)" d="M 220.391209 388.8 
L 221.617582 388.8 
L 221.617582 388.8 
L 220.391209 388.8 
z
" style="fill:#1996f3;stroke:#000000;stroke-linejoin:miter;"/>
   </g>
   <g id="patch_42">
    <path clip-path="url(#pf5c5e64539)" d="M 227.749451 388.8 
L 228.975824 388.8 
L 228.975824 388.441494 
L 227.749451 388.441494 
z
" style="fill:#1996f3;stroke:#000000;stroke-linejoin:miter;"/>
   </g>
   <g id="patch_43">
    <path clip-path="url(#pf5c5e64539)" d="M 235.107692 388.8 
L 236.334066 388.8 
L 236.334066 388.8 
L 235.107692 388.8 
z
" style="fill:#1996f3;stroke:#000000;stroke-linejoin:miter;"/>
   </g>
   <g id="patch_44">
    <path clip-path="url(#pf5c5e64539)" d="M 242.465934 388.8 
L 243.692308 388.8 
L 243.692308 388.8 
L 242.465934 388.8 
z
" style="fill:#1996f3;stroke:#000000;stroke-linejoin:miter;"/>
   </g>
   <g id="patch_45">
    <path clip-path="url(#pf5c5e64539)" d="M 249.824176 388.8 
L 251.050549 388.8 
L 251.050549 388.8 
L 249.824176 388.8 
z
" style="fill:#1996f3;stroke:#000000;stroke-linejoin:miter;"/>
   </g>
   <g id="patch_46">
    <path clip-path="url(#pf5c5e64539)" d="M 257.182418 388.8 
L 258.408791 388.8 
L 258.408791 387.724481 
L 257.182418 387.724481 
z
" style="fill:#1996f3;stroke:#000000;stroke-linejoin:miter;"/>
   </g>
   <g id="patch_47">
    <path clip-path="url(#pf5c5e64539)" d="M 264.540659 388.8 
L 265.767033 388.8 
L 265.767033 388.441494 
L 264.540659 388.441494 
z
" style="fill:#1996f3;stroke:#000000;stroke-linejoin:miter;"/>
   </g>
   <g id="patch_48">
    <path clip-path="url(#pf5c5e64539)" d="M 271.898901 388.8 
L 273.125275 388.8 
L 273.125275 388.8 
L 271.898901 388.8 
z
" style="fill:#1996f3;stroke:#000000;stroke-linejoin:miter;"/>
   </g>
   <g id="patch_49">
    <path clip-path="url(#pf5c5e64539)" d="M 279.257143 388.8 
L 280.483516 388.8 
L 280.483516 388.441494 
L 279.257143 388.441494 
z
" style="fill:#1996f3;stroke:#000000;stroke-linejoin:miter;"/>
   </g>
   <g id="patch_50">
    <path clip-path="url(#pf5c5e64539)" d="M 74.452747 388.8 
L 75.679121 388.8 
L 75.679121 140.713693 
L 74.452747 140.713693 
z
" style="fill:#4df3ce;stroke:#000000;stroke-linejoin:miter;"/>
   </g>
   <g id="patch_51">
    <path clip-path="url(#pf5c5e64539)" d="M 81.810989 388.8 
L 83.037363 388.8 
L 83.037363 223.887137 
L 81.810989 223.887137 
z
" style="fill:#4df3ce;stroke:#000000;stroke-linejoin:miter;"/>
   </g>
   <g id="patch_52">
    <path clip-path="url(#pf5c5e64539)" d="M 89.169231 388.8 
L 90.395604 388.8 
L 90.395604 337.53361 
L 89.169231 337.53361 
z
" style="fill:#4df3ce;stroke:#000000;stroke-linejoin:miter;"/>
   </g>
   <g id="patch_53">
    <path clip-path="url(#pf5c5e64539)" d="M 96.527473 388.8 
L 97.753846 388.8 
L 97.753846 376.610788 
L 96.527473 376.610788 
z
" style="fill:#4df3ce;stroke:#000000;stroke-linejoin:miter;"/>
   </g>
   <g id="patch_54">
    <path clip-path="url(#pf5c5e64539)" d="M 103.885714 388.8 
L 105.112088 388.8 
L 105.112088 385.573444 
L 103.885714 385.573444 
z
" style="fill:#4df3ce;stroke:#000000;stroke-linejoin:miter;"/>
   </g>
   <g id="patch_55">
    <path clip-path="url(#pf5c5e64539)" d="M 111.243956 388.8 
L 112.47033 388.8 
L 112.47033 388.082988 
L 111.243956 388.082988 
z
" style="fill:#4df3ce;stroke:#000000;stroke-linejoin:miter;"/>
   </g>
   <g id="patch_56">
    <path clip-path="url(#pf5c5e64539)" d="M 75.679121 388.8 
L 76.905495 388.8 
L 76.905495 260.454772 
L 75.679121 260.454772 
z
" style="fill:#b2f396;stroke:#000000;stroke-linejoin:miter;"/>
   </g>
   <g id="patch_57">
    <path clip-path="url(#pf5c5e64539)" d="M 83.037363 388.8 
L 84.263736 388.8 
L 84.263736 183.375934 
L 83.037363 183.375934 
z
" style="fill:#b2f396;stroke:#000000;stroke-linejoin:miter;"/>
   </g>
   <g id="patch_58">
    <path clip-path="url(#pf5c5e64539)" d="M 90.395604 388.8 
L 91.621978 388.8 
L 91.621978 294.871369 
L 90.395604 294.871369 
z
" style="fill:#b2f396;stroke:#000000;stroke-linejoin:miter;"/>
   </g>
   <g id="patch_59">
    <path clip-path="url(#pf5c5e64539)" d="M 97.753846 388.8 
L 98.98022 388.8 
L 98.98022 359.043983 
L 97.753846 359.043983 
z
" style="fill:#b2f396;stroke:#000000;stroke-linejoin:miter;"/>
   </g>
   <g id="patch_60">
    <path clip-path="url(#pf5c5e64539)" d="M 105.112088 388.8 
L 106.338462 388.8 
L 106.338462 380.554357 
L 105.112088 380.554357 
z
" style="fill:#b2f396;stroke:#000000;stroke-linejoin:miter;"/>
   </g>
   <g id="patch_61">
    <path clip-path="url(#pf5c5e64539)" d="M 112.47033 388.8 
L 113.696703 388.8 
L 113.696703 387.365975 
L 112.47033 387.365975 
z
" style="fill:#b2f396;stroke:#000000;stroke-linejoin:miter;"/>
   </g>
   <g id="patch_62">
    <path clip-path="url(#pf5c5e64539)" d="M 119.828571 388.8 
L 121.054945 388.8 
L 121.054945 387.724481 
L 119.828571 387.724481 
z
" style="fill:#b2f396;stroke:#000000;stroke-linejoin:miter;"/>
   </g>
   <g id="patch_63">
    <path clip-path="url(#pf5c5e64539)" d="M 127.186813 388.8 
L 128.413187 388.8 
L 128.413187 388.441494 
L 127.186813 388.441494 
z
" style="fill:#b2f396;stroke:#000000;stroke-linejoin:miter;"/>
   </g>
   <g id="patch_64">
    <path clip-path="url(#pf5c5e64539)" d="M 134.545055 388.8 
L 135.771429 388.8 
L 135.771429 388.8 
L 134.545055 388.8 
z
" style="fill:#b2f396;stroke:#000000;stroke-linejoin:miter;"/>
   </g>
   <g id="patch_65">
    <path clip-path="url(#pf5c5e64539)" d="M 141.903297 388.8 
L 143.12967 388.8 
L 143.12967 388.8 
L 141.903297 388.8 
z
" style="fill:#b2f396;stroke:#000000;stroke-linejoin:miter;"/>
   </g>
   <g id="patch_66">
    <path clip-path="url(#pf5c5e64539)" d="M 149.261538 388.8 
L 150.487912 388.8 
L 150.487912 388.8 
L 149.261538 388.8 
z
" style="fill:#b2f396;stroke:#000000;stroke-linejoin:miter;"/>
   </g>
   <g id="patch_67">
    <path clip-path="url(#pf5c5e64539)" d="M 156.61978 388.8 
L 157.846154 388.8 
L 157.846154 388.8 
L 156.61978 388.8 
z
" style="fill:#b2f396;stroke:#000000;stroke-linejoin:miter;"/>
   </g>
   <g id="patch_68">
    <path clip-path="url(#pf5c5e64539)" d="M 163.978022 388.8 
L 165.204396 388.8 
L 165.204396 388.8 
L 163.978022 388.8 
z
" style="fill:#b2f396;stroke:#000000;stroke-linejoin:miter;"/>
   </g>
   <g id="patch_69">
    <path clip-path="url(#pf5c5e64539)" d="M 171.336264 388.8 
L 172.562637 388.8 
L 172.562637 388.8 
L 171.336264 388.8 
z
" style="fill:#b2f396;stroke:#000000;stroke-linejoin:miter;"/>
   </g>
   <g id="patch_70">
    <path clip-path="url(#pf5c5e64539)" d="M 178.694505 388.8 
L 179.920879 388.8 
L 179.920879 388.8 
L 178.694505 388.8 
z
" style="fill:#b2f396;stroke:#000000;stroke-linejoin:miter;"/>
   </g>
   <g id="patch_71">
    <path clip-path="url(#pf5c5e64539)" d="M 186.052747 388.8 
L 187.279121 388.8 
L 187.279121 388.8 
L 186.052747 388.8 
z
" style="fill:#b2f396;stroke:#000000;stroke-linejoin:miter;"/>
   </g>
   <g id="patch_72">
    <path clip-path="url(#pf5c5e64539)" d="M 193.410989 388.8 
L 194.637363 388.8 
L 194.637363 388.8 
L 193.410989 388.8 
z
" style="fill:#b2f396;stroke:#000000;stroke-linejoin:miter;"/>
   </g>
   <g id="patch_73">
    <path clip-path="url(#pf5c5e64539)" d="M 200.769231 388.8 
L 201.995604 388.8 
L 201.995604 388.8 
L 200.769231 388.8 
z
" style="fill:#b2f396;stroke:#000000;stroke-linejoin:miter;"/>
   </g>
   <g id="patch_74">
    <path clip-path="url(#pf5c5e64539)" d="M 208.127473 388.8 
L 209.353846 388.8 
L 209.353846 388.8 
L 208.127473 388.8 
z
" style="fill:#b2f396;stroke:#000000;stroke-linejoin:miter;"/>
   </g>
   <g id="patch_75">
    <path clip-path="url(#pf5c5e64539)" d="M 215.485714 388.8 
L 216.712088 388.8 
L 216.712088 388.8 
L 215.485714 388.8 
z
" style="fill:#b2f396;stroke:#000000;stroke-linejoin:miter;"/>
   </g>
   <g id="patch_76">
    <path clip-path="url(#pf5c5e64539)" d="M 222.843956 388.8 
L 224.07033 388.8 
L 224.07033 388.8 
L 222.843956 388.8 
z
" style="fill:#b2f396;stroke:#000000;stroke-linejoin:miter;"/>
   </g>
   <g id="patch_77">
    <path clip-path="url(#pf5c5e64539)" d="M 230.202198 388.8 
L 231.428571 388.8 
L 231.428571 388.8 
L 230.202198 388.8 
z
" style="fill:#b2f396;stroke:#000000;stroke-linejoin:miter;"/>
   </g>
   <g id="patch_78">
    <path clip-path="url(#pf5c5e64539)" d="M 237.56044 388.8 
L 238.786813 388.8 
L 238.786813 388.8 
L 237.56044 388.8 
z
" style="fill:#b2f396;stroke:#000000;stroke-linejoin:miter;"/>
   </g>
   <g id="patch_79">
    <path clip-path="url(#pf5c5e64539)" d="M 244.918681 388.8 
L 246.145055 388.8 
L 246.145055 388.8 
L 244.918681 388.8 
z
" style="fill:#b2f396;stroke:#000000;stroke-linejoin:miter;"/>
   </g>
   <g id="patch_80">
    <path clip-path="url(#pf5c5e64539)" d="M 252.276923 388.8 
L 253.503297 388.8 
L 253.503297 388.8 
L 252.276923 388.8 
z
" style="fill:#b2f396;stroke:#000000;stroke-linejoin:miter;"/>
   </g>
   <g id="patch_81">
    <path clip-path="url(#pf5c5e64539)" d="M 259.635165 388.8 
L 260.861538 388.8 
L 260.861538 388.8 
L 259.635165 388.8 
z
" style="fill:#b2f396;stroke:#000000;stroke-linejoin:miter;"/>
   </g>
   <g id="patch_82">
    <path clip-path="url(#pf5c5e64539)" d="M 266.993407 388.8 
L 268.21978 388.8 
L 268.21978 388.8 
L 266.993407 388.8 
z
" style="fill:#b2f396;stroke:#000000;stroke-linejoin:miter;"/>
   </g>
   <g id="patch_83">
    <path clip-path="url(#pf5c5e64539)" d="M 274.351648 388.8 
L 275.578022 388.8 
L 275.578022 388.8 
L 274.351648 388.8 
z
" style="fill:#b2f396;stroke:#000000;stroke-linejoin:miter;"/>
   </g>
   <g id="patch_84">
    <path clip-path="url(#pf5c5e64539)" d="M 281.70989 388.8 
L 282.936264 388.8 
L 282.936264 388.8 
L 281.70989 388.8 
z
" style="fill:#b2f396;stroke:#000000;stroke-linejoin:miter;"/>
   </g>
   <g id="patch_85">
    <path clip-path="url(#pf5c5e64539)" d="M 289.068132 388.8 
L 290.294505 388.8 
L 290.294505 388.8 
L 289.068132 388.8 
z
" style="fill:#b2f396;stroke:#000000;stroke-linejoin:miter;"/>
   </g>
   <g id="patch_86">
    <path clip-path="url(#pf5c5e64539)" d="M 296.426374 388.8 
L 297.652747 388.8 
L 297.652747 388.8 
L 296.426374 388.8 
z
" style="fill:#b2f396;stroke:#000000;stroke-linejoin:miter;"/>
   </g>
   <g id="patch_87">
    <path clip-path="url(#pf5c5e64539)" d="M 303.784615 388.8 
L 305.010989 388.8 
L 305.010989 388.8 
L 303.784615 388.8 
z
" style="fill:#b2f396;stroke:#000000;stroke-linejoin:miter;"/>
   </g>
   <g id="patch_88">
    <path clip-path="url(#pf5c5e64539)" d="M 311.142857 388.8 
L 312.369231 388.8 
L 312.369231 388.8 
L 311.142857 388.8 
z
" style="fill:#b2f396;stroke:#000000;stroke-linejoin:miter;"/>
   </g>
   <g id="patch_89">
    <path clip-path="url(#pf5c5e64539)" d="M 318.501099 388.8 
L 319.727473 388.8 
L 319.727473 388.8 
L 318.501099 388.8 
z
" style="fill:#b2f396;stroke:#000000;stroke-linejoin:miter;"/>
   </g>
   <g id="patch_90">
    <path clip-path="url(#pf5c5e64539)" d="M 325.859341 388.8 
L 327.085714 388.8 
L 327.085714 388.8 
L 325.859341 388.8 
z
" style="fill:#b2f396;stroke:#000000;stroke-linejoin:miter;"/>
   </g>
   <g id="patch_91">
    <path clip-path="url(#pf5c5e64539)" d="M 333.217582 388.8 
L 334.443956 388.8 
L 334.443956 388.8 
L 333.217582 388.8 
z
" style="fill:#b2f396;stroke:#000000;stroke-linejoin:miter;"/>
   </g>
   <g id="patch_92">
    <path clip-path="url(#pf5c5e64539)" d="M 340.575824 388.8 
L 341.802198 388.8 
L 341.802198 388.8 
L 340.575824 388.8 
z
" style="fill:#b2f396;stroke:#000000;stroke-linejoin:miter;"/>
   </g>
   <g id="patch_93">
    <path clip-path="url(#pf5c5e64539)" d="M 347.934066 388.8 
L 349.16044 388.8 
L 349.16044 388.8 
L 347.934066 388.8 
z
" style="fill:#b2f396;stroke:#000000;stroke-linejoin:miter;"/>
   </g>
   <g id="patch_94">
    <path clip-path="url(#pf5c5e64539)" d="M 355.292308 388.8 
L 356.518681 388.8 
L 356.518681 388.8 
L 355.292308 388.8 
z
" style="fill:#b2f396;stroke:#000000;stroke-linejoin:miter;"/>
   </g>
   <g id="patch_95">
    <path clip-path="url(#pf5c5e64539)" d="M 362.650549 388.8 
L 363.876923 388.8 
L 363.876923 388.8 
L 362.650549 388.8 
z
" style="fill:#b2f396;stroke:#000000;stroke-linejoin:miter;"/>
   </g>
   <g id="patch_96">
    <path clip-path="url(#pf5c5e64539)" d="M 370.008791 388.8 
L 371.235165 388.8 
L 371.235165 388.8 
L 370.008791 388.8 
z
" style="fill:#b2f396;stroke:#000000;stroke-linejoin:miter;"/>
   </g>
   <g id="patch_97">
    <path clip-path="url(#pf5c5e64539)" d="M 377.367033 388.8 
L 378.593407 388.8 
L 378.593407 388.8 
L 377.367033 388.8 
z
" style="fill:#b2f396;stroke:#000000;stroke-linejoin:miter;"/>
   </g>
   <g id="patch_98">
    <path clip-path="url(#pf5c5e64539)" d="M 384.725275 388.8 
L 385.951648 388.8 
L 385.951648 388.8 
L 384.725275 388.8 
z
" style="fill:#b2f396;stroke:#000000;stroke-linejoin:miter;"/>
   </g>
   <g id="patch_99">
    <path clip-path="url(#pf5c5e64539)" d="M 392.083516 388.8 
L 393.30989 388.8 
L 393.30989 388.8 
L 392.083516 388.8 
z
" style="fill:#b2f396;stroke:#000000;stroke-linejoin:miter;"/>
   </g>
   <g id="patch_100">
    <path clip-path="url(#pf5c5e64539)" d="M 399.441758 388.8 
L 400.668132 388.8 
L 400.668132 388.8 
L 399.441758 388.8 
z
" style="fill:#b2f396;stroke:#000000;stroke-linejoin:miter;"/>
   </g>
   <g id="patch_101">
    <path clip-path="url(#pf5c5e64539)" d="M 406.8 388.8 
L 408.026374 388.8 
L 408.026374 388.8 
L 406.8 388.8 
z
" style="fill:#b2f396;stroke:#000000;stroke-linejoin:miter;"/>
   </g>
   <g id="patch_102">
    <path clip-path="url(#pf5c5e64539)" d="M 414.158242 388.8 
L 415.384615 388.8 
L 415.384615 388.8 
L 414.158242 388.8 
z
" style="fill:#b2f396;stroke:#000000;stroke-linejoin:miter;"/>
   </g>
   <g id="patch_103">
    <path clip-path="url(#pf5c5e64539)" d="M 421.516484 388.8 
L 422.742857 388.8 
L 422.742857 388.8 
L 421.516484 388.8 
z
" style="fill:#b2f396;stroke:#000000;stroke-linejoin:miter;"/>
   </g>
   <g id="patch_104">
    <path clip-path="url(#pf5c5e64539)" d="M 428.874725 388.8 
L 430.101099 388.8 
L 430.101099 388.8 
L 428.874725 388.8 
z
" style="fill:#b2f396;stroke:#000000;stroke-linejoin:miter;"/>
   </g>
   <g id="patch_105">
    <path clip-path="url(#pf5c5e64539)" d="M 436.232967 388.8 
L 437.459341 388.8 
L 437.459341 388.8 
L 436.232967 388.8 
z
" style="fill:#b2f396;stroke:#000000;stroke-linejoin:miter;"/>
   </g>
   <g id="patch_106">
    <path clip-path="url(#pf5c5e64539)" d="M 443.591209 388.8 
L 444.817582 388.8 
L 444.817582 388.8 
L 443.591209 388.8 
z
" style="fill:#b2f396;stroke:#000000;stroke-linejoin:miter;"/>
   </g>
   <g id="patch_107">
    <path clip-path="url(#pf5c5e64539)" d="M 450.949451 388.8 
L 452.175824 388.8 
L 452.175824 388.8 
L 450.949451 388.8 
z
" style="fill:#b2f396;stroke:#000000;stroke-linejoin:miter;"/>
   </g>
   <g id="patch_108">
    <path clip-path="url(#pf5c5e64539)" d="M 458.307692 388.8 
L 459.534066 388.8 
L 459.534066 388.8 
L 458.307692 388.8 
z
" style="fill:#b2f396;stroke:#000000;stroke-linejoin:miter;"/>
   </g>
   <g id="patch_109">
    <path clip-path="url(#pf5c5e64539)" d="M 465.665934 388.8 
L 466.892308 388.8 
L 466.892308 388.8 
L 465.665934 388.8 
z
" style="fill:#b2f396;stroke:#000000;stroke-linejoin:miter;"/>
   </g>
   <g id="patch_110">
    <path clip-path="url(#pf5c5e64539)" d="M 473.024176 388.8 
L 474.250549 388.8 
L 474.250549 388.8 
L 473.024176 388.8 
z
" style="fill:#b2f396;stroke:#000000;stroke-linejoin:miter;"/>
   </g>
   <g id="patch_111">
    <path clip-path="url(#pf5c5e64539)" d="M 480.382418 388.8 
L 481.608791 388.8 
L 481.608791 388.8 
L 480.382418 388.8 
z
" style="fill:#b2f396;stroke:#000000;stroke-linejoin:miter;"/>
   </g>
   <g id="patch_112">
    <path clip-path="url(#pf5c5e64539)" d="M 487.740659 388.8 
L 488.967033 388.8 
L 488.967033 388.8 
L 487.740659 388.8 
z
" style="fill:#b2f396;stroke:#000000;stroke-linejoin:miter;"/>
   </g>
   <g id="patch_113">
    <path clip-path="url(#pf5c5e64539)" d="M 495.098901 388.8 
L 496.325275 388.8 
L 496.325275 388.8 
L 495.098901 388.8 
z
" style="fill:#b2f396;stroke:#000000;stroke-linejoin:miter;"/>
   </g>
   <g id="patch_114">
    <path clip-path="url(#pf5c5e64539)" d="M 502.457143 388.8 
L 503.683516 388.8 
L 503.683516 388.8 
L 502.457143 388.8 
z
" style="fill:#b2f396;stroke:#000000;stroke-linejoin:miter;"/>
   </g>
   <g id="patch_115">
    <path clip-path="url(#pf5c5e64539)" d="M 509.815385 388.8 
L 511.041758 388.8 
L 511.041758 388.8 
L 509.815385 388.8 
z
" style="fill:#b2f396;stroke:#000000;stroke-linejoin:miter;"/>
   </g>
   <g id="patch_116">
    <path clip-path="url(#pf5c5e64539)" d="M 517.173626 388.8 
L 518.4 388.8 
L 518.4 388.8 
L 517.173626 388.8 
z
" style="fill:#b2f396;stroke:#000000;stroke-linejoin:miter;"/>
   </g>
   <g id="patch_117">
    <path clip-path="url(#pf5c5e64539)" d="M 76.905495 388.8 
L 78.131868 388.8 
L 78.131868 96.975934 
L 76.905495 96.975934 
z
" style="fill:#ff964f;stroke:#000000;stroke-linejoin:miter;"/>
   </g>
   <g id="patch_118">
    <path clip-path="url(#pf5c5e64539)" d="M 84.263736 388.8 
L 85.49011 388.8 
L 85.49011 276.587552 
L 84.263736 276.587552 
z
" style="fill:#ff964f;stroke:#000000;stroke-linejoin:miter;"/>
   </g>
   <g id="patch_119">
    <path clip-path="url(#pf5c5e64539)" d="M 91.621978 388.8 
L 92.848352 388.8 
L 92.848352 348.647303 
L 91.621978 348.647303 
z
" style="fill:#ff964f;stroke:#000000;stroke-linejoin:miter;"/>
   </g>
   <g id="patch_120">
    <path clip-path="url(#pf5c5e64539)" d="M 98.98022 388.8 
L 100.206593 388.8 
L 100.206593 371.233195 
L 98.98022 371.233195 
z
" style="fill:#ff964f;stroke:#000000;stroke-linejoin:miter;"/>
   </g>
   <g id="patch_121">
    <path clip-path="url(#pf5c5e64539)" d="M 106.338462 388.8 
L 107.564835 388.8 
L 107.564835 382.705394 
L 106.338462 382.705394 
z
" style="fill:#ff964f;stroke:#000000;stroke-linejoin:miter;"/>
   </g>
   <g id="patch_122">
    <path clip-path="url(#pf5c5e64539)" d="M 113.696703 388.8 
L 114.923077 388.8 
L 114.923077 384.856432 
L 113.696703 384.856432 
z
" style="fill:#ff964f;stroke:#000000;stroke-linejoin:miter;"/>
   </g>
   <g id="patch_123">
    <path clip-path="url(#pf5c5e64539)" d="M 121.054945 388.8 
L 122.281319 388.8 
L 122.281319 388.082988 
L 121.054945 388.082988 
z
" style="fill:#ff964f;stroke:#000000;stroke-linejoin:miter;"/>
   </g>
   <g id="patch_124">
    <path clip-path="url(#pf5c5e64539)" d="M 128.413187 388.8 
L 129.63956 388.8 
L 129.63956 388.441494 
L 128.413187 388.441494 
z
" style="fill:#ff964f;stroke:#000000;stroke-linejoin:miter;"/>
   </g>
   <g id="patch_125">
    <path clip-path="url(#pf5c5e64539)" d="M 78.131868 388.8 
L 79.358242 388.8 
L 79.358242 43.2 
L 78.131868 43.2 
z
" style="fill:#ff0000;stroke:#000000;stroke-linejoin:miter;"/>
   </g>
   <g id="patch_126">
    <path clip-path="url(#pf5c5e64539)" d="M 85.49011 388.8 
L 86.716484 388.8 
L 86.716484 290.210788 
L 85.49011 290.210788 
z
" style="fill:#ff0000;stroke:#000000;stroke-linejoin:miter;"/>
   </g>
   <g id="patch_127">
    <path clip-path="url(#pf5c5e64539)" d="M 92.848352 388.8 
L 94.074725 388.8 
L 94.074725 363.704564 
L 92.848352 363.704564 
z
" style="fill:#ff0000;stroke:#000000;stroke-linejoin:miter;"/>
   </g>
   <g id="patch_128">
    <path clip-path="url(#pf5c5e64539)" d="M 100.206593 388.8 
L 101.432967 388.8 
L 101.432967 385.214938 
L 100.206593 385.214938 
z
" style="fill:#ff0000;stroke:#000000;stroke-linejoin:miter;"/>
   </g>
   <g id="patch_129">
    <path clip-path="url(#pf5c5e64539)" d="M 107.564835 388.8 
L 108.791209 388.8 
L 108.791209 385.93195 
L 107.564835 385.93195 
z
" style="fill:#ff0000;stroke:#000000;stroke-linejoin:miter;"/>
   </g>
   <g id="patch_130">
    <path clip-path="url(#pf5c5e64539)" d="M 114.923077 388.8 
L 116.149451 388.8 
L 116.149451 388.441494 
L 114.923077 388.441494 
z
" style="fill:#ff0000;stroke:#000000;stroke-linejoin:miter;"/>
   </g>
   <g id="patch_131">
    <path d="M 72 388.8 
L 72 43.2 
" style="fill:none;stroke:#000000;stroke-linecap:square;stroke-linejoin:miter;"/>
   </g>
   <g id="patch_132">
    <path d="M 72 388.8 
L 518.4 388.8 
" style="fill:none;stroke:#000000;stroke-linecap:square;stroke-linejoin:miter;"/>
   </g>
   <g id="patch_133">
    <path d="M 72 43.2 
L 518.4 43.2 
" style="fill:none;stroke:#000000;stroke-linecap:square;stroke-linejoin:miter;"/>
   </g>
   <g id="patch_134">
    <path d="M 518.4 388.8 
L 518.4 43.2 
" style="fill:none;stroke:#000000;stroke-linecap:square;stroke-linejoin:miter;"/>
   </g>
   <g id="matplotlib.axis_1">
    <g id="xtick_1">
     <g id="line2d_1">
      <defs>
       <path d="M 0 0 
L 0 -4 
" id="m8cfbb555c4" style="stroke:#000000;stroke-width:0.5;"/>
      </defs>
      <g>
       <use style="stroke:#000000;stroke-width:0.5;" x="72.6131868132" xlink:href="#m8cfbb555c4" y="388.8"/>
      </g>
     </g>
     <g id="line2d_2">
      <defs>
       <path d="M 0 0 
L 0 4 
" id="ma3d3d9c9ab" style="stroke:#000000;stroke-width:0.5;"/>
      </defs>
      <g>
       <use style="stroke:#000000;stroke-width:0.5;" x="72.6131868132" xlink:href="#ma3d3d9c9ab" y="43.2"/>
      </g>
     </g>
     <g id="text_1">
      <!-- 0 -->
      <defs>
       <path d="M 31.78125 66.40625 
Q 24.171875 66.40625 20.328125 58.90625 
Q 16.5 51.421875 16.5 36.375 
Q 16.5 21.390625 20.328125 13.890625 
Q 24.171875 6.390625 31.78125 6.390625 
Q 39.453125 6.390625 43.28125 13.890625 
Q 47.125 21.390625 47.125 36.375 
Q 47.125 51.421875 43.28125 58.90625 
Q 39.453125 66.40625 31.78125 66.40625 
M 31.78125 74.21875 
Q 44.046875 74.21875 50.515625 64.515625 
Q 56.984375 54.828125 56.984375 36.375 
Q 56.984375 17.96875 50.515625 8.265625 
Q 44.046875 -1.421875 31.78125 -1.421875 
Q 19.53125 -1.421875 13.0625 8.265625 
Q 6.59375 17.96875 6.59375 36.375 
Q 6.59375 54.828125 13.0625 64.515625 
Q 19.53125 74.21875 31.78125 74.21875 
" id="BitstreamVeraSans-Roman-30"/>
      </defs>
      <g transform="translate(68.7956868132 401.918125)scale(0.12 -0.12)">
       <use xlink:href="#BitstreamVeraSans-Roman-30"/>
      </g>
     </g>
    </g>
    <g id="xtick_2">
     <g id="line2d_3">
      <g>
       <use style="stroke:#000000;stroke-width:0.5;" x="146.195604396" xlink:href="#m8cfbb555c4" y="388.8"/>
      </g>
     </g>
     <g id="line2d_4">
      <g>
       <use style="stroke:#000000;stroke-width:0.5;" x="146.195604396" xlink:href="#ma3d3d9c9ab" y="43.2"/>
      </g>
     </g>
     <g id="text_2">
      <!-- 10 -->
      <defs>
       <path d="M 12.40625 8.296875 
L 28.515625 8.296875 
L 28.515625 63.921875 
L 10.984375 60.40625 
L 10.984375 69.390625 
L 28.421875 72.90625 
L 38.28125 72.90625 
L 38.28125 8.296875 
L 54.390625 8.296875 
L 54.390625 0 
L 12.40625 0 
z
" id="BitstreamVeraSans-Roman-31"/>
      </defs>
      <g transform="translate(138.560604396 401.918125)scale(0.12 -0.12)">
       <use xlink:href="#BitstreamVeraSans-Roman-31"/>
       <use x="63.623046875" xlink:href="#BitstreamVeraSans-Roman-30"/>
      </g>
     </g>
    </g>
    <g id="xtick_3">
     <g id="line2d_5">
      <g>
       <use style="stroke:#000000;stroke-width:0.5;" x="219.778021978" xlink:href="#m8cfbb555c4" y="388.8"/>
      </g>
     </g>
     <g id="line2d_6">
      <g>
       <use style="stroke:#000000;stroke-width:0.5;" x="219.778021978" xlink:href="#ma3d3d9c9ab" y="43.2"/>
      </g>
     </g>
     <g id="text_3">
      <!-- 20 -->
      <defs>
       <path d="M 19.1875 8.296875 
L 53.609375 8.296875 
L 53.609375 0 
L 7.328125 0 
L 7.328125 8.296875 
Q 12.9375 14.109375 22.625 23.890625 
Q 32.328125 33.6875 34.8125 36.53125 
Q 39.546875 41.84375 41.421875 45.53125 
Q 43.3125 49.21875 43.3125 52.78125 
Q 43.3125 58.59375 39.234375 62.25 
Q 35.15625 65.921875 28.609375 65.921875 
Q 23.96875 65.921875 18.8125 64.3125 
Q 13.671875 62.703125 7.8125 59.421875 
L 7.8125 69.390625 
Q 13.765625 71.78125 18.9375 73 
Q 24.125 74.21875 28.421875 74.21875 
Q 39.75 74.21875 46.484375 68.546875 
Q 53.21875 62.890625 53.21875 53.421875 
Q 53.21875 48.921875 51.53125 44.890625 
Q 49.859375 40.875 45.40625 35.40625 
Q 44.1875 33.984375 37.640625 27.21875 
Q 31.109375 20.453125 19.1875 8.296875 
" id="BitstreamVeraSans-Roman-32"/>
      </defs>
      <g transform="translate(212.143021978 401.918125)scale(0.12 -0.12)">
       <use xlink:href="#BitstreamVeraSans-Roman-32"/>
       <use x="63.623046875" xlink:href="#BitstreamVeraSans-Roman-30"/>
      </g>
     </g>
    </g>
    <g id="xtick_4">
     <g id="line2d_7">
      <g>
       <use style="stroke:#000000;stroke-width:0.5;" x="293.36043956" xlink:href="#m8cfbb555c4" y="388.8"/>
      </g>
     </g>
     <g id="line2d_8">
      <g>
       <use style="stroke:#000000;stroke-width:0.5;" x="293.36043956" xlink:href="#ma3d3d9c9ab" y="43.2"/>
      </g>
     </g>
     <g id="text_4">
      <!-- 30 -->
      <defs>
       <path d="M 40.578125 39.3125 
Q 47.65625 37.796875 51.625 33 
Q 55.609375 28.21875 55.609375 21.1875 
Q 55.609375 10.40625 48.1875 4.484375 
Q 40.765625 -1.421875 27.09375 -1.421875 
Q 22.515625 -1.421875 17.65625 -0.515625 
Q 12.796875 0.390625 7.625 2.203125 
L 7.625 11.71875 
Q 11.71875 9.328125 16.59375 8.109375 
Q 21.484375 6.890625 26.8125 6.890625 
Q 36.078125 6.890625 40.9375 10.546875 
Q 45.796875 14.203125 45.796875 21.1875 
Q 45.796875 27.640625 41.28125 31.265625 
Q 36.765625 34.90625 28.71875 34.90625 
L 20.21875 34.90625 
L 20.21875 43.015625 
L 29.109375 43.015625 
Q 36.375 43.015625 40.234375 45.921875 
Q 44.09375 48.828125 44.09375 54.296875 
Q 44.09375 59.90625 40.109375 62.90625 
Q 36.140625 65.921875 28.71875 65.921875 
Q 24.65625 65.921875 20.015625 65.03125 
Q 15.375 64.15625 9.8125 62.3125 
L 9.8125 71.09375 
Q 15.4375 72.65625 20.34375 73.4375 
Q 25.25 74.21875 29.59375 74.21875 
Q 40.828125 74.21875 47.359375 69.109375 
Q 53.90625 64.015625 53.90625 55.328125 
Q 53.90625 49.265625 50.4375 45.09375 
Q 46.96875 40.921875 40.578125 39.3125 
" id="BitstreamVeraSans-Roman-33"/>
      </defs>
      <g transform="translate(285.72543956 401.918125)scale(0.12 -0.12)">
       <use xlink:href="#BitstreamVeraSans-Roman-33"/>
       <use x="63.623046875" xlink:href="#BitstreamVeraSans-Roman-30"/>
      </g>
     </g>
    </g>
    <g id="xtick_5">
     <g id="line2d_9">
      <g>
       <use style="stroke:#000000;stroke-width:0.5;" x="366.942857143" xlink:href="#m8cfbb555c4" y="388.8"/>
      </g>
     </g>
     <g id="line2d_10">
      <g>
       <use style="stroke:#000000;stroke-width:0.5;" x="366.942857143" xlink:href="#ma3d3d9c9ab" y="43.2"/>
      </g>
     </g>
     <g id="text_5">
      <!-- 40 -->
      <defs>
       <path d="M 37.796875 64.3125 
L 12.890625 25.390625 
L 37.796875 25.390625 
z
M 35.203125 72.90625 
L 47.609375 72.90625 
L 47.609375 25.390625 
L 58.015625 25.390625 
L 58.015625 17.1875 
L 47.609375 17.1875 
L 47.609375 0 
L 37.796875 0 
L 37.796875 17.1875 
L 4.890625 17.1875 
L 4.890625 26.703125 
z
" id="BitstreamVeraSans-Roman-34"/>
      </defs>
      <g transform="translate(359.307857143 401.918125)scale(0.12 -0.12)">
       <use xlink:href="#BitstreamVeraSans-Roman-34"/>
       <use x="63.623046875" xlink:href="#BitstreamVeraSans-Roman-30"/>
      </g>
     </g>
    </g>
    <g id="xtick_6">
     <g id="line2d_11">
      <g>
       <use style="stroke:#000000;stroke-width:0.5;" x="440.525274725" xlink:href="#m8cfbb555c4" y="388.8"/>
      </g>
     </g>
     <g id="line2d_12">
      <g>
       <use style="stroke:#000000;stroke-width:0.5;" x="440.525274725" xlink:href="#ma3d3d9c9ab" y="43.2"/>
      </g>
     </g>
     <g id="text_6">
      <!-- 50 -->
      <defs>
       <path d="M 10.796875 72.90625 
L 49.515625 72.90625 
L 49.515625 64.59375 
L 19.828125 64.59375 
L 19.828125 46.734375 
Q 21.96875 47.46875 24.109375 47.828125 
Q 26.265625 48.1875 28.421875 48.1875 
Q 40.625 48.1875 47.75 41.5 
Q 54.890625 34.8125 54.890625 23.390625 
Q 54.890625 11.625 47.5625 5.09375 
Q 40.234375 -1.421875 26.90625 -1.421875 
Q 22.3125 -1.421875 17.546875 -0.640625 
Q 12.796875 0.140625 7.71875 1.703125 
L 7.71875 11.625 
Q 12.109375 9.234375 16.796875 8.0625 
Q 21.484375 6.890625 26.703125 6.890625 
Q 35.15625 6.890625 40.078125 11.328125 
Q 45.015625 15.765625 45.015625 23.390625 
Q 45.015625 31 40.078125 35.4375 
Q 35.15625 39.890625 26.703125 39.890625 
Q 22.75 39.890625 18.8125 39.015625 
Q 14.890625 38.140625 10.796875 36.28125 
z
" id="BitstreamVeraSans-Roman-35"/>
      </defs>
      <g transform="translate(432.890274725 401.918125)scale(0.12 -0.12)">
       <use xlink:href="#BitstreamVeraSans-Roman-35"/>
       <use x="63.623046875" xlink:href="#BitstreamVeraSans-Roman-30"/>
      </g>
     </g>
    </g>
    <g id="xtick_7">
     <g id="line2d_13">
      <g>
       <use style="stroke:#000000;stroke-width:0.5;" x="514.107692308" xlink:href="#m8cfbb555c4" y="388.8"/>
      </g>
     </g>
     <g id="line2d_14">
      <g>
       <use style="stroke:#000000;stroke-width:0.5;" x="514.107692308" xlink:href="#ma3d3d9c9ab" y="43.2"/>
      </g>
     </g>
     <g id="text_7">
      <!-- 60 -->
      <defs>
       <path d="M 33.015625 40.375 
Q 26.375 40.375 22.484375 35.828125 
Q 18.609375 31.296875 18.609375 23.390625 
Q 18.609375 15.53125 22.484375 10.953125 
Q 26.375 6.390625 33.015625 6.390625 
Q 39.65625 6.390625 43.53125 10.953125 
Q 47.40625 15.53125 47.40625 23.390625 
Q 47.40625 31.296875 43.53125 35.828125 
Q 39.65625 40.375 33.015625 40.375 
M 52.59375 71.296875 
L 52.59375 62.3125 
Q 48.875 64.0625 45.09375 64.984375 
Q 41.3125 65.921875 37.59375 65.921875 
Q 27.828125 65.921875 22.671875 59.328125 
Q 17.53125 52.734375 16.796875 39.40625 
Q 19.671875 43.65625 24.015625 45.921875 
Q 28.375 48.1875 33.59375 48.1875 
Q 44.578125 48.1875 50.953125 41.515625 
Q 57.328125 34.859375 57.328125 23.390625 
Q 57.328125 12.15625 50.6875 5.359375 
Q 44.046875 -1.421875 33.015625 -1.421875 
Q 20.359375 -1.421875 13.671875 8.265625 
Q 6.984375 17.96875 6.984375 36.375 
Q 6.984375 53.65625 15.1875 63.9375 
Q 23.390625 74.21875 37.203125 74.21875 
Q 40.921875 74.21875 44.703125 73.484375 
Q 48.484375 72.75 52.59375 71.296875 
" id="BitstreamVeraSans-Roman-36"/>
      </defs>
      <g transform="translate(506.472692308 401.918125)scale(0.12 -0.12)">
       <use xlink:href="#BitstreamVeraSans-Roman-36"/>
       <use x="63.623046875" xlink:href="#BitstreamVeraSans-Roman-30"/>
      </g>
     </g>
    </g>
    <g id="text_8">
     <!-- number of words changed -->
     <defs>
      <path d="M 8.5 21.578125 
L 8.5 54.6875 
L 17.484375 54.6875 
L 17.484375 21.921875 
Q 17.484375 14.15625 20.5 10.265625 
Q 23.53125 6.390625 29.59375 6.390625 
Q 36.859375 6.390625 41.078125 11.03125 
Q 45.3125 15.671875 45.3125 23.6875 
L 45.3125 54.6875 
L 54.296875 54.6875 
L 54.296875 0 
L 45.3125 0 
L 45.3125 8.40625 
Q 42.046875 3.421875 37.71875 1 
Q 33.40625 -1.421875 27.6875 -1.421875 
Q 18.265625 -1.421875 13.375 4.4375 
Q 8.5 10.296875 8.5 21.578125 
" id="BitstreamVeraSans-Roman-75"/>
      <path id="BitstreamVeraSans-Roman-20"/>
      <path d="M 54.890625 33.015625 
L 54.890625 0 
L 45.90625 0 
L 45.90625 32.71875 
Q 45.90625 40.484375 42.875 44.328125 
Q 39.84375 48.1875 33.796875 48.1875 
Q 26.515625 48.1875 22.3125 43.546875 
Q 18.109375 38.921875 18.109375 30.90625 
L 18.109375 0 
L 9.078125 0 
L 9.078125 54.6875 
L 18.109375 54.6875 
L 18.109375 46.1875 
Q 21.34375 51.125 25.703125 53.5625 
Q 30.078125 56 35.796875 56 
Q 45.21875 56 50.046875 50.171875 
Q 54.890625 44.34375 54.890625 33.015625 
" id="BitstreamVeraSans-Roman-6e"/>
      <path d="M 48.78125 52.59375 
L 48.78125 44.1875 
Q 44.96875 46.296875 41.140625 47.34375 
Q 37.3125 48.390625 33.40625 48.390625 
Q 24.65625 48.390625 19.8125 42.84375 
Q 14.984375 37.3125 14.984375 27.296875 
Q 14.984375 17.28125 19.8125 11.734375 
Q 24.65625 6.203125 33.40625 6.203125 
Q 37.3125 6.203125 41.140625 7.25 
Q 44.96875 8.296875 48.78125 10.40625 
L 48.78125 2.09375 
Q 45.015625 0.34375 40.984375 -0.53125 
Q 36.96875 -1.421875 32.421875 -1.421875 
Q 20.0625 -1.421875 12.78125 6.34375 
Q 5.515625 14.109375 5.515625 27.296875 
Q 5.515625 40.671875 12.859375 48.328125 
Q 20.21875 56 33.015625 56 
Q 37.15625 56 41.109375 55.140625 
Q 45.0625 54.296875 48.78125 52.59375 
" id="BitstreamVeraSans-Roman-63"/>
      <path d="M 44.28125 53.078125 
L 44.28125 44.578125 
Q 40.484375 46.53125 36.375 47.5 
Q 32.28125 48.484375 27.875 48.484375 
Q 21.1875 48.484375 17.84375 46.4375 
Q 14.5 44.390625 14.5 40.28125 
Q 14.5 37.15625 16.890625 35.375 
Q 19.28125 33.59375 26.515625 31.984375 
L 29.59375 31.296875 
Q 39.15625 29.25 43.1875 25.515625 
Q 47.21875 21.78125 47.21875 15.09375 
Q 47.21875 7.46875 41.1875 3.015625 
Q 35.15625 -1.421875 24.609375 -1.421875 
Q 20.21875 -1.421875 15.453125 -0.5625 
Q 10.6875 0.296875 5.421875 2 
L 5.421875 11.28125 
Q 10.40625 8.6875 15.234375 7.390625 
Q 20.0625 6.109375 24.8125 6.109375 
Q 31.15625 6.109375 34.5625 8.28125 
Q 37.984375 10.453125 37.984375 14.40625 
Q 37.984375 18.0625 35.515625 20.015625 
Q 33.0625 21.96875 24.703125 23.78125 
L 21.578125 24.515625 
Q 13.234375 26.265625 9.515625 29.90625 
Q 5.8125 33.546875 5.8125 39.890625 
Q 5.8125 47.609375 11.28125 51.796875 
Q 16.75 56 26.8125 56 
Q 31.78125 56 36.171875 55.265625 
Q 40.578125 54.546875 44.28125 53.078125 
" id="BitstreamVeraSans-Roman-73"/>
      <path d="M 30.609375 48.390625 
Q 23.390625 48.390625 19.1875 42.75 
Q 14.984375 37.109375 14.984375 27.296875 
Q 14.984375 17.484375 19.15625 11.84375 
Q 23.34375 6.203125 30.609375 6.203125 
Q 37.796875 6.203125 41.984375 11.859375 
Q 46.1875 17.53125 46.1875 27.296875 
Q 46.1875 37.015625 41.984375 42.703125 
Q 37.796875 48.390625 30.609375 48.390625 
M 30.609375 56 
Q 42.328125 56 49.015625 48.375 
Q 55.71875 40.765625 55.71875 27.296875 
Q 55.71875 13.875 49.015625 6.21875 
Q 42.328125 -1.421875 30.609375 -1.421875 
Q 18.84375 -1.421875 12.171875 6.21875 
Q 5.515625 13.875 5.515625 27.296875 
Q 5.515625 40.765625 12.171875 48.375 
Q 18.84375 56 30.609375 56 
" id="BitstreamVeraSans-Roman-6f"/>
      <path d="M 54.890625 33.015625 
L 54.890625 0 
L 45.90625 0 
L 45.90625 32.71875 
Q 45.90625 40.484375 42.875 44.328125 
Q 39.84375 48.1875 33.796875 48.1875 
Q 26.515625 48.1875 22.3125 43.546875 
Q 18.109375 38.921875 18.109375 30.90625 
L 18.109375 0 
L 9.078125 0 
L 9.078125 75.984375 
L 18.109375 75.984375 
L 18.109375 46.1875 
Q 21.34375 51.125 25.703125 53.5625 
Q 30.078125 56 35.796875 56 
Q 45.21875 56 50.046875 50.171875 
Q 54.890625 44.34375 54.890625 33.015625 
" id="BitstreamVeraSans-Roman-68"/>
      <path d="M 37.109375 75.984375 
L 37.109375 68.5 
L 28.515625 68.5 
Q 23.6875 68.5 21.796875 66.546875 
Q 19.921875 64.59375 19.921875 59.515625 
L 19.921875 54.6875 
L 34.71875 54.6875 
L 34.71875 47.703125 
L 19.921875 47.703125 
L 19.921875 0 
L 10.890625 0 
L 10.890625 47.703125 
L 2.296875 47.703125 
L 2.296875 54.6875 
L 10.890625 54.6875 
L 10.890625 58.5 
Q 10.890625 67.625 15.140625 71.796875 
Q 19.390625 75.984375 28.609375 75.984375 
z
" id="BitstreamVeraSans-Roman-66"/>
      <path d="M 41.109375 46.296875 
Q 39.59375 47.171875 37.8125 47.578125 
Q 36.03125 48 33.890625 48 
Q 26.265625 48 22.1875 43.046875 
Q 18.109375 38.09375 18.109375 28.8125 
L 18.109375 0 
L 9.078125 0 
L 9.078125 54.6875 
L 18.109375 54.6875 
L 18.109375 46.1875 
Q 20.953125 51.171875 25.484375 53.578125 
Q 30.03125 56 36.53125 56 
Q 37.453125 56 38.578125 55.875 
Q 39.703125 55.765625 41.0625 55.515625 
z
" id="BitstreamVeraSans-Roman-72"/>
      <path d="M 52 44.1875 
Q 55.375 50.25 60.0625 53.125 
Q 64.75 56 71.09375 56 
Q 79.640625 56 84.28125 50.015625 
Q 88.921875 44.046875 88.921875 33.015625 
L 88.921875 0 
L 79.890625 0 
L 79.890625 32.71875 
Q 79.890625 40.578125 77.09375 44.375 
Q 74.3125 48.1875 68.609375 48.1875 
Q 61.625 48.1875 57.5625 43.546875 
Q 53.515625 38.921875 53.515625 30.90625 
L 53.515625 0 
L 44.484375 0 
L 44.484375 32.71875 
Q 44.484375 40.625 41.703125 44.40625 
Q 38.921875 48.1875 33.109375 48.1875 
Q 26.21875 48.1875 22.15625 43.53125 
Q 18.109375 38.875 18.109375 30.90625 
L 18.109375 0 
L 9.078125 0 
L 9.078125 54.6875 
L 18.109375 54.6875 
L 18.109375 46.1875 
Q 21.1875 51.21875 25.484375 53.609375 
Q 29.78125 56 35.6875 56 
Q 41.65625 56 45.828125 52.96875 
Q 50 49.953125 52 44.1875 
" id="BitstreamVeraSans-Roman-6d"/>
      <path d="M 56.203125 29.59375 
L 56.203125 25.203125 
L 14.890625 25.203125 
Q 15.484375 15.921875 20.484375 11.0625 
Q 25.484375 6.203125 34.421875 6.203125 
Q 39.59375 6.203125 44.453125 7.46875 
Q 49.3125 8.734375 54.109375 11.28125 
L 54.109375 2.78125 
Q 49.265625 0.734375 44.1875 -0.34375 
Q 39.109375 -1.421875 33.890625 -1.421875 
Q 20.796875 -1.421875 13.15625 6.1875 
Q 5.515625 13.8125 5.515625 26.8125 
Q 5.515625 40.234375 12.765625 48.109375 
Q 20.015625 56 32.328125 56 
Q 43.359375 56 49.78125 48.890625 
Q 56.203125 41.796875 56.203125 29.59375 
M 47.21875 32.234375 
Q 47.125 39.59375 43.09375 43.984375 
Q 39.0625 48.390625 32.421875 48.390625 
Q 24.90625 48.390625 20.390625 44.140625 
Q 15.875 39.890625 15.1875 32.171875 
z
" id="BitstreamVeraSans-Roman-65"/>
      <path d="M 45.40625 46.390625 
L 45.40625 75.984375 
L 54.390625 75.984375 
L 54.390625 0 
L 45.40625 0 
L 45.40625 8.203125 
Q 42.578125 3.328125 38.25 0.953125 
Q 33.9375 -1.421875 27.875 -1.421875 
Q 17.96875 -1.421875 11.734375 6.484375 
Q 5.515625 14.40625 5.515625 27.296875 
Q 5.515625 40.1875 11.734375 48.09375 
Q 17.96875 56 27.875 56 
Q 33.9375 56 38.25 53.625 
Q 42.578125 51.265625 45.40625 46.390625 
M 14.796875 27.296875 
Q 14.796875 17.390625 18.875 11.75 
Q 22.953125 6.109375 30.078125 6.109375 
Q 37.203125 6.109375 41.296875 11.75 
Q 45.40625 17.390625 45.40625 27.296875 
Q 45.40625 37.203125 41.296875 42.84375 
Q 37.203125 48.484375 30.078125 48.484375 
Q 22.953125 48.484375 18.875 42.84375 
Q 14.796875 37.203125 14.796875 27.296875 
" id="BitstreamVeraSans-Roman-64"/>
      <path d="M 34.28125 27.484375 
Q 23.390625 27.484375 19.1875 25 
Q 14.984375 22.515625 14.984375 16.5 
Q 14.984375 11.71875 18.140625 8.90625 
Q 21.296875 6.109375 26.703125 6.109375 
Q 34.1875 6.109375 38.703125 11.40625 
Q 43.21875 16.703125 43.21875 25.484375 
L 43.21875 27.484375 
z
M 52.203125 31.203125 
L 52.203125 0 
L 43.21875 0 
L 43.21875 8.296875 
Q 40.140625 3.328125 35.546875 0.953125 
Q 30.953125 -1.421875 24.3125 -1.421875 
Q 15.921875 -1.421875 10.953125 3.296875 
Q 6 8.015625 6 15.921875 
Q 6 25.140625 12.171875 29.828125 
Q 18.359375 34.515625 30.609375 34.515625 
L 43.21875 34.515625 
L 43.21875 35.40625 
Q 43.21875 41.609375 39.140625 45 
Q 35.0625 48.390625 27.6875 48.390625 
Q 23 48.390625 18.546875 47.265625 
Q 14.109375 46.140625 10.015625 43.890625 
L 10.015625 52.203125 
Q 14.9375 54.109375 19.578125 55.046875 
Q 24.21875 56 28.609375 56 
Q 40.484375 56 46.34375 49.84375 
Q 52.203125 43.703125 52.203125 31.203125 
" id="BitstreamVeraSans-Roman-61"/>
      <path d="M 4.203125 54.6875 
L 13.1875 54.6875 
L 24.421875 12.015625 
L 35.59375 54.6875 
L 46.1875 54.6875 
L 57.421875 12.015625 
L 68.609375 54.6875 
L 77.59375 54.6875 
L 63.28125 0 
L 52.6875 0 
L 40.921875 44.828125 
L 29.109375 0 
L 18.5 0 
z
" id="BitstreamVeraSans-Roman-77"/>
      <path d="M 48.6875 27.296875 
Q 48.6875 37.203125 44.609375 42.84375 
Q 40.53125 48.484375 33.40625 48.484375 
Q 26.265625 48.484375 22.1875 42.84375 
Q 18.109375 37.203125 18.109375 27.296875 
Q 18.109375 17.390625 22.1875 11.75 
Q 26.265625 6.109375 33.40625 6.109375 
Q 40.53125 6.109375 44.609375 11.75 
Q 48.6875 17.390625 48.6875 27.296875 
M 18.109375 46.390625 
Q 20.953125 51.265625 25.265625 53.625 
Q 29.59375 56 35.59375 56 
Q 45.5625 56 51.78125 48.09375 
Q 58.015625 40.1875 58.015625 27.296875 
Q 58.015625 14.40625 51.78125 6.484375 
Q 45.5625 -1.421875 35.59375 -1.421875 
Q 29.59375 -1.421875 25.265625 0.953125 
Q 20.953125 3.328125 18.109375 8.203125 
L 18.109375 0 
L 9.078125 0 
L 9.078125 75.984375 
L 18.109375 75.984375 
z
" id="BitstreamVeraSans-Roman-62"/>
      <path d="M 45.40625 27.984375 
Q 45.40625 37.75 41.375 43.109375 
Q 37.359375 48.484375 30.078125 48.484375 
Q 22.859375 48.484375 18.828125 43.109375 
Q 14.796875 37.75 14.796875 27.984375 
Q 14.796875 18.265625 18.828125 12.890625 
Q 22.859375 7.515625 30.078125 7.515625 
Q 37.359375 7.515625 41.375 12.890625 
Q 45.40625 18.265625 45.40625 27.984375 
M 54.390625 6.78125 
Q 54.390625 -7.171875 48.1875 -13.984375 
Q 42 -20.796875 29.203125 -20.796875 
Q 24.46875 -20.796875 20.265625 -20.09375 
Q 16.0625 -19.390625 12.109375 -17.921875 
L 12.109375 -9.1875 
Q 16.0625 -11.328125 19.921875 -12.34375 
Q 23.78125 -13.375 27.78125 -13.375 
Q 36.625 -13.375 41.015625 -8.765625 
Q 45.40625 -4.15625 45.40625 5.171875 
L 45.40625 9.625 
Q 42.625 4.78125 38.28125 2.390625 
Q 33.9375 0 27.875 0 
Q 17.828125 0 11.671875 7.65625 
Q 5.515625 15.328125 5.515625 27.984375 
Q 5.515625 40.671875 11.671875 48.328125 
Q 17.828125 56 27.875 56 
Q 33.9375 56 38.28125 53.609375 
Q 42.625 51.21875 45.40625 46.390625 
L 45.40625 54.6875 
L 54.390625 54.6875 
z
" id="BitstreamVeraSans-Roman-67"/>
     </defs>
     <g transform="translate(216.4096875 418.531875)scale(0.12 -0.12)">
      <use xlink:href="#BitstreamVeraSans-Roman-6e"/>
      <use x="63.37890625" xlink:href="#BitstreamVeraSans-Roman-75"/>
      <use x="126.7578125" xlink:href="#BitstreamVeraSans-Roman-6d"/>
      <use x="224.169921875" xlink:href="#BitstreamVeraSans-Roman-62"/>
      <use x="287.646484375" xlink:href="#BitstreamVeraSans-Roman-65"/>
      <use x="349.169921875" xlink:href="#BitstreamVeraSans-Roman-72"/>
      <use x="390.283203125" xlink:href="#BitstreamVeraSans-Roman-20"/>
      <use x="422.0703125" xlink:href="#BitstreamVeraSans-Roman-6f"/>
      <use x="483.251953125" xlink:href="#BitstreamVeraSans-Roman-66"/>
      <use x="518.45703125" xlink:href="#BitstreamVeraSans-Roman-20"/>
      <use x="550.244140625" xlink:href="#BitstreamVeraSans-Roman-77"/>
      <use x="632.03125" xlink:href="#BitstreamVeraSans-Roman-6f"/>
      <use x="693.212890625" xlink:href="#BitstreamVeraSans-Roman-72"/>
      <use x="734.310546875" xlink:href="#BitstreamVeraSans-Roman-64"/>
      <use x="797.787109375" xlink:href="#BitstreamVeraSans-Roman-73"/>
      <use x="849.88671875" xlink:href="#BitstreamVeraSans-Roman-20"/>
      <use x="881.673828125" xlink:href="#BitstreamVeraSans-Roman-63"/>
      <use x="936.654296875" xlink:href="#BitstreamVeraSans-Roman-68"/>
      <use x="1000.033203125" xlink:href="#BitstreamVeraSans-Roman-61"/>
      <use x="1061.3125" xlink:href="#BitstreamVeraSans-Roman-6e"/>
      <use x="1124.69140625" xlink:href="#BitstreamVeraSans-Roman-67"/>
      <use x="1188.16796875" xlink:href="#BitstreamVeraSans-Roman-65"/>
      <use x="1249.69140625" xlink:href="#BitstreamVeraSans-Roman-64"/>
     </g>
    </g>
   </g>
   <g id="matplotlib.axis_2">
    <g id="ytick_1">
     <g id="line2d_15">
      <defs>
       <path d="M 0 0 
L 4 0 
" id="m2852ddbd00" style="stroke:#000000;stroke-width:0.5;"/>
      </defs>
      <g>
       <use style="stroke:#000000;stroke-width:0.5;" x="72.0" xlink:href="#m2852ddbd00" y="388.8"/>
      </g>
     </g>
     <g id="line2d_16">
      <defs>
       <path d="M 0 0 
L -4 0 
" id="m2bda823110" style="stroke:#000000;stroke-width:0.5;"/>
      </defs>
      <g>
       <use style="stroke:#000000;stroke-width:0.5;" x="518.4" xlink:href="#m2bda823110" y="388.8"/>
      </g>
     </g>
     <g id="text_9">
      <!-- 0 -->
      <g transform="translate(60.365 392.11125)scale(0.12 -0.12)">
       <use xlink:href="#BitstreamVeraSans-Roman-30"/>
      </g>
     </g>
    </g>
    <g id="ytick_2">
     <g id="line2d_17">
      <g>
       <use style="stroke:#000000;stroke-width:0.5;" x="72.0" xlink:href="#m2852ddbd00" y="317.098755187"/>
      </g>
     </g>
     <g id="line2d_18">
      <g>
       <use style="stroke:#000000;stroke-width:0.5;" x="518.4" xlink:href="#m2bda823110" y="317.098755187"/>
      </g>
     </g>
     <g id="text_10">
      <!-- 200 -->
      <g transform="translate(45.095 320.410005187)scale(0.12 -0.12)">
       <use xlink:href="#BitstreamVeraSans-Roman-32"/>
       <use x="63.623046875" xlink:href="#BitstreamVeraSans-Roman-30"/>
       <use x="127.24609375" xlink:href="#BitstreamVeraSans-Roman-30"/>
      </g>
     </g>
    </g>
    <g id="ytick_3">
     <g id="line2d_19">
      <g>
       <use style="stroke:#000000;stroke-width:0.5;" x="72.0" xlink:href="#m2852ddbd00" y="245.397510373"/>
      </g>
     </g>
     <g id="line2d_20">
      <g>
       <use style="stroke:#000000;stroke-width:0.5;" x="518.4" xlink:href="#m2bda823110" y="245.397510373"/>
      </g>
     </g>
     <g id="text_11">
      <!-- 400 -->
      <g transform="translate(45.095 248.708760373)scale(0.12 -0.12)">
       <use xlink:href="#BitstreamVeraSans-Roman-34"/>
       <use x="63.623046875" xlink:href="#BitstreamVeraSans-Roman-30"/>
       <use x="127.24609375" xlink:href="#BitstreamVeraSans-Roman-30"/>
      </g>
     </g>
    </g>
    <g id="ytick_4">
     <g id="line2d_21">
      <g>
       <use style="stroke:#000000;stroke-width:0.5;" x="72.0" xlink:href="#m2852ddbd00" y="173.69626556"/>
      </g>
     </g>
     <g id="line2d_22">
      <g>
       <use style="stroke:#000000;stroke-width:0.5;" x="518.4" xlink:href="#m2bda823110" y="173.69626556"/>
      </g>
     </g>
     <g id="text_12">
      <!-- 600 -->
      <g transform="translate(45.095 177.00751556)scale(0.12 -0.12)">
       <use xlink:href="#BitstreamVeraSans-Roman-36"/>
       <use x="63.623046875" xlink:href="#BitstreamVeraSans-Roman-30"/>
       <use x="127.24609375" xlink:href="#BitstreamVeraSans-Roman-30"/>
      </g>
     </g>
    </g>
    <g id="ytick_5">
     <g id="line2d_23">
      <g>
       <use style="stroke:#000000;stroke-width:0.5;" x="72.0" xlink:href="#m2852ddbd00" y="101.995020747"/>
      </g>
     </g>
     <g id="line2d_24">
      <g>
       <use style="stroke:#000000;stroke-width:0.5;" x="518.4" xlink:href="#m2bda823110" y="101.995020747"/>
      </g>
     </g>
     <g id="text_13">
      <!-- 800 -->
      <defs>
       <path d="M 31.78125 34.625 
Q 24.75 34.625 20.71875 30.859375 
Q 16.703125 27.09375 16.703125 20.515625 
Q 16.703125 13.921875 20.71875 10.15625 
Q 24.75 6.390625 31.78125 6.390625 
Q 38.8125 6.390625 42.859375 10.171875 
Q 46.921875 13.96875 46.921875 20.515625 
Q 46.921875 27.09375 42.890625 30.859375 
Q 38.875 34.625 31.78125 34.625 
M 21.921875 38.8125 
Q 15.578125 40.375 12.03125 44.71875 
Q 8.5 49.078125 8.5 55.328125 
Q 8.5 64.0625 14.71875 69.140625 
Q 20.953125 74.21875 31.78125 74.21875 
Q 42.671875 74.21875 48.875 69.140625 
Q 55.078125 64.0625 55.078125 55.328125 
Q 55.078125 49.078125 51.53125 44.71875 
Q 48 40.375 41.703125 38.8125 
Q 48.828125 37.15625 52.796875 32.3125 
Q 56.78125 27.484375 56.78125 20.515625 
Q 56.78125 9.90625 50.3125 4.234375 
Q 43.84375 -1.421875 31.78125 -1.421875 
Q 19.734375 -1.421875 13.25 4.234375 
Q 6.78125 9.90625 6.78125 20.515625 
Q 6.78125 27.484375 10.78125 32.3125 
Q 14.796875 37.15625 21.921875 38.8125 
M 18.3125 54.390625 
Q 18.3125 48.734375 21.84375 45.5625 
Q 25.390625 42.390625 31.78125 42.390625 
Q 38.140625 42.390625 41.71875 45.5625 
Q 45.3125 48.734375 45.3125 54.390625 
Q 45.3125 60.0625 41.71875 63.234375 
Q 38.140625 66.40625 31.78125 66.40625 
Q 25.390625 66.40625 21.84375 63.234375 
Q 18.3125 60.0625 18.3125 54.390625 
" id="BitstreamVeraSans-Roman-38"/>
      </defs>
      <g transform="translate(45.095 105.306270747)scale(0.12 -0.12)">
       <use xlink:href="#BitstreamVeraSans-Roman-38"/>
       <use x="63.623046875" xlink:href="#BitstreamVeraSans-Roman-30"/>
       <use x="127.24609375" xlink:href="#BitstreamVeraSans-Roman-30"/>
      </g>
     </g>
    </g>
    <g id="text_14">
     <!-- amount -->
     <defs>
      <path d="M 18.3125 70.21875 
L 18.3125 54.6875 
L 36.8125 54.6875 
L 36.8125 47.703125 
L 18.3125 47.703125 
L 18.3125 18.015625 
Q 18.3125 11.328125 20.140625 9.421875 
Q 21.96875 7.515625 27.59375 7.515625 
L 36.8125 7.515625 
L 36.8125 0 
L 27.59375 0 
Q 17.1875 0 13.234375 3.875 
Q 9.28125 7.765625 9.28125 18.015625 
L 9.28125 47.703125 
L 2.6875 47.703125 
L 2.6875 54.6875 
L 9.28125 54.6875 
L 9.28125 70.21875 
z
" id="BitstreamVeraSans-Roman-74"/>
     </defs>
     <g transform="translate(37.599375 239.1496875)rotate(-90.0)scale(0.12 -0.12)">
      <use xlink:href="#BitstreamVeraSans-Roman-61"/>
      <use x="61.279296875" xlink:href="#BitstreamVeraSans-Roman-6d"/>
      <use x="158.69140625" xlink:href="#BitstreamVeraSans-Roman-6f"/>
      <use x="219.873046875" xlink:href="#BitstreamVeraSans-Roman-75"/>
      <use x="283.251953125" xlink:href="#BitstreamVeraSans-Roman-6e"/>
      <use x="346.630859375" xlink:href="#BitstreamVeraSans-Roman-74"/>
     </g>
    </g>
   </g>
   <g id="text_15">
    <!-- number of words changed by method of correction -->
    <defs>
     <path d="M 9.421875 54.6875 
L 18.40625 54.6875 
L 18.40625 0 
L 9.421875 0 
z
M 9.421875 75.984375 
L 18.40625 75.984375 
L 18.40625 64.59375 
L 9.421875 64.59375 
z
" id="BitstreamVeraSans-Roman-69"/>
     <path d="M 32.171875 -5.078125 
Q 28.375 -14.84375 24.75 -17.8125 
Q 21.140625 -20.796875 15.09375 -20.796875 
L 7.90625 -20.796875 
L 7.90625 -13.28125 
L 13.1875 -13.28125 
Q 16.890625 -13.28125 18.9375 -11.515625 
Q 21 -9.765625 23.484375 -3.21875 
L 25.09375 0.875 
L 2.984375 54.6875 
L 12.5 54.6875 
L 29.59375 11.921875 
L 46.6875 54.6875 
L 56.203125 54.6875 
z
" id="BitstreamVeraSans-Roman-79"/>
    </defs>
    <g transform="translate(111.459375 38.2)scale(0.144 -0.144)">
     <use xlink:href="#BitstreamVeraSans-Roman-6e"/>
     <use x="63.37890625" xlink:href="#BitstreamVeraSans-Roman-75"/>
     <use x="126.7578125" xlink:href="#BitstreamVeraSans-Roman-6d"/>
     <use x="224.169921875" xlink:href="#BitstreamVeraSans-Roman-62"/>
     <use x="287.646484375" xlink:href="#BitstreamVeraSans-Roman-65"/>
     <use x="349.169921875" xlink:href="#BitstreamVeraSans-Roman-72"/>
     <use x="390.283203125" xlink:href="#BitstreamVeraSans-Roman-20"/>
     <use x="422.0703125" xlink:href="#BitstreamVeraSans-Roman-6f"/>
     <use x="483.251953125" xlink:href="#BitstreamVeraSans-Roman-66"/>
     <use x="518.45703125" xlink:href="#BitstreamVeraSans-Roman-20"/>
     <use x="550.244140625" xlink:href="#BitstreamVeraSans-Roman-77"/>
     <use x="632.03125" xlink:href="#BitstreamVeraSans-Roman-6f"/>
     <use x="693.212890625" xlink:href="#BitstreamVeraSans-Roman-72"/>
     <use x="734.310546875" xlink:href="#BitstreamVeraSans-Roman-64"/>
     <use x="797.787109375" xlink:href="#BitstreamVeraSans-Roman-73"/>
     <use x="849.88671875" xlink:href="#BitstreamVeraSans-Roman-20"/>
     <use x="881.673828125" xlink:href="#BitstreamVeraSans-Roman-63"/>
     <use x="936.654296875" xlink:href="#BitstreamVeraSans-Roman-68"/>
     <use x="1000.033203125" xlink:href="#BitstreamVeraSans-Roman-61"/>
     <use x="1061.3125" xlink:href="#BitstreamVeraSans-Roman-6e"/>
     <use x="1124.69140625" xlink:href="#BitstreamVeraSans-Roman-67"/>
     <use x="1188.16796875" xlink:href="#BitstreamVeraSans-Roman-65"/>
     <use x="1249.69140625" xlink:href="#BitstreamVeraSans-Roman-64"/>
     <use x="1313.16796875" xlink:href="#BitstreamVeraSans-Roman-20"/>
     <use x="1344.955078125" xlink:href="#BitstreamVeraSans-Roman-62"/>
     <use x="1408.431640625" xlink:href="#BitstreamVeraSans-Roman-79"/>
     <use x="1467.611328125" xlink:href="#BitstreamVeraSans-Roman-20"/>
     <use x="1499.3984375" xlink:href="#BitstreamVeraSans-Roman-6d"/>
     <use x="1596.810546875" xlink:href="#BitstreamVeraSans-Roman-65"/>
     <use x="1658.333984375" xlink:href="#BitstreamVeraSans-Roman-74"/>
     <use x="1697.54296875" xlink:href="#BitstreamVeraSans-Roman-68"/>
     <use x="1760.921875" xlink:href="#BitstreamVeraSans-Roman-6f"/>
     <use x="1822.103515625" xlink:href="#BitstreamVeraSans-Roman-64"/>
     <use x="1885.580078125" xlink:href="#BitstreamVeraSans-Roman-20"/>
     <use x="1917.3671875" xlink:href="#BitstreamVeraSans-Roman-6f"/>
     <use x="1978.548828125" xlink:href="#BitstreamVeraSans-Roman-66"/>
     <use x="2013.75390625" xlink:href="#BitstreamVeraSans-Roman-20"/>
     <use x="2045.541015625" xlink:href="#BitstreamVeraSans-Roman-63"/>
     <use x="2100.521484375" xlink:href="#BitstreamVeraSans-Roman-6f"/>
     <use x="2161.703125" xlink:href="#BitstreamVeraSans-Roman-72"/>
     <use x="2202.80078125" xlink:href="#BitstreamVeraSans-Roman-72"/>
     <use x="2243.8828125" xlink:href="#BitstreamVeraSans-Roman-65"/>
     <use x="2305.40625" xlink:href="#BitstreamVeraSans-Roman-63"/>
     <use x="2360.38671875" xlink:href="#BitstreamVeraSans-Roman-74"/>
     <use x="2399.595703125" xlink:href="#BitstreamVeraSans-Roman-69"/>
     <use x="2427.37890625" xlink:href="#BitstreamVeraSans-Roman-6f"/>
     <use x="2488.560546875" xlink:href="#BitstreamVeraSans-Roman-6e"/>
    </g>
   </g>
   <g id="legend_1">
    <g id="patch_135">
     <path d="M 358.50625 261.534375 
L 513.4 261.534375 
L 513.4 170.465625 
L 358.50625 170.465625 
z
" style="fill:#ffffff;stroke:#000000;stroke-linejoin:miter;"/>
    </g>
    <g id="patch_136">
     <path d="M 362.50625 182.064063 
L 382.50625 182.064063 
L 382.50625 175.064063 
L 362.50625 175.064063 
z
" style="fill:#8000ff;stroke:#000000;stroke-linejoin:miter;"/>
    </g>
    <g id="text_16">
     <!-- fce to gold auto aligned -->
     <defs>
      <path d="M 9.421875 75.984375 
L 18.40625 75.984375 
L 18.40625 0 
L 9.421875 0 
z
" id="BitstreamVeraSans-Roman-6c"/>
     </defs>
     <g transform="translate(390.50625 182.0640625)scale(0.1 -0.1)">
      <use xlink:href="#BitstreamVeraSans-Roman-66"/>
      <use x="35.205078125" xlink:href="#BitstreamVeraSans-Roman-63"/>
      <use x="90.185546875" xlink:href="#BitstreamVeraSans-Roman-65"/>
      <use x="151.708984375" xlink:href="#BitstreamVeraSans-Roman-20"/>
      <use x="183.49609375" xlink:href="#BitstreamVeraSans-Roman-74"/>
      <use x="222.705078125" xlink:href="#BitstreamVeraSans-Roman-6f"/>
      <use x="283.88671875" xlink:href="#BitstreamVeraSans-Roman-20"/>
      <use x="315.673828125" xlink:href="#BitstreamVeraSans-Roman-67"/>
      <use x="379.150390625" xlink:href="#BitstreamVeraSans-Roman-6f"/>
      <use x="440.33203125" xlink:href="#BitstreamVeraSans-Roman-6c"/>
      <use x="468.115234375" xlink:href="#BitstreamVeraSans-Roman-64"/>
      <use x="531.591796875" xlink:href="#BitstreamVeraSans-Roman-20"/>
      <use x="563.37890625" xlink:href="#BitstreamVeraSans-Roman-61"/>
      <use x="624.658203125" xlink:href="#BitstreamVeraSans-Roman-75"/>
      <use x="688.037109375" xlink:href="#BitstreamVeraSans-Roman-74"/>
      <use x="727.24609375" xlink:href="#BitstreamVeraSans-Roman-6f"/>
      <use x="788.427734375" xlink:href="#BitstreamVeraSans-Roman-20"/>
      <use x="820.21484375" xlink:href="#BitstreamVeraSans-Roman-61"/>
      <use x="881.494140625" xlink:href="#BitstreamVeraSans-Roman-6c"/>
      <use x="909.27734375" xlink:href="#BitstreamVeraSans-Roman-69"/>
      <use x="937.060546875" xlink:href="#BitstreamVeraSans-Roman-67"/>
      <use x="1000.537109375" xlink:href="#BitstreamVeraSans-Roman-6e"/>
      <use x="1063.916015625" xlink:href="#BitstreamVeraSans-Roman-65"/>
      <use x="1125.439453125" xlink:href="#BitstreamVeraSans-Roman-64"/>
     </g>
    </g>
    <g id="patch_137">
     <path d="M 362.50625 196.742188 
L 382.50625 196.742188 
L 382.50625 189.742188 
L 362.50625 189.742188 
z
" style="fill:#1996f3;stroke:#000000;stroke-linejoin:miter;"/>
    </g>
    <g id="text_17">
     <!-- gold standard -->
     <g transform="translate(390.50625 196.7421875)scale(0.1 -0.1)">
      <use xlink:href="#BitstreamVeraSans-Roman-67"/>
      <use x="63.4765625" xlink:href="#BitstreamVeraSans-Roman-6f"/>
      <use x="124.658203125" xlink:href="#BitstreamVeraSans-Roman-6c"/>
      <use x="152.44140625" xlink:href="#BitstreamVeraSans-Roman-64"/>
      <use x="215.91796875" xlink:href="#BitstreamVeraSans-Roman-20"/>
      <use x="247.705078125" xlink:href="#BitstreamVeraSans-Roman-73"/>
      <use x="299.8046875" xlink:href="#BitstreamVeraSans-Roman-74"/>
      <use x="339.013671875" xlink:href="#BitstreamVeraSans-Roman-61"/>
      <use x="400.29296875" xlink:href="#BitstreamVeraSans-Roman-6e"/>
      <use x="463.671875" xlink:href="#BitstreamVeraSans-Roman-64"/>
      <use x="527.1484375" xlink:href="#BitstreamVeraSans-Roman-61"/>
      <use x="588.427734375" xlink:href="#BitstreamVeraSans-Roman-72"/>
      <use x="629.525390625" xlink:href="#BitstreamVeraSans-Roman-64"/>
     </g>
    </g>
    <g id="patch_138">
     <path d="M 362.50625 211.420313 
L 382.50625 211.420313 
L 382.50625 204.420313 
L 362.50625 204.420313 
z
" style="fill:#4df3ce;stroke:#000000;stroke-linejoin:miter;"/>
    </g>
    <g id="text_18">
     <!-- cuui -->
     <g transform="translate(390.50625 211.4203125)scale(0.1 -0.1)">
      <use xlink:href="#BitstreamVeraSans-Roman-63"/>
      <use x="54.98046875" xlink:href="#BitstreamVeraSans-Roman-75"/>
      <use x="118.359375" xlink:href="#BitstreamVeraSans-Roman-75"/>
      <use x="181.73828125" xlink:href="#BitstreamVeraSans-Roman-69"/>
     </g>
    </g>
    <g id="patch_139">
     <path d="M 362.50625 226.098438 
L 382.50625 226.098438 
L 382.50625 219.098438 
L 362.50625 219.098438 
z
" style="fill:#b2f396;stroke:#000000;stroke-linejoin:miter;"/>
    </g>
    <g id="text_19">
     <!-- camb -->
     <g transform="translate(390.50625 226.0984375)scale(0.1 -0.1)">
      <use xlink:href="#BitstreamVeraSans-Roman-63"/>
      <use x="54.98046875" xlink:href="#BitstreamVeraSans-Roman-61"/>
      <use x="116.259765625" xlink:href="#BitstreamVeraSans-Roman-6d"/>
      <use x="213.671875" xlink:href="#BitstreamVeraSans-Roman-62"/>
     </g>
    </g>
    <g id="patch_140">
     <path d="M 362.50625 240.776563 
L 382.50625 240.776563 
L 382.50625 233.776563 
L 362.50625 233.776563 
z
" style="fill:#ff964f;stroke:#000000;stroke-linejoin:miter;"/>
    </g>
    <g id="text_20">
     <!-- AMU -->
     <defs>
      <path d="M 9.8125 72.90625 
L 24.515625 72.90625 
L 43.109375 23.296875 
L 61.8125 72.90625 
L 76.515625 72.90625 
L 76.515625 0 
L 66.890625 0 
L 66.890625 64.015625 
L 48.09375 14.015625 
L 38.1875 14.015625 
L 19.390625 64.015625 
L 19.390625 0 
L 9.8125 0 
z
" id="BitstreamVeraSans-Roman-4d"/>
      <path d="M 8.6875 72.90625 
L 18.609375 72.90625 
L 18.609375 28.609375 
Q 18.609375 16.890625 22.84375 11.734375 
Q 27.09375 6.59375 36.625 6.59375 
Q 46.09375 6.59375 50.34375 11.734375 
Q 54.59375 16.890625 54.59375 28.609375 
L 54.59375 72.90625 
L 64.5 72.90625 
L 64.5 27.390625 
Q 64.5 13.140625 57.4375 5.859375 
Q 50.390625 -1.421875 36.625 -1.421875 
Q 22.796875 -1.421875 15.734375 5.859375 
Q 8.6875 13.140625 8.6875 27.390625 
z
" id="BitstreamVeraSans-Roman-55"/>
      <path d="M 34.1875 63.1875 
L 20.796875 26.90625 
L 47.609375 26.90625 
z
M 28.609375 72.90625 
L 39.796875 72.90625 
L 67.578125 0 
L 57.328125 0 
L 50.6875 18.703125 
L 17.828125 18.703125 
L 11.1875 0 
L 0.78125 0 
z
" id="BitstreamVeraSans-Roman-41"/>
     </defs>
     <g transform="translate(390.50625 240.7765625)scale(0.1 -0.1)">
      <use xlink:href="#BitstreamVeraSans-Roman-41"/>
      <use x="68.408203125" xlink:href="#BitstreamVeraSans-Roman-4d"/>
      <use x="154.6875" xlink:href="#BitstreamVeraSans-Roman-55"/>
     </g>
    </g>
    <g id="patch_141">
     <path d="M 362.50625 255.454688 
L 382.50625 255.454688 
L 382.50625 248.454688 
L 362.50625 248.454688 
z
" style="fill:#ff0000;stroke:#000000;stroke-linejoin:miter;"/>
    </g>
    <g id="text_21">
     <!-- Rozovskaya Roth -->
     <defs>
      <path d="M 5.515625 54.6875 
L 48.1875 54.6875 
L 48.1875 46.484375 
L 14.40625 7.171875 
L 48.1875 7.171875 
L 48.1875 0 
L 4.296875 0 
L 4.296875 8.203125 
L 38.09375 47.515625 
L 5.515625 47.515625 
z
" id="BitstreamVeraSans-Roman-7a"/>
      <path d="M 2.984375 54.6875 
L 12.5 54.6875 
L 29.59375 8.796875 
L 46.6875 54.6875 
L 56.203125 54.6875 
L 35.6875 0 
L 23.484375 0 
z
" id="BitstreamVeraSans-Roman-76"/>
      <path d="M 44.390625 34.1875 
Q 47.5625 33.109375 50.5625 29.59375 
Q 53.5625 26.078125 56.59375 19.921875 
L 66.609375 0 
L 56 0 
L 46.6875 18.703125 
Q 43.0625 26.03125 39.671875 28.421875 
Q 36.28125 30.8125 30.421875 30.8125 
L 19.671875 30.8125 
L 19.671875 0 
L 9.8125 0 
L 9.8125 72.90625 
L 32.078125 72.90625 
Q 44.578125 72.90625 50.734375 67.671875 
Q 56.890625 62.453125 56.890625 51.90625 
Q 56.890625 45.015625 53.6875 40.46875 
Q 50.484375 35.9375 44.390625 34.1875 
M 19.671875 64.796875 
L 19.671875 38.921875 
L 32.078125 38.921875 
Q 39.203125 38.921875 42.84375 42.21875 
Q 46.484375 45.515625 46.484375 51.90625 
Q 46.484375 58.296875 42.84375 61.546875 
Q 39.203125 64.796875 32.078125 64.796875 
z
" id="BitstreamVeraSans-Roman-52"/>
      <path d="M 9.078125 75.984375 
L 18.109375 75.984375 
L 18.109375 31.109375 
L 44.921875 54.6875 
L 56.390625 54.6875 
L 27.390625 29.109375 
L 57.625 0 
L 45.90625 0 
L 18.109375 26.703125 
L 18.109375 0 
L 9.078125 0 
z
" id="BitstreamVeraSans-Roman-6b"/>
     </defs>
     <g transform="translate(390.50625 255.4546875)scale(0.1 -0.1)">
      <use xlink:href="#BitstreamVeraSans-Roman-52"/>
      <use x="69.419921875" xlink:href="#BitstreamVeraSans-Roman-6f"/>
      <use x="130.6015625" xlink:href="#BitstreamVeraSans-Roman-7a"/>
      <use x="183.091796875" xlink:href="#BitstreamVeraSans-Roman-6f"/>
      <use x="244.2734375" xlink:href="#BitstreamVeraSans-Roman-76"/>
      <use x="303.453125" xlink:href="#BitstreamVeraSans-Roman-73"/>
      <use x="355.552734375" xlink:href="#BitstreamVeraSans-Roman-6b"/>
      <use x="413.447265625" xlink:href="#BitstreamVeraSans-Roman-61"/>
      <use x="474.7265625" xlink:href="#BitstreamVeraSans-Roman-79"/>
      <use x="533.90625" xlink:href="#BitstreamVeraSans-Roman-61"/>
      <use x="595.185546875" xlink:href="#BitstreamVeraSans-Roman-20"/>
      <use x="626.97265625" xlink:href="#BitstreamVeraSans-Roman-52"/>
      <use x="696.392578125" xlink:href="#BitstreamVeraSans-Roman-6f"/>
      <use x="757.57421875" xlink:href="#BitstreamVeraSans-Roman-74"/>
      <use x="796.783203125" xlink:href="#BitstreamVeraSans-Roman-68"/>
     </g>
    </g>
   </g>
  </g>
 </g>
 <defs>
  <clipPath id="pf5c5e64539">
   <rect height="345.6" width="446.4" x="72.0" y="43.2"/>
  </clipPath>
 </defs>
</svg>
