<?xml version="1.0" encoding="utf-8" standalone="no"?>
<!DOCTYPE svg PUBLIC "-//W3C//DTD SVG 1.1//EN"
  "http://www.w3.org/Graphics/SVG/1.1/DTD/svg11.dtd">
<!-- Created with matplotlib (http://matplotlib.org/) -->
<svg height="432pt" version="1.1" viewBox="0 0 576 432" width="576pt" xmlns="http://www.w3.org/2000/svg" xmlns:xlink="http://www.w3.org/1999/xlink">
 <defs>
  <style type="text/css">
*{stroke-linecap:butt;stroke-linejoin:round;stroke-miterlimit:100000;}
  </style>
 </defs>
 <g id="figure_1">
  <g id="patch_1">
   <path d="M 0 432 
L 576 432 
L 576 0 
L 0 0 
z
" style="fill:#ffffff;"/>
  </g>
  <g id="axes_1">
   <g id="patch_2">
    <path d="M 72 388.8 
L 518.4 388.8 
L 518.4 43.2 
L 72 43.2 
z
" style="fill:#ffffff;"/>
   </g>
   <g id="line2d_1">
    <path clip-path="url(#p63784c4cf3)" d="M 86.88 234.432 
L 101.76 156.096 
L 116.64 118.08 
L 131.52 93.888 
L 146.4 78.912 
L 161.28 72 
L 176.16 67.392 
L 191.04 65.088 
L 205.92 63.936 
L 220.8 62.784 
L 235.68 59.328 
L 250.56 59.328 
L 265.44 58.176 
L 280.32 58.176 
L 295.2 58.176 
L 310.08 58.176 
L 324.96 57.024 
L 339.84 57.024 
L 354.72 57.024 
L 369.6 57.024 
L 384.48 57.024 
L 399.36 57.024 
L 414.24 57.024 
L 429.12 57.024 
L 444 57.024 
L 458.88 57.024 
L 473.76 55.872 
L 488.64 55.872 
L 503.52 55.872 
L 518.4 55.872 
" style="fill:none;stroke:#8000ff;stroke-linecap:square;"/>
   </g>
   <g id="line2d_2">
    <path clip-path="url(#p63784c4cf3)" d="M 86.88 289.728 
L 101.76 270.144 
L 116.64 262.08 
L 131.52 258.624 
L 146.4 257.472 
L 161.28 257.472 
L 176.16 257.472 
L 191.04 257.472 
L 205.92 257.472 
L 220.8 257.472 
L 235.68 257.472 
L 250.56 257.472 
L 265.44 257.472 
L 280.32 257.472 
L 295.2 257.472 
L 310.08 257.472 
L 324.96 257.472 
L 339.84 257.472 
L 354.72 257.472 
L 369.6 257.472 
L 384.48 257.472 
L 399.36 257.472 
L 414.24 257.472 
L 429.12 257.472 
L 444 257.472 
L 458.88 257.472 
L 473.76 257.472 
L 488.64 257.472 
L 503.52 257.472 
L 518.4 257.472 
" style="fill:none;stroke:#5a3bfd;stroke-linecap:square;"/>
   </g>
   <g id="line2d_3">
    <path clip-path="url(#p63784c4cf3)" d="M 86.88 262.08 
L 101.76 221.76 
L 116.64 213.696 
L 131.52 211.392 
L 146.4 209.088 
L 161.28 207.936 
L 176.16 207.936 
L 191.04 207.936 
L 205.92 207.936 
L 220.8 207.936 
L 235.68 207.936 
L 250.56 207.936 
L 265.44 207.936 
L 280.32 207.936 
L 295.2 207.936 
L 310.08 207.936 
L 324.96 207.936 
L 339.84 207.936 
L 354.72 207.936 
L 369.6 207.936 
L 384.48 207.936 
L 399.36 206.784 
L 414.24 206.784 
L 429.12 206.784 
L 444 206.784 
L 458.88 206.784 
L 473.76 206.784 
L 488.64 206.784 
L 503.52 206.784 
L 518.4 206.784 
" style="fill:none;stroke:#3176f8;stroke-linecap:square;"/>
   </g>
   <g id="line2d_4">
    <path clip-path="url(#p63784c4cf3)" d="M 86.88 360 
L 101.76 346.176 
L 116.64 340.416 
L 131.52 340.416 
L 146.4 339.264 
L 161.28 339.264 
L 176.16 339.264 
L 191.04 339.264 
L 205.92 339.264 
L 220.8 339.264 
L 235.68 339.264 
L 250.56 339.264 
L 265.44 339.264 
L 280.32 339.264 
L 295.2 339.264 
L 310.08 339.264 
L 324.96 339.264 
L 339.84 339.264 
L 354.72 339.264 
L 369.6 339.264 
L 384.48 339.264 
L 399.36 339.264 
L 414.24 339.264 
L 429.12 339.264 
L 444 339.264 
L 458.88 339.264 
L 473.76 339.264 
L 488.64 339.264 
L 503.52 339.264 
L 518.4 339.264 
" style="fill:none;stroke:#09a9ee;stroke-linecap:square;"/>
   </g>
   <g id="line2d_5">
    <path clip-path="url(#p63784c4cf3)" d="M 86.88 334.656 
L 101.76 312.768 
L 116.64 303.552 
L 131.52 303.552 
L 146.4 303.552 
L 161.28 303.552 
L 176.16 303.552 
L 191.04 303.552 
L 205.92 303.552 
L 220.8 303.552 
L 235.68 303.552 
L 250.56 303.552 
L 265.44 303.552 
L 280.32 303.552 
L 295.2 303.552 
L 310.08 303.552 
L 324.96 303.552 
L 339.84 303.552 
L 354.72 303.552 
L 369.6 303.552 
L 384.48 303.552 
L 399.36 303.552 
L 414.24 303.552 
L 429.12 303.552 
L 444 303.552 
L 458.88 303.552 
L 473.76 303.552 
L 488.64 303.552 
L 503.52 303.552 
L 518.4 303.552 
" style="fill:none;stroke:#1dd1e2;stroke-linecap:square;"/>
   </g>
   <g id="line2d_6">
    <path clip-path="url(#p63784c4cf3)" d="M 86.88 383.04 
L 101.76 381.888 
L 116.64 381.888 
L 131.52 380.736 
L 146.4 380.736 
L 161.28 380.736 
L 176.16 380.736 
L 191.04 380.736 
L 205.92 380.736 
L 220.8 380.736 
L 235.68 380.736 
L 250.56 380.736 
L 265.44 380.736 
L 280.32 380.736 
L 295.2 380.736 
L 310.08 380.736 
L 324.96 380.736 
L 339.84 380.736 
L 354.72 380.736 
L 369.6 380.736 
L 384.48 380.736 
L 399.36 380.736 
L 414.24 380.736 
L 429.12 380.736 
L 444 380.736 
L 458.88 380.736 
L 473.76 380.736 
L 488.64 380.736 
L 503.52 380.736 
L 518.4 380.736 
" style="fill:none;stroke:#44eed2;stroke-linecap:square;"/>
   </g>
   <g id="line2d_7">
    <path clip-path="url(#p63784c4cf3)" d="M 86.88 387.648 
L 101.76 387.648 
L 116.64 387.648 
L 131.52 387.648 
L 146.4 387.648 
L 161.28 387.648 
L 176.16 387.648 
L 191.04 387.648 
L 205.92 387.648 
L 220.8 387.648 
L 235.68 387.648 
L 250.56 387.648 
L 265.44 387.648 
L 280.32 387.648 
L 295.2 387.648 
L 310.08 387.648 
L 324.96 387.648 
L 339.84 387.648 
L 354.72 387.648 
L 369.6 387.648 
L 384.48 387.648 
L 399.36 387.648 
L 414.24 387.648 
L 429.12 387.648 
L 444 387.648 
L 458.88 387.648 
L 473.76 387.648 
L 488.64 387.648 
L 503.52 387.648 
L 518.4 387.648 
" style="fill:none;stroke:#6dfdbf;stroke-linecap:square;"/>
   </g>
   <g id="line2d_8">
    <path clip-path="url(#p63784c4cf3)" d="M 86.88 321.984 
L 101.76 287.424 
L 116.64 282.816 
L 131.52 281.664 
L 146.4 280.512 
L 161.28 280.512 
L 176.16 280.512 
L 191.04 280.512 
L 205.92 279.36 
L 220.8 278.208 
L 235.68 278.208 
L 250.56 278.208 
L 265.44 278.208 
L 280.32 278.208 
L 295.2 278.208 
L 310.08 278.208 
L 324.96 278.208 
L 339.84 278.208 
L 354.72 278.208 
L 369.6 278.208 
L 384.48 278.208 
L 399.36 278.208 
L 414.24 278.208 
L 429.12 278.208 
L 444 278.208 
L 458.88 278.208 
L 473.76 278.208 
L 488.64 278.208 
L 503.52 278.208 
L 518.4 277.056 
" style="fill:none;stroke:#92fda9;stroke-linecap:square;"/>
   </g>
   <g id="line2d_9">
    <path clip-path="url(#p63784c4cf3)" d="M 86.88 388.8 
L 101.76 388.8 
L 116.64 388.8 
L 131.52 388.8 
L 146.4 388.8 
L 161.28 388.8 
L 176.16 388.8 
L 191.04 388.8 
L 205.92 388.8 
L 220.8 388.8 
L 235.68 388.8 
L 250.56 388.8 
L 265.44 388.8 
L 280.32 388.8 
L 295.2 388.8 
L 310.08 388.8 
L 324.96 388.8 
L 339.84 388.8 
L 354.72 388.8 
L 369.6 388.8 
L 384.48 388.8 
L 399.36 388.8 
L 414.24 388.8 
L 429.12 388.8 
L 444 388.8 
L 458.88 388.8 
L 473.76 388.8 
L 488.64 388.8 
L 503.52 388.8 
L 518.4 388.8 
" style="fill:none;stroke:#bbee91;stroke-linecap:square;"/>
   </g>
   <g id="line2d_10">
    <path clip-path="url(#p63784c4cf3)" d="M 86.88 308.16 
L 101.76 289.728 
L 116.64 286.272 
L 131.52 286.272 
L 146.4 286.272 
L 161.28 286.272 
L 176.16 286.272 
L 191.04 286.272 
L 205.92 286.272 
L 220.8 286.272 
L 235.68 286.272 
L 250.56 286.272 
L 265.44 286.272 
L 280.32 286.272 
L 295.2 286.272 
L 310.08 286.272 
L 324.96 286.272 
L 339.84 286.272 
L 354.72 286.272 
L 369.6 286.272 
L 384.48 286.272 
L 399.36 286.272 
L 414.24 286.272 
L 429.12 286.272 
L 444 286.272 
L 458.88 286.272 
L 473.76 286.272 
L 488.64 286.272 
L 503.52 286.272 
L 518.4 286.272 
" style="fill:none;stroke:#e2d176;stroke-linecap:square;"/>
   </g>
   <g id="line2d_11">
    <path clip-path="url(#p63784c4cf3)" d="M 86.88 381.888 
L 101.76 372.672 
L 116.64 372.672 
L 131.52 372.672 
L 146.4 372.672 
L 161.28 372.672 
L 176.16 372.672 
L 191.04 372.672 
L 205.92 372.672 
L 220.8 372.672 
L 235.68 372.672 
L 250.56 372.672 
L 265.44 372.672 
L 280.32 372.672 
L 295.2 372.672 
L 310.08 372.672 
L 324.96 372.672 
L 339.84 372.672 
L 354.72 372.672 
L 369.6 372.672 
L 384.48 372.672 
L 399.36 372.672 
L 414.24 372.672 
L 429.12 372.672 
L 444 372.672 
L 458.88 372.672 
L 473.76 372.672 
L 488.64 372.672 
L 503.52 372.672 
L 518.4 372.672 
" style="fill:none;stroke:#ffa95b;stroke-linecap:square;"/>
   </g>
   <g id="line2d_12">
    <path clip-path="url(#p63784c4cf3)" d="M 86.88 356.544 
L 101.76 346.176 
L 116.64 346.176 
L 131.52 345.024 
L 146.4 345.024 
L 161.28 345.024 
L 176.16 345.024 
L 191.04 345.024 
L 205.92 345.024 
L 220.8 345.024 
L 235.68 345.024 
L 250.56 345.024 
L 265.44 345.024 
L 280.32 345.024 
L 295.2 345.024 
L 310.08 345.024 
L 324.96 345.024 
L 339.84 345.024 
L 354.72 345.024 
L 369.6 345.024 
L 384.48 345.024 
L 399.36 345.024 
L 414.24 345.024 
L 429.12 345.024 
L 444 345.024 
L 458.88 345.024 
L 473.76 345.024 
L 488.64 345.024 
L 503.52 345.024 
L 518.4 345.024 
" style="fill:none;stroke:#ff763d;stroke-linecap:square;"/>
   </g>
   <g id="line2d_13">
    <path clip-path="url(#p63784c4cf3)" d="M 86.88 388.8 
L 101.76 388.8 
L 116.64 388.8 
L 131.52 388.8 
L 146.4 388.8 
L 161.28 388.8 
L 176.16 388.8 
L 191.04 388.8 
L 205.92 388.8 
L 220.8 388.8 
L 235.68 388.8 
L 250.56 388.8 
L 265.44 388.8 
L 280.32 388.8 
L 295.2 388.8 
L 310.08 388.8 
L 324.96 388.8 
L 339.84 388.8 
L 354.72 388.8 
L 369.6 388.8 
L 384.48 388.8 
L 399.36 388.8 
L 414.24 388.8 
L 429.12 388.8 
L 444 388.8 
L 458.88 388.8 
L 473.76 388.8 
L 488.64 388.8 
L 503.52 388.8 
L 518.4 388.8 
" style="fill:none;stroke:#ff3b1e;stroke-linecap:square;"/>
   </g>
   <g id="line2d_14">
    <path clip-path="url(#p63784c4cf3)" d="M 86.88 294.336 
L 101.76 270.144 
L 116.64 264.384 
L 131.52 260.928 
L 146.4 260.928 
L 161.28 260.928 
L 176.16 260.928 
L 191.04 260.928 
L 205.92 260.928 
L 220.8 260.928 
L 235.68 260.928 
L 250.56 260.928 
L 265.44 260.928 
L 280.32 260.928 
L 295.2 260.928 
L 310.08 260.928 
L 324.96 260.928 
L 339.84 260.928 
L 354.72 260.928 
L 369.6 260.928 
L 384.48 259.776 
L 399.36 259.776 
L 414.24 259.776 
L 429.12 259.776 
L 444 259.776 
L 458.88 259.776 
L 473.76 259.776 
L 488.64 259.776 
L 503.52 259.776 
L 518.4 259.776 
" style="fill:none;stroke:#ff0000;stroke-linecap:square;"/>
   </g>
   <g id="patch_3">
    <path d="M 72 388.8 
L 72 43.2 
" style="fill:none;stroke:#000000;stroke-linecap:square;stroke-linejoin:miter;"/>
   </g>
   <g id="patch_4">
    <path d="M 72 388.8 
L 518.4 388.8 
" style="fill:none;stroke:#000000;stroke-linecap:square;stroke-linejoin:miter;"/>
   </g>
   <g id="patch_5">
    <path d="M 518.4 388.8 
L 518.4 43.2 
" style="fill:none;stroke:#000000;stroke-linecap:square;stroke-linejoin:miter;"/>
   </g>
   <g id="patch_6">
    <path d="M 72 43.2 
L 518.4 43.2 
" style="fill:none;stroke:#000000;stroke-linecap:square;stroke-linejoin:miter;"/>
   </g>
   <g id="matplotlib.axis_1">
    <g id="xtick_1">
     <g id="line2d_15">
      <defs>
       <path d="M 0 0 
L 0 -4 
" id="m0fd6404bc0" style="stroke:#000000;stroke-width:0.5;"/>
      </defs>
      <g>
       <use style="stroke:#000000;stroke-width:0.5;" x="72.0" xlink:href="#m0fd6404bc0" y="388.8"/>
      </g>
     </g>
     <g id="line2d_16">
      <defs>
       <path d="M 0 0 
L 0 4 
" id="m56918c703f" style="stroke:#000000;stroke-width:0.5;"/>
      </defs>
      <g>
       <use style="stroke:#000000;stroke-width:0.5;" x="72.0" xlink:href="#m56918c703f" y="43.2"/>
      </g>
     </g>
     <g id="text_1">
      <!-- 0 -->
      <defs>
       <path d="M 31.78125 66.40625 
Q 24.171875 66.40625 20.328125 58.90625 
Q 16.5 51.421875 16.5 36.375 
Q 16.5 21.390625 20.328125 13.890625 
Q 24.171875 6.390625 31.78125 6.390625 
Q 39.453125 6.390625 43.28125 13.890625 
Q 47.125 21.390625 47.125 36.375 
Q 47.125 51.421875 43.28125 58.90625 
Q 39.453125 66.40625 31.78125 66.40625 
M 31.78125 74.21875 
Q 44.046875 74.21875 50.515625 64.515625 
Q 56.984375 54.828125 56.984375 36.375 
Q 56.984375 17.96875 50.515625 8.265625 
Q 44.046875 -1.421875 31.78125 -1.421875 
Q 19.53125 -1.421875 13.0625 8.265625 
Q 6.59375 17.96875 6.59375 36.375 
Q 6.59375 54.828125 13.0625 64.515625 
Q 19.53125 74.21875 31.78125 74.21875 
" id="BitstreamVeraSans-Roman-30"/>
      </defs>
      <g transform="translate(68.1825 401.918125)scale(0.12 -0.12)">
       <use xlink:href="#BitstreamVeraSans-Roman-30"/>
      </g>
     </g>
    </g>
    <g id="xtick_2">
     <g id="line2d_17">
      <g>
       <use style="stroke:#000000;stroke-width:0.5;" x="146.4" xlink:href="#m0fd6404bc0" y="388.8"/>
      </g>
     </g>
     <g id="line2d_18">
      <g>
       <use style="stroke:#000000;stroke-width:0.5;" x="146.4" xlink:href="#m56918c703f" y="43.2"/>
      </g>
     </g>
     <g id="text_2">
      <!-- 5 -->
      <defs>
       <path d="M 10.796875 72.90625 
L 49.515625 72.90625 
L 49.515625 64.59375 
L 19.828125 64.59375 
L 19.828125 46.734375 
Q 21.96875 47.46875 24.109375 47.828125 
Q 26.265625 48.1875 28.421875 48.1875 
Q 40.625 48.1875 47.75 41.5 
Q 54.890625 34.8125 54.890625 23.390625 
Q 54.890625 11.625 47.5625 5.09375 
Q 40.234375 -1.421875 26.90625 -1.421875 
Q 22.3125 -1.421875 17.546875 -0.640625 
Q 12.796875 0.140625 7.71875 1.703125 
L 7.71875 11.625 
Q 12.109375 9.234375 16.796875 8.0625 
Q 21.484375 6.890625 26.703125 6.890625 
Q 35.15625 6.890625 40.078125 11.328125 
Q 45.015625 15.765625 45.015625 23.390625 
Q 45.015625 31 40.078125 35.4375 
Q 35.15625 39.890625 26.703125 39.890625 
Q 22.75 39.890625 18.8125 39.015625 
Q 14.890625 38.140625 10.796875 36.28125 
z
" id="BitstreamVeraSans-Roman-35"/>
      </defs>
      <g transform="translate(142.5825 401.918125)scale(0.12 -0.12)">
       <use xlink:href="#BitstreamVeraSans-Roman-35"/>
      </g>
     </g>
    </g>
    <g id="xtick_3">
     <g id="line2d_19">
      <g>
       <use style="stroke:#000000;stroke-width:0.5;" x="220.8" xlink:href="#m0fd6404bc0" y="388.8"/>
      </g>
     </g>
     <g id="line2d_20">
      <g>
       <use style="stroke:#000000;stroke-width:0.5;" x="220.8" xlink:href="#m56918c703f" y="43.2"/>
      </g>
     </g>
     <g id="text_3">
      <!-- 10 -->
      <defs>
       <path d="M 12.40625 8.296875 
L 28.515625 8.296875 
L 28.515625 63.921875 
L 10.984375 60.40625 
L 10.984375 69.390625 
L 28.421875 72.90625 
L 38.28125 72.90625 
L 38.28125 8.296875 
L 54.390625 8.296875 
L 54.390625 0 
L 12.40625 0 
z
" id="BitstreamVeraSans-Roman-31"/>
      </defs>
      <g transform="translate(213.165 401.918125)scale(0.12 -0.12)">
       <use xlink:href="#BitstreamVeraSans-Roman-31"/>
       <use x="63.623046875" xlink:href="#BitstreamVeraSans-Roman-30"/>
      </g>
     </g>
    </g>
    <g id="xtick_4">
     <g id="line2d_21">
      <g>
       <use style="stroke:#000000;stroke-width:0.5;" x="295.2" xlink:href="#m0fd6404bc0" y="388.8"/>
      </g>
     </g>
     <g id="line2d_22">
      <g>
       <use style="stroke:#000000;stroke-width:0.5;" x="295.2" xlink:href="#m56918c703f" y="43.2"/>
      </g>
     </g>
     <g id="text_4">
      <!-- 15 -->
      <g transform="translate(287.565 401.918125)scale(0.12 -0.12)">
       <use xlink:href="#BitstreamVeraSans-Roman-31"/>
       <use x="63.623046875" xlink:href="#BitstreamVeraSans-Roman-35"/>
      </g>
     </g>
    </g>
    <g id="xtick_5">
     <g id="line2d_23">
      <g>
       <use style="stroke:#000000;stroke-width:0.5;" x="369.6" xlink:href="#m0fd6404bc0" y="388.8"/>
      </g>
     </g>
     <g id="line2d_24">
      <g>
       <use style="stroke:#000000;stroke-width:0.5;" x="369.6" xlink:href="#m56918c703f" y="43.2"/>
      </g>
     </g>
     <g id="text_5">
      <!-- 20 -->
      <defs>
       <path d="M 19.1875 8.296875 
L 53.609375 8.296875 
L 53.609375 0 
L 7.328125 0 
L 7.328125 8.296875 
Q 12.9375 14.109375 22.625 23.890625 
Q 32.328125 33.6875 34.8125 36.53125 
Q 39.546875 41.84375 41.421875 45.53125 
Q 43.3125 49.21875 43.3125 52.78125 
Q 43.3125 58.59375 39.234375 62.25 
Q 35.15625 65.921875 28.609375 65.921875 
Q 23.96875 65.921875 18.8125 64.3125 
Q 13.671875 62.703125 7.8125 59.421875 
L 7.8125 69.390625 
Q 13.765625 71.78125 18.9375 73 
Q 24.125 74.21875 28.421875 74.21875 
Q 39.75 74.21875 46.484375 68.546875 
Q 53.21875 62.890625 53.21875 53.421875 
Q 53.21875 48.921875 51.53125 44.890625 
Q 49.859375 40.875 45.40625 35.40625 
Q 44.1875 33.984375 37.640625 27.21875 
Q 31.109375 20.453125 19.1875 8.296875 
" id="BitstreamVeraSans-Roman-32"/>
      </defs>
      <g transform="translate(361.965 401.918125)scale(0.12 -0.12)">
       <use xlink:href="#BitstreamVeraSans-Roman-32"/>
       <use x="63.623046875" xlink:href="#BitstreamVeraSans-Roman-30"/>
      </g>
     </g>
    </g>
    <g id="xtick_6">
     <g id="line2d_25">
      <g>
       <use style="stroke:#000000;stroke-width:0.5;" x="444.0" xlink:href="#m0fd6404bc0" y="388.8"/>
      </g>
     </g>
     <g id="line2d_26">
      <g>
       <use style="stroke:#000000;stroke-width:0.5;" x="444.0" xlink:href="#m56918c703f" y="43.2"/>
      </g>
     </g>
     <g id="text_6">
      <!-- 25 -->
      <g transform="translate(436.365 401.918125)scale(0.12 -0.12)">
       <use xlink:href="#BitstreamVeraSans-Roman-32"/>
       <use x="63.623046875" xlink:href="#BitstreamVeraSans-Roman-35"/>
      </g>
     </g>
    </g>
    <g id="xtick_7">
     <g id="line2d_27">
      <g>
       <use style="stroke:#000000;stroke-width:0.5;" x="518.4" xlink:href="#m0fd6404bc0" y="388.8"/>
      </g>
     </g>
     <g id="line2d_28">
      <g>
       <use style="stroke:#000000;stroke-width:0.5;" x="518.4" xlink:href="#m56918c703f" y="43.2"/>
      </g>
     </g>
     <g id="text_7">
      <!-- 30 -->
      <defs>
       <path d="M 40.578125 39.3125 
Q 47.65625 37.796875 51.625 33 
Q 55.609375 28.21875 55.609375 21.1875 
Q 55.609375 10.40625 48.1875 4.484375 
Q 40.765625 -1.421875 27.09375 -1.421875 
Q 22.515625 -1.421875 17.65625 -0.515625 
Q 12.796875 0.390625 7.625 2.203125 
L 7.625 11.71875 
Q 11.71875 9.328125 16.59375 8.109375 
Q 21.484375 6.890625 26.8125 6.890625 
Q 36.078125 6.890625 40.9375 10.546875 
Q 45.796875 14.203125 45.796875 21.1875 
Q 45.796875 27.640625 41.28125 31.265625 
Q 36.765625 34.90625 28.71875 34.90625 
L 20.21875 34.90625 
L 20.21875 43.015625 
L 29.109375 43.015625 
Q 36.375 43.015625 40.234375 45.921875 
Q 44.09375 48.828125 44.09375 54.296875 
Q 44.09375 59.90625 40.109375 62.90625 
Q 36.140625 65.921875 28.71875 65.921875 
Q 24.65625 65.921875 20.015625 65.03125 
Q 15.375 64.15625 9.8125 62.3125 
L 9.8125 71.09375 
Q 15.4375 72.65625 20.34375 73.4375 
Q 25.25 74.21875 29.59375 74.21875 
Q 40.828125 74.21875 47.359375 69.109375 
Q 53.90625 64.015625 53.90625 55.328125 
Q 53.90625 49.265625 50.4375 45.09375 
Q 46.96875 40.921875 40.578125 39.3125 
" id="BitstreamVeraSans-Roman-33"/>
      </defs>
      <g transform="translate(510.765 401.918125)scale(0.12 -0.12)">
       <use xlink:href="#BitstreamVeraSans-Roman-33"/>
       <use x="63.623046875" xlink:href="#BitstreamVeraSans-Roman-30"/>
      </g>
     </g>
    </g>
    <g id="text_8">
     <!-- number of index changed -->
     <defs>
      <path d="M 8.5 21.578125 
L 8.5 54.6875 
L 17.484375 54.6875 
L 17.484375 21.921875 
Q 17.484375 14.15625 20.5 10.265625 
Q 23.53125 6.390625 29.59375 6.390625 
Q 36.859375 6.390625 41.078125 11.03125 
Q 45.3125 15.671875 45.3125 23.6875 
L 45.3125 54.6875 
L 54.296875 54.6875 
L 54.296875 0 
L 45.3125 0 
L 45.3125 8.40625 
Q 42.046875 3.421875 37.71875 1 
Q 33.40625 -1.421875 27.6875 -1.421875 
Q 18.265625 -1.421875 13.375 4.4375 
Q 8.5 10.296875 8.5 21.578125 
" id="BitstreamVeraSans-Roman-75"/>
      <path d="M 30.609375 48.390625 
Q 23.390625 48.390625 19.1875 42.75 
Q 14.984375 37.109375 14.984375 27.296875 
Q 14.984375 17.484375 19.15625 11.84375 
Q 23.34375 6.203125 30.609375 6.203125 
Q 37.796875 6.203125 41.984375 11.859375 
Q 46.1875 17.53125 46.1875 27.296875 
Q 46.1875 37.015625 41.984375 42.703125 
Q 37.796875 48.390625 30.609375 48.390625 
M 30.609375 56 
Q 42.328125 56 49.015625 48.375 
Q 55.71875 40.765625 55.71875 27.296875 
Q 55.71875 13.875 49.015625 6.21875 
Q 42.328125 -1.421875 30.609375 -1.421875 
Q 18.84375 -1.421875 12.171875 6.21875 
Q 5.515625 13.875 5.515625 27.296875 
Q 5.515625 40.765625 12.171875 48.375 
Q 18.84375 56 30.609375 56 
" id="BitstreamVeraSans-Roman-6f"/>
      <path d="M 56.203125 29.59375 
L 56.203125 25.203125 
L 14.890625 25.203125 
Q 15.484375 15.921875 20.484375 11.0625 
Q 25.484375 6.203125 34.421875 6.203125 
Q 39.59375 6.203125 44.453125 7.46875 
Q 49.3125 8.734375 54.109375 11.28125 
L 54.109375 2.78125 
Q 49.265625 0.734375 44.1875 -0.34375 
Q 39.109375 -1.421875 33.890625 -1.421875 
Q 20.796875 -1.421875 13.15625 6.1875 
Q 5.515625 13.8125 5.515625 26.8125 
Q 5.515625 40.234375 12.765625 48.109375 
Q 20.015625 56 32.328125 56 
Q 43.359375 56 49.78125 48.890625 
Q 56.203125 41.796875 56.203125 29.59375 
M 47.21875 32.234375 
Q 47.125 39.59375 43.09375 43.984375 
Q 39.0625 48.390625 32.421875 48.390625 
Q 24.90625 48.390625 20.390625 44.140625 
Q 15.875 39.890625 15.1875 32.171875 
z
" id="BitstreamVeraSans-Roman-65"/>
      <path d="M 48.78125 52.59375 
L 48.78125 44.1875 
Q 44.96875 46.296875 41.140625 47.34375 
Q 37.3125 48.390625 33.40625 48.390625 
Q 24.65625 48.390625 19.8125 42.84375 
Q 14.984375 37.3125 14.984375 27.296875 
Q 14.984375 17.28125 19.8125 11.734375 
Q 24.65625 6.203125 33.40625 6.203125 
Q 37.3125 6.203125 41.140625 7.25 
Q 44.96875 8.296875 48.78125 10.40625 
L 48.78125 2.09375 
Q 45.015625 0.34375 40.984375 -0.53125 
Q 36.96875 -1.421875 32.421875 -1.421875 
Q 20.0625 -1.421875 12.78125 6.34375 
Q 5.515625 14.109375 5.515625 27.296875 
Q 5.515625 40.671875 12.859375 48.328125 
Q 20.21875 56 33.015625 56 
Q 37.15625 56 41.109375 55.140625 
Q 45.0625 54.296875 48.78125 52.59375 
" id="BitstreamVeraSans-Roman-63"/>
      <path d="M 52 44.1875 
Q 55.375 50.25 60.0625 53.125 
Q 64.75 56 71.09375 56 
Q 79.640625 56 84.28125 50.015625 
Q 88.921875 44.046875 88.921875 33.015625 
L 88.921875 0 
L 79.890625 0 
L 79.890625 32.71875 
Q 79.890625 40.578125 77.09375 44.375 
Q 74.3125 48.1875 68.609375 48.1875 
Q 61.625 48.1875 57.5625 43.546875 
Q 53.515625 38.921875 53.515625 30.90625 
L 53.515625 0 
L 44.484375 0 
L 44.484375 32.71875 
Q 44.484375 40.625 41.703125 44.40625 
Q 38.921875 48.1875 33.109375 48.1875 
Q 26.21875 48.1875 22.15625 43.53125 
Q 18.109375 38.875 18.109375 30.90625 
L 18.109375 0 
L 9.078125 0 
L 9.078125 54.6875 
L 18.109375 54.6875 
L 18.109375 46.1875 
Q 21.1875 51.21875 25.484375 53.609375 
Q 29.78125 56 35.6875 56 
Q 41.65625 56 45.828125 52.96875 
Q 50 49.953125 52 44.1875 
" id="BitstreamVeraSans-Roman-6d"/>
      <path d="M 41.109375 46.296875 
Q 39.59375 47.171875 37.8125 47.578125 
Q 36.03125 48 33.890625 48 
Q 26.265625 48 22.1875 43.046875 
Q 18.109375 38.09375 18.109375 28.8125 
L 18.109375 0 
L 9.078125 0 
L 9.078125 54.6875 
L 18.109375 54.6875 
L 18.109375 46.1875 
Q 20.953125 51.171875 25.484375 53.578125 
Q 30.03125 56 36.53125 56 
Q 37.453125 56 38.578125 55.875 
Q 39.703125 55.765625 41.0625 55.515625 
z
" id="BitstreamVeraSans-Roman-72"/>
      <path d="M 54.890625 54.6875 
L 35.109375 28.078125 
L 55.90625 0 
L 45.3125 0 
L 29.390625 21.484375 
L 13.484375 0 
L 2.875 0 
L 24.125 28.609375 
L 4.6875 54.6875 
L 15.28125 54.6875 
L 29.78125 35.203125 
L 44.28125 54.6875 
z
" id="BitstreamVeraSans-Roman-78"/>
      <path d="M 37.109375 75.984375 
L 37.109375 68.5 
L 28.515625 68.5 
Q 23.6875 68.5 21.796875 66.546875 
Q 19.921875 64.59375 19.921875 59.515625 
L 19.921875 54.6875 
L 34.71875 54.6875 
L 34.71875 47.703125 
L 19.921875 47.703125 
L 19.921875 0 
L 10.890625 0 
L 10.890625 47.703125 
L 2.296875 47.703125 
L 2.296875 54.6875 
L 10.890625 54.6875 
L 10.890625 58.5 
Q 10.890625 67.625 15.140625 71.796875 
Q 19.390625 75.984375 28.609375 75.984375 
z
" id="BitstreamVeraSans-Roman-66"/>
      <path d="M 9.421875 54.6875 
L 18.40625 54.6875 
L 18.40625 0 
L 9.421875 0 
z
M 9.421875 75.984375 
L 18.40625 75.984375 
L 18.40625 64.59375 
L 9.421875 64.59375 
z
" id="BitstreamVeraSans-Roman-69"/>
      <path d="M 45.40625 27.984375 
Q 45.40625 37.75 41.375 43.109375 
Q 37.359375 48.484375 30.078125 48.484375 
Q 22.859375 48.484375 18.828125 43.109375 
Q 14.796875 37.75 14.796875 27.984375 
Q 14.796875 18.265625 18.828125 12.890625 
Q 22.859375 7.515625 30.078125 7.515625 
Q 37.359375 7.515625 41.375 12.890625 
Q 45.40625 18.265625 45.40625 27.984375 
M 54.390625 6.78125 
Q 54.390625 -7.171875 48.1875 -13.984375 
Q 42 -20.796875 29.203125 -20.796875 
Q 24.46875 -20.796875 20.265625 -20.09375 
Q 16.0625 -19.390625 12.109375 -17.921875 
L 12.109375 -9.1875 
Q 16.0625 -11.328125 19.921875 -12.34375 
Q 23.78125 -13.375 27.78125 -13.375 
Q 36.625 -13.375 41.015625 -8.765625 
Q 45.40625 -4.15625 45.40625 5.171875 
L 45.40625 9.625 
Q 42.625 4.78125 38.28125 2.390625 
Q 33.9375 0 27.875 0 
Q 17.828125 0 11.671875 7.65625 
Q 5.515625 15.328125 5.515625 27.984375 
Q 5.515625 40.671875 11.671875 48.328125 
Q 17.828125 56 27.875 56 
Q 33.9375 56 38.28125 53.609375 
Q 42.625 51.21875 45.40625 46.390625 
L 45.40625 54.6875 
L 54.390625 54.6875 
z
" id="BitstreamVeraSans-Roman-67"/>
      <path d="M 54.890625 33.015625 
L 54.890625 0 
L 45.90625 0 
L 45.90625 32.71875 
Q 45.90625 40.484375 42.875 44.328125 
Q 39.84375 48.1875 33.796875 48.1875 
Q 26.515625 48.1875 22.3125 43.546875 
Q 18.109375 38.921875 18.109375 30.90625 
L 18.109375 0 
L 9.078125 0 
L 9.078125 54.6875 
L 18.109375 54.6875 
L 18.109375 46.1875 
Q 21.34375 51.125 25.703125 53.5625 
Q 30.078125 56 35.796875 56 
Q 45.21875 56 50.046875 50.171875 
Q 54.890625 44.34375 54.890625 33.015625 
" id="BitstreamVeraSans-Roman-6e"/>
      <path d="M 45.40625 46.390625 
L 45.40625 75.984375 
L 54.390625 75.984375 
L 54.390625 0 
L 45.40625 0 
L 45.40625 8.203125 
Q 42.578125 3.328125 38.25 0.953125 
Q 33.9375 -1.421875 27.875 -1.421875 
Q 17.96875 -1.421875 11.734375 6.484375 
Q 5.515625 14.40625 5.515625 27.296875 
Q 5.515625 40.1875 11.734375 48.09375 
Q 17.96875 56 27.875 56 
Q 33.9375 56 38.25 53.625 
Q 42.578125 51.265625 45.40625 46.390625 
M 14.796875 27.296875 
Q 14.796875 17.390625 18.875 11.75 
Q 22.953125 6.109375 30.078125 6.109375 
Q 37.203125 6.109375 41.296875 11.75 
Q 45.40625 17.390625 45.40625 27.296875 
Q 45.40625 37.203125 41.296875 42.84375 
Q 37.203125 48.484375 30.078125 48.484375 
Q 22.953125 48.484375 18.875 42.84375 
Q 14.796875 37.203125 14.796875 27.296875 
" id="BitstreamVeraSans-Roman-64"/>
      <path d="M 34.28125 27.484375 
Q 23.390625 27.484375 19.1875 25 
Q 14.984375 22.515625 14.984375 16.5 
Q 14.984375 11.71875 18.140625 8.90625 
Q 21.296875 6.109375 26.703125 6.109375 
Q 34.1875 6.109375 38.703125 11.40625 
Q 43.21875 16.703125 43.21875 25.484375 
L 43.21875 27.484375 
z
M 52.203125 31.203125 
L 52.203125 0 
L 43.21875 0 
L 43.21875 8.296875 
Q 40.140625 3.328125 35.546875 0.953125 
Q 30.953125 -1.421875 24.3125 -1.421875 
Q 15.921875 -1.421875 10.953125 3.296875 
Q 6 8.015625 6 15.921875 
Q 6 25.140625 12.171875 29.828125 
Q 18.359375 34.515625 30.609375 34.515625 
L 43.21875 34.515625 
L 43.21875 35.40625 
Q 43.21875 41.609375 39.140625 45 
Q 35.0625 48.390625 27.6875 48.390625 
Q 23 48.390625 18.546875 47.265625 
Q 14.109375 46.140625 10.015625 43.890625 
L 10.015625 52.203125 
Q 14.9375 54.109375 19.578125 55.046875 
Q 24.21875 56 28.609375 56 
Q 40.484375 56 46.34375 49.84375 
Q 52.203125 43.703125 52.203125 31.203125 
" id="BitstreamVeraSans-Roman-61"/>
      <path id="BitstreamVeraSans-Roman-20"/>
      <path d="M 54.890625 33.015625 
L 54.890625 0 
L 45.90625 0 
L 45.90625 32.71875 
Q 45.90625 40.484375 42.875 44.328125 
Q 39.84375 48.1875 33.796875 48.1875 
Q 26.515625 48.1875 22.3125 43.546875 
Q 18.109375 38.921875 18.109375 30.90625 
L 18.109375 0 
L 9.078125 0 
L 9.078125 75.984375 
L 18.109375 75.984375 
L 18.109375 46.1875 
Q 21.34375 51.125 25.703125 53.5625 
Q 30.078125 56 35.796875 56 
Q 45.21875 56 50.046875 50.171875 
Q 54.890625 44.34375 54.890625 33.015625 
" id="BitstreamVeraSans-Roman-68"/>
      <path d="M 48.6875 27.296875 
Q 48.6875 37.203125 44.609375 42.84375 
Q 40.53125 48.484375 33.40625 48.484375 
Q 26.265625 48.484375 22.1875 42.84375 
Q 18.109375 37.203125 18.109375 27.296875 
Q 18.109375 17.390625 22.1875 11.75 
Q 26.265625 6.109375 33.40625 6.109375 
Q 40.53125 6.109375 44.609375 11.75 
Q 48.6875 17.390625 48.6875 27.296875 
M 18.109375 46.390625 
Q 20.953125 51.265625 25.265625 53.625 
Q 29.59375 56 35.59375 56 
Q 45.5625 56 51.78125 48.09375 
Q 58.015625 40.1875 58.015625 27.296875 
Q 58.015625 14.40625 51.78125 6.484375 
Q 45.5625 -1.421875 35.59375 -1.421875 
Q 29.59375 -1.421875 25.265625 0.953125 
Q 20.953125 3.328125 18.109375 8.203125 
L 18.109375 0 
L 9.078125 0 
L 9.078125 75.984375 
L 18.109375 75.984375 
z
" id="BitstreamVeraSans-Roman-62"/>
     </defs>
     <g transform="translate(217.8675 418.531875)scale(0.12 -0.12)">
      <use xlink:href="#BitstreamVeraSans-Roman-6e"/>
      <use x="63.37890625" xlink:href="#BitstreamVeraSans-Roman-75"/>
      <use x="126.7578125" xlink:href="#BitstreamVeraSans-Roman-6d"/>
      <use x="224.169921875" xlink:href="#BitstreamVeraSans-Roman-62"/>
      <use x="287.646484375" xlink:href="#BitstreamVeraSans-Roman-65"/>
      <use x="349.169921875" xlink:href="#BitstreamVeraSans-Roman-72"/>
      <use x="390.283203125" xlink:href="#BitstreamVeraSans-Roman-20"/>
      <use x="422.0703125" xlink:href="#BitstreamVeraSans-Roman-6f"/>
      <use x="483.251953125" xlink:href="#BitstreamVeraSans-Roman-66"/>
      <use x="518.45703125" xlink:href="#BitstreamVeraSans-Roman-20"/>
      <use x="550.244140625" xlink:href="#BitstreamVeraSans-Roman-69"/>
      <use x="578.02734375" xlink:href="#BitstreamVeraSans-Roman-6e"/>
      <use x="641.40625" xlink:href="#BitstreamVeraSans-Roman-64"/>
      <use x="704.8828125" xlink:href="#BitstreamVeraSans-Roman-65"/>
      <use x="766.390625" xlink:href="#BitstreamVeraSans-Roman-78"/>
      <use x="825.5703125" xlink:href="#BitstreamVeraSans-Roman-20"/>
      <use x="857.357421875" xlink:href="#BitstreamVeraSans-Roman-63"/>
      <use x="912.337890625" xlink:href="#BitstreamVeraSans-Roman-68"/>
      <use x="975.716796875" xlink:href="#BitstreamVeraSans-Roman-61"/>
      <use x="1036.99609375" xlink:href="#BitstreamVeraSans-Roman-6e"/>
      <use x="1100.375" xlink:href="#BitstreamVeraSans-Roman-67"/>
      <use x="1163.8515625" xlink:href="#BitstreamVeraSans-Roman-65"/>
      <use x="1225.375" xlink:href="#BitstreamVeraSans-Roman-64"/>
     </g>
    </g>
   </g>
   <g id="matplotlib.axis_2">
    <g id="ytick_1">
     <g id="line2d_29">
      <defs>
       <path d="M 0 0 
L 4 0 
" id="m044abc6f0f" style="stroke:#000000;stroke-width:0.5;"/>
      </defs>
      <g>
       <use style="stroke:#000000;stroke-width:0.5;" x="72.0" xlink:href="#m044abc6f0f" y="388.8"/>
      </g>
     </g>
     <g id="line2d_30">
      <defs>
       <path d="M 0 0 
L -4 0 
" id="m177c073fd0" style="stroke:#000000;stroke-width:0.5;"/>
      </defs>
      <g>
       <use style="stroke:#000000;stroke-width:0.5;" x="518.4" xlink:href="#m177c073fd0" y="388.8"/>
      </g>
     </g>
     <g id="text_9">
      <!-- 0 -->
      <g transform="translate(60.365 392.11125)scale(0.12 -0.12)">
       <use xlink:href="#BitstreamVeraSans-Roman-30"/>
      </g>
     </g>
    </g>
    <g id="ytick_2">
     <g id="line2d_31">
      <g>
       <use style="stroke:#000000;stroke-width:0.5;" x="72.0" xlink:href="#m044abc6f0f" y="331.2"/>
      </g>
     </g>
     <g id="line2d_32">
      <g>
       <use style="stroke:#000000;stroke-width:0.5;" x="518.4" xlink:href="#m177c073fd0" y="331.2"/>
      </g>
     </g>
     <g id="text_10">
      <!-- 50 -->
      <g transform="translate(52.73 334.51125)scale(0.12 -0.12)">
       <use xlink:href="#BitstreamVeraSans-Roman-35"/>
       <use x="63.623046875" xlink:href="#BitstreamVeraSans-Roman-30"/>
      </g>
     </g>
    </g>
    <g id="ytick_3">
     <g id="line2d_33">
      <g>
       <use style="stroke:#000000;stroke-width:0.5;" x="72.0" xlink:href="#m044abc6f0f" y="273.6"/>
      </g>
     </g>
     <g id="line2d_34">
      <g>
       <use style="stroke:#000000;stroke-width:0.5;" x="518.4" xlink:href="#m177c073fd0" y="273.6"/>
      </g>
     </g>
     <g id="text_11">
      <!-- 100 -->
      <g transform="translate(45.095 276.91125)scale(0.12 -0.12)">
       <use xlink:href="#BitstreamVeraSans-Roman-31"/>
       <use x="63.623046875" xlink:href="#BitstreamVeraSans-Roman-30"/>
       <use x="127.24609375" xlink:href="#BitstreamVeraSans-Roman-30"/>
      </g>
     </g>
    </g>
    <g id="ytick_4">
     <g id="line2d_35">
      <g>
       <use style="stroke:#000000;stroke-width:0.5;" x="72.0" xlink:href="#m044abc6f0f" y="216.0"/>
      </g>
     </g>
     <g id="line2d_36">
      <g>
       <use style="stroke:#000000;stroke-width:0.5;" x="518.4" xlink:href="#m177c073fd0" y="216.0"/>
      </g>
     </g>
     <g id="text_12">
      <!-- 150 -->
      <g transform="translate(45.095 219.31125)scale(0.12 -0.12)">
       <use xlink:href="#BitstreamVeraSans-Roman-31"/>
       <use x="63.623046875" xlink:href="#BitstreamVeraSans-Roman-35"/>
       <use x="127.24609375" xlink:href="#BitstreamVeraSans-Roman-30"/>
      </g>
     </g>
    </g>
    <g id="ytick_5">
     <g id="line2d_37">
      <g>
       <use style="stroke:#000000;stroke-width:0.5;" x="72.0" xlink:href="#m044abc6f0f" y="158.4"/>
      </g>
     </g>
     <g id="line2d_38">
      <g>
       <use style="stroke:#000000;stroke-width:0.5;" x="518.4" xlink:href="#m177c073fd0" y="158.4"/>
      </g>
     </g>
     <g id="text_13">
      <!-- 200 -->
      <g transform="translate(45.095 161.71125)scale(0.12 -0.12)">
       <use xlink:href="#BitstreamVeraSans-Roman-32"/>
       <use x="63.623046875" xlink:href="#BitstreamVeraSans-Roman-30"/>
       <use x="127.24609375" xlink:href="#BitstreamVeraSans-Roman-30"/>
      </g>
     </g>
    </g>
    <g id="ytick_6">
     <g id="line2d_39">
      <g>
       <use style="stroke:#000000;stroke-width:0.5;" x="72.0" xlink:href="#m044abc6f0f" y="100.8"/>
      </g>
     </g>
     <g id="line2d_40">
      <g>
       <use style="stroke:#000000;stroke-width:0.5;" x="518.4" xlink:href="#m177c073fd0" y="100.8"/>
      </g>
     </g>
     <g id="text_14">
      <!-- 250 -->
      <g transform="translate(45.095 104.11125)scale(0.12 -0.12)">
       <use xlink:href="#BitstreamVeraSans-Roman-32"/>
       <use x="63.623046875" xlink:href="#BitstreamVeraSans-Roman-35"/>
       <use x="127.24609375" xlink:href="#BitstreamVeraSans-Roman-30"/>
      </g>
     </g>
    </g>
    <g id="ytick_7">
     <g id="line2d_41">
      <g>
       <use style="stroke:#000000;stroke-width:0.5;" x="72.0" xlink:href="#m044abc6f0f" y="43.2"/>
      </g>
     </g>
     <g id="line2d_42">
      <g>
       <use style="stroke:#000000;stroke-width:0.5;" x="518.4" xlink:href="#m177c073fd0" y="43.2"/>
      </g>
     </g>
     <g id="text_15">
      <!-- 300 -->
      <g transform="translate(45.095 46.51125)scale(0.12 -0.12)">
       <use xlink:href="#BitstreamVeraSans-Roman-33"/>
       <use x="63.623046875" xlink:href="#BitstreamVeraSans-Roman-30"/>
       <use x="127.24609375" xlink:href="#BitstreamVeraSans-Roman-30"/>
      </g>
     </g>
    </g>
    <g id="text_16">
     <!-- amount -->
     <defs>
      <path d="M 18.3125 70.21875 
L 18.3125 54.6875 
L 36.8125 54.6875 
L 36.8125 47.703125 
L 18.3125 47.703125 
L 18.3125 18.015625 
Q 18.3125 11.328125 20.140625 9.421875 
Q 21.96875 7.515625 27.59375 7.515625 
L 36.8125 7.515625 
L 36.8125 0 
L 27.59375 0 
Q 17.1875 0 13.234375 3.875 
Q 9.28125 7.765625 9.28125 18.015625 
L 9.28125 47.703125 
L 2.6875 47.703125 
L 2.6875 54.6875 
L 9.28125 54.6875 
L 9.28125 70.21875 
z
" id="BitstreamVeraSans-Roman-74"/>
     </defs>
     <g transform="translate(37.599375 239.1496875)rotate(-90.0)scale(0.12 -0.12)">
      <use xlink:href="#BitstreamVeraSans-Roman-61"/>
      <use x="61.279296875" xlink:href="#BitstreamVeraSans-Roman-6d"/>
      <use x="158.69140625" xlink:href="#BitstreamVeraSans-Roman-6f"/>
      <use x="219.873046875" xlink:href="#BitstreamVeraSans-Roman-75"/>
      <use x="283.251953125" xlink:href="#BitstreamVeraSans-Roman-6e"/>
      <use x="346.630859375" xlink:href="#BitstreamVeraSans-Roman-74"/>
     </g>
    </g>
   </g>
   <g id="text_17">
    <!-- accumulative number of sentences by index changed per -->
    <defs>
     <path d="M 2.984375 54.6875 
L 12.5 54.6875 
L 29.59375 8.796875 
L 46.6875 54.6875 
L 56.203125 54.6875 
L 35.6875 0 
L 23.484375 0 
z
" id="BitstreamVeraSans-Roman-76"/>
     <path d="M 9.421875 75.984375 
L 18.40625 75.984375 
L 18.40625 0 
L 9.421875 0 
z
" id="BitstreamVeraSans-Roman-6c"/>
     <path d="M 18.109375 8.203125 
L 18.109375 -20.796875 
L 9.078125 -20.796875 
L 9.078125 54.6875 
L 18.109375 54.6875 
L 18.109375 46.390625 
Q 20.953125 51.265625 25.265625 53.625 
Q 29.59375 56 35.59375 56 
Q 45.5625 56 51.78125 48.09375 
Q 58.015625 40.1875 58.015625 27.296875 
Q 58.015625 14.40625 51.78125 6.484375 
Q 45.5625 -1.421875 35.59375 -1.421875 
Q 29.59375 -1.421875 25.265625 0.953125 
Q 20.953125 3.328125 18.109375 8.203125 
M 48.6875 27.296875 
Q 48.6875 37.203125 44.609375 42.84375 
Q 40.53125 48.484375 33.40625 48.484375 
Q 26.265625 48.484375 22.1875 42.84375 
Q 18.109375 37.203125 18.109375 27.296875 
Q 18.109375 17.390625 22.1875 11.75 
Q 26.265625 6.109375 33.40625 6.109375 
Q 40.53125 6.109375 44.609375 11.75 
Q 48.6875 17.390625 48.6875 27.296875 
" id="BitstreamVeraSans-Roman-70"/>
     <path d="M 32.171875 -5.078125 
Q 28.375 -14.84375 24.75 -17.8125 
Q 21.140625 -20.796875 15.09375 -20.796875 
L 7.90625 -20.796875 
L 7.90625 -13.28125 
L 13.1875 -13.28125 
Q 16.890625 -13.28125 18.9375 -11.515625 
Q 21 -9.765625 23.484375 -3.21875 
L 25.09375 0.875 
L 2.984375 54.6875 
L 12.5 54.6875 
L 29.59375 11.921875 
L 46.6875 54.6875 
L 56.203125 54.6875 
z
" id="BitstreamVeraSans-Roman-79"/>
     <path d="M 44.28125 53.078125 
L 44.28125 44.578125 
Q 40.484375 46.53125 36.375 47.5 
Q 32.28125 48.484375 27.875 48.484375 
Q 21.1875 48.484375 17.84375 46.4375 
Q 14.5 44.390625 14.5 40.28125 
Q 14.5 37.15625 16.890625 35.375 
Q 19.28125 33.59375 26.515625 31.984375 
L 29.59375 31.296875 
Q 39.15625 29.25 43.1875 25.515625 
Q 47.21875 21.78125 47.21875 15.09375 
Q 47.21875 7.46875 41.1875 3.015625 
Q 35.15625 -1.421875 24.609375 -1.421875 
Q 20.21875 -1.421875 15.453125 -0.5625 
Q 10.6875 0.296875 5.421875 2 
L 5.421875 11.28125 
Q 10.40625 8.6875 15.234375 7.390625 
Q 20.0625 6.109375 24.8125 6.109375 
Q 31.15625 6.109375 34.5625 8.28125 
Q 37.984375 10.453125 37.984375 14.40625 
Q 37.984375 18.0625 35.515625 20.015625 
Q 33.0625 21.96875 24.703125 23.78125 
L 21.578125 24.515625 
Q 13.234375 26.265625 9.515625 29.90625 
Q 5.8125 33.546875 5.8125 39.890625 
Q 5.8125 47.609375 11.28125 51.796875 
Q 16.75 56 26.8125 56 
Q 31.78125 56 36.171875 55.265625 
Q 40.578125 54.546875 44.28125 53.078125 
" id="BitstreamVeraSans-Roman-73"/>
    </defs>
    <g transform="translate(87.3585 38.2)scale(0.144 -0.144)">
     <use xlink:href="#BitstreamVeraSans-Roman-61"/>
     <use x="61.279296875" xlink:href="#BitstreamVeraSans-Roman-63"/>
     <use x="116.259765625" xlink:href="#BitstreamVeraSans-Roman-63"/>
     <use x="171.240234375" xlink:href="#BitstreamVeraSans-Roman-75"/>
     <use x="234.619140625" xlink:href="#BitstreamVeraSans-Roman-6d"/>
     <use x="332.03125" xlink:href="#BitstreamVeraSans-Roman-75"/>
     <use x="395.41015625" xlink:href="#BitstreamVeraSans-Roman-6c"/>
     <use x="423.193359375" xlink:href="#BitstreamVeraSans-Roman-61"/>
     <use x="484.47265625" xlink:href="#BitstreamVeraSans-Roman-74"/>
     <use x="523.681640625" xlink:href="#BitstreamVeraSans-Roman-69"/>
     <use x="551.46484375" xlink:href="#BitstreamVeraSans-Roman-76"/>
     <use x="610.64453125" xlink:href="#BitstreamVeraSans-Roman-65"/>
     <use x="672.16796875" xlink:href="#BitstreamVeraSans-Roman-20"/>
     <use x="703.955078125" xlink:href="#BitstreamVeraSans-Roman-6e"/>
     <use x="767.333984375" xlink:href="#BitstreamVeraSans-Roman-75"/>
     <use x="830.712890625" xlink:href="#BitstreamVeraSans-Roman-6d"/>
     <use x="928.125" xlink:href="#BitstreamVeraSans-Roman-62"/>
     <use x="991.6015625" xlink:href="#BitstreamVeraSans-Roman-65"/>
     <use x="1053.125" xlink:href="#BitstreamVeraSans-Roman-72"/>
     <use x="1094.23828125" xlink:href="#BitstreamVeraSans-Roman-20"/>
     <use x="1126.025390625" xlink:href="#BitstreamVeraSans-Roman-6f"/>
     <use x="1187.20703125" xlink:href="#BitstreamVeraSans-Roman-66"/>
     <use x="1222.412109375" xlink:href="#BitstreamVeraSans-Roman-20"/>
     <use x="1254.19921875" xlink:href="#BitstreamVeraSans-Roman-73"/>
     <use x="1306.298828125" xlink:href="#BitstreamVeraSans-Roman-65"/>
     <use x="1367.822265625" xlink:href="#BitstreamVeraSans-Roman-6e"/>
     <use x="1431.201171875" xlink:href="#BitstreamVeraSans-Roman-74"/>
     <use x="1470.41015625" xlink:href="#BitstreamVeraSans-Roman-65"/>
     <use x="1531.93359375" xlink:href="#BitstreamVeraSans-Roman-6e"/>
     <use x="1595.3125" xlink:href="#BitstreamVeraSans-Roman-63"/>
     <use x="1650.29296875" xlink:href="#BitstreamVeraSans-Roman-65"/>
     <use x="1711.81640625" xlink:href="#BitstreamVeraSans-Roman-73"/>
     <use x="1763.916015625" xlink:href="#BitstreamVeraSans-Roman-20"/>
     <use x="1795.703125" xlink:href="#BitstreamVeraSans-Roman-62"/>
     <use x="1859.1796875" xlink:href="#BitstreamVeraSans-Roman-79"/>
     <use x="1918.359375" xlink:href="#BitstreamVeraSans-Roman-20"/>
     <use x="1950.146484375" xlink:href="#BitstreamVeraSans-Roman-69"/>
     <use x="1977.9296875" xlink:href="#BitstreamVeraSans-Roman-6e"/>
     <use x="2041.30859375" xlink:href="#BitstreamVeraSans-Roman-64"/>
     <use x="2104.78515625" xlink:href="#BitstreamVeraSans-Roman-65"/>
     <use x="2166.29296875" xlink:href="#BitstreamVeraSans-Roman-78"/>
     <use x="2225.47265625" xlink:href="#BitstreamVeraSans-Roman-20"/>
     <use x="2257.259765625" xlink:href="#BitstreamVeraSans-Roman-63"/>
     <use x="2312.240234375" xlink:href="#BitstreamVeraSans-Roman-68"/>
     <use x="2375.619140625" xlink:href="#BitstreamVeraSans-Roman-61"/>
     <use x="2436.8984375" xlink:href="#BitstreamVeraSans-Roman-6e"/>
     <use x="2500.27734375" xlink:href="#BitstreamVeraSans-Roman-67"/>
     <use x="2563.75390625" xlink:href="#BitstreamVeraSans-Roman-65"/>
     <use x="2625.27734375" xlink:href="#BitstreamVeraSans-Roman-64"/>
     <use x="2688.75390625" xlink:href="#BitstreamVeraSans-Roman-20"/>
     <use x="2720.541015625" xlink:href="#BitstreamVeraSans-Roman-70"/>
     <use x="2784.017578125" xlink:href="#BitstreamVeraSans-Roman-65"/>
     <use x="2845.541015625" xlink:href="#BitstreamVeraSans-Roman-72"/>
    </g>
   </g>
   <g id="legend_1">
    <g id="patch_7">
     <path d="M 449.684375 320.246875 
L 513.4 320.246875 
L 513.4 111.753125 
L 449.684375 111.753125 
z
" style="fill:#ffffff;stroke:#000000;stroke-linejoin:miter;"/>
    </g>
    <g id="line2d_43">
     <path d="M 456.684375 119.851562 
L 470.684375 119.851562 
" style="fill:none;stroke:#8000ff;stroke-linecap:square;"/>
    </g>
    <g id="line2d_44"/>
    <g id="text_18">
     <!-- gold -->
     <g transform="translate(481.684375 123.3515625)scale(0.1 -0.1)">
      <use xlink:href="#BitstreamVeraSans-Roman-67"/>
      <use x="63.4765625" xlink:href="#BitstreamVeraSans-Roman-6f"/>
      <use x="124.658203125" xlink:href="#BitstreamVeraSans-Roman-6c"/>
      <use x="152.44140625" xlink:href="#BitstreamVeraSans-Roman-64"/>
     </g>
    </g>
    <g id="line2d_45">
     <path d="M 456.684375 134.529688 
L 470.684375 134.529688 
" style="fill:none;stroke:#5a3bfd;stroke-linecap:square;"/>
    </g>
    <g id="line2d_46"/>
    <g id="text_19">
     <!-- cuui -->
     <g transform="translate(481.684375 138.0296875)scale(0.1 -0.1)">
      <use xlink:href="#BitstreamVeraSans-Roman-63"/>
      <use x="54.98046875" xlink:href="#BitstreamVeraSans-Roman-75"/>
      <use x="118.359375" xlink:href="#BitstreamVeraSans-Roman-75"/>
      <use x="181.73828125" xlink:href="#BitstreamVeraSans-Roman-69"/>
     </g>
    </g>
    <g id="line2d_47">
     <path d="M 456.684375 149.207813 
L 470.684375 149.207813 
" style="fill:none;stroke:#3176f8;stroke-linecap:square;"/>
    </g>
    <g id="line2d_48"/>
    <g id="text_20">
     <!-- camb -->
     <g transform="translate(481.684375 152.7078125)scale(0.1 -0.1)">
      <use xlink:href="#BitstreamVeraSans-Roman-63"/>
      <use x="54.98046875" xlink:href="#BitstreamVeraSans-Roman-61"/>
      <use x="116.259765625" xlink:href="#BitstreamVeraSans-Roman-6d"/>
      <use x="213.671875" xlink:href="#BitstreamVeraSans-Roman-62"/>
     </g>
    </g>
    <g id="line2d_49">
     <path d="M 456.684375 163.885938 
L 470.684375 163.885938 
" style="fill:none;stroke:#09a9ee;stroke-linecap:square;"/>
    </g>
    <g id="line2d_50"/>
    <g id="text_21">
     <!-- AMU -->
     <defs>
      <path d="M 9.8125 72.90625 
L 24.515625 72.90625 
L 43.109375 23.296875 
L 61.8125 72.90625 
L 76.515625 72.90625 
L 76.515625 0 
L 66.890625 0 
L 66.890625 64.015625 
L 48.09375 14.015625 
L 38.1875 14.015625 
L 19.390625 64.015625 
L 19.390625 0 
L 9.8125 0 
z
" id="BitstreamVeraSans-Roman-4d"/>
      <path d="M 34.1875 63.1875 
L 20.796875 26.90625 
L 47.609375 26.90625 
z
M 28.609375 72.90625 
L 39.796875 72.90625 
L 67.578125 0 
L 57.328125 0 
L 50.6875 18.703125 
L 17.828125 18.703125 
L 11.1875 0 
L 0.78125 0 
z
" id="BitstreamVeraSans-Roman-41"/>
      <path d="M 8.6875 72.90625 
L 18.609375 72.90625 
L 18.609375 28.609375 
Q 18.609375 16.890625 22.84375 11.734375 
Q 27.09375 6.59375 36.625 6.59375 
Q 46.09375 6.59375 50.34375 11.734375 
Q 54.59375 16.890625 54.59375 28.609375 
L 54.59375 72.90625 
L 64.5 72.90625 
L 64.5 27.390625 
Q 64.5 13.140625 57.4375 5.859375 
Q 50.390625 -1.421875 36.625 -1.421875 
Q 22.796875 -1.421875 15.734375 5.859375 
Q 8.6875 13.140625 8.6875 27.390625 
z
" id="BitstreamVeraSans-Roman-55"/>
     </defs>
     <g transform="translate(481.684375 167.3859375)scale(0.1 -0.1)">
      <use xlink:href="#BitstreamVeraSans-Roman-41"/>
      <use x="68.408203125" xlink:href="#BitstreamVeraSans-Roman-4d"/>
      <use x="154.6875" xlink:href="#BitstreamVeraSans-Roman-55"/>
     </g>
    </g>
    <g id="line2d_51">
     <path d="M 456.684375 178.564063 
L 470.684375 178.564063 
" style="fill:none;stroke:#1dd1e2;stroke-linecap:square;"/>
    </g>
    <g id="line2d_52"/>
    <g id="text_22">
     <!-- RR -->
     <defs>
      <path d="M 44.390625 34.1875 
Q 47.5625 33.109375 50.5625 29.59375 
Q 53.5625 26.078125 56.59375 19.921875 
L 66.609375 0 
L 56 0 
L 46.6875 18.703125 
Q 43.0625 26.03125 39.671875 28.421875 
Q 36.28125 30.8125 30.421875 30.8125 
L 19.671875 30.8125 
L 19.671875 0 
L 9.8125 0 
L 9.8125 72.90625 
L 32.078125 72.90625 
Q 44.578125 72.90625 50.734375 67.671875 
Q 56.890625 62.453125 56.890625 51.90625 
Q 56.890625 45.015625 53.6875 40.46875 
Q 50.484375 35.9375 44.390625 34.1875 
M 19.671875 64.796875 
L 19.671875 38.921875 
L 32.078125 38.921875 
Q 39.203125 38.921875 42.84375 42.21875 
Q 46.484375 45.515625 46.484375 51.90625 
Q 46.484375 58.296875 42.84375 61.546875 
Q 39.203125 64.796875 32.078125 64.796875 
z
" id="BitstreamVeraSans-Roman-52"/>
     </defs>
     <g transform="translate(481.684375 182.0640625)scale(0.1 -0.1)">
      <use xlink:href="#BitstreamVeraSans-Roman-52"/>
      <use x="69.482421875" xlink:href="#BitstreamVeraSans-Roman-52"/>
     </g>
    </g>
    <g id="line2d_53">
     <path d="M 456.684375 193.242188 
L 470.684375 193.242188 
" style="fill:none;stroke:#44eed2;stroke-linecap:square;"/>
    </g>
    <g id="line2d_54"/>
    <g id="text_23">
     <!-- iitb -->
     <g transform="translate(481.684375 196.7421875)scale(0.1 -0.1)">
      <use xlink:href="#BitstreamVeraSans-Roman-69"/>
      <use x="27.783203125" xlink:href="#BitstreamVeraSans-Roman-69"/>
      <use x="55.56640625" xlink:href="#BitstreamVeraSans-Roman-74"/>
      <use x="94.775390625" xlink:href="#BitstreamVeraSans-Roman-62"/>
     </g>
    </g>
    <g id="line2d_55">
     <path d="M 456.684375 207.920313 
L 470.684375 207.920313 
" style="fill:none;stroke:#6dfdbf;stroke-linecap:square;"/>
    </g>
    <g id="line2d_56"/>
    <g id="text_24">
     <!-- ipn -->
     <g transform="translate(481.684375 211.4203125)scale(0.1 -0.1)">
      <use xlink:href="#BitstreamVeraSans-Roman-69"/>
      <use x="27.783203125" xlink:href="#BitstreamVeraSans-Roman-70"/>
      <use x="91.259765625" xlink:href="#BitstreamVeraSans-Roman-6e"/>
     </g>
    </g>
    <g id="line2d_57">
     <path d="M 456.684375 222.598437 
L 470.684375 222.598437 
" style="fill:none;stroke:#92fda9;stroke-linecap:square;"/>
    </g>
    <g id="line2d_58"/>
    <g id="text_25">
     <!-- nthu -->
     <g transform="translate(481.684375 226.0984375)scale(0.1 -0.1)">
      <use xlink:href="#BitstreamVeraSans-Roman-6e"/>
      <use x="63.37890625" xlink:href="#BitstreamVeraSans-Roman-74"/>
      <use x="102.587890625" xlink:href="#BitstreamVeraSans-Roman-68"/>
      <use x="165.966796875" xlink:href="#BitstreamVeraSans-Roman-75"/>
     </g>
    </g>
    <g id="line2d_59">
     <path d="M 456.684375 237.276563 
L 470.684375 237.276563 
" style="fill:none;stroke:#bbee91;stroke-linecap:square;"/>
    </g>
    <g id="line2d_60"/>
    <g id="text_26">
     <!-- pku -->
     <defs>
      <path d="M 9.078125 75.984375 
L 18.109375 75.984375 
L 18.109375 31.109375 
L 44.921875 54.6875 
L 56.390625 54.6875 
L 27.390625 29.109375 
L 57.625 0 
L 45.90625 0 
L 18.109375 26.703125 
L 18.109375 0 
L 9.078125 0 
z
" id="BitstreamVeraSans-Roman-6b"/>
     </defs>
     <g transform="translate(481.684375 240.7765625)scale(0.1 -0.1)">
      <use xlink:href="#BitstreamVeraSans-Roman-70"/>
      <use x="63.4765625" xlink:href="#BitstreamVeraSans-Roman-6b"/>
      <use x="121.33984375" xlink:href="#BitstreamVeraSans-Roman-75"/>
     </g>
    </g>
    <g id="line2d_61">
     <path d="M 456.684375 251.954687 
L 470.684375 251.954687 
" style="fill:none;stroke:#e2d176;stroke-linecap:square;"/>
    </g>
    <g id="line2d_62"/>
    <g id="text_27">
     <!-- post -->
     <g transform="translate(481.684375 255.4546875)scale(0.1 -0.1)">
      <use xlink:href="#BitstreamVeraSans-Roman-70"/>
      <use x="63.4765625" xlink:href="#BitstreamVeraSans-Roman-6f"/>
      <use x="124.658203125" xlink:href="#BitstreamVeraSans-Roman-73"/>
      <use x="176.7578125" xlink:href="#BitstreamVeraSans-Roman-74"/>
     </g>
    </g>
    <g id="line2d_63">
     <path d="M 456.684375 266.632812 
L 470.684375 266.632812 
" style="fill:none;stroke:#ffa95b;stroke-linecap:square;"/>
    </g>
    <g id="line2d_64"/>
    <g id="text_28">
     <!-- rac -->
     <g transform="translate(481.684375 270.1328125)scale(0.1 -0.1)">
      <use xlink:href="#BitstreamVeraSans-Roman-72"/>
      <use x="41.11328125" xlink:href="#BitstreamVeraSans-Roman-61"/>
      <use x="102.392578125" xlink:href="#BitstreamVeraSans-Roman-63"/>
     </g>
    </g>
    <g id="line2d_65">
     <path d="M 456.684375 281.310937 
L 470.684375 281.310937 
" style="fill:none;stroke:#ff763d;stroke-linecap:square;"/>
    </g>
    <g id="line2d_66"/>
    <g id="text_29">
     <!-- sjtu -->
     <defs>
      <path d="M 9.421875 54.6875 
L 18.40625 54.6875 
L 18.40625 -0.984375 
Q 18.40625 -11.421875 14.421875 -16.109375 
Q 10.453125 -20.796875 1.609375 -20.796875 
L -1.8125 -20.796875 
L -1.8125 -13.1875 
L 0.59375 -13.1875 
Q 5.71875 -13.1875 7.5625 -10.8125 
Q 9.421875 -8.453125 9.421875 -0.984375 
z
M 9.421875 75.984375 
L 18.40625 75.984375 
L 18.40625 64.59375 
L 9.421875 64.59375 
z
" id="BitstreamVeraSans-Roman-6a"/>
     </defs>
     <g transform="translate(481.684375 284.8109375)scale(0.1 -0.1)">
      <use xlink:href="#BitstreamVeraSans-Roman-73"/>
      <use x="52.099609375" xlink:href="#BitstreamVeraSans-Roman-6a"/>
      <use x="79.8828125" xlink:href="#BitstreamVeraSans-Roman-74"/>
      <use x="119.091796875" xlink:href="#BitstreamVeraSans-Roman-75"/>
     </g>
    </g>
    <g id="line2d_67">
     <path d="M 456.684375 295.989062 
L 470.684375 295.989062 
" style="fill:none;stroke:#ff3b1e;stroke-linecap:square;"/>
    </g>
    <g id="line2d_68"/>
    <g id="text_30">
     <!-- ufc -->
     <g transform="translate(481.684375 299.4890625)scale(0.1 -0.1)">
      <use xlink:href="#BitstreamVeraSans-Roman-75"/>
      <use x="63.37890625" xlink:href="#BitstreamVeraSans-Roman-66"/>
      <use x="98.583984375" xlink:href="#BitstreamVeraSans-Roman-63"/>
     </g>
    </g>
    <g id="line2d_69">
     <path d="M 456.684375 310.667187 
L 470.684375 310.667187 
" style="fill:none;stroke:#ff0000;stroke-linecap:square;"/>
    </g>
    <g id="line2d_70"/>
    <g id="text_31">
     <!-- umc -->
     <g transform="translate(481.684375 314.1671875)scale(0.1 -0.1)">
      <use xlink:href="#BitstreamVeraSans-Roman-75"/>
      <use x="63.37890625" xlink:href="#BitstreamVeraSans-Roman-6d"/>
      <use x="160.791015625" xlink:href="#BitstreamVeraSans-Roman-63"/>
     </g>
    </g>
   </g>
  </g>
 </g>
 <defs>
  <clipPath id="p63784c4cf3">
   <rect height="345.6" width="446.4" x="72.0" y="43.2"/>
  </clipPath>
 </defs>
</svg>
