<?xml version="1.0" encoding="utf-8" standalone="no"?>
<!DOCTYPE svg PUBLIC "-//W3C//DTD SVG 1.1//EN"
  "http://www.w3.org/Graphics/SVG/1.1/DTD/svg11.dtd">
<!-- Created with matplotlib (http://matplotlib.org/) -->
<svg height="432pt" version="1.1" viewBox="0 0 576 432" width="576pt" xmlns="http://www.w3.org/2000/svg" xmlns:xlink="http://www.w3.org/1999/xlink">
 <defs>
  <style type="text/css">
*{stroke-linecap:butt;stroke-linejoin:round;stroke-miterlimit:100000;}
  </style>
 </defs>
 <g id="figure_1">
  <g id="patch_1">
   <path d="M 0 432 
L 576 432 
L 576 0 
L 0 0 
z
" style="fill:#ffffff;"/>
  </g>
  <g id="axes_1">
   <g id="patch_2">
    <path d="M 72 388.8 
L 518.4 388.8 
L 518.4 43.2 
L 72 43.2 
z
" style="fill:#ffffff;"/>
   </g>
   <g id="patch_3">
    <path clip-path="url(#pc656beb6b0)" d="M 135.346286 388.8 
L 136.196571 388.8 
L 136.196571 65.3184 
L 135.346286 65.3184 
z
" style="fill:#8000ff;stroke:#000000;stroke-linejoin:miter;"/>
   </g>
   <g id="patch_4">
    <path clip-path="url(#pc656beb6b0)" d="M 148.100571 388.8 
L 148.950857 388.8 
L 148.950857 272.6784 
L 148.100571 272.6784 
z
" style="fill:#8000ff;stroke:#000000;stroke-linejoin:miter;"/>
   </g>
   <g id="patch_5">
    <path clip-path="url(#pc656beb6b0)" d="M 160.854857 388.8 
L 161.705143 388.8 
L 161.705143 322.4448 
L 160.854857 322.4448 
z
" style="fill:#8000ff;stroke:#000000;stroke-linejoin:miter;"/>
   </g>
   <g id="patch_6">
    <path clip-path="url(#pc656beb6b0)" d="M 173.609143 388.8 
L 174.459429 388.8 
L 174.459429 358.3872 
L 173.609143 358.3872 
z
" style="fill:#8000ff;stroke:#000000;stroke-linejoin:miter;"/>
   </g>
   <g id="patch_7">
    <path clip-path="url(#pc656beb6b0)" d="M 186.363429 388.8 
L 187.213714 388.8 
L 187.213714 374.976 
L 186.363429 374.976 
z
" style="fill:#8000ff;stroke:#000000;stroke-linejoin:miter;"/>
   </g>
   <g id="patch_8">
    <path clip-path="url(#pc656beb6b0)" d="M 199.117714 388.8 
L 199.968 388.8 
L 199.968 379.1232 
L 199.117714 379.1232 
z
" style="fill:#8000ff;stroke:#000000;stroke-linejoin:miter;"/>
   </g>
   <g id="patch_9">
    <path clip-path="url(#pc656beb6b0)" d="M 211.872 388.8 
L 212.722286 388.8 
L 212.722286 381.888 
L 211.872 381.888 
z
" style="fill:#8000ff;stroke:#000000;stroke-linejoin:miter;"/>
   </g>
   <g id="patch_10">
    <path clip-path="url(#pc656beb6b0)" d="M 224.626286 388.8 
L 225.476571 388.8 
L 225.476571 387.4176 
L 224.626286 387.4176 
z
" style="fill:#8000ff;stroke:#000000;stroke-linejoin:miter;"/>
   </g>
   <g id="patch_11">
    <path clip-path="url(#pc656beb6b0)" d="M 136.196571 388.8 
L 137.046857 388.8 
L 137.046857 204.9408 
L 136.196571 204.9408 
z
" style="fill:#5c38fd;stroke:#000000;stroke-linejoin:miter;"/>
   </g>
   <g id="patch_12">
    <path clip-path="url(#pc656beb6b0)" d="M 148.950857 388.8 
L 149.801143 388.8 
L 149.801143 294.7968 
L 148.950857 294.7968 
z
" style="fill:#5c38fd;stroke:#000000;stroke-linejoin:miter;"/>
   </g>
   <g id="patch_13">
    <path clip-path="url(#pc656beb6b0)" d="M 161.705143 388.8 
L 162.555429 388.8 
L 162.555429 344.5632 
L 161.705143 344.5632 
z
" style="fill:#5c38fd;stroke:#000000;stroke-linejoin:miter;"/>
   </g>
   <g id="patch_14">
    <path clip-path="url(#pc656beb6b0)" d="M 174.459429 388.8 
L 175.309714 388.8 
L 175.309714 359.7696 
L 174.459429 359.7696 
z
" style="fill:#5c38fd;stroke:#000000;stroke-linejoin:miter;"/>
   </g>
   <g id="patch_15">
    <path clip-path="url(#pc656beb6b0)" d="M 187.213714 388.8 
L 188.064 388.8 
L 188.064 372.2112 
L 187.213714 372.2112 
z
" style="fill:#5c38fd;stroke:#000000;stroke-linejoin:miter;"/>
   </g>
   <g id="patch_16">
    <path clip-path="url(#pc656beb6b0)" d="M 199.968 388.8 
L 200.818286 388.8 
L 200.818286 380.5056 
L 199.968 380.5056 
z
" style="fill:#5c38fd;stroke:#000000;stroke-linejoin:miter;"/>
   </g>
   <g id="patch_17">
    <path clip-path="url(#pc656beb6b0)" d="M 212.722286 388.8 
L 213.572571 388.8 
L 213.572571 383.2704 
L 212.722286 383.2704 
z
" style="fill:#5c38fd;stroke:#000000;stroke-linejoin:miter;"/>
   </g>
   <g id="patch_18">
    <path clip-path="url(#pc656beb6b0)" d="M 225.476571 388.8 
L 226.326857 388.8 
L 226.326857 386.0352 
L 225.476571 386.0352 
z
" style="fill:#5c38fd;stroke:#000000;stroke-linejoin:miter;"/>
   </g>
   <g id="patch_19">
    <path clip-path="url(#pc656beb6b0)" d="M 238.230857 388.8 
L 239.081143 388.8 
L 239.081143 387.4176 
L 238.230857 387.4176 
z
" style="fill:#5c38fd;stroke:#000000;stroke-linejoin:miter;"/>
   </g>
   <g id="patch_20">
    <path clip-path="url(#pc656beb6b0)" d="M 250.985143 388.8 
L 251.835429 388.8 
L 251.835429 387.4176 
L 250.985143 387.4176 
z
" style="fill:#5c38fd;stroke:#000000;stroke-linejoin:miter;"/>
   </g>
   <g id="patch_21">
    <path clip-path="url(#pc656beb6b0)" d="M 263.739429 388.8 
L 264.589714 388.8 
L 264.589714 384.6528 
L 263.739429 384.6528 
z
" style="fill:#5c38fd;stroke:#000000;stroke-linejoin:miter;"/>
   </g>
   <g id="patch_22">
    <path clip-path="url(#pc656beb6b0)" d="M 276.493714 388.8 
L 277.344 388.8 
L 277.344 388.8 
L 276.493714 388.8 
z
" style="fill:#5c38fd;stroke:#000000;stroke-linejoin:miter;"/>
   </g>
   <g id="patch_23">
    <path clip-path="url(#pc656beb6b0)" d="M 289.248 388.8 
L 290.098286 388.8 
L 290.098286 387.4176 
L 289.248 387.4176 
z
" style="fill:#5c38fd;stroke:#000000;stroke-linejoin:miter;"/>
   </g>
   <g id="patch_24">
    <path clip-path="url(#pc656beb6b0)" d="M 302.002286 388.8 
L 302.852571 388.8 
L 302.852571 387.4176 
L 302.002286 387.4176 
z
" style="fill:#5c38fd;stroke:#000000;stroke-linejoin:miter;"/>
   </g>
   <g id="patch_25">
    <path clip-path="url(#pc656beb6b0)" d="M 314.756571 388.8 
L 315.606857 388.8 
L 315.606857 388.8 
L 314.756571 388.8 
z
" style="fill:#5c38fd;stroke:#000000;stroke-linejoin:miter;"/>
   </g>
   <g id="patch_26">
    <path clip-path="url(#pc656beb6b0)" d="M 327.510857 388.8 
L 328.361143 388.8 
L 328.361143 388.8 
L 327.510857 388.8 
z
" style="fill:#5c38fd;stroke:#000000;stroke-linejoin:miter;"/>
   </g>
   <g id="patch_27">
    <path clip-path="url(#pc656beb6b0)" d="M 340.265143 388.8 
L 341.115429 388.8 
L 341.115429 387.4176 
L 340.265143 387.4176 
z
" style="fill:#5c38fd;stroke:#000000;stroke-linejoin:miter;"/>
   </g>
   <g id="patch_28">
    <path clip-path="url(#pc656beb6b0)" d="M 353.019429 388.8 
L 353.869714 388.8 
L 353.869714 388.8 
L 353.019429 388.8 
z
" style="fill:#5c38fd;stroke:#000000;stroke-linejoin:miter;"/>
   </g>
   <g id="patch_29">
    <path clip-path="url(#pc656beb6b0)" d="M 365.773714 388.8 
L 366.624 388.8 
L 366.624 388.8 
L 365.773714 388.8 
z
" style="fill:#5c38fd;stroke:#000000;stroke-linejoin:miter;"/>
   </g>
   <g id="patch_30">
    <path clip-path="url(#pc656beb6b0)" d="M 378.528 388.8 
L 379.378286 388.8 
L 379.378286 388.8 
L 378.528 388.8 
z
" style="fill:#5c38fd;stroke:#000000;stroke-linejoin:miter;"/>
   </g>
   <g id="patch_31">
    <path clip-path="url(#pc656beb6b0)" d="M 391.282286 388.8 
L 392.132571 388.8 
L 392.132571 388.8 
L 391.282286 388.8 
z
" style="fill:#5c38fd;stroke:#000000;stroke-linejoin:miter;"/>
   </g>
   <g id="patch_32">
    <path clip-path="url(#pc656beb6b0)" d="M 404.036571 388.8 
L 404.886857 388.8 
L 404.886857 388.8 
L 404.036571 388.8 
z
" style="fill:#5c38fd;stroke:#000000;stroke-linejoin:miter;"/>
   </g>
   <g id="patch_33">
    <path clip-path="url(#pc656beb6b0)" d="M 416.790857 388.8 
L 417.641143 388.8 
L 417.641143 388.8 
L 416.790857 388.8 
z
" style="fill:#5c38fd;stroke:#000000;stroke-linejoin:miter;"/>
   </g>
   <g id="patch_34">
    <path clip-path="url(#pc656beb6b0)" d="M 429.545143 388.8 
L 430.395429 388.8 
L 430.395429 388.8 
L 429.545143 388.8 
z
" style="fill:#5c38fd;stroke:#000000;stroke-linejoin:miter;"/>
   </g>
   <g id="patch_35">
    <path clip-path="url(#pc656beb6b0)" d="M 442.299429 388.8 
L 443.149714 388.8 
L 443.149714 388.8 
L 442.299429 388.8 
z
" style="fill:#5c38fd;stroke:#000000;stroke-linejoin:miter;"/>
   </g>
   <g id="patch_36">
    <path clip-path="url(#pc656beb6b0)" d="M 455.053714 388.8 
L 455.904 388.8 
L 455.904 388.8 
L 455.053714 388.8 
z
" style="fill:#5c38fd;stroke:#000000;stroke-linejoin:miter;"/>
   </g>
   <g id="patch_37">
    <path clip-path="url(#pc656beb6b0)" d="M 467.808 388.8 
L 468.658286 388.8 
L 468.658286 387.4176 
L 467.808 387.4176 
z
" style="fill:#5c38fd;stroke:#000000;stroke-linejoin:miter;"/>
   </g>
   <g id="patch_38">
    <path clip-path="url(#pc656beb6b0)" d="M 137.046857 388.8 
L 137.897143 388.8 
L 137.897143 269.9136 
L 137.046857 269.9136 
z
" style="fill:#386df9;stroke:#000000;stroke-linejoin:miter;"/>
   </g>
   <g id="patch_39">
    <path clip-path="url(#pc656beb6b0)" d="M 149.801143 388.8 
L 150.651429 388.8 
L 150.651429 365.2992 
L 149.801143 365.2992 
z
" style="fill:#386df9;stroke:#000000;stroke-linejoin:miter;"/>
   </g>
   <g id="patch_40">
    <path clip-path="url(#pc656beb6b0)" d="M 162.555429 388.8 
L 163.405714 388.8 
L 163.405714 379.1232 
L 162.555429 379.1232 
z
" style="fill:#386df9;stroke:#000000;stroke-linejoin:miter;"/>
   </g>
   <g id="patch_41">
    <path clip-path="url(#pc656beb6b0)" d="M 175.309714 388.8 
L 176.16 388.8 
L 176.16 384.6528 
L 175.309714 384.6528 
z
" style="fill:#386df9;stroke:#000000;stroke-linejoin:miter;"/>
   </g>
   <g id="patch_42">
    <path clip-path="url(#pc656beb6b0)" d="M 188.064 388.8 
L 188.914286 388.8 
L 188.914286 387.4176 
L 188.064 387.4176 
z
" style="fill:#386df9;stroke:#000000;stroke-linejoin:miter;"/>
   </g>
   <g id="patch_43">
    <path clip-path="url(#pc656beb6b0)" d="M 137.897143 388.8 
L 138.747429 388.8 
L 138.747429 381.888 
L 137.897143 381.888 
z
" style="fill:#149df1;stroke:#000000;stroke-linejoin:miter;"/>
   </g>
   <g id="patch_44">
    <path clip-path="url(#pc656beb6b0)" d="M 150.651429 388.8 
L 151.501714 388.8 
L 151.501714 387.4176 
L 150.651429 387.4176 
z
" style="fill:#149df1;stroke:#000000;stroke-linejoin:miter;"/>
   </g>
   <g id="patch_45">
    <path clip-path="url(#pc656beb6b0)" d="M 163.405714 388.8 
L 164.256 388.8 
L 164.256 388.8 
L 163.405714 388.8 
z
" style="fill:#149df1;stroke:#000000;stroke-linejoin:miter;"/>
   </g>
   <g id="patch_46">
    <path clip-path="url(#pc656beb6b0)" d="M 176.16 388.8 
L 177.010286 388.8 
L 177.010286 387.4176 
L 176.16 387.4176 
z
" style="fill:#149df1;stroke:#000000;stroke-linejoin:miter;"/>
   </g>
   <g id="patch_47">
    <path clip-path="url(#pc656beb6b0)" d="M 138.747429 388.8 
L 139.597714 388.8 
L 139.597714 387.4176 
L 138.747429 387.4176 
z
" style="fill:#12c8e6;stroke:#000000;stroke-linejoin:miter;"/>
   </g>
   <g id="patch_48">
    <path clip-path="url(#pc656beb6b0)" d="M 139.597714 388.8 
L 140.448 388.8 
L 140.448 308.6208 
L 139.597714 308.6208 
z
" style="fill:#37e6d8;stroke:#000000;stroke-linejoin:miter;"/>
   </g>
   <g id="patch_49">
    <path clip-path="url(#pc656beb6b0)" d="M 152.352 388.8 
L 153.202286 388.8 
L 153.202286 347.328 
L 152.352 347.328 
z
" style="fill:#37e6d8;stroke:#000000;stroke-linejoin:miter;"/>
   </g>
   <g id="patch_50">
    <path clip-path="url(#pc656beb6b0)" d="M 165.106286 388.8 
L 165.956571 388.8 
L 165.956571 383.2704 
L 165.106286 383.2704 
z
" style="fill:#37e6d8;stroke:#000000;stroke-linejoin:miter;"/>
   </g>
   <g id="patch_51">
    <path clip-path="url(#pc656beb6b0)" d="M 177.860571 388.8 
L 178.710857 388.8 
L 178.710857 387.4176 
L 177.860571 387.4176 
z
" style="fill:#37e6d8;stroke:#000000;stroke-linejoin:miter;"/>
   </g>
   <g id="patch_52">
    <path clip-path="url(#pc656beb6b0)" d="M 190.614857 388.8 
L 191.465143 388.8 
L 191.465143 387.4176 
L 190.614857 387.4176 
z
" style="fill:#37e6d8;stroke:#000000;stroke-linejoin:miter;"/>
   </g>
   <g id="patch_53">
    <path clip-path="url(#pc656beb6b0)" d="M 203.369143 388.8 
L 204.219429 388.8 
L 204.219429 388.8 
L 203.369143 388.8 
z
" style="fill:#37e6d8;stroke:#000000;stroke-linejoin:miter;"/>
   </g>
   <g id="patch_54">
    <path clip-path="url(#pc656beb6b0)" d="M 216.123429 388.8 
L 216.973714 388.8 
L 216.973714 388.8 
L 216.123429 388.8 
z
" style="fill:#37e6d8;stroke:#000000;stroke-linejoin:miter;"/>
   </g>
   <g id="patch_55">
    <path clip-path="url(#pc656beb6b0)" d="M 228.877714 388.8 
L 229.728 388.8 
L 229.728 388.8 
L 228.877714 388.8 
z
" style="fill:#37e6d8;stroke:#000000;stroke-linejoin:miter;"/>
   </g>
   <g id="patch_56">
    <path clip-path="url(#pc656beb6b0)" d="M 241.632 388.8 
L 242.482286 388.8 
L 242.482286 387.4176 
L 241.632 387.4176 
z
" style="fill:#37e6d8;stroke:#000000;stroke-linejoin:miter;"/>
   </g>
   <g id="patch_57">
    <path clip-path="url(#pc656beb6b0)" d="M 254.386286 388.8 
L 255.236571 388.8 
L 255.236571 387.4176 
L 254.386286 387.4176 
z
" style="fill:#37e6d8;stroke:#000000;stroke-linejoin:miter;"/>
   </g>
   <g id="patch_58">
    <path clip-path="url(#pc656beb6b0)" d="M 267.140571 388.8 
L 267.990857 388.8 
L 267.990857 388.8 
L 267.140571 388.8 
z
" style="fill:#37e6d8;stroke:#000000;stroke-linejoin:miter;"/>
   </g>
   <g id="patch_59">
    <path clip-path="url(#pc656beb6b0)" d="M 279.894857 388.8 
L 280.745143 388.8 
L 280.745143 388.8 
L 279.894857 388.8 
z
" style="fill:#37e6d8;stroke:#000000;stroke-linejoin:miter;"/>
   </g>
   <g id="patch_60">
    <path clip-path="url(#pc656beb6b0)" d="M 292.649143 388.8 
L 293.499429 388.8 
L 293.499429 388.8 
L 292.649143 388.8 
z
" style="fill:#37e6d8;stroke:#000000;stroke-linejoin:miter;"/>
   </g>
   <g id="patch_61">
    <path clip-path="url(#pc656beb6b0)" d="M 305.403429 388.8 
L 306.253714 388.8 
L 306.253714 388.8 
L 305.403429 388.8 
z
" style="fill:#37e6d8;stroke:#000000;stroke-linejoin:miter;"/>
   </g>
   <g id="patch_62">
    <path clip-path="url(#pc656beb6b0)" d="M 318.157714 388.8 
L 319.008 388.8 
L 319.008 388.8 
L 318.157714 388.8 
z
" style="fill:#37e6d8;stroke:#000000;stroke-linejoin:miter;"/>
   </g>
   <g id="patch_63">
    <path clip-path="url(#pc656beb6b0)" d="M 330.912 388.8 
L 331.762286 388.8 
L 331.762286 388.8 
L 330.912 388.8 
z
" style="fill:#37e6d8;stroke:#000000;stroke-linejoin:miter;"/>
   </g>
   <g id="patch_64">
    <path clip-path="url(#pc656beb6b0)" d="M 343.666286 388.8 
L 344.516571 388.8 
L 344.516571 388.8 
L 343.666286 388.8 
z
" style="fill:#37e6d8;stroke:#000000;stroke-linejoin:miter;"/>
   </g>
   <g id="patch_65">
    <path clip-path="url(#pc656beb6b0)" d="M 356.420571 388.8 
L 357.270857 388.8 
L 357.270857 388.8 
L 356.420571 388.8 
z
" style="fill:#37e6d8;stroke:#000000;stroke-linejoin:miter;"/>
   </g>
   <g id="patch_66">
    <path clip-path="url(#pc656beb6b0)" d="M 369.174857 388.8 
L 370.025143 388.8 
L 370.025143 388.8 
L 369.174857 388.8 
z
" style="fill:#37e6d8;stroke:#000000;stroke-linejoin:miter;"/>
   </g>
   <g id="patch_67">
    <path clip-path="url(#pc656beb6b0)" d="M 381.929143 388.8 
L 382.779429 388.8 
L 382.779429 388.8 
L 381.929143 388.8 
z
" style="fill:#37e6d8;stroke:#000000;stroke-linejoin:miter;"/>
   </g>
   <g id="patch_68">
    <path clip-path="url(#pc656beb6b0)" d="M 394.683429 388.8 
L 395.533714 388.8 
L 395.533714 388.8 
L 394.683429 388.8 
z
" style="fill:#37e6d8;stroke:#000000;stroke-linejoin:miter;"/>
   </g>
   <g id="patch_69">
    <path clip-path="url(#pc656beb6b0)" d="M 407.437714 388.8 
L 408.288 388.8 
L 408.288 388.8 
L 407.437714 388.8 
z
" style="fill:#37e6d8;stroke:#000000;stroke-linejoin:miter;"/>
   </g>
   <g id="patch_70">
    <path clip-path="url(#pc656beb6b0)" d="M 420.192 388.8 
L 421.042286 388.8 
L 421.042286 388.8 
L 420.192 388.8 
z
" style="fill:#37e6d8;stroke:#000000;stroke-linejoin:miter;"/>
   </g>
   <g id="patch_71">
    <path clip-path="url(#pc656beb6b0)" d="M 432.946286 388.8 
L 433.796571 388.8 
L 433.796571 388.8 
L 432.946286 388.8 
z
" style="fill:#37e6d8;stroke:#000000;stroke-linejoin:miter;"/>
   </g>
   <g id="patch_72">
    <path clip-path="url(#pc656beb6b0)" d="M 445.700571 388.8 
L 446.550857 388.8 
L 446.550857 388.8 
L 445.700571 388.8 
z
" style="fill:#37e6d8;stroke:#000000;stroke-linejoin:miter;"/>
   </g>
   <g id="patch_73">
    <path clip-path="url(#pc656beb6b0)" d="M 458.454857 388.8 
L 459.305143 388.8 
L 459.305143 388.8 
L 458.454857 388.8 
z
" style="fill:#37e6d8;stroke:#000000;stroke-linejoin:miter;"/>
   </g>
   <g id="patch_74">
    <path clip-path="url(#pc656beb6b0)" d="M 471.209143 388.8 
L 472.059429 388.8 
L 472.059429 388.8 
L 471.209143 388.8 
z
" style="fill:#37e6d8;stroke:#000000;stroke-linejoin:miter;"/>
   </g>
   <g id="patch_75">
    <path clip-path="url(#pc656beb6b0)" d="M 483.963429 388.8 
L 484.813714 388.8 
L 484.813714 388.8 
L 483.963429 388.8 
z
" style="fill:#37e6d8;stroke:#000000;stroke-linejoin:miter;"/>
   </g>
   <g id="patch_76">
    <path clip-path="url(#pc656beb6b0)" d="M 496.717714 388.8 
L 497.568 388.8 
L 497.568 388.8 
L 496.717714 388.8 
z
" style="fill:#37e6d8;stroke:#000000;stroke-linejoin:miter;"/>
   </g>
   <g id="patch_77">
    <path clip-path="url(#pc656beb6b0)" d="M 509.472 388.8 
L 510.322286 388.8 
L 510.322286 387.4176 
L 509.472 387.4176 
z
" style="fill:#37e6d8;stroke:#000000;stroke-linejoin:miter;"/>
   </g>
   <g id="patch_78">
    <path clip-path="url(#pc656beb6b0)" d="M 140.448 388.8 
L 141.298286 388.8 
L 141.298286 388.8 
L 140.448 388.8 
z
" style="fill:#5af8c8;stroke:#000000;stroke-linejoin:miter;"/>
   </g>
   <g id="patch_79">
    <path clip-path="url(#pc656beb6b0)" d="M 141.298286 388.8 
L 142.148571 388.8 
L 142.148571 292.032 
L 141.298286 292.032 
z
" style="fill:#80ffb4;stroke:#000000;stroke-linejoin:miter;"/>
   </g>
   <g id="patch_80">
    <path clip-path="url(#pc656beb6b0)" d="M 154.052571 388.8 
L 154.902857 388.8 
L 154.902857 366.6816 
L 154.052571 366.6816 
z
" style="fill:#80ffb4;stroke:#000000;stroke-linejoin:miter;"/>
   </g>
   <g id="patch_81">
    <path clip-path="url(#pc656beb6b0)" d="M 166.806857 388.8 
L 167.657143 388.8 
L 167.657143 384.6528 
L 166.806857 384.6528 
z
" style="fill:#80ffb4;stroke:#000000;stroke-linejoin:miter;"/>
   </g>
   <g id="patch_82">
    <path clip-path="url(#pc656beb6b0)" d="M 142.148571 388.8 
L 142.998857 388.8 
L 142.998857 380.5056 
L 142.148571 380.5056 
z
" style="fill:#a4f89f;stroke:#000000;stroke-linejoin:miter;"/>
   </g>
   <g id="patch_83">
    <path clip-path="url(#pc656beb6b0)" d="M 154.902857 388.8 
L 155.753143 388.8 
L 155.753143 377.7408 
L 154.902857 377.7408 
z
" style="fill:#a4f89f;stroke:#000000;stroke-linejoin:miter;"/>
   </g>
   <g id="patch_84">
    <path clip-path="url(#pc656beb6b0)" d="M 142.998857 388.8 
L 143.849143 388.8 
L 143.849143 350.0928 
L 142.998857 350.0928 
z
" style="fill:#c8e688;stroke:#000000;stroke-linejoin:miter;"/>
   </g>
   <g id="patch_85">
    <path clip-path="url(#pc656beb6b0)" d="M 155.753143 388.8 
L 156.603429 388.8 
L 156.603429 376.3584 
L 155.753143 376.3584 
z
" style="fill:#c8e688;stroke:#000000;stroke-linejoin:miter;"/>
   </g>
   <g id="patch_86">
    <path clip-path="url(#pc656beb6b0)" d="M 168.507429 388.8 
L 169.357714 388.8 
L 169.357714 388.8 
L 168.507429 388.8 
z
" style="fill:#c8e688;stroke:#000000;stroke-linejoin:miter;"/>
   </g>
   <g id="patch_87">
    <path clip-path="url(#pc656beb6b0)" d="M 181.261714 388.8 
L 182.112 388.8 
L 182.112 387.4176 
L 181.261714 387.4176 
z
" style="fill:#c8e688;stroke:#000000;stroke-linejoin:miter;"/>
   </g>
   <g id="patch_88">
    <path clip-path="url(#pc656beb6b0)" d="M 143.849143 388.8 
L 144.699429 388.8 
L 144.699429 388.8 
L 143.849143 388.8 
z
" style="fill:#ecc86f;stroke:#000000;stroke-linejoin:miter;"/>
   </g>
   <g id="patch_89">
    <path clip-path="url(#pc656beb6b0)" d="M 144.699429 388.8 
L 145.549714 388.8 
L 145.549714 275.4432 
L 144.699429 275.4432 
z
" style="fill:#ff9d53;stroke:#000000;stroke-linejoin:miter;"/>
   </g>
   <g id="patch_90">
    <path clip-path="url(#pc656beb6b0)" d="M 157.453714 388.8 
L 158.304 388.8 
L 158.304 359.7696 
L 157.453714 359.7696 
z
" style="fill:#ff9d53;stroke:#000000;stroke-linejoin:miter;"/>
   </g>
   <g id="patch_91">
    <path clip-path="url(#pc656beb6b0)" d="M 170.208 388.8 
L 171.058286 388.8 
L 171.058286 381.888 
L 170.208 381.888 
z
" style="fill:#ff9d53;stroke:#000000;stroke-linejoin:miter;"/>
   </g>
   <g id="patch_92">
    <path clip-path="url(#pc656beb6b0)" d="M 182.962286 388.8 
L 183.812571 388.8 
L 183.812571 384.6528 
L 182.962286 384.6528 
z
" style="fill:#ff9d53;stroke:#000000;stroke-linejoin:miter;"/>
   </g>
   <g id="patch_93">
    <path clip-path="url(#pc656beb6b0)" d="M 195.716571 388.8 
L 196.566857 388.8 
L 196.566857 388.8 
L 195.716571 388.8 
z
" style="fill:#ff9d53;stroke:#000000;stroke-linejoin:miter;"/>
   </g>
   <g id="patch_94">
    <path clip-path="url(#pc656beb6b0)" d="M 208.470857 388.8 
L 209.321143 388.8 
L 209.321143 388.8 
L 208.470857 388.8 
z
" style="fill:#ff9d53;stroke:#000000;stroke-linejoin:miter;"/>
   </g>
   <g id="patch_95">
    <path clip-path="url(#pc656beb6b0)" d="M 221.225143 388.8 
L 222.075429 388.8 
L 222.075429 388.8 
L 221.225143 388.8 
z
" style="fill:#ff9d53;stroke:#000000;stroke-linejoin:miter;"/>
   </g>
   <g id="patch_96">
    <path clip-path="url(#pc656beb6b0)" d="M 233.979429 388.8 
L 234.829714 388.8 
L 234.829714 388.8 
L 233.979429 388.8 
z
" style="fill:#ff9d53;stroke:#000000;stroke-linejoin:miter;"/>
   </g>
   <g id="patch_97">
    <path clip-path="url(#pc656beb6b0)" d="M 246.733714 388.8 
L 247.584 388.8 
L 247.584 388.8 
L 246.733714 388.8 
z
" style="fill:#ff9d53;stroke:#000000;stroke-linejoin:miter;"/>
   </g>
   <g id="patch_98">
    <path clip-path="url(#pc656beb6b0)" d="M 259.488 388.8 
L 260.338286 388.8 
L 260.338286 388.8 
L 259.488 388.8 
z
" style="fill:#ff9d53;stroke:#000000;stroke-linejoin:miter;"/>
   </g>
   <g id="patch_99">
    <path clip-path="url(#pc656beb6b0)" d="M 272.242286 388.8 
L 273.092571 388.8 
L 273.092571 388.8 
L 272.242286 388.8 
z
" style="fill:#ff9d53;stroke:#000000;stroke-linejoin:miter;"/>
   </g>
   <g id="patch_100">
    <path clip-path="url(#pc656beb6b0)" d="M 284.996571 388.8 
L 285.846857 388.8 
L 285.846857 388.8 
L 284.996571 388.8 
z
" style="fill:#ff9d53;stroke:#000000;stroke-linejoin:miter;"/>
   </g>
   <g id="patch_101">
    <path clip-path="url(#pc656beb6b0)" d="M 297.750857 388.8 
L 298.601143 388.8 
L 298.601143 388.8 
L 297.750857 388.8 
z
" style="fill:#ff9d53;stroke:#000000;stroke-linejoin:miter;"/>
   </g>
   <g id="patch_102">
    <path clip-path="url(#pc656beb6b0)" d="M 310.505143 388.8 
L 311.355429 388.8 
L 311.355429 388.8 
L 310.505143 388.8 
z
" style="fill:#ff9d53;stroke:#000000;stroke-linejoin:miter;"/>
   </g>
   <g id="patch_103">
    <path clip-path="url(#pc656beb6b0)" d="M 323.259429 388.8 
L 324.109714 388.8 
L 324.109714 388.8 
L 323.259429 388.8 
z
" style="fill:#ff9d53;stroke:#000000;stroke-linejoin:miter;"/>
   </g>
   <g id="patch_104">
    <path clip-path="url(#pc656beb6b0)" d="M 336.013714 388.8 
L 336.864 388.8 
L 336.864 388.8 
L 336.013714 388.8 
z
" style="fill:#ff9d53;stroke:#000000;stroke-linejoin:miter;"/>
   </g>
   <g id="patch_105">
    <path clip-path="url(#pc656beb6b0)" d="M 348.768 388.8 
L 349.618286 388.8 
L 349.618286 388.8 
L 348.768 388.8 
z
" style="fill:#ff9d53;stroke:#000000;stroke-linejoin:miter;"/>
   </g>
   <g id="patch_106">
    <path clip-path="url(#pc656beb6b0)" d="M 361.522286 388.8 
L 362.372571 388.8 
L 362.372571 388.8 
L 361.522286 388.8 
z
" style="fill:#ff9d53;stroke:#000000;stroke-linejoin:miter;"/>
   </g>
   <g id="patch_107">
    <path clip-path="url(#pc656beb6b0)" d="M 374.276571 388.8 
L 375.126857 388.8 
L 375.126857 388.8 
L 374.276571 388.8 
z
" style="fill:#ff9d53;stroke:#000000;stroke-linejoin:miter;"/>
   </g>
   <g id="patch_108">
    <path clip-path="url(#pc656beb6b0)" d="M 387.030857 388.8 
L 387.881143 388.8 
L 387.881143 388.8 
L 387.030857 388.8 
z
" style="fill:#ff9d53;stroke:#000000;stroke-linejoin:miter;"/>
   </g>
   <g id="patch_109">
    <path clip-path="url(#pc656beb6b0)" d="M 399.785143 388.8 
L 400.635429 388.8 
L 400.635429 387.4176 
L 399.785143 387.4176 
z
" style="fill:#ff9d53;stroke:#000000;stroke-linejoin:miter;"/>
   </g>
   <g id="patch_110">
    <path clip-path="url(#pc656beb6b0)" d="M 145.549714 388.8 
L 146.4 388.8 
L 146.4 236.736 
L 145.549714 236.736 
z
" style="fill:#ff6d38;stroke:#000000;stroke-linejoin:miter;"/>
   </g>
   <g id="patch_111">
    <path clip-path="url(#pc656beb6b0)" d="M 158.304 388.8 
L 159.154286 388.8 
L 159.154286 340.416 
L 158.304 340.416 
z
" style="fill:#ff6d38;stroke:#000000;stroke-linejoin:miter;"/>
   </g>
   <g id="patch_112">
    <path clip-path="url(#pc656beb6b0)" d="M 171.058286 388.8 
L 171.908571 388.8 
L 171.908571 379.1232 
L 171.058286 379.1232 
z
" style="fill:#ff6d38;stroke:#000000;stroke-linejoin:miter;"/>
   </g>
   <g id="patch_113">
    <path clip-path="url(#pc656beb6b0)" d="M 183.812571 388.8 
L 184.662857 388.8 
L 184.662857 386.0352 
L 183.812571 386.0352 
z
" style="fill:#ff6d38;stroke:#000000;stroke-linejoin:miter;"/>
   </g>
   <g id="patch_114">
    <path clip-path="url(#pc656beb6b0)" d="M 196.566857 388.8 
L 197.417143 388.8 
L 197.417143 386.0352 
L 196.566857 386.0352 
z
" style="fill:#ff6d38;stroke:#000000;stroke-linejoin:miter;"/>
   </g>
   <g id="patch_115">
    <path clip-path="url(#pc656beb6b0)" d="M 209.321143 388.8 
L 210.171429 388.8 
L 210.171429 387.4176 
L 209.321143 387.4176 
z
" style="fill:#ff6d38;stroke:#000000;stroke-linejoin:miter;"/>
   </g>
   <g id="patch_116">
    <path clip-path="url(#pc656beb6b0)" d="M 222.075429 388.8 
L 222.925714 388.8 
L 222.925714 388.8 
L 222.075429 388.8 
z
" style="fill:#ff6d38;stroke:#000000;stroke-linejoin:miter;"/>
   </g>
   <g id="patch_117">
    <path clip-path="url(#pc656beb6b0)" d="M 234.829714 388.8 
L 235.68 388.8 
L 235.68 388.8 
L 234.829714 388.8 
z
" style="fill:#ff6d38;stroke:#000000;stroke-linejoin:miter;"/>
   </g>
   <g id="patch_118">
    <path clip-path="url(#pc656beb6b0)" d="M 247.584 388.8 
L 248.434286 388.8 
L 248.434286 388.8 
L 247.584 388.8 
z
" style="fill:#ff6d38;stroke:#000000;stroke-linejoin:miter;"/>
   </g>
   <g id="patch_119">
    <path clip-path="url(#pc656beb6b0)" d="M 260.338286 388.8 
L 261.188571 388.8 
L 261.188571 388.8 
L 260.338286 388.8 
z
" style="fill:#ff6d38;stroke:#000000;stroke-linejoin:miter;"/>
   </g>
   <g id="patch_120">
    <path clip-path="url(#pc656beb6b0)" d="M 273.092571 388.8 
L 273.942857 388.8 
L 273.942857 388.8 
L 273.092571 388.8 
z
" style="fill:#ff6d38;stroke:#000000;stroke-linejoin:miter;"/>
   </g>
   <g id="patch_121">
    <path clip-path="url(#pc656beb6b0)" d="M 285.846857 388.8 
L 286.697143 388.8 
L 286.697143 388.8 
L 285.846857 388.8 
z
" style="fill:#ff6d38;stroke:#000000;stroke-linejoin:miter;"/>
   </g>
   <g id="patch_122">
    <path clip-path="url(#pc656beb6b0)" d="M 298.601143 388.8 
L 299.451429 388.8 
L 299.451429 388.8 
L 298.601143 388.8 
z
" style="fill:#ff6d38;stroke:#000000;stroke-linejoin:miter;"/>
   </g>
   <g id="patch_123">
    <path clip-path="url(#pc656beb6b0)" d="M 311.355429 388.8 
L 312.205714 388.8 
L 312.205714 388.8 
L 311.355429 388.8 
z
" style="fill:#ff6d38;stroke:#000000;stroke-linejoin:miter;"/>
   </g>
   <g id="patch_124">
    <path clip-path="url(#pc656beb6b0)" d="M 324.109714 388.8 
L 324.96 388.8 
L 324.96 388.8 
L 324.109714 388.8 
z
" style="fill:#ff6d38;stroke:#000000;stroke-linejoin:miter;"/>
   </g>
   <g id="patch_125">
    <path clip-path="url(#pc656beb6b0)" d="M 336.864 388.8 
L 337.714286 388.8 
L 337.714286 388.8 
L 336.864 388.8 
z
" style="fill:#ff6d38;stroke:#000000;stroke-linejoin:miter;"/>
   </g>
   <g id="patch_126">
    <path clip-path="url(#pc656beb6b0)" d="M 349.618286 388.8 
L 350.468571 388.8 
L 350.468571 388.8 
L 349.618286 388.8 
z
" style="fill:#ff6d38;stroke:#000000;stroke-linejoin:miter;"/>
   </g>
   <g id="patch_127">
    <path clip-path="url(#pc656beb6b0)" d="M 362.372571 388.8 
L 363.222857 388.8 
L 363.222857 388.8 
L 362.372571 388.8 
z
" style="fill:#ff6d38;stroke:#000000;stroke-linejoin:miter;"/>
   </g>
   <g id="patch_128">
    <path clip-path="url(#pc656beb6b0)" d="M 375.126857 388.8 
L 375.977143 388.8 
L 375.977143 388.8 
L 375.126857 388.8 
z
" style="fill:#ff6d38;stroke:#000000;stroke-linejoin:miter;"/>
   </g>
   <g id="patch_129">
    <path clip-path="url(#pc656beb6b0)" d="M 387.881143 388.8 
L 388.731429 388.8 
L 388.731429 388.8 
L 387.881143 388.8 
z
" style="fill:#ff6d38;stroke:#000000;stroke-linejoin:miter;"/>
   </g>
   <g id="patch_130">
    <path clip-path="url(#pc656beb6b0)" d="M 400.635429 388.8 
L 401.485714 388.8 
L 401.485714 388.8 
L 400.635429 388.8 
z
" style="fill:#ff6d38;stroke:#000000;stroke-linejoin:miter;"/>
   </g>
   <g id="patch_131">
    <path clip-path="url(#pc656beb6b0)" d="M 413.389714 388.8 
L 414.24 388.8 
L 414.24 387.4176 
L 413.389714 387.4176 
z
" style="fill:#ff6d38;stroke:#000000;stroke-linejoin:miter;"/>
   </g>
   <g id="patch_132">
    <path clip-path="url(#pc656beb6b0)" d="M 146.4 388.8 
L 147.250286 388.8 
L 147.250286 354.24 
L 146.4 354.24 
z
" style="fill:#ff381c;stroke:#000000;stroke-linejoin:miter;"/>
   </g>
   <g id="patch_133">
    <path clip-path="url(#pc656beb6b0)" d="M 159.154286 388.8 
L 160.004571 388.8 
L 160.004571 372.2112 
L 159.154286 372.2112 
z
" style="fill:#ff381c;stroke:#000000;stroke-linejoin:miter;"/>
   </g>
   <g id="patch_134">
    <path clip-path="url(#pc656beb6b0)" d="M 171.908571 388.8 
L 172.758857 388.8 
L 172.758857 381.888 
L 171.908571 381.888 
z
" style="fill:#ff381c;stroke:#000000;stroke-linejoin:miter;"/>
   </g>
   <g id="patch_135">
    <path clip-path="url(#pc656beb6b0)" d="M 184.662857 388.8 
L 185.513143 388.8 
L 185.513143 388.8 
L 184.662857 388.8 
z
" style="fill:#ff381c;stroke:#000000;stroke-linejoin:miter;"/>
   </g>
   <g id="patch_136">
    <path clip-path="url(#pc656beb6b0)" d="M 197.417143 388.8 
L 198.267429 388.8 
L 198.267429 387.4176 
L 197.417143 387.4176 
z
" style="fill:#ff381c;stroke:#000000;stroke-linejoin:miter;"/>
   </g>
   <g id="patch_137">
    <path clip-path="url(#pc656beb6b0)" d="M 147.250286 388.8 
L 148.100571 388.8 
L 148.100571 323.8272 
L 147.250286 323.8272 
z
" style="fill:#ff0000;stroke:#000000;stroke-linejoin:miter;"/>
   </g>
   <g id="patch_138">
    <path clip-path="url(#pc656beb6b0)" d="M 160.004571 388.8 
L 160.854857 388.8 
L 160.854857 362.5344 
L 160.004571 362.5344 
z
" style="fill:#ff0000;stroke:#000000;stroke-linejoin:miter;"/>
   </g>
   <g id="patch_139">
    <path clip-path="url(#pc656beb6b0)" d="M 172.758857 388.8 
L 173.609143 388.8 
L 173.609143 377.7408 
L 172.758857 377.7408 
z
" style="fill:#ff0000;stroke:#000000;stroke-linejoin:miter;"/>
   </g>
   <g id="patch_140">
    <path d="M 72 388.8 
L 518.4 388.8 
" style="fill:none;stroke:#000000;stroke-linecap:square;stroke-linejoin:miter;"/>
   </g>
   <g id="patch_141">
    <path d="M 72 388.8 
L 72 43.2 
" style="fill:none;stroke:#000000;stroke-linecap:square;stroke-linejoin:miter;"/>
   </g>
   <g id="patch_142">
    <path d="M 72 43.2 
L 518.4 43.2 
" style="fill:none;stroke:#000000;stroke-linecap:square;stroke-linejoin:miter;"/>
   </g>
   <g id="patch_143">
    <path d="M 518.4 388.8 
L 518.4 43.2 
" style="fill:none;stroke:#000000;stroke-linecap:square;stroke-linejoin:miter;"/>
   </g>
   <g id="matplotlib.axis_1">
    <g id="xtick_1">
     <g id="line2d_1">
      <defs>
       <path d="M 0 0 
L 0 -4 
" id="m6ccb088345" style="stroke:#000000;stroke-width:0.5;"/>
      </defs>
      <g>
       <use style="stroke:#000000;stroke-width:0.5;" x="72.0" xlink:href="#m6ccb088345" y="388.8"/>
      </g>
     </g>
     <g id="line2d_2">
      <defs>
       <path d="M 0 0 
L 0 4 
" id="m47e8f5fa8d" style="stroke:#000000;stroke-width:0.5;"/>
      </defs>
      <g>
       <use style="stroke:#000000;stroke-width:0.5;" x="72.0" xlink:href="#m47e8f5fa8d" y="43.2"/>
      </g>
     </g>
     <g id="text_1">
      <!-- −5 -->
      <defs>
       <path d="M 10.59375 35.5 
L 73.1875 35.5 
L 73.1875 27.203125 
L 10.59375 27.203125 
z
" id="BitstreamVeraSans-Roman-2212"/>
       <path d="M 10.796875 72.90625 
L 49.515625 72.90625 
L 49.515625 64.59375 
L 19.828125 64.59375 
L 19.828125 46.734375 
Q 21.96875 47.46875 24.109375 47.828125 
Q 26.265625 48.1875 28.421875 48.1875 
Q 40.625 48.1875 47.75 41.5 
Q 54.890625 34.8125 54.890625 23.390625 
Q 54.890625 11.625 47.5625 5.09375 
Q 40.234375 -1.421875 26.90625 -1.421875 
Q 22.3125 -1.421875 17.546875 -0.640625 
Q 12.796875 0.140625 7.71875 1.703125 
L 7.71875 11.625 
Q 12.109375 9.234375 16.796875 8.0625 
Q 21.484375 6.890625 26.703125 6.890625 
Q 35.15625 6.890625 40.078125 11.328125 
Q 45.015625 15.765625 45.015625 23.390625 
Q 45.015625 31 40.078125 35.4375 
Q 35.15625 39.890625 26.703125 39.890625 
Q 22.75 39.890625 18.8125 39.015625 
Q 14.890625 38.140625 10.796875 36.28125 
z
" id="BitstreamVeraSans-Roman-35"/>
      </defs>
      <g transform="translate(63.1546875 401.918125)scale(0.12 -0.12)">
       <use xlink:href="#BitstreamVeraSans-Roman-2212"/>
       <use x="83.7890625" xlink:href="#BitstreamVeraSans-Roman-35"/>
      </g>
     </g>
    </g>
    <g id="xtick_2">
     <g id="line2d_3">
      <g>
       <use style="stroke:#000000;stroke-width:0.5;" x="135.771428571" xlink:href="#m6ccb088345" y="388.8"/>
      </g>
     </g>
     <g id="line2d_4">
      <g>
       <use style="stroke:#000000;stroke-width:0.5;" x="135.771428571" xlink:href="#m47e8f5fa8d" y="43.2"/>
      </g>
     </g>
     <g id="text_2">
      <!-- 0 -->
      <defs>
       <path d="M 31.78125 66.40625 
Q 24.171875 66.40625 20.328125 58.90625 
Q 16.5 51.421875 16.5 36.375 
Q 16.5 21.390625 20.328125 13.890625 
Q 24.171875 6.390625 31.78125 6.390625 
Q 39.453125 6.390625 43.28125 13.890625 
Q 47.125 21.390625 47.125 36.375 
Q 47.125 51.421875 43.28125 58.90625 
Q 39.453125 66.40625 31.78125 66.40625 
M 31.78125 74.21875 
Q 44.046875 74.21875 50.515625 64.515625 
Q 56.984375 54.828125 56.984375 36.375 
Q 56.984375 17.96875 50.515625 8.265625 
Q 44.046875 -1.421875 31.78125 -1.421875 
Q 19.53125 -1.421875 13.0625 8.265625 
Q 6.59375 17.96875 6.59375 36.375 
Q 6.59375 54.828125 13.0625 64.515625 
Q 19.53125 74.21875 31.78125 74.21875 
" id="BitstreamVeraSans-Roman-30"/>
      </defs>
      <g transform="translate(131.953928571 401.918125)scale(0.12 -0.12)">
       <use xlink:href="#BitstreamVeraSans-Roman-30"/>
      </g>
     </g>
    </g>
    <g id="xtick_3">
     <g id="line2d_5">
      <g>
       <use style="stroke:#000000;stroke-width:0.5;" x="199.542857143" xlink:href="#m6ccb088345" y="388.8"/>
      </g>
     </g>
     <g id="line2d_6">
      <g>
       <use style="stroke:#000000;stroke-width:0.5;" x="199.542857143" xlink:href="#m47e8f5fa8d" y="43.2"/>
      </g>
     </g>
     <g id="text_3">
      <!-- 5 -->
      <g transform="translate(195.725357143 401.918125)scale(0.12 -0.12)">
       <use xlink:href="#BitstreamVeraSans-Roman-35"/>
      </g>
     </g>
    </g>
    <g id="xtick_4">
     <g id="line2d_7">
      <g>
       <use style="stroke:#000000;stroke-width:0.5;" x="263.314285714" xlink:href="#m6ccb088345" y="388.8"/>
      </g>
     </g>
     <g id="line2d_8">
      <g>
       <use style="stroke:#000000;stroke-width:0.5;" x="263.314285714" xlink:href="#m47e8f5fa8d" y="43.2"/>
      </g>
     </g>
     <g id="text_4">
      <!-- 10 -->
      <defs>
       <path d="M 12.40625 8.296875 
L 28.515625 8.296875 
L 28.515625 63.921875 
L 10.984375 60.40625 
L 10.984375 69.390625 
L 28.421875 72.90625 
L 38.28125 72.90625 
L 38.28125 8.296875 
L 54.390625 8.296875 
L 54.390625 0 
L 12.40625 0 
z
" id="BitstreamVeraSans-Roman-31"/>
      </defs>
      <g transform="translate(255.679285714 401.918125)scale(0.12 -0.12)">
       <use xlink:href="#BitstreamVeraSans-Roman-31"/>
       <use x="63.623046875" xlink:href="#BitstreamVeraSans-Roman-30"/>
      </g>
     </g>
    </g>
    <g id="xtick_5">
     <g id="line2d_9">
      <g>
       <use style="stroke:#000000;stroke-width:0.5;" x="327.085714286" xlink:href="#m6ccb088345" y="388.8"/>
      </g>
     </g>
     <g id="line2d_10">
      <g>
       <use style="stroke:#000000;stroke-width:0.5;" x="327.085714286" xlink:href="#m47e8f5fa8d" y="43.2"/>
      </g>
     </g>
     <g id="text_5">
      <!-- 15 -->
      <g transform="translate(319.450714286 401.918125)scale(0.12 -0.12)">
       <use xlink:href="#BitstreamVeraSans-Roman-31"/>
       <use x="63.623046875" xlink:href="#BitstreamVeraSans-Roman-35"/>
      </g>
     </g>
    </g>
    <g id="xtick_6">
     <g id="line2d_11">
      <g>
       <use style="stroke:#000000;stroke-width:0.5;" x="390.857142857" xlink:href="#m6ccb088345" y="388.8"/>
      </g>
     </g>
     <g id="line2d_12">
      <g>
       <use style="stroke:#000000;stroke-width:0.5;" x="390.857142857" xlink:href="#m47e8f5fa8d" y="43.2"/>
      </g>
     </g>
     <g id="text_6">
      <!-- 20 -->
      <defs>
       <path d="M 19.1875 8.296875 
L 53.609375 8.296875 
L 53.609375 0 
L 7.328125 0 
L 7.328125 8.296875 
Q 12.9375 14.109375 22.625 23.890625 
Q 32.328125 33.6875 34.8125 36.53125 
Q 39.546875 41.84375 41.421875 45.53125 
Q 43.3125 49.21875 43.3125 52.78125 
Q 43.3125 58.59375 39.234375 62.25 
Q 35.15625 65.921875 28.609375 65.921875 
Q 23.96875 65.921875 18.8125 64.3125 
Q 13.671875 62.703125 7.8125 59.421875 
L 7.8125 69.390625 
Q 13.765625 71.78125 18.9375 73 
Q 24.125 74.21875 28.421875 74.21875 
Q 39.75 74.21875 46.484375 68.546875 
Q 53.21875 62.890625 53.21875 53.421875 
Q 53.21875 48.921875 51.53125 44.890625 
Q 49.859375 40.875 45.40625 35.40625 
Q 44.1875 33.984375 37.640625 27.21875 
Q 31.109375 20.453125 19.1875 8.296875 
" id="BitstreamVeraSans-Roman-32"/>
      </defs>
      <g transform="translate(383.222142857 401.918125)scale(0.12 -0.12)">
       <use xlink:href="#BitstreamVeraSans-Roman-32"/>
       <use x="63.623046875" xlink:href="#BitstreamVeraSans-Roman-30"/>
      </g>
     </g>
    </g>
    <g id="xtick_7">
     <g id="line2d_13">
      <g>
       <use style="stroke:#000000;stroke-width:0.5;" x="454.628571429" xlink:href="#m6ccb088345" y="388.8"/>
      </g>
     </g>
     <g id="line2d_14">
      <g>
       <use style="stroke:#000000;stroke-width:0.5;" x="454.628571429" xlink:href="#m47e8f5fa8d" y="43.2"/>
      </g>
     </g>
     <g id="text_7">
      <!-- 25 -->
      <g transform="translate(446.993571429 401.918125)scale(0.12 -0.12)">
       <use xlink:href="#BitstreamVeraSans-Roman-32"/>
       <use x="63.623046875" xlink:href="#BitstreamVeraSans-Roman-35"/>
      </g>
     </g>
    </g>
    <g id="xtick_8">
     <g id="line2d_15">
      <g>
       <use style="stroke:#000000;stroke-width:0.5;" x="518.4" xlink:href="#m6ccb088345" y="388.8"/>
      </g>
     </g>
     <g id="line2d_16">
      <g>
       <use style="stroke:#000000;stroke-width:0.5;" x="518.4" xlink:href="#m47e8f5fa8d" y="43.2"/>
      </g>
     </g>
     <g id="text_8">
      <!-- 30 -->
      <defs>
       <path d="M 40.578125 39.3125 
Q 47.65625 37.796875 51.625 33 
Q 55.609375 28.21875 55.609375 21.1875 
Q 55.609375 10.40625 48.1875 4.484375 
Q 40.765625 -1.421875 27.09375 -1.421875 
Q 22.515625 -1.421875 17.65625 -0.515625 
Q 12.796875 0.390625 7.625 2.203125 
L 7.625 11.71875 
Q 11.71875 9.328125 16.59375 8.109375 
Q 21.484375 6.890625 26.8125 6.890625 
Q 36.078125 6.890625 40.9375 10.546875 
Q 45.796875 14.203125 45.796875 21.1875 
Q 45.796875 27.640625 41.28125 31.265625 
Q 36.765625 34.90625 28.71875 34.90625 
L 20.21875 34.90625 
L 20.21875 43.015625 
L 29.109375 43.015625 
Q 36.375 43.015625 40.234375 45.921875 
Q 44.09375 48.828125 44.09375 54.296875 
Q 44.09375 59.90625 40.109375 62.90625 
Q 36.140625 65.921875 28.71875 65.921875 
Q 24.65625 65.921875 20.015625 65.03125 
Q 15.375 64.15625 9.8125 62.3125 
L 9.8125 71.09375 
Q 15.4375 72.65625 20.34375 73.4375 
Q 25.25 74.21875 29.59375 74.21875 
Q 40.828125 74.21875 47.359375 69.109375 
Q 53.90625 64.015625 53.90625 55.328125 
Q 53.90625 49.265625 50.4375 45.09375 
Q 46.96875 40.921875 40.578125 39.3125 
" id="BitstreamVeraSans-Roman-33"/>
      </defs>
      <g transform="translate(510.765 401.918125)scale(0.12 -0.12)">
       <use xlink:href="#BitstreamVeraSans-Roman-33"/>
       <use x="63.623046875" xlink:href="#BitstreamVeraSans-Roman-30"/>
      </g>
     </g>
    </g>
    <g id="text_9">
     <!-- number of index changed -->
     <defs>
      <path d="M 54.890625 33.015625 
L 54.890625 0 
L 45.90625 0 
L 45.90625 32.71875 
Q 45.90625 40.484375 42.875 44.328125 
Q 39.84375 48.1875 33.796875 48.1875 
Q 26.515625 48.1875 22.3125 43.546875 
Q 18.109375 38.921875 18.109375 30.90625 
L 18.109375 0 
L 9.078125 0 
L 9.078125 54.6875 
L 18.109375 54.6875 
L 18.109375 46.1875 
Q 21.34375 51.125 25.703125 53.5625 
Q 30.078125 56 35.796875 56 
Q 45.21875 56 50.046875 50.171875 
Q 54.890625 44.34375 54.890625 33.015625 
" id="BitstreamVeraSans-Roman-6e"/>
      <path d="M 45.40625 46.390625 
L 45.40625 75.984375 
L 54.390625 75.984375 
L 54.390625 0 
L 45.40625 0 
L 45.40625 8.203125 
Q 42.578125 3.328125 38.25 0.953125 
Q 33.9375 -1.421875 27.875 -1.421875 
Q 17.96875 -1.421875 11.734375 6.484375 
Q 5.515625 14.40625 5.515625 27.296875 
Q 5.515625 40.1875 11.734375 48.09375 
Q 17.96875 56 27.875 56 
Q 33.9375 56 38.25 53.625 
Q 42.578125 51.265625 45.40625 46.390625 
M 14.796875 27.296875 
Q 14.796875 17.390625 18.875 11.75 
Q 22.953125 6.109375 30.078125 6.109375 
Q 37.203125 6.109375 41.296875 11.75 
Q 45.40625 17.390625 45.40625 27.296875 
Q 45.40625 37.203125 41.296875 42.84375 
Q 37.203125 48.484375 30.078125 48.484375 
Q 22.953125 48.484375 18.875 42.84375 
Q 14.796875 37.203125 14.796875 27.296875 
" id="BitstreamVeraSans-Roman-64"/>
      <path d="M 45.40625 27.984375 
Q 45.40625 37.75 41.375 43.109375 
Q 37.359375 48.484375 30.078125 48.484375 
Q 22.859375 48.484375 18.828125 43.109375 
Q 14.796875 37.75 14.796875 27.984375 
Q 14.796875 18.265625 18.828125 12.890625 
Q 22.859375 7.515625 30.078125 7.515625 
Q 37.359375 7.515625 41.375 12.890625 
Q 45.40625 18.265625 45.40625 27.984375 
M 54.390625 6.78125 
Q 54.390625 -7.171875 48.1875 -13.984375 
Q 42 -20.796875 29.203125 -20.796875 
Q 24.46875 -20.796875 20.265625 -20.09375 
Q 16.0625 -19.390625 12.109375 -17.921875 
L 12.109375 -9.1875 
Q 16.0625 -11.328125 19.921875 -12.34375 
Q 23.78125 -13.375 27.78125 -13.375 
Q 36.625 -13.375 41.015625 -8.765625 
Q 45.40625 -4.15625 45.40625 5.171875 
L 45.40625 9.625 
Q 42.625 4.78125 38.28125 2.390625 
Q 33.9375 0 27.875 0 
Q 17.828125 0 11.671875 7.65625 
Q 5.515625 15.328125 5.515625 27.984375 
Q 5.515625 40.671875 11.671875 48.328125 
Q 17.828125 56 27.875 56 
Q 33.9375 56 38.28125 53.609375 
Q 42.625 51.21875 45.40625 46.390625 
L 45.40625 54.6875 
L 54.390625 54.6875 
z
" id="BitstreamVeraSans-Roman-67"/>
      <path d="M 56.203125 29.59375 
L 56.203125 25.203125 
L 14.890625 25.203125 
Q 15.484375 15.921875 20.484375 11.0625 
Q 25.484375 6.203125 34.421875 6.203125 
Q 39.59375 6.203125 44.453125 7.46875 
Q 49.3125 8.734375 54.109375 11.28125 
L 54.109375 2.78125 
Q 49.265625 0.734375 44.1875 -0.34375 
Q 39.109375 -1.421875 33.890625 -1.421875 
Q 20.796875 -1.421875 13.15625 6.1875 
Q 5.515625 13.8125 5.515625 26.8125 
Q 5.515625 40.234375 12.765625 48.109375 
Q 20.015625 56 32.328125 56 
Q 43.359375 56 49.78125 48.890625 
Q 56.203125 41.796875 56.203125 29.59375 
M 47.21875 32.234375 
Q 47.125 39.59375 43.09375 43.984375 
Q 39.0625 48.390625 32.421875 48.390625 
Q 24.90625 48.390625 20.390625 44.140625 
Q 15.875 39.890625 15.1875 32.171875 
z
" id="BitstreamVeraSans-Roman-65"/>
      <path d="M 48.6875 27.296875 
Q 48.6875 37.203125 44.609375 42.84375 
Q 40.53125 48.484375 33.40625 48.484375 
Q 26.265625 48.484375 22.1875 42.84375 
Q 18.109375 37.203125 18.109375 27.296875 
Q 18.109375 17.390625 22.1875 11.75 
Q 26.265625 6.109375 33.40625 6.109375 
Q 40.53125 6.109375 44.609375 11.75 
Q 48.6875 17.390625 48.6875 27.296875 
M 18.109375 46.390625 
Q 20.953125 51.265625 25.265625 53.625 
Q 29.59375 56 35.59375 56 
Q 45.5625 56 51.78125 48.09375 
Q 58.015625 40.1875 58.015625 27.296875 
Q 58.015625 14.40625 51.78125 6.484375 
Q 45.5625 -1.421875 35.59375 -1.421875 
Q 29.59375 -1.421875 25.265625 0.953125 
Q 20.953125 3.328125 18.109375 8.203125 
L 18.109375 0 
L 9.078125 0 
L 9.078125 75.984375 
L 18.109375 75.984375 
z
" id="BitstreamVeraSans-Roman-62"/>
      <path d="M 54.890625 33.015625 
L 54.890625 0 
L 45.90625 0 
L 45.90625 32.71875 
Q 45.90625 40.484375 42.875 44.328125 
Q 39.84375 48.1875 33.796875 48.1875 
Q 26.515625 48.1875 22.3125 43.546875 
Q 18.109375 38.921875 18.109375 30.90625 
L 18.109375 0 
L 9.078125 0 
L 9.078125 75.984375 
L 18.109375 75.984375 
L 18.109375 46.1875 
Q 21.34375 51.125 25.703125 53.5625 
Q 30.078125 56 35.796875 56 
Q 45.21875 56 50.046875 50.171875 
Q 54.890625 44.34375 54.890625 33.015625 
" id="BitstreamVeraSans-Roman-68"/>
      <path d="M 9.421875 54.6875 
L 18.40625 54.6875 
L 18.40625 0 
L 9.421875 0 
z
M 9.421875 75.984375 
L 18.40625 75.984375 
L 18.40625 64.59375 
L 9.421875 64.59375 
z
" id="BitstreamVeraSans-Roman-69"/>
      <path d="M 41.109375 46.296875 
Q 39.59375 47.171875 37.8125 47.578125 
Q 36.03125 48 33.890625 48 
Q 26.265625 48 22.1875 43.046875 
Q 18.109375 38.09375 18.109375 28.8125 
L 18.109375 0 
L 9.078125 0 
L 9.078125 54.6875 
L 18.109375 54.6875 
L 18.109375 46.1875 
Q 20.953125 51.171875 25.484375 53.578125 
Q 30.03125 56 36.53125 56 
Q 37.453125 56 38.578125 55.875 
Q 39.703125 55.765625 41.0625 55.515625 
z
" id="BitstreamVeraSans-Roman-72"/>
      <path d="M 8.5 21.578125 
L 8.5 54.6875 
L 17.484375 54.6875 
L 17.484375 21.921875 
Q 17.484375 14.15625 20.5 10.265625 
Q 23.53125 6.390625 29.59375 6.390625 
Q 36.859375 6.390625 41.078125 11.03125 
Q 45.3125 15.671875 45.3125 23.6875 
L 45.3125 54.6875 
L 54.296875 54.6875 
L 54.296875 0 
L 45.3125 0 
L 45.3125 8.40625 
Q 42.046875 3.421875 37.71875 1 
Q 33.40625 -1.421875 27.6875 -1.421875 
Q 18.265625 -1.421875 13.375 4.4375 
Q 8.5 10.296875 8.5 21.578125 
" id="BitstreamVeraSans-Roman-75"/>
      <path d="M 34.28125 27.484375 
Q 23.390625 27.484375 19.1875 25 
Q 14.984375 22.515625 14.984375 16.5 
Q 14.984375 11.71875 18.140625 8.90625 
Q 21.296875 6.109375 26.703125 6.109375 
Q 34.1875 6.109375 38.703125 11.40625 
Q 43.21875 16.703125 43.21875 25.484375 
L 43.21875 27.484375 
z
M 52.203125 31.203125 
L 52.203125 0 
L 43.21875 0 
L 43.21875 8.296875 
Q 40.140625 3.328125 35.546875 0.953125 
Q 30.953125 -1.421875 24.3125 -1.421875 
Q 15.921875 -1.421875 10.953125 3.296875 
Q 6 8.015625 6 15.921875 
Q 6 25.140625 12.171875 29.828125 
Q 18.359375 34.515625 30.609375 34.515625 
L 43.21875 34.515625 
L 43.21875 35.40625 
Q 43.21875 41.609375 39.140625 45 
Q 35.0625 48.390625 27.6875 48.390625 
Q 23 48.390625 18.546875 47.265625 
Q 14.109375 46.140625 10.015625 43.890625 
L 10.015625 52.203125 
Q 14.9375 54.109375 19.578125 55.046875 
Q 24.21875 56 28.609375 56 
Q 40.484375 56 46.34375 49.84375 
Q 52.203125 43.703125 52.203125 31.203125 
" id="BitstreamVeraSans-Roman-61"/>
      <path d="M 54.890625 54.6875 
L 35.109375 28.078125 
L 55.90625 0 
L 45.3125 0 
L 29.390625 21.484375 
L 13.484375 0 
L 2.875 0 
L 24.125 28.609375 
L 4.6875 54.6875 
L 15.28125 54.6875 
L 29.78125 35.203125 
L 44.28125 54.6875 
z
" id="BitstreamVeraSans-Roman-78"/>
      <path d="M 48.78125 52.59375 
L 48.78125 44.1875 
Q 44.96875 46.296875 41.140625 47.34375 
Q 37.3125 48.390625 33.40625 48.390625 
Q 24.65625 48.390625 19.8125 42.84375 
Q 14.984375 37.3125 14.984375 27.296875 
Q 14.984375 17.28125 19.8125 11.734375 
Q 24.65625 6.203125 33.40625 6.203125 
Q 37.3125 6.203125 41.140625 7.25 
Q 44.96875 8.296875 48.78125 10.40625 
L 48.78125 2.09375 
Q 45.015625 0.34375 40.984375 -0.53125 
Q 36.96875 -1.421875 32.421875 -1.421875 
Q 20.0625 -1.421875 12.78125 6.34375 
Q 5.515625 14.109375 5.515625 27.296875 
Q 5.515625 40.671875 12.859375 48.328125 
Q 20.21875 56 33.015625 56 
Q 37.15625 56 41.109375 55.140625 
Q 45.0625 54.296875 48.78125 52.59375 
" id="BitstreamVeraSans-Roman-63"/>
      <path id="BitstreamVeraSans-Roman-20"/>
      <path d="M 30.609375 48.390625 
Q 23.390625 48.390625 19.1875 42.75 
Q 14.984375 37.109375 14.984375 27.296875 
Q 14.984375 17.484375 19.15625 11.84375 
Q 23.34375 6.203125 30.609375 6.203125 
Q 37.796875 6.203125 41.984375 11.859375 
Q 46.1875 17.53125 46.1875 27.296875 
Q 46.1875 37.015625 41.984375 42.703125 
Q 37.796875 48.390625 30.609375 48.390625 
M 30.609375 56 
Q 42.328125 56 49.015625 48.375 
Q 55.71875 40.765625 55.71875 27.296875 
Q 55.71875 13.875 49.015625 6.21875 
Q 42.328125 -1.421875 30.609375 -1.421875 
Q 18.84375 -1.421875 12.171875 6.21875 
Q 5.515625 13.875 5.515625 27.296875 
Q 5.515625 40.765625 12.171875 48.375 
Q 18.84375 56 30.609375 56 
" id="BitstreamVeraSans-Roman-6f"/>
      <path d="M 37.109375 75.984375 
L 37.109375 68.5 
L 28.515625 68.5 
Q 23.6875 68.5 21.796875 66.546875 
Q 19.921875 64.59375 19.921875 59.515625 
L 19.921875 54.6875 
L 34.71875 54.6875 
L 34.71875 47.703125 
L 19.921875 47.703125 
L 19.921875 0 
L 10.890625 0 
L 10.890625 47.703125 
L 2.296875 47.703125 
L 2.296875 54.6875 
L 10.890625 54.6875 
L 10.890625 58.5 
Q 10.890625 67.625 15.140625 71.796875 
Q 19.390625 75.984375 28.609375 75.984375 
z
" id="BitstreamVeraSans-Roman-66"/>
      <path d="M 52 44.1875 
Q 55.375 50.25 60.0625 53.125 
Q 64.75 56 71.09375 56 
Q 79.640625 56 84.28125 50.015625 
Q 88.921875 44.046875 88.921875 33.015625 
L 88.921875 0 
L 79.890625 0 
L 79.890625 32.71875 
Q 79.890625 40.578125 77.09375 44.375 
Q 74.3125 48.1875 68.609375 48.1875 
Q 61.625 48.1875 57.5625 43.546875 
Q 53.515625 38.921875 53.515625 30.90625 
L 53.515625 0 
L 44.484375 0 
L 44.484375 32.71875 
Q 44.484375 40.625 41.703125 44.40625 
Q 38.921875 48.1875 33.109375 48.1875 
Q 26.21875 48.1875 22.15625 43.53125 
Q 18.109375 38.875 18.109375 30.90625 
L 18.109375 0 
L 9.078125 0 
L 9.078125 54.6875 
L 18.109375 54.6875 
L 18.109375 46.1875 
Q 21.1875 51.21875 25.484375 53.609375 
Q 29.78125 56 35.6875 56 
Q 41.65625 56 45.828125 52.96875 
Q 50 49.953125 52 44.1875 
" id="BitstreamVeraSans-Roman-6d"/>
     </defs>
     <g transform="translate(217.8675 418.531875)scale(0.12 -0.12)">
      <use xlink:href="#BitstreamVeraSans-Roman-6e"/>
      <use x="63.37890625" xlink:href="#BitstreamVeraSans-Roman-75"/>
      <use x="126.7578125" xlink:href="#BitstreamVeraSans-Roman-6d"/>
      <use x="224.169921875" xlink:href="#BitstreamVeraSans-Roman-62"/>
      <use x="287.646484375" xlink:href="#BitstreamVeraSans-Roman-65"/>
      <use x="349.169921875" xlink:href="#BitstreamVeraSans-Roman-72"/>
      <use x="390.283203125" xlink:href="#BitstreamVeraSans-Roman-20"/>
      <use x="422.0703125" xlink:href="#BitstreamVeraSans-Roman-6f"/>
      <use x="483.251953125" xlink:href="#BitstreamVeraSans-Roman-66"/>
      <use x="518.45703125" xlink:href="#BitstreamVeraSans-Roman-20"/>
      <use x="550.244140625" xlink:href="#BitstreamVeraSans-Roman-69"/>
      <use x="578.02734375" xlink:href="#BitstreamVeraSans-Roman-6e"/>
      <use x="641.40625" xlink:href="#BitstreamVeraSans-Roman-64"/>
      <use x="704.8828125" xlink:href="#BitstreamVeraSans-Roman-65"/>
      <use x="766.390625" xlink:href="#BitstreamVeraSans-Roman-78"/>
      <use x="825.5703125" xlink:href="#BitstreamVeraSans-Roman-20"/>
      <use x="857.357421875" xlink:href="#BitstreamVeraSans-Roman-63"/>
      <use x="912.337890625" xlink:href="#BitstreamVeraSans-Roman-68"/>
      <use x="975.716796875" xlink:href="#BitstreamVeraSans-Roman-61"/>
      <use x="1036.99609375" xlink:href="#BitstreamVeraSans-Roman-6e"/>
      <use x="1100.375" xlink:href="#BitstreamVeraSans-Roman-67"/>
      <use x="1163.8515625" xlink:href="#BitstreamVeraSans-Roman-65"/>
      <use x="1225.375" xlink:href="#BitstreamVeraSans-Roman-64"/>
     </g>
    </g>
   </g>
   <g id="matplotlib.axis_2">
    <g id="ytick_1">
     <g id="line2d_17">
      <defs>
       <path d="M 0 0 
L 4 0 
" id="mb1f38f5dfa" style="stroke:#000000;stroke-width:0.5;"/>
      </defs>
      <g>
       <use style="stroke:#000000;stroke-width:0.5;" x="72.0" xlink:href="#mb1f38f5dfa" y="388.8"/>
      </g>
     </g>
     <g id="line2d_18">
      <defs>
       <path d="M 0 0 
L -4 0 
" id="m05f9338e10" style="stroke:#000000;stroke-width:0.5;"/>
      </defs>
      <g>
       <use style="stroke:#000000;stroke-width:0.5;" x="518.4" xlink:href="#m05f9338e10" y="388.8"/>
      </g>
     </g>
     <g id="text_10">
      <!-- 0 -->
      <g transform="translate(60.365 392.11125)scale(0.12 -0.12)">
       <use xlink:href="#BitstreamVeraSans-Roman-30"/>
      </g>
     </g>
    </g>
    <g id="ytick_2">
     <g id="line2d_19">
      <g>
       <use style="stroke:#000000;stroke-width:0.5;" x="72.0" xlink:href="#mb1f38f5dfa" y="319.68"/>
      </g>
     </g>
     <g id="line2d_20">
      <g>
       <use style="stroke:#000000;stroke-width:0.5;" x="518.4" xlink:href="#m05f9338e10" y="319.68"/>
      </g>
     </g>
     <g id="text_11">
      <!-- 50 -->
      <g transform="translate(52.73 322.99125)scale(0.12 -0.12)">
       <use xlink:href="#BitstreamVeraSans-Roman-35"/>
       <use x="63.623046875" xlink:href="#BitstreamVeraSans-Roman-30"/>
      </g>
     </g>
    </g>
    <g id="ytick_3">
     <g id="line2d_21">
      <g>
       <use style="stroke:#000000;stroke-width:0.5;" x="72.0" xlink:href="#mb1f38f5dfa" y="250.56"/>
      </g>
     </g>
     <g id="line2d_22">
      <g>
       <use style="stroke:#000000;stroke-width:0.5;" x="518.4" xlink:href="#m05f9338e10" y="250.56"/>
      </g>
     </g>
     <g id="text_12">
      <!-- 100 -->
      <g transform="translate(45.095 253.87125)scale(0.12 -0.12)">
       <use xlink:href="#BitstreamVeraSans-Roman-31"/>
       <use x="63.623046875" xlink:href="#BitstreamVeraSans-Roman-30"/>
       <use x="127.24609375" xlink:href="#BitstreamVeraSans-Roman-30"/>
      </g>
     </g>
    </g>
    <g id="ytick_4">
     <g id="line2d_23">
      <g>
       <use style="stroke:#000000;stroke-width:0.5;" x="72.0" xlink:href="#mb1f38f5dfa" y="181.44"/>
      </g>
     </g>
     <g id="line2d_24">
      <g>
       <use style="stroke:#000000;stroke-width:0.5;" x="518.4" xlink:href="#m05f9338e10" y="181.44"/>
      </g>
     </g>
     <g id="text_13">
      <!-- 150 -->
      <g transform="translate(45.095 184.75125)scale(0.12 -0.12)">
       <use xlink:href="#BitstreamVeraSans-Roman-31"/>
       <use x="63.623046875" xlink:href="#BitstreamVeraSans-Roman-35"/>
       <use x="127.24609375" xlink:href="#BitstreamVeraSans-Roman-30"/>
      </g>
     </g>
    </g>
    <g id="ytick_5">
     <g id="line2d_25">
      <g>
       <use style="stroke:#000000;stroke-width:0.5;" x="72.0" xlink:href="#mb1f38f5dfa" y="112.32"/>
      </g>
     </g>
     <g id="line2d_26">
      <g>
       <use style="stroke:#000000;stroke-width:0.5;" x="518.4" xlink:href="#m05f9338e10" y="112.32"/>
      </g>
     </g>
     <g id="text_14">
      <!-- 200 -->
      <g transform="translate(45.095 115.63125)scale(0.12 -0.12)">
       <use xlink:href="#BitstreamVeraSans-Roman-32"/>
       <use x="63.623046875" xlink:href="#BitstreamVeraSans-Roman-30"/>
       <use x="127.24609375" xlink:href="#BitstreamVeraSans-Roman-30"/>
      </g>
     </g>
    </g>
    <g id="ytick_6">
     <g id="line2d_27">
      <g>
       <use style="stroke:#000000;stroke-width:0.5;" x="72.0" xlink:href="#mb1f38f5dfa" y="43.2"/>
      </g>
     </g>
     <g id="line2d_28">
      <g>
       <use style="stroke:#000000;stroke-width:0.5;" x="518.4" xlink:href="#m05f9338e10" y="43.2"/>
      </g>
     </g>
     <g id="text_15">
      <!-- 250 -->
      <g transform="translate(45.095 46.51125)scale(0.12 -0.12)">
       <use xlink:href="#BitstreamVeraSans-Roman-32"/>
       <use x="63.623046875" xlink:href="#BitstreamVeraSans-Roman-35"/>
       <use x="127.24609375" xlink:href="#BitstreamVeraSans-Roman-30"/>
      </g>
     </g>
    </g>
    <g id="text_16">
     <!-- amount -->
     <defs>
      <path d="M 18.3125 70.21875 
L 18.3125 54.6875 
L 36.8125 54.6875 
L 36.8125 47.703125 
L 18.3125 47.703125 
L 18.3125 18.015625 
Q 18.3125 11.328125 20.140625 9.421875 
Q 21.96875 7.515625 27.59375 7.515625 
L 36.8125 7.515625 
L 36.8125 0 
L 27.59375 0 
Q 17.1875 0 13.234375 3.875 
Q 9.28125 7.765625 9.28125 18.015625 
L 9.28125 47.703125 
L 2.6875 47.703125 
L 2.6875 54.6875 
L 9.28125 54.6875 
L 9.28125 70.21875 
z
" id="BitstreamVeraSans-Roman-74"/>
     </defs>
     <g transform="translate(37.599375 239.1496875)rotate(-90.0)scale(0.12 -0.12)">
      <use xlink:href="#BitstreamVeraSans-Roman-61"/>
      <use x="61.279296875" xlink:href="#BitstreamVeraSans-Roman-6d"/>
      <use x="158.69140625" xlink:href="#BitstreamVeraSans-Roman-6f"/>
      <use x="219.873046875" xlink:href="#BitstreamVeraSans-Roman-75"/>
      <use x="283.251953125" xlink:href="#BitstreamVeraSans-Roman-6e"/>
      <use x="346.630859375" xlink:href="#BitstreamVeraSans-Roman-74"/>
     </g>
    </g>
   </g>
   <g id="text_17">
    <!-- number of index changed by method of correction -->
    <defs>
     <path d="M 32.171875 -5.078125 
Q 28.375 -14.84375 24.75 -17.8125 
Q 21.140625 -20.796875 15.09375 -20.796875 
L 7.90625 -20.796875 
L 7.90625 -13.28125 
L 13.1875 -13.28125 
Q 16.890625 -13.28125 18.9375 -11.515625 
Q 21 -9.765625 23.484375 -3.21875 
L 25.09375 0.875 
L 2.984375 54.6875 
L 12.5 54.6875 
L 29.59375 11.921875 
L 46.6875 54.6875 
L 56.203125 54.6875 
z
" id="BitstreamVeraSans-Roman-79"/>
    </defs>
    <g transform="translate(113.20875 38.2)scale(0.144 -0.144)">
     <use xlink:href="#BitstreamVeraSans-Roman-6e"/>
     <use x="63.37890625" xlink:href="#BitstreamVeraSans-Roman-75"/>
     <use x="126.7578125" xlink:href="#BitstreamVeraSans-Roman-6d"/>
     <use x="224.169921875" xlink:href="#BitstreamVeraSans-Roman-62"/>
     <use x="287.646484375" xlink:href="#BitstreamVeraSans-Roman-65"/>
     <use x="349.169921875" xlink:href="#BitstreamVeraSans-Roman-72"/>
     <use x="390.283203125" xlink:href="#BitstreamVeraSans-Roman-20"/>
     <use x="422.0703125" xlink:href="#BitstreamVeraSans-Roman-6f"/>
     <use x="483.251953125" xlink:href="#BitstreamVeraSans-Roman-66"/>
     <use x="518.45703125" xlink:href="#BitstreamVeraSans-Roman-20"/>
     <use x="550.244140625" xlink:href="#BitstreamVeraSans-Roman-69"/>
     <use x="578.02734375" xlink:href="#BitstreamVeraSans-Roman-6e"/>
     <use x="641.40625" xlink:href="#BitstreamVeraSans-Roman-64"/>
     <use x="704.8828125" xlink:href="#BitstreamVeraSans-Roman-65"/>
     <use x="766.390625" xlink:href="#BitstreamVeraSans-Roman-78"/>
     <use x="825.5703125" xlink:href="#BitstreamVeraSans-Roman-20"/>
     <use x="857.357421875" xlink:href="#BitstreamVeraSans-Roman-63"/>
     <use x="912.337890625" xlink:href="#BitstreamVeraSans-Roman-68"/>
     <use x="975.716796875" xlink:href="#BitstreamVeraSans-Roman-61"/>
     <use x="1036.99609375" xlink:href="#BitstreamVeraSans-Roman-6e"/>
     <use x="1100.375" xlink:href="#BitstreamVeraSans-Roman-67"/>
     <use x="1163.8515625" xlink:href="#BitstreamVeraSans-Roman-65"/>
     <use x="1225.375" xlink:href="#BitstreamVeraSans-Roman-64"/>
     <use x="1288.8515625" xlink:href="#BitstreamVeraSans-Roman-20"/>
     <use x="1320.638671875" xlink:href="#BitstreamVeraSans-Roman-62"/>
     <use x="1384.115234375" xlink:href="#BitstreamVeraSans-Roman-79"/>
     <use x="1443.294921875" xlink:href="#BitstreamVeraSans-Roman-20"/>
     <use x="1475.08203125" xlink:href="#BitstreamVeraSans-Roman-6d"/>
     <use x="1572.494140625" xlink:href="#BitstreamVeraSans-Roman-65"/>
     <use x="1634.017578125" xlink:href="#BitstreamVeraSans-Roman-74"/>
     <use x="1673.2265625" xlink:href="#BitstreamVeraSans-Roman-68"/>
     <use x="1736.60546875" xlink:href="#BitstreamVeraSans-Roman-6f"/>
     <use x="1797.787109375" xlink:href="#BitstreamVeraSans-Roman-64"/>
     <use x="1861.263671875" xlink:href="#BitstreamVeraSans-Roman-20"/>
     <use x="1893.05078125" xlink:href="#BitstreamVeraSans-Roman-6f"/>
     <use x="1954.232421875" xlink:href="#BitstreamVeraSans-Roman-66"/>
     <use x="1989.4375" xlink:href="#BitstreamVeraSans-Roman-20"/>
     <use x="2021.224609375" xlink:href="#BitstreamVeraSans-Roman-63"/>
     <use x="2076.205078125" xlink:href="#BitstreamVeraSans-Roman-6f"/>
     <use x="2137.38671875" xlink:href="#BitstreamVeraSans-Roman-72"/>
     <use x="2178.484375" xlink:href="#BitstreamVeraSans-Roman-72"/>
     <use x="2219.56640625" xlink:href="#BitstreamVeraSans-Roman-65"/>
     <use x="2281.08984375" xlink:href="#BitstreamVeraSans-Roman-63"/>
     <use x="2336.0703125" xlink:href="#BitstreamVeraSans-Roman-74"/>
     <use x="2375.279296875" xlink:href="#BitstreamVeraSans-Roman-69"/>
     <use x="2403.0625" xlink:href="#BitstreamVeraSans-Roman-6f"/>
     <use x="2464.244140625" xlink:href="#BitstreamVeraSans-Roman-6e"/>
    </g>
   </g>
   <g id="legend_1">
    <g id="patch_144">
     <path d="M 358.50625 327.585938 
L 513.4 327.585938 
L 513.4 104.414063 
L 358.50625 104.414063 
z
" style="fill:#ffffff;stroke:#000000;stroke-linejoin:miter;"/>
    </g>
    <g id="patch_145">
     <path d="M 362.50625 116.0125 
L 382.50625 116.0125 
L 382.50625 109.0125 
L 362.50625 109.0125 
z
" style="fill:#8000ff;stroke:#000000;stroke-linejoin:miter;"/>
    </g>
    <g id="text_18">
     <!-- fce to gold auto aligned -->
     <defs>
      <path d="M 9.421875 75.984375 
L 18.40625 75.984375 
L 18.40625 0 
L 9.421875 0 
z
" id="BitstreamVeraSans-Roman-6c"/>
     </defs>
     <g transform="translate(390.50625 116.0125)scale(0.1 -0.1)">
      <use xlink:href="#BitstreamVeraSans-Roman-66"/>
      <use x="35.205078125" xlink:href="#BitstreamVeraSans-Roman-63"/>
      <use x="90.185546875" xlink:href="#BitstreamVeraSans-Roman-65"/>
      <use x="151.708984375" xlink:href="#BitstreamVeraSans-Roman-20"/>
      <use x="183.49609375" xlink:href="#BitstreamVeraSans-Roman-74"/>
      <use x="222.705078125" xlink:href="#BitstreamVeraSans-Roman-6f"/>
      <use x="283.88671875" xlink:href="#BitstreamVeraSans-Roman-20"/>
      <use x="315.673828125" xlink:href="#BitstreamVeraSans-Roman-67"/>
      <use x="379.150390625" xlink:href="#BitstreamVeraSans-Roman-6f"/>
      <use x="440.33203125" xlink:href="#BitstreamVeraSans-Roman-6c"/>
      <use x="468.115234375" xlink:href="#BitstreamVeraSans-Roman-64"/>
      <use x="531.591796875" xlink:href="#BitstreamVeraSans-Roman-20"/>
      <use x="563.37890625" xlink:href="#BitstreamVeraSans-Roman-61"/>
      <use x="624.658203125" xlink:href="#BitstreamVeraSans-Roman-75"/>
      <use x="688.037109375" xlink:href="#BitstreamVeraSans-Roman-74"/>
      <use x="727.24609375" xlink:href="#BitstreamVeraSans-Roman-6f"/>
      <use x="788.427734375" xlink:href="#BitstreamVeraSans-Roman-20"/>
      <use x="820.21484375" xlink:href="#BitstreamVeraSans-Roman-61"/>
      <use x="881.494140625" xlink:href="#BitstreamVeraSans-Roman-6c"/>
      <use x="909.27734375" xlink:href="#BitstreamVeraSans-Roman-69"/>
      <use x="937.060546875" xlink:href="#BitstreamVeraSans-Roman-67"/>
      <use x="1000.537109375" xlink:href="#BitstreamVeraSans-Roman-6e"/>
      <use x="1063.916015625" xlink:href="#BitstreamVeraSans-Roman-65"/>
      <use x="1125.439453125" xlink:href="#BitstreamVeraSans-Roman-64"/>
     </g>
    </g>
    <g id="patch_146">
     <path d="M 362.50625 130.690625 
L 382.50625 130.690625 
L 382.50625 123.690625 
L 362.50625 123.690625 
z
" style="fill:#5c38fd;stroke:#000000;stroke-linejoin:miter;"/>
    </g>
    <g id="text_19">
     <!-- gold standard -->
     <defs>
      <path d="M 44.28125 53.078125 
L 44.28125 44.578125 
Q 40.484375 46.53125 36.375 47.5 
Q 32.28125 48.484375 27.875 48.484375 
Q 21.1875 48.484375 17.84375 46.4375 
Q 14.5 44.390625 14.5 40.28125 
Q 14.5 37.15625 16.890625 35.375 
Q 19.28125 33.59375 26.515625 31.984375 
L 29.59375 31.296875 
Q 39.15625 29.25 43.1875 25.515625 
Q 47.21875 21.78125 47.21875 15.09375 
Q 47.21875 7.46875 41.1875 3.015625 
Q 35.15625 -1.421875 24.609375 -1.421875 
Q 20.21875 -1.421875 15.453125 -0.5625 
Q 10.6875 0.296875 5.421875 2 
L 5.421875 11.28125 
Q 10.40625 8.6875 15.234375 7.390625 
Q 20.0625 6.109375 24.8125 6.109375 
Q 31.15625 6.109375 34.5625 8.28125 
Q 37.984375 10.453125 37.984375 14.40625 
Q 37.984375 18.0625 35.515625 20.015625 
Q 33.0625 21.96875 24.703125 23.78125 
L 21.578125 24.515625 
Q 13.234375 26.265625 9.515625 29.90625 
Q 5.8125 33.546875 5.8125 39.890625 
Q 5.8125 47.609375 11.28125 51.796875 
Q 16.75 56 26.8125 56 
Q 31.78125 56 36.171875 55.265625 
Q 40.578125 54.546875 44.28125 53.078125 
" id="BitstreamVeraSans-Roman-73"/>
     </defs>
     <g transform="translate(390.50625 130.690625)scale(0.1 -0.1)">
      <use xlink:href="#BitstreamVeraSans-Roman-67"/>
      <use x="63.4765625" xlink:href="#BitstreamVeraSans-Roman-6f"/>
      <use x="124.658203125" xlink:href="#BitstreamVeraSans-Roman-6c"/>
      <use x="152.44140625" xlink:href="#BitstreamVeraSans-Roman-64"/>
      <use x="215.91796875" xlink:href="#BitstreamVeraSans-Roman-20"/>
      <use x="247.705078125" xlink:href="#BitstreamVeraSans-Roman-73"/>
      <use x="299.8046875" xlink:href="#BitstreamVeraSans-Roman-74"/>
      <use x="339.013671875" xlink:href="#BitstreamVeraSans-Roman-61"/>
      <use x="400.29296875" xlink:href="#BitstreamVeraSans-Roman-6e"/>
      <use x="463.671875" xlink:href="#BitstreamVeraSans-Roman-64"/>
      <use x="527.1484375" xlink:href="#BitstreamVeraSans-Roman-61"/>
      <use x="588.427734375" xlink:href="#BitstreamVeraSans-Roman-72"/>
      <use x="629.525390625" xlink:href="#BitstreamVeraSans-Roman-64"/>
     </g>
    </g>
    <g id="patch_147">
     <path d="M 362.50625 145.36875 
L 382.50625 145.36875 
L 382.50625 138.36875 
L 362.50625 138.36875 
z
" style="fill:#386df9;stroke:#000000;stroke-linejoin:miter;"/>
    </g>
    <g id="text_20">
     <!-- cuui -->
     <g transform="translate(390.50625 145.36875)scale(0.1 -0.1)">
      <use xlink:href="#BitstreamVeraSans-Roman-63"/>
      <use x="54.98046875" xlink:href="#BitstreamVeraSans-Roman-75"/>
      <use x="118.359375" xlink:href="#BitstreamVeraSans-Roman-75"/>
      <use x="181.73828125" xlink:href="#BitstreamVeraSans-Roman-69"/>
     </g>
    </g>
    <g id="patch_148">
     <path d="M 362.50625 160.046875 
L 382.50625 160.046875 
L 382.50625 153.046875 
L 362.50625 153.046875 
z
" style="fill:#149df1;stroke:#000000;stroke-linejoin:miter;"/>
    </g>
    <g id="text_21">
     <!-- iitb -->
     <g transform="translate(390.50625 160.046875)scale(0.1 -0.1)">
      <use xlink:href="#BitstreamVeraSans-Roman-69"/>
      <use x="27.783203125" xlink:href="#BitstreamVeraSans-Roman-69"/>
      <use x="55.56640625" xlink:href="#BitstreamVeraSans-Roman-74"/>
      <use x="94.775390625" xlink:href="#BitstreamVeraSans-Roman-62"/>
     </g>
    </g>
    <g id="patch_149">
     <path d="M 362.50625 174.725 
L 382.50625 174.725 
L 382.50625 167.725 
L 362.50625 167.725 
z
" style="fill:#12c8e6;stroke:#000000;stroke-linejoin:miter;"/>
    </g>
    <g id="text_22">
     <!-- ipn -->
     <defs>
      <path d="M 18.109375 8.203125 
L 18.109375 -20.796875 
L 9.078125 -20.796875 
L 9.078125 54.6875 
L 18.109375 54.6875 
L 18.109375 46.390625 
Q 20.953125 51.265625 25.265625 53.625 
Q 29.59375 56 35.59375 56 
Q 45.5625 56 51.78125 48.09375 
Q 58.015625 40.1875 58.015625 27.296875 
Q 58.015625 14.40625 51.78125 6.484375 
Q 45.5625 -1.421875 35.59375 -1.421875 
Q 29.59375 -1.421875 25.265625 0.953125 
Q 20.953125 3.328125 18.109375 8.203125 
M 48.6875 27.296875 
Q 48.6875 37.203125 44.609375 42.84375 
Q 40.53125 48.484375 33.40625 48.484375 
Q 26.265625 48.484375 22.1875 42.84375 
Q 18.109375 37.203125 18.109375 27.296875 
Q 18.109375 17.390625 22.1875 11.75 
Q 26.265625 6.109375 33.40625 6.109375 
Q 40.53125 6.109375 44.609375 11.75 
Q 48.6875 17.390625 48.6875 27.296875 
" id="BitstreamVeraSans-Roman-70"/>
     </defs>
     <g transform="translate(390.50625 174.725)scale(0.1 -0.1)">
      <use xlink:href="#BitstreamVeraSans-Roman-69"/>
      <use x="27.783203125" xlink:href="#BitstreamVeraSans-Roman-70"/>
      <use x="91.259765625" xlink:href="#BitstreamVeraSans-Roman-6e"/>
     </g>
    </g>
    <g id="patch_150">
     <path d="M 362.50625 189.403125 
L 382.50625 189.403125 
L 382.50625 182.403125 
L 362.50625 182.403125 
z
" style="fill:#37e6d8;stroke:#000000;stroke-linejoin:miter;"/>
    </g>
    <g id="text_23">
     <!-- nthu -->
     <g transform="translate(390.50625 189.403125)scale(0.1 -0.1)">
      <use xlink:href="#BitstreamVeraSans-Roman-6e"/>
      <use x="63.37890625" xlink:href="#BitstreamVeraSans-Roman-74"/>
      <use x="102.587890625" xlink:href="#BitstreamVeraSans-Roman-68"/>
      <use x="165.966796875" xlink:href="#BitstreamVeraSans-Roman-75"/>
     </g>
    </g>
    <g id="patch_151">
     <path d="M 362.50625 204.08125 
L 382.50625 204.08125 
L 382.50625 197.08125 
L 362.50625 197.08125 
z
" style="fill:#5af8c8;stroke:#000000;stroke-linejoin:miter;"/>
    </g>
    <g id="text_24">
     <!-- pku -->
     <defs>
      <path d="M 9.078125 75.984375 
L 18.109375 75.984375 
L 18.109375 31.109375 
L 44.921875 54.6875 
L 56.390625 54.6875 
L 27.390625 29.109375 
L 57.625 0 
L 45.90625 0 
L 18.109375 26.703125 
L 18.109375 0 
L 9.078125 0 
z
" id="BitstreamVeraSans-Roman-6b"/>
     </defs>
     <g transform="translate(390.50625 204.08125)scale(0.1 -0.1)">
      <use xlink:href="#BitstreamVeraSans-Roman-70"/>
      <use x="63.4765625" xlink:href="#BitstreamVeraSans-Roman-6b"/>
      <use x="121.33984375" xlink:href="#BitstreamVeraSans-Roman-75"/>
     </g>
    </g>
    <g id="patch_152">
     <path d="M 362.50625 218.759375 
L 382.50625 218.759375 
L 382.50625 211.759375 
L 362.50625 211.759375 
z
" style="fill:#80ffb4;stroke:#000000;stroke-linejoin:miter;"/>
    </g>
    <g id="text_25">
     <!-- post -->
     <g transform="translate(390.50625 218.759375)scale(0.1 -0.1)">
      <use xlink:href="#BitstreamVeraSans-Roman-70"/>
      <use x="63.4765625" xlink:href="#BitstreamVeraSans-Roman-6f"/>
      <use x="124.658203125" xlink:href="#BitstreamVeraSans-Roman-73"/>
      <use x="176.7578125" xlink:href="#BitstreamVeraSans-Roman-74"/>
     </g>
    </g>
    <g id="patch_153">
     <path d="M 362.50625 233.4375 
L 382.50625 233.4375 
L 382.50625 226.4375 
L 362.50625 226.4375 
z
" style="fill:#a4f89f;stroke:#000000;stroke-linejoin:miter;"/>
    </g>
    <g id="text_26">
     <!-- rac -->
     <g transform="translate(390.50625 233.4375)scale(0.1 -0.1)">
      <use xlink:href="#BitstreamVeraSans-Roman-72"/>
      <use x="41.11328125" xlink:href="#BitstreamVeraSans-Roman-61"/>
      <use x="102.392578125" xlink:href="#BitstreamVeraSans-Roman-63"/>
     </g>
    </g>
    <g id="patch_154">
     <path d="M 362.50625 248.115625 
L 382.50625 248.115625 
L 382.50625 241.115625 
L 362.50625 241.115625 
z
" style="fill:#c8e688;stroke:#000000;stroke-linejoin:miter;"/>
    </g>
    <g id="text_27">
     <!-- sjtu -->
     <defs>
      <path d="M 9.421875 54.6875 
L 18.40625 54.6875 
L 18.40625 -0.984375 
Q 18.40625 -11.421875 14.421875 -16.109375 
Q 10.453125 -20.796875 1.609375 -20.796875 
L -1.8125 -20.796875 
L -1.8125 -13.1875 
L 0.59375 -13.1875 
Q 5.71875 -13.1875 7.5625 -10.8125 
Q 9.421875 -8.453125 9.421875 -0.984375 
z
M 9.421875 75.984375 
L 18.40625 75.984375 
L 18.40625 64.59375 
L 9.421875 64.59375 
z
" id="BitstreamVeraSans-Roman-6a"/>
     </defs>
     <g transform="translate(390.50625 248.115625)scale(0.1 -0.1)">
      <use xlink:href="#BitstreamVeraSans-Roman-73"/>
      <use x="52.099609375" xlink:href="#BitstreamVeraSans-Roman-6a"/>
      <use x="79.8828125" xlink:href="#BitstreamVeraSans-Roman-74"/>
      <use x="119.091796875" xlink:href="#BitstreamVeraSans-Roman-75"/>
     </g>
    </g>
    <g id="patch_155">
     <path d="M 362.50625 262.79375 
L 382.50625 262.79375 
L 382.50625 255.79375 
L 362.50625 255.79375 
z
" style="fill:#ecc86f;stroke:#000000;stroke-linejoin:miter;"/>
    </g>
    <g id="text_28">
     <!-- ufc -->
     <g transform="translate(390.50625 262.79375)scale(0.1 -0.1)">
      <use xlink:href="#BitstreamVeraSans-Roman-75"/>
      <use x="63.37890625" xlink:href="#BitstreamVeraSans-Roman-66"/>
      <use x="98.583984375" xlink:href="#BitstreamVeraSans-Roman-63"/>
     </g>
    </g>
    <g id="patch_156">
     <path d="M 362.50625 277.471875 
L 382.50625 277.471875 
L 382.50625 270.471875 
L 362.50625 270.471875 
z
" style="fill:#ff9d53;stroke:#000000;stroke-linejoin:miter;"/>
    </g>
    <g id="text_29">
     <!-- umc -->
     <g transform="translate(390.50625 277.471875)scale(0.1 -0.1)">
      <use xlink:href="#BitstreamVeraSans-Roman-75"/>
      <use x="63.37890625" xlink:href="#BitstreamVeraSans-Roman-6d"/>
      <use x="160.791015625" xlink:href="#BitstreamVeraSans-Roman-63"/>
     </g>
    </g>
    <g id="patch_157">
     <path d="M 362.50625 292.15 
L 382.50625 292.15 
L 382.50625 285.15 
L 362.50625 285.15 
z
" style="fill:#ff6d38;stroke:#000000;stroke-linejoin:miter;"/>
    </g>
    <g id="text_30">
     <!-- camb -->
     <g transform="translate(390.50625 292.15)scale(0.1 -0.1)">
      <use xlink:href="#BitstreamVeraSans-Roman-63"/>
      <use x="54.98046875" xlink:href="#BitstreamVeraSans-Roman-61"/>
      <use x="116.259765625" xlink:href="#BitstreamVeraSans-Roman-6d"/>
      <use x="213.671875" xlink:href="#BitstreamVeraSans-Roman-62"/>
     </g>
    </g>
    <g id="patch_158">
     <path d="M 362.50625 306.828125 
L 382.50625 306.828125 
L 382.50625 299.828125 
L 362.50625 299.828125 
z
" style="fill:#ff381c;stroke:#000000;stroke-linejoin:miter;"/>
    </g>
    <g id="text_31">
     <!-- AMU -->
     <defs>
      <path d="M 34.1875 63.1875 
L 20.796875 26.90625 
L 47.609375 26.90625 
z
M 28.609375 72.90625 
L 39.796875 72.90625 
L 67.578125 0 
L 57.328125 0 
L 50.6875 18.703125 
L 17.828125 18.703125 
L 11.1875 0 
L 0.78125 0 
z
" id="BitstreamVeraSans-Roman-41"/>
      <path d="M 9.8125 72.90625 
L 24.515625 72.90625 
L 43.109375 23.296875 
L 61.8125 72.90625 
L 76.515625 72.90625 
L 76.515625 0 
L 66.890625 0 
L 66.890625 64.015625 
L 48.09375 14.015625 
L 38.1875 14.015625 
L 19.390625 64.015625 
L 19.390625 0 
L 9.8125 0 
z
" id="BitstreamVeraSans-Roman-4d"/>
      <path d="M 8.6875 72.90625 
L 18.609375 72.90625 
L 18.609375 28.609375 
Q 18.609375 16.890625 22.84375 11.734375 
Q 27.09375 6.59375 36.625 6.59375 
Q 46.09375 6.59375 50.34375 11.734375 
Q 54.59375 16.890625 54.59375 28.609375 
L 54.59375 72.90625 
L 64.5 72.90625 
L 64.5 27.390625 
Q 64.5 13.140625 57.4375 5.859375 
Q 50.390625 -1.421875 36.625 -1.421875 
Q 22.796875 -1.421875 15.734375 5.859375 
Q 8.6875 13.140625 8.6875 27.390625 
z
" id="BitstreamVeraSans-Roman-55"/>
     </defs>
     <g transform="translate(390.50625 306.828125)scale(0.1 -0.1)">
      <use xlink:href="#BitstreamVeraSans-Roman-41"/>
      <use x="68.408203125" xlink:href="#BitstreamVeraSans-Roman-4d"/>
      <use x="154.6875" xlink:href="#BitstreamVeraSans-Roman-55"/>
     </g>
    </g>
    <g id="patch_159">
     <path d="M 362.50625 321.50625 
L 382.50625 321.50625 
L 382.50625 314.50625 
L 362.50625 314.50625 
z
" style="fill:#ff0000;stroke:#000000;stroke-linejoin:miter;"/>
    </g>
    <g id="text_32">
     <!-- Rozovskaya Roth -->
     <defs>
      <path d="M 44.390625 34.1875 
Q 47.5625 33.109375 50.5625 29.59375 
Q 53.5625 26.078125 56.59375 19.921875 
L 66.609375 0 
L 56 0 
L 46.6875 18.703125 
Q 43.0625 26.03125 39.671875 28.421875 
Q 36.28125 30.8125 30.421875 30.8125 
L 19.671875 30.8125 
L 19.671875 0 
L 9.8125 0 
L 9.8125 72.90625 
L 32.078125 72.90625 
Q 44.578125 72.90625 50.734375 67.671875 
Q 56.890625 62.453125 56.890625 51.90625 
Q 56.890625 45.015625 53.6875 40.46875 
Q 50.484375 35.9375 44.390625 34.1875 
M 19.671875 64.796875 
L 19.671875 38.921875 
L 32.078125 38.921875 
Q 39.203125 38.921875 42.84375 42.21875 
Q 46.484375 45.515625 46.484375 51.90625 
Q 46.484375 58.296875 42.84375 61.546875 
Q 39.203125 64.796875 32.078125 64.796875 
z
" id="BitstreamVeraSans-Roman-52"/>
      <path d="M 2.984375 54.6875 
L 12.5 54.6875 
L 29.59375 8.796875 
L 46.6875 54.6875 
L 56.203125 54.6875 
L 35.6875 0 
L 23.484375 0 
z
" id="BitstreamVeraSans-Roman-76"/>
      <path d="M 5.515625 54.6875 
L 48.1875 54.6875 
L 48.1875 46.484375 
L 14.40625 7.171875 
L 48.1875 7.171875 
L 48.1875 0 
L 4.296875 0 
L 4.296875 8.203125 
L 38.09375 47.515625 
L 5.515625 47.515625 
z
" id="BitstreamVeraSans-Roman-7a"/>
     </defs>
     <g transform="translate(390.50625 321.50625)scale(0.1 -0.1)">
      <use xlink:href="#BitstreamVeraSans-Roman-52"/>
      <use x="69.419921875" xlink:href="#BitstreamVeraSans-Roman-6f"/>
      <use x="130.6015625" xlink:href="#BitstreamVeraSans-Roman-7a"/>
      <use x="183.091796875" xlink:href="#BitstreamVeraSans-Roman-6f"/>
      <use x="244.2734375" xlink:href="#BitstreamVeraSans-Roman-76"/>
      <use x="303.453125" xlink:href="#BitstreamVeraSans-Roman-73"/>
      <use x="355.552734375" xlink:href="#BitstreamVeraSans-Roman-6b"/>
      <use x="413.447265625" xlink:href="#BitstreamVeraSans-Roman-61"/>
      <use x="474.7265625" xlink:href="#BitstreamVeraSans-Roman-79"/>
      <use x="533.90625" xlink:href="#BitstreamVeraSans-Roman-61"/>
      <use x="595.185546875" xlink:href="#BitstreamVeraSans-Roman-20"/>
      <use x="626.97265625" xlink:href="#BitstreamVeraSans-Roman-52"/>
      <use x="696.392578125" xlink:href="#BitstreamVeraSans-Roman-6f"/>
      <use x="757.57421875" xlink:href="#BitstreamVeraSans-Roman-74"/>
      <use x="796.783203125" xlink:href="#BitstreamVeraSans-Roman-68"/>
     </g>
    </g>
   </g>
  </g>
 </g>
 <defs>
  <clipPath id="pc656beb6b0">
   <rect height="345.6" width="446.4" x="72.0" y="43.2"/>
  </clipPath>
 </defs>
</svg>
