<?xml version="1.0" encoding="utf-8" standalone="no"?>
<!DOCTYPE svg PUBLIC "-//W3C//DTD SVG 1.1//EN"
  "http://www.w3.org/Graphics/SVG/1.1/DTD/svg11.dtd">
<!-- Created with matplotlib (http://matplotlib.org/) -->
<svg height="432pt" version="1.1" viewBox="0 0 576 432" width="576pt" xmlns="http://www.w3.org/2000/svg" xmlns:xlink="http://www.w3.org/1999/xlink">
 <defs>
  <style type="text/css">
*{stroke-linecap:butt;stroke-linejoin:round;stroke-miterlimit:100000;}
  </style>
 </defs>
 <g id="figure_1">
  <g id="patch_1">
   <path d="M 0 432 
L 576 432 
L 576 0 
L 0 0 
z
" style="fill:#ffffff;"/>
  </g>
  <g id="axes_1">
   <g id="patch_2">
    <path d="M 72 388.8 
L 518.4 388.8 
L 518.4 43.2 
L 72 43.2 
z
" style="fill:#ffffff;"/>
   </g>
   <g id="line2d_1">
    <path clip-path="url(#pf73b4f8c3d)" d="M 111.388235 388.8 
L 139.636364 387.50852 
L 153.163636 386.21704 
L 154.340887 384.925561 
L 155.938462 383.634081 
L 164.114286 382.342601 
L 165.514625 381.051121 
L 167.657143 379.759641 
L 173.073235 378.468161 
L 215.894505 377.176682 
L 216.23908 375.885202 
L 220.8 373.302242 
L 234.327273 372.010762 
L 240.258462 370.719283 
L 242.239038 369.427803 
L 247.058824 368.136323 
L 247.854545 366.844843 
L 274.279915 365.553363 
L 275.518199 364.261883 
L 278.231579 362.970404 
L 284.613439 361.678924 
L 289.476923 360.387444 
L 291.965217 359.095964 
L 299.882517 357.804484 
L 301.686154 356.513004 
L 303.212308 355.221525 
L 319.254135 353.930045 
L 328.720879 352.638565 
L 328.752941 351.347085 
L 330.262069 350.055605 
L 342.545455 348.764126 
L 343.494737 347.472646 
L 343.721739 346.181166 
L 356.072727 344.889686 
L 359.503448 343.598206 
L 363.405611 341.015247 
L 370.036364 339.723767 
L 370.32674 338.432287 
L 374.941538 337.140807 
L 381.046154 335.849327 
L 383.127273 333.266368 
L 384.597628 331.974888 
L 387.171972 330.683408 
L 388.634483 329.391928 
L 388.924675 328.100448 
L 389.627291 326.808969 
L 395.290256 325.517489 
L 396.307692 324.226009 
L 400.478924 322.934529 
L 400.653913 321.643049 
L 400.668132 320.35157 
L 403.2 319.06009 
L 404.512299 317.76861 
L 406.670383 316.47713 
L 407.572161 315.18565 
L 407.633202 313.89417 
L 408.988235 312.602691 
L 409.62471 311.311211 
L 410.551795 310.019731 
L 412.673684 308.728251 
L 418.595122 307.436771 
L 419.795438 306.145291 
L 420.726154 304.853812 
L 424.732162 303.562332 
L 424.74965 302.270852 
L 429.642105 300.979372 
L 432.007334 299.687892 
L 433.371429 298.396413 
L 433.371429 297.104933 
L 434.824908 295.813453 
L 435.477399 294.521973 
L 439.623529 291.939013 
L 442.656158 290.647534 
L 442.781705 289.356054 
L 444 286.773094 
L 445.144615 285.481614 
L 446.851568 284.190135 
L 447.179487 282.898655 
L 447.234783 281.607175 
L 448.376471 280.315695 
L 449.293281 279.024215 
L 449.503331 277.732735 
L 452.752941 276.441256 
L 452.752941 275.149776 
L 452.993407 273.858296 
L 453.016096 272.566816 
L 453.904644 271.275336 
L 453.940081 269.983857 
L 454.872906 268.692377 
L 455.966434 267.400897 
L 456.827586 266.109417 
L 456.854536 264.817937 
L 457.353846 263.526457 
L 457.661795 262.234978 
L 457.854545 260.943498 
L 459.799228 259.652018 
L 459.942857 258.360538 
L 460.897866 257.069058 
L 461.704813 253.194619 
L 464.290909 248.0287 
L 464.290909 246.73722 
L 465.257143 245.44574 
L 465.467194 244.15426 
L 466.189474 242.86278 
L 466.510769 241.5713 
L 466.630212 238.988341 
L 469.260681 237.696861 
L 469.345055 236.405381 
L 471.410526 235.113901 
L 472.331889 232.530942 
L 472.331889 231.239462 
L 473.37931 229.947982 
L 473.4 228.656502 
L 473.953247 227.365022 
L 474 226.073543 
L 474.635294 224.782063 
L 476.049231 223.490583 
L 477.931856 222.199103 
L 478.282353 220.907623 
L 478.8 217.033184 
L 481.683117 215.741704 
L 481.772308 213.158744 
L 482.779923 211.867265 
L 483.111462 209.284305 
L 484.152381 207.992825 
L 484.681773 206.701345 
L 484.899062 204.118386 
L 486.514286 202.826906 
L 486.514286 201.535426 
L 487.183217 200.243946 
L 487.183217 198.952466 
L 488.4 197.660987 
L 488.418953 196.369507 
L 489.079803 193.786547 
L 491.227826 192.495067 
L 491.513495 191.203587 
L 493.193902 187.329148 
L 494.291289 186.037668 
L 494.528342 184.746188 
L 495.21039 182.163229 
L 496.02406 180.871749 
L 496.344664 179.580269 
L 496.344664 178.288789 
L 496.517647 176.997309 
L 497.142857 175.70583 
L 498.223729 174.41435 
L 499.075325 173.12287 
L 499.075325 170.53991 
L 499.643697 169.24843 
L 499.679556 167.956951 
L 500.21207 166.665471 
L 500.363636 165.373991 
L 500.807882 164.082511 
L 501.122787 161.499552 
L 501.595935 160.208072 
L 501.595935 158.916592 
L 501.848276 157.625112 
L 502.39317 156.333632 
L 502.457143 155.042152 
L 502.736842 153.750673 
L 502.873043 152.459193 
L 503.127273 151.167713 
L 503.138462 148.584753 
L 503.394958 147.293274 
L 504.582857 146.001794 
L 504.872727 144.710314 
L 504.872727 143.418834 
L 505.8 140.835874 
L 505.8 139.544395 
L 506.11517 138.252915 
L 506.865471 136.961435 
L 506.953846 135.669955 
L 507.458824 133.086996 
L 507.458824 130.504036 
L 507.957895 129.212556 
L 508.317561 127.921076 
L 508.407326 125.338117 
L 509.186378 122.755157 
L 509.243077 121.463677 
L 510.224176 117.589238 
L 510.224176 116.297758 
L 510.568421 115.006278 
L 510.568421 113.714798 
L 511.069951 112.423318 
L 511.105882 111.131839 
L 511.687218 109.840359 
L 511.77931 107.257399 
L 511.859341 100.8 
L 512.257585 99.50852 
L 513.094757 98.21704 
L 513.095359 96.925561 
L 513.853018 94.342601 
L 513.857875 93.051121 
L 513.988933 91.759641 
L 513.988933 90.468161 
L 514.166714 89.176682 
L 514.231933 87.885202 
L 514.415222 86.593722 
L 514.427586 85.302242 
L 514.752941 84.010762 
L 514.8 80.136323 
L 514.966154 78.844843 
L 514.966154 77.553363 
L 515.347692 73.678924 
L 515.347692 72.387444 
L 515.490271 71.095964 
L 515.95665 69.804484 
L 516.152945 67.221525 
L 516.218182 64.638565 
L 516.399766 63.347085 
L 516.526464 59.472646 
L 516.844599 58.181166 
L 517.382912 47.849327 
L 517.58555 46.557848 
L 517.58555 43.974888 
L 517.737931 42.683408 
L 517.737931 41.391928 
L 517.902674 40.100448 
L 518.4 22.019731 
L 518.4 -1 
L 518.4 -1 
" style="fill:none;stroke:#8000ff;stroke-linecap:square;"/>
   </g>
   <g id="line2d_2">
    <path clip-path="url(#pf73b4f8c3d)" d="M 229.750376 388.8 
L 269.632198 387.06506 
L 289.476923 385.33012 
L 297.14087 383.595181 
L 321.458824 381.860241 
L 327.085714 380.125301 
L 350.896552 378.390361 
L 354.282353 376.655422 
L 361.424176 374.920482 
L 379.410989 373.185542 
L 381.046154 371.450602 
L 390.62069 369.715663 
L 394.722078 367.980723 
L 395.332331 366.245783 
L 402.241897 362.775904 
L 404.300395 361.040964 
L 412.114286 359.306024 
L 414.24 357.571084 
L 417.708271 355.836145 
L 424.421053 354.101205 
L 425.97764 352.366265 
L 437.160225 350.631325 
L 437.530435 348.896386 
L 446.142518 347.161446 
L 447.012376 345.426506 
L 453.904644 341.956627 
L 454.872906 340.221687 
L 455.4 338.486747 
L 455.747368 336.751807 
L 455.966434 335.016867 
L 456.561039 333.281928 
L 457.905364 331.546988 
L 458.443956 329.812048 
L 458.720856 328.077108 
L 462.313846 326.342169 
L 464.290909 324.607229 
L 465.683422 322.872289 
L 471.348617 319.40241 
L 471.348617 317.66747 
L 471.6 315.93253 
L 474.635294 314.19759 
L 477.23004 312.462651 
L 477.818182 310.727711 
L 481.749754 308.992771 
L 482.170435 307.257831 
L 484.638655 305.522892 
L 484.83609 303.787952 
L 486.472276 302.053012 
L 487.143318 300.318072 
L 489.079803 298.583133 
L 489.299312 296.848193 
L 489.38498 295.113253 
L 491.227826 293.378313 
L 492.141176 291.643373 
L 493.534502 289.908434 
L 494.363077 288.173494 
L 495.036293 286.438554 
L 496.020321 284.703614 
L 496.344664 282.968675 
L 496.517647 281.233735 
L 496.517647 277.763855 
L 498.778022 276.028916 
L 499.862069 274.293976 
L 500.086154 270.824096 
L 501.230769 269.089157 
L 501.296552 267.354217 
L 502.036364 265.619277 
L 502.457143 263.884337 
L 503.051748 262.149398 
L 504.773626 260.414458 
L 504.974436 258.679518 
L 505.060975 256.944578 
L 505.46087 255.209639 
L 506.736558 253.474699 
L 507.458824 251.739759 
L 507.458824 248.26988 
L 507.617391 246.53494 
L 507.95615 244.8 
L 508.468966 243.06506 
L 509.315751 241.33012 
L 509.577866 239.595181 
L 511.687218 237.860241 
L 511.859341 236.125301 
L 511.859341 234.390361 
L 512.295385 232.655422 
L 514.00197 230.920482 
L 514.752941 229.185542 
L 514.752941 227.450602 
L 515.328793 225.715663 
L 515.674725 223.980723 
L 515.89916 220.510843 
L 516 215.306024 
L 516.110769 213.571084 
L 516.413793 211.836145 
L 516.581207 210.101205 
L 516.929644 208.366265 
L 516.929644 206.631325 
L 517.051767 204.896386 
L 517.382564 203.161446 
L 517.737931 199.691566 
L 517.8 197.956627 
L 518.016988 196.221687 
L 518.158853 192.751807 
L 518.4 191.016867 
L 518.4 -1 
L 518.4 -1 
" style="fill:none;stroke:#5a3bfd;stroke-linecap:square;"/>
   </g>
   <g id="line2d_3">
    <path clip-path="url(#pf73b4f8c3d)" d="M 146.4 388.8 
L 167.657143 387.221918 
L 226.114286 385.643836 
L 249.888722 384.065753 
L 286.503896 382.487671 
L 343.341176 380.909589 
L 351.91049 379.331507 
L 356.470588 376.175342 
L 358.767816 374.59726 
L 358.971429 373.019178 
L 360.847059 371.441096 
L 369.6 369.863014 
L 383.127273 368.284932 
L 392.128938 366.706849 
L 394.854212 365.128767 
L 395.762637 363.550685 
L 406.8 361.972603 
L 410.4 360.394521 
L 412.305792 358.816438 
L 413.364706 357.238356 
L 413.961497 355.660274 
L 414.344056 354.082192 
L 414.344056 352.50411 
L 420.29011 350.926027 
L 420.29011 349.347945 
L 421.356522 347.769863 
L 424.421053 346.191781 
L 425.26771 344.613699 
L 426.494118 343.035616 
L 427.246285 341.457534 
L 427.379281 339.879452 
L 428.865641 338.30137 
L 429.334985 336.723288 
L 432.007334 335.145205 
L 432.882759 331.989041 
L 433.371429 330.410959 
L 434.137452 328.832877 
L 436.641758 327.254795 
L 440.789493 325.676712 
L 443.177766 324.09863 
L 444 322.520548 
L 445.560839 320.942466 
L 446.452747 319.364384 
L 448.376471 317.786301 
L 448.831169 316.208219 
L 450.800657 314.630137 
L 451.249231 313.052055 
L 454.301538 311.473973 
L 455.446154 309.89589 
L 463.694118 308.317808 
L 463.694118 306.739726 
L 464.290909 305.161644 
L 464.290909 303.583562 
L 465.257143 302.005479 
L 465.257143 300.427397 
L 465.711355 298.849315 
L 467.382857 297.271233 
L 469.345055 295.693151 
L 471.81913 294.115068 
L 475.854545 292.536986 
L 477.351724 290.958904 
L 478.369532 289.380822 
L 479.156044 286.224658 
L 479.190514 284.646575 
L 479.582609 283.068493 
L 480.754872 281.490411 
L 481.700058 279.912329 
L 481.749754 278.334247 
L 482.170435 276.756164 
L 482.971429 275.178082 
L 483.144251 273.6 
L 484.340713 272.021918 
L 484.83609 270.443836 
L 486.514286 267.287671 
L 486.514286 265.709589 
L 487.183217 264.131507 
L 490.319334 262.553425 
L 491.4 260.975342 
L 491.548872 259.39726 
L 492.141176 257.819178 
L 493.121236 256.241096 
L 493.193902 254.663014 
L 493.6 253.084932 
L 493.802966 251.506849 
L 493.854545 249.928767 
L 495.036293 248.350685 
L 495.058824 246.772603 
L 496.344664 245.194521 
L 496.517647 243.616438 
L 498.778022 242.038356 
L 498.991304 240.460274 
L 499.075325 237.30411 
L 499.612121 234.147945 
L 500.363636 232.569863 
L 500.894118 230.991781 
L 502.121026 229.413699 
L 503.045403 227.835616 
L 503.138462 226.257534 
L 504.872727 224.679452 
L 504.974436 223.10137 
L 505.318681 221.523288 
L 506.183251 219.945205 
L 507.404926 216.789041 
L 507.458824 215.210959 
L 507.994406 213.632877 
L 507.994406 212.054795 
L 508.396639 208.89863 
L 509.449624 207.320548 
L 511.699812 204.164384 
L 511.859341 202.586301 
L 511.859341 197.852055 
L 512.295385 196.273973 
L 512.602597 194.69589 
L 512.696864 193.117808 
L 513.085714 191.539726 
L 513.085714 186.805479 
L 513.988933 185.227397 
L 513.988933 183.649315 
L 514.752941 182.071233 
L 515.328793 180.493151 
L 515.328793 177.336986 
L 515.789474 175.758904 
L 515.789474 174.180822 
L 516.110769 172.60274 
L 516.200985 167.868493 
L 516.719593 164.712329 
L 516.719593 161.556164 
L 516.877749 159.978082 
L 516.908021 158.4 
L 517.106087 156.821918 
L 517.106087 155.243836 
L 517.58555 153.665753 
L 517.676558 148.931507 
L 517.737931 147.353425 
L 518.047226 145.775342 
L 518.204895 142.619178 
L 518.4 141.041096 
L 518.4 -1 
L 518.4 -1 
" style="fill:none;stroke:#3176f8;stroke-linecap:square;"/>
   </g>
   <g id="line2d_4">
    <path clip-path="url(#pf73b4f8c3d)" d="M 133.393007 388.8 
L 224.07033 386.786014 
L 239.684954 384.772028 
L 277.694118 382.758042 
L 406.8 380.744056 
L 408.988235 378.73007 
L 416.282353 376.716084 
L 428.358621 374.702098 
L 432.882759 372.688112 
L 442.309091 370.674126 
L 445.8 368.66014 
L 448.831169 366.646154 
L 448.831169 364.632168 
L 451.249231 362.618182 
L 452.566219 360.604196 
L 461.169231 358.59021 
L 463.694118 356.576224 
L 469.145645 354.562238 
L 469.563077 350.534266 
L 481.929412 348.52028 
L 488.199577 346.506294 
L 491.499848 344.492308 
L 493.854545 342.478322 
L 494.905263 340.464336 
L 499.203096 338.45035 
L 505.668449 336.436364 
L 505.82069 334.422378 
L 506.328571 332.408392 
L 507.739123 330.394406 
L 510.940107 328.38042 
L 511.792784 326.366434 
L 511.859341 324.352448 
L 513.224348 322.338462 
L 513.289587 320.324476 
L 514.427586 318.31049 
L 515.751724 316.296503 
L 515.95665 314.282517 
L 516.6 312.268531 
L 517.8 310.254545 
L 517.991209 306.226573 
L 518.4 302.198601 
L 518.4 -1 
L 518.4 -1 
" style="fill:none;stroke:#09a9ee;stroke-linecap:square;"/>
   </g>
   <g id="line2d_5">
    <path clip-path="url(#pf73b4f8c3d)" d="M 143.798601 388.8 
L 229.552941 386.959744 
L 247.854545 385.119489 
L 330.262069 381.438978 
L 341.957312 379.598722 
L 359.157895 377.758466 
L 359.358704 375.918211 
L 380.195666 374.077955 
L 382.729412 372.2377 
L 400.771542 370.397444 
L 406.8 368.557188 
L 412.114286 366.716933 
L 413.593043 364.876677 
L 419.708718 363.036422 
L 420.29011 361.196166 
L 424.421053 359.355911 
L 433.056799 357.515655 
L 437.036453 355.675399 
L 438.951724 353.835144 
L 452.752941 351.994888 
L 453.156923 350.154633 
L 456.645059 348.314377 
L 457.905364 346.474121 
L 462.761739 344.633866 
L 466.643478 342.79361 
L 469.260681 340.953355 
L 471.289575 339.113099 
L 474.635294 337.272843 
L 478.737282 335.432588 
L 483.144251 333.592332 
L 483.807179 331.752077 
L 484.83609 329.911821 
L 489.079803 328.071565 
L 489.079803 326.23131 
L 490.581818 324.391054 
L 490.759133 322.550799 
L 491.4 320.710543 
L 491.513495 318.870288 
L 496.02406 317.030032 
L 499.8 315.189776 
L 499.972755 313.349521 
L 501.595935 311.509265 
L 503.696443 309.66901 
L 506.482759 307.828754 
L 507.458824 305.988498 
L 508.225641 304.148243 
L 508.468966 302.307987 
L 509.4 300.467732 
L 509.449624 298.627476 
L 510.218182 296.78722 
L 511.532308 294.946965 
L 511.859341 293.106709 
L 513.085714 291.266454 
L 513.988933 287.585942 
L 514.872262 278.384665 
L 515.347692 276.544409 
L 515.89916 272.863898 
L 516.162406 271.023642 
L 516.218182 267.343131 
L 516.467532 265.502875 
L 517.14958 263.66262 
L 517.382564 259.982109 
L 517.945302 258.141853 
L 518.4 250.780831 
L 518.4 -1 
L 518.4 -1 
" style="fill:none;stroke:#1dd1e2;stroke-linecap:square;"/>
   </g>
   <g id="line2d_6">
    <path clip-path="url(#pf73b4f8c3d)" d="M 318.431621 388.8 
L 463.118266 386.618182 
L 463.996838 384.436364 
L 465.257143 382.254545 
L 515.95665 380.072727 
L 517.106087 377.890909 
L 518.074363 375.709091 
L 518.4 373.527273 
L 518.4 -1 
L 518.4 -1 
" style="fill:none;stroke:#44eed2;stroke-linecap:square;"/>
   </g>
   <g id="line2d_7">
    <path clip-path="url(#pf73b4f8c3d)" d="M 515.328793 388.8 
L 518.4 386.593103 
L 518.4 -1 
L 518.4 -1 
" style="fill:none;stroke:#6dfdbf;stroke-linecap:square;"/>
   </g>
   <g id="line2d_8">
    <path clip-path="url(#pf73b4f8c3d)" d="M 229.552941 388.8 
L 230.210277 387.016718 
L 235.033043 385.233437 
L 261.297798 383.450155 
L 264.564706 381.666873 
L 335.148768 379.883591 
L 341.957312 378.10031 
L 343.494737 376.317028 
L 365.483004 372.750464 
L 367.667532 370.967183 
L 380.640642 369.183901 
L 387.105882 367.400619 
L 395.762637 365.617337 
L 395.858824 362.050774 
L 407.493168 360.267492 
L 412.114286 358.484211 
L 414.344056 356.700929 
L 414.344056 354.917647 
L 414.763636 353.134365 
L 416.945455 351.351084 
L 427.947467 349.567802 
L 430.439409 347.78452 
L 432.068309 346.001238 
L 435.455462 344.217957 
L 436.641758 342.434675 
L 438.685714 340.651393 
L 441.811765 338.868111 
L 446.785027 337.08483 
L 448.376471 335.301548 
L 452.752941 333.518266 
L 455.966434 331.734985 
L 458.115415 329.951703 
L 462.313846 328.168421 
L 465.257143 326.385139 
L 467.928495 324.601858 
L 469.345055 322.818576 
L 473.887179 319.252012 
L 481.772308 317.468731 
L 485.616924 315.685449 
L 485.696703 313.902167 
L 486.297582 312.118885 
L 489 310.335604 
L 489.784615 308.552322 
L 489.812808 306.76904 
L 498.866409 304.985759 
L 498.991304 303.202477 
L 500.894118 299.635913 
L 502.736842 297.852632 
L 502.966567 296.06935 
L 504.872727 294.286068 
L 505.46087 290.719505 
L 505.46087 288.936223 
L 506.351417 287.152941 
L 507.458824 285.369659 
L 507.957895 283.586378 
L 507.994406 281.803096 
L 508.317561 280.019814 
L 509.186378 278.236533 
L 509.186378 276.453251 
L 510.224176 274.669969 
L 510.636522 269.320124 
L 512.295385 267.536842 
L 513.35878 265.75356 
L 514.023529 263.970279 
L 514.023529 262.186997 
L 514.330256 260.403715 
L 514.518261 258.620433 
L 515.328793 256.837152 
L 515.347692 251.487307 
L 515.789474 249.704025 
L 515.789474 247.920743 
L 516.719593 246.137461 
L 517.491575 239.004334 
L 517.491575 237.221053 
L 517.666995 235.437771 
L 517.737931 230.087926 
L 517.854545 228.304644 
L 517.854545 226.521362 
L 518.4 219.388235 
L 518.4 -1 
L 518.4 -1 
" style="fill:none;stroke:#92fda9;stroke-linecap:square;"/>
   </g>
   <g id="line2d_9">
    <path clip-path="url(#pf73b4f8c3d)" d="M 518.4 388.8 
L 518.4 -1 
L 518.4 -1 
" style="fill:none;stroke:#bbee91;stroke-linecap:square;"/>
   </g>
   <g id="line2d_10">
    <path clip-path="url(#pf73b4f8c3d)" d="M 229.552941 388.8 
L 249.888722 386.982965 
L 283.452632 385.165931 
L 327.818719 383.348896 
L 332.949754 381.531861 
L 343.867669 379.714826 
L 379.129064 377.897792 
L 382.729412 376.080757 
L 390.62069 374.263722 
L 393.056158 372.446688 
L 394.127473 370.629653 
L 395.332331 368.812618 
L 405.341176 366.995584 
L 407.493168 365.178549 
L 407.836533 363.361514 
L 414.344056 361.544479 
L 425.97764 359.727445 
L 425.97764 357.91041 
L 436.140558 356.093375 
L 441.811765 354.276341 
L 447.915789 352.459306 
L 448.831169 348.825237 
L 449.034586 347.008202 
L 455.4 345.191167 
L 455.747368 343.374132 
L 461.225616 341.557098 
L 465.257143 339.740063 
L 466.307397 337.923028 
L 469.345055 336.105994 
L 479.156044 334.288959 
L 483.712118 330.65489 
L 484.638655 328.837855 
L 486.514286 327.02082 
L 487.52253 325.203785 
L 489.582624 323.386751 
L 491.4 321.569716 
L 492.294737 319.752681 
L 493.6 317.935647 
L 493.872527 316.118612 
L 494.809756 314.301577 
L 495.595402 312.484543 
L 496.020321 310.667508 
L 497.976471 308.850473 
L 503.006897 307.033438 
L 503.127273 305.216404 
L 505.46087 303.399369 
L 506.805195 301.582334 
L 507.458824 299.7653 
L 507.556275 297.948265 
L 508.063546 296.13123 
L 508.225641 294.314196 
L 509.186378 292.497161 
L 509.315751 290.680126 
L 509.315751 288.863091 
L 509.793103 285.229022 
L 510.255501 283.411987 
L 510.568421 281.594953 
L 511.069951 279.777918 
L 511.859341 277.960883 
L 512.295385 276.143849 
L 512.295385 274.326814 
L 512.481818 272.509779 
L 513.988933 267.058675 
L 513.995772 263.424606 
L 514.427586 261.607571 
L 514.648739 259.790536 
L 515.459289 257.973502 
L 515.608255 256.156467 
L 516.200985 252.522397 
L 516.413793 250.705363 
L 516.413793 248.888328 
L 516.719593 247.071293 
L 516.929644 243.437224 
L 516.94207 241.620189 
L 517.255385 239.803155 
L 517.491575 236.169085 
L 517.927869 232.535016 
L 517.945302 228.900946 
L 518.4 227.083912 
L 518.4 -1 
L 518.4 -1 
" style="fill:none;stroke:#e2d176;stroke-linecap:square;"/>
   </g>
   <g id="line2d_11">
    <path clip-path="url(#pf73b4f8c3d)" d="M 360.847059 388.8 
L 460.047059 386.626415 
L 464.290909 384.45283 
L 464.710359 382.279245 
L 465.257143 380.10566 
L 496.8 377.932075 
L 500.894118 375.758491 
L 513.853018 373.584906 
L 515.347692 371.411321 
L 516.410695 369.237736 
L 516.732773 367.064151 
L 517.382564 364.890566 
L 517.58555 362.716981 
L 517.920077 360.543396 
L 518.4 358.369811 
L 518.4 -1 
L 518.4 -1 
" style="fill:none;stroke:#ffa95b;stroke-linecap:square;"/>
   </g>
   <g id="line2d_12">
    <path clip-path="url(#pf73b4f8c3d)" d="M 135.771429 388.8 
L 149.855108 386.827397 
L 282.936264 384.854795 
L 355.366957 382.882192 
L 383.127273 380.909589 
L 395.762637 378.936986 
L 435.733333 376.964384 
L 452.752941 374.991781 
L 456.645059 373.019178 
L 460.968421 371.046575 
L 469.260681 369.073973 
L 478.084729 367.10137 
L 484.83609 365.128767 
L 484.83609 363.156164 
L 488.4 361.183562 
L 488.525097 359.210959 
L 494.363077 357.238356 
L 494.809756 355.265753 
L 495.490909 353.293151 
L 497.875862 351.320548 
L 497.976471 347.375342 
L 499.972755 343.430137 
L 508.468966 341.457534 
L 509.186378 339.484932 
L 509.342609 337.512329 
L 512.609593 335.539726 
L 513.35878 333.567123 
L 513.5133 329.621918 
L 515.127273 327.649315 
L 515.89916 325.676712 
L 515.95665 323.70411 
L 516.162406 321.731507 
L 517.035905 319.758904 
L 517.680116 317.786301 
L 517.737931 315.813699 
L 518.4 313.841096 
L 518.4 -1 
L 518.4 -1 
" style="fill:none;stroke:#ff763d;stroke-linecap:square;"/>
   </g>
   <g id="line2d_13">
    <path clip-path="url(#pf73b4f8c3d)" d="M 518.4 388.8 
L 518.4 -1 
L 518.4 -1 
" style="fill:none;stroke:#ff3b1e;stroke-linecap:square;"/>
   </g>
   <g id="line2d_14">
    <path clip-path="url(#pf73b4f8c3d)" d="M 233.929412 388.8 
L 249.888722 387.054545 
L 263.314286 385.309091 
L 280.842105 383.563636 
L 343.273846 381.818182 
L 343.424182 380.072727 
L 358.971429 378.327273 
L 360.847059 376.581818 
L 360.847059 374.836364 
L 362.542292 373.090909 
L 374.821053 371.345455 
L 390.857143 369.6 
L 393.789163 367.854545 
L 398.215385 366.109091 
L 399.490312 364.363636 
L 402.451948 362.618182 
L 420.015868 360.872727 
L 420.29011 359.127273 
L 420.93642 357.381818 
L 423.908021 355.636364 
L 428.383957 353.890909 
L 429.12 352.145455 
L 436.8 350.4 
L 437.967568 348.654545 
L 438.685714 345.163636 
L 442.781705 343.418182 
L 451.696552 341.672727 
L 458.4 339.927273 
L 458.493506 338.181818 
L 459.942857 336.436364 
L 463.996838 334.690909 
L 464.68877 331.2 
L 465.257143 329.454545 
L 466.892308 327.709091 
L 469.8 325.963636 
L 470.571429 324.218182 
L 472.43861 322.472727 
L 477.23004 320.727273 
L 480.446964 317.236364 
L 483.111462 313.745455 
L 483.545946 312 
L 485.576471 310.254545 
L 486.514286 308.509091 
L 487.073684 306.763636 
L 487.183217 305.018182 
L 488.389916 303.272727 
L 490.686401 301.527273 
L 497.334363 299.781818 
L 497.875862 298.036364 
L 497.938579 296.290909 
L 502.141259 294.545455 
L 503.696443 292.8 
L 504.974436 291.054545 
L 505.270588 289.309091 
L 506.556735 284.072727 
L 506.628671 282.327273 
L 507.208205 280.581818 
L 508.454833 278.836364 
L 510.224176 277.090909 
L 510.568421 275.345455 
L 511.532308 273.6 
L 512.4 263.127273 
L 512.4 261.381818 
L 512.602597 259.636364 
L 512.696864 254.4 
L 513.35878 249.163636 
L 513.420849 247.418182 
L 513.853018 245.672727 
L 514.00197 243.927273 
L 514.752941 242.181818 
L 514.7663 240.436364 
L 515.007903 238.690909 
L 515.127273 236.945455 
L 515.674725 235.2 
L 516.101931 231.709091 
L 516.467532 224.727273 
L 516.719593 222.981818 
L 516.719593 221.236364 
L 517.051767 217.745455 
L 517.106087 216 
L 517.666995 212.509091 
L 517.737931 209.018182 
L 517.854545 205.527273 
L 518.098785 198.545455 
L 518.4 193.309091 
L 518.4 -1 
L 518.4 -1 
" style="fill:none;stroke:#ff0000;stroke-linecap:square;"/>
   </g>
   <g id="patch_3">
    <path d="M 72 388.8 
L 72 43.2 
" style="fill:none;stroke:#000000;stroke-linecap:square;stroke-linejoin:miter;"/>
   </g>
   <g id="patch_4">
    <path d="M 72 43.2 
L 518.4 43.2 
" style="fill:none;stroke:#000000;stroke-linecap:square;stroke-linejoin:miter;"/>
   </g>
   <g id="patch_5">
    <path d="M 72 388.8 
L 518.4 388.8 
" style="fill:none;stroke:#000000;stroke-linecap:square;stroke-linejoin:miter;"/>
   </g>
   <g id="patch_6">
    <path d="M 518.4 388.8 
L 518.4 43.2 
" style="fill:none;stroke:#000000;stroke-linecap:square;stroke-linejoin:miter;"/>
   </g>
   <g id="matplotlib.axis_1">
    <g id="xtick_1">
     <g id="line2d_15">
      <defs>
       <path d="M 0 0 
L 0 -4 
" id="m7f9a3d3725" style="stroke:#000000;stroke-width:0.5;"/>
      </defs>
      <g>
       <use style="stroke:#000000;stroke-width:0.5;" x="72.0" xlink:href="#m7f9a3d3725" y="388.8"/>
      </g>
     </g>
     <g id="line2d_16">
      <defs>
       <path d="M 0 0 
L 0 4 
" id="m03c4a9800f" style="stroke:#000000;stroke-width:0.5;"/>
      </defs>
      <g>
       <use style="stroke:#000000;stroke-width:0.5;" x="72.0" xlink:href="#m03c4a9800f" y="43.2"/>
      </g>
     </g>
     <g id="text_1">
      <!-- 0.70 -->
      <defs>
       <path d="M 31.78125 66.40625 
Q 24.171875 66.40625 20.328125 58.90625 
Q 16.5 51.421875 16.5 36.375 
Q 16.5 21.390625 20.328125 13.890625 
Q 24.171875 6.390625 31.78125 6.390625 
Q 39.453125 6.390625 43.28125 13.890625 
Q 47.125 21.390625 47.125 36.375 
Q 47.125 51.421875 43.28125 58.90625 
Q 39.453125 66.40625 31.78125 66.40625 
M 31.78125 74.21875 
Q 44.046875 74.21875 50.515625 64.515625 
Q 56.984375 54.828125 56.984375 36.375 
Q 56.984375 17.96875 50.515625 8.265625 
Q 44.046875 -1.421875 31.78125 -1.421875 
Q 19.53125 -1.421875 13.0625 8.265625 
Q 6.59375 17.96875 6.59375 36.375 
Q 6.59375 54.828125 13.0625 64.515625 
Q 19.53125 74.21875 31.78125 74.21875 
" id="BitstreamVeraSans-Roman-30"/>
       <path d="M 8.203125 72.90625 
L 55.078125 72.90625 
L 55.078125 68.703125 
L 28.609375 0 
L 18.3125 0 
L 43.21875 64.59375 
L 8.203125 64.59375 
z
" id="BitstreamVeraSans-Roman-37"/>
       <path d="M 10.6875 12.40625 
L 21 12.40625 
L 21 0 
L 10.6875 0 
z
" id="BitstreamVeraSans-Roman-2e"/>
      </defs>
      <g transform="translate(58.640625 401.918125)scale(0.12 -0.12)">
       <use xlink:href="#BitstreamVeraSans-Roman-30"/>
       <use x="63.623046875" xlink:href="#BitstreamVeraSans-Roman-2e"/>
       <use x="95.41015625" xlink:href="#BitstreamVeraSans-Roman-37"/>
       <use x="159.033203125" xlink:href="#BitstreamVeraSans-Roman-30"/>
      </g>
     </g>
    </g>
    <g id="xtick_2">
     <g id="line2d_17">
      <g>
       <use style="stroke:#000000;stroke-width:0.5;" x="146.4" xlink:href="#m7f9a3d3725" y="388.8"/>
      </g>
     </g>
     <g id="line2d_18">
      <g>
       <use style="stroke:#000000;stroke-width:0.5;" x="146.4" xlink:href="#m03c4a9800f" y="43.2"/>
      </g>
     </g>
     <g id="text_2">
      <!-- 0.75 -->
      <defs>
       <path d="M 10.796875 72.90625 
L 49.515625 72.90625 
L 49.515625 64.59375 
L 19.828125 64.59375 
L 19.828125 46.734375 
Q 21.96875 47.46875 24.109375 47.828125 
Q 26.265625 48.1875 28.421875 48.1875 
Q 40.625 48.1875 47.75 41.5 
Q 54.890625 34.8125 54.890625 23.390625 
Q 54.890625 11.625 47.5625 5.09375 
Q 40.234375 -1.421875 26.90625 -1.421875 
Q 22.3125 -1.421875 17.546875 -0.640625 
Q 12.796875 0.140625 7.71875 1.703125 
L 7.71875 11.625 
Q 12.109375 9.234375 16.796875 8.0625 
Q 21.484375 6.890625 26.703125 6.890625 
Q 35.15625 6.890625 40.078125 11.328125 
Q 45.015625 15.765625 45.015625 23.390625 
Q 45.015625 31 40.078125 35.4375 
Q 35.15625 39.890625 26.703125 39.890625 
Q 22.75 39.890625 18.8125 39.015625 
Q 14.890625 38.140625 10.796875 36.28125 
z
" id="BitstreamVeraSans-Roman-35"/>
      </defs>
      <g transform="translate(133.040625 401.918125)scale(0.12 -0.12)">
       <use xlink:href="#BitstreamVeraSans-Roman-30"/>
       <use x="63.623046875" xlink:href="#BitstreamVeraSans-Roman-2e"/>
       <use x="95.41015625" xlink:href="#BitstreamVeraSans-Roman-37"/>
       <use x="159.033203125" xlink:href="#BitstreamVeraSans-Roman-35"/>
      </g>
     </g>
    </g>
    <g id="xtick_3">
     <g id="line2d_19">
      <g>
       <use style="stroke:#000000;stroke-width:0.5;" x="220.8" xlink:href="#m7f9a3d3725" y="388.8"/>
      </g>
     </g>
     <g id="line2d_20">
      <g>
       <use style="stroke:#000000;stroke-width:0.5;" x="220.8" xlink:href="#m03c4a9800f" y="43.2"/>
      </g>
     </g>
     <g id="text_3">
      <!-- 0.80 -->
      <defs>
       <path d="M 31.78125 34.625 
Q 24.75 34.625 20.71875 30.859375 
Q 16.703125 27.09375 16.703125 20.515625 
Q 16.703125 13.921875 20.71875 10.15625 
Q 24.75 6.390625 31.78125 6.390625 
Q 38.8125 6.390625 42.859375 10.171875 
Q 46.921875 13.96875 46.921875 20.515625 
Q 46.921875 27.09375 42.890625 30.859375 
Q 38.875 34.625 31.78125 34.625 
M 21.921875 38.8125 
Q 15.578125 40.375 12.03125 44.71875 
Q 8.5 49.078125 8.5 55.328125 
Q 8.5 64.0625 14.71875 69.140625 
Q 20.953125 74.21875 31.78125 74.21875 
Q 42.671875 74.21875 48.875 69.140625 
Q 55.078125 64.0625 55.078125 55.328125 
Q 55.078125 49.078125 51.53125 44.71875 
Q 48 40.375 41.703125 38.8125 
Q 48.828125 37.15625 52.796875 32.3125 
Q 56.78125 27.484375 56.78125 20.515625 
Q 56.78125 9.90625 50.3125 4.234375 
Q 43.84375 -1.421875 31.78125 -1.421875 
Q 19.734375 -1.421875 13.25 4.234375 
Q 6.78125 9.90625 6.78125 20.515625 
Q 6.78125 27.484375 10.78125 32.3125 
Q 14.796875 37.15625 21.921875 38.8125 
M 18.3125 54.390625 
Q 18.3125 48.734375 21.84375 45.5625 
Q 25.390625 42.390625 31.78125 42.390625 
Q 38.140625 42.390625 41.71875 45.5625 
Q 45.3125 48.734375 45.3125 54.390625 
Q 45.3125 60.0625 41.71875 63.234375 
Q 38.140625 66.40625 31.78125 66.40625 
Q 25.390625 66.40625 21.84375 63.234375 
Q 18.3125 60.0625 18.3125 54.390625 
" id="BitstreamVeraSans-Roman-38"/>
      </defs>
      <g transform="translate(207.440625 401.918125)scale(0.12 -0.12)">
       <use xlink:href="#BitstreamVeraSans-Roman-30"/>
       <use x="63.623046875" xlink:href="#BitstreamVeraSans-Roman-2e"/>
       <use x="95.41015625" xlink:href="#BitstreamVeraSans-Roman-38"/>
       <use x="159.033203125" xlink:href="#BitstreamVeraSans-Roman-30"/>
      </g>
     </g>
    </g>
    <g id="xtick_4">
     <g id="line2d_21">
      <g>
       <use style="stroke:#000000;stroke-width:0.5;" x="295.2" xlink:href="#m7f9a3d3725" y="388.8"/>
      </g>
     </g>
     <g id="line2d_22">
      <g>
       <use style="stroke:#000000;stroke-width:0.5;" x="295.2" xlink:href="#m03c4a9800f" y="43.2"/>
      </g>
     </g>
     <g id="text_4">
      <!-- 0.85 -->
      <g transform="translate(281.840625 401.918125)scale(0.12 -0.12)">
       <use xlink:href="#BitstreamVeraSans-Roman-30"/>
       <use x="63.623046875" xlink:href="#BitstreamVeraSans-Roman-2e"/>
       <use x="95.41015625" xlink:href="#BitstreamVeraSans-Roman-38"/>
       <use x="159.033203125" xlink:href="#BitstreamVeraSans-Roman-35"/>
      </g>
     </g>
    </g>
    <g id="xtick_5">
     <g id="line2d_23">
      <g>
       <use style="stroke:#000000;stroke-width:0.5;" x="369.6" xlink:href="#m7f9a3d3725" y="388.8"/>
      </g>
     </g>
     <g id="line2d_24">
      <g>
       <use style="stroke:#000000;stroke-width:0.5;" x="369.6" xlink:href="#m03c4a9800f" y="43.2"/>
      </g>
     </g>
     <g id="text_5">
      <!-- 0.90 -->
      <defs>
       <path d="M 10.984375 1.515625 
L 10.984375 10.5 
Q 14.703125 8.734375 18.5 7.8125 
Q 22.3125 6.890625 25.984375 6.890625 
Q 35.75 6.890625 40.890625 13.453125 
Q 46.046875 20.015625 46.78125 33.40625 
Q 43.953125 29.203125 39.59375 26.953125 
Q 35.25 24.703125 29.984375 24.703125 
Q 19.046875 24.703125 12.671875 31.3125 
Q 6.296875 37.9375 6.296875 49.421875 
Q 6.296875 60.640625 12.9375 67.421875 
Q 19.578125 74.21875 30.609375 74.21875 
Q 43.265625 74.21875 49.921875 64.515625 
Q 56.59375 54.828125 56.59375 36.375 
Q 56.59375 19.140625 48.40625 8.859375 
Q 40.234375 -1.421875 26.421875 -1.421875 
Q 22.703125 -1.421875 18.890625 -0.6875 
Q 15.09375 0.046875 10.984375 1.515625 
M 30.609375 32.421875 
Q 37.25 32.421875 41.125 36.953125 
Q 45.015625 41.5 45.015625 49.421875 
Q 45.015625 57.28125 41.125 61.84375 
Q 37.25 66.40625 30.609375 66.40625 
Q 23.96875 66.40625 20.09375 61.84375 
Q 16.21875 57.28125 16.21875 49.421875 
Q 16.21875 41.5 20.09375 36.953125 
Q 23.96875 32.421875 30.609375 32.421875 
" id="BitstreamVeraSans-Roman-39"/>
      </defs>
      <g transform="translate(356.240625 401.918125)scale(0.12 -0.12)">
       <use xlink:href="#BitstreamVeraSans-Roman-30"/>
       <use x="63.623046875" xlink:href="#BitstreamVeraSans-Roman-2e"/>
       <use x="95.41015625" xlink:href="#BitstreamVeraSans-Roman-39"/>
       <use x="159.033203125" xlink:href="#BitstreamVeraSans-Roman-30"/>
      </g>
     </g>
    </g>
    <g id="xtick_6">
     <g id="line2d_25">
      <g>
       <use style="stroke:#000000;stroke-width:0.5;" x="444.0" xlink:href="#m7f9a3d3725" y="388.8"/>
      </g>
     </g>
     <g id="line2d_26">
      <g>
       <use style="stroke:#000000;stroke-width:0.5;" x="444.0" xlink:href="#m03c4a9800f" y="43.2"/>
      </g>
     </g>
     <g id="text_6">
      <!-- 0.95 -->
      <g transform="translate(430.640625 401.918125)scale(0.12 -0.12)">
       <use xlink:href="#BitstreamVeraSans-Roman-30"/>
       <use x="63.623046875" xlink:href="#BitstreamVeraSans-Roman-2e"/>
       <use x="95.41015625" xlink:href="#BitstreamVeraSans-Roman-39"/>
       <use x="159.033203125" xlink:href="#BitstreamVeraSans-Roman-35"/>
      </g>
     </g>
    </g>
    <g id="xtick_7">
     <g id="line2d_27">
      <g>
       <use style="stroke:#000000;stroke-width:0.5;" x="518.4" xlink:href="#m7f9a3d3725" y="388.8"/>
      </g>
     </g>
     <g id="line2d_28">
      <g>
       <use style="stroke:#000000;stroke-width:0.5;" x="518.4" xlink:href="#m03c4a9800f" y="43.2"/>
      </g>
     </g>
     <g id="text_7">
      <!-- 1.00 -->
      <defs>
       <path d="M 12.40625 8.296875 
L 28.515625 8.296875 
L 28.515625 63.921875 
L 10.984375 60.40625 
L 10.984375 69.390625 
L 28.421875 72.90625 
L 38.28125 72.90625 
L 38.28125 8.296875 
L 54.390625 8.296875 
L 54.390625 0 
L 12.40625 0 
z
" id="BitstreamVeraSans-Roman-31"/>
      </defs>
      <g transform="translate(505.040625 401.918125)scale(0.12 -0.12)">
       <use xlink:href="#BitstreamVeraSans-Roman-31"/>
       <use x="63.623046875" xlink:href="#BitstreamVeraSans-Roman-2e"/>
       <use x="95.41015625" xlink:href="#BitstreamVeraSans-Roman-30"/>
       <use x="159.033203125" xlink:href="#BitstreamVeraSans-Roman-30"/>
      </g>
     </g>
    </g>
    <g id="text_8">
     <!-- number of spearman changed -->
     <defs>
      <path d="M 30.609375 48.390625 
Q 23.390625 48.390625 19.1875 42.75 
Q 14.984375 37.109375 14.984375 27.296875 
Q 14.984375 17.484375 19.15625 11.84375 
Q 23.34375 6.203125 30.609375 6.203125 
Q 37.796875 6.203125 41.984375 11.859375 
Q 46.1875 17.53125 46.1875 27.296875 
Q 46.1875 37.015625 41.984375 42.703125 
Q 37.796875 48.390625 30.609375 48.390625 
M 30.609375 56 
Q 42.328125 56 49.015625 48.375 
Q 55.71875 40.765625 55.71875 27.296875 
Q 55.71875 13.875 49.015625 6.21875 
Q 42.328125 -1.421875 30.609375 -1.421875 
Q 18.84375 -1.421875 12.171875 6.21875 
Q 5.515625 13.875 5.515625 27.296875 
Q 5.515625 40.765625 12.171875 48.375 
Q 18.84375 56 30.609375 56 
" id="BitstreamVeraSans-Roman-6f"/>
      <path d="M 41.109375 46.296875 
Q 39.59375 47.171875 37.8125 47.578125 
Q 36.03125 48 33.890625 48 
Q 26.265625 48 22.1875 43.046875 
Q 18.109375 38.09375 18.109375 28.8125 
L 18.109375 0 
L 9.078125 0 
L 9.078125 54.6875 
L 18.109375 54.6875 
L 18.109375 46.1875 
Q 20.953125 51.171875 25.484375 53.578125 
Q 30.03125 56 36.53125 56 
Q 37.453125 56 38.578125 55.875 
Q 39.703125 55.765625 41.0625 55.515625 
z
" id="BitstreamVeraSans-Roman-72"/>
      <path d="M 48.78125 52.59375 
L 48.78125 44.1875 
Q 44.96875 46.296875 41.140625 47.34375 
Q 37.3125 48.390625 33.40625 48.390625 
Q 24.65625 48.390625 19.8125 42.84375 
Q 14.984375 37.3125 14.984375 27.296875 
Q 14.984375 17.28125 19.8125 11.734375 
Q 24.65625 6.203125 33.40625 6.203125 
Q 37.3125 6.203125 41.140625 7.25 
Q 44.96875 8.296875 48.78125 10.40625 
L 48.78125 2.09375 
Q 45.015625 0.34375 40.984375 -0.53125 
Q 36.96875 -1.421875 32.421875 -1.421875 
Q 20.0625 -1.421875 12.78125 6.34375 
Q 5.515625 14.109375 5.515625 27.296875 
Q 5.515625 40.671875 12.859375 48.328125 
Q 20.21875 56 33.015625 56 
Q 37.15625 56 41.109375 55.140625 
Q 45.0625 54.296875 48.78125 52.59375 
" id="BitstreamVeraSans-Roman-63"/>
      <path d="M 37.109375 75.984375 
L 37.109375 68.5 
L 28.515625 68.5 
Q 23.6875 68.5 21.796875 66.546875 
Q 19.921875 64.59375 19.921875 59.515625 
L 19.921875 54.6875 
L 34.71875 54.6875 
L 34.71875 47.703125 
L 19.921875 47.703125 
L 19.921875 0 
L 10.890625 0 
L 10.890625 47.703125 
L 2.296875 47.703125 
L 2.296875 54.6875 
L 10.890625 54.6875 
L 10.890625 58.5 
Q 10.890625 67.625 15.140625 71.796875 
Q 19.390625 75.984375 28.609375 75.984375 
z
" id="BitstreamVeraSans-Roman-66"/>
      <path d="M 56.203125 29.59375 
L 56.203125 25.203125 
L 14.890625 25.203125 
Q 15.484375 15.921875 20.484375 11.0625 
Q 25.484375 6.203125 34.421875 6.203125 
Q 39.59375 6.203125 44.453125 7.46875 
Q 49.3125 8.734375 54.109375 11.28125 
L 54.109375 2.78125 
Q 49.265625 0.734375 44.1875 -0.34375 
Q 39.109375 -1.421875 33.890625 -1.421875 
Q 20.796875 -1.421875 13.15625 6.1875 
Q 5.515625 13.8125 5.515625 26.8125 
Q 5.515625 40.234375 12.765625 48.109375 
Q 20.015625 56 32.328125 56 
Q 43.359375 56 49.78125 48.890625 
Q 56.203125 41.796875 56.203125 29.59375 
M 47.21875 32.234375 
Q 47.125 39.59375 43.09375 43.984375 
Q 39.0625 48.390625 32.421875 48.390625 
Q 24.90625 48.390625 20.390625 44.140625 
Q 15.875 39.890625 15.1875 32.171875 
z
" id="BitstreamVeraSans-Roman-65"/>
      <path d="M 54.890625 33.015625 
L 54.890625 0 
L 45.90625 0 
L 45.90625 32.71875 
Q 45.90625 40.484375 42.875 44.328125 
Q 39.84375 48.1875 33.796875 48.1875 
Q 26.515625 48.1875 22.3125 43.546875 
Q 18.109375 38.921875 18.109375 30.90625 
L 18.109375 0 
L 9.078125 0 
L 9.078125 54.6875 
L 18.109375 54.6875 
L 18.109375 46.1875 
Q 21.34375 51.125 25.703125 53.5625 
Q 30.078125 56 35.796875 56 
Q 45.21875 56 50.046875 50.171875 
Q 54.890625 44.34375 54.890625 33.015625 
" id="BitstreamVeraSans-Roman-6e"/>
      <path d="M 45.40625 27.984375 
Q 45.40625 37.75 41.375 43.109375 
Q 37.359375 48.484375 30.078125 48.484375 
Q 22.859375 48.484375 18.828125 43.109375 
Q 14.796875 37.75 14.796875 27.984375 
Q 14.796875 18.265625 18.828125 12.890625 
Q 22.859375 7.515625 30.078125 7.515625 
Q 37.359375 7.515625 41.375 12.890625 
Q 45.40625 18.265625 45.40625 27.984375 
M 54.390625 6.78125 
Q 54.390625 -7.171875 48.1875 -13.984375 
Q 42 -20.796875 29.203125 -20.796875 
Q 24.46875 -20.796875 20.265625 -20.09375 
Q 16.0625 -19.390625 12.109375 -17.921875 
L 12.109375 -9.1875 
Q 16.0625 -11.328125 19.921875 -12.34375 
Q 23.78125 -13.375 27.78125 -13.375 
Q 36.625 -13.375 41.015625 -8.765625 
Q 45.40625 -4.15625 45.40625 5.171875 
L 45.40625 9.625 
Q 42.625 4.78125 38.28125 2.390625 
Q 33.9375 0 27.875 0 
Q 17.828125 0 11.671875 7.65625 
Q 5.515625 15.328125 5.515625 27.984375 
Q 5.515625 40.671875 11.671875 48.328125 
Q 17.828125 56 27.875 56 
Q 33.9375 56 38.28125 53.609375 
Q 42.625 51.21875 45.40625 46.390625 
L 45.40625 54.6875 
L 54.390625 54.6875 
z
" id="BitstreamVeraSans-Roman-67"/>
      <path d="M 54.890625 33.015625 
L 54.890625 0 
L 45.90625 0 
L 45.90625 32.71875 
Q 45.90625 40.484375 42.875 44.328125 
Q 39.84375 48.1875 33.796875 48.1875 
Q 26.515625 48.1875 22.3125 43.546875 
Q 18.109375 38.921875 18.109375 30.90625 
L 18.109375 0 
L 9.078125 0 
L 9.078125 75.984375 
L 18.109375 75.984375 
L 18.109375 46.1875 
Q 21.34375 51.125 25.703125 53.5625 
Q 30.078125 56 35.796875 56 
Q 45.21875 56 50.046875 50.171875 
Q 54.890625 44.34375 54.890625 33.015625 
" id="BitstreamVeraSans-Roman-68"/>
      <path d="M 48.6875 27.296875 
Q 48.6875 37.203125 44.609375 42.84375 
Q 40.53125 48.484375 33.40625 48.484375 
Q 26.265625 48.484375 22.1875 42.84375 
Q 18.109375 37.203125 18.109375 27.296875 
Q 18.109375 17.390625 22.1875 11.75 
Q 26.265625 6.109375 33.40625 6.109375 
Q 40.53125 6.109375 44.609375 11.75 
Q 48.6875 17.390625 48.6875 27.296875 
M 18.109375 46.390625 
Q 20.953125 51.265625 25.265625 53.625 
Q 29.59375 56 35.59375 56 
Q 45.5625 56 51.78125 48.09375 
Q 58.015625 40.1875 58.015625 27.296875 
Q 58.015625 14.40625 51.78125 6.484375 
Q 45.5625 -1.421875 35.59375 -1.421875 
Q 29.59375 -1.421875 25.265625 0.953125 
Q 20.953125 3.328125 18.109375 8.203125 
L 18.109375 0 
L 9.078125 0 
L 9.078125 75.984375 
L 18.109375 75.984375 
z
" id="BitstreamVeraSans-Roman-62"/>
      <path d="M 18.109375 8.203125 
L 18.109375 -20.796875 
L 9.078125 -20.796875 
L 9.078125 54.6875 
L 18.109375 54.6875 
L 18.109375 46.390625 
Q 20.953125 51.265625 25.265625 53.625 
Q 29.59375 56 35.59375 56 
Q 45.5625 56 51.78125 48.09375 
Q 58.015625 40.1875 58.015625 27.296875 
Q 58.015625 14.40625 51.78125 6.484375 
Q 45.5625 -1.421875 35.59375 -1.421875 
Q 29.59375 -1.421875 25.265625 0.953125 
Q 20.953125 3.328125 18.109375 8.203125 
M 48.6875 27.296875 
Q 48.6875 37.203125 44.609375 42.84375 
Q 40.53125 48.484375 33.40625 48.484375 
Q 26.265625 48.484375 22.1875 42.84375 
Q 18.109375 37.203125 18.109375 27.296875 
Q 18.109375 17.390625 22.1875 11.75 
Q 26.265625 6.109375 33.40625 6.109375 
Q 40.53125 6.109375 44.609375 11.75 
Q 48.6875 17.390625 48.6875 27.296875 
" id="BitstreamVeraSans-Roman-70"/>
      <path d="M 52 44.1875 
Q 55.375 50.25 60.0625 53.125 
Q 64.75 56 71.09375 56 
Q 79.640625 56 84.28125 50.015625 
Q 88.921875 44.046875 88.921875 33.015625 
L 88.921875 0 
L 79.890625 0 
L 79.890625 32.71875 
Q 79.890625 40.578125 77.09375 44.375 
Q 74.3125 48.1875 68.609375 48.1875 
Q 61.625 48.1875 57.5625 43.546875 
Q 53.515625 38.921875 53.515625 30.90625 
L 53.515625 0 
L 44.484375 0 
L 44.484375 32.71875 
Q 44.484375 40.625 41.703125 44.40625 
Q 38.921875 48.1875 33.109375 48.1875 
Q 26.21875 48.1875 22.15625 43.53125 
Q 18.109375 38.875 18.109375 30.90625 
L 18.109375 0 
L 9.078125 0 
L 9.078125 54.6875 
L 18.109375 54.6875 
L 18.109375 46.1875 
Q 21.1875 51.21875 25.484375 53.609375 
Q 29.78125 56 35.6875 56 
Q 41.65625 56 45.828125 52.96875 
Q 50 49.953125 52 44.1875 
" id="BitstreamVeraSans-Roman-6d"/>
      <path id="BitstreamVeraSans-Roman-20"/>
      <path d="M 8.5 21.578125 
L 8.5 54.6875 
L 17.484375 54.6875 
L 17.484375 21.921875 
Q 17.484375 14.15625 20.5 10.265625 
Q 23.53125 6.390625 29.59375 6.390625 
Q 36.859375 6.390625 41.078125 11.03125 
Q 45.3125 15.671875 45.3125 23.6875 
L 45.3125 54.6875 
L 54.296875 54.6875 
L 54.296875 0 
L 45.3125 0 
L 45.3125 8.40625 
Q 42.046875 3.421875 37.71875 1 
Q 33.40625 -1.421875 27.6875 -1.421875 
Q 18.265625 -1.421875 13.375 4.4375 
Q 8.5 10.296875 8.5 21.578125 
" id="BitstreamVeraSans-Roman-75"/>
      <path d="M 45.40625 46.390625 
L 45.40625 75.984375 
L 54.390625 75.984375 
L 54.390625 0 
L 45.40625 0 
L 45.40625 8.203125 
Q 42.578125 3.328125 38.25 0.953125 
Q 33.9375 -1.421875 27.875 -1.421875 
Q 17.96875 -1.421875 11.734375 6.484375 
Q 5.515625 14.40625 5.515625 27.296875 
Q 5.515625 40.1875 11.734375 48.09375 
Q 17.96875 56 27.875 56 
Q 33.9375 56 38.25 53.625 
Q 42.578125 51.265625 45.40625 46.390625 
M 14.796875 27.296875 
Q 14.796875 17.390625 18.875 11.75 
Q 22.953125 6.109375 30.078125 6.109375 
Q 37.203125 6.109375 41.296875 11.75 
Q 45.40625 17.390625 45.40625 27.296875 
Q 45.40625 37.203125 41.296875 42.84375 
Q 37.203125 48.484375 30.078125 48.484375 
Q 22.953125 48.484375 18.875 42.84375 
Q 14.796875 37.203125 14.796875 27.296875 
" id="BitstreamVeraSans-Roman-64"/>
      <path d="M 44.28125 53.078125 
L 44.28125 44.578125 
Q 40.484375 46.53125 36.375 47.5 
Q 32.28125 48.484375 27.875 48.484375 
Q 21.1875 48.484375 17.84375 46.4375 
Q 14.5 44.390625 14.5 40.28125 
Q 14.5 37.15625 16.890625 35.375 
Q 19.28125 33.59375 26.515625 31.984375 
L 29.59375 31.296875 
Q 39.15625 29.25 43.1875 25.515625 
Q 47.21875 21.78125 47.21875 15.09375 
Q 47.21875 7.46875 41.1875 3.015625 
Q 35.15625 -1.421875 24.609375 -1.421875 
Q 20.21875 -1.421875 15.453125 -0.5625 
Q 10.6875 0.296875 5.421875 2 
L 5.421875 11.28125 
Q 10.40625 8.6875 15.234375 7.390625 
Q 20.0625 6.109375 24.8125 6.109375 
Q 31.15625 6.109375 34.5625 8.28125 
Q 37.984375 10.453125 37.984375 14.40625 
Q 37.984375 18.0625 35.515625 20.015625 
Q 33.0625 21.96875 24.703125 23.78125 
L 21.578125 24.515625 
Q 13.234375 26.265625 9.515625 29.90625 
Q 5.8125 33.546875 5.8125 39.890625 
Q 5.8125 47.609375 11.28125 51.796875 
Q 16.75 56 26.8125 56 
Q 31.78125 56 36.171875 55.265625 
Q 40.578125 54.546875 44.28125 53.078125 
" id="BitstreamVeraSans-Roman-73"/>
      <path d="M 34.28125 27.484375 
Q 23.390625 27.484375 19.1875 25 
Q 14.984375 22.515625 14.984375 16.5 
Q 14.984375 11.71875 18.140625 8.90625 
Q 21.296875 6.109375 26.703125 6.109375 
Q 34.1875 6.109375 38.703125 11.40625 
Q 43.21875 16.703125 43.21875 25.484375 
L 43.21875 27.484375 
z
M 52.203125 31.203125 
L 52.203125 0 
L 43.21875 0 
L 43.21875 8.296875 
Q 40.140625 3.328125 35.546875 0.953125 
Q 30.953125 -1.421875 24.3125 -1.421875 
Q 15.921875 -1.421875 10.953125 3.296875 
Q 6 8.015625 6 15.921875 
Q 6 25.140625 12.171875 29.828125 
Q 18.359375 34.515625 30.609375 34.515625 
L 43.21875 34.515625 
L 43.21875 35.40625 
Q 43.21875 41.609375 39.140625 45 
Q 35.0625 48.390625 27.6875 48.390625 
Q 23 48.390625 18.546875 47.265625 
Q 14.109375 46.140625 10.015625 43.890625 
L 10.015625 52.203125 
Q 14.9375 54.109375 19.578125 55.046875 
Q 24.21875 56 28.609375 56 
Q 40.484375 56 46.34375 49.84375 
Q 52.203125 43.703125 52.203125 31.203125 
" id="BitstreamVeraSans-Roman-61"/>
     </defs>
     <g transform="translate(204.2953125 418.531875)scale(0.12 -0.12)">
      <use xlink:href="#BitstreamVeraSans-Roman-6e"/>
      <use x="63.37890625" xlink:href="#BitstreamVeraSans-Roman-75"/>
      <use x="126.7578125" xlink:href="#BitstreamVeraSans-Roman-6d"/>
      <use x="224.169921875" xlink:href="#BitstreamVeraSans-Roman-62"/>
      <use x="287.646484375" xlink:href="#BitstreamVeraSans-Roman-65"/>
      <use x="349.169921875" xlink:href="#BitstreamVeraSans-Roman-72"/>
      <use x="390.283203125" xlink:href="#BitstreamVeraSans-Roman-20"/>
      <use x="422.0703125" xlink:href="#BitstreamVeraSans-Roman-6f"/>
      <use x="483.251953125" xlink:href="#BitstreamVeraSans-Roman-66"/>
      <use x="518.45703125" xlink:href="#BitstreamVeraSans-Roman-20"/>
      <use x="550.244140625" xlink:href="#BitstreamVeraSans-Roman-73"/>
      <use x="602.34375" xlink:href="#BitstreamVeraSans-Roman-70"/>
      <use x="665.8203125" xlink:href="#BitstreamVeraSans-Roman-65"/>
      <use x="727.34375" xlink:href="#BitstreamVeraSans-Roman-61"/>
      <use x="788.623046875" xlink:href="#BitstreamVeraSans-Roman-72"/>
      <use x="829.720703125" xlink:href="#BitstreamVeraSans-Roman-6d"/>
      <use x="927.1328125" xlink:href="#BitstreamVeraSans-Roman-61"/>
      <use x="988.412109375" xlink:href="#BitstreamVeraSans-Roman-6e"/>
      <use x="1051.791015625" xlink:href="#BitstreamVeraSans-Roman-20"/>
      <use x="1083.578125" xlink:href="#BitstreamVeraSans-Roman-63"/>
      <use x="1138.55859375" xlink:href="#BitstreamVeraSans-Roman-68"/>
      <use x="1201.9375" xlink:href="#BitstreamVeraSans-Roman-61"/>
      <use x="1263.216796875" xlink:href="#BitstreamVeraSans-Roman-6e"/>
      <use x="1326.595703125" xlink:href="#BitstreamVeraSans-Roman-67"/>
      <use x="1390.072265625" xlink:href="#BitstreamVeraSans-Roman-65"/>
      <use x="1451.595703125" xlink:href="#BitstreamVeraSans-Roman-64"/>
     </g>
    </g>
   </g>
   <g id="matplotlib.axis_2">
    <g id="ytick_1">
     <g id="line2d_29">
      <defs>
       <path d="M 0 0 
L 4 0 
" id="mff303e4d49" style="stroke:#000000;stroke-width:0.5;"/>
      </defs>
      <g>
       <use style="stroke:#000000;stroke-width:0.5;" x="72.0" xlink:href="#mff303e4d49" y="388.8"/>
      </g>
     </g>
     <g id="line2d_30">
      <defs>
       <path d="M 0 0 
L -4 0 
" id="m62edf08ccc" style="stroke:#000000;stroke-width:0.5;"/>
      </defs>
      <g>
       <use style="stroke:#000000;stroke-width:0.5;" x="518.4" xlink:href="#m62edf08ccc" y="388.8"/>
      </g>
     </g>
     <g id="text_9">
      <!-- 0.0 -->
      <g transform="translate(48.91625 392.11125)scale(0.12 -0.12)">
       <use xlink:href="#BitstreamVeraSans-Roman-30"/>
       <use x="63.623046875" xlink:href="#BitstreamVeraSans-Roman-2e"/>
       <use x="95.41015625" xlink:href="#BitstreamVeraSans-Roman-30"/>
      </g>
     </g>
    </g>
    <g id="ytick_2">
     <g id="line2d_31">
      <g>
       <use style="stroke:#000000;stroke-width:0.5;" x="72.0" xlink:href="#mff303e4d49" y="331.2"/>
      </g>
     </g>
     <g id="line2d_32">
      <g>
       <use style="stroke:#000000;stroke-width:0.5;" x="518.4" xlink:href="#m62edf08ccc" y="331.2"/>
      </g>
     </g>
     <g id="text_10">
      <!-- 0.1 -->
      <g transform="translate(48.91625 334.51125)scale(0.12 -0.12)">
       <use xlink:href="#BitstreamVeraSans-Roman-30"/>
       <use x="63.623046875" xlink:href="#BitstreamVeraSans-Roman-2e"/>
       <use x="95.41015625" xlink:href="#BitstreamVeraSans-Roman-31"/>
      </g>
     </g>
    </g>
    <g id="ytick_3">
     <g id="line2d_33">
      <g>
       <use style="stroke:#000000;stroke-width:0.5;" x="72.0" xlink:href="#mff303e4d49" y="273.6"/>
      </g>
     </g>
     <g id="line2d_34">
      <g>
       <use style="stroke:#000000;stroke-width:0.5;" x="518.4" xlink:href="#m62edf08ccc" y="273.6"/>
      </g>
     </g>
     <g id="text_11">
      <!-- 0.2 -->
      <defs>
       <path d="M 19.1875 8.296875 
L 53.609375 8.296875 
L 53.609375 0 
L 7.328125 0 
L 7.328125 8.296875 
Q 12.9375 14.109375 22.625 23.890625 
Q 32.328125 33.6875 34.8125 36.53125 
Q 39.546875 41.84375 41.421875 45.53125 
Q 43.3125 49.21875 43.3125 52.78125 
Q 43.3125 58.59375 39.234375 62.25 
Q 35.15625 65.921875 28.609375 65.921875 
Q 23.96875 65.921875 18.8125 64.3125 
Q 13.671875 62.703125 7.8125 59.421875 
L 7.8125 69.390625 
Q 13.765625 71.78125 18.9375 73 
Q 24.125 74.21875 28.421875 74.21875 
Q 39.75 74.21875 46.484375 68.546875 
Q 53.21875 62.890625 53.21875 53.421875 
Q 53.21875 48.921875 51.53125 44.890625 
Q 49.859375 40.875 45.40625 35.40625 
Q 44.1875 33.984375 37.640625 27.21875 
Q 31.109375 20.453125 19.1875 8.296875 
" id="BitstreamVeraSans-Roman-32"/>
      </defs>
      <g transform="translate(48.91625 276.91125)scale(0.12 -0.12)">
       <use xlink:href="#BitstreamVeraSans-Roman-30"/>
       <use x="63.623046875" xlink:href="#BitstreamVeraSans-Roman-2e"/>
       <use x="95.41015625" xlink:href="#BitstreamVeraSans-Roman-32"/>
      </g>
     </g>
    </g>
    <g id="ytick_4">
     <g id="line2d_35">
      <g>
       <use style="stroke:#000000;stroke-width:0.5;" x="72.0" xlink:href="#mff303e4d49" y="216.0"/>
      </g>
     </g>
     <g id="line2d_36">
      <g>
       <use style="stroke:#000000;stroke-width:0.5;" x="518.4" xlink:href="#m62edf08ccc" y="216.0"/>
      </g>
     </g>
     <g id="text_12">
      <!-- 0.3 -->
      <defs>
       <path d="M 40.578125 39.3125 
Q 47.65625 37.796875 51.625 33 
Q 55.609375 28.21875 55.609375 21.1875 
Q 55.609375 10.40625 48.1875 4.484375 
Q 40.765625 -1.421875 27.09375 -1.421875 
Q 22.515625 -1.421875 17.65625 -0.515625 
Q 12.796875 0.390625 7.625 2.203125 
L 7.625 11.71875 
Q 11.71875 9.328125 16.59375 8.109375 
Q 21.484375 6.890625 26.8125 6.890625 
Q 36.078125 6.890625 40.9375 10.546875 
Q 45.796875 14.203125 45.796875 21.1875 
Q 45.796875 27.640625 41.28125 31.265625 
Q 36.765625 34.90625 28.71875 34.90625 
L 20.21875 34.90625 
L 20.21875 43.015625 
L 29.109375 43.015625 
Q 36.375 43.015625 40.234375 45.921875 
Q 44.09375 48.828125 44.09375 54.296875 
Q 44.09375 59.90625 40.109375 62.90625 
Q 36.140625 65.921875 28.71875 65.921875 
Q 24.65625 65.921875 20.015625 65.03125 
Q 15.375 64.15625 9.8125 62.3125 
L 9.8125 71.09375 
Q 15.4375 72.65625 20.34375 73.4375 
Q 25.25 74.21875 29.59375 74.21875 
Q 40.828125 74.21875 47.359375 69.109375 
Q 53.90625 64.015625 53.90625 55.328125 
Q 53.90625 49.265625 50.4375 45.09375 
Q 46.96875 40.921875 40.578125 39.3125 
" id="BitstreamVeraSans-Roman-33"/>
      </defs>
      <g transform="translate(48.91625 219.31125)scale(0.12 -0.12)">
       <use xlink:href="#BitstreamVeraSans-Roman-30"/>
       <use x="63.623046875" xlink:href="#BitstreamVeraSans-Roman-2e"/>
       <use x="95.41015625" xlink:href="#BitstreamVeraSans-Roman-33"/>
      </g>
     </g>
    </g>
    <g id="ytick_5">
     <g id="line2d_37">
      <g>
       <use style="stroke:#000000;stroke-width:0.5;" x="72.0" xlink:href="#mff303e4d49" y="158.4"/>
      </g>
     </g>
     <g id="line2d_38">
      <g>
       <use style="stroke:#000000;stroke-width:0.5;" x="518.4" xlink:href="#m62edf08ccc" y="158.4"/>
      </g>
     </g>
     <g id="text_13">
      <!-- 0.4 -->
      <defs>
       <path d="M 37.796875 64.3125 
L 12.890625 25.390625 
L 37.796875 25.390625 
z
M 35.203125 72.90625 
L 47.609375 72.90625 
L 47.609375 25.390625 
L 58.015625 25.390625 
L 58.015625 17.1875 
L 47.609375 17.1875 
L 47.609375 0 
L 37.796875 0 
L 37.796875 17.1875 
L 4.890625 17.1875 
L 4.890625 26.703125 
z
" id="BitstreamVeraSans-Roman-34"/>
      </defs>
      <g transform="translate(48.91625 161.71125)scale(0.12 -0.12)">
       <use xlink:href="#BitstreamVeraSans-Roman-30"/>
       <use x="63.623046875" xlink:href="#BitstreamVeraSans-Roman-2e"/>
       <use x="95.41015625" xlink:href="#BitstreamVeraSans-Roman-34"/>
      </g>
     </g>
    </g>
    <g id="ytick_6">
     <g id="line2d_39">
      <g>
       <use style="stroke:#000000;stroke-width:0.5;" x="72.0" xlink:href="#mff303e4d49" y="100.8"/>
      </g>
     </g>
     <g id="line2d_40">
      <g>
       <use style="stroke:#000000;stroke-width:0.5;" x="518.4" xlink:href="#m62edf08ccc" y="100.8"/>
      </g>
     </g>
     <g id="text_14">
      <!-- 0.5 -->
      <g transform="translate(48.91625 104.11125)scale(0.12 -0.12)">
       <use xlink:href="#BitstreamVeraSans-Roman-30"/>
       <use x="63.623046875" xlink:href="#BitstreamVeraSans-Roman-2e"/>
       <use x="95.41015625" xlink:href="#BitstreamVeraSans-Roman-35"/>
      </g>
     </g>
    </g>
    <g id="ytick_7">
     <g id="text_15">
      <!-- 0.6 -->
      <defs>
       <path d="M 33.015625 40.375 
Q 26.375 40.375 22.484375 35.828125 
Q 18.609375 31.296875 18.609375 23.390625 
Q 18.609375 15.53125 22.484375 10.953125 
Q 26.375 6.390625 33.015625 6.390625 
Q 39.65625 6.390625 43.53125 10.953125 
Q 47.40625 15.53125 47.40625 23.390625 
Q 47.40625 31.296875 43.53125 35.828125 
Q 39.65625 40.375 33.015625 40.375 
M 52.59375 71.296875 
L 52.59375 62.3125 
Q 48.875 64.0625 45.09375 64.984375 
Q 41.3125 65.921875 37.59375 65.921875 
Q 27.828125 65.921875 22.671875 59.328125 
Q 17.53125 52.734375 16.796875 39.40625 
Q 19.671875 43.65625 24.015625 45.921875 
Q 28.375 48.1875 33.59375 48.1875 
Q 44.578125 48.1875 50.953125 41.515625 
Q 57.328125 34.859375 57.328125 23.390625 
Q 57.328125 12.15625 50.6875 5.359375 
Q 44.046875 -1.421875 33.015625 -1.421875 
Q 20.359375 -1.421875 13.671875 8.265625 
Q 6.984375 17.96875 6.984375 36.375 
Q 6.984375 53.65625 15.1875 63.9375 
Q 23.390625 74.21875 37.203125 74.21875 
Q 40.921875 74.21875 44.703125 73.484375 
Q 48.484375 72.75 52.59375 71.296875 
" id="BitstreamVeraSans-Roman-36"/>
      </defs>
      <g transform="translate(48.91625 46.51125)scale(0.12 -0.12)">
       <use xlink:href="#BitstreamVeraSans-Roman-30"/>
       <use x="63.623046875" xlink:href="#BitstreamVeraSans-Roman-2e"/>
       <use x="95.41015625" xlink:href="#BitstreamVeraSans-Roman-36"/>
      </g>
     </g>
    </g>
    <g id="text_16">
     <!-- probabillity -->
     <defs>
      <path d="M 9.421875 54.6875 
L 18.40625 54.6875 
L 18.40625 0 
L 9.421875 0 
z
M 9.421875 75.984375 
L 18.40625 75.984375 
L 18.40625 64.59375 
L 9.421875 64.59375 
z
" id="BitstreamVeraSans-Roman-69"/>
      <path d="M 18.3125 70.21875 
L 18.3125 54.6875 
L 36.8125 54.6875 
L 36.8125 47.703125 
L 18.3125 47.703125 
L 18.3125 18.015625 
Q 18.3125 11.328125 20.140625 9.421875 
Q 21.96875 7.515625 27.59375 7.515625 
L 36.8125 7.515625 
L 36.8125 0 
L 27.59375 0 
Q 17.1875 0 13.234375 3.875 
Q 9.28125 7.765625 9.28125 18.015625 
L 9.28125 47.703125 
L 2.6875 47.703125 
L 2.6875 54.6875 
L 9.28125 54.6875 
L 9.28125 70.21875 
z
" id="BitstreamVeraSans-Roman-74"/>
      <path d="M 32.171875 -5.078125 
Q 28.375 -14.84375 24.75 -17.8125 
Q 21.140625 -20.796875 15.09375 -20.796875 
L 7.90625 -20.796875 
L 7.90625 -13.28125 
L 13.1875 -13.28125 
Q 16.890625 -13.28125 18.9375 -11.515625 
Q 21 -9.765625 23.484375 -3.21875 
L 25.09375 0.875 
L 2.984375 54.6875 
L 12.5 54.6875 
L 29.59375 11.921875 
L 46.6875 54.6875 
L 56.203125 54.6875 
z
" id="BitstreamVeraSans-Roman-79"/>
      <path d="M 9.421875 75.984375 
L 18.40625 75.984375 
L 18.40625 0 
L 9.421875 0 
z
" id="BitstreamVeraSans-Roman-6c"/>
     </defs>
     <g transform="translate(41.420625 249.8109375)rotate(-90.0)scale(0.12 -0.12)">
      <use xlink:href="#BitstreamVeraSans-Roman-70"/>
      <use x="63.4765625" xlink:href="#BitstreamVeraSans-Roman-72"/>
      <use x="104.55859375" xlink:href="#BitstreamVeraSans-Roman-6f"/>
      <use x="165.740234375" xlink:href="#BitstreamVeraSans-Roman-62"/>
      <use x="229.216796875" xlink:href="#BitstreamVeraSans-Roman-61"/>
      <use x="290.49609375" xlink:href="#BitstreamVeraSans-Roman-62"/>
      <use x="353.97265625" xlink:href="#BitstreamVeraSans-Roman-69"/>
      <use x="381.755859375" xlink:href="#BitstreamVeraSans-Roman-6c"/>
      <use x="409.5390625" xlink:href="#BitstreamVeraSans-Roman-6c"/>
      <use x="437.322265625" xlink:href="#BitstreamVeraSans-Roman-69"/>
      <use x="465.10546875" xlink:href="#BitstreamVeraSans-Roman-74"/>
      <use x="504.314453125" xlink:href="#BitstreamVeraSans-Roman-79"/>
     </g>
    </g>
   </g>
   <g id="text_17">
    <!-- empirical distribution of spearman changes -->
    <g transform="translate(138.3705 38.2)scale(0.144 -0.144)">
     <use xlink:href="#BitstreamVeraSans-Roman-65"/>
     <use x="61.5234375" xlink:href="#BitstreamVeraSans-Roman-6d"/>
     <use x="158.935546875" xlink:href="#BitstreamVeraSans-Roman-70"/>
     <use x="222.412109375" xlink:href="#BitstreamVeraSans-Roman-69"/>
     <use x="250.1953125" xlink:href="#BitstreamVeraSans-Roman-72"/>
     <use x="291.30859375" xlink:href="#BitstreamVeraSans-Roman-69"/>
     <use x="319.091796875" xlink:href="#BitstreamVeraSans-Roman-63"/>
     <use x="374.072265625" xlink:href="#BitstreamVeraSans-Roman-61"/>
     <use x="435.3515625" xlink:href="#BitstreamVeraSans-Roman-6c"/>
     <use x="463.134765625" xlink:href="#BitstreamVeraSans-Roman-20"/>
     <use x="494.921875" xlink:href="#BitstreamVeraSans-Roman-64"/>
     <use x="558.3984375" xlink:href="#BitstreamVeraSans-Roman-69"/>
     <use x="586.181640625" xlink:href="#BitstreamVeraSans-Roman-73"/>
     <use x="638.28125" xlink:href="#BitstreamVeraSans-Roman-74"/>
     <use x="677.490234375" xlink:href="#BitstreamVeraSans-Roman-72"/>
     <use x="718.603515625" xlink:href="#BitstreamVeraSans-Roman-69"/>
     <use x="746.38671875" xlink:href="#BitstreamVeraSans-Roman-62"/>
     <use x="809.86328125" xlink:href="#BitstreamVeraSans-Roman-75"/>
     <use x="873.2421875" xlink:href="#BitstreamVeraSans-Roman-74"/>
     <use x="912.451171875" xlink:href="#BitstreamVeraSans-Roman-69"/>
     <use x="940.234375" xlink:href="#BitstreamVeraSans-Roman-6f"/>
     <use x="1001.416015625" xlink:href="#BitstreamVeraSans-Roman-6e"/>
     <use x="1064.794921875" xlink:href="#BitstreamVeraSans-Roman-20"/>
     <use x="1096.58203125" xlink:href="#BitstreamVeraSans-Roman-6f"/>
     <use x="1157.763671875" xlink:href="#BitstreamVeraSans-Roman-66"/>
     <use x="1192.96875" xlink:href="#BitstreamVeraSans-Roman-20"/>
     <use x="1224.755859375" xlink:href="#BitstreamVeraSans-Roman-73"/>
     <use x="1276.85546875" xlink:href="#BitstreamVeraSans-Roman-70"/>
     <use x="1340.33203125" xlink:href="#BitstreamVeraSans-Roman-65"/>
     <use x="1401.85546875" xlink:href="#BitstreamVeraSans-Roman-61"/>
     <use x="1463.134765625" xlink:href="#BitstreamVeraSans-Roman-72"/>
     <use x="1504.232421875" xlink:href="#BitstreamVeraSans-Roman-6d"/>
     <use x="1601.64453125" xlink:href="#BitstreamVeraSans-Roman-61"/>
     <use x="1662.923828125" xlink:href="#BitstreamVeraSans-Roman-6e"/>
     <use x="1726.302734375" xlink:href="#BitstreamVeraSans-Roman-20"/>
     <use x="1758.08984375" xlink:href="#BitstreamVeraSans-Roman-63"/>
     <use x="1813.0703125" xlink:href="#BitstreamVeraSans-Roman-68"/>
     <use x="1876.44921875" xlink:href="#BitstreamVeraSans-Roman-61"/>
     <use x="1937.728515625" xlink:href="#BitstreamVeraSans-Roman-6e"/>
     <use x="2001.107421875" xlink:href="#BitstreamVeraSans-Roman-67"/>
     <use x="2064.583984375" xlink:href="#BitstreamVeraSans-Roman-65"/>
     <use x="2126.107421875" xlink:href="#BitstreamVeraSans-Roman-73"/>
    </g>
   </g>
   <g id="legend_1">
    <g id="patch_7">
     <path d="M 77 320.246875 
L 140.715625 320.246875 
L 140.715625 111.753125 
L 77 111.753125 
z
" style="fill:#ffffff;stroke:#000000;stroke-linejoin:miter;"/>
    </g>
    <g id="line2d_41">
     <path d="M 84 119.851562 
L 98 119.851562 
" style="fill:none;stroke:#8000ff;stroke-linecap:square;"/>
    </g>
    <g id="line2d_42"/>
    <g id="text_18">
     <!-- gold -->
     <g transform="translate(109.0 123.3515625)scale(0.1 -0.1)">
      <use xlink:href="#BitstreamVeraSans-Roman-67"/>
      <use x="63.4765625" xlink:href="#BitstreamVeraSans-Roman-6f"/>
      <use x="124.658203125" xlink:href="#BitstreamVeraSans-Roman-6c"/>
      <use x="152.44140625" xlink:href="#BitstreamVeraSans-Roman-64"/>
     </g>
    </g>
    <g id="line2d_43">
     <path d="M 84 134.529688 
L 98 134.529688 
" style="fill:none;stroke:#5a3bfd;stroke-linecap:square;"/>
    </g>
    <g id="line2d_44"/>
    <g id="text_19">
     <!-- cuui -->
     <g transform="translate(109.0 138.0296875)scale(0.1 -0.1)">
      <use xlink:href="#BitstreamVeraSans-Roman-63"/>
      <use x="54.98046875" xlink:href="#BitstreamVeraSans-Roman-75"/>
      <use x="118.359375" xlink:href="#BitstreamVeraSans-Roman-75"/>
      <use x="181.73828125" xlink:href="#BitstreamVeraSans-Roman-69"/>
     </g>
    </g>
    <g id="line2d_45">
     <path d="M 84 149.207813 
L 98 149.207813 
" style="fill:none;stroke:#3176f8;stroke-linecap:square;"/>
    </g>
    <g id="line2d_46"/>
    <g id="text_20">
     <!-- camb -->
     <g transform="translate(109.0 152.7078125)scale(0.1 -0.1)">
      <use xlink:href="#BitstreamVeraSans-Roman-63"/>
      <use x="54.98046875" xlink:href="#BitstreamVeraSans-Roman-61"/>
      <use x="116.259765625" xlink:href="#BitstreamVeraSans-Roman-6d"/>
      <use x="213.671875" xlink:href="#BitstreamVeraSans-Roman-62"/>
     </g>
    </g>
    <g id="line2d_47">
     <path d="M 84 163.885938 
L 98 163.885938 
" style="fill:none;stroke:#09a9ee;stroke-linecap:square;"/>
    </g>
    <g id="line2d_48"/>
    <g id="text_21">
     <!-- AMU -->
     <defs>
      <path d="M 9.8125 72.90625 
L 24.515625 72.90625 
L 43.109375 23.296875 
L 61.8125 72.90625 
L 76.515625 72.90625 
L 76.515625 0 
L 66.890625 0 
L 66.890625 64.015625 
L 48.09375 14.015625 
L 38.1875 14.015625 
L 19.390625 64.015625 
L 19.390625 0 
L 9.8125 0 
z
" id="BitstreamVeraSans-Roman-4d"/>
      <path d="M 8.6875 72.90625 
L 18.609375 72.90625 
L 18.609375 28.609375 
Q 18.609375 16.890625 22.84375 11.734375 
Q 27.09375 6.59375 36.625 6.59375 
Q 46.09375 6.59375 50.34375 11.734375 
Q 54.59375 16.890625 54.59375 28.609375 
L 54.59375 72.90625 
L 64.5 72.90625 
L 64.5 27.390625 
Q 64.5 13.140625 57.4375 5.859375 
Q 50.390625 -1.421875 36.625 -1.421875 
Q 22.796875 -1.421875 15.734375 5.859375 
Q 8.6875 13.140625 8.6875 27.390625 
z
" id="BitstreamVeraSans-Roman-55"/>
      <path d="M 34.1875 63.1875 
L 20.796875 26.90625 
L 47.609375 26.90625 
z
M 28.609375 72.90625 
L 39.796875 72.90625 
L 67.578125 0 
L 57.328125 0 
L 50.6875 18.703125 
L 17.828125 18.703125 
L 11.1875 0 
L 0.78125 0 
z
" id="BitstreamVeraSans-Roman-41"/>
     </defs>
     <g transform="translate(109.0 167.3859375)scale(0.1 -0.1)">
      <use xlink:href="#BitstreamVeraSans-Roman-41"/>
      <use x="68.408203125" xlink:href="#BitstreamVeraSans-Roman-4d"/>
      <use x="154.6875" xlink:href="#BitstreamVeraSans-Roman-55"/>
     </g>
    </g>
    <g id="line2d_49">
     <path d="M 84 178.564063 
L 98 178.564063 
" style="fill:none;stroke:#1dd1e2;stroke-linecap:square;"/>
    </g>
    <g id="line2d_50"/>
    <g id="text_22">
     <!-- RR -->
     <defs>
      <path d="M 44.390625 34.1875 
Q 47.5625 33.109375 50.5625 29.59375 
Q 53.5625 26.078125 56.59375 19.921875 
L 66.609375 0 
L 56 0 
L 46.6875 18.703125 
Q 43.0625 26.03125 39.671875 28.421875 
Q 36.28125 30.8125 30.421875 30.8125 
L 19.671875 30.8125 
L 19.671875 0 
L 9.8125 0 
L 9.8125 72.90625 
L 32.078125 72.90625 
Q 44.578125 72.90625 50.734375 67.671875 
Q 56.890625 62.453125 56.890625 51.90625 
Q 56.890625 45.015625 53.6875 40.46875 
Q 50.484375 35.9375 44.390625 34.1875 
M 19.671875 64.796875 
L 19.671875 38.921875 
L 32.078125 38.921875 
Q 39.203125 38.921875 42.84375 42.21875 
Q 46.484375 45.515625 46.484375 51.90625 
Q 46.484375 58.296875 42.84375 61.546875 
Q 39.203125 64.796875 32.078125 64.796875 
z
" id="BitstreamVeraSans-Roman-52"/>
     </defs>
     <g transform="translate(109.0 182.0640625)scale(0.1 -0.1)">
      <use xlink:href="#BitstreamVeraSans-Roman-52"/>
      <use x="69.482421875" xlink:href="#BitstreamVeraSans-Roman-52"/>
     </g>
    </g>
    <g id="line2d_51">
     <path d="M 84 193.242188 
L 98 193.242188 
" style="fill:none;stroke:#44eed2;stroke-linecap:square;"/>
    </g>
    <g id="line2d_52"/>
    <g id="text_23">
     <!-- iitb -->
     <g transform="translate(109.0 196.7421875)scale(0.1 -0.1)">
      <use xlink:href="#BitstreamVeraSans-Roman-69"/>
      <use x="27.783203125" xlink:href="#BitstreamVeraSans-Roman-69"/>
      <use x="55.56640625" xlink:href="#BitstreamVeraSans-Roman-74"/>
      <use x="94.775390625" xlink:href="#BitstreamVeraSans-Roman-62"/>
     </g>
    </g>
    <g id="line2d_53">
     <path d="M 84 207.920313 
L 98 207.920313 
" style="fill:none;stroke:#6dfdbf;stroke-linecap:square;"/>
    </g>
    <g id="line2d_54"/>
    <g id="text_24">
     <!-- ipn -->
     <g transform="translate(109.0 211.4203125)scale(0.1 -0.1)">
      <use xlink:href="#BitstreamVeraSans-Roman-69"/>
      <use x="27.783203125" xlink:href="#BitstreamVeraSans-Roman-70"/>
      <use x="91.259765625" xlink:href="#BitstreamVeraSans-Roman-6e"/>
     </g>
    </g>
    <g id="line2d_55">
     <path d="M 84 222.598437 
L 98 222.598437 
" style="fill:none;stroke:#92fda9;stroke-linecap:square;"/>
    </g>
    <g id="line2d_56"/>
    <g id="text_25">
     <!-- nthu -->
     <g transform="translate(109.0 226.0984375)scale(0.1 -0.1)">
      <use xlink:href="#BitstreamVeraSans-Roman-6e"/>
      <use x="63.37890625" xlink:href="#BitstreamVeraSans-Roman-74"/>
      <use x="102.587890625" xlink:href="#BitstreamVeraSans-Roman-68"/>
      <use x="165.966796875" xlink:href="#BitstreamVeraSans-Roman-75"/>
     </g>
    </g>
    <g id="line2d_57">
     <path d="M 84 237.276563 
L 98 237.276563 
" style="fill:none;stroke:#bbee91;stroke-linecap:square;"/>
    </g>
    <g id="line2d_58"/>
    <g id="text_26">
     <!-- pku -->
     <defs>
      <path d="M 9.078125 75.984375 
L 18.109375 75.984375 
L 18.109375 31.109375 
L 44.921875 54.6875 
L 56.390625 54.6875 
L 27.390625 29.109375 
L 57.625 0 
L 45.90625 0 
L 18.109375 26.703125 
L 18.109375 0 
L 9.078125 0 
z
" id="BitstreamVeraSans-Roman-6b"/>
     </defs>
     <g transform="translate(109.0 240.7765625)scale(0.1 -0.1)">
      <use xlink:href="#BitstreamVeraSans-Roman-70"/>
      <use x="63.4765625" xlink:href="#BitstreamVeraSans-Roman-6b"/>
      <use x="121.33984375" xlink:href="#BitstreamVeraSans-Roman-75"/>
     </g>
    </g>
    <g id="line2d_59">
     <path d="M 84 251.954687 
L 98 251.954687 
" style="fill:none;stroke:#e2d176;stroke-linecap:square;"/>
    </g>
    <g id="line2d_60"/>
    <g id="text_27">
     <!-- post -->
     <g transform="translate(109.0 255.4546875)scale(0.1 -0.1)">
      <use xlink:href="#BitstreamVeraSans-Roman-70"/>
      <use x="63.4765625" xlink:href="#BitstreamVeraSans-Roman-6f"/>
      <use x="124.658203125" xlink:href="#BitstreamVeraSans-Roman-73"/>
      <use x="176.7578125" xlink:href="#BitstreamVeraSans-Roman-74"/>
     </g>
    </g>
    <g id="line2d_61">
     <path d="M 84 266.632812 
L 98 266.632812 
" style="fill:none;stroke:#ffa95b;stroke-linecap:square;"/>
    </g>
    <g id="line2d_62"/>
    <g id="text_28">
     <!-- rac -->
     <g transform="translate(109.0 270.1328125)scale(0.1 -0.1)">
      <use xlink:href="#BitstreamVeraSans-Roman-72"/>
      <use x="41.11328125" xlink:href="#BitstreamVeraSans-Roman-61"/>
      <use x="102.392578125" xlink:href="#BitstreamVeraSans-Roman-63"/>
     </g>
    </g>
    <g id="line2d_63">
     <path d="M 84 281.310937 
L 98 281.310937 
" style="fill:none;stroke:#ff763d;stroke-linecap:square;"/>
    </g>
    <g id="line2d_64"/>
    <g id="text_29">
     <!-- sjtu -->
     <defs>
      <path d="M 9.421875 54.6875 
L 18.40625 54.6875 
L 18.40625 -0.984375 
Q 18.40625 -11.421875 14.421875 -16.109375 
Q 10.453125 -20.796875 1.609375 -20.796875 
L -1.8125 -20.796875 
L -1.8125 -13.1875 
L 0.59375 -13.1875 
Q 5.71875 -13.1875 7.5625 -10.8125 
Q 9.421875 -8.453125 9.421875 -0.984375 
z
M 9.421875 75.984375 
L 18.40625 75.984375 
L 18.40625 64.59375 
L 9.421875 64.59375 
z
" id="BitstreamVeraSans-Roman-6a"/>
     </defs>
     <g transform="translate(109.0 284.8109375)scale(0.1 -0.1)">
      <use xlink:href="#BitstreamVeraSans-Roman-73"/>
      <use x="52.099609375" xlink:href="#BitstreamVeraSans-Roman-6a"/>
      <use x="79.8828125" xlink:href="#BitstreamVeraSans-Roman-74"/>
      <use x="119.091796875" xlink:href="#BitstreamVeraSans-Roman-75"/>
     </g>
    </g>
    <g id="line2d_65">
     <path d="M 84 295.989062 
L 98 295.989062 
" style="fill:none;stroke:#ff3b1e;stroke-linecap:square;"/>
    </g>
    <g id="line2d_66"/>
    <g id="text_30">
     <!-- ufc -->
     <g transform="translate(109.0 299.4890625)scale(0.1 -0.1)">
      <use xlink:href="#BitstreamVeraSans-Roman-75"/>
      <use x="63.37890625" xlink:href="#BitstreamVeraSans-Roman-66"/>
      <use x="98.583984375" xlink:href="#BitstreamVeraSans-Roman-63"/>
     </g>
    </g>
    <g id="line2d_67">
     <path d="M 84 310.667187 
L 98 310.667187 
" style="fill:none;stroke:#ff0000;stroke-linecap:square;"/>
    </g>
    <g id="line2d_68"/>
    <g id="text_31">
     <!-- umc -->
     <g transform="translate(109.0 314.1671875)scale(0.1 -0.1)">
      <use xlink:href="#BitstreamVeraSans-Roman-75"/>
      <use x="63.37890625" xlink:href="#BitstreamVeraSans-Roman-6d"/>
      <use x="160.791015625" xlink:href="#BitstreamVeraSans-Roman-63"/>
     </g>
    </g>
   </g>
  </g>
 </g>
 <defs>
  <clipPath id="pf73b4f8c3d">
   <rect height="345.6" width="446.4" x="72.0" y="43.2"/>
  </clipPath>
 </defs>
</svg>
