<?xml version="1.0" encoding="utf-8" standalone="no"?>
<!DOCTYPE svg PUBLIC "-//W3C//DTD SVG 1.1//EN"
  "http://www.w3.org/Graphics/SVG/1.1/DTD/svg11.dtd">
<!-- Created with matplotlib (http://matplotlib.org/) -->
<svg height="432pt" version="1.1" viewBox="0 0 576 432" width="576pt" xmlns="http://www.w3.org/2000/svg" xmlns:xlink="http://www.w3.org/1999/xlink">
 <defs>
  <style type="text/css">
*{stroke-linecap:butt;stroke-linejoin:round;stroke-miterlimit:100000;}
  </style>
 </defs>
 <g id="figure_1">
  <g id="patch_1">
   <path d="M 0 432 
L 576 432 
L 576 0 
L 0 0 
z
" style="fill:#ffffff;"/>
  </g>
  <g id="axes_1">
   <g id="patch_2">
    <path d="M 72 388.8 
L 518.4 388.8 
L 518.4 43.2 
L 72 43.2 
z
" style="fill:#ffffff;"/>
   </g>
   <g id="line2d_1">
    <path clip-path="url(#pf97c74d0c9)" d="M 79.44 255.456 
L 86.88 171.936 
L 94.32 126.72 
L 101.76 100.224 
L 109.2 87.84 
L 116.64 78.336 
L 124.08 72.576 
L 131.52 69.696 
L 138.96 66.24 
L 146.4 64.8 
L 153.84 64.512 
L 161.28 64.224 
L 168.72 63.936 
L 176.16 63.936 
L 183.6 63.648 
L 191.04 63.648 
L 198.48 63.36 
L 205.92 63.36 
L 213.36 63.36 
L 220.8 63.36 
L 228.24 63.36 
L 235.68 63.36 
L 243.12 63.36 
L 250.56 63.36 
L 258 63.36 
L 265.44 63.36 
L 272.88 63.36 
L 280.32 63.36 
L 287.76 63.36 
L 295.2 63.36 
L 302.64 63.36 
L 310.08 63.36 
L 317.52 63.36 
L 324.96 63.36 
L 332.4 63.36 
L 339.84 63.36 
L 347.28 63.36 
L 354.72 63.36 
L 362.16 63.36 
L 369.6 63.36 
L 377.04 63.36 
L 384.48 63.36 
L 391.92 63.36 
L 399.36 63.36 
L 406.8 63.36 
L 414.24 63.36 
L 421.68 63.36 
L 429.12 63.36 
L 436.56 63.36 
L 444 63.36 
L 451.44 63.36 
L 458.88 63.36 
L 466.32 63.36 
L 473.76 63.36 
L 481.2 63.36 
L 488.64 63.36 
L 496.08 63.36 
L 503.52 63.36 
L 510.96 63.36 
L 518.4 63.36 
" style="fill:none;stroke:#8000ff;stroke-linecap:square;"/>
   </g>
   <g id="line2d_2">
    <path clip-path="url(#pf97c74d0c9)" d="M 79.44 311.904 
L 86.88 264.384 
L 94.32 234.432 
L 101.76 212.256 
L 109.2 199.296 
L 116.64 189.216 
L 124.08 183.456 
L 131.52 180 
L 138.96 177.12 
L 146.4 175.104 
L 153.84 173.088 
L 161.28 172.224 
L 168.72 171.648 
L 176.16 171.072 
L 183.6 169.92 
L 191.04 169.344 
L 198.48 168.768 
L 205.92 168.768 
L 213.36 168.192 
L 220.8 168.192 
L 228.24 167.904 
L 235.68 167.904 
L 243.12 167.904 
L 250.56 167.904 
L 258 167.04 
L 265.44 166.752 
L 272.88 166.752 
L 280.32 166.464 
L 287.76 166.464 
L 295.2 166.464 
L 302.64 166.464 
L 310.08 166.464 
L 317.52 166.464 
L 324.96 166.464 
L 332.4 166.464 
L 339.84 166.464 
L 347.28 166.464 
L 354.72 166.464 
L 362.16 166.464 
L 369.6 166.464 
L 377.04 166.464 
L 384.48 166.464 
L 391.92 166.464 
L 399.36 166.464 
L 406.8 166.464 
L 414.24 166.464 
L 421.68 166.464 
L 429.12 166.464 
L 436.56 166.464 
L 444 166.464 
L 451.44 166.464 
L 458.88 166.464 
L 466.32 166.464 
L 473.76 166.464 
L 481.2 166.464 
L 488.64 166.464 
L 496.08 166.464 
L 503.52 166.464 
L 510.96 166.464 
L 518.4 166.464 
" style="fill:none;stroke:#5c38fd;stroke-linecap:square;"/>
   </g>
   <g id="line2d_3">
    <path clip-path="url(#pf97c74d0c9)" d="M 79.44 256.32 
L 86.88 215.136 
L 94.32 205.344 
L 101.76 202.752 
L 109.2 202.176 
L 116.64 202.176 
L 124.08 202.176 
L 131.52 202.176 
L 138.96 202.176 
L 146.4 202.176 
L 153.84 202.176 
L 161.28 202.176 
L 168.72 202.176 
L 176.16 202.176 
L 183.6 202.176 
L 191.04 202.176 
L 198.48 202.176 
L 205.92 202.176 
L 213.36 202.176 
L 220.8 202.176 
L 228.24 202.176 
L 235.68 202.176 
L 243.12 202.176 
L 250.56 202.176 
L 258 202.176 
L 265.44 202.176 
L 272.88 202.176 
L 280.32 202.176 
L 287.76 202.176 
L 295.2 202.176 
L 302.64 202.176 
L 310.08 202.176 
L 317.52 202.176 
L 324.96 202.176 
L 332.4 202.176 
L 339.84 202.176 
L 347.28 202.176 
L 354.72 202.176 
L 362.16 202.176 
L 369.6 202.176 
L 377.04 202.176 
L 384.48 202.176 
L 391.92 202.176 
L 399.36 202.176 
L 406.8 202.176 
L 414.24 202.176 
L 421.68 202.176 
L 429.12 202.176 
L 436.56 202.176 
L 444 202.176 
L 451.44 202.176 
L 458.88 202.176 
L 466.32 202.176 
L 473.76 202.176 
L 481.2 202.176 
L 488.64 202.176 
L 496.08 202.176 
L 503.52 202.176 
L 510.96 202.176 
L 518.4 202.176 
" style="fill:none;stroke:#386df9;stroke-linecap:square;"/>
   </g>
   <g id="line2d_4">
    <path clip-path="url(#pf97c74d0c9)" d="M 79.44 376.992 
L 86.88 373.824 
L 94.32 373.824 
L 101.76 373.536 
L 109.2 373.536 
L 116.64 373.536 
L 124.08 373.536 
L 131.52 373.536 
L 138.96 373.536 
L 146.4 373.536 
L 153.84 373.536 
L 161.28 373.536 
L 168.72 373.536 
L 176.16 373.536 
L 183.6 373.536 
L 191.04 373.536 
L 198.48 373.536 
L 205.92 373.536 
L 213.36 373.536 
L 220.8 373.536 
L 228.24 373.536 
L 235.68 373.536 
L 243.12 373.536 
L 250.56 373.536 
L 258 373.536 
L 265.44 373.536 
L 272.88 373.536 
L 280.32 373.536 
L 287.76 373.536 
L 295.2 373.536 
L 302.64 373.536 
L 310.08 373.536 
L 317.52 373.536 
L 324.96 373.536 
L 332.4 373.536 
L 339.84 373.536 
L 347.28 373.536 
L 354.72 373.536 
L 362.16 373.536 
L 369.6 373.536 
L 377.04 373.536 
L 384.48 373.536 
L 391.92 373.536 
L 399.36 373.536 
L 406.8 373.536 
L 414.24 373.536 
L 421.68 373.536 
L 429.12 373.536 
L 436.56 373.536 
L 444 373.536 
L 451.44 373.536 
L 458.88 373.536 
L 466.32 373.536 
L 473.76 373.536 
L 481.2 373.536 
L 488.64 373.536 
L 496.08 373.536 
L 503.52 373.536 
L 510.96 373.536 
L 518.4 373.536 
" style="fill:none;stroke:#149df1;stroke-linecap:square;"/>
   </g>
   <g id="line2d_5">
    <path clip-path="url(#pf97c74d0c9)" d="M 79.44 334.08 
L 86.88 329.76 
L 94.32 329.472 
L 101.76 329.472 
L 109.2 329.472 
L 116.64 329.472 
L 124.08 329.472 
L 131.52 329.472 
L 138.96 329.472 
L 146.4 329.472 
L 153.84 329.472 
L 161.28 329.472 
L 168.72 329.472 
L 176.16 329.472 
L 183.6 329.472 
L 191.04 329.472 
L 198.48 329.472 
L 205.92 329.472 
L 213.36 329.472 
L 220.8 329.472 
L 228.24 329.472 
L 235.68 329.472 
L 243.12 329.472 
L 250.56 329.472 
L 258 329.472 
L 265.44 329.472 
L 272.88 329.472 
L 280.32 329.472 
L 287.76 329.472 
L 295.2 329.472 
L 302.64 329.472 
L 310.08 329.472 
L 317.52 329.472 
L 324.96 329.472 
L 332.4 329.472 
L 339.84 329.472 
L 347.28 329.472 
L 354.72 329.472 
L 362.16 329.472 
L 369.6 329.472 
L 377.04 329.472 
L 384.48 329.472 
L 391.92 329.472 
L 399.36 329.472 
L 406.8 329.472 
L 414.24 329.472 
L 421.68 329.472 
L 429.12 329.472 
L 436.56 329.472 
L 444 329.472 
L 451.44 329.472 
L 458.88 329.472 
L 466.32 329.472 
L 473.76 329.472 
L 481.2 329.472 
L 488.64 329.472 
L 496.08 329.472 
L 503.52 329.472 
L 510.96 329.472 
L 518.4 329.472 
" style="fill:none;stroke:#12c8e6;stroke-linecap:square;"/>
   </g>
   <g id="line2d_6">
    <path clip-path="url(#pf97c74d0c9)" d="M 79.44 259.776 
L 86.88 219.744 
L 94.32 212.544 
L 101.76 210.528 
L 109.2 209.952 
L 116.64 209.952 
L 124.08 209.952 
L 131.52 209.664 
L 138.96 209.664 
L 146.4 209.664 
L 153.84 209.664 
L 161.28 209.664 
L 168.72 209.376 
L 176.16 209.376 
L 183.6 209.088 
L 191.04 209.088 
L 198.48 209.088 
L 205.92 209.088 
L 213.36 209.088 
L 220.8 209.088 
L 228.24 209.088 
L 235.68 209.088 
L 243.12 209.088 
L 250.56 209.088 
L 258 208.8 
L 265.44 208.8 
L 272.88 208.8 
L 280.32 208.8 
L 287.76 208.8 
L 295.2 208.8 
L 302.64 208.8 
L 310.08 208.8 
L 317.52 208.8 
L 324.96 208.8 
L 332.4 208.8 
L 339.84 208.8 
L 347.28 208.8 
L 354.72 208.8 
L 362.16 208.8 
L 369.6 208.8 
L 377.04 208.8 
L 384.48 208.8 
L 391.92 208.8 
L 399.36 208.8 
L 406.8 208.8 
L 414.24 208.8 
L 421.68 208.8 
L 429.12 208.8 
L 436.56 208.8 
L 444 208.8 
L 451.44 208.8 
L 458.88 208.8 
L 466.32 208.8 
L 473.76 208.8 
L 481.2 208.8 
L 488.64 208.8 
L 496.08 208.8 
L 503.52 208.8 
L 510.96 208.8 
L 518.4 208.8 
" style="fill:none;stroke:#37e6d8;stroke-linecap:square;"/>
   </g>
   <g id="line2d_7">
    <path clip-path="url(#pf97c74d0c9)" d="M 79.44 313.632 
L 86.88 298.368 
L 94.32 294.048 
L 101.76 294.048 
L 109.2 294.048 
L 116.64 294.048 
L 124.08 294.048 
L 131.52 294.048 
L 138.96 294.048 
L 146.4 294.048 
L 153.84 294.048 
L 161.28 294.048 
L 168.72 294.048 
L 176.16 294.048 
L 183.6 294.048 
L 191.04 294.048 
L 198.48 294.048 
L 205.92 294.048 
L 213.36 294.048 
L 220.8 294.048 
L 228.24 294.048 
L 235.68 294.048 
L 243.12 294.048 
L 250.56 294.048 
L 258 294.048 
L 265.44 294.048 
L 272.88 294.048 
L 280.32 294.048 
L 287.76 294.048 
L 295.2 294.048 
L 302.64 294.048 
L 310.08 294.048 
L 317.52 294.048 
L 324.96 294.048 
L 332.4 294.048 
L 339.84 294.048 
L 347.28 294.048 
L 354.72 294.048 
L 362.16 294.048 
L 369.6 294.048 
L 377.04 294.048 
L 384.48 294.048 
L 391.92 294.048 
L 399.36 294.048 
L 406.8 294.048 
L 414.24 294.048 
L 421.68 294.048 
L 429.12 294.048 
L 436.56 294.048 
L 444 294.048 
L 451.44 294.048 
L 458.88 294.048 
L 466.32 294.048 
L 473.76 294.048 
L 481.2 294.048 
L 488.64 294.048 
L 496.08 294.048 
L 503.52 294.048 
L 510.96 294.048 
L 518.4 294.048 
" style="fill:none;stroke:#5af8c8;stroke-linecap:square;"/>
   </g>
   <g id="line2d_8">
    <path clip-path="url(#pf97c74d0c9)" d="M 79.44 259.2 
L 86.88 220.032 
L 94.32 208.8 
L 101.76 207.072 
L 109.2 206.784 
L 116.64 206.784 
L 124.08 206.784 
L 131.52 206.784 
L 138.96 206.784 
L 146.4 206.784 
L 153.84 206.784 
L 161.28 206.784 
L 168.72 206.784 
L 176.16 206.784 
L 183.6 206.784 
L 191.04 206.784 
L 198.48 206.784 
L 205.92 206.784 
L 213.36 206.784 
L 220.8 206.784 
L 228.24 206.784 
L 235.68 206.784 
L 243.12 206.784 
L 250.56 206.784 
L 258 206.784 
L 265.44 206.784 
L 272.88 206.784 
L 280.32 206.784 
L 287.76 206.784 
L 295.2 206.784 
L 302.64 206.784 
L 310.08 206.784 
L 317.52 206.784 
L 324.96 206.784 
L 332.4 206.784 
L 339.84 206.784 
L 347.28 206.784 
L 354.72 206.784 
L 362.16 206.784 
L 369.6 206.784 
L 377.04 206.784 
L 384.48 206.784 
L 391.92 206.784 
L 399.36 206.784 
L 406.8 206.784 
L 414.24 206.784 
L 421.68 206.784 
L 429.12 206.784 
L 436.56 206.784 
L 444 206.784 
L 451.44 206.784 
L 458.88 206.784 
L 466.32 206.784 
L 473.76 206.784 
L 481.2 206.784 
L 488.64 206.784 
L 496.08 206.784 
L 503.52 206.784 
L 510.96 206.784 
L 518.4 206.784 
" style="fill:none;stroke:#80ffb4;stroke-linecap:square;"/>
   </g>
   <g id="line2d_9">
    <path clip-path="url(#pf97c74d0c9)" d="M 79.44 324.864 
L 86.88 308.736 
L 94.32 305.568 
L 101.76 304.128 
L 109.2 304.128 
L 116.64 304.128 
L 124.08 304.128 
L 131.52 304.128 
L 138.96 304.128 
L 146.4 304.128 
L 153.84 304.128 
L 161.28 304.128 
L 168.72 304.128 
L 176.16 304.128 
L 183.6 304.128 
L 191.04 304.128 
L 198.48 304.128 
L 205.92 304.128 
L 213.36 304.128 
L 220.8 304.128 
L 228.24 304.128 
L 235.68 304.128 
L 243.12 304.128 
L 250.56 304.128 
L 258 304.128 
L 265.44 304.128 
L 272.88 304.128 
L 280.32 304.128 
L 287.76 304.128 
L 295.2 304.128 
L 302.64 304.128 
L 310.08 304.128 
L 317.52 304.128 
L 324.96 304.128 
L 332.4 304.128 
L 339.84 304.128 
L 347.28 304.128 
L 354.72 304.128 
L 362.16 304.128 
L 369.6 304.128 
L 377.04 304.128 
L 384.48 304.128 
L 391.92 304.128 
L 399.36 304.128 
L 406.8 304.128 
L 414.24 304.128 
L 421.68 304.128 
L 429.12 304.128 
L 436.56 304.128 
L 444 304.128 
L 451.44 304.128 
L 458.88 304.128 
L 466.32 304.128 
L 473.76 304.128 
L 481.2 304.128 
L 488.64 304.128 
L 496.08 304.128 
L 503.52 304.128 
L 510.96 304.128 
L 518.4 304.128 
" style="fill:none;stroke:#a4f89f;stroke-linecap:square;"/>
   </g>
   <g id="line2d_10">
    <path clip-path="url(#pf97c74d0c9)" d="M 79.44 336.672 
L 86.88 325.728 
L 94.32 323.424 
L 101.76 323.136 
L 109.2 323.136 
L 116.64 323.136 
L 124.08 323.136 
L 131.52 323.136 
L 138.96 323.136 
L 146.4 323.136 
L 153.84 323.136 
L 161.28 323.136 
L 168.72 323.136 
L 176.16 323.136 
L 183.6 323.136 
L 191.04 323.136 
L 198.48 323.136 
L 205.92 323.136 
L 213.36 323.136 
L 220.8 323.136 
L 228.24 323.136 
L 235.68 323.136 
L 243.12 323.136 
L 250.56 323.136 
L 258 323.136 
L 265.44 323.136 
L 272.88 323.136 
L 280.32 323.136 
L 287.76 323.136 
L 295.2 323.136 
L 302.64 323.136 
L 310.08 323.136 
L 317.52 323.136 
L 324.96 323.136 
L 332.4 323.136 
L 339.84 323.136 
L 347.28 323.136 
L 354.72 323.136 
L 362.16 323.136 
L 369.6 323.136 
L 377.04 323.136 
L 384.48 323.136 
L 391.92 323.136 
L 399.36 323.136 
L 406.8 323.136 
L 414.24 323.136 
L 421.68 323.136 
L 429.12 323.136 
L 436.56 323.136 
L 444 323.136 
L 451.44 323.136 
L 458.88 323.136 
L 466.32 323.136 
L 473.76 323.136 
L 481.2 323.136 
L 488.64 323.136 
L 496.08 323.136 
L 503.52 323.136 
L 510.96 323.136 
L 518.4 323.136 
" style="fill:none;stroke:#c8e688;stroke-linecap:square;"/>
   </g>
   <g id="line2d_11">
    <path clip-path="url(#pf97c74d0c9)" d="M 79.44 386.784 
L 86.88 386.784 
L 94.32 386.784 
L 101.76 386.784 
L 109.2 386.784 
L 116.64 386.784 
L 124.08 386.784 
L 131.52 386.784 
L 138.96 386.784 
L 146.4 386.784 
L 153.84 386.784 
L 161.28 386.784 
L 168.72 386.784 
L 176.16 386.784 
L 183.6 386.784 
L 191.04 386.784 
L 198.48 386.784 
L 205.92 386.784 
L 213.36 386.784 
L 220.8 386.784 
L 228.24 386.784 
L 235.68 386.784 
L 243.12 386.784 
L 250.56 386.784 
L 258 386.784 
L 265.44 386.784 
L 272.88 386.784 
L 280.32 386.784 
L 287.76 386.784 
L 295.2 386.784 
L 302.64 386.784 
L 310.08 386.784 
L 317.52 386.784 
L 324.96 386.784 
L 332.4 386.784 
L 339.84 386.784 
L 347.28 386.784 
L 354.72 386.784 
L 362.16 386.784 
L 369.6 386.784 
L 377.04 386.784 
L 384.48 386.784 
L 391.92 386.784 
L 399.36 386.784 
L 406.8 386.784 
L 414.24 386.784 
L 421.68 386.784 
L 429.12 386.784 
L 436.56 386.784 
L 444 386.784 
L 451.44 386.784 
L 458.88 386.784 
L 466.32 386.784 
L 473.76 386.784 
L 481.2 386.784 
L 488.64 386.784 
L 496.08 386.784 
L 503.52 386.784 
L 510.96 386.784 
L 518.4 386.784 
" style="fill:none;stroke:#ecc86f;stroke-linecap:square;"/>
   </g>
   <g id="line2d_12">
    <path clip-path="url(#pf97c74d0c9)" d="M 79.44 278.784 
L 86.88 235.008 
L 94.32 226.08 
L 101.76 223.2 
L 109.2 222.624 
L 116.64 222.336 
L 124.08 222.048 
L 131.52 222.048 
L 138.96 222.048 
L 146.4 222.048 
L 153.84 222.048 
L 161.28 222.048 
L 168.72 222.048 
L 176.16 222.048 
L 183.6 222.048 
L 191.04 222.048 
L 198.48 222.048 
L 205.92 222.048 
L 213.36 222.048 
L 220.8 222.048 
L 228.24 222.048 
L 235.68 222.048 
L 243.12 222.048 
L 250.56 222.048 
L 258 222.048 
L 265.44 222.048 
L 272.88 222.048 
L 280.32 222.048 
L 287.76 222.048 
L 295.2 222.048 
L 302.64 222.048 
L 310.08 222.048 
L 317.52 222.048 
L 324.96 222.048 
L 332.4 222.048 
L 339.84 222.048 
L 347.28 222.048 
L 354.72 222.048 
L 362.16 222.048 
L 369.6 222.048 
L 377.04 222.048 
L 384.48 222.048 
L 391.92 222.048 
L 399.36 222.048 
L 406.8 222.048 
L 414.24 222.048 
L 421.68 222.048 
L 429.12 222.048 
L 436.56 222.048 
L 444 222.048 
L 451.44 222.048 
L 458.88 222.048 
L 466.32 222.048 
L 473.76 222.048 
L 481.2 222.048 
L 488.64 222.048 
L 496.08 222.048 
L 503.52 222.048 
L 510.96 222.048 
L 518.4 222.048 
" style="fill:none;stroke:#ff9d53;stroke-linecap:square;"/>
   </g>
   <g id="line2d_13">
    <path clip-path="url(#pf97c74d0c9)" d="M 79.44 223.776 
L 86.88 148.32 
L 94.32 124.416 
L 101.76 117.792 
L 109.2 116.64 
L 116.64 115.776 
L 124.08 115.488 
L 131.52 115.488 
L 138.96 115.488 
L 146.4 115.488 
L 153.84 115.488 
L 161.28 115.488 
L 168.72 115.488 
L 176.16 115.488 
L 183.6 115.488 
L 191.04 115.488 
L 198.48 115.488 
L 205.92 115.488 
L 213.36 115.488 
L 220.8 115.488 
L 228.24 115.488 
L 235.68 115.488 
L 243.12 115.488 
L 250.56 115.488 
L 258 115.488 
L 265.44 115.488 
L 272.88 115.488 
L 280.32 115.488 
L 287.76 115.488 
L 295.2 115.488 
L 302.64 115.488 
L 310.08 115.488 
L 317.52 115.488 
L 324.96 115.488 
L 332.4 115.488 
L 339.84 115.488 
L 347.28 115.488 
L 354.72 115.488 
L 362.16 115.488 
L 369.6 115.488 
L 377.04 115.488 
L 384.48 115.488 
L 391.92 115.488 
L 399.36 115.488 
L 406.8 115.488 
L 414.24 115.488 
L 421.68 115.488 
L 429.12 115.488 
L 436.56 115.488 
L 444 115.488 
L 451.44 115.488 
L 458.88 115.488 
L 466.32 115.488 
L 473.76 115.488 
L 481.2 115.488 
L 488.64 115.488 
L 496.08 115.488 
L 503.52 115.488 
L 510.96 115.488 
L 518.4 115.488 
" style="fill:none;stroke:#ff6d38;stroke-linecap:square;"/>
   </g>
   <g id="line2d_14">
    <path clip-path="url(#pf97c74d0c9)" d="M 79.44 298.656 
L 86.88 266.4 
L 94.32 252.288 
L 101.76 247.392 
L 109.2 244.224 
L 116.64 243.648 
L 124.08 243.36 
L 131.52 243.36 
L 138.96 243.36 
L 146.4 243.36 
L 153.84 243.36 
L 161.28 243.36 
L 168.72 243.36 
L 176.16 243.36 
L 183.6 243.36 
L 191.04 243.36 
L 198.48 243.36 
L 205.92 243.36 
L 213.36 243.36 
L 220.8 243.36 
L 228.24 243.36 
L 235.68 243.36 
L 243.12 243.36 
L 250.56 243.36 
L 258 243.36 
L 265.44 243.36 
L 272.88 243.36 
L 280.32 243.36 
L 287.76 243.36 
L 295.2 243.36 
L 302.64 243.36 
L 310.08 243.36 
L 317.52 243.36 
L 324.96 243.36 
L 332.4 243.36 
L 339.84 243.36 
L 347.28 243.36 
L 354.72 243.36 
L 362.16 243.36 
L 369.6 243.36 
L 377.04 243.36 
L 384.48 243.36 
L 391.92 243.36 
L 399.36 243.36 
L 406.8 243.36 
L 414.24 243.36 
L 421.68 243.36 
L 429.12 243.36 
L 436.56 243.36 
L 444 243.36 
L 451.44 243.36 
L 458.88 243.36 
L 466.32 243.36 
L 473.76 243.36 
L 481.2 243.36 
L 488.64 243.36 
L 496.08 243.36 
L 503.52 243.36 
L 510.96 243.36 
L 518.4 243.36 
" style="fill:none;stroke:#ff381c;stroke-linecap:square;"/>
   </g>
   <g id="line2d_15">
    <path clip-path="url(#pf97c74d0c9)" d="M 79.44 309.6 
L 86.88 289.44 
L 94.32 286.56 
L 101.76 284.256 
L 109.2 283.968 
L 116.64 283.968 
L 124.08 283.968 
L 131.52 283.968 
L 138.96 283.968 
L 146.4 283.968 
L 153.84 283.968 
L 161.28 283.968 
L 168.72 283.968 
L 176.16 283.968 
L 183.6 283.968 
L 191.04 283.968 
L 198.48 283.968 
L 205.92 283.968 
L 213.36 283.968 
L 220.8 283.968 
L 228.24 283.968 
L 235.68 283.968 
L 243.12 283.968 
L 250.56 283.968 
L 258 283.968 
L 265.44 283.968 
L 272.88 283.968 
L 280.32 283.968 
L 287.76 283.968 
L 295.2 283.968 
L 302.64 283.968 
L 310.08 283.968 
L 317.52 283.968 
L 324.96 283.968 
L 332.4 283.968 
L 339.84 283.968 
L 347.28 283.968 
L 354.72 283.968 
L 362.16 283.968 
L 369.6 283.968 
L 377.04 283.968 
L 384.48 283.968 
L 391.92 283.968 
L 399.36 283.968 
L 406.8 283.968 
L 414.24 283.968 
L 421.68 283.968 
L 429.12 283.968 
L 436.56 283.968 
L 444 283.968 
L 451.44 283.968 
L 458.88 283.968 
L 466.32 283.968 
L 473.76 283.968 
L 481.2 283.968 
L 488.64 283.968 
L 496.08 283.968 
L 503.52 283.968 
L 510.96 283.968 
L 518.4 283.968 
" style="fill:none;stroke:#ff0000;stroke-linecap:square;"/>
   </g>
   <g id="patch_3">
    <path d="M 72 388.8 
L 518.4 388.8 
" style="fill:none;stroke:#000000;stroke-linecap:square;stroke-linejoin:miter;"/>
   </g>
   <g id="patch_4">
    <path d="M 72 388.8 
L 72 43.2 
" style="fill:none;stroke:#000000;stroke-linecap:square;stroke-linejoin:miter;"/>
   </g>
   <g id="patch_5">
    <path d="M 72 43.2 
L 518.4 43.2 
" style="fill:none;stroke:#000000;stroke-linecap:square;stroke-linejoin:miter;"/>
   </g>
   <g id="patch_6">
    <path d="M 518.4 388.8 
L 518.4 43.2 
" style="fill:none;stroke:#000000;stroke-linecap:square;stroke-linejoin:miter;"/>
   </g>
   <g id="matplotlib.axis_1">
    <g id="xtick_1">
     <g id="line2d_16">
      <defs>
       <path d="M 0 0 
L 0 -4 
" id="m69b0981be4" style="stroke:#000000;stroke-width:0.5;"/>
      </defs>
      <g>
       <use style="stroke:#000000;stroke-width:0.5;" x="72.0" xlink:href="#m69b0981be4" y="388.8"/>
      </g>
     </g>
     <g id="line2d_17">
      <defs>
       <path d="M 0 0 
L 0 4 
" id="m0134c0587a" style="stroke:#000000;stroke-width:0.5;"/>
      </defs>
      <g>
       <use style="stroke:#000000;stroke-width:0.5;" x="72.0" xlink:href="#m0134c0587a" y="43.2"/>
      </g>
     </g>
     <g id="text_1">
      <!-- 0 -->
      <defs>
       <path d="M 31.78125 66.40625 
Q 24.171875 66.40625 20.328125 58.90625 
Q 16.5 51.421875 16.5 36.375 
Q 16.5 21.390625 20.328125 13.890625 
Q 24.171875 6.390625 31.78125 6.390625 
Q 39.453125 6.390625 43.28125 13.890625 
Q 47.125 21.390625 47.125 36.375 
Q 47.125 51.421875 43.28125 58.90625 
Q 39.453125 66.40625 31.78125 66.40625 
M 31.78125 74.21875 
Q 44.046875 74.21875 50.515625 64.515625 
Q 56.984375 54.828125 56.984375 36.375 
Q 56.984375 17.96875 50.515625 8.265625 
Q 44.046875 -1.421875 31.78125 -1.421875 
Q 19.53125 -1.421875 13.0625 8.265625 
Q 6.59375 17.96875 6.59375 36.375 
Q 6.59375 54.828125 13.0625 64.515625 
Q 19.53125 74.21875 31.78125 74.21875 
" id="BitstreamVeraSans-Roman-30"/>
      </defs>
      <g transform="translate(68.1825 401.918125)scale(0.12 -0.12)">
       <use xlink:href="#BitstreamVeraSans-Roman-30"/>
      </g>
     </g>
    </g>
    <g id="xtick_2">
     <g id="line2d_18">
      <g>
       <use style="stroke:#000000;stroke-width:0.5;" x="146.4" xlink:href="#m69b0981be4" y="388.8"/>
      </g>
     </g>
     <g id="line2d_19">
      <g>
       <use style="stroke:#000000;stroke-width:0.5;" x="146.4" xlink:href="#m0134c0587a" y="43.2"/>
      </g>
     </g>
     <g id="text_2">
      <!-- 10 -->
      <defs>
       <path d="M 12.40625 8.296875 
L 28.515625 8.296875 
L 28.515625 63.921875 
L 10.984375 60.40625 
L 10.984375 69.390625 
L 28.421875 72.90625 
L 38.28125 72.90625 
L 38.28125 8.296875 
L 54.390625 8.296875 
L 54.390625 0 
L 12.40625 0 
z
" id="BitstreamVeraSans-Roman-31"/>
      </defs>
      <g transform="translate(138.765 401.918125)scale(0.12 -0.12)">
       <use xlink:href="#BitstreamVeraSans-Roman-31"/>
       <use x="63.623046875" xlink:href="#BitstreamVeraSans-Roman-30"/>
      </g>
     </g>
    </g>
    <g id="xtick_3">
     <g id="line2d_20">
      <g>
       <use style="stroke:#000000;stroke-width:0.5;" x="220.8" xlink:href="#m69b0981be4" y="388.8"/>
      </g>
     </g>
     <g id="line2d_21">
      <g>
       <use style="stroke:#000000;stroke-width:0.5;" x="220.8" xlink:href="#m0134c0587a" y="43.2"/>
      </g>
     </g>
     <g id="text_3">
      <!-- 20 -->
      <defs>
       <path d="M 19.1875 8.296875 
L 53.609375 8.296875 
L 53.609375 0 
L 7.328125 0 
L 7.328125 8.296875 
Q 12.9375 14.109375 22.625 23.890625 
Q 32.328125 33.6875 34.8125 36.53125 
Q 39.546875 41.84375 41.421875 45.53125 
Q 43.3125 49.21875 43.3125 52.78125 
Q 43.3125 58.59375 39.234375 62.25 
Q 35.15625 65.921875 28.609375 65.921875 
Q 23.96875 65.921875 18.8125 64.3125 
Q 13.671875 62.703125 7.8125 59.421875 
L 7.8125 69.390625 
Q 13.765625 71.78125 18.9375 73 
Q 24.125 74.21875 28.421875 74.21875 
Q 39.75 74.21875 46.484375 68.546875 
Q 53.21875 62.890625 53.21875 53.421875 
Q 53.21875 48.921875 51.53125 44.890625 
Q 49.859375 40.875 45.40625 35.40625 
Q 44.1875 33.984375 37.640625 27.21875 
Q 31.109375 20.453125 19.1875 8.296875 
" id="BitstreamVeraSans-Roman-32"/>
      </defs>
      <g transform="translate(213.165 401.918125)scale(0.12 -0.12)">
       <use xlink:href="#BitstreamVeraSans-Roman-32"/>
       <use x="63.623046875" xlink:href="#BitstreamVeraSans-Roman-30"/>
      </g>
     </g>
    </g>
    <g id="xtick_4">
     <g id="line2d_22">
      <g>
       <use style="stroke:#000000;stroke-width:0.5;" x="295.2" xlink:href="#m69b0981be4" y="388.8"/>
      </g>
     </g>
     <g id="line2d_23">
      <g>
       <use style="stroke:#000000;stroke-width:0.5;" x="295.2" xlink:href="#m0134c0587a" y="43.2"/>
      </g>
     </g>
     <g id="text_4">
      <!-- 30 -->
      <defs>
       <path d="M 40.578125 39.3125 
Q 47.65625 37.796875 51.625 33 
Q 55.609375 28.21875 55.609375 21.1875 
Q 55.609375 10.40625 48.1875 4.484375 
Q 40.765625 -1.421875 27.09375 -1.421875 
Q 22.515625 -1.421875 17.65625 -0.515625 
Q 12.796875 0.390625 7.625 2.203125 
L 7.625 11.71875 
Q 11.71875 9.328125 16.59375 8.109375 
Q 21.484375 6.890625 26.8125 6.890625 
Q 36.078125 6.890625 40.9375 10.546875 
Q 45.796875 14.203125 45.796875 21.1875 
Q 45.796875 27.640625 41.28125 31.265625 
Q 36.765625 34.90625 28.71875 34.90625 
L 20.21875 34.90625 
L 20.21875 43.015625 
L 29.109375 43.015625 
Q 36.375 43.015625 40.234375 45.921875 
Q 44.09375 48.828125 44.09375 54.296875 
Q 44.09375 59.90625 40.109375 62.90625 
Q 36.140625 65.921875 28.71875 65.921875 
Q 24.65625 65.921875 20.015625 65.03125 
Q 15.375 64.15625 9.8125 62.3125 
L 9.8125 71.09375 
Q 15.4375 72.65625 20.34375 73.4375 
Q 25.25 74.21875 29.59375 74.21875 
Q 40.828125 74.21875 47.359375 69.109375 
Q 53.90625 64.015625 53.90625 55.328125 
Q 53.90625 49.265625 50.4375 45.09375 
Q 46.96875 40.921875 40.578125 39.3125 
" id="BitstreamVeraSans-Roman-33"/>
      </defs>
      <g transform="translate(287.565 401.918125)scale(0.12 -0.12)">
       <use xlink:href="#BitstreamVeraSans-Roman-33"/>
       <use x="63.623046875" xlink:href="#BitstreamVeraSans-Roman-30"/>
      </g>
     </g>
    </g>
    <g id="xtick_5">
     <g id="line2d_24">
      <g>
       <use style="stroke:#000000;stroke-width:0.5;" x="369.6" xlink:href="#m69b0981be4" y="388.8"/>
      </g>
     </g>
     <g id="line2d_25">
      <g>
       <use style="stroke:#000000;stroke-width:0.5;" x="369.6" xlink:href="#m0134c0587a" y="43.2"/>
      </g>
     </g>
     <g id="text_5">
      <!-- 40 -->
      <defs>
       <path d="M 37.796875 64.3125 
L 12.890625 25.390625 
L 37.796875 25.390625 
z
M 35.203125 72.90625 
L 47.609375 72.90625 
L 47.609375 25.390625 
L 58.015625 25.390625 
L 58.015625 17.1875 
L 47.609375 17.1875 
L 47.609375 0 
L 37.796875 0 
L 37.796875 17.1875 
L 4.890625 17.1875 
L 4.890625 26.703125 
z
" id="BitstreamVeraSans-Roman-34"/>
      </defs>
      <g transform="translate(361.965 401.918125)scale(0.12 -0.12)">
       <use xlink:href="#BitstreamVeraSans-Roman-34"/>
       <use x="63.623046875" xlink:href="#BitstreamVeraSans-Roman-30"/>
      </g>
     </g>
    </g>
    <g id="xtick_6">
     <g id="line2d_26">
      <g>
       <use style="stroke:#000000;stroke-width:0.5;" x="444.0" xlink:href="#m69b0981be4" y="388.8"/>
      </g>
     </g>
     <g id="line2d_27">
      <g>
       <use style="stroke:#000000;stroke-width:0.5;" x="444.0" xlink:href="#m0134c0587a" y="43.2"/>
      </g>
     </g>
     <g id="text_6">
      <!-- 50 -->
      <defs>
       <path d="M 10.796875 72.90625 
L 49.515625 72.90625 
L 49.515625 64.59375 
L 19.828125 64.59375 
L 19.828125 46.734375 
Q 21.96875 47.46875 24.109375 47.828125 
Q 26.265625 48.1875 28.421875 48.1875 
Q 40.625 48.1875 47.75 41.5 
Q 54.890625 34.8125 54.890625 23.390625 
Q 54.890625 11.625 47.5625 5.09375 
Q 40.234375 -1.421875 26.90625 -1.421875 
Q 22.3125 -1.421875 17.546875 -0.640625 
Q 12.796875 0.140625 7.71875 1.703125 
L 7.71875 11.625 
Q 12.109375 9.234375 16.796875 8.0625 
Q 21.484375 6.890625 26.703125 6.890625 
Q 35.15625 6.890625 40.078125 11.328125 
Q 45.015625 15.765625 45.015625 23.390625 
Q 45.015625 31 40.078125 35.4375 
Q 35.15625 39.890625 26.703125 39.890625 
Q 22.75 39.890625 18.8125 39.015625 
Q 14.890625 38.140625 10.796875 36.28125 
z
" id="BitstreamVeraSans-Roman-35"/>
      </defs>
      <g transform="translate(436.365 401.918125)scale(0.12 -0.12)">
       <use xlink:href="#BitstreamVeraSans-Roman-35"/>
       <use x="63.623046875" xlink:href="#BitstreamVeraSans-Roman-30"/>
      </g>
     </g>
    </g>
    <g id="xtick_7">
     <g id="line2d_28">
      <g>
       <use style="stroke:#000000;stroke-width:0.5;" x="518.4" xlink:href="#m69b0981be4" y="388.8"/>
      </g>
     </g>
     <g id="line2d_29">
      <g>
       <use style="stroke:#000000;stroke-width:0.5;" x="518.4" xlink:href="#m0134c0587a" y="43.2"/>
      </g>
     </g>
     <g id="text_7">
      <!-- 60 -->
      <defs>
       <path d="M 33.015625 40.375 
Q 26.375 40.375 22.484375 35.828125 
Q 18.609375 31.296875 18.609375 23.390625 
Q 18.609375 15.53125 22.484375 10.953125 
Q 26.375 6.390625 33.015625 6.390625 
Q 39.65625 6.390625 43.53125 10.953125 
Q 47.40625 15.53125 47.40625 23.390625 
Q 47.40625 31.296875 43.53125 35.828125 
Q 39.65625 40.375 33.015625 40.375 
M 52.59375 71.296875 
L 52.59375 62.3125 
Q 48.875 64.0625 45.09375 64.984375 
Q 41.3125 65.921875 37.59375 65.921875 
Q 27.828125 65.921875 22.671875 59.328125 
Q 17.53125 52.734375 16.796875 39.40625 
Q 19.671875 43.65625 24.015625 45.921875 
Q 28.375 48.1875 33.59375 48.1875 
Q 44.578125 48.1875 50.953125 41.515625 
Q 57.328125 34.859375 57.328125 23.390625 
Q 57.328125 12.15625 50.6875 5.359375 
Q 44.046875 -1.421875 33.015625 -1.421875 
Q 20.359375 -1.421875 13.671875 8.265625 
Q 6.984375 17.96875 6.984375 36.375 
Q 6.984375 53.65625 15.1875 63.9375 
Q 23.390625 74.21875 37.203125 74.21875 
Q 40.921875 74.21875 44.703125 73.484375 
Q 48.484375 72.75 52.59375 71.296875 
" id="BitstreamVeraSans-Roman-36"/>
      </defs>
      <g transform="translate(510.765 401.918125)scale(0.12 -0.12)">
       <use xlink:href="#BitstreamVeraSans-Roman-36"/>
       <use x="63.623046875" xlink:href="#BitstreamVeraSans-Roman-30"/>
      </g>
     </g>
    </g>
    <g id="text_8">
     <!-- number of words changed -->
     <defs>
      <path d="M 4.203125 54.6875 
L 13.1875 54.6875 
L 24.421875 12.015625 
L 35.59375 54.6875 
L 46.1875 54.6875 
L 57.421875 12.015625 
L 68.609375 54.6875 
L 77.59375 54.6875 
L 63.28125 0 
L 52.6875 0 
L 40.921875 44.828125 
L 29.109375 0 
L 18.5 0 
z
" id="BitstreamVeraSans-Roman-77"/>
      <path d="M 54.890625 33.015625 
L 54.890625 0 
L 45.90625 0 
L 45.90625 32.71875 
Q 45.90625 40.484375 42.875 44.328125 
Q 39.84375 48.1875 33.796875 48.1875 
Q 26.515625 48.1875 22.3125 43.546875 
Q 18.109375 38.921875 18.109375 30.90625 
L 18.109375 0 
L 9.078125 0 
L 9.078125 54.6875 
L 18.109375 54.6875 
L 18.109375 46.1875 
Q 21.34375 51.125 25.703125 53.5625 
Q 30.078125 56 35.796875 56 
Q 45.21875 56 50.046875 50.171875 
Q 54.890625 44.34375 54.890625 33.015625 
" id="BitstreamVeraSans-Roman-6e"/>
      <path d="M 45.40625 46.390625 
L 45.40625 75.984375 
L 54.390625 75.984375 
L 54.390625 0 
L 45.40625 0 
L 45.40625 8.203125 
Q 42.578125 3.328125 38.25 0.953125 
Q 33.9375 -1.421875 27.875 -1.421875 
Q 17.96875 -1.421875 11.734375 6.484375 
Q 5.515625 14.40625 5.515625 27.296875 
Q 5.515625 40.1875 11.734375 48.09375 
Q 17.96875 56 27.875 56 
Q 33.9375 56 38.25 53.625 
Q 42.578125 51.265625 45.40625 46.390625 
M 14.796875 27.296875 
Q 14.796875 17.390625 18.875 11.75 
Q 22.953125 6.109375 30.078125 6.109375 
Q 37.203125 6.109375 41.296875 11.75 
Q 45.40625 17.390625 45.40625 27.296875 
Q 45.40625 37.203125 41.296875 42.84375 
Q 37.203125 48.484375 30.078125 48.484375 
Q 22.953125 48.484375 18.875 42.84375 
Q 14.796875 37.203125 14.796875 27.296875 
" id="BitstreamVeraSans-Roman-64"/>
      <path d="M 45.40625 27.984375 
Q 45.40625 37.75 41.375 43.109375 
Q 37.359375 48.484375 30.078125 48.484375 
Q 22.859375 48.484375 18.828125 43.109375 
Q 14.796875 37.75 14.796875 27.984375 
Q 14.796875 18.265625 18.828125 12.890625 
Q 22.859375 7.515625 30.078125 7.515625 
Q 37.359375 7.515625 41.375 12.890625 
Q 45.40625 18.265625 45.40625 27.984375 
M 54.390625 6.78125 
Q 54.390625 -7.171875 48.1875 -13.984375 
Q 42 -20.796875 29.203125 -20.796875 
Q 24.46875 -20.796875 20.265625 -20.09375 
Q 16.0625 -19.390625 12.109375 -17.921875 
L 12.109375 -9.1875 
Q 16.0625 -11.328125 19.921875 -12.34375 
Q 23.78125 -13.375 27.78125 -13.375 
Q 36.625 -13.375 41.015625 -8.765625 
Q 45.40625 -4.15625 45.40625 5.171875 
L 45.40625 9.625 
Q 42.625 4.78125 38.28125 2.390625 
Q 33.9375 0 27.875 0 
Q 17.828125 0 11.671875 7.65625 
Q 5.515625 15.328125 5.515625 27.984375 
Q 5.515625 40.671875 11.671875 48.328125 
Q 17.828125 56 27.875 56 
Q 33.9375 56 38.28125 53.609375 
Q 42.625 51.21875 45.40625 46.390625 
L 45.40625 54.6875 
L 54.390625 54.6875 
z
" id="BitstreamVeraSans-Roman-67"/>
      <path d="M 56.203125 29.59375 
L 56.203125 25.203125 
L 14.890625 25.203125 
Q 15.484375 15.921875 20.484375 11.0625 
Q 25.484375 6.203125 34.421875 6.203125 
Q 39.59375 6.203125 44.453125 7.46875 
Q 49.3125 8.734375 54.109375 11.28125 
L 54.109375 2.78125 
Q 49.265625 0.734375 44.1875 -0.34375 
Q 39.109375 -1.421875 33.890625 -1.421875 
Q 20.796875 -1.421875 13.15625 6.1875 
Q 5.515625 13.8125 5.515625 26.8125 
Q 5.515625 40.234375 12.765625 48.109375 
Q 20.015625 56 32.328125 56 
Q 43.359375 56 49.78125 48.890625 
Q 56.203125 41.796875 56.203125 29.59375 
M 47.21875 32.234375 
Q 47.125 39.59375 43.09375 43.984375 
Q 39.0625 48.390625 32.421875 48.390625 
Q 24.90625 48.390625 20.390625 44.140625 
Q 15.875 39.890625 15.1875 32.171875 
z
" id="BitstreamVeraSans-Roman-65"/>
      <path d="M 48.6875 27.296875 
Q 48.6875 37.203125 44.609375 42.84375 
Q 40.53125 48.484375 33.40625 48.484375 
Q 26.265625 48.484375 22.1875 42.84375 
Q 18.109375 37.203125 18.109375 27.296875 
Q 18.109375 17.390625 22.1875 11.75 
Q 26.265625 6.109375 33.40625 6.109375 
Q 40.53125 6.109375 44.609375 11.75 
Q 48.6875 17.390625 48.6875 27.296875 
M 18.109375 46.390625 
Q 20.953125 51.265625 25.265625 53.625 
Q 29.59375 56 35.59375 56 
Q 45.5625 56 51.78125 48.09375 
Q 58.015625 40.1875 58.015625 27.296875 
Q 58.015625 14.40625 51.78125 6.484375 
Q 45.5625 -1.421875 35.59375 -1.421875 
Q 29.59375 -1.421875 25.265625 0.953125 
Q 20.953125 3.328125 18.109375 8.203125 
L 18.109375 0 
L 9.078125 0 
L 9.078125 75.984375 
L 18.109375 75.984375 
z
" id="BitstreamVeraSans-Roman-62"/>
      <path d="M 54.890625 33.015625 
L 54.890625 0 
L 45.90625 0 
L 45.90625 32.71875 
Q 45.90625 40.484375 42.875 44.328125 
Q 39.84375 48.1875 33.796875 48.1875 
Q 26.515625 48.1875 22.3125 43.546875 
Q 18.109375 38.921875 18.109375 30.90625 
L 18.109375 0 
L 9.078125 0 
L 9.078125 75.984375 
L 18.109375 75.984375 
L 18.109375 46.1875 
Q 21.34375 51.125 25.703125 53.5625 
Q 30.078125 56 35.796875 56 
Q 45.21875 56 50.046875 50.171875 
Q 54.890625 44.34375 54.890625 33.015625 
" id="BitstreamVeraSans-Roman-68"/>
      <path d="M 34.28125 27.484375 
Q 23.390625 27.484375 19.1875 25 
Q 14.984375 22.515625 14.984375 16.5 
Q 14.984375 11.71875 18.140625 8.90625 
Q 21.296875 6.109375 26.703125 6.109375 
Q 34.1875 6.109375 38.703125 11.40625 
Q 43.21875 16.703125 43.21875 25.484375 
L 43.21875 27.484375 
z
M 52.203125 31.203125 
L 52.203125 0 
L 43.21875 0 
L 43.21875 8.296875 
Q 40.140625 3.328125 35.546875 0.953125 
Q 30.953125 -1.421875 24.3125 -1.421875 
Q 15.921875 -1.421875 10.953125 3.296875 
Q 6 8.015625 6 15.921875 
Q 6 25.140625 12.171875 29.828125 
Q 18.359375 34.515625 30.609375 34.515625 
L 43.21875 34.515625 
L 43.21875 35.40625 
Q 43.21875 41.609375 39.140625 45 
Q 35.0625 48.390625 27.6875 48.390625 
Q 23 48.390625 18.546875 47.265625 
Q 14.109375 46.140625 10.015625 43.890625 
L 10.015625 52.203125 
Q 14.9375 54.109375 19.578125 55.046875 
Q 24.21875 56 28.609375 56 
Q 40.484375 56 46.34375 49.84375 
Q 52.203125 43.703125 52.203125 31.203125 
" id="BitstreamVeraSans-Roman-61"/>
      <path d="M 41.109375 46.296875 
Q 39.59375 47.171875 37.8125 47.578125 
Q 36.03125 48 33.890625 48 
Q 26.265625 48 22.1875 43.046875 
Q 18.109375 38.09375 18.109375 28.8125 
L 18.109375 0 
L 9.078125 0 
L 9.078125 54.6875 
L 18.109375 54.6875 
L 18.109375 46.1875 
Q 20.953125 51.171875 25.484375 53.578125 
Q 30.03125 56 36.53125 56 
Q 37.453125 56 38.578125 55.875 
Q 39.703125 55.765625 41.0625 55.515625 
z
" id="BitstreamVeraSans-Roman-72"/>
      <path d="M 8.5 21.578125 
L 8.5 54.6875 
L 17.484375 54.6875 
L 17.484375 21.921875 
Q 17.484375 14.15625 20.5 10.265625 
Q 23.53125 6.390625 29.59375 6.390625 
Q 36.859375 6.390625 41.078125 11.03125 
Q 45.3125 15.671875 45.3125 23.6875 
L 45.3125 54.6875 
L 54.296875 54.6875 
L 54.296875 0 
L 45.3125 0 
L 45.3125 8.40625 
Q 42.046875 3.421875 37.71875 1 
Q 33.40625 -1.421875 27.6875 -1.421875 
Q 18.265625 -1.421875 13.375 4.4375 
Q 8.5 10.296875 8.5 21.578125 
" id="BitstreamVeraSans-Roman-75"/>
      <path d="M 48.78125 52.59375 
L 48.78125 44.1875 
Q 44.96875 46.296875 41.140625 47.34375 
Q 37.3125 48.390625 33.40625 48.390625 
Q 24.65625 48.390625 19.8125 42.84375 
Q 14.984375 37.3125 14.984375 27.296875 
Q 14.984375 17.28125 19.8125 11.734375 
Q 24.65625 6.203125 33.40625 6.203125 
Q 37.3125 6.203125 41.140625 7.25 
Q 44.96875 8.296875 48.78125 10.40625 
L 48.78125 2.09375 
Q 45.015625 0.34375 40.984375 -0.53125 
Q 36.96875 -1.421875 32.421875 -1.421875 
Q 20.0625 -1.421875 12.78125 6.34375 
Q 5.515625 14.109375 5.515625 27.296875 
Q 5.515625 40.671875 12.859375 48.328125 
Q 20.21875 56 33.015625 56 
Q 37.15625 56 41.109375 55.140625 
Q 45.0625 54.296875 48.78125 52.59375 
" id="BitstreamVeraSans-Roman-63"/>
      <path id="BitstreamVeraSans-Roman-20"/>
      <path d="M 30.609375 48.390625 
Q 23.390625 48.390625 19.1875 42.75 
Q 14.984375 37.109375 14.984375 27.296875 
Q 14.984375 17.484375 19.15625 11.84375 
Q 23.34375 6.203125 30.609375 6.203125 
Q 37.796875 6.203125 41.984375 11.859375 
Q 46.1875 17.53125 46.1875 27.296875 
Q 46.1875 37.015625 41.984375 42.703125 
Q 37.796875 48.390625 30.609375 48.390625 
M 30.609375 56 
Q 42.328125 56 49.015625 48.375 
Q 55.71875 40.765625 55.71875 27.296875 
Q 55.71875 13.875 49.015625 6.21875 
Q 42.328125 -1.421875 30.609375 -1.421875 
Q 18.84375 -1.421875 12.171875 6.21875 
Q 5.515625 13.875 5.515625 27.296875 
Q 5.515625 40.765625 12.171875 48.375 
Q 18.84375 56 30.609375 56 
" id="BitstreamVeraSans-Roman-6f"/>
      <path d="M 37.109375 75.984375 
L 37.109375 68.5 
L 28.515625 68.5 
Q 23.6875 68.5 21.796875 66.546875 
Q 19.921875 64.59375 19.921875 59.515625 
L 19.921875 54.6875 
L 34.71875 54.6875 
L 34.71875 47.703125 
L 19.921875 47.703125 
L 19.921875 0 
L 10.890625 0 
L 10.890625 47.703125 
L 2.296875 47.703125 
L 2.296875 54.6875 
L 10.890625 54.6875 
L 10.890625 58.5 
Q 10.890625 67.625 15.140625 71.796875 
Q 19.390625 75.984375 28.609375 75.984375 
z
" id="BitstreamVeraSans-Roman-66"/>
      <path d="M 52 44.1875 
Q 55.375 50.25 60.0625 53.125 
Q 64.75 56 71.09375 56 
Q 79.640625 56 84.28125 50.015625 
Q 88.921875 44.046875 88.921875 33.015625 
L 88.921875 0 
L 79.890625 0 
L 79.890625 32.71875 
Q 79.890625 40.578125 77.09375 44.375 
Q 74.3125 48.1875 68.609375 48.1875 
Q 61.625 48.1875 57.5625 43.546875 
Q 53.515625 38.921875 53.515625 30.90625 
L 53.515625 0 
L 44.484375 0 
L 44.484375 32.71875 
Q 44.484375 40.625 41.703125 44.40625 
Q 38.921875 48.1875 33.109375 48.1875 
Q 26.21875 48.1875 22.15625 43.53125 
Q 18.109375 38.875 18.109375 30.90625 
L 18.109375 0 
L 9.078125 0 
L 9.078125 54.6875 
L 18.109375 54.6875 
L 18.109375 46.1875 
Q 21.1875 51.21875 25.484375 53.609375 
Q 29.78125 56 35.6875 56 
Q 41.65625 56 45.828125 52.96875 
Q 50 49.953125 52 44.1875 
" id="BitstreamVeraSans-Roman-6d"/>
      <path d="M 44.28125 53.078125 
L 44.28125 44.578125 
Q 40.484375 46.53125 36.375 47.5 
Q 32.28125 48.484375 27.875 48.484375 
Q 21.1875 48.484375 17.84375 46.4375 
Q 14.5 44.390625 14.5 40.28125 
Q 14.5 37.15625 16.890625 35.375 
Q 19.28125 33.59375 26.515625 31.984375 
L 29.59375 31.296875 
Q 39.15625 29.25 43.1875 25.515625 
Q 47.21875 21.78125 47.21875 15.09375 
Q 47.21875 7.46875 41.1875 3.015625 
Q 35.15625 -1.421875 24.609375 -1.421875 
Q 20.21875 -1.421875 15.453125 -0.5625 
Q 10.6875 0.296875 5.421875 2 
L 5.421875 11.28125 
Q 10.40625 8.6875 15.234375 7.390625 
Q 20.0625 6.109375 24.8125 6.109375 
Q 31.15625 6.109375 34.5625 8.28125 
Q 37.984375 10.453125 37.984375 14.40625 
Q 37.984375 18.0625 35.515625 20.015625 
Q 33.0625 21.96875 24.703125 23.78125 
L 21.578125 24.515625 
Q 13.234375 26.265625 9.515625 29.90625 
Q 5.8125 33.546875 5.8125 39.890625 
Q 5.8125 47.609375 11.28125 51.796875 
Q 16.75 56 26.8125 56 
Q 31.78125 56 36.171875 55.265625 
Q 40.578125 54.546875 44.28125 53.078125 
" id="BitstreamVeraSans-Roman-73"/>
     </defs>
     <g transform="translate(216.4096875 418.531875)scale(0.12 -0.12)">
      <use xlink:href="#BitstreamVeraSans-Roman-6e"/>
      <use x="63.37890625" xlink:href="#BitstreamVeraSans-Roman-75"/>
      <use x="126.7578125" xlink:href="#BitstreamVeraSans-Roman-6d"/>
      <use x="224.169921875" xlink:href="#BitstreamVeraSans-Roman-62"/>
      <use x="287.646484375" xlink:href="#BitstreamVeraSans-Roman-65"/>
      <use x="349.169921875" xlink:href="#BitstreamVeraSans-Roman-72"/>
      <use x="390.283203125" xlink:href="#BitstreamVeraSans-Roman-20"/>
      <use x="422.0703125" xlink:href="#BitstreamVeraSans-Roman-6f"/>
      <use x="483.251953125" xlink:href="#BitstreamVeraSans-Roman-66"/>
      <use x="518.45703125" xlink:href="#BitstreamVeraSans-Roman-20"/>
      <use x="550.244140625" xlink:href="#BitstreamVeraSans-Roman-77"/>
      <use x="632.03125" xlink:href="#BitstreamVeraSans-Roman-6f"/>
      <use x="693.212890625" xlink:href="#BitstreamVeraSans-Roman-72"/>
      <use x="734.310546875" xlink:href="#BitstreamVeraSans-Roman-64"/>
      <use x="797.787109375" xlink:href="#BitstreamVeraSans-Roman-73"/>
      <use x="849.88671875" xlink:href="#BitstreamVeraSans-Roman-20"/>
      <use x="881.673828125" xlink:href="#BitstreamVeraSans-Roman-63"/>
      <use x="936.654296875" xlink:href="#BitstreamVeraSans-Roman-68"/>
      <use x="1000.033203125" xlink:href="#BitstreamVeraSans-Roman-61"/>
      <use x="1061.3125" xlink:href="#BitstreamVeraSans-Roman-6e"/>
      <use x="1124.69140625" xlink:href="#BitstreamVeraSans-Roman-67"/>
      <use x="1188.16796875" xlink:href="#BitstreamVeraSans-Roman-65"/>
      <use x="1249.69140625" xlink:href="#BitstreamVeraSans-Roman-64"/>
     </g>
    </g>
   </g>
   <g id="matplotlib.axis_2">
    <g id="ytick_1">
     <g id="line2d_30">
      <defs>
       <path d="M 0 0 
L 4 0 
" id="m774b227cf6" style="stroke:#000000;stroke-width:0.5;"/>
      </defs>
      <g>
       <use style="stroke:#000000;stroke-width:0.5;" x="72.0" xlink:href="#m774b227cf6" y="388.8"/>
      </g>
     </g>
     <g id="line2d_31">
      <defs>
       <path d="M 0 0 
L -4 0 
" id="m6ba2fc168e" style="stroke:#000000;stroke-width:0.5;"/>
      </defs>
      <g>
       <use style="stroke:#000000;stroke-width:0.5;" x="518.4" xlink:href="#m6ba2fc168e" y="388.8"/>
      </g>
     </g>
     <g id="text_9">
      <!-- 0 -->
      <g transform="translate(60.365 392.11125)scale(0.12 -0.12)">
       <use xlink:href="#BitstreamVeraSans-Roman-30"/>
      </g>
     </g>
    </g>
    <g id="ytick_2">
     <g id="line2d_32">
      <g>
       <use style="stroke:#000000;stroke-width:0.5;" x="72.0" xlink:href="#m774b227cf6" y="331.2"/>
      </g>
     </g>
     <g id="line2d_33">
      <g>
       <use style="stroke:#000000;stroke-width:0.5;" x="518.4" xlink:href="#m6ba2fc168e" y="331.2"/>
      </g>
     </g>
     <g id="text_10">
      <!-- 200 -->
      <g transform="translate(45.095 334.51125)scale(0.12 -0.12)">
       <use xlink:href="#BitstreamVeraSans-Roman-32"/>
       <use x="63.623046875" xlink:href="#BitstreamVeraSans-Roman-30"/>
       <use x="127.24609375" xlink:href="#BitstreamVeraSans-Roman-30"/>
      </g>
     </g>
    </g>
    <g id="ytick_3">
     <g id="line2d_34">
      <g>
       <use style="stroke:#000000;stroke-width:0.5;" x="72.0" xlink:href="#m774b227cf6" y="273.6"/>
      </g>
     </g>
     <g id="line2d_35">
      <g>
       <use style="stroke:#000000;stroke-width:0.5;" x="518.4" xlink:href="#m6ba2fc168e" y="273.6"/>
      </g>
     </g>
     <g id="text_11">
      <!-- 400 -->
      <g transform="translate(45.095 276.91125)scale(0.12 -0.12)">
       <use xlink:href="#BitstreamVeraSans-Roman-34"/>
       <use x="63.623046875" xlink:href="#BitstreamVeraSans-Roman-30"/>
       <use x="127.24609375" xlink:href="#BitstreamVeraSans-Roman-30"/>
      </g>
     </g>
    </g>
    <g id="ytick_4">
     <g id="line2d_36">
      <g>
       <use style="stroke:#000000;stroke-width:0.5;" x="72.0" xlink:href="#m774b227cf6" y="216.0"/>
      </g>
     </g>
     <g id="line2d_37">
      <g>
       <use style="stroke:#000000;stroke-width:0.5;" x="518.4" xlink:href="#m6ba2fc168e" y="216.0"/>
      </g>
     </g>
     <g id="text_12">
      <!-- 600 -->
      <g transform="translate(45.095 219.31125)scale(0.12 -0.12)">
       <use xlink:href="#BitstreamVeraSans-Roman-36"/>
       <use x="63.623046875" xlink:href="#BitstreamVeraSans-Roman-30"/>
       <use x="127.24609375" xlink:href="#BitstreamVeraSans-Roman-30"/>
      </g>
     </g>
    </g>
    <g id="ytick_5">
     <g id="line2d_38">
      <g>
       <use style="stroke:#000000;stroke-width:0.5;" x="72.0" xlink:href="#m774b227cf6" y="158.4"/>
      </g>
     </g>
     <g id="line2d_39">
      <g>
       <use style="stroke:#000000;stroke-width:0.5;" x="518.4" xlink:href="#m6ba2fc168e" y="158.4"/>
      </g>
     </g>
     <g id="text_13">
      <!-- 800 -->
      <defs>
       <path d="M 31.78125 34.625 
Q 24.75 34.625 20.71875 30.859375 
Q 16.703125 27.09375 16.703125 20.515625 
Q 16.703125 13.921875 20.71875 10.15625 
Q 24.75 6.390625 31.78125 6.390625 
Q 38.8125 6.390625 42.859375 10.171875 
Q 46.921875 13.96875 46.921875 20.515625 
Q 46.921875 27.09375 42.890625 30.859375 
Q 38.875 34.625 31.78125 34.625 
M 21.921875 38.8125 
Q 15.578125 40.375 12.03125 44.71875 
Q 8.5 49.078125 8.5 55.328125 
Q 8.5 64.0625 14.71875 69.140625 
Q 20.953125 74.21875 31.78125 74.21875 
Q 42.671875 74.21875 48.875 69.140625 
Q 55.078125 64.0625 55.078125 55.328125 
Q 55.078125 49.078125 51.53125 44.71875 
Q 48 40.375 41.703125 38.8125 
Q 48.828125 37.15625 52.796875 32.3125 
Q 56.78125 27.484375 56.78125 20.515625 
Q 56.78125 9.90625 50.3125 4.234375 
Q 43.84375 -1.421875 31.78125 -1.421875 
Q 19.734375 -1.421875 13.25 4.234375 
Q 6.78125 9.90625 6.78125 20.515625 
Q 6.78125 27.484375 10.78125 32.3125 
Q 14.796875 37.15625 21.921875 38.8125 
M 18.3125 54.390625 
Q 18.3125 48.734375 21.84375 45.5625 
Q 25.390625 42.390625 31.78125 42.390625 
Q 38.140625 42.390625 41.71875 45.5625 
Q 45.3125 48.734375 45.3125 54.390625 
Q 45.3125 60.0625 41.71875 63.234375 
Q 38.140625 66.40625 31.78125 66.40625 
Q 25.390625 66.40625 21.84375 63.234375 
Q 18.3125 60.0625 18.3125 54.390625 
" id="BitstreamVeraSans-Roman-38"/>
      </defs>
      <g transform="translate(45.095 161.71125)scale(0.12 -0.12)">
       <use xlink:href="#BitstreamVeraSans-Roman-38"/>
       <use x="63.623046875" xlink:href="#BitstreamVeraSans-Roman-30"/>
       <use x="127.24609375" xlink:href="#BitstreamVeraSans-Roman-30"/>
      </g>
     </g>
    </g>
    <g id="ytick_6">
     <g id="line2d_40">
      <g>
       <use style="stroke:#000000;stroke-width:0.5;" x="72.0" xlink:href="#m774b227cf6" y="100.8"/>
      </g>
     </g>
     <g id="line2d_41">
      <g>
       <use style="stroke:#000000;stroke-width:0.5;" x="518.4" xlink:href="#m6ba2fc168e" y="100.8"/>
      </g>
     </g>
     <g id="text_14">
      <!-- 1000 -->
      <g transform="translate(37.46 104.11125)scale(0.12 -0.12)">
       <use xlink:href="#BitstreamVeraSans-Roman-31"/>
       <use x="63.623046875" xlink:href="#BitstreamVeraSans-Roman-30"/>
       <use x="127.24609375" xlink:href="#BitstreamVeraSans-Roman-30"/>
       <use x="190.869140625" xlink:href="#BitstreamVeraSans-Roman-30"/>
      </g>
     </g>
    </g>
    <g id="ytick_7">
     <g id="line2d_42">
      <g>
       <use style="stroke:#000000;stroke-width:0.5;" x="72.0" xlink:href="#m774b227cf6" y="43.2"/>
      </g>
     </g>
     <g id="line2d_43">
      <g>
       <use style="stroke:#000000;stroke-width:0.5;" x="518.4" xlink:href="#m6ba2fc168e" y="43.2"/>
      </g>
     </g>
     <g id="text_15">
      <!-- 1200 -->
      <g transform="translate(37.46 46.51125)scale(0.12 -0.12)">
       <use xlink:href="#BitstreamVeraSans-Roman-31"/>
       <use x="63.623046875" xlink:href="#BitstreamVeraSans-Roman-32"/>
       <use x="127.24609375" xlink:href="#BitstreamVeraSans-Roman-30"/>
       <use x="190.869140625" xlink:href="#BitstreamVeraSans-Roman-30"/>
      </g>
     </g>
    </g>
    <g id="text_16">
     <!-- amount -->
     <defs>
      <path d="M 18.3125 70.21875 
L 18.3125 54.6875 
L 36.8125 54.6875 
L 36.8125 47.703125 
L 18.3125 47.703125 
L 18.3125 18.015625 
Q 18.3125 11.328125 20.140625 9.421875 
Q 21.96875 7.515625 27.59375 7.515625 
L 36.8125 7.515625 
L 36.8125 0 
L 27.59375 0 
Q 17.1875 0 13.234375 3.875 
Q 9.28125 7.765625 9.28125 18.015625 
L 9.28125 47.703125 
L 2.6875 47.703125 
L 2.6875 54.6875 
L 9.28125 54.6875 
L 9.28125 70.21875 
z
" id="BitstreamVeraSans-Roman-74"/>
     </defs>
     <g transform="translate(29.964375 239.1496875)rotate(-90.0)scale(0.12 -0.12)">
      <use xlink:href="#BitstreamVeraSans-Roman-61"/>
      <use x="61.279296875" xlink:href="#BitstreamVeraSans-Roman-6d"/>
      <use x="158.69140625" xlink:href="#BitstreamVeraSans-Roman-6f"/>
      <use x="219.873046875" xlink:href="#BitstreamVeraSans-Roman-75"/>
      <use x="283.251953125" xlink:href="#BitstreamVeraSans-Roman-6e"/>
      <use x="346.630859375" xlink:href="#BitstreamVeraSans-Roman-74"/>
     </g>
    </g>
   </g>
   <g id="text_17">
    <!-- accumulative number of sentences by words changed per -->
    <defs>
     <path d="M 9.421875 75.984375 
L 18.40625 75.984375 
L 18.40625 0 
L 9.421875 0 
z
" id="BitstreamVeraSans-Roman-6c"/>
     <path d="M 2.984375 54.6875 
L 12.5 54.6875 
L 29.59375 8.796875 
L 46.6875 54.6875 
L 56.203125 54.6875 
L 35.6875 0 
L 23.484375 0 
z
" id="BitstreamVeraSans-Roman-76"/>
     <path d="M 18.109375 8.203125 
L 18.109375 -20.796875 
L 9.078125 -20.796875 
L 9.078125 54.6875 
L 18.109375 54.6875 
L 18.109375 46.390625 
Q 20.953125 51.265625 25.265625 53.625 
Q 29.59375 56 35.59375 56 
Q 45.5625 56 51.78125 48.09375 
Q 58.015625 40.1875 58.015625 27.296875 
Q 58.015625 14.40625 51.78125 6.484375 
Q 45.5625 -1.421875 35.59375 -1.421875 
Q 29.59375 -1.421875 25.265625 0.953125 
Q 20.953125 3.328125 18.109375 8.203125 
M 48.6875 27.296875 
Q 48.6875 37.203125 44.609375 42.84375 
Q 40.53125 48.484375 33.40625 48.484375 
Q 26.265625 48.484375 22.1875 42.84375 
Q 18.109375 37.203125 18.109375 27.296875 
Q 18.109375 17.390625 22.1875 11.75 
Q 26.265625 6.109375 33.40625 6.109375 
Q 40.53125 6.109375 44.609375 11.75 
Q 48.6875 17.390625 48.6875 27.296875 
" id="BitstreamVeraSans-Roman-70"/>
     <path d="M 9.421875 54.6875 
L 18.40625 54.6875 
L 18.40625 0 
L 9.421875 0 
z
M 9.421875 75.984375 
L 18.40625 75.984375 
L 18.40625 64.59375 
L 9.421875 64.59375 
z
" id="BitstreamVeraSans-Roman-69"/>
     <path d="M 32.171875 -5.078125 
Q 28.375 -14.84375 24.75 -17.8125 
Q 21.140625 -20.796875 15.09375 -20.796875 
L 7.90625 -20.796875 
L 7.90625 -13.28125 
L 13.1875 -13.28125 
Q 16.890625 -13.28125 18.9375 -11.515625 
Q 21 -9.765625 23.484375 -3.21875 
L 25.09375 0.875 
L 2.984375 54.6875 
L 12.5 54.6875 
L 29.59375 11.921875 
L 46.6875 54.6875 
L 56.203125 54.6875 
z
" id="BitstreamVeraSans-Roman-79"/>
    </defs>
    <g transform="translate(85.609125 38.2)scale(0.144 -0.144)">
     <use xlink:href="#BitstreamVeraSans-Roman-61"/>
     <use x="61.279296875" xlink:href="#BitstreamVeraSans-Roman-63"/>
     <use x="116.259765625" xlink:href="#BitstreamVeraSans-Roman-63"/>
     <use x="171.240234375" xlink:href="#BitstreamVeraSans-Roman-75"/>
     <use x="234.619140625" xlink:href="#BitstreamVeraSans-Roman-6d"/>
     <use x="332.03125" xlink:href="#BitstreamVeraSans-Roman-75"/>
     <use x="395.41015625" xlink:href="#BitstreamVeraSans-Roman-6c"/>
     <use x="423.193359375" xlink:href="#BitstreamVeraSans-Roman-61"/>
     <use x="484.47265625" xlink:href="#BitstreamVeraSans-Roman-74"/>
     <use x="523.681640625" xlink:href="#BitstreamVeraSans-Roman-69"/>
     <use x="551.46484375" xlink:href="#BitstreamVeraSans-Roman-76"/>
     <use x="610.64453125" xlink:href="#BitstreamVeraSans-Roman-65"/>
     <use x="672.16796875" xlink:href="#BitstreamVeraSans-Roman-20"/>
     <use x="703.955078125" xlink:href="#BitstreamVeraSans-Roman-6e"/>
     <use x="767.333984375" xlink:href="#BitstreamVeraSans-Roman-75"/>
     <use x="830.712890625" xlink:href="#BitstreamVeraSans-Roman-6d"/>
     <use x="928.125" xlink:href="#BitstreamVeraSans-Roman-62"/>
     <use x="991.6015625" xlink:href="#BitstreamVeraSans-Roman-65"/>
     <use x="1053.125" xlink:href="#BitstreamVeraSans-Roman-72"/>
     <use x="1094.23828125" xlink:href="#BitstreamVeraSans-Roman-20"/>
     <use x="1126.025390625" xlink:href="#BitstreamVeraSans-Roman-6f"/>
     <use x="1187.20703125" xlink:href="#BitstreamVeraSans-Roman-66"/>
     <use x="1222.412109375" xlink:href="#BitstreamVeraSans-Roman-20"/>
     <use x="1254.19921875" xlink:href="#BitstreamVeraSans-Roman-73"/>
     <use x="1306.298828125" xlink:href="#BitstreamVeraSans-Roman-65"/>
     <use x="1367.822265625" xlink:href="#BitstreamVeraSans-Roman-6e"/>
     <use x="1431.201171875" xlink:href="#BitstreamVeraSans-Roman-74"/>
     <use x="1470.41015625" xlink:href="#BitstreamVeraSans-Roman-65"/>
     <use x="1531.93359375" xlink:href="#BitstreamVeraSans-Roman-6e"/>
     <use x="1595.3125" xlink:href="#BitstreamVeraSans-Roman-63"/>
     <use x="1650.29296875" xlink:href="#BitstreamVeraSans-Roman-65"/>
     <use x="1711.81640625" xlink:href="#BitstreamVeraSans-Roman-73"/>
     <use x="1763.916015625" xlink:href="#BitstreamVeraSans-Roman-20"/>
     <use x="1795.703125" xlink:href="#BitstreamVeraSans-Roman-62"/>
     <use x="1859.1796875" xlink:href="#BitstreamVeraSans-Roman-79"/>
     <use x="1918.359375" xlink:href="#BitstreamVeraSans-Roman-20"/>
     <use x="1950.146484375" xlink:href="#BitstreamVeraSans-Roman-77"/>
     <use x="2031.93359375" xlink:href="#BitstreamVeraSans-Roman-6f"/>
     <use x="2093.115234375" xlink:href="#BitstreamVeraSans-Roman-72"/>
     <use x="2134.212890625" xlink:href="#BitstreamVeraSans-Roman-64"/>
     <use x="2197.689453125" xlink:href="#BitstreamVeraSans-Roman-73"/>
     <use x="2249.7890625" xlink:href="#BitstreamVeraSans-Roman-20"/>
     <use x="2281.576171875" xlink:href="#BitstreamVeraSans-Roman-63"/>
     <use x="2336.556640625" xlink:href="#BitstreamVeraSans-Roman-68"/>
     <use x="2399.935546875" xlink:href="#BitstreamVeraSans-Roman-61"/>
     <use x="2461.21484375" xlink:href="#BitstreamVeraSans-Roman-6e"/>
     <use x="2524.59375" xlink:href="#BitstreamVeraSans-Roman-67"/>
     <use x="2588.0703125" xlink:href="#BitstreamVeraSans-Roman-65"/>
     <use x="2649.59375" xlink:href="#BitstreamVeraSans-Roman-64"/>
     <use x="2713.0703125" xlink:href="#BitstreamVeraSans-Roman-20"/>
     <use x="2744.857421875" xlink:href="#BitstreamVeraSans-Roman-70"/>
     <use x="2808.333984375" xlink:href="#BitstreamVeraSans-Roman-65"/>
     <use x="2869.857421875" xlink:href="#BitstreamVeraSans-Roman-72"/>
    </g>
   </g>
   <g id="legend_1">
    <g id="patch_7">
     <path d="M 358.50625 327.585938 
L 513.4 327.585938 
L 513.4 104.414063 
L 358.50625 104.414063 
z
" style="fill:#ffffff;stroke:#000000;stroke-linejoin:miter;"/>
    </g>
    <g id="line2d_44">
     <path d="M 365.50625 112.5125 
L 379.50625 112.5125 
" style="fill:none;stroke:#8000ff;stroke-linecap:square;"/>
    </g>
    <g id="line2d_45"/>
    <g id="text_18">
     <!-- fce to gold auto aligned -->
     <g transform="translate(390.50625 116.0125)scale(0.1 -0.1)">
      <use xlink:href="#BitstreamVeraSans-Roman-66"/>
      <use x="35.205078125" xlink:href="#BitstreamVeraSans-Roman-63"/>
      <use x="90.185546875" xlink:href="#BitstreamVeraSans-Roman-65"/>
      <use x="151.708984375" xlink:href="#BitstreamVeraSans-Roman-20"/>
      <use x="183.49609375" xlink:href="#BitstreamVeraSans-Roman-74"/>
      <use x="222.705078125" xlink:href="#BitstreamVeraSans-Roman-6f"/>
      <use x="283.88671875" xlink:href="#BitstreamVeraSans-Roman-20"/>
      <use x="315.673828125" xlink:href="#BitstreamVeraSans-Roman-67"/>
      <use x="379.150390625" xlink:href="#BitstreamVeraSans-Roman-6f"/>
      <use x="440.33203125" xlink:href="#BitstreamVeraSans-Roman-6c"/>
      <use x="468.115234375" xlink:href="#BitstreamVeraSans-Roman-64"/>
      <use x="531.591796875" xlink:href="#BitstreamVeraSans-Roman-20"/>
      <use x="563.37890625" xlink:href="#BitstreamVeraSans-Roman-61"/>
      <use x="624.658203125" xlink:href="#BitstreamVeraSans-Roman-75"/>
      <use x="688.037109375" xlink:href="#BitstreamVeraSans-Roman-74"/>
      <use x="727.24609375" xlink:href="#BitstreamVeraSans-Roman-6f"/>
      <use x="788.427734375" xlink:href="#BitstreamVeraSans-Roman-20"/>
      <use x="820.21484375" xlink:href="#BitstreamVeraSans-Roman-61"/>
      <use x="881.494140625" xlink:href="#BitstreamVeraSans-Roman-6c"/>
      <use x="909.27734375" xlink:href="#BitstreamVeraSans-Roman-69"/>
      <use x="937.060546875" xlink:href="#BitstreamVeraSans-Roman-67"/>
      <use x="1000.537109375" xlink:href="#BitstreamVeraSans-Roman-6e"/>
      <use x="1063.916015625" xlink:href="#BitstreamVeraSans-Roman-65"/>
      <use x="1125.439453125" xlink:href="#BitstreamVeraSans-Roman-64"/>
     </g>
    </g>
    <g id="line2d_46">
     <path d="M 365.50625 127.190625 
L 379.50625 127.190625 
" style="fill:none;stroke:#5c38fd;stroke-linecap:square;"/>
    </g>
    <g id="line2d_47"/>
    <g id="text_19">
     <!-- gold standard -->
     <g transform="translate(390.50625 130.690625)scale(0.1 -0.1)">
      <use xlink:href="#BitstreamVeraSans-Roman-67"/>
      <use x="63.4765625" xlink:href="#BitstreamVeraSans-Roman-6f"/>
      <use x="124.658203125" xlink:href="#BitstreamVeraSans-Roman-6c"/>
      <use x="152.44140625" xlink:href="#BitstreamVeraSans-Roman-64"/>
      <use x="215.91796875" xlink:href="#BitstreamVeraSans-Roman-20"/>
      <use x="247.705078125" xlink:href="#BitstreamVeraSans-Roman-73"/>
      <use x="299.8046875" xlink:href="#BitstreamVeraSans-Roman-74"/>
      <use x="339.013671875" xlink:href="#BitstreamVeraSans-Roman-61"/>
      <use x="400.29296875" xlink:href="#BitstreamVeraSans-Roman-6e"/>
      <use x="463.671875" xlink:href="#BitstreamVeraSans-Roman-64"/>
      <use x="527.1484375" xlink:href="#BitstreamVeraSans-Roman-61"/>
      <use x="588.427734375" xlink:href="#BitstreamVeraSans-Roman-72"/>
      <use x="629.525390625" xlink:href="#BitstreamVeraSans-Roman-64"/>
     </g>
    </g>
    <g id="line2d_48">
     <path d="M 365.50625 141.86875 
L 379.50625 141.86875 
" style="fill:none;stroke:#386df9;stroke-linecap:square;"/>
    </g>
    <g id="line2d_49"/>
    <g id="text_20">
     <!-- cuui -->
     <g transform="translate(390.50625 145.36875)scale(0.1 -0.1)">
      <use xlink:href="#BitstreamVeraSans-Roman-63"/>
      <use x="54.98046875" xlink:href="#BitstreamVeraSans-Roman-75"/>
      <use x="118.359375" xlink:href="#BitstreamVeraSans-Roman-75"/>
      <use x="181.73828125" xlink:href="#BitstreamVeraSans-Roman-69"/>
     </g>
    </g>
    <g id="line2d_50">
     <path d="M 365.50625 156.546875 
L 379.50625 156.546875 
" style="fill:none;stroke:#149df1;stroke-linecap:square;"/>
    </g>
    <g id="line2d_51"/>
    <g id="text_21">
     <!-- iitb -->
     <g transform="translate(390.50625 160.046875)scale(0.1 -0.1)">
      <use xlink:href="#BitstreamVeraSans-Roman-69"/>
      <use x="27.783203125" xlink:href="#BitstreamVeraSans-Roman-69"/>
      <use x="55.56640625" xlink:href="#BitstreamVeraSans-Roman-74"/>
      <use x="94.775390625" xlink:href="#BitstreamVeraSans-Roman-62"/>
     </g>
    </g>
    <g id="line2d_52">
     <path d="M 365.50625 171.225 
L 379.50625 171.225 
" style="fill:none;stroke:#12c8e6;stroke-linecap:square;"/>
    </g>
    <g id="line2d_53"/>
    <g id="text_22">
     <!-- ipn -->
     <g transform="translate(390.50625 174.725)scale(0.1 -0.1)">
      <use xlink:href="#BitstreamVeraSans-Roman-69"/>
      <use x="27.783203125" xlink:href="#BitstreamVeraSans-Roman-70"/>
      <use x="91.259765625" xlink:href="#BitstreamVeraSans-Roman-6e"/>
     </g>
    </g>
    <g id="line2d_54">
     <path d="M 365.50625 185.903125 
L 379.50625 185.903125 
" style="fill:none;stroke:#37e6d8;stroke-linecap:square;"/>
    </g>
    <g id="line2d_55"/>
    <g id="text_23">
     <!-- nthu -->
     <g transform="translate(390.50625 189.403125)scale(0.1 -0.1)">
      <use xlink:href="#BitstreamVeraSans-Roman-6e"/>
      <use x="63.37890625" xlink:href="#BitstreamVeraSans-Roman-74"/>
      <use x="102.587890625" xlink:href="#BitstreamVeraSans-Roman-68"/>
      <use x="165.966796875" xlink:href="#BitstreamVeraSans-Roman-75"/>
     </g>
    </g>
    <g id="line2d_56">
     <path d="M 365.50625 200.58125 
L 379.50625 200.58125 
" style="fill:none;stroke:#5af8c8;stroke-linecap:square;"/>
    </g>
    <g id="line2d_57"/>
    <g id="text_24">
     <!-- pku -->
     <defs>
      <path d="M 9.078125 75.984375 
L 18.109375 75.984375 
L 18.109375 31.109375 
L 44.921875 54.6875 
L 56.390625 54.6875 
L 27.390625 29.109375 
L 57.625 0 
L 45.90625 0 
L 18.109375 26.703125 
L 18.109375 0 
L 9.078125 0 
z
" id="BitstreamVeraSans-Roman-6b"/>
     </defs>
     <g transform="translate(390.50625 204.08125)scale(0.1 -0.1)">
      <use xlink:href="#BitstreamVeraSans-Roman-70"/>
      <use x="63.4765625" xlink:href="#BitstreamVeraSans-Roman-6b"/>
      <use x="121.33984375" xlink:href="#BitstreamVeraSans-Roman-75"/>
     </g>
    </g>
    <g id="line2d_58">
     <path d="M 365.50625 215.259375 
L 379.50625 215.259375 
" style="fill:none;stroke:#80ffb4;stroke-linecap:square;"/>
    </g>
    <g id="line2d_59"/>
    <g id="text_25">
     <!-- post -->
     <g transform="translate(390.50625 218.759375)scale(0.1 -0.1)">
      <use xlink:href="#BitstreamVeraSans-Roman-70"/>
      <use x="63.4765625" xlink:href="#BitstreamVeraSans-Roman-6f"/>
      <use x="124.658203125" xlink:href="#BitstreamVeraSans-Roman-73"/>
      <use x="176.7578125" xlink:href="#BitstreamVeraSans-Roman-74"/>
     </g>
    </g>
    <g id="line2d_60">
     <path d="M 365.50625 229.9375 
L 379.50625 229.9375 
" style="fill:none;stroke:#a4f89f;stroke-linecap:square;"/>
    </g>
    <g id="line2d_61"/>
    <g id="text_26">
     <!-- rac -->
     <g transform="translate(390.50625 233.4375)scale(0.1 -0.1)">
      <use xlink:href="#BitstreamVeraSans-Roman-72"/>
      <use x="41.11328125" xlink:href="#BitstreamVeraSans-Roman-61"/>
      <use x="102.392578125" xlink:href="#BitstreamVeraSans-Roman-63"/>
     </g>
    </g>
    <g id="line2d_62">
     <path d="M 365.50625 244.615625 
L 379.50625 244.615625 
" style="fill:none;stroke:#c8e688;stroke-linecap:square;"/>
    </g>
    <g id="line2d_63"/>
    <g id="text_27">
     <!-- sjtu -->
     <defs>
      <path d="M 9.421875 54.6875 
L 18.40625 54.6875 
L 18.40625 -0.984375 
Q 18.40625 -11.421875 14.421875 -16.109375 
Q 10.453125 -20.796875 1.609375 -20.796875 
L -1.8125 -20.796875 
L -1.8125 -13.1875 
L 0.59375 -13.1875 
Q 5.71875 -13.1875 7.5625 -10.8125 
Q 9.421875 -8.453125 9.421875 -0.984375 
z
M 9.421875 75.984375 
L 18.40625 75.984375 
L 18.40625 64.59375 
L 9.421875 64.59375 
z
" id="BitstreamVeraSans-Roman-6a"/>
     </defs>
     <g transform="translate(390.50625 248.115625)scale(0.1 -0.1)">
      <use xlink:href="#BitstreamVeraSans-Roman-73"/>
      <use x="52.099609375" xlink:href="#BitstreamVeraSans-Roman-6a"/>
      <use x="79.8828125" xlink:href="#BitstreamVeraSans-Roman-74"/>
      <use x="119.091796875" xlink:href="#BitstreamVeraSans-Roman-75"/>
     </g>
    </g>
    <g id="line2d_64">
     <path d="M 365.50625 259.29375 
L 379.50625 259.29375 
" style="fill:none;stroke:#ecc86f;stroke-linecap:square;"/>
    </g>
    <g id="line2d_65"/>
    <g id="text_28">
     <!-- ufc -->
     <g transform="translate(390.50625 262.79375)scale(0.1 -0.1)">
      <use xlink:href="#BitstreamVeraSans-Roman-75"/>
      <use x="63.37890625" xlink:href="#BitstreamVeraSans-Roman-66"/>
      <use x="98.583984375" xlink:href="#BitstreamVeraSans-Roman-63"/>
     </g>
    </g>
    <g id="line2d_66">
     <path d="M 365.50625 273.971875 
L 379.50625 273.971875 
" style="fill:none;stroke:#ff9d53;stroke-linecap:square;"/>
    </g>
    <g id="line2d_67"/>
    <g id="text_29">
     <!-- umc -->
     <g transform="translate(390.50625 277.471875)scale(0.1 -0.1)">
      <use xlink:href="#BitstreamVeraSans-Roman-75"/>
      <use x="63.37890625" xlink:href="#BitstreamVeraSans-Roman-6d"/>
      <use x="160.791015625" xlink:href="#BitstreamVeraSans-Roman-63"/>
     </g>
    </g>
    <g id="line2d_68">
     <path d="M 365.50625 288.65 
L 379.50625 288.65 
" style="fill:none;stroke:#ff6d38;stroke-linecap:square;"/>
    </g>
    <g id="line2d_69"/>
    <g id="text_30">
     <!-- camb -->
     <g transform="translate(390.50625 292.15)scale(0.1 -0.1)">
      <use xlink:href="#BitstreamVeraSans-Roman-63"/>
      <use x="54.98046875" xlink:href="#BitstreamVeraSans-Roman-61"/>
      <use x="116.259765625" xlink:href="#BitstreamVeraSans-Roman-6d"/>
      <use x="213.671875" xlink:href="#BitstreamVeraSans-Roman-62"/>
     </g>
    </g>
    <g id="line2d_70">
     <path d="M 365.50625 303.328125 
L 379.50625 303.328125 
" style="fill:none;stroke:#ff381c;stroke-linecap:square;"/>
    </g>
    <g id="line2d_71"/>
    <g id="text_31">
     <!-- AMU -->
     <defs>
      <path d="M 34.1875 63.1875 
L 20.796875 26.90625 
L 47.609375 26.90625 
z
M 28.609375 72.90625 
L 39.796875 72.90625 
L 67.578125 0 
L 57.328125 0 
L 50.6875 18.703125 
L 17.828125 18.703125 
L 11.1875 0 
L 0.78125 0 
z
" id="BitstreamVeraSans-Roman-41"/>
      <path d="M 9.8125 72.90625 
L 24.515625 72.90625 
L 43.109375 23.296875 
L 61.8125 72.90625 
L 76.515625 72.90625 
L 76.515625 0 
L 66.890625 0 
L 66.890625 64.015625 
L 48.09375 14.015625 
L 38.1875 14.015625 
L 19.390625 64.015625 
L 19.390625 0 
L 9.8125 0 
z
" id="BitstreamVeraSans-Roman-4d"/>
      <path d="M 8.6875 72.90625 
L 18.609375 72.90625 
L 18.609375 28.609375 
Q 18.609375 16.890625 22.84375 11.734375 
Q 27.09375 6.59375 36.625 6.59375 
Q 46.09375 6.59375 50.34375 11.734375 
Q 54.59375 16.890625 54.59375 28.609375 
L 54.59375 72.90625 
L 64.5 72.90625 
L 64.5 27.390625 
Q 64.5 13.140625 57.4375 5.859375 
Q 50.390625 -1.421875 36.625 -1.421875 
Q 22.796875 -1.421875 15.734375 5.859375 
Q 8.6875 13.140625 8.6875 27.390625 
z
" id="BitstreamVeraSans-Roman-55"/>
     </defs>
     <g transform="translate(390.50625 306.828125)scale(0.1 -0.1)">
      <use xlink:href="#BitstreamVeraSans-Roman-41"/>
      <use x="68.408203125" xlink:href="#BitstreamVeraSans-Roman-4d"/>
      <use x="154.6875" xlink:href="#BitstreamVeraSans-Roman-55"/>
     </g>
    </g>
    <g id="line2d_72">
     <path d="M 365.50625 318.00625 
L 379.50625 318.00625 
" style="fill:none;stroke:#ff0000;stroke-linecap:square;"/>
    </g>
    <g id="line2d_73"/>
    <g id="text_32">
     <!-- Rozovskaya Roth -->
     <defs>
      <path d="M 44.390625 34.1875 
Q 47.5625 33.109375 50.5625 29.59375 
Q 53.5625 26.078125 56.59375 19.921875 
L 66.609375 0 
L 56 0 
L 46.6875 18.703125 
Q 43.0625 26.03125 39.671875 28.421875 
Q 36.28125 30.8125 30.421875 30.8125 
L 19.671875 30.8125 
L 19.671875 0 
L 9.8125 0 
L 9.8125 72.90625 
L 32.078125 72.90625 
Q 44.578125 72.90625 50.734375 67.671875 
Q 56.890625 62.453125 56.890625 51.90625 
Q 56.890625 45.015625 53.6875 40.46875 
Q 50.484375 35.9375 44.390625 34.1875 
M 19.671875 64.796875 
L 19.671875 38.921875 
L 32.078125 38.921875 
Q 39.203125 38.921875 42.84375 42.21875 
Q 46.484375 45.515625 46.484375 51.90625 
Q 46.484375 58.296875 42.84375 61.546875 
Q 39.203125 64.796875 32.078125 64.796875 
z
" id="BitstreamVeraSans-Roman-52"/>
      <path d="M 5.515625 54.6875 
L 48.1875 54.6875 
L 48.1875 46.484375 
L 14.40625 7.171875 
L 48.1875 7.171875 
L 48.1875 0 
L 4.296875 0 
L 4.296875 8.203125 
L 38.09375 47.515625 
L 5.515625 47.515625 
z
" id="BitstreamVeraSans-Roman-7a"/>
     </defs>
     <g transform="translate(390.50625 321.50625)scale(0.1 -0.1)">
      <use xlink:href="#BitstreamVeraSans-Roman-52"/>
      <use x="69.419921875" xlink:href="#BitstreamVeraSans-Roman-6f"/>
      <use x="130.6015625" xlink:href="#BitstreamVeraSans-Roman-7a"/>
      <use x="183.091796875" xlink:href="#BitstreamVeraSans-Roman-6f"/>
      <use x="244.2734375" xlink:href="#BitstreamVeraSans-Roman-76"/>
      <use x="303.453125" xlink:href="#BitstreamVeraSans-Roman-73"/>
      <use x="355.552734375" xlink:href="#BitstreamVeraSans-Roman-6b"/>
      <use x="413.447265625" xlink:href="#BitstreamVeraSans-Roman-61"/>
      <use x="474.7265625" xlink:href="#BitstreamVeraSans-Roman-79"/>
      <use x="533.90625" xlink:href="#BitstreamVeraSans-Roman-61"/>
      <use x="595.185546875" xlink:href="#BitstreamVeraSans-Roman-20"/>
      <use x="626.97265625" xlink:href="#BitstreamVeraSans-Roman-52"/>
      <use x="696.392578125" xlink:href="#BitstreamVeraSans-Roman-6f"/>
      <use x="757.57421875" xlink:href="#BitstreamVeraSans-Roman-74"/>
      <use x="796.783203125" xlink:href="#BitstreamVeraSans-Roman-68"/>
     </g>
    </g>
   </g>
  </g>
 </g>
 <defs>
  <clipPath id="pf97c74d0c9">
   <rect height="345.6" width="446.4" x="72.0" y="43.2"/>
  </clipPath>
 </defs>
</svg>
