<?xml version="1.0" encoding="utf-8" standalone="no"?>
<!DOCTYPE svg PUBLIC "-//W3C//DTD SVG 1.1//EN"
  "http://www.w3.org/Graphics/SVG/1.1/DTD/svg11.dtd">
<!-- Created with matplotlib (http://matplotlib.org/) -->
<svg height="432pt" version="1.1" viewBox="0 0 576 432" width="576pt" xmlns="http://www.w3.org/2000/svg" xmlns:xlink="http://www.w3.org/1999/xlink">
 <defs>
  <style type="text/css">
*{stroke-linecap:butt;stroke-linejoin:round;stroke-miterlimit:100000;}
  </style>
 </defs>
 <g id="figure_1">
  <g id="patch_1">
   <path d="M 0 432 
L 576 432 
L 576 0 
L 0 0 
z
" style="fill:#ffffff;"/>
  </g>
  <g id="axes_1">
   <g id="patch_2">
    <path d="M 72 388.8 
L 518.4 388.8 
L 518.4 43.2 
L 72 43.2 
z
" style="fill:#ffffff;"/>
   </g>
   <g id="line2d_1">
    <path clip-path="url(#pf76c955558)" d="M 79.44 298.5984 
L 86.88 240.8832 
L 94.32 204.5952 
L 101.76 177.6384 
L 109.2 162.0864 
L 116.64 149.6448 
L 124.08 142.7328 
L 131.52 138.9312 
L 138.96 135.1296 
L 146.4 132.7104 
L 153.84 130.2912 
L 161.28 129.2544 
L 168.72 128.9088 
L 176.16 128.2176 
L 183.6 126.8352 
L 191.04 126.144 
L 198.48 125.4528 
L 205.92 125.4528 
L 213.36 124.7616 
L 220.8 124.7616 
L 228.24 124.416 
L 235.68 124.416 
L 243.12 124.416 
L 250.56 124.416 
L 258 123.3792 
L 265.44 123.0336 
L 272.88 123.0336 
L 280.32 122.688 
L 287.76 122.688 
L 295.2 122.688 
L 302.64 122.688 
L 310.08 122.688 
L 317.52 122.688 
L 324.96 122.688 
L 332.4 122.688 
L 339.84 122.688 
L 347.28 122.688 
L 354.72 122.688 
L 362.16 122.688 
L 369.6 122.688 
L 377.04 122.688 
L 384.48 122.688 
L 391.92 122.688 
L 399.36 122.688 
L 406.8 122.688 
L 414.24 122.688 
L 421.68 122.688 
L 429.12 122.688 
L 436.56 122.688 
L 444 122.688 
L 451.44 122.688 
L 458.88 122.688 
L 466.32 122.688 
L 473.76 122.688 
L 481.2 122.688 
L 488.64 122.688 
L 496.08 122.688 
L 503.52 122.688 
L 510.96 122.688 
L 518.4 122.688 
" style="fill:none;stroke:#8000ff;stroke-linecap:square;"/>
   </g>
   <g id="line2d_2">
    <path clip-path="url(#pf76c955558)" d="M 79.44 229.824 
L 86.88 180.4032 
L 94.32 168.6528 
L 101.76 165.5424 
L 109.2 164.8512 
L 116.64 164.8512 
L 124.08 164.8512 
L 131.52 164.8512 
L 138.96 164.8512 
L 146.4 164.8512 
L 153.84 164.8512 
L 161.28 164.8512 
L 168.72 164.8512 
L 176.16 164.8512 
L 183.6 164.8512 
L 191.04 164.8512 
L 198.48 164.8512 
L 205.92 164.8512 
L 213.36 164.8512 
L 220.8 164.8512 
L 228.24 164.8512 
L 235.68 164.8512 
L 243.12 164.8512 
L 250.56 164.8512 
L 258 164.8512 
L 265.44 164.8512 
L 272.88 164.8512 
L 280.32 164.8512 
L 287.76 164.8512 
L 295.2 164.8512 
L 302.64 164.8512 
L 310.08 164.8512 
L 317.52 164.8512 
L 324.96 164.8512 
L 332.4 164.8512 
L 339.84 164.8512 
L 347.28 164.8512 
L 354.72 164.8512 
L 362.16 164.8512 
L 369.6 164.8512 
L 377.04 164.8512 
L 384.48 164.8512 
L 391.92 164.8512 
L 399.36 164.8512 
L 406.8 164.8512 
L 414.24 164.8512 
L 421.68 164.8512 
L 429.12 164.8512 
L 436.56 164.8512 
L 444 164.8512 
L 451.44 164.8512 
L 458.88 164.8512 
L 466.32 164.8512 
L 473.76 164.8512 
L 481.2 164.8512 
L 488.64 164.8512 
L 496.08 164.8512 
L 503.52 164.8512 
L 510.96 164.8512 
L 518.4 164.8512 
" style="fill:none;stroke:#5a3bfd;stroke-linecap:square;"/>
   </g>
   <g id="line2d_3">
    <path clip-path="url(#pf76c955558)" d="M 79.44 190.7712 
L 86.88 100.224 
L 94.32 71.5392 
L 101.76 63.5904 
L 109.2 62.208 
L 116.64 61.1712 
L 124.08 60.8256 
L 131.52 60.8256 
L 138.96 60.8256 
L 146.4 60.8256 
L 153.84 60.8256 
L 161.28 60.8256 
L 168.72 60.8256 
L 176.16 60.8256 
L 183.6 60.8256 
L 191.04 60.8256 
L 198.48 60.8256 
L 205.92 60.8256 
L 213.36 60.8256 
L 220.8 60.8256 
L 228.24 60.8256 
L 235.68 60.8256 
L 243.12 60.8256 
L 250.56 60.8256 
L 258 60.8256 
L 265.44 60.8256 
L 272.88 60.8256 
L 280.32 60.8256 
L 287.76 60.8256 
L 295.2 60.8256 
L 302.64 60.8256 
L 310.08 60.8256 
L 317.52 60.8256 
L 324.96 60.8256 
L 332.4 60.8256 
L 339.84 60.8256 
L 347.28 60.8256 
L 354.72 60.8256 
L 362.16 60.8256 
L 369.6 60.8256 
L 377.04 60.8256 
L 384.48 60.8256 
L 391.92 60.8256 
L 399.36 60.8256 
L 406.8 60.8256 
L 414.24 60.8256 
L 421.68 60.8256 
L 429.12 60.8256 
L 436.56 60.8256 
L 444 60.8256 
L 451.44 60.8256 
L 458.88 60.8256 
L 466.32 60.8256 
L 473.76 60.8256 
L 481.2 60.8256 
L 488.64 60.8256 
L 496.08 60.8256 
L 503.52 60.8256 
L 510.96 60.8256 
L 518.4 60.8256 
" style="fill:none;stroke:#3176f8;stroke-linecap:square;"/>
   </g>
   <g id="line2d_4">
    <path clip-path="url(#pf76c955558)" d="M 79.44 280.6272 
L 86.88 241.92 
L 94.32 224.9856 
L 101.76 219.1104 
L 109.2 215.3088 
L 116.64 214.6176 
L 124.08 214.272 
L 131.52 214.272 
L 138.96 214.272 
L 146.4 214.272 
L 153.84 214.272 
L 161.28 214.272 
L 168.72 214.272 
L 176.16 214.272 
L 183.6 214.272 
L 191.04 214.272 
L 198.48 214.272 
L 205.92 214.272 
L 213.36 214.272 
L 220.8 214.272 
L 228.24 214.272 
L 235.68 214.272 
L 243.12 214.272 
L 250.56 214.272 
L 258 214.272 
L 265.44 214.272 
L 272.88 214.272 
L 280.32 214.272 
L 287.76 214.272 
L 295.2 214.272 
L 302.64 214.272 
L 310.08 214.272 
L 317.52 214.272 
L 324.96 214.272 
L 332.4 214.272 
L 339.84 214.272 
L 347.28 214.272 
L 354.72 214.272 
L 362.16 214.272 
L 369.6 214.272 
L 377.04 214.272 
L 384.48 214.272 
L 391.92 214.272 
L 399.36 214.272 
L 406.8 214.272 
L 414.24 214.272 
L 421.68 214.272 
L 429.12 214.272 
L 436.56 214.272 
L 444 214.272 
L 451.44 214.272 
L 458.88 214.272 
L 466.32 214.272 
L 473.76 214.272 
L 481.2 214.272 
L 488.64 214.272 
L 496.08 214.272 
L 503.52 214.272 
L 510.96 214.272 
L 518.4 214.272 
" style="fill:none;stroke:#09a9ee;stroke-linecap:square;"/>
   </g>
   <g id="line2d_5">
    <path clip-path="url(#pf76c955558)" d="M 79.44 293.76 
L 86.88 269.568 
L 94.32 266.112 
L 101.76 263.3472 
L 109.2 263.0016 
L 116.64 263.0016 
L 124.08 263.0016 
L 131.52 263.0016 
L 138.96 263.0016 
L 146.4 263.0016 
L 153.84 263.0016 
L 161.28 263.0016 
L 168.72 263.0016 
L 176.16 263.0016 
L 183.6 263.0016 
L 191.04 263.0016 
L 198.48 263.0016 
L 205.92 263.0016 
L 213.36 263.0016 
L 220.8 263.0016 
L 228.24 263.0016 
L 235.68 263.0016 
L 243.12 263.0016 
L 250.56 263.0016 
L 258 263.0016 
L 265.44 263.0016 
L 272.88 263.0016 
L 280.32 263.0016 
L 287.76 263.0016 
L 295.2 263.0016 
L 302.64 263.0016 
L 310.08 263.0016 
L 317.52 263.0016 
L 324.96 263.0016 
L 332.4 263.0016 
L 339.84 263.0016 
L 347.28 263.0016 
L 354.72 263.0016 
L 362.16 263.0016 
L 369.6 263.0016 
L 377.04 263.0016 
L 384.48 263.0016 
L 391.92 263.0016 
L 399.36 263.0016 
L 406.8 263.0016 
L 414.24 263.0016 
L 421.68 263.0016 
L 429.12 263.0016 
L 436.56 263.0016 
L 444 263.0016 
L 451.44 263.0016 
L 458.88 263.0016 
L 466.32 263.0016 
L 473.76 263.0016 
L 481.2 263.0016 
L 488.64 263.0016 
L 496.08 263.0016 
L 503.52 263.0016 
L 510.96 263.0016 
L 518.4 263.0016 
" style="fill:none;stroke:#1dd1e2;stroke-linecap:square;"/>
   </g>
   <g id="line2d_6">
    <path clip-path="url(#pf76c955558)" d="M 79.44 374.6304 
L 86.88 370.8288 
L 94.32 370.8288 
L 101.76 370.4832 
L 109.2 370.4832 
L 116.64 370.4832 
L 124.08 370.4832 
L 131.52 370.4832 
L 138.96 370.4832 
L 146.4 370.4832 
L 153.84 370.4832 
L 161.28 370.4832 
L 168.72 370.4832 
L 176.16 370.4832 
L 183.6 370.4832 
L 191.04 370.4832 
L 198.48 370.4832 
L 205.92 370.4832 
L 213.36 370.4832 
L 220.8 370.4832 
L 228.24 370.4832 
L 235.68 370.4832 
L 243.12 370.4832 
L 250.56 370.4832 
L 258 370.4832 
L 265.44 370.4832 
L 272.88 370.4832 
L 280.32 370.4832 
L 287.76 370.4832 
L 295.2 370.4832 
L 302.64 370.4832 
L 310.08 370.4832 
L 317.52 370.4832 
L 324.96 370.4832 
L 332.4 370.4832 
L 339.84 370.4832 
L 347.28 370.4832 
L 354.72 370.4832 
L 362.16 370.4832 
L 369.6 370.4832 
L 377.04 370.4832 
L 384.48 370.4832 
L 391.92 370.4832 
L 399.36 370.4832 
L 406.8 370.4832 
L 414.24 370.4832 
L 421.68 370.4832 
L 429.12 370.4832 
L 436.56 370.4832 
L 444 370.4832 
L 451.44 370.4832 
L 458.88 370.4832 
L 466.32 370.4832 
L 473.76 370.4832 
L 481.2 370.4832 
L 488.64 370.4832 
L 496.08 370.4832 
L 503.52 370.4832 
L 510.96 370.4832 
L 518.4 370.4832 
" style="fill:none;stroke:#44eed2;stroke-linecap:square;"/>
   </g>
   <g id="line2d_7">
    <path clip-path="url(#pf76c955558)" d="M 79.44 323.136 
L 86.88 317.952 
L 94.32 317.6064 
L 101.76 317.6064 
L 109.2 317.6064 
L 116.64 317.6064 
L 124.08 317.6064 
L 131.52 317.6064 
L 138.96 317.6064 
L 146.4 317.6064 
L 153.84 317.6064 
L 161.28 317.6064 
L 168.72 317.6064 
L 176.16 317.6064 
L 183.6 317.6064 
L 191.04 317.6064 
L 198.48 317.6064 
L 205.92 317.6064 
L 213.36 317.6064 
L 220.8 317.6064 
L 228.24 317.6064 
L 235.68 317.6064 
L 243.12 317.6064 
L 250.56 317.6064 
L 258 317.6064 
L 265.44 317.6064 
L 272.88 317.6064 
L 280.32 317.6064 
L 287.76 317.6064 
L 295.2 317.6064 
L 302.64 317.6064 
L 310.08 317.6064 
L 317.52 317.6064 
L 324.96 317.6064 
L 332.4 317.6064 
L 339.84 317.6064 
L 347.28 317.6064 
L 354.72 317.6064 
L 362.16 317.6064 
L 369.6 317.6064 
L 377.04 317.6064 
L 384.48 317.6064 
L 391.92 317.6064 
L 399.36 317.6064 
L 406.8 317.6064 
L 414.24 317.6064 
L 421.68 317.6064 
L 429.12 317.6064 
L 436.56 317.6064 
L 444 317.6064 
L 451.44 317.6064 
L 458.88 317.6064 
L 466.32 317.6064 
L 473.76 317.6064 
L 481.2 317.6064 
L 488.64 317.6064 
L 496.08 317.6064 
L 503.52 317.6064 
L 510.96 317.6064 
L 518.4 317.6064 
" style="fill:none;stroke:#6dfdbf;stroke-linecap:square;"/>
   </g>
   <g id="line2d_8">
    <path clip-path="url(#pf76c955558)" d="M 79.44 233.9712 
L 86.88 185.9328 
L 94.32 177.2928 
L 101.76 174.8736 
L 109.2 174.1824 
L 116.64 174.1824 
L 124.08 174.1824 
L 131.52 173.8368 
L 138.96 173.8368 
L 146.4 173.8368 
L 153.84 173.8368 
L 161.28 173.8368 
L 168.72 173.4912 
L 176.16 173.4912 
L 183.6 173.1456 
L 191.04 173.1456 
L 198.48 173.1456 
L 205.92 173.1456 
L 213.36 173.1456 
L 220.8 173.1456 
L 228.24 173.1456 
L 235.68 173.1456 
L 243.12 173.1456 
L 250.56 173.1456 
L 258 172.8 
L 265.44 172.8 
L 272.88 172.8 
L 280.32 172.8 
L 287.76 172.8 
L 295.2 172.8 
L 302.64 172.8 
L 310.08 172.8 
L 317.52 172.8 
L 324.96 172.8 
L 332.4 172.8 
L 339.84 172.8 
L 347.28 172.8 
L 354.72 172.8 
L 362.16 172.8 
L 369.6 172.8 
L 377.04 172.8 
L 384.48 172.8 
L 391.92 172.8 
L 399.36 172.8 
L 406.8 172.8 
L 414.24 172.8 
L 421.68 172.8 
L 429.12 172.8 
L 436.56 172.8 
L 444 172.8 
L 451.44 172.8 
L 458.88 172.8 
L 466.32 172.8 
L 473.76 172.8 
L 481.2 172.8 
L 488.64 172.8 
L 496.08 172.8 
L 503.52 172.8 
L 510.96 172.8 
L 518.4 172.8 
" style="fill:none;stroke:#92fda9;stroke-linecap:square;"/>
   </g>
   <g id="line2d_9">
    <path clip-path="url(#pf76c955558)" d="M 79.44 298.5984 
L 86.88 280.2816 
L 94.32 275.0976 
L 101.76 275.0976 
L 109.2 275.0976 
L 116.64 275.0976 
L 124.08 275.0976 
L 131.52 275.0976 
L 138.96 275.0976 
L 146.4 275.0976 
L 153.84 275.0976 
L 161.28 275.0976 
L 168.72 275.0976 
L 176.16 275.0976 
L 183.6 275.0976 
L 191.04 275.0976 
L 198.48 275.0976 
L 205.92 275.0976 
L 213.36 275.0976 
L 220.8 275.0976 
L 228.24 275.0976 
L 235.68 275.0976 
L 243.12 275.0976 
L 250.56 275.0976 
L 258 275.0976 
L 265.44 275.0976 
L 272.88 275.0976 
L 280.32 275.0976 
L 287.76 275.0976 
L 295.2 275.0976 
L 302.64 275.0976 
L 310.08 275.0976 
L 317.52 275.0976 
L 324.96 275.0976 
L 332.4 275.0976 
L 339.84 275.0976 
L 347.28 275.0976 
L 354.72 275.0976 
L 362.16 275.0976 
L 369.6 275.0976 
L 377.04 275.0976 
L 384.48 275.0976 
L 391.92 275.0976 
L 399.36 275.0976 
L 406.8 275.0976 
L 414.24 275.0976 
L 421.68 275.0976 
L 429.12 275.0976 
L 436.56 275.0976 
L 444 275.0976 
L 451.44 275.0976 
L 458.88 275.0976 
L 466.32 275.0976 
L 473.76 275.0976 
L 481.2 275.0976 
L 488.64 275.0976 
L 496.08 275.0976 
L 503.52 275.0976 
L 510.96 275.0976 
L 518.4 275.0976 
" style="fill:none;stroke:#bbee91;stroke-linecap:square;"/>
   </g>
   <g id="line2d_10">
    <path clip-path="url(#pf76c955558)" d="M 79.44 233.28 
L 86.88 186.2784 
L 94.32 172.8 
L 101.76 170.7264 
L 109.2 170.3808 
L 116.64 170.3808 
L 124.08 170.3808 
L 131.52 170.3808 
L 138.96 170.3808 
L 146.4 170.3808 
L 153.84 170.3808 
L 161.28 170.3808 
L 168.72 170.3808 
L 176.16 170.3808 
L 183.6 170.3808 
L 191.04 170.3808 
L 198.48 170.3808 
L 205.92 170.3808 
L 213.36 170.3808 
L 220.8 170.3808 
L 228.24 170.3808 
L 235.68 170.3808 
L 243.12 170.3808 
L 250.56 170.3808 
L 258 170.3808 
L 265.44 170.3808 
L 272.88 170.3808 
L 280.32 170.3808 
L 287.76 170.3808 
L 295.2 170.3808 
L 302.64 170.3808 
L 310.08 170.3808 
L 317.52 170.3808 
L 324.96 170.3808 
L 332.4 170.3808 
L 339.84 170.3808 
L 347.28 170.3808 
L 354.72 170.3808 
L 362.16 170.3808 
L 369.6 170.3808 
L 377.04 170.3808 
L 384.48 170.3808 
L 391.92 170.3808 
L 399.36 170.3808 
L 406.8 170.3808 
L 414.24 170.3808 
L 421.68 170.3808 
L 429.12 170.3808 
L 436.56 170.3808 
L 444 170.3808 
L 451.44 170.3808 
L 458.88 170.3808 
L 466.32 170.3808 
L 473.76 170.3808 
L 481.2 170.3808 
L 488.64 170.3808 
L 496.08 170.3808 
L 503.52 170.3808 
L 510.96 170.3808 
L 518.4 170.3808 
" style="fill:none;stroke:#e2d176;stroke-linecap:square;"/>
   </g>
   <g id="line2d_11">
    <path clip-path="url(#pf76c955558)" d="M 79.44 312.0768 
L 86.88 292.7232 
L 94.32 288.9216 
L 101.76 287.1936 
L 109.2 287.1936 
L 116.64 287.1936 
L 124.08 287.1936 
L 131.52 287.1936 
L 138.96 287.1936 
L 146.4 287.1936 
L 153.84 287.1936 
L 161.28 287.1936 
L 168.72 287.1936 
L 176.16 287.1936 
L 183.6 287.1936 
L 191.04 287.1936 
L 198.48 287.1936 
L 205.92 287.1936 
L 213.36 287.1936 
L 220.8 287.1936 
L 228.24 287.1936 
L 235.68 287.1936 
L 243.12 287.1936 
L 250.56 287.1936 
L 258 287.1936 
L 265.44 287.1936 
L 272.88 287.1936 
L 280.32 287.1936 
L 287.76 287.1936 
L 295.2 287.1936 
L 302.64 287.1936 
L 310.08 287.1936 
L 317.52 287.1936 
L 324.96 287.1936 
L 332.4 287.1936 
L 339.84 287.1936 
L 347.28 287.1936 
L 354.72 287.1936 
L 362.16 287.1936 
L 369.6 287.1936 
L 377.04 287.1936 
L 384.48 287.1936 
L 391.92 287.1936 
L 399.36 287.1936 
L 406.8 287.1936 
L 414.24 287.1936 
L 421.68 287.1936 
L 429.12 287.1936 
L 436.56 287.1936 
L 444 287.1936 
L 451.44 287.1936 
L 458.88 287.1936 
L 466.32 287.1936 
L 473.76 287.1936 
L 481.2 287.1936 
L 488.64 287.1936 
L 496.08 287.1936 
L 503.52 287.1936 
L 510.96 287.1936 
L 518.4 287.1936 
" style="fill:none;stroke:#ffa95b;stroke-linecap:square;"/>
   </g>
   <g id="line2d_12">
    <path clip-path="url(#pf76c955558)" d="M 79.44 326.2464 
L 86.88 313.1136 
L 94.32 310.3488 
L 101.76 310.0032 
L 109.2 310.0032 
L 116.64 310.0032 
L 124.08 310.0032 
L 131.52 310.0032 
L 138.96 310.0032 
L 146.4 310.0032 
L 153.84 310.0032 
L 161.28 310.0032 
L 168.72 310.0032 
L 176.16 310.0032 
L 183.6 310.0032 
L 191.04 310.0032 
L 198.48 310.0032 
L 205.92 310.0032 
L 213.36 310.0032 
L 220.8 310.0032 
L 228.24 310.0032 
L 235.68 310.0032 
L 243.12 310.0032 
L 250.56 310.0032 
L 258 310.0032 
L 265.44 310.0032 
L 272.88 310.0032 
L 280.32 310.0032 
L 287.76 310.0032 
L 295.2 310.0032 
L 302.64 310.0032 
L 310.08 310.0032 
L 317.52 310.0032 
L 324.96 310.0032 
L 332.4 310.0032 
L 339.84 310.0032 
L 347.28 310.0032 
L 354.72 310.0032 
L 362.16 310.0032 
L 369.6 310.0032 
L 377.04 310.0032 
L 384.48 310.0032 
L 391.92 310.0032 
L 399.36 310.0032 
L 406.8 310.0032 
L 414.24 310.0032 
L 421.68 310.0032 
L 429.12 310.0032 
L 436.56 310.0032 
L 444 310.0032 
L 451.44 310.0032 
L 458.88 310.0032 
L 466.32 310.0032 
L 473.76 310.0032 
L 481.2 310.0032 
L 488.64 310.0032 
L 496.08 310.0032 
L 503.52 310.0032 
L 510.96 310.0032 
L 518.4 310.0032 
" style="fill:none;stroke:#ff763d;stroke-linecap:square;"/>
   </g>
   <g id="line2d_13">
    <path clip-path="url(#pf76c955558)" d="M 79.44 386.3808 
L 86.88 386.3808 
L 94.32 386.3808 
L 101.76 386.3808 
L 109.2 386.3808 
L 116.64 386.3808 
L 124.08 386.3808 
L 131.52 386.3808 
L 138.96 386.3808 
L 146.4 386.3808 
L 153.84 386.3808 
L 161.28 386.3808 
L 168.72 386.3808 
L 176.16 386.3808 
L 183.6 386.3808 
L 191.04 386.3808 
L 198.48 386.3808 
L 205.92 386.3808 
L 213.36 386.3808 
L 220.8 386.3808 
L 228.24 386.3808 
L 235.68 386.3808 
L 243.12 386.3808 
L 250.56 386.3808 
L 258 386.3808 
L 265.44 386.3808 
L 272.88 386.3808 
L 280.32 386.3808 
L 287.76 386.3808 
L 295.2 386.3808 
L 302.64 386.3808 
L 310.08 386.3808 
L 317.52 386.3808 
L 324.96 386.3808 
L 332.4 386.3808 
L 339.84 386.3808 
L 347.28 386.3808 
L 354.72 386.3808 
L 362.16 386.3808 
L 369.6 386.3808 
L 377.04 386.3808 
L 384.48 386.3808 
L 391.92 386.3808 
L 399.36 386.3808 
L 406.8 386.3808 
L 414.24 386.3808 
L 421.68 386.3808 
L 429.12 386.3808 
L 436.56 386.3808 
L 444 386.3808 
L 451.44 386.3808 
L 458.88 386.3808 
L 466.32 386.3808 
L 473.76 386.3808 
L 481.2 386.3808 
L 488.64 386.3808 
L 496.08 386.3808 
L 503.52 386.3808 
L 510.96 386.3808 
L 518.4 386.3808 
" style="fill:none;stroke:#ff3b1e;stroke-linecap:square;"/>
   </g>
   <g id="line2d_14">
    <path clip-path="url(#pf76c955558)" d="M 79.44 256.7808 
L 86.88 204.2496 
L 94.32 193.536 
L 101.76 190.08 
L 109.2 189.3888 
L 116.64 189.0432 
L 124.08 188.6976 
L 131.52 188.6976 
L 138.96 188.6976 
L 146.4 188.6976 
L 153.84 188.6976 
L 161.28 188.6976 
L 168.72 188.6976 
L 176.16 188.6976 
L 183.6 188.6976 
L 191.04 188.6976 
L 198.48 188.6976 
L 205.92 188.6976 
L 213.36 188.6976 
L 220.8 188.6976 
L 228.24 188.6976 
L 235.68 188.6976 
L 243.12 188.6976 
L 250.56 188.6976 
L 258 188.6976 
L 265.44 188.6976 
L 272.88 188.6976 
L 280.32 188.6976 
L 287.76 188.6976 
L 295.2 188.6976 
L 302.64 188.6976 
L 310.08 188.6976 
L 317.52 188.6976 
L 324.96 188.6976 
L 332.4 188.6976 
L 339.84 188.6976 
L 347.28 188.6976 
L 354.72 188.6976 
L 362.16 188.6976 
L 369.6 188.6976 
L 377.04 188.6976 
L 384.48 188.6976 
L 391.92 188.6976 
L 399.36 188.6976 
L 406.8 188.6976 
L 414.24 188.6976 
L 421.68 188.6976 
L 429.12 188.6976 
L 436.56 188.6976 
L 444 188.6976 
L 451.44 188.6976 
L 458.88 188.6976 
L 466.32 188.6976 
L 473.76 188.6976 
L 481.2 188.6976 
L 488.64 188.6976 
L 496.08 188.6976 
L 503.52 188.6976 
L 510.96 188.6976 
L 518.4 188.6976 
" style="fill:none;stroke:#ff0000;stroke-linecap:square;"/>
   </g>
   <g id="patch_3">
    <path d="M 72 388.8 
L 72 43.2 
" style="fill:none;stroke:#000000;stroke-linecap:square;stroke-linejoin:miter;"/>
   </g>
   <g id="patch_4">
    <path d="M 72 43.2 
L 518.4 43.2 
" style="fill:none;stroke:#000000;stroke-linecap:square;stroke-linejoin:miter;"/>
   </g>
   <g id="patch_5">
    <path d="M 72 388.8 
L 518.4 388.8 
" style="fill:none;stroke:#000000;stroke-linecap:square;stroke-linejoin:miter;"/>
   </g>
   <g id="patch_6">
    <path d="M 518.4 388.8 
L 518.4 43.2 
" style="fill:none;stroke:#000000;stroke-linecap:square;stroke-linejoin:miter;"/>
   </g>
   <g id="matplotlib.axis_1">
    <g id="xtick_1">
     <g id="line2d_15">
      <defs>
       <path d="M 0 0 
L 0 -4 
" id="m45fadf7536" style="stroke:#000000;stroke-width:0.5;"/>
      </defs>
      <g>
       <use style="stroke:#000000;stroke-width:0.5;" x="72.0" xlink:href="#m45fadf7536" y="388.8"/>
      </g>
     </g>
     <g id="line2d_16">
      <defs>
       <path d="M 0 0 
L 0 4 
" id="m9c8ca6f7e5" style="stroke:#000000;stroke-width:0.5;"/>
      </defs>
      <g>
       <use style="stroke:#000000;stroke-width:0.5;" x="72.0" xlink:href="#m9c8ca6f7e5" y="43.2"/>
      </g>
     </g>
     <g id="text_1">
      <!-- 0 -->
      <defs>
       <path d="M 31.78125 66.40625 
Q 24.171875 66.40625 20.328125 58.90625 
Q 16.5 51.421875 16.5 36.375 
Q 16.5 21.390625 20.328125 13.890625 
Q 24.171875 6.390625 31.78125 6.390625 
Q 39.453125 6.390625 43.28125 13.890625 
Q 47.125 21.390625 47.125 36.375 
Q 47.125 51.421875 43.28125 58.90625 
Q 39.453125 66.40625 31.78125 66.40625 
M 31.78125 74.21875 
Q 44.046875 74.21875 50.515625 64.515625 
Q 56.984375 54.828125 56.984375 36.375 
Q 56.984375 17.96875 50.515625 8.265625 
Q 44.046875 -1.421875 31.78125 -1.421875 
Q 19.53125 -1.421875 13.0625 8.265625 
Q 6.59375 17.96875 6.59375 36.375 
Q 6.59375 54.828125 13.0625 64.515625 
Q 19.53125 74.21875 31.78125 74.21875 
" id="BitstreamVeraSans-Roman-30"/>
      </defs>
      <g transform="translate(68.1825 401.918125)scale(0.12 -0.12)">
       <use xlink:href="#BitstreamVeraSans-Roman-30"/>
      </g>
     </g>
    </g>
    <g id="xtick_2">
     <g id="line2d_17">
      <g>
       <use style="stroke:#000000;stroke-width:0.5;" x="146.4" xlink:href="#m45fadf7536" y="388.8"/>
      </g>
     </g>
     <g id="line2d_18">
      <g>
       <use style="stroke:#000000;stroke-width:0.5;" x="146.4" xlink:href="#m9c8ca6f7e5" y="43.2"/>
      </g>
     </g>
     <g id="text_2">
      <!-- 10 -->
      <defs>
       <path d="M 12.40625 8.296875 
L 28.515625 8.296875 
L 28.515625 63.921875 
L 10.984375 60.40625 
L 10.984375 69.390625 
L 28.421875 72.90625 
L 38.28125 72.90625 
L 38.28125 8.296875 
L 54.390625 8.296875 
L 54.390625 0 
L 12.40625 0 
z
" id="BitstreamVeraSans-Roman-31"/>
      </defs>
      <g transform="translate(138.765 401.918125)scale(0.12 -0.12)">
       <use xlink:href="#BitstreamVeraSans-Roman-31"/>
       <use x="63.623046875" xlink:href="#BitstreamVeraSans-Roman-30"/>
      </g>
     </g>
    </g>
    <g id="xtick_3">
     <g id="line2d_19">
      <g>
       <use style="stroke:#000000;stroke-width:0.5;" x="220.8" xlink:href="#m45fadf7536" y="388.8"/>
      </g>
     </g>
     <g id="line2d_20">
      <g>
       <use style="stroke:#000000;stroke-width:0.5;" x="220.8" xlink:href="#m9c8ca6f7e5" y="43.2"/>
      </g>
     </g>
     <g id="text_3">
      <!-- 20 -->
      <defs>
       <path d="M 19.1875 8.296875 
L 53.609375 8.296875 
L 53.609375 0 
L 7.328125 0 
L 7.328125 8.296875 
Q 12.9375 14.109375 22.625 23.890625 
Q 32.328125 33.6875 34.8125 36.53125 
Q 39.546875 41.84375 41.421875 45.53125 
Q 43.3125 49.21875 43.3125 52.78125 
Q 43.3125 58.59375 39.234375 62.25 
Q 35.15625 65.921875 28.609375 65.921875 
Q 23.96875 65.921875 18.8125 64.3125 
Q 13.671875 62.703125 7.8125 59.421875 
L 7.8125 69.390625 
Q 13.765625 71.78125 18.9375 73 
Q 24.125 74.21875 28.421875 74.21875 
Q 39.75 74.21875 46.484375 68.546875 
Q 53.21875 62.890625 53.21875 53.421875 
Q 53.21875 48.921875 51.53125 44.890625 
Q 49.859375 40.875 45.40625 35.40625 
Q 44.1875 33.984375 37.640625 27.21875 
Q 31.109375 20.453125 19.1875 8.296875 
" id="BitstreamVeraSans-Roman-32"/>
      </defs>
      <g transform="translate(213.165 401.918125)scale(0.12 -0.12)">
       <use xlink:href="#BitstreamVeraSans-Roman-32"/>
       <use x="63.623046875" xlink:href="#BitstreamVeraSans-Roman-30"/>
      </g>
     </g>
    </g>
    <g id="xtick_4">
     <g id="line2d_21">
      <g>
       <use style="stroke:#000000;stroke-width:0.5;" x="295.2" xlink:href="#m45fadf7536" y="388.8"/>
      </g>
     </g>
     <g id="line2d_22">
      <g>
       <use style="stroke:#000000;stroke-width:0.5;" x="295.2" xlink:href="#m9c8ca6f7e5" y="43.2"/>
      </g>
     </g>
     <g id="text_4">
      <!-- 30 -->
      <defs>
       <path d="M 40.578125 39.3125 
Q 47.65625 37.796875 51.625 33 
Q 55.609375 28.21875 55.609375 21.1875 
Q 55.609375 10.40625 48.1875 4.484375 
Q 40.765625 -1.421875 27.09375 -1.421875 
Q 22.515625 -1.421875 17.65625 -0.515625 
Q 12.796875 0.390625 7.625 2.203125 
L 7.625 11.71875 
Q 11.71875 9.328125 16.59375 8.109375 
Q 21.484375 6.890625 26.8125 6.890625 
Q 36.078125 6.890625 40.9375 10.546875 
Q 45.796875 14.203125 45.796875 21.1875 
Q 45.796875 27.640625 41.28125 31.265625 
Q 36.765625 34.90625 28.71875 34.90625 
L 20.21875 34.90625 
L 20.21875 43.015625 
L 29.109375 43.015625 
Q 36.375 43.015625 40.234375 45.921875 
Q 44.09375 48.828125 44.09375 54.296875 
Q 44.09375 59.90625 40.109375 62.90625 
Q 36.140625 65.921875 28.71875 65.921875 
Q 24.65625 65.921875 20.015625 65.03125 
Q 15.375 64.15625 9.8125 62.3125 
L 9.8125 71.09375 
Q 15.4375 72.65625 20.34375 73.4375 
Q 25.25 74.21875 29.59375 74.21875 
Q 40.828125 74.21875 47.359375 69.109375 
Q 53.90625 64.015625 53.90625 55.328125 
Q 53.90625 49.265625 50.4375 45.09375 
Q 46.96875 40.921875 40.578125 39.3125 
" id="BitstreamVeraSans-Roman-33"/>
      </defs>
      <g transform="translate(287.565 401.918125)scale(0.12 -0.12)">
       <use xlink:href="#BitstreamVeraSans-Roman-33"/>
       <use x="63.623046875" xlink:href="#BitstreamVeraSans-Roman-30"/>
      </g>
     </g>
    </g>
    <g id="xtick_5">
     <g id="line2d_23">
      <g>
       <use style="stroke:#000000;stroke-width:0.5;" x="369.6" xlink:href="#m45fadf7536" y="388.8"/>
      </g>
     </g>
     <g id="line2d_24">
      <g>
       <use style="stroke:#000000;stroke-width:0.5;" x="369.6" xlink:href="#m9c8ca6f7e5" y="43.2"/>
      </g>
     </g>
     <g id="text_5">
      <!-- 40 -->
      <defs>
       <path d="M 37.796875 64.3125 
L 12.890625 25.390625 
L 37.796875 25.390625 
z
M 35.203125 72.90625 
L 47.609375 72.90625 
L 47.609375 25.390625 
L 58.015625 25.390625 
L 58.015625 17.1875 
L 47.609375 17.1875 
L 47.609375 0 
L 37.796875 0 
L 37.796875 17.1875 
L 4.890625 17.1875 
L 4.890625 26.703125 
z
" id="BitstreamVeraSans-Roman-34"/>
      </defs>
      <g transform="translate(361.965 401.918125)scale(0.12 -0.12)">
       <use xlink:href="#BitstreamVeraSans-Roman-34"/>
       <use x="63.623046875" xlink:href="#BitstreamVeraSans-Roman-30"/>
      </g>
     </g>
    </g>
    <g id="xtick_6">
     <g id="line2d_25">
      <g>
       <use style="stroke:#000000;stroke-width:0.5;" x="444.0" xlink:href="#m45fadf7536" y="388.8"/>
      </g>
     </g>
     <g id="line2d_26">
      <g>
       <use style="stroke:#000000;stroke-width:0.5;" x="444.0" xlink:href="#m9c8ca6f7e5" y="43.2"/>
      </g>
     </g>
     <g id="text_6">
      <!-- 50 -->
      <defs>
       <path d="M 10.796875 72.90625 
L 49.515625 72.90625 
L 49.515625 64.59375 
L 19.828125 64.59375 
L 19.828125 46.734375 
Q 21.96875 47.46875 24.109375 47.828125 
Q 26.265625 48.1875 28.421875 48.1875 
Q 40.625 48.1875 47.75 41.5 
Q 54.890625 34.8125 54.890625 23.390625 
Q 54.890625 11.625 47.5625 5.09375 
Q 40.234375 -1.421875 26.90625 -1.421875 
Q 22.3125 -1.421875 17.546875 -0.640625 
Q 12.796875 0.140625 7.71875 1.703125 
L 7.71875 11.625 
Q 12.109375 9.234375 16.796875 8.0625 
Q 21.484375 6.890625 26.703125 6.890625 
Q 35.15625 6.890625 40.078125 11.328125 
Q 45.015625 15.765625 45.015625 23.390625 
Q 45.015625 31 40.078125 35.4375 
Q 35.15625 39.890625 26.703125 39.890625 
Q 22.75 39.890625 18.8125 39.015625 
Q 14.890625 38.140625 10.796875 36.28125 
z
" id="BitstreamVeraSans-Roman-35"/>
      </defs>
      <g transform="translate(436.365 401.918125)scale(0.12 -0.12)">
       <use xlink:href="#BitstreamVeraSans-Roman-35"/>
       <use x="63.623046875" xlink:href="#BitstreamVeraSans-Roman-30"/>
      </g>
     </g>
    </g>
    <g id="xtick_7">
     <g id="line2d_27">
      <g>
       <use style="stroke:#000000;stroke-width:0.5;" x="518.4" xlink:href="#m45fadf7536" y="388.8"/>
      </g>
     </g>
     <g id="line2d_28">
      <g>
       <use style="stroke:#000000;stroke-width:0.5;" x="518.4" xlink:href="#m9c8ca6f7e5" y="43.2"/>
      </g>
     </g>
     <g id="text_7">
      <!-- 60 -->
      <defs>
       <path d="M 33.015625 40.375 
Q 26.375 40.375 22.484375 35.828125 
Q 18.609375 31.296875 18.609375 23.390625 
Q 18.609375 15.53125 22.484375 10.953125 
Q 26.375 6.390625 33.015625 6.390625 
Q 39.65625 6.390625 43.53125 10.953125 
Q 47.40625 15.53125 47.40625 23.390625 
Q 47.40625 31.296875 43.53125 35.828125 
Q 39.65625 40.375 33.015625 40.375 
M 52.59375 71.296875 
L 52.59375 62.3125 
Q 48.875 64.0625 45.09375 64.984375 
Q 41.3125 65.921875 37.59375 65.921875 
Q 27.828125 65.921875 22.671875 59.328125 
Q 17.53125 52.734375 16.796875 39.40625 
Q 19.671875 43.65625 24.015625 45.921875 
Q 28.375 48.1875 33.59375 48.1875 
Q 44.578125 48.1875 50.953125 41.515625 
Q 57.328125 34.859375 57.328125 23.390625 
Q 57.328125 12.15625 50.6875 5.359375 
Q 44.046875 -1.421875 33.015625 -1.421875 
Q 20.359375 -1.421875 13.671875 8.265625 
Q 6.984375 17.96875 6.984375 36.375 
Q 6.984375 53.65625 15.1875 63.9375 
Q 23.390625 74.21875 37.203125 74.21875 
Q 40.921875 74.21875 44.703125 73.484375 
Q 48.484375 72.75 52.59375 71.296875 
" id="BitstreamVeraSans-Roman-36"/>
      </defs>
      <g transform="translate(510.765 401.918125)scale(0.12 -0.12)">
       <use xlink:href="#BitstreamVeraSans-Roman-36"/>
       <use x="63.623046875" xlink:href="#BitstreamVeraSans-Roman-30"/>
      </g>
     </g>
    </g>
    <g id="text_8">
     <!-- number of words changed -->
     <defs>
      <path d="M 30.609375 48.390625 
Q 23.390625 48.390625 19.1875 42.75 
Q 14.984375 37.109375 14.984375 27.296875 
Q 14.984375 17.484375 19.15625 11.84375 
Q 23.34375 6.203125 30.609375 6.203125 
Q 37.796875 6.203125 41.984375 11.859375 
Q 46.1875 17.53125 46.1875 27.296875 
Q 46.1875 37.015625 41.984375 42.703125 
Q 37.796875 48.390625 30.609375 48.390625 
M 30.609375 56 
Q 42.328125 56 49.015625 48.375 
Q 55.71875 40.765625 55.71875 27.296875 
Q 55.71875 13.875 49.015625 6.21875 
Q 42.328125 -1.421875 30.609375 -1.421875 
Q 18.84375 -1.421875 12.171875 6.21875 
Q 5.515625 13.875 5.515625 27.296875 
Q 5.515625 40.765625 12.171875 48.375 
Q 18.84375 56 30.609375 56 
" id="BitstreamVeraSans-Roman-6f"/>
      <path d="M 41.109375 46.296875 
Q 39.59375 47.171875 37.8125 47.578125 
Q 36.03125 48 33.890625 48 
Q 26.265625 48 22.1875 43.046875 
Q 18.109375 38.09375 18.109375 28.8125 
L 18.109375 0 
L 9.078125 0 
L 9.078125 54.6875 
L 18.109375 54.6875 
L 18.109375 46.1875 
Q 20.953125 51.171875 25.484375 53.578125 
Q 30.03125 56 36.53125 56 
Q 37.453125 56 38.578125 55.875 
Q 39.703125 55.765625 41.0625 55.515625 
z
" id="BitstreamVeraSans-Roman-72"/>
      <path d="M 48.78125 52.59375 
L 48.78125 44.1875 
Q 44.96875 46.296875 41.140625 47.34375 
Q 37.3125 48.390625 33.40625 48.390625 
Q 24.65625 48.390625 19.8125 42.84375 
Q 14.984375 37.3125 14.984375 27.296875 
Q 14.984375 17.28125 19.8125 11.734375 
Q 24.65625 6.203125 33.40625 6.203125 
Q 37.3125 6.203125 41.140625 7.25 
Q 44.96875 8.296875 48.78125 10.40625 
L 48.78125 2.09375 
Q 45.015625 0.34375 40.984375 -0.53125 
Q 36.96875 -1.421875 32.421875 -1.421875 
Q 20.0625 -1.421875 12.78125 6.34375 
Q 5.515625 14.109375 5.515625 27.296875 
Q 5.515625 40.671875 12.859375 48.328125 
Q 20.21875 56 33.015625 56 
Q 37.15625 56 41.109375 55.140625 
Q 45.0625 54.296875 48.78125 52.59375 
" id="BitstreamVeraSans-Roman-63"/>
      <path d="M 37.109375 75.984375 
L 37.109375 68.5 
L 28.515625 68.5 
Q 23.6875 68.5 21.796875 66.546875 
Q 19.921875 64.59375 19.921875 59.515625 
L 19.921875 54.6875 
L 34.71875 54.6875 
L 34.71875 47.703125 
L 19.921875 47.703125 
L 19.921875 0 
L 10.890625 0 
L 10.890625 47.703125 
L 2.296875 47.703125 
L 2.296875 54.6875 
L 10.890625 54.6875 
L 10.890625 58.5 
Q 10.890625 67.625 15.140625 71.796875 
Q 19.390625 75.984375 28.609375 75.984375 
z
" id="BitstreamVeraSans-Roman-66"/>
      <path d="M 56.203125 29.59375 
L 56.203125 25.203125 
L 14.890625 25.203125 
Q 15.484375 15.921875 20.484375 11.0625 
Q 25.484375 6.203125 34.421875 6.203125 
Q 39.59375 6.203125 44.453125 7.46875 
Q 49.3125 8.734375 54.109375 11.28125 
L 54.109375 2.78125 
Q 49.265625 0.734375 44.1875 -0.34375 
Q 39.109375 -1.421875 33.890625 -1.421875 
Q 20.796875 -1.421875 13.15625 6.1875 
Q 5.515625 13.8125 5.515625 26.8125 
Q 5.515625 40.234375 12.765625 48.109375 
Q 20.015625 56 32.328125 56 
Q 43.359375 56 49.78125 48.890625 
Q 56.203125 41.796875 56.203125 29.59375 
M 47.21875 32.234375 
Q 47.125 39.59375 43.09375 43.984375 
Q 39.0625 48.390625 32.421875 48.390625 
Q 24.90625 48.390625 20.390625 44.140625 
Q 15.875 39.890625 15.1875 32.171875 
z
" id="BitstreamVeraSans-Roman-65"/>
      <path d="M 54.890625 33.015625 
L 54.890625 0 
L 45.90625 0 
L 45.90625 32.71875 
Q 45.90625 40.484375 42.875 44.328125 
Q 39.84375 48.1875 33.796875 48.1875 
Q 26.515625 48.1875 22.3125 43.546875 
Q 18.109375 38.921875 18.109375 30.90625 
L 18.109375 0 
L 9.078125 0 
L 9.078125 54.6875 
L 18.109375 54.6875 
L 18.109375 46.1875 
Q 21.34375 51.125 25.703125 53.5625 
Q 30.078125 56 35.796875 56 
Q 45.21875 56 50.046875 50.171875 
Q 54.890625 44.34375 54.890625 33.015625 
" id="BitstreamVeraSans-Roman-6e"/>
      <path d="M 45.40625 27.984375 
Q 45.40625 37.75 41.375 43.109375 
Q 37.359375 48.484375 30.078125 48.484375 
Q 22.859375 48.484375 18.828125 43.109375 
Q 14.796875 37.75 14.796875 27.984375 
Q 14.796875 18.265625 18.828125 12.890625 
Q 22.859375 7.515625 30.078125 7.515625 
Q 37.359375 7.515625 41.375 12.890625 
Q 45.40625 18.265625 45.40625 27.984375 
M 54.390625 6.78125 
Q 54.390625 -7.171875 48.1875 -13.984375 
Q 42 -20.796875 29.203125 -20.796875 
Q 24.46875 -20.796875 20.265625 -20.09375 
Q 16.0625 -19.390625 12.109375 -17.921875 
L 12.109375 -9.1875 
Q 16.0625 -11.328125 19.921875 -12.34375 
Q 23.78125 -13.375 27.78125 -13.375 
Q 36.625 -13.375 41.015625 -8.765625 
Q 45.40625 -4.15625 45.40625 5.171875 
L 45.40625 9.625 
Q 42.625 4.78125 38.28125 2.390625 
Q 33.9375 0 27.875 0 
Q 17.828125 0 11.671875 7.65625 
Q 5.515625 15.328125 5.515625 27.984375 
Q 5.515625 40.671875 11.671875 48.328125 
Q 17.828125 56 27.875 56 
Q 33.9375 56 38.28125 53.609375 
Q 42.625 51.21875 45.40625 46.390625 
L 45.40625 54.6875 
L 54.390625 54.6875 
z
" id="BitstreamVeraSans-Roman-67"/>
      <path d="M 54.890625 33.015625 
L 54.890625 0 
L 45.90625 0 
L 45.90625 32.71875 
Q 45.90625 40.484375 42.875 44.328125 
Q 39.84375 48.1875 33.796875 48.1875 
Q 26.515625 48.1875 22.3125 43.546875 
Q 18.109375 38.921875 18.109375 30.90625 
L 18.109375 0 
L 9.078125 0 
L 9.078125 75.984375 
L 18.109375 75.984375 
L 18.109375 46.1875 
Q 21.34375 51.125 25.703125 53.5625 
Q 30.078125 56 35.796875 56 
Q 45.21875 56 50.046875 50.171875 
Q 54.890625 44.34375 54.890625 33.015625 
" id="BitstreamVeraSans-Roman-68"/>
      <path d="M 4.203125 54.6875 
L 13.1875 54.6875 
L 24.421875 12.015625 
L 35.59375 54.6875 
L 46.1875 54.6875 
L 57.421875 12.015625 
L 68.609375 54.6875 
L 77.59375 54.6875 
L 63.28125 0 
L 52.6875 0 
L 40.921875 44.828125 
L 29.109375 0 
L 18.5 0 
z
" id="BitstreamVeraSans-Roman-77"/>
      <path d="M 48.6875 27.296875 
Q 48.6875 37.203125 44.609375 42.84375 
Q 40.53125 48.484375 33.40625 48.484375 
Q 26.265625 48.484375 22.1875 42.84375 
Q 18.109375 37.203125 18.109375 27.296875 
Q 18.109375 17.390625 22.1875 11.75 
Q 26.265625 6.109375 33.40625 6.109375 
Q 40.53125 6.109375 44.609375 11.75 
Q 48.6875 17.390625 48.6875 27.296875 
M 18.109375 46.390625 
Q 20.953125 51.265625 25.265625 53.625 
Q 29.59375 56 35.59375 56 
Q 45.5625 56 51.78125 48.09375 
Q 58.015625 40.1875 58.015625 27.296875 
Q 58.015625 14.40625 51.78125 6.484375 
Q 45.5625 -1.421875 35.59375 -1.421875 
Q 29.59375 -1.421875 25.265625 0.953125 
Q 20.953125 3.328125 18.109375 8.203125 
L 18.109375 0 
L 9.078125 0 
L 9.078125 75.984375 
L 18.109375 75.984375 
z
" id="BitstreamVeraSans-Roman-62"/>
      <path d="M 52 44.1875 
Q 55.375 50.25 60.0625 53.125 
Q 64.75 56 71.09375 56 
Q 79.640625 56 84.28125 50.015625 
Q 88.921875 44.046875 88.921875 33.015625 
L 88.921875 0 
L 79.890625 0 
L 79.890625 32.71875 
Q 79.890625 40.578125 77.09375 44.375 
Q 74.3125 48.1875 68.609375 48.1875 
Q 61.625 48.1875 57.5625 43.546875 
Q 53.515625 38.921875 53.515625 30.90625 
L 53.515625 0 
L 44.484375 0 
L 44.484375 32.71875 
Q 44.484375 40.625 41.703125 44.40625 
Q 38.921875 48.1875 33.109375 48.1875 
Q 26.21875 48.1875 22.15625 43.53125 
Q 18.109375 38.875 18.109375 30.90625 
L 18.109375 0 
L 9.078125 0 
L 9.078125 54.6875 
L 18.109375 54.6875 
L 18.109375 46.1875 
Q 21.1875 51.21875 25.484375 53.609375 
Q 29.78125 56 35.6875 56 
Q 41.65625 56 45.828125 52.96875 
Q 50 49.953125 52 44.1875 
" id="BitstreamVeraSans-Roman-6d"/>
      <path id="BitstreamVeraSans-Roman-20"/>
      <path d="M 8.5 21.578125 
L 8.5 54.6875 
L 17.484375 54.6875 
L 17.484375 21.921875 
Q 17.484375 14.15625 20.5 10.265625 
Q 23.53125 6.390625 29.59375 6.390625 
Q 36.859375 6.390625 41.078125 11.03125 
Q 45.3125 15.671875 45.3125 23.6875 
L 45.3125 54.6875 
L 54.296875 54.6875 
L 54.296875 0 
L 45.3125 0 
L 45.3125 8.40625 
Q 42.046875 3.421875 37.71875 1 
Q 33.40625 -1.421875 27.6875 -1.421875 
Q 18.265625 -1.421875 13.375 4.4375 
Q 8.5 10.296875 8.5 21.578125 
" id="BitstreamVeraSans-Roman-75"/>
      <path d="M 45.40625 46.390625 
L 45.40625 75.984375 
L 54.390625 75.984375 
L 54.390625 0 
L 45.40625 0 
L 45.40625 8.203125 
Q 42.578125 3.328125 38.25 0.953125 
Q 33.9375 -1.421875 27.875 -1.421875 
Q 17.96875 -1.421875 11.734375 6.484375 
Q 5.515625 14.40625 5.515625 27.296875 
Q 5.515625 40.1875 11.734375 48.09375 
Q 17.96875 56 27.875 56 
Q 33.9375 56 38.25 53.625 
Q 42.578125 51.265625 45.40625 46.390625 
M 14.796875 27.296875 
Q 14.796875 17.390625 18.875 11.75 
Q 22.953125 6.109375 30.078125 6.109375 
Q 37.203125 6.109375 41.296875 11.75 
Q 45.40625 17.390625 45.40625 27.296875 
Q 45.40625 37.203125 41.296875 42.84375 
Q 37.203125 48.484375 30.078125 48.484375 
Q 22.953125 48.484375 18.875 42.84375 
Q 14.796875 37.203125 14.796875 27.296875 
" id="BitstreamVeraSans-Roman-64"/>
      <path d="M 44.28125 53.078125 
L 44.28125 44.578125 
Q 40.484375 46.53125 36.375 47.5 
Q 32.28125 48.484375 27.875 48.484375 
Q 21.1875 48.484375 17.84375 46.4375 
Q 14.5 44.390625 14.5 40.28125 
Q 14.5 37.15625 16.890625 35.375 
Q 19.28125 33.59375 26.515625 31.984375 
L 29.59375 31.296875 
Q 39.15625 29.25 43.1875 25.515625 
Q 47.21875 21.78125 47.21875 15.09375 
Q 47.21875 7.46875 41.1875 3.015625 
Q 35.15625 -1.421875 24.609375 -1.421875 
Q 20.21875 -1.421875 15.453125 -0.5625 
Q 10.6875 0.296875 5.421875 2 
L 5.421875 11.28125 
Q 10.40625 8.6875 15.234375 7.390625 
Q 20.0625 6.109375 24.8125 6.109375 
Q 31.15625 6.109375 34.5625 8.28125 
Q 37.984375 10.453125 37.984375 14.40625 
Q 37.984375 18.0625 35.515625 20.015625 
Q 33.0625 21.96875 24.703125 23.78125 
L 21.578125 24.515625 
Q 13.234375 26.265625 9.515625 29.90625 
Q 5.8125 33.546875 5.8125 39.890625 
Q 5.8125 47.609375 11.28125 51.796875 
Q 16.75 56 26.8125 56 
Q 31.78125 56 36.171875 55.265625 
Q 40.578125 54.546875 44.28125 53.078125 
" id="BitstreamVeraSans-Roman-73"/>
      <path d="M 34.28125 27.484375 
Q 23.390625 27.484375 19.1875 25 
Q 14.984375 22.515625 14.984375 16.5 
Q 14.984375 11.71875 18.140625 8.90625 
Q 21.296875 6.109375 26.703125 6.109375 
Q 34.1875 6.109375 38.703125 11.40625 
Q 43.21875 16.703125 43.21875 25.484375 
L 43.21875 27.484375 
z
M 52.203125 31.203125 
L 52.203125 0 
L 43.21875 0 
L 43.21875 8.296875 
Q 40.140625 3.328125 35.546875 0.953125 
Q 30.953125 -1.421875 24.3125 -1.421875 
Q 15.921875 -1.421875 10.953125 3.296875 
Q 6 8.015625 6 15.921875 
Q 6 25.140625 12.171875 29.828125 
Q 18.359375 34.515625 30.609375 34.515625 
L 43.21875 34.515625 
L 43.21875 35.40625 
Q 43.21875 41.609375 39.140625 45 
Q 35.0625 48.390625 27.6875 48.390625 
Q 23 48.390625 18.546875 47.265625 
Q 14.109375 46.140625 10.015625 43.890625 
L 10.015625 52.203125 
Q 14.9375 54.109375 19.578125 55.046875 
Q 24.21875 56 28.609375 56 
Q 40.484375 56 46.34375 49.84375 
Q 52.203125 43.703125 52.203125 31.203125 
" id="BitstreamVeraSans-Roman-61"/>
     </defs>
     <g transform="translate(216.4096875 418.531875)scale(0.12 -0.12)">
      <use xlink:href="#BitstreamVeraSans-Roman-6e"/>
      <use x="63.37890625" xlink:href="#BitstreamVeraSans-Roman-75"/>
      <use x="126.7578125" xlink:href="#BitstreamVeraSans-Roman-6d"/>
      <use x="224.169921875" xlink:href="#BitstreamVeraSans-Roman-62"/>
      <use x="287.646484375" xlink:href="#BitstreamVeraSans-Roman-65"/>
      <use x="349.169921875" xlink:href="#BitstreamVeraSans-Roman-72"/>
      <use x="390.283203125" xlink:href="#BitstreamVeraSans-Roman-20"/>
      <use x="422.0703125" xlink:href="#BitstreamVeraSans-Roman-6f"/>
      <use x="483.251953125" xlink:href="#BitstreamVeraSans-Roman-66"/>
      <use x="518.45703125" xlink:href="#BitstreamVeraSans-Roman-20"/>
      <use x="550.244140625" xlink:href="#BitstreamVeraSans-Roman-77"/>
      <use x="632.03125" xlink:href="#BitstreamVeraSans-Roman-6f"/>
      <use x="693.212890625" xlink:href="#BitstreamVeraSans-Roman-72"/>
      <use x="734.310546875" xlink:href="#BitstreamVeraSans-Roman-64"/>
      <use x="797.787109375" xlink:href="#BitstreamVeraSans-Roman-73"/>
      <use x="849.88671875" xlink:href="#BitstreamVeraSans-Roman-20"/>
      <use x="881.673828125" xlink:href="#BitstreamVeraSans-Roman-63"/>
      <use x="936.654296875" xlink:href="#BitstreamVeraSans-Roman-68"/>
      <use x="1000.033203125" xlink:href="#BitstreamVeraSans-Roman-61"/>
      <use x="1061.3125" xlink:href="#BitstreamVeraSans-Roman-6e"/>
      <use x="1124.69140625" xlink:href="#BitstreamVeraSans-Roman-67"/>
      <use x="1188.16796875" xlink:href="#BitstreamVeraSans-Roman-65"/>
      <use x="1249.69140625" xlink:href="#BitstreamVeraSans-Roman-64"/>
     </g>
    </g>
   </g>
   <g id="matplotlib.axis_2">
    <g id="ytick_1">
     <g id="line2d_29">
      <defs>
       <path d="M 0 0 
L 4 0 
" id="m694cf4bb6e" style="stroke:#000000;stroke-width:0.5;"/>
      </defs>
      <g>
       <use style="stroke:#000000;stroke-width:0.5;" x="72.0" xlink:href="#m694cf4bb6e" y="388.8"/>
      </g>
     </g>
     <g id="line2d_30">
      <defs>
       <path d="M 0 0 
L -4 0 
" id="mc2cf7ecb61" style="stroke:#000000;stroke-width:0.5;"/>
      </defs>
      <g>
       <use style="stroke:#000000;stroke-width:0.5;" x="518.4" xlink:href="#mc2cf7ecb61" y="388.8"/>
      </g>
     </g>
     <g id="text_9">
      <!-- 0 -->
      <g transform="translate(60.365 392.11125)scale(0.12 -0.12)">
       <use xlink:href="#BitstreamVeraSans-Roman-30"/>
      </g>
     </g>
    </g>
    <g id="ytick_2">
     <g id="line2d_31">
      <g>
       <use style="stroke:#000000;stroke-width:0.5;" x="72.0" xlink:href="#m694cf4bb6e" y="319.68"/>
      </g>
     </g>
     <g id="line2d_32">
      <g>
       <use style="stroke:#000000;stroke-width:0.5;" x="518.4" xlink:href="#mc2cf7ecb61" y="319.68"/>
      </g>
     </g>
     <g id="text_10">
      <!-- 200 -->
      <g transform="translate(45.095 322.99125)scale(0.12 -0.12)">
       <use xlink:href="#BitstreamVeraSans-Roman-32"/>
       <use x="63.623046875" xlink:href="#BitstreamVeraSans-Roman-30"/>
       <use x="127.24609375" xlink:href="#BitstreamVeraSans-Roman-30"/>
      </g>
     </g>
    </g>
    <g id="ytick_3">
     <g id="line2d_33">
      <g>
       <use style="stroke:#000000;stroke-width:0.5;" x="72.0" xlink:href="#m694cf4bb6e" y="250.56"/>
      </g>
     </g>
     <g id="line2d_34">
      <g>
       <use style="stroke:#000000;stroke-width:0.5;" x="518.4" xlink:href="#mc2cf7ecb61" y="250.56"/>
      </g>
     </g>
     <g id="text_11">
      <!-- 400 -->
      <g transform="translate(45.095 253.87125)scale(0.12 -0.12)">
       <use xlink:href="#BitstreamVeraSans-Roman-34"/>
       <use x="63.623046875" xlink:href="#BitstreamVeraSans-Roman-30"/>
       <use x="127.24609375" xlink:href="#BitstreamVeraSans-Roman-30"/>
      </g>
     </g>
    </g>
    <g id="ytick_4">
     <g id="line2d_35">
      <g>
       <use style="stroke:#000000;stroke-width:0.5;" x="72.0" xlink:href="#m694cf4bb6e" y="181.44"/>
      </g>
     </g>
     <g id="line2d_36">
      <g>
       <use style="stroke:#000000;stroke-width:0.5;" x="518.4" xlink:href="#mc2cf7ecb61" y="181.44"/>
      </g>
     </g>
     <g id="text_12">
      <!-- 600 -->
      <g transform="translate(45.095 184.75125)scale(0.12 -0.12)">
       <use xlink:href="#BitstreamVeraSans-Roman-36"/>
       <use x="63.623046875" xlink:href="#BitstreamVeraSans-Roman-30"/>
       <use x="127.24609375" xlink:href="#BitstreamVeraSans-Roman-30"/>
      </g>
     </g>
    </g>
    <g id="ytick_5">
     <g id="line2d_37">
      <g>
       <use style="stroke:#000000;stroke-width:0.5;" x="72.0" xlink:href="#m694cf4bb6e" y="112.32"/>
      </g>
     </g>
     <g id="line2d_38">
      <g>
       <use style="stroke:#000000;stroke-width:0.5;" x="518.4" xlink:href="#mc2cf7ecb61" y="112.32"/>
      </g>
     </g>
     <g id="text_13">
      <!-- 800 -->
      <defs>
       <path d="M 31.78125 34.625 
Q 24.75 34.625 20.71875 30.859375 
Q 16.703125 27.09375 16.703125 20.515625 
Q 16.703125 13.921875 20.71875 10.15625 
Q 24.75 6.390625 31.78125 6.390625 
Q 38.8125 6.390625 42.859375 10.171875 
Q 46.921875 13.96875 46.921875 20.515625 
Q 46.921875 27.09375 42.890625 30.859375 
Q 38.875 34.625 31.78125 34.625 
M 21.921875 38.8125 
Q 15.578125 40.375 12.03125 44.71875 
Q 8.5 49.078125 8.5 55.328125 
Q 8.5 64.0625 14.71875 69.140625 
Q 20.953125 74.21875 31.78125 74.21875 
Q 42.671875 74.21875 48.875 69.140625 
Q 55.078125 64.0625 55.078125 55.328125 
Q 55.078125 49.078125 51.53125 44.71875 
Q 48 40.375 41.703125 38.8125 
Q 48.828125 37.15625 52.796875 32.3125 
Q 56.78125 27.484375 56.78125 20.515625 
Q 56.78125 9.90625 50.3125 4.234375 
Q 43.84375 -1.421875 31.78125 -1.421875 
Q 19.734375 -1.421875 13.25 4.234375 
Q 6.78125 9.90625 6.78125 20.515625 
Q 6.78125 27.484375 10.78125 32.3125 
Q 14.796875 37.15625 21.921875 38.8125 
M 18.3125 54.390625 
Q 18.3125 48.734375 21.84375 45.5625 
Q 25.390625 42.390625 31.78125 42.390625 
Q 38.140625 42.390625 41.71875 45.5625 
Q 45.3125 48.734375 45.3125 54.390625 
Q 45.3125 60.0625 41.71875 63.234375 
Q 38.140625 66.40625 31.78125 66.40625 
Q 25.390625 66.40625 21.84375 63.234375 
Q 18.3125 60.0625 18.3125 54.390625 
" id="BitstreamVeraSans-Roman-38"/>
      </defs>
      <g transform="translate(45.095 115.63125)scale(0.12 -0.12)">
       <use xlink:href="#BitstreamVeraSans-Roman-38"/>
       <use x="63.623046875" xlink:href="#BitstreamVeraSans-Roman-30"/>
       <use x="127.24609375" xlink:href="#BitstreamVeraSans-Roman-30"/>
      </g>
     </g>
    </g>
    <g id="ytick_6">
     <g id="line2d_39">
      <g>
       <use style="stroke:#000000;stroke-width:0.5;" x="72.0" xlink:href="#m694cf4bb6e" y="43.2"/>
      </g>
     </g>
     <g id="line2d_40">
      <g>
       <use style="stroke:#000000;stroke-width:0.5;" x="518.4" xlink:href="#mc2cf7ecb61" y="43.2"/>
      </g>
     </g>
     <g id="text_14">
      <!-- 1000 -->
      <g transform="translate(37.46 46.51125)scale(0.12 -0.12)">
       <use xlink:href="#BitstreamVeraSans-Roman-31"/>
       <use x="63.623046875" xlink:href="#BitstreamVeraSans-Roman-30"/>
       <use x="127.24609375" xlink:href="#BitstreamVeraSans-Roman-30"/>
       <use x="190.869140625" xlink:href="#BitstreamVeraSans-Roman-30"/>
      </g>
     </g>
    </g>
    <g id="text_15">
     <!-- amount -->
     <defs>
      <path d="M 18.3125 70.21875 
L 18.3125 54.6875 
L 36.8125 54.6875 
L 36.8125 47.703125 
L 18.3125 47.703125 
L 18.3125 18.015625 
Q 18.3125 11.328125 20.140625 9.421875 
Q 21.96875 7.515625 27.59375 7.515625 
L 36.8125 7.515625 
L 36.8125 0 
L 27.59375 0 
Q 17.1875 0 13.234375 3.875 
Q 9.28125 7.765625 9.28125 18.015625 
L 9.28125 47.703125 
L 2.6875 47.703125 
L 2.6875 54.6875 
L 9.28125 54.6875 
L 9.28125 70.21875 
z
" id="BitstreamVeraSans-Roman-74"/>
     </defs>
     <g transform="translate(29.964375 239.1496875)rotate(-90.0)scale(0.12 -0.12)">
      <use xlink:href="#BitstreamVeraSans-Roman-61"/>
      <use x="61.279296875" xlink:href="#BitstreamVeraSans-Roman-6d"/>
      <use x="158.69140625" xlink:href="#BitstreamVeraSans-Roman-6f"/>
      <use x="219.873046875" xlink:href="#BitstreamVeraSans-Roman-75"/>
      <use x="283.251953125" xlink:href="#BitstreamVeraSans-Roman-6e"/>
      <use x="346.630859375" xlink:href="#BitstreamVeraSans-Roman-74"/>
     </g>
    </g>
   </g>
   <g id="text_16">
    <!-- accumulative number of sentences by words changed per -->
    <defs>
     <path d="M 9.421875 54.6875 
L 18.40625 54.6875 
L 18.40625 0 
L 9.421875 0 
z
M 9.421875 75.984375 
L 18.40625 75.984375 
L 18.40625 64.59375 
L 9.421875 64.59375 
z
" id="BitstreamVeraSans-Roman-69"/>
     <path d="M 32.171875 -5.078125 
Q 28.375 -14.84375 24.75 -17.8125 
Q 21.140625 -20.796875 15.09375 -20.796875 
L 7.90625 -20.796875 
L 7.90625 -13.28125 
L 13.1875 -13.28125 
Q 16.890625 -13.28125 18.9375 -11.515625 
Q 21 -9.765625 23.484375 -3.21875 
L 25.09375 0.875 
L 2.984375 54.6875 
L 12.5 54.6875 
L 29.59375 11.921875 
L 46.6875 54.6875 
L 56.203125 54.6875 
z
" id="BitstreamVeraSans-Roman-79"/>
     <path d="M 2.984375 54.6875 
L 12.5 54.6875 
L 29.59375 8.796875 
L 46.6875 54.6875 
L 56.203125 54.6875 
L 35.6875 0 
L 23.484375 0 
z
" id="BitstreamVeraSans-Roman-76"/>
     <path d="M 18.109375 8.203125 
L 18.109375 -20.796875 
L 9.078125 -20.796875 
L 9.078125 54.6875 
L 18.109375 54.6875 
L 18.109375 46.390625 
Q 20.953125 51.265625 25.265625 53.625 
Q 29.59375 56 35.59375 56 
Q 45.5625 56 51.78125 48.09375 
Q 58.015625 40.1875 58.015625 27.296875 
Q 58.015625 14.40625 51.78125 6.484375 
Q 45.5625 -1.421875 35.59375 -1.421875 
Q 29.59375 -1.421875 25.265625 0.953125 
Q 20.953125 3.328125 18.109375 8.203125 
M 48.6875 27.296875 
Q 48.6875 37.203125 44.609375 42.84375 
Q 40.53125 48.484375 33.40625 48.484375 
Q 26.265625 48.484375 22.1875 42.84375 
Q 18.109375 37.203125 18.109375 27.296875 
Q 18.109375 17.390625 22.1875 11.75 
Q 26.265625 6.109375 33.40625 6.109375 
Q 40.53125 6.109375 44.609375 11.75 
Q 48.6875 17.390625 48.6875 27.296875 
" id="BitstreamVeraSans-Roman-70"/>
     <path d="M 9.421875 75.984375 
L 18.40625 75.984375 
L 18.40625 0 
L 9.421875 0 
z
" id="BitstreamVeraSans-Roman-6c"/>
    </defs>
    <g transform="translate(85.609125 38.2)scale(0.144 -0.144)">
     <use xlink:href="#BitstreamVeraSans-Roman-61"/>
     <use x="61.279296875" xlink:href="#BitstreamVeraSans-Roman-63"/>
     <use x="116.259765625" xlink:href="#BitstreamVeraSans-Roman-63"/>
     <use x="171.240234375" xlink:href="#BitstreamVeraSans-Roman-75"/>
     <use x="234.619140625" xlink:href="#BitstreamVeraSans-Roman-6d"/>
     <use x="332.03125" xlink:href="#BitstreamVeraSans-Roman-75"/>
     <use x="395.41015625" xlink:href="#BitstreamVeraSans-Roman-6c"/>
     <use x="423.193359375" xlink:href="#BitstreamVeraSans-Roman-61"/>
     <use x="484.47265625" xlink:href="#BitstreamVeraSans-Roman-74"/>
     <use x="523.681640625" xlink:href="#BitstreamVeraSans-Roman-69"/>
     <use x="551.46484375" xlink:href="#BitstreamVeraSans-Roman-76"/>
     <use x="610.64453125" xlink:href="#BitstreamVeraSans-Roman-65"/>
     <use x="672.16796875" xlink:href="#BitstreamVeraSans-Roman-20"/>
     <use x="703.955078125" xlink:href="#BitstreamVeraSans-Roman-6e"/>
     <use x="767.333984375" xlink:href="#BitstreamVeraSans-Roman-75"/>
     <use x="830.712890625" xlink:href="#BitstreamVeraSans-Roman-6d"/>
     <use x="928.125" xlink:href="#BitstreamVeraSans-Roman-62"/>
     <use x="991.6015625" xlink:href="#BitstreamVeraSans-Roman-65"/>
     <use x="1053.125" xlink:href="#BitstreamVeraSans-Roman-72"/>
     <use x="1094.23828125" xlink:href="#BitstreamVeraSans-Roman-20"/>
     <use x="1126.025390625" xlink:href="#BitstreamVeraSans-Roman-6f"/>
     <use x="1187.20703125" xlink:href="#BitstreamVeraSans-Roman-66"/>
     <use x="1222.412109375" xlink:href="#BitstreamVeraSans-Roman-20"/>
     <use x="1254.19921875" xlink:href="#BitstreamVeraSans-Roman-73"/>
     <use x="1306.298828125" xlink:href="#BitstreamVeraSans-Roman-65"/>
     <use x="1367.822265625" xlink:href="#BitstreamVeraSans-Roman-6e"/>
     <use x="1431.201171875" xlink:href="#BitstreamVeraSans-Roman-74"/>
     <use x="1470.41015625" xlink:href="#BitstreamVeraSans-Roman-65"/>
     <use x="1531.93359375" xlink:href="#BitstreamVeraSans-Roman-6e"/>
     <use x="1595.3125" xlink:href="#BitstreamVeraSans-Roman-63"/>
     <use x="1650.29296875" xlink:href="#BitstreamVeraSans-Roman-65"/>
     <use x="1711.81640625" xlink:href="#BitstreamVeraSans-Roman-73"/>
     <use x="1763.916015625" xlink:href="#BitstreamVeraSans-Roman-20"/>
     <use x="1795.703125" xlink:href="#BitstreamVeraSans-Roman-62"/>
     <use x="1859.1796875" xlink:href="#BitstreamVeraSans-Roman-79"/>
     <use x="1918.359375" xlink:href="#BitstreamVeraSans-Roman-20"/>
     <use x="1950.146484375" xlink:href="#BitstreamVeraSans-Roman-77"/>
     <use x="2031.93359375" xlink:href="#BitstreamVeraSans-Roman-6f"/>
     <use x="2093.115234375" xlink:href="#BitstreamVeraSans-Roman-72"/>
     <use x="2134.212890625" xlink:href="#BitstreamVeraSans-Roman-64"/>
     <use x="2197.689453125" xlink:href="#BitstreamVeraSans-Roman-73"/>
     <use x="2249.7890625" xlink:href="#BitstreamVeraSans-Roman-20"/>
     <use x="2281.576171875" xlink:href="#BitstreamVeraSans-Roman-63"/>
     <use x="2336.556640625" xlink:href="#BitstreamVeraSans-Roman-68"/>
     <use x="2399.935546875" xlink:href="#BitstreamVeraSans-Roman-61"/>
     <use x="2461.21484375" xlink:href="#BitstreamVeraSans-Roman-6e"/>
     <use x="2524.59375" xlink:href="#BitstreamVeraSans-Roman-67"/>
     <use x="2588.0703125" xlink:href="#BitstreamVeraSans-Roman-65"/>
     <use x="2649.59375" xlink:href="#BitstreamVeraSans-Roman-64"/>
     <use x="2713.0703125" xlink:href="#BitstreamVeraSans-Roman-20"/>
     <use x="2744.857421875" xlink:href="#BitstreamVeraSans-Roman-70"/>
     <use x="2808.333984375" xlink:href="#BitstreamVeraSans-Roman-65"/>
     <use x="2869.857421875" xlink:href="#BitstreamVeraSans-Roman-72"/>
    </g>
   </g>
   <g id="legend_1">
    <g id="patch_7">
     <path d="M 449.684375 320.246875 
L 513.4 320.246875 
L 513.4 111.753125 
L 449.684375 111.753125 
z
" style="fill:#ffffff;stroke:#000000;stroke-linejoin:miter;"/>
    </g>
    <g id="line2d_41">
     <path d="M 456.684375 119.851562 
L 470.684375 119.851562 
" style="fill:none;stroke:#8000ff;stroke-linecap:square;"/>
    </g>
    <g id="line2d_42"/>
    <g id="text_17">
     <!-- gold -->
     <g transform="translate(481.684375 123.3515625)scale(0.1 -0.1)">
      <use xlink:href="#BitstreamVeraSans-Roman-67"/>
      <use x="63.4765625" xlink:href="#BitstreamVeraSans-Roman-6f"/>
      <use x="124.658203125" xlink:href="#BitstreamVeraSans-Roman-6c"/>
      <use x="152.44140625" xlink:href="#BitstreamVeraSans-Roman-64"/>
     </g>
    </g>
    <g id="line2d_43">
     <path d="M 456.684375 134.529688 
L 470.684375 134.529688 
" style="fill:none;stroke:#5a3bfd;stroke-linecap:square;"/>
    </g>
    <g id="line2d_44"/>
    <g id="text_18">
     <!-- cuui -->
     <g transform="translate(481.684375 138.0296875)scale(0.1 -0.1)">
      <use xlink:href="#BitstreamVeraSans-Roman-63"/>
      <use x="54.98046875" xlink:href="#BitstreamVeraSans-Roman-75"/>
      <use x="118.359375" xlink:href="#BitstreamVeraSans-Roman-75"/>
      <use x="181.73828125" xlink:href="#BitstreamVeraSans-Roman-69"/>
     </g>
    </g>
    <g id="line2d_45">
     <path d="M 456.684375 149.207813 
L 470.684375 149.207813 
" style="fill:none;stroke:#3176f8;stroke-linecap:square;"/>
    </g>
    <g id="line2d_46"/>
    <g id="text_19">
     <!-- camb -->
     <g transform="translate(481.684375 152.7078125)scale(0.1 -0.1)">
      <use xlink:href="#BitstreamVeraSans-Roman-63"/>
      <use x="54.98046875" xlink:href="#BitstreamVeraSans-Roman-61"/>
      <use x="116.259765625" xlink:href="#BitstreamVeraSans-Roman-6d"/>
      <use x="213.671875" xlink:href="#BitstreamVeraSans-Roman-62"/>
     </g>
    </g>
    <g id="line2d_47">
     <path d="M 456.684375 163.885938 
L 470.684375 163.885938 
" style="fill:none;stroke:#09a9ee;stroke-linecap:square;"/>
    </g>
    <g id="line2d_48"/>
    <g id="text_20">
     <!-- AMU -->
     <defs>
      <path d="M 9.8125 72.90625 
L 24.515625 72.90625 
L 43.109375 23.296875 
L 61.8125 72.90625 
L 76.515625 72.90625 
L 76.515625 0 
L 66.890625 0 
L 66.890625 64.015625 
L 48.09375 14.015625 
L 38.1875 14.015625 
L 19.390625 64.015625 
L 19.390625 0 
L 9.8125 0 
z
" id="BitstreamVeraSans-Roman-4d"/>
      <path d="M 8.6875 72.90625 
L 18.609375 72.90625 
L 18.609375 28.609375 
Q 18.609375 16.890625 22.84375 11.734375 
Q 27.09375 6.59375 36.625 6.59375 
Q 46.09375 6.59375 50.34375 11.734375 
Q 54.59375 16.890625 54.59375 28.609375 
L 54.59375 72.90625 
L 64.5 72.90625 
L 64.5 27.390625 
Q 64.5 13.140625 57.4375 5.859375 
Q 50.390625 -1.421875 36.625 -1.421875 
Q 22.796875 -1.421875 15.734375 5.859375 
Q 8.6875 13.140625 8.6875 27.390625 
z
" id="BitstreamVeraSans-Roman-55"/>
      <path d="M 34.1875 63.1875 
L 20.796875 26.90625 
L 47.609375 26.90625 
z
M 28.609375 72.90625 
L 39.796875 72.90625 
L 67.578125 0 
L 57.328125 0 
L 50.6875 18.703125 
L 17.828125 18.703125 
L 11.1875 0 
L 0.78125 0 
z
" id="BitstreamVeraSans-Roman-41"/>
     </defs>
     <g transform="translate(481.684375 167.3859375)scale(0.1 -0.1)">
      <use xlink:href="#BitstreamVeraSans-Roman-41"/>
      <use x="68.408203125" xlink:href="#BitstreamVeraSans-Roman-4d"/>
      <use x="154.6875" xlink:href="#BitstreamVeraSans-Roman-55"/>
     </g>
    </g>
    <g id="line2d_49">
     <path d="M 456.684375 178.564063 
L 470.684375 178.564063 
" style="fill:none;stroke:#1dd1e2;stroke-linecap:square;"/>
    </g>
    <g id="line2d_50"/>
    <g id="text_21">
     <!-- RR -->
     <defs>
      <path d="M 44.390625 34.1875 
Q 47.5625 33.109375 50.5625 29.59375 
Q 53.5625 26.078125 56.59375 19.921875 
L 66.609375 0 
L 56 0 
L 46.6875 18.703125 
Q 43.0625 26.03125 39.671875 28.421875 
Q 36.28125 30.8125 30.421875 30.8125 
L 19.671875 30.8125 
L 19.671875 0 
L 9.8125 0 
L 9.8125 72.90625 
L 32.078125 72.90625 
Q 44.578125 72.90625 50.734375 67.671875 
Q 56.890625 62.453125 56.890625 51.90625 
Q 56.890625 45.015625 53.6875 40.46875 
Q 50.484375 35.9375 44.390625 34.1875 
M 19.671875 64.796875 
L 19.671875 38.921875 
L 32.078125 38.921875 
Q 39.203125 38.921875 42.84375 42.21875 
Q 46.484375 45.515625 46.484375 51.90625 
Q 46.484375 58.296875 42.84375 61.546875 
Q 39.203125 64.796875 32.078125 64.796875 
z
" id="BitstreamVeraSans-Roman-52"/>
     </defs>
     <g transform="translate(481.684375 182.0640625)scale(0.1 -0.1)">
      <use xlink:href="#BitstreamVeraSans-Roman-52"/>
      <use x="69.482421875" xlink:href="#BitstreamVeraSans-Roman-52"/>
     </g>
    </g>
    <g id="line2d_51">
     <path d="M 456.684375 193.242188 
L 470.684375 193.242188 
" style="fill:none;stroke:#44eed2;stroke-linecap:square;"/>
    </g>
    <g id="line2d_52"/>
    <g id="text_22">
     <!-- iitb -->
     <g transform="translate(481.684375 196.7421875)scale(0.1 -0.1)">
      <use xlink:href="#BitstreamVeraSans-Roman-69"/>
      <use x="27.783203125" xlink:href="#BitstreamVeraSans-Roman-69"/>
      <use x="55.56640625" xlink:href="#BitstreamVeraSans-Roman-74"/>
      <use x="94.775390625" xlink:href="#BitstreamVeraSans-Roman-62"/>
     </g>
    </g>
    <g id="line2d_53">
     <path d="M 456.684375 207.920313 
L 470.684375 207.920313 
" style="fill:none;stroke:#6dfdbf;stroke-linecap:square;"/>
    </g>
    <g id="line2d_54"/>
    <g id="text_23">
     <!-- ipn -->
     <g transform="translate(481.684375 211.4203125)scale(0.1 -0.1)">
      <use xlink:href="#BitstreamVeraSans-Roman-69"/>
      <use x="27.783203125" xlink:href="#BitstreamVeraSans-Roman-70"/>
      <use x="91.259765625" xlink:href="#BitstreamVeraSans-Roman-6e"/>
     </g>
    </g>
    <g id="line2d_55">
     <path d="M 456.684375 222.598437 
L 470.684375 222.598437 
" style="fill:none;stroke:#92fda9;stroke-linecap:square;"/>
    </g>
    <g id="line2d_56"/>
    <g id="text_24">
     <!-- nthu -->
     <g transform="translate(481.684375 226.0984375)scale(0.1 -0.1)">
      <use xlink:href="#BitstreamVeraSans-Roman-6e"/>
      <use x="63.37890625" xlink:href="#BitstreamVeraSans-Roman-74"/>
      <use x="102.587890625" xlink:href="#BitstreamVeraSans-Roman-68"/>
      <use x="165.966796875" xlink:href="#BitstreamVeraSans-Roman-75"/>
     </g>
    </g>
    <g id="line2d_57">
     <path d="M 456.684375 237.276563 
L 470.684375 237.276563 
" style="fill:none;stroke:#bbee91;stroke-linecap:square;"/>
    </g>
    <g id="line2d_58"/>
    <g id="text_25">
     <!-- pku -->
     <defs>
      <path d="M 9.078125 75.984375 
L 18.109375 75.984375 
L 18.109375 31.109375 
L 44.921875 54.6875 
L 56.390625 54.6875 
L 27.390625 29.109375 
L 57.625 0 
L 45.90625 0 
L 18.109375 26.703125 
L 18.109375 0 
L 9.078125 0 
z
" id="BitstreamVeraSans-Roman-6b"/>
     </defs>
     <g transform="translate(481.684375 240.7765625)scale(0.1 -0.1)">
      <use xlink:href="#BitstreamVeraSans-Roman-70"/>
      <use x="63.4765625" xlink:href="#BitstreamVeraSans-Roman-6b"/>
      <use x="121.33984375" xlink:href="#BitstreamVeraSans-Roman-75"/>
     </g>
    </g>
    <g id="line2d_59">
     <path d="M 456.684375 251.954687 
L 470.684375 251.954687 
" style="fill:none;stroke:#e2d176;stroke-linecap:square;"/>
    </g>
    <g id="line2d_60"/>
    <g id="text_26">
     <!-- post -->
     <g transform="translate(481.684375 255.4546875)scale(0.1 -0.1)">
      <use xlink:href="#BitstreamVeraSans-Roman-70"/>
      <use x="63.4765625" xlink:href="#BitstreamVeraSans-Roman-6f"/>
      <use x="124.658203125" xlink:href="#BitstreamVeraSans-Roman-73"/>
      <use x="176.7578125" xlink:href="#BitstreamVeraSans-Roman-74"/>
     </g>
    </g>
    <g id="line2d_61">
     <path d="M 456.684375 266.632812 
L 470.684375 266.632812 
" style="fill:none;stroke:#ffa95b;stroke-linecap:square;"/>
    </g>
    <g id="line2d_62"/>
    <g id="text_27">
     <!-- rac -->
     <g transform="translate(481.684375 270.1328125)scale(0.1 -0.1)">
      <use xlink:href="#BitstreamVeraSans-Roman-72"/>
      <use x="41.11328125" xlink:href="#BitstreamVeraSans-Roman-61"/>
      <use x="102.392578125" xlink:href="#BitstreamVeraSans-Roman-63"/>
     </g>
    </g>
    <g id="line2d_63">
     <path d="M 456.684375 281.310937 
L 470.684375 281.310937 
" style="fill:none;stroke:#ff763d;stroke-linecap:square;"/>
    </g>
    <g id="line2d_64"/>
    <g id="text_28">
     <!-- sjtu -->
     <defs>
      <path d="M 9.421875 54.6875 
L 18.40625 54.6875 
L 18.40625 -0.984375 
Q 18.40625 -11.421875 14.421875 -16.109375 
Q 10.453125 -20.796875 1.609375 -20.796875 
L -1.8125 -20.796875 
L -1.8125 -13.1875 
L 0.59375 -13.1875 
Q 5.71875 -13.1875 7.5625 -10.8125 
Q 9.421875 -8.453125 9.421875 -0.984375 
z
M 9.421875 75.984375 
L 18.40625 75.984375 
L 18.40625 64.59375 
L 9.421875 64.59375 
z
" id="BitstreamVeraSans-Roman-6a"/>
     </defs>
     <g transform="translate(481.684375 284.8109375)scale(0.1 -0.1)">
      <use xlink:href="#BitstreamVeraSans-Roman-73"/>
      <use x="52.099609375" xlink:href="#BitstreamVeraSans-Roman-6a"/>
      <use x="79.8828125" xlink:href="#BitstreamVeraSans-Roman-74"/>
      <use x="119.091796875" xlink:href="#BitstreamVeraSans-Roman-75"/>
     </g>
    </g>
    <g id="line2d_65">
     <path d="M 456.684375 295.989062 
L 470.684375 295.989062 
" style="fill:none;stroke:#ff3b1e;stroke-linecap:square;"/>
    </g>
    <g id="line2d_66"/>
    <g id="text_29">
     <!-- ufc -->
     <g transform="translate(481.684375 299.4890625)scale(0.1 -0.1)">
      <use xlink:href="#BitstreamVeraSans-Roman-75"/>
      <use x="63.37890625" xlink:href="#BitstreamVeraSans-Roman-66"/>
      <use x="98.583984375" xlink:href="#BitstreamVeraSans-Roman-63"/>
     </g>
    </g>
    <g id="line2d_67">
     <path d="M 456.684375 310.667187 
L 470.684375 310.667187 
" style="fill:none;stroke:#ff0000;stroke-linecap:square;"/>
    </g>
    <g id="line2d_68"/>
    <g id="text_30">
     <!-- umc -->
     <g transform="translate(481.684375 314.1671875)scale(0.1 -0.1)">
      <use xlink:href="#BitstreamVeraSans-Roman-75"/>
      <use x="63.37890625" xlink:href="#BitstreamVeraSans-Roman-6d"/>
      <use x="160.791015625" xlink:href="#BitstreamVeraSans-Roman-63"/>
     </g>
    </g>
   </g>
  </g>
 </g>
 <defs>
  <clipPath id="pf76c955558">
   <rect height="345.6" width="446.4" x="72.0" y="43.2"/>
  </clipPath>
 </defs>
</svg>
